<svg xmlns="http://www.w3.org/2000/svg" width="1920" height="446" viewBox="0 0 1920 446" fill="none"><path d="M392.605 145.056C441.008 182.702 500.168 198.836 543.193 198.836C591.597 193.458 656.134 166.568 709.916 96.6545C747.563 48.2526 795.966 21.3625 855.126 5.22858C957.311 -16.2834 1000.34 32.1185 1081.01 85.8985C1215.46 171.946 1409.08 171.946 1554.29 107.411C1672.61 53.6305 1801.68 32.1185 1920 85.8985V941H0V53.6305C32.2689 37.4965 64.5378 26.7405 102.185 21.3625C215.126 15.9845 306.555 80.5205 392.605 145.056Z" fill="url(#paint0_linear_10034_719)"></path><path d="M392.605 255.056C441.008 292.702 500.168 308.836 543.193 308.836C591.597 303.458 656.134 276.568 709.916 206.654C747.563 158.253 795.966 131.363 855.126 115.229C957.311 93.7166 1000.34 142.119 1081.01 195.898C1215.46 281.946 1409.08 281.946 1554.29 217.411C1672.61 163.63 1801.68 142.119 1920 195.898V1051H0V163.63C32.2689 147.497 64.5378 136.741 102.185 131.363C215.126 125.984 306.555 190.521 392.605 255.056Z" fill="url(#paint1_linear_10034_719)"></path><path d="M1527.39 207.531C1478.99 246.857 1419.83 263.711 1376.81 263.711C1328.4 258.093 1263.87 230.003 1210.08 156.969C1172.44 106.406 1124.03 78.316 1064.87 61.4619C962.689 38.9897 919.664 89.5521 838.992 145.732C704.538 235.621 510.924 235.621 365.714 168.205C247.395 112.024 118.319 89.5521 -0.00012207 145.732V1039H1920V112.024C1887.73 95.1701 1855.46 83.934 1817.82 78.316C1704.87 72.6979 1613.45 140.114 1527.39 207.531Z" fill="url(#paint2_linear_10034_719)"></path><defs><linearGradient id="paint0_linear_10034_719" x1="960" y1="0" x2="960" y2="941" gradientUnits="userSpaceOnUse"><stop stop-color="#6C33FF" stop-opacity="0.1"></stop><stop offset="1" stop-color="white" stop-opacity="0"></stop></linearGradient><linearGradient id="paint1_linear_10034_719" x1="960" y1="110" x2="960" y2="1051" gradientUnits="userSpaceOnUse"><stop stop-color="#6C33FF" stop-opacity="0.1"></stop><stop offset="1" stop-color="white" stop-opacity="0"></stop></linearGradient><linearGradient id="paint2_linear_10034_719" x1="960" y1="56" x2="960" y2="1039" gradientUnits="userSpaceOnUse"><stop stop-color="#6C33FF" stop-opacity="0.1"></stop><stop offset="1" stop-color="white" stop-opacity="0"></stop></linearGradient></defs></svg>