<svg width="91" height="30" viewBox="0 0 91 30" xmlns="http://www.w3.org/2000/svg">
<path d="M33.8764 29.5995C33.9212 29.689 33.8561 29.7944 33.756 29.7944H15.9761C7.65241 29.7944 0.969727 23.1874 0.969727 14.8972C0.969727 6.60699 7.65241 0 15.9761 0C24.2988 0 30.9815 6.60699 30.9815 14.8972C30.9815 16.946 30.5732 18.8918 29.8336 20.6604C29.7964 20.7494 29.7087 20.8069 29.6122 20.8069H22.8259C22.706 20.8069 22.6381 20.6683 22.713 20.5745C23.9393 19.0392 24.6671 17.0658 24.6671 14.8972C24.6671 9.93183 20.8541 5.99095 15.976 5.99095C11.0967 5.99095 7.28359 9.93183 7.28359 14.8972C7.28359 19.8626 11.4943 23.8035 16.3736 23.8035H30.7948C30.9089 23.8035 31.0133 23.868 31.0645 23.9703L33.8764 29.5995Z"/>
<path d="M36.8783 19.9915H39.6723L41.0555 24.9134C41.1378 25.2242 41.2175 25.5352 41.2953 25.8457C41.3727 26.1565 41.4391 26.4401 41.4938 26.6957C41.5576 26.9975 41.6171 27.2853 41.6719 27.5595H41.6994C41.7541 27.2853 41.8135 26.9975 41.8774 26.6957C41.9323 26.4401 41.9939 26.1566 42.0623 25.8457C42.1309 25.5352 42.2106 25.2244 42.3019 24.9134L43.6852 19.9915H46.5203V29.7941H44.6714V24.1731C44.6714 23.972 44.6736 23.7549 44.6782 23.5217C44.6827 23.2887 44.6941 23.0673 44.7124 22.8568C44.7214 22.6194 44.7351 22.3817 44.7535 22.1441H44.7261C44.6804 22.3725 44.6347 22.5965 44.5891 22.8158C44.5434 23.0077 44.4953 23.2087 44.4453 23.419C44.3951 23.6295 44.3472 23.8257 44.3015 24.0085L42.6169 29.7941H40.713L39.0694 24.0085C39.0145 23.8257 38.9643 23.6295 38.9188 23.419C38.873 23.2087 38.8275 23.0077 38.7818 22.8158C38.7361 22.5965 38.6904 22.3725 38.6448 22.1441H38.6173C38.6263 22.3819 38.6399 22.6195 38.6585 22.8568C38.6675 23.0673 38.6767 23.2887 38.6859 23.5217C38.6949 23.755 38.6995 23.972 38.6995 24.1731V29.7941H36.8779V19.9915H36.8783Z"/>
<path d="M50.9031 30C50.3187 30 49.8005 29.9041 49.3485 29.712C48.8965 29.5202 48.5153 29.2573 48.2048 28.9236C47.8943 28.5901 47.6592 28.1948 47.4995 27.7376C47.3395 27.2809 47.2598 26.7917 47.2598 26.2706C47.2598 25.7497 47.3442 25.2631 47.5132 24.8106C47.682 24.358 47.9193 23.9674 48.2255 23.6384C48.5313 23.3092 48.8965 23.0488 49.3211 22.8568C49.7457 22.6647 50.2136 22.5688 50.7249 22.5688C51.291 22.5688 51.7886 22.6715 52.2179 22.8773C52.647 23.0829 53.0075 23.3733 53.2998 23.7481C53.592 24.1229 53.8134 24.5685 53.9642 25.0849C54.1149 25.6014 54.1901 26.1748 54.1901 26.8054H49.095C49.1679 27.3539 49.3528 27.7834 49.6498 28.0942C49.9464 28.405 50.3597 28.5603 50.8893 28.5603C51.2543 28.5603 51.5466 28.4829 51.7659 28.3274C51.9849 28.1721 52.1446 27.962 52.2452 27.6967H54.0807C54.0166 28.0076 53.9001 28.3023 53.7313 28.5811C53.5623 28.86 53.343 29.1045 53.0739 29.3146C52.8045 29.5248 52.4871 29.6917 52.1221 29.8149C51.7567 29.9382 51.3504 30 50.9031 30ZM50.7523 24.0087C50.2593 24.0087 49.8847 24.1436 49.6293 24.4132C49.3735 24.6827 49.2047 25.0506 49.1226 25.5168H52.2454C52.218 25.0692 52.0695 24.7058 51.8003 24.4269C51.5308 24.1481 51.1816 24.0087 50.7523 24.0087Z"/>
<path d="M54.2314 22.7609H55.2038V20.5674H57.0254V22.7609H58.2307V23.9947H57.0254V27.7237C57.0254 27.989 57.0891 28.1718 57.2171 28.2722C57.3449 28.3729 57.5137 28.423 57.7238 28.423H58.0798C58.1436 28.423 58.2076 28.4185 58.2715 28.4091V29.7803C58.1801 29.7895 58.0798 29.794 57.9702 29.794C57.8696 29.803 57.7463 29.8077 57.6005 29.8077C57.4543 29.8077 57.29 29.8077 57.1075 29.8077C56.8791 29.8077 56.6532 29.7826 56.4296 29.7324C56.2057 29.6821 56.0026 29.5931 55.8201 29.4648C55.6374 29.3369 55.4891 29.1632 55.375 28.9439C55.2607 28.7246 55.2038 28.4504 55.2038 28.1212V23.9946H54.2314V22.7609Z"/>
<path d="M60.7098 23.8852H60.7508C60.9607 23.4832 61.1981 23.1814 61.4631 22.9803C61.7277 22.7794 62.0657 22.6787 62.4765 22.6787C62.6682 22.6787 62.8142 22.6969 62.9148 22.7335V24.3648H62.8737C62.2619 24.301 61.7595 24.4335 61.3671 24.7625C60.9744 25.0917 60.7782 25.6263 60.7782 26.3666V29.7942H58.9155V22.7609H60.7098V23.8852Z"/>
<path d="M63.4492 19.9915H65.3119V21.6641H63.4492V19.9915ZM63.4492 22.7608H65.3119V29.7941H63.4492V22.7608Z"/>
<path d="M69.5025 30C68.9454 30 68.4456 29.9041 68.0028 29.712C67.5598 29.5202 67.1833 29.2573 66.8729 28.9236C66.5624 28.5901 66.3227 28.1969 66.1538 27.7445C65.9848 27.2921 65.9004 26.8054 65.9004 26.2843C65.9004 25.7634 65.9826 25.2768 66.147 24.8243C66.3113 24.3717 66.5462 23.9789 66.8522 23.6452C67.158 23.3117 67.5254 23.0488 67.9549 22.8568C68.384 22.6649 68.8679 22.5688 69.4066 22.5688C69.8631 22.5688 70.274 22.633 70.6393 22.7607C71.0043 22.8888 71.3218 23.0647 71.5911 23.2885C71.8604 23.5126 72.0794 23.7822 72.2485 24.0975C72.4173 24.413 72.5338 24.7623 72.5978 25.1463H70.7761C70.7122 24.8357 70.5683 24.5773 70.3446 24.3715C70.1209 24.1661 69.8355 24.0631 69.4885 24.0631C68.9222 24.0631 68.4976 24.2618 68.2148 24.6595C67.9317 25.0571 67.7902 25.5986 67.7902 26.284C67.7902 26.9513 67.9248 27.4885 68.1943 27.8949C68.4636 28.3016 68.8861 28.505 69.4612 28.505C69.8447 28.505 70.1597 28.4068 70.4062 28.2103C70.6526 28.0137 70.8079 27.7144 70.8718 27.3121H72.6661C72.6387 27.687 72.5449 28.0366 72.3853 28.3609C72.2252 28.6854 72.0107 28.969 71.7416 29.211C71.4721 29.4533 71.1478 29.6454 70.769 29.7868C70.3905 29.929 69.9682 30 69.5025 30Z"/>
<path d="M47.4156 16.9872L45.8158 15.2053C46.6951 14.1615 47.1129 12.7959 47.1129 11.4909C47.1129 8.86566 45.4093 5.99451 41.6846 5.99451C37.9599 5.99451 36.2563 8.86584 36.2563 11.4909C36.2563 14.1159 37.9451 16.9872 41.6846 16.9872C42.806 16.9872 43.7416 16.7276 44.5041 16.2952L45.133 16.9872H47.4156ZM41.6846 15.0663C39.5019 15.0663 38.3645 13.2916 38.3645 11.4907C38.3645 9.6898 39.4821 8.00639 41.6846 8.00639C43.9773 8.00639 45.0047 9.68998 45.0047 11.4907C45.0047 12.2665 44.8245 13.0372 44.4318 13.6635L43.7182 12.8687H41.3899L43.1336 14.7872C42.725 14.9649 42.2444 15.0663 41.6846 15.0663Z"/>
<path d="M52.5494 16.3925V15.5698H52.5082C52.2706 15.8898 51.9992 16.1388 51.6932 16.3172C51.3872 16.4952 50.9878 16.5846 50.4947 16.5846C49.7092 16.5846 49.1068 16.3563 48.6866 15.899C48.2665 15.4421 48.0566 14.825 48.0566 14.048V9.35889H49.9058V13.7326C49.9058 14.1439 49.9994 14.4594 50.1866 14.6787C50.3736 14.898 50.6681 15.0077 51.0702 15.0077C51.5085 15.0077 51.853 14.8592 52.1043 14.5621C52.3554 14.2653 52.481 13.8834 52.481 13.4172V9.35889H54.3439V16.3925H52.5494Z"/>
<path d="M59.6992 16.3925C59.6445 16.3195 59.5986 16.2098 59.5622 16.0633C59.5257 15.9174 59.4983 15.7666 59.48 15.6109H59.4526C59.3612 15.748 59.2584 15.8738 59.1444 15.988C59.0301 16.1024 58.8932 16.2004 58.7335 16.2828C58.5737 16.3651 58.3843 16.4314 58.1651 16.4815C57.946 16.5318 57.6855 16.557 57.3844 16.557C56.663 16.557 56.0738 16.3741 55.6175 16.0086C55.1609 15.6431 54.9326 15.1084 54.9326 14.4044C54.9326 14.0205 55.0055 13.6961 55.1519 13.4309C55.2977 13.1659 55.4987 12.9466 55.7545 12.7729C56.0101 12.5994 56.3093 12.4644 56.6518 12.3684C56.9942 12.2725 57.3617 12.197 57.7543 12.1421C58.3386 12.0599 58.7679 11.9731 59.0418 11.8815C59.3158 11.7902 59.4528 11.612 59.4528 11.3468C59.4528 11.0911 59.3545 10.8875 59.1583 10.7367C58.9619 10.5861 58.6674 10.5104 58.2749 10.5104C57.8366 10.5104 57.5079 10.5906 57.2886 10.7504C57.0696 10.9106 56.9461 11.1596 56.9187 11.4978H55.2615C55.2705 11.1871 55.3389 10.8924 55.4669 10.6134C55.5947 10.3347 55.7819 10.0902 56.0285 9.87976C56.2751 9.66967 56.5854 9.50066 56.96 9.37256C57.3342 9.24463 57.777 9.18066 58.2885 9.18066C59.3385 9.18066 60.0941 9.40697 60.5555 9.8594C61.0164 10.3118 61.2472 10.9493 61.2472 11.772V15.3505C61.2472 15.8808 61.3295 16.2053 61.4938 16.324V16.3925H59.6992ZM57.8364 15.2545C58.1012 15.2545 58.3364 15.2158 58.5418 15.1379C58.7472 15.0603 58.9207 14.9597 59.0624 14.8363C59.2038 14.7129 59.3111 14.5713 59.3842 14.4113C59.4571 14.2514 59.4938 14.0846 59.4938 13.9107V12.8551C59.3295 12.956 59.1309 13.0358 58.898 13.0951C58.6651 13.1549 58.43 13.2116 58.1926 13.2664C57.6996 13.3761 57.3342 13.5042 57.0969 13.6504C56.8593 13.7967 56.7407 14.0343 56.7407 14.3633C56.7407 14.6925 56.8412 14.9235 57.042 15.0559C57.2427 15.1884 57.5077 15.2545 57.8364 15.2545Z"/>
<path d="M63.973 10.3185H64.014C64.2514 9.93467 64.5367 9.64656 64.8701 9.45467C65.2034 9.26278 65.6119 9.16675 66.0961 9.16675C66.4611 9.16675 66.7923 9.23323 67.0891 9.36549C67.3858 9.4981 67.6392 9.6808 67.8493 9.91395C68.0593 10.1471 68.2237 10.4235 68.3425 10.7433C68.4611 11.0635 68.5205 11.4154 68.5205 11.799V16.3921H66.6577V12.0732C66.6577 11.6893 66.5525 11.3786 66.3427 11.1408C66.1326 10.9033 65.8313 10.7844 65.4387 10.7844C65.0278 10.7844 64.6874 10.933 64.4183 11.23C64.1488 11.5269 64.0142 11.9177 64.0142 12.4022V16.3921H62.1514V9.35882H63.9731V10.3185H63.973Z"/>
<path d="M68.8491 9.35884H69.8217V7.16516H71.6434V9.35884H72.8487V10.5929H71.6434V14.3221C71.6434 14.5873 71.7072 14.7702 71.8351 14.8705C71.9629 14.9712 72.1318 15.0213 72.342 15.0213H72.6981C72.7618 15.0213 72.8259 15.0168 72.8898 15.0075V16.3786C72.7983 16.3878 72.6981 16.3923 72.5884 16.3923C72.4878 16.4013 72.3645 16.406 72.2187 16.406C72.0724 16.406 71.9082 16.406 71.7255 16.406C71.4971 16.406 71.2712 16.381 71.0475 16.3307C70.8235 16.2804 70.6205 16.1914 70.438 16.0631C70.2553 15.9352 70.107 15.7615 69.9928 15.5422C69.8785 15.323 69.8217 15.0487 69.8217 14.7195V10.5929H68.8491V9.35884Z"/>
<path d="M77.9708 16.3925V15.5698H77.9296C77.692 15.8898 77.4206 16.1388 77.1146 16.3172C76.8086 16.4952 76.4091 16.5846 75.9161 16.5846C75.1306 16.5846 74.5281 16.3563 74.108 15.899C73.6879 15.4421 73.478 14.825 73.478 14.048V9.35889H75.3274V13.7326C75.3274 14.1439 75.4209 14.4594 75.6082 14.6787C75.7952 14.898 76.0896 15.0077 76.4918 15.0077C76.9301 15.0077 77.2746 14.8592 77.5259 14.5621C77.777 14.2653 77.9026 13.8834 77.9026 13.4172V9.35889H79.7654V16.3925H77.9708Z"/>
<path d="M80.697 9.35882H82.4914V10.3048H82.5324C82.7241 9.98494 82.9889 9.71539 83.3268 9.49594C83.6644 9.27666 84.0802 9.16675 84.5733 9.16675C85.0206 9.16675 85.4133 9.27882 85.7512 9.50278C86.0889 9.72674 86.3446 10.026 86.5183 10.4008H86.5457C86.7829 10.0168 87.0819 9.71521 87.4428 9.49594C87.8035 9.27666 88.2076 9.16675 88.6551 9.16675C89.3947 9.16675 89.9653 9.38837 90.3673 9.83161C90.769 10.275 90.9699 10.8853 90.9699 11.662V16.3923H89.1071V11.9775C89.1071 11.5756 89.0133 11.2738 88.8263 11.0727C88.6391 10.8718 88.372 10.7711 88.0251 10.7711C87.6324 10.7711 87.3242 10.9105 87.1005 11.1893C86.8765 11.4682 86.7649 11.8404 86.7649 12.3065V16.3923H84.9019V11.9775C84.9019 11.5756 84.8082 11.2738 84.6211 11.0727C84.4338 10.8718 84.1668 10.7711 83.8198 10.7711C83.4362 10.7711 83.1302 10.9105 82.902 11.1893C82.6737 11.4682 82.5596 11.8404 82.5596 12.3065V16.3923H80.6968L80.697 9.35882Z"/>
</svg>
