<svg width="178" height="40" viewBox="0 0 178 40" fill="none" xmlns="http://www.w3.org/2000/svg">
<path d="M40 20C40 31.0457 31.0457 40 20 40C8.95434 40 0 31.0457 0 20C0 8.95434 8.95434 0 20 0C31.0457 0 40 8.95434 40 20ZM40 40C51.0457 40 60 31.0457 60 20C60 8.95434 51.0457 0 40 0V40Z" fill="#6C33FF"/>
<path d="M82.168 33.932C80.464 33.932 78.88 33.62 77.416 32.996C75.976 32.372 74.728 31.508 73.672 30.404C72.64 29.276 71.884 27.968 71.404 26.48L75.472 24.716C76.12 26.252 77.056 27.464 78.28 28.352C79.504 29.216 80.884 29.648 82.42 29.648C83.284 29.648 84.028 29.516 84.652 29.252C85.3 28.964 85.792 28.58 86.128 28.1C86.488 27.62 86.668 27.044 86.668 26.372C86.668 25.58 86.428 24.932 85.948 24.428C85.492 23.9 84.796 23.492 83.86 23.204L78.712 21.548C76.624 20.9 75.052 19.928 73.996 18.632C72.94 17.336 72.412 15.812 72.412 14.06C72.412 12.524 72.784 11.168 73.528 9.992C74.296 8.816 75.352 7.904 76.696 7.256C78.064 6.584 79.624 6.248 81.376 6.248C82.984 6.248 84.46 6.536 85.804 7.112C87.148 7.664 88.3 8.444 89.26 9.452C90.244 10.436 90.976 11.6 91.456 12.944L87.424 14.744C86.896 13.4 86.104 12.368 85.048 11.648C83.992 10.904 82.768 10.532 81.376 10.532C80.56 10.532 79.84 10.676 79.216 10.964C78.592 11.228 78.1 11.612 77.74 12.116C77.404 12.596 77.236 13.172 77.236 13.844C77.236 14.588 77.476 15.248 77.956 15.824C78.436 16.376 79.168 16.808 80.152 17.12L85.084 18.668C87.22 19.364 88.816 20.324 89.872 21.548C90.952 22.772 91.492 24.284 91.492 26.084C91.492 27.62 91.096 28.976 90.304 30.152C89.512 31.328 88.42 32.252 87.028 32.924C85.636 33.596 84.016 33.932 82.168 33.932ZM99.4688 33.932C98.1008 33.932 96.9128 33.704 95.9048 33.248C94.8968 32.792 94.1168 32.144 93.5648 31.304C93.0128 30.44 92.7368 29.444 92.7368 28.316C92.7368 27.236 92.9768 26.276 93.4568 25.436C93.9368 24.572 94.6808 23.852 95.6888 23.276C96.6968 22.7 97.9688 22.292 99.5048 22.052L105.913 21.008V24.608L100.405 25.544C99.4688 25.712 98.7728 26.012 98.3168 26.444C97.8608 26.876 97.6328 27.44 97.6328 28.136C97.6328 28.808 97.8848 29.348 98.3888 29.756C98.9168 30.14 99.5648 30.332 100.333 30.332C101.317 30.332 102.181 30.128 102.925 29.72C103.693 29.288 104.281 28.7 104.689 27.956C105.121 27.212 105.337 26.396 105.337 25.508V20.468C105.337 19.628 105.001 18.932 104.329 18.38C103.681 17.804 102.817 17.516 101.737 17.516C100.729 17.516 99.8288 17.792 99.0368 18.344C98.2688 18.872 97.7048 19.58 97.3448 20.468L93.4928 18.596C93.8768 17.564 94.4768 16.676 95.2928 15.932C96.1328 15.164 97.1168 14.564 98.2448 14.132C99.3728 13.7 100.597 13.484 101.917 13.484C103.525 13.484 104.941 13.784 106.165 14.384C107.389 14.96 108.337 15.776 109.009 16.832C109.705 17.864 110.053 19.076 110.053 20.468V33.5H105.589V30.152L106.597 30.08C106.093 30.92 105.493 31.628 104.797 32.204C104.101 32.756 103.309 33.188 102.421 33.5C101.533 33.788 100.549 33.932 99.4688 33.932ZM120.064 33.932C117.976 33.932 116.152 33.44 114.592 32.456C113.056 31.448 112 30.092 111.424 28.388L114.952 26.696C115.456 27.8 116.152 28.664 117.04 29.288C117.952 29.912 118.96 30.224 120.064 30.224C120.928 30.224 121.612 30.032 122.116 29.648C122.62 29.264 122.872 28.76 122.872 28.136C122.872 27.752 122.764 27.44 122.548 27.2C122.356 26.936 122.08 26.72 121.72 26.552C121.384 26.36 121.012 26.204 120.604 26.084L117.4 25.184C115.744 24.704 114.484 23.972 113.62 22.988C112.78 22.004 112.36 20.84 112.36 19.496C112.36 18.296 112.66 17.252 113.26 16.364C113.884 15.452 114.736 14.744 115.816 14.24C116.92 13.736 118.18 13.484 119.596 13.484C121.444 13.484 123.076 13.928 124.492 14.816C125.908 15.704 126.916 16.952 127.516 18.56L123.916 20.252C123.58 19.364 123.016 18.656 122.224 18.128C121.432 17.6 120.544 17.336 119.56 17.336C118.768 17.336 118.144 17.516 117.688 17.876C117.232 18.236 117.004 18.704 117.004 19.28C117.004 19.64 117.1 19.952 117.292 20.216C117.484 20.48 117.748 20.696 118.084 20.864C118.444 21.032 118.852 21.188 119.308 21.332L122.44 22.268C124.048 22.748 125.284 23.468 126.148 24.428C127.036 25.388 127.48 26.564 127.48 27.956C127.48 29.132 127.168 30.176 126.544 31.088C125.92 31.976 125.056 32.672 123.952 33.176C122.848 33.68 121.552 33.932 120.064 33.932ZM129.304 33.5V13.916H134.02V33.5H129.304ZM129.304 11.72V6.68H134.02V11.72H129.304ZM146.006 33.932C144.062 33.932 142.31 33.488 140.75 32.6C139.214 31.688 138.002 30.464 137.114 28.928C136.226 27.368 135.782 25.616 135.782 23.672C135.782 21.728 136.226 19.988 137.114 18.452C138.002 16.916 139.214 15.704 140.75 14.816C142.31 13.928 144.062 13.484 146.006 13.484C147.398 13.484 148.694 13.736 149.894 14.24C151.094 14.72 152.126 15.392 152.99 16.256C153.878 17.096 154.514 18.104 154.898 19.28L150.758 21.08C150.398 20.096 149.786 19.304 148.922 18.704C148.082 18.104 147.11 17.804 146.006 17.804C144.974 17.804 144.05 18.056 143.234 18.56C142.442 19.064 141.818 19.76 141.362 20.648C140.906 21.536 140.678 22.556 140.678 23.708C140.678 24.86 140.906 25.88 141.362 26.768C141.818 27.656 142.442 28.352 143.234 28.856C144.05 29.36 144.974 29.612 146.006 29.612C147.134 29.612 148.118 29.312 148.958 28.712C149.798 28.112 150.398 27.308 150.758 26.3L154.898 28.172C154.514 29.276 153.89 30.272 153.026 31.16C152.162 32.024 151.13 32.708 149.93 33.212C148.73 33.692 147.422 33.932 146.006 33.932ZM166.252 33.932C164.332 33.932 162.58 33.488 160.996 32.6C159.436 31.712 158.188 30.5 157.252 28.964C156.34 27.428 155.884 25.676 155.884 23.708C155.884 21.74 156.34 19.988 157.252 18.452C158.188 16.916 159.436 15.704 160.996 14.816C162.556 13.928 164.308 13.484 166.252 13.484C168.172 13.484 169.912 13.928 171.472 14.816C173.032 15.704 174.268 16.916 175.18 18.452C176.116 19.964 176.584 21.716 176.584 23.708C176.584 25.676 176.116 27.428 175.18 28.964C174.244 30.5 172.996 31.712 171.436 32.6C169.876 33.488 168.148 33.932 166.252 33.932ZM166.252 29.612C167.308 29.612 168.232 29.36 169.024 28.856C169.84 28.352 170.476 27.656 170.932 26.768C171.412 25.856 171.652 24.836 171.652 23.708C171.652 22.556 171.412 21.548 170.932 20.684C170.476 19.796 169.84 19.1 169.024 18.596C168.232 18.068 167.308 17.804 166.252 17.804C165.172 17.804 164.224 18.068 163.408 18.596C162.592 19.1 161.944 19.796 161.464 20.684C161.008 21.548 160.78 22.556 160.78 23.708C160.78 24.836 161.008 25.856 161.464 26.768C161.944 27.656 162.592 28.352 163.408 28.856C164.224 29.36 165.172 29.612 166.252 29.612Z" fill="white"/>
</svg>
