<svg xmlns="http://www.w3.org/2000/svg" width="40" height="40" viewBox="0 0 40 40" fill="none"><path d="M38.5095 17.588L36.6665 16.667C36.6665 7.461 29.204 0 20 0C10.795 0 3.333 7.461 3.333 16.667L1.491 17.588C0.671 17.998 0 19.084 0 20V23.3335C0 24.2495 0.671 25.3355 1.491 25.7455L3.333 26.6665H5.833V16.667C5.833 8.8545 12.1885 2.5 20 2.5C27.811 2.5 34.1665 8.8545 34.1665 16.667V30C34.1665 34.142 30.809 37.5 26.6665 37.5H21.6665V35H18.333V40H26.6665C32.189 40 36.6665 35.5225 36.6665 30V26.6665L38.5095 25.7455C39.3295 25.3355 40 24.2495 40 23.3335V20C40 19.084 39.3295 17.998 38.5095 17.588Z" fill="#6C33FF"></path><path d="M26.6665 12.5H21.25V8.958C22.233 8.623 22.9165 7.913 22.9165 7.083C22.9165 5.9325 21.6115 5 20 5C18.3885 5 17.083 5.9325 17.083 7.083C17.083 7.913 17.7665 8.625 18.75 8.958V12.5H13.333C10.573 12.5 8.33301 14.7395 8.33301 17.5V24.1665C8.33301 28.766 12.0675 32.5 16.667 32.5H23.3335C27.933 32.5 31.6665 28.766 31.6665 24.1665V17.5C31.6665 14.7395 29.427 12.5 26.6665 12.5ZM14.167 20.8335V19.167C14.167 18.245 14.914 17.5 15.833 17.5C16.753 17.5 17.5 18.245 17.5 19.167V20.8335C17.5 21.7565 16.753 22.5 15.833 22.5C14.914 22.5 14.167 21.7565 14.167 20.8335ZM24.1665 27.5L20.8335 28.3335H19.167L15.833 27.5V25.8335H24.1665V27.5ZM25.8335 20.8335C25.8335 21.7565 25.0865 22.5 24.1665 22.5C23.247 22.5 22.5 21.7565 22.5 20.8335V19.167C22.5 18.245 23.247 17.5 24.1665 17.5C25.0865 17.5 25.8335 18.245 25.8335 19.167V20.8335Z" fill="#6C33FF"></path></svg>