<svg xmlns="http://www.w3.org/2000/svg" width="24" height="24" viewBox="0 0 24 24" fill="none"><path d="M21.0938 13.9219L24 19.2656L23.625 22.3594C23.5312 22.9688 23.2031 23.4844 22.6875 23.7656C22.4062 23.9531 22.0781 24 21.75 24C21.5156 24 21.2344 23.9531 21 23.8594L18.1406 22.6406L15.2344 17.25C14.1562 17.4844 13.0781 17.625 12 17.625C10.875 17.625 9.79688 17.4844 8.71875 17.2031L5.8125 22.6406L2.95312 23.8594C2.71875 23.9531 2.4375 24 2.20312 24C1.875 24 1.54688 23.9531 1.26562 23.7656C0.75 23.4844 0.421875 22.9688 0.328125 22.3594L0 19.2656L2.90625 13.875C2.20312 13.2188 1.59375 12.5625 1.03125 11.7656C0.796875 11.3906 0.9375 10.9219 1.3125 10.6875L1.96875 10.3125C2.29688 10.125 2.71875 10.2188 2.95312 10.5469C3.28125 11.0156 3.60938 11.4375 3.98438 11.8594L7.54688 5.20312C7.54688 4.96875 7.5 4.73438 7.5 4.5C7.5 2.01562 9.51562 0 12 0C14.4375 0 16.4531 2.01562 16.4531 4.5C16.4531 4.73438 16.4531 4.96875 16.4062 5.20312L19.9688 11.8594C20.3438 11.4375 20.6719 11.0156 21 10.5469C21.2344 10.2188 21.6562 10.125 21.9844 10.3125L22.6406 10.6875C23.0156 10.9219 23.1562 11.3906 22.9219 11.7656C22.3594 12.5625 21.75 13.2656 21.0938 13.9219ZM12 2.25C10.7344 2.25 9.75 3.28125 9.75 4.5C9.75 5.76562 10.7344 6.75 12 6.75C13.2188 6.75 14.2031 5.76562 14.2031 4.5C14.2031 3.28125 13.2188 2.25 12 2.25ZM4.21875 20.8594L10.6875 8.8125C9.98438 8.57812 9.28125 8.20312 8.76562 7.6875L2.29688 19.7344L2.53125 21.6094L4.21875 20.8594ZM12 15.375C12.7031 15.375 13.4062 15.2812 14.1094 15.1406L12 11.2031L9.84375 15.1875C10.5469 15.3281 11.25 15.375 12 15.375ZM13.2656 8.8125L16.3125 14.4844C16.9688 14.1562 17.625 13.8281 18.2344 13.4062L15.1875 7.6875C14.6719 8.20312 14.0156 8.57812 13.2656 8.8125ZM21.4219 21.6094L21.6562 19.7344L19.3125 15.375C18.7031 15.7969 18.0469 16.125 17.3438 16.4531L19.7344 20.8594L21.4219 21.6094Z" fill="#7214FF"></path></svg>