<svg xmlns="http://www.w3.org/2000/svg" width="40" height="40" viewBox="0 0 40 40" fill="none"><g clip-path="url(#clip0_8061_12262)"><path d="M39.2741 28.4049L38.522 28.0289L21.5722 36.5038C20.5994 36.9966 19.4006 36.9966 18.4278 36.5038L1.47805 28.0289L0.725937 28.4049C0.328906 28.6034 0.078125 29.0092 0.078125 29.4531C0.078125 29.897 0.328906 30.3028 0.725937 30.5012L19.4759 39.8762C19.8058 40.0412 20.1942 40.0412 20.5241 39.8762L39.2741 30.5012C39.6711 30.3028 39.9219 29.897 39.9219 29.4531C39.9219 29.0092 39.6711 28.6034 39.2741 28.4049Z" fill="#6C33FF"></path><path d="M39.2741 22.9362L38.522 22.5602L21.5722 31.035C20.5994 31.5278 19.4006 31.5278 18.4278 31.035L1.47805 22.5602L0.725937 22.9362C0.328906 23.1346 0.078125 23.5404 0.078125 23.9843C0.078125 24.4282 0.328906 24.834 0.725937 25.0324L19.4759 34.4074C19.8058 34.5724 20.1942 34.5724 20.5241 34.4074L39.2741 25.0324C39.6711 24.834 39.9219 24.4282 39.9219 23.9843C39.9219 23.5404 39.6711 23.1346 39.2741 22.9362Z" fill="#6C33FF"></path><path d="M9.6943 13.7905L12.0381 17.8501C12.3616 18.4105 13.0784 18.6027 13.6389 18.279L14.6039 17.7218C15.1891 18.1655 15.8176 18.5311 16.4844 18.8155V19.9219C16.4844 20.5691 17.0091 21.0938 17.6563 21.0938H22.3438C22.9909 21.0938 23.5156 20.5691 23.5156 19.9219V18.8155C24.1824 18.5311 24.8109 18.1655 25.3961 17.7218L26.3611 18.279C26.9216 18.6026 27.6383 18.4105 27.9619 17.8501L30.3056 13.7905C30.6292 13.2301 30.4372 12.5134 29.8767 12.1898L28.9158 11.6349C28.9614 11.27 28.9844 10.9062 28.9844 10.5469C28.9844 10.1875 28.9614 9.82375 28.9159 9.45883L29.8768 8.90398C30.4373 8.58039 30.6293 7.86367 30.3057 7.3032L27.962 3.24367C27.6384 2.6832 26.9216 2.49109 26.3612 2.81477L25.3961 3.37188C24.8111 2.92828 24.1824 2.56258 23.5156 2.27813V1.17188C23.5156 0.524687 22.9909 0 22.3438 0H17.6563C17.0091 0 16.4844 0.524687 16.4844 1.17188V2.27813C15.8176 2.56258 15.1889 2.92828 14.6039 3.37188L13.6389 2.81469C13.0784 2.49109 12.3617 2.68313 12.0381 3.24359L9.69438 7.30313C9.37079 7.86359 9.56282 8.58031 10.1233 8.90391L11.0842 9.45875C11.0386 9.82375 11.0156 10.1875 11.0156 10.5469C11.0156 10.9062 11.0386 11.27 11.0841 11.6349L10.1232 12.1898C9.56274 12.5134 9.37071 13.2301 9.6943 13.7905ZM20 7.03125C21.9385 7.03125 23.5156 8.60836 23.5156 10.5469C23.5156 12.4854 21.9385 14.0625 20 14.0625C18.0615 14.0625 16.4844 12.4854 16.4844 10.5469C16.4844 8.60836 18.0615 7.03125 20 7.03125Z" fill="#6C33FF"></path><path d="M0.725937 19.5637L19.4759 28.9387C19.8058 29.1037 20.1942 29.1037 20.5241 28.9387L39.2741 19.5637C39.6711 19.3653 39.9219 18.9595 39.9219 18.5156C39.9219 18.0717 39.6711 17.6659 39.2741 17.4675L32.6719 14.1664C32.5945 14.4388 32.4834 14.7061 32.3355 14.9622L29.9917 19.0219C29.3658 20.1061 28.1987 20.7799 26.946 20.7799C26.9459 20.7799 26.946 20.7799 26.9459 20.7799C26.5539 20.7799 26.1652 20.7137 25.7965 20.5861C25.485 22.2081 24.0552 23.4375 22.3438 23.4375H17.6562C15.9448 23.4375 14.515 22.2081 14.2036 20.5861C13.8349 20.7138 13.4462 20.7799 13.0541 20.7799C11.8013 20.7799 10.6342 20.1062 10.0082 19.0217L7.66453 14.9625C7.51797 14.7087 7.40508 14.4419 7.32641 14.1673L0.725937 17.4675C0.328906 17.6659 0.078125 18.0717 0.078125 18.5156C0.078125 18.9595 0.328906 19.3653 0.725937 19.5637Z" fill="#6C33FF"></path></g><defs><clipPath id="clip0_8061_12262"><rect width="40" height="40" fill="white"></rect></clipPath></defs></svg>