<svg xmlns="http://www.w3.org/2000/svg" width="40" height="40" viewBox="0 0 40 40" fill="none"><path d="M2.34375 20C2.34375 10.2643 10.2643 2.34375 20 2.34375C23.6615 2.34375 27.1534 3.45398 30.0934 5.51461H27.822C27.1748 5.51461 26.6502 6.0393 26.6502 6.68648C26.6502 7.33367 27.1748 7.85836 27.822 7.85836H33.3136C33.9608 7.85836 34.4855 7.33367 34.4855 6.68648V1.19492C34.4855 0.547734 33.9608 0.0230469 33.3136 0.0230469C32.6664 0.0230469 32.1417 0.547734 32.1417 1.19492V4.11203C28.6709 1.44523 24.4461 0 20 0C14.6578 0 9.63539 2.08039 5.85781 5.85781C2.08039 9.63539 0 14.6578 0 20C0 23.5095 0.927422 26.9673 2.68203 29.9998C2.89922 30.3753 3.29281 30.585 3.69742 30.585C3.89664 30.585 4.09852 30.5341 4.28328 30.4273C4.84344 30.1031 5.03477 29.3862 4.7107 28.826C3.16227 26.1498 2.34375 23.0978 2.34375 20Z" fill="#6C33FF"></path><path d="M37.318 10.0002C36.9938 9.43993 36.2768 9.24868 35.7168 9.57282C35.1566 9.89696 34.9653 10.6138 35.2893 11.1741C36.8378 13.8501 37.6563 16.902 37.6563 20C37.6563 29.7357 29.7357 37.6563 20 37.6563C16.3389 37.6563 12.8476 36.5457 9.90785 34.4854H12.178C12.8252 34.4854 13.3499 33.9607 13.3499 33.3135C13.3499 32.6663 12.8252 32.1416 12.178 32.1416H6.68652C6.03934 32.1416 5.51465 32.6663 5.51465 33.3135V38.8051C5.51465 39.4523 6.03934 39.977 6.68652 39.977C7.33371 39.977 7.8584 39.4523 7.8584 38.8051V35.8851C11.3292 38.5527 15.5534 40 20 40C25.3422 40 30.3646 37.9196 34.1422 34.1422C37.9196 30.3646 40 25.3422 40 20C40 16.4904 39.0726 13.0325 37.318 10.0002Z" fill="#6C33FF"></path><path d="M30.0322 16.969C30.1127 16.6688 30.0706 16.3489 29.9151 16.0798L28.3526 13.3734C28.029 12.813 27.3124 12.6209 26.7518 12.9445L25.6891 13.558C24.8256 12.7928 23.8254 12.2148 22.7344 11.8505V10.625C22.7344 9.97781 22.2097 9.45312 21.5625 9.45312H18.4375C17.7903 9.45312 17.2656 9.97781 17.2656 10.625V11.8505C16.1746 12.2147 15.1743 12.7927 14.3108 13.558L13.2482 12.9445C12.6877 12.6207 11.9709 12.8128 11.6474 13.3734L10.0849 16.0797C9.76133 16.6402 9.95337 17.3569 10.5138 17.6805L11.5762 18.2938C11.4632 18.8534 11.4062 19.4243 11.4062 19.9999C11.4062 20.5755 11.4631 21.1465 11.5762 21.706L10.5138 22.3194C9.95337 22.643 9.76133 23.3597 10.0849 23.9202L11.6474 26.6265C11.971 27.187 12.6877 27.3791 13.2482 27.0554L14.3108 26.4419C15.1743 27.2072 16.1745 27.7852 17.2656 28.1494V29.375C17.2656 30.0222 17.7903 30.5469 18.4375 30.5469H21.5625C22.2097 30.5469 22.7344 30.0222 22.7344 29.375V28.1495C23.8254 27.7853 24.8256 27.2073 25.6891 26.442L26.7518 27.0555C27.3123 27.3791 28.029 27.187 28.3526 26.6266L29.9151 23.9203C30.0705 23.6512 30.1126 23.3313 30.0322 23.0311C29.9518 22.7309 29.7554 22.4749 29.4862 22.3195L28.4238 21.7061C28.5367 21.1466 28.5937 20.5757 28.5937 20C28.5937 19.4243 28.5367 18.8534 28.4238 18.2939L29.4862 17.6805C29.7553 17.5252 29.9518 17.2691 30.0322 16.969ZM19.9999 23.125C18.2741 23.125 16.8749 21.7259 16.8749 20C16.8749 18.2741 18.2741 16.875 19.9999 16.875C21.7258 16.875 23.1249 18.2741 23.1249 20C23.1249 21.7259 21.7258 23.125 19.9999 23.125Z" fill="#6C33FF"></path></svg>