<svg xmlns="http://www.w3.org/2000/svg" width="24" height="25" viewBox="0 0 24 25" fill="none"><path d="M24 13.0469C24 13.6094 23.625 14.1719 23.0625 14.4062L19.3594 16L23.0625 17.6406C23.625 17.875 23.9531 18.4375 23.9531 19.0469C23.9531 19.6094 23.625 20.1719 23.0625 20.4062L12.8438 24.8594C12.5625 24.9531 12.2812 25 11.9531 25C11.6719 25 11.3906 24.9531 11.1094 24.8594L0.890625 20.4062C0.328125 20.1719 0 19.6094 0 19.0469C0 18.4375 0.328125 17.875 0.890625 17.6406L4.59375 16L0.890625 14.4062C0.328125 14.1719 0 13.6094 0 13.0469C0 12.4375 0.328125 11.875 0.890625 11.6406L4.59375 10L0.890625 8.40625C0.328125 8.17188 0 7.60938 0 7C0 6.4375 0.328125 5.875 0.890625 5.64062L11.1094 1.1875C11.6719 0.953125 12.2812 0.953125 12.8438 1.1875L23.0625 5.64062C23.625 5.875 24 6.4375 24 7C24 7.60938 23.625 8.17188 23.0625 8.40625L19.3594 10L23.0625 11.6406C23.625 11.875 24 12.4375 24 13.0469ZM12 3.29688L3.32812 7L12 10.7969L20.625 7.04688L12 3.29688ZM20.625 19.0469L16.5 17.2656L12.8438 18.8594C12.5625 18.9531 12.2812 19 12 19C11.6719 19 11.3906 18.9531 11.1094 18.8594L7.45312 17.2656L3.32812 19L12 22.7969L20.625 19.0469ZM12 16.7969L20.625 13.0469L16.5 11.2656L12.8438 12.8594C12.5625 12.9531 12.2812 13 12 13C11.6719 13 11.3906 12.9531 11.1094 12.8594L7.45312 11.2656L3.32812 13L12 16.7969Z" fill="white"></path></svg>