<svg xmlns="http://www.w3.org/2000/svg" width="24" height="24" viewBox="0 0 24 24" fill="none"><path d="M15 2.25C11.25 2.25 8.25 5.29688 8.25 9C8.25 9.04688 8.25 9.04688 8.25 9.04688C8.25 9.70312 8.34375 10.3594 8.53125 10.9688L2.25 17.25V21.75H6.75V19.5H9V17.25H10.5L12.4688 15.2812C13.2188 15.6094 14.1094 15.75 15 15.75C18.7031 15.75 21.75 12.75 21.75 9C21.75 5.29688 18.7031 2.25 15 2.25ZM15 0C19.9688 0 24 4.03125 24 9C24 14.0156 19.9688 18 15 18C14.3438 18 13.7344 17.9531 13.125 17.8125L11.25 19.6875V20.625C11.25 21.2812 10.7344 21.75 10.125 21.75H9V22.875C9 23.5312 8.48438 24 7.875 24H1.125C0.46875 24 0 23.5312 0 22.875V16.8281C0 16.5 0.09375 16.2188 0.328125 16.0312L6.04688 10.2656C6 9.84375 6 9.42188 6 9C6 4.03125 9.98438 0 15 0ZM15 6.75C15 5.53125 15.9844 4.5 17.25 4.5C18.4688 4.5 19.5 5.53125 19.5 6.75C19.5 8.01562 18.4688 9 17.25 9C15.9844 9 15 8.01562 15 6.75Z" fill="#7214FF"></path></svg>