<svg xmlns="http://www.w3.org/2000/svg" width="15" height="24" viewBox="0 0 15 24" fill="none"><path d="M12.75 0C13.9688 0 15 1.03125 15 2.25V21.75C15 23.0156 13.9688 24 12.75 24H2.25C0.984375 24 0 23.0156 0 21.75V2.25C0 1.03125 0.984375 0 2.25 0H12.75ZM12.4688 21.75C12.6094 21.75 12.75 21.6562 12.75 21.4688V2.53125C12.75 2.39062 12.6094 2.25 12.4688 2.25H2.53125C2.34375 2.25 2.25 2.39062 2.25 2.53125V21.4688C2.25 21.6562 2.34375 21.75 2.53125 21.75H12.4688ZM9.1875 20.25H5.8125C5.48438 20.25 5.25 20.0156 5.25 19.6875V19.3125C5.25 19.0312 5.48438 18.75 5.8125 18.75H9.1875C9.46875 18.75 9.75 19.0312 9.75 19.3125V19.6875C9.75 20.0156 9.46875 20.25 9.1875 20.25Z" fill="#6C33FF"></path></svg>