<svg xmlns="http://www.w3.org/2000/svg" width="40" height="40" viewBox="0 0 40 40" fill="none"><g clip-path="url(#clip0_8061_12201)"><path d="M34.539 6.26215L36.9678 6.05828L36.7716 3.72138L30.1288 4.27889L30.6864 10.9217L33.0233 10.7256L32.7791 7.81578C35.901 11.0791 37.6549 15.4064 37.6549 19.9999C37.6549 24.7157 35.8184 29.1492 32.4839 32.4838C29.1494 35.8184 24.7158 37.6547 20 37.6547C15.2843 37.6547 10.8507 35.8184 7.51608 32.4839C4.18149 29.1494 2.34511 24.7158 2.34511 20C2.34511 15.2843 4.18157 10.8507 7.51608 7.51608C10.8506 4.18149 15.2842 2.34511 20 2.34511V0C14.6579 0 9.63543 2.08035 5.85793 5.85793C2.08035 9.63535 0 14.6578 0 20C0 25.3423 2.08035 30.3646 5.85793 34.1421C9.63543 37.9197 14.6579 40.0001 20 40.0001C25.3422 40.0001 30.3646 37.9197 34.1421 34.1421C37.9197 30.3646 40.0001 25.3422 40.0001 20C40 14.827 38.0368 9.9514 34.539 6.26215Z" fill="#6C33FF"></path><path d="M18.8279 10.3949V7.64697C12.9197 8.20339 8.20388 12.9192 7.64746 18.8274H10.3954V21.1726H7.64746C8.20388 27.0807 12.9197 31.7966 18.8279 32.353V29.6051H21.173V32.353C27.0812 31.7966 31.7971 27.0808 32.3535 21.1726H29.6056V18.8274H32.3535C31.7971 12.9193 27.0813 8.20339 21.173 7.64697V10.3949H18.8279ZM21.173 20.5457L16.7606 24.2585L15.2508 22.4641L18.8279 19.4542V12.8609H21.173V20.5457Z" fill="#6C33FF"></path></g><defs><clipPath id="clip0_8061_12201"><rect width="40" height="40" fill="white"></rect></clipPath></defs></svg>