<svg xmlns="http://www.w3.org/2000/svg" width="48" height="40" viewBox="0 0 48 40" fill="none"><path fill-rule="evenodd" clip-rule="evenodd" d="M6.70168 24.3719H12.223V33.3693H6.70168V24.3719ZM4.12442 3.82834H5.62658C5.94522 3.82834 6.12335 3.46615 5.9267 3.21804L3.60476 0.288842C3.2995 -0.0962806 2.70973 -0.0962806 2.40438 0.288842L0.0822467 3.21804C-0.114408 3.46615 0.0637256 3.82834 0.382368 3.82834H1.88452V37.0274C1.88452 37.6394 2.38595 38.1354 3.00442 38.1354H44.1308V39.6217C44.1308 39.937 44.4967 40.1132 44.7476 39.9186L47.7081 37.6212C48.0973 37.319 48.0973 36.7355 47.7081 36.4335L44.7476 34.136C44.4968 33.9414 44.1308 34.1176 44.1308 34.4329V35.9192H4.12442V3.82834ZM8.12519 17.5821C20.31 13.296 24.7659 8.03754 26.3584 5.17493L24.9035 4.55637C24.5101 4.38914 24.4641 3.83861 24.8555 3.6235L30.4532 0.546741C30.7545 0.381141 31.1318 0.541561 31.2178 0.871803L32.815 7.00728C32.9267 7.43644 32.4912 7.78242 32.0979 7.615L30.3485 6.87123C26.3841 11.8466 19.9043 17.5031 8.12519 17.5821ZM41.5955 12.2652V33.3693H36.0742V12.2652H34.5036C33.9773 12.2652 33.6831 11.6671 34.0079 11.2573L37.8434 6.41876C38.3477 5.78255 39.3219 5.78255 39.8262 6.41876L43.6616 11.2573C43.9865 11.667 43.6924 12.2652 43.1659 12.2652H41.5955ZM26.2832 16.3008H31.8047V33.3693C29.9642 33.3693 28.1238 33.3693 26.2832 33.3693C26.2832 27.6797 26.2832 21.9903 26.2832 16.3008ZM16.4924 20.3363H22.0138V33.3693C20.1733 33.3693 18.3329 33.3693 16.4924 33.3693C16.4924 29.025 16.4924 24.6807 16.4924 20.3363Z" fill="#6C33FF"></path></svg>