<svg xmlns="http://www.w3.org/2000/svg" width="54" height="40" viewBox="0 0 54 40" fill="none"><path d="M22.3492 18.9883H18.6133C18.6519 20.1201 18.7634 21.2483 18.9471 22.366L22.3492 18.9883Z" fill="#004FFC"></path><path d="M17.9242 10.1894C15.8025 9.84788 13.7018 9.38754 11.6324 8.81055C10.0819 11.3488 9.19446 14.2314 9.05078 17.1966H16.805C16.8791 14.8234 17.2552 12.4689 17.9242 10.1894Z" fill="#004FFC"></path><path d="M26.1802 15.1861V10.9144C24.0239 10.8799 21.8713 10.7246 19.7327 10.4492C19.0662 12.6405 18.6899 14.9087 18.6133 17.1965H24.1553L26.1802 15.1861Z" fill="#004FFC"></path><path d="M22.8753 0.65625C18.8195 1.61418 15.2259 3.94357 12.7109 7.24477C14.6159 7.75272 16.5468 8.1591 18.4955 8.46216C19.5224 5.64295 21.0014 3.00702 22.8753 0.65625Z" fill="#004FFC"></path><path d="M26.1816 9.12189V0.189453C25.9932 0.19864 25.8054 0.21186 25.6182 0.226761C23.3214 2.6932 21.5253 5.57621 20.3281 8.71789C22.2708 8.95487 24.2246 9.08973 26.1816 9.12189Z" fill="#004FFC"></path><path d="M33.5129 7.90484C32.3226 5.07718 30.6425 2.47851 28.5486 0.226761C28.3612 0.211748 28.1732 0.19864 27.9844 0.189453V9.12189C29.5099 9.09702 31.041 9.00873 32.5519 8.85905L33.5129 7.90484Z" fill="#004FFC"></path><path d="M37.7928 3.65883C35.852 2.23351 33.6412 1.21221 31.293 0.65625C32.7315 2.4632 33.9395 4.43984 34.8893 6.54118L37.7928 3.65883Z" fill="#004FFC"></path><path d="M27.9844 10.9145V13.3935L30.5822 10.8145C29.7173 10.8673 28.8513 10.9006 27.9844 10.9145Z" fill="#004FFC"></path><path d="M16.8065 18.9883H9.05078C9.22956 22.5029 10.4443 25.888 12.5442 28.7231L17.4003 23.902C17.0583 22.2844 16.8596 20.6402 16.8065 18.9883Z" fill="#004FFC"></path><path d="M41.6214 7.46094L16.375 32.5265C18.9787 34.4384 22.0555 35.6144 25.2785 35.9293C26.4784 36.047 27.6871 36.047 28.887 35.9293C29.1363 35.9047 29.3902 35.874 29.6635 35.8352C29.7915 35.817 29.922 35.8263 30.0461 35.8626C30.1702 35.8989 30.285 35.9612 30.3827 36.0453C30.4804 36.1295 30.5588 36.2335 30.6125 36.3503C30.6662 36.4671 30.694 36.5941 30.694 36.7225V39.9996L37.289 32.9062C37.3327 32.8592 37.3813 32.8169 37.4341 32.7802C41.2808 30.1071 43.9277 26.0517 44.8137 21.4738C45.6997 16.8959 44.7551 12.1554 42.1801 8.25729C42.0024 7.9884 41.8162 7.72295 41.6214 7.46094ZM27.0832 28.8476C26.7261 28.8476 26.377 28.7424 26.0801 28.5455C25.7832 28.3485 25.5518 28.0685 25.4151 27.741C25.2784 27.4134 25.2427 27.053 25.3124 26.7053C25.382 26.3575 25.554 26.0381 25.8065 25.7874C26.059 25.5367 26.3807 25.366 26.7309 25.2968C27.0812 25.2277 27.4442 25.2632 27.7741 25.3989C28.104 25.5345 28.386 25.7643 28.5844 26.0591C28.7828 26.3539 28.8887 26.7004 28.8887 27.055C28.8887 27.5304 28.6985 27.9864 28.3599 28.3225C28.0213 28.6587 27.562 28.8476 27.0832 28.8476ZM32.4997 28.8476C32.1426 28.8476 31.7936 28.7424 31.4966 28.5455C31.1997 28.3485 30.9683 28.0685 30.8316 27.741C30.695 27.4134 30.6592 27.053 30.7289 26.7053C30.7986 26.3575 30.9705 26.0381 31.223 25.7874C31.4755 25.5367 31.7973 25.366 32.1475 25.2968C32.4977 25.2277 32.8608 25.2632 33.1907 25.3989C33.5206 25.5345 33.8026 25.7643 34.001 26.0591C34.1994 26.3539 34.3052 26.7004 34.3052 27.055C34.3052 27.5304 34.115 27.9864 33.7764 28.3225C33.4378 28.6587 32.9786 28.8476 32.4997 28.8476ZM37.9163 28.8476C37.5592 28.8476 37.2101 28.7424 36.9132 28.5455C36.6163 28.3485 36.3849 28.0685 36.2482 27.741C36.1115 27.4134 36.0758 27.053 36.1455 26.7053C36.2151 26.3575 36.3871 26.0381 36.6396 25.7874C36.8921 25.5367 37.2138 25.366 37.564 25.2968C37.9143 25.2277 38.2773 25.2632 38.6072 25.3989C38.9371 25.5345 39.2191 25.7643 39.4175 26.0591C39.6159 26.3539 39.7218 26.7004 39.7218 27.055C39.7218 27.5304 39.5316 27.9864 39.193 28.3225C38.8544 28.6587 38.3951 28.8476 37.9163 28.8476Z" fill="#004FFC"></path><path d="M7.48954 0.261934C3.24234 4.43855 0.623441 9.97443 0.0979101 15.8865C-0.427621 21.7987 1.17423 27.7044 4.619 32.555L3.85617 32.4429C3.73889 32.4257 3.61934 32.4315 3.50434 32.4602C3.38935 32.4888 3.28115 32.5396 3.18595 32.6098C2.99366 32.7514 2.86593 32.9631 2.83086 33.1983C2.79578 33.4334 2.85623 33.6728 2.99891 33.8637C3.14159 34.0546 3.35481 34.1814 3.59166 34.2162L6.63847 34.6644C6.75745 34.6819 6.87875 34.6756 6.99524 34.6459C7.11174 34.6162 7.22109 34.5637 7.31685 34.4914C7.41262 34.4192 7.49288 34.3286 7.55292 34.2252C7.61296 34.1217 7.65157 34.0074 7.66648 33.8889L8.00502 31.2C8.03266 30.9651 7.9657 30.7289 7.81872 30.5428C7.67173 30.3568 7.45664 30.2359 7.22031 30.2066C6.98397 30.1773 6.74553 30.2419 6.55695 30.3863C6.36837 30.5307 6.24492 30.7433 6.21349 30.9777L6.13721 31.5827C2.91695 27.0781 1.41291 21.5843 1.89332 16.0811C2.37372 10.5778 4.80734 5.42282 8.76017 1.53545C8.84492 1.45274 8.91239 1.35422 8.9587 1.24556C9.00501 1.13689 9.02925 1.02022 9.03004 0.902236C9.03083 0.784249 9.00814 0.667268 8.96329 0.558005C8.91844 0.448742 8.85229 0.349347 8.76866 0.265522C8.68502 0.181697 8.58554 0.115092 8.47592 0.069528C8.3663 0.0239639 8.24869 0.000336914 8.12985 3.57713e-06C8.01101 -0.00032976 7.89327 0.0226367 7.78339 0.0675851C7.67351 0.112534 7.57365 0.17858 7.48954 0.261934Z" fill="#004FFC"></path><path d="M48.8105 2.85508H49.489C49.7284 2.85508 49.9581 2.76065 50.1274 2.59256C50.2967 2.42448 50.3918 2.1965 50.3918 1.95879C50.3918 1.72108 50.2967 1.4931 50.1274 1.32502C49.9581 1.15693 49.7284 1.0625 49.489 1.0625H46.7807C46.5413 1.0625 46.3117 1.15693 46.1424 1.32502C45.9731 1.4931 45.878 1.72108 45.878 1.95879V4.64766C45.878 4.88537 45.9731 5.11335 46.1424 5.28144C46.3117 5.44952 46.5413 5.54395 46.7807 5.54395C47.0202 5.54395 47.2498 5.44952 47.4191 5.28144C47.5884 5.11335 47.6835 4.88537 47.6835 4.64766V4.35211C50.9725 8.82546 52.5493 14.3156 52.1312 19.8385C51.7132 25.3613 49.3276 30.5558 45.402 34.4908C45.2335 34.6597 45.1395 34.8881 45.1406 35.1258C45.1418 35.3635 45.238 35.5911 45.4081 35.7584C45.5782 35.9257 45.8083 36.019 46.0477 36.0179C46.2872 36.0167 46.5163 35.9212 46.6848 35.7523C50.9793 31.4474 53.5601 25.7454 53.9508 19.6988C54.3415 13.6522 52.5157 7.66949 48.8105 2.85508Z" fill="#004FFC"></path></svg>