<svg xmlns="http://www.w3.org/2000/svg" width="44" height="44" viewBox="0 0 44 44" fill="none"><g clip-path="url(#clip0_6034_40870)"><path fill-rule="evenodd" clip-rule="evenodd" d="M21.0833 3.421V9.16667H16.9583V6.875C16.9583 6.63208 16.8616 6.39879 16.6898 6.22692L14.146 3.68317C14.1868 3.53146 14.2083 3.37242 14.2083 3.20833C14.2083 2.19633 13.387 1.375 12.375 1.375C11.363 1.375 10.5417 2.19633 10.5417 3.20833C10.5417 4.22033 11.363 5.04167 12.375 5.04167C12.5391 5.04167 12.6981 5.02013 12.8498 4.97934L15.125 7.2545V9.16667H13.7496C11.2186 9.16667 9.16667 11.2186 9.16667 13.75V15.125H7.2545L4.97934 12.8498C5.02013 12.6981 5.04167 12.5391 5.04167 12.375C5.04167 11.363 4.22033 10.5417 3.20833 10.5417C2.19633 10.5417 1.375 11.363 1.375 12.375C1.375 13.387 2.19633 14.2083 3.20833 14.2083C3.37242 14.2083 3.53146 14.1868 3.68317 14.146L6.22692 16.6898C6.39879 16.8616 6.63208 16.9583 6.875 16.9583H9.16667V21.0833H3.421C3.10383 20.5356 2.51121 20.1667 1.83333 20.1667C0.821333 20.1667 0 20.988 0 22C0 23.012 0.821333 23.8333 1.83333 23.8333C2.51121 23.8333 3.10383 23.4644 3.421 22.9167H9.16667V27.0417H6.875C6.63208 27.0417 6.39879 27.1384 6.22692 27.3102L3.68317 29.854C3.53146 29.8132 3.37242 29.7917 3.20833 29.7917C2.19633 29.7917 1.375 30.613 1.375 31.625C1.375 32.637 2.19633 33.4583 3.20833 33.4583C4.22033 33.4583 5.04167 32.637 5.04167 31.625C5.04167 31.4609 5.02013 31.3019 4.97934 31.1502L7.2545 28.875H9.16667V30.25C9.16667 32.7814 11.2186 34.8333 13.7496 34.8333H15.125V36.7455L12.8498 39.0207C12.6981 38.9799 12.5391 38.9583 12.375 38.9583C11.363 38.9583 10.5417 39.7797 10.5417 40.7917C10.5417 41.8037 11.363 42.625 12.375 42.625C13.387 42.625 14.2083 41.8037 14.2083 40.7917C14.2083 40.6276 14.1868 40.4685 14.146 40.3168L16.6898 37.7731C16.8616 37.6012 16.9583 37.3679 16.9583 37.125V34.8333H21.0833V40.579C20.5356 40.8962 20.1667 41.4888 20.1667 42.1667C20.1667 43.1787 20.988 44 22 44C23.012 44 23.8333 43.1787 23.8333 42.1667C23.8333 41.4888 23.4644 40.8962 22.9167 40.579V34.8333H27.0417V37.125C27.0417 37.3679 27.1384 37.6012 27.3102 37.7731L29.854 40.3168C29.8132 40.4685 29.7917 40.6276 29.7917 40.7917C29.7917 41.8037 30.613 42.625 31.625 42.625C32.637 42.625 33.4583 41.8037 33.4583 40.7917C33.4583 39.7797 32.637 38.9583 31.625 38.9583C31.4609 38.9583 31.3019 38.9799 31.1502 39.0207L28.875 36.7455V34.8333H30.2504C32.7814 34.8333 34.8333 32.7814 34.8333 30.25V28.875H36.7455L39.0207 31.1502C38.9799 31.3019 38.9583 31.4609 38.9583 31.625C38.9583 32.637 39.7797 33.4583 40.7917 33.4583C41.8037 33.4583 42.625 32.637 42.625 31.625C42.625 30.613 41.8037 29.7917 40.7917 29.7917C40.6276 29.7917 40.4685 29.8132 40.3168 29.854L37.7731 27.3102C37.6012 27.1384 37.3679 27.0417 37.125 27.0417H34.8333V22.9167H40.579C40.8962 23.4644 41.4888 23.8333 42.1667 23.8333C43.1787 23.8333 44 23.012 44 22C44 20.988 43.1787 20.1667 42.1667 20.1667C41.4888 20.1667 40.8962 20.5356 40.579 21.0833H34.8333V16.9583H37.125C37.3679 16.9583 37.6012 16.8616 37.7731 16.6898L40.3168 14.146C40.4685 14.1868 40.6276 14.2083 40.7917 14.2083C41.8037 14.2083 42.625 13.387 42.625 12.375C42.625 11.363 41.8037 10.5417 40.7917 10.5417C39.7797 10.5417 38.9583 11.363 38.9583 12.375C38.9583 12.5391 38.9799 12.6981 39.0207 12.8498L36.7455 15.125H34.8333V13.75C34.8333 11.2186 32.7814 9.16667 30.2504 9.16667H28.875V7.2545L31.1502 4.97934C31.3019 5.02013 31.4609 5.04167 31.625 5.04167C32.637 5.04167 33.4583 4.22033 33.4583 3.20833C33.4583 2.19633 32.637 1.375 31.625 1.375C30.613 1.375 29.7917 2.19633 29.7917 3.20833C29.7917 3.37242 29.8132 3.53146 29.854 3.68317L27.3102 6.22692C27.1384 6.39879 27.0417 6.63208 27.0417 6.875V9.16667H22.9167V3.421C23.4644 3.10383 23.8333 2.51121 23.8333 1.83333C23.8333 0.821333 23.012 0 22 0C20.988 0 20.1667 0.821333 20.1667 1.83333C20.1667 2.51121 20.5356 3.10383 21.0833 3.421ZM16.7617 22L18.1193 16.9583H19.9224L22.9483 28.1967C23.0798 28.6852 23.5831 28.9749 24.0717 28.8434C24.5603 28.7118 24.8499 28.2086 24.7184 27.72L21.5101 15.8033C21.4023 15.4032 21.0393 15.125 20.625 15.125H17.4167C17.0023 15.125 16.6393 15.4032 16.5316 15.8033L13.3233 27.72C13.1917 28.2086 13.4814 28.7118 13.97 28.8434C14.4586 28.9749 14.9618 28.6852 15.0934 28.1967L16.2681 23.8333H19.25C19.756 23.8333 20.1667 23.4227 20.1667 22.9167C20.1667 22.4107 19.756 22 19.25 22H16.7617ZM28.875 15.125H27.9583C27.4519 15.125 27.0417 15.5352 27.0417 16.0417V27.0417C26.5357 27.0417 26.125 27.4523 26.125 27.9583C26.125 28.4643 26.5357 28.875 27.0417 28.875H27.9583C28.4648 28.875 28.875 28.4648 28.875 27.9583V16.9583C29.381 16.9583 29.7917 16.5477 29.7917 16.0417C29.7917 15.5357 29.381 15.125 28.875 15.125Z" fill="#004FFC"></path></g><defs><clipPath id="clip0_6034_40870"><rect width="44" height="44" fill="white"></rect></clipPath></defs></svg>