<svg xmlns="http://www.w3.org/2000/svg" width="44" height="40" viewBox="0 0 44 40" fill="none"><path d="M18.469 23.8426C18.3298 24.0044 18.1331 24.0874 17.9352 24.0874C17.7726 24.0874 17.6092 24.0313 17.4762 23.9167C16.5571 23.125 16.0298 21.9855 16.0298 20.7907C16.0298 19.6924 16.4641 18.6557 17.2526 17.8715C17.5284 17.5972 17.9741 17.5987 18.2481 17.8745C18.5222 18.1503 18.5209 18.5964 18.2451 18.8705C17.7244 19.3884 17.4376 20.0702 17.4376 20.7906C17.4376 21.5749 17.7865 22.3252 18.3947 22.8491C18.6893 23.1029 18.7226 23.5477 18.4689 23.8424L18.469 23.8426ZM43.9953 32.9894C43.9953 34.9169 42.428 36.485 40.5016 36.485C38.7441 36.485 37.2862 35.1796 37.044 33.4871H31.4136C31.0248 33.4871 30.7096 33.1717 30.7096 32.7827V26.9042H27.7455V33.0801C29.3356 33.407 30.5351 34.8181 30.5351 36.5044C30.5351 38.4319 28.9678 40 27.0415 40C25.1152 40 23.5479 38.4319 23.5479 36.5044C23.5479 34.8182 24.7474 33.407 26.3375 33.0801V26.9042H23.3733V32.7827C23.3733 33.1717 23.0581 33.4871 22.6693 33.4871H17.039C16.7968 35.1796 15.3388 36.485 13.5814 36.485C11.6549 36.485 10.0877 34.9169 10.0877 32.9894C10.0877 31.062 11.655 29.4939 13.5814 29.4939C15.1928 29.4939 16.5521 30.5915 16.9538 32.0784H21.9653V26.9042H19.3671C16.0377 26.9042 13.3292 24.1943 13.3292 20.8631C13.3292 20.0712 13.4833 19.3149 13.7615 18.6212H6.03779C2.70853 18.6212 0 15.9112 0 12.5801C0 9.32301 2.58965 6.6597 5.81692 6.54304C6.44337 4.56866 8.28645 3.1899 10.4046 3.1899C11.056 3.1899 11.6939 3.32038 12.285 3.57166C13.3389 1.40605 15.5439 0 18.0007 0C21.3511 0 24.1045 2.6067 24.3417 5.89953C26.3827 5.90877 28.301 6.91256 29.482 8.55721C30.0706 8.37866 30.6917 8.28295 31.33 8.28295C34.6804 8.28295 37.4338 10.8897 37.6709 14.1825C41.1635 14.1977 44 17.0453 44 20.5433C44 24.0412 41.1481 26.9041 37.6426 26.9041H32.1177V32.0783H37.1292C37.5309 30.5914 38.8903 29.4939 40.5017 29.4939C42.4282 29.4939 43.9954 31.062 43.9954 32.9894L43.9953 32.9894ZM14.8218 5.01936C15.0855 5.30515 15.5309 5.32293 15.8166 5.05907C16.4245 4.49752 17.1864 4.32461 18.2147 4.51487C19.3932 4.73286 20.2918 5.65442 20.5043 6.86255C20.5644 7.20433 20.8615 7.44496 21.1968 7.44496C21.2373 7.44496 21.2783 7.44143 21.3196 7.43413C21.7026 7.36669 21.9584 7.00148 21.891 6.6184C21.5757 4.82505 20.2331 3.45562 18.4707 3.12959C17.0108 2.85948 15.7964 3.16041 14.8616 4.02403C14.5759 4.28789 14.5581 4.73348 14.8218 5.01936ZM5.06561 14.5664C4.45737 14.0424 4.10847 13.292 4.10847 12.5078C4.10847 11.7874 4.39525 11.1056 4.91592 10.5878C5.1917 10.3136 5.19302 9.86756 4.91892 9.59172C4.64498 9.31588 4.19919 9.31447 3.92341 9.58873C3.13487 10.3729 2.70061 11.4096 2.70061 12.5078C2.70061 13.7026 3.2278 14.8421 4.1471 15.6339C4.28006 15.7484 4.44347 15.8045 4.60609 15.8045C4.80399 15.8045 5.00066 15.7215 5.13987 15.5597C5.39357 15.2649 5.36031 14.8202 5.06569 14.5664L5.06561 14.5664ZM32.1175 21.5444V25.4955H37.6424C40.3716 25.4955 42.5919 23.274 42.5919 20.5434C42.5919 17.8127 40.3716 15.5912 37.6424 15.5912C37.4495 15.5912 37.253 15.6027 37.0585 15.6256C36.8525 15.6498 36.6471 15.5821 36.4958 15.4408C36.3446 15.2995 36.2632 15.0987 36.2733 14.8918C36.2773 14.8083 36.2794 14.7249 36.2794 14.6439C36.2794 11.9133 34.059 9.69174 31.3298 9.69174C29.2014 9.69174 27.3157 11.0469 26.6375 13.0638C26.5682 13.2702 26.4073 13.4329 26.2017 13.5044C25.9962 13.576 25.7692 13.5483 25.5867 13.4297C25.0353 13.0711 24.3946 12.8816 23.7336 12.8816C22.0915 12.8816 20.6831 14.052 20.3848 15.6646C20.3202 16.0143 20.0069 16.2615 19.6503 16.2395C19.5526 16.2336 19.4573 16.2306 19.3669 16.2306C16.8139 16.2306 14.7369 18.3087 14.7369 20.863C14.7369 23.4172 16.814 25.4954 19.3669 25.4954H21.9652V21.5442C21.9652 21.1553 22.2804 20.8399 22.6691 20.8399C23.0579 20.8399 23.3731 21.1553 23.3731 21.5442V25.4954H26.3373V21.7165C26.3373 21.3276 26.6525 21.0122 27.0413 21.0122C27.4301 21.0122 27.7453 21.3276 27.7453 21.7165V25.4954H30.7095V21.5442C30.7095 21.1553 31.0247 20.8399 31.4134 20.8399C31.8022 20.8399 32.1174 21.1553 32.1174 21.5442L32.1175 21.5444ZM33.8335 15.1456C33.8937 15.4874 34.1907 15.728 34.5259 15.728C34.5664 15.728 34.6076 15.7245 34.6488 15.7172C35.0318 15.6497 35.2875 15.2845 35.2201 14.9014C34.9046 13.108 33.5621 11.7387 31.7998 11.4126C30.3399 11.1426 29.1255 11.4434 28.1906 12.3071C27.9049 12.5709 27.8871 13.0165 28.1509 13.3024C28.4144 13.5883 28.8599 13.6061 29.1456 13.3422C29.7537 12.7807 30.5157 12.6077 31.5439 12.7979C32.7223 13.0159 33.621 13.9374 33.8335 15.1456Z" fill="#004FFC"></path></svg>