<svg xmlns="http://www.w3.org/2000/svg" width="40" height="40" viewBox="0 0 40 40" fill="none"><path d="M2.00742 37.9514C3.09789 39.0414 4.97391 39.1007 6.08242 37.9921L17.4784 26.5961C18.2616 26.8957 19.1116 27.0604 20 27.0604C23.8992 27.0604 27.0609 23.8986 27.0609 19.9994C27.0609 18.9119 26.8148 17.8822 26.3758 16.9627L20.9789 22.3596H19.0266L17.6461 20.9783V19.0268L23.0453 13.6275C22.1234 13.1861 21.0906 12.9385 20 12.9385C16.1008 12.9385 12.9391 16.1002 12.9391 19.9994C12.9391 20.8879 13.1037 21.7379 13.4033 22.5211L2.00742 33.9171C0.893359 35.0311 0.893359 36.8373 2.00742 37.9514Z" fill="#0099FF"></path><path d="M40 22.5V17.5L37.2695 17.1586C37.0805 16.0055 36.7797 14.8906 36.3781 13.825L38.5703 12.1648L36.0703 7.83516L33.5336 8.90547C32.8023 8.01484 31.9852 7.19766 31.0945 6.46641L32.1648 3.92969L27.8352 1.42969L26.175 3.62188C25.1094 3.22031 23.9945 2.91953 22.8414 2.73047L22.5 0H17.5L17.1586 2.73047C16.0055 2.91953 14.8906 3.22031 13.825 3.62188L12.1648 1.42969L7.83516 3.92969L8.90547 6.46641C8.01484 7.19766 7.19766 8.01484 6.46641 8.90547L3.92969 7.83516L1.42969 12.1648L3.62188 13.825C3.22031 14.8906 2.91953 16.0055 2.73047 17.1586L0 17.5V22.5L2.73047 22.8414C2.91953 23.9945 3.22031 25.1094 3.62188 26.175L1.42969 27.8352L2.6543 29.9561L7.93508 24.6753C7.37078 23.2245 7.06055 21.6479 7.06055 20C7.06055 12.8652 12.8652 7.06055 20 7.06055C27.1348 7.06055 32.9395 12.8652 32.9395 20C32.9395 27.1348 27.1348 32.9395 20 32.9395C18.3521 32.9395 16.7756 32.6291 15.3249 32.0647L10.044 37.3456L12.1648 38.5703L13.825 36.3781C14.8906 36.7797 16.0055 37.0805 17.1586 37.2695L17.5 40H22.5L22.8414 37.2695C23.9945 37.0805 25.1094 36.7797 26.175 36.3781L27.8352 38.5703L32.1648 36.0703L31.0945 33.5336C31.9852 32.8023 32.8023 31.9852 33.5336 31.0945L36.0703 32.1648L38.5703 27.8352L36.3781 26.175C36.7797 25.1094 37.0805 23.9945 37.2695 22.8414L40 22.5Z" fill="#0099FF"></path></svg>