<svg xmlns="http://www.w3.org/2000/svg" width="49" height="50" viewBox="0 0 49 50" fill="none"><path d="M17.4688 28.0088C22.0065 25.7516 26.155 22.8534 29.7984 19.3972C33.9533 15.4551 37.4606 10.7637 40.2452 5.43873L39.9836 5.53173C39.2845 5.77899 38.5211 5.40153 38.2777 4.68818C38.0353 3.97484 38.4053 3.19584 39.1044 2.94748L42.5312 1.73414C42.8668 1.61488 43.2357 1.63786 43.5552 1.7954C43.8747 1.95405 44.1203 2.23523 44.2371 2.57768L45.4262 6.0744C45.6686 6.78775 45.2987 7.56674 44.5996 7.8151C44.4537 7.86652 44.3058 7.89059 44.1599 7.89059C43.6045 7.89059 43.0856 7.53611 42.8936 6.97046L42.7317 6.49562C39.7766 12.2079 36.0271 17.2352 31.5687 21.453C27.7162 25.0974 23.3329 28.1477 18.5389 30.5197C10.3642 34.5646 3.8847 35.2287 3.61343 35.2549C3.57054 35.2593 3.52765 35.2615 3.48476 35.2615C2.80175 35.2615 2.21738 34.7309 2.15197 34.023C2.08228 33.2713 2.62268 32.6039 3.35824 32.5328C3.44401 32.5241 9.72623 31.8611 17.4688 28.0098V28.0088ZM0 13.1696C0 5.9081 5.79006 0 12.9065 0C20.0229 0 25.813 5.9081 25.813 13.1696C25.813 20.4311 20.0229 26.3392 12.9065 26.3392C5.79006 26.3392 0 20.4311 0 13.1696ZM2.68058 13.1696C2.68058 18.9234 7.2676 23.6039 12.9065 23.6039C18.5454 23.6039 23.1324 18.9234 23.1324 13.1696C23.1324 7.41575 18.5454 2.73523 12.9065 2.73523C7.2676 2.73523 2.68058 7.41575 2.68058 13.1696ZM12.6566 14.5131C12.7971 14.5405 14.0259 14.7976 14.0259 15.4902C14.0259 16.0153 13.5241 16.4431 12.9065 16.4431C12.4443 16.4431 12.023 16.1937 11.8578 15.8228C11.5512 15.1357 10.7566 14.8315 10.0833 15.1444C9.40992 15.4573 9.11184 16.2681 9.4185 16.9551C9.8356 17.8906 10.6205 18.5952 11.5673 18.9409V19.8107C11.5673 20.5656 12.1677 21.1783 12.9075 21.1783C13.6474 21.1783 14.2478 20.5656 14.2478 19.8107V18.9409C15.6836 18.4136 16.7075 17.0667 16.7075 15.4902C16.7075 13.6805 15.3136 12.2429 13.1574 11.8249C13.0169 11.7976 11.7881 11.5405 11.7881 10.8479C11.7881 10.3217 12.2899 9.89497 12.9075 9.89497C13.3697 9.89497 13.7911 10.1444 13.9562 10.5164C14.2629 11.2035 15.0563 11.5077 15.7307 11.1947C16.4041 10.8818 16.7022 10.0711 16.3955 9.38403C15.9784 8.44858 15.1935 7.74289 14.2468 7.39716V6.52735C14.2468 5.77243 13.6463 5.15974 12.9065 5.15974C12.1666 5.15974 11.5662 5.77243 11.5662 6.52735V7.39716C10.1305 7.92451 9.10648 9.27243 9.10648 10.8479C9.10648 12.6565 10.5004 14.0952 12.6577 14.512L12.6566 14.5131ZM49 48.6324C49 49.3873 48.3995 50 47.6597 50H1.34029C0.600451 50 0 49.3873 0 48.6324C0 47.8775 0.600451 47.2648 1.34029 47.2648H5.36117V41.8534C5.36117 38.686 7.88628 36.1094 10.9904 36.1094C14.0945 36.1094 16.6196 38.686 16.6196 41.8534V47.2648H18.8702V36.6018C18.8702 33.4344 21.3953 30.8578 24.4995 30.8578C27.6036 30.8578 30.1287 33.4344 30.1287 36.6018V47.2648H32.3793V26.535C32.3793 23.3676 34.9044 20.791 38.0085 20.791C41.1127 20.791 43.6378 23.3676 43.6378 26.535V47.2648H47.6586C48.3985 47.2648 48.9989 47.8775 48.9989 48.6324H49ZM13.939 47.2648V41.8534C13.939 40.1947 12.6159 38.8446 10.9904 38.8446C9.36489 38.8446 8.04175 40.1947 8.04175 41.8534V47.2648H13.939ZM27.4481 47.2648V36.6018C27.4481 34.9431 26.125 33.593 24.4995 33.593C22.874 33.593 21.5508 34.9431 21.5508 36.6018V47.2648H27.4481ZM40.9572 47.2648V26.535C40.9572 24.8764 39.634 23.5263 38.0085 23.5263C36.383 23.5263 35.0599 24.8764 35.0599 26.535V47.2648H40.9572Z" fill="white"></path></svg>