<svg xmlns="http://www.w3.org/2000/svg" width="50" height="48" viewBox="0 0 50 48" fill="none"><path d="M22.6795 23.6168H20.9848L30.8139 13.834V15.5207C30.8139 15.8562 30.9478 16.178 31.1862 16.4152C31.4246 16.6525 31.7479 16.7857 32.085 16.7857C32.422 16.7857 32.7453 16.6525 32.9837 16.4152C33.2221 16.178 33.356 15.8562 33.356 15.5207V10.7777C33.3542 10.4428 33.2197 10.122 32.9817 9.88517C32.7438 9.64832 32.4215 9.51447 32.085 9.5127H27.3093C26.9722 9.5127 26.6489 9.64597 26.4106 9.88321C26.1722 10.1205 26.0383 10.4422 26.0383 10.7777C26.0383 11.1132 26.1722 11.435 26.4106 11.6722C26.6489 11.9095 26.9722 12.0427 27.3093 12.0427H29.004L19.1748 21.8256V20.1389C19.1748 19.8034 19.0409 19.4816 18.8026 19.2444C18.5642 19.0071 18.2409 18.8739 17.9038 18.8739C17.5667 18.8739 17.2434 19.0071 17.0051 19.2444C16.7667 19.4816 16.6328 19.8034 16.6328 20.1389V24.8852C16.6342 25.2203 16.7685 25.5413 17.0066 25.7783C17.2446 26.0152 17.5671 26.1489 17.9038 26.1503H22.6744C23.0115 26.1503 23.3347 26.017 23.5731 25.7798C23.8115 25.5425 23.9454 25.2207 23.9454 24.8852C23.9454 24.5497 23.8115 24.228 23.5731 23.9907C23.3347 23.7535 23.0115 23.6202 22.6744 23.6202L22.6795 23.6168Z" fill="#0A0D12"></path><path d="M44.3349 29.6824C44.1915 29.6228 44.0378 29.5919 43.8824 29.5913H41.1336C40.8442 29.6137 40.573 29.741 40.3715 29.949C40.17 30.157 40.0522 30.4313 40.0403 30.72C40.0284 31.0087 40.1233 31.2918 40.307 31.5155C40.4907 31.7393 40.7504 31.8882 41.037 31.9341L38.0883 34.869C38.042 34.5837 37.8922 34.3252 37.6672 34.1424C37.4423 33.9597 37.1578 33.8654 36.8677 33.8775C36.5776 33.8896 36.302 34.0071 36.0931 34.2079C35.8842 34.4086 35.7566 34.6787 35.7344 34.9668V37.7009C35.7353 37.8561 35.7663 38.0096 35.8259 38.153C35.9467 38.4418 36.1777 38.6711 36.4682 38.7905C36.6114 38.8508 36.7652 38.8817 36.9207 38.8816H39.666C39.9543 38.8582 40.224 38.7308 40.4245 38.5233C40.625 38.3158 40.7424 38.0426 40.7547 37.755C40.767 37.4674 40.6733 37.1853 40.4912 36.9616C40.3091 36.7379 40.0512 36.5882 39.766 36.5405L42.7148 33.604C42.7611 33.8893 42.9109 34.1478 43.1358 34.3305C43.3608 34.5132 43.6453 34.6075 43.9354 34.5954C44.2255 34.5834 44.5011 34.4658 44.71 34.2651C44.9188 34.0643 45.0465 33.7943 45.0687 33.5061V30.7737C45.0687 30.5399 44.9989 30.3114 44.8683 30.1171C44.7377 29.9229 44.552 29.7716 44.3349 29.6824Z" fill="#0A0D12"></path><path d="M43.8313 0H6.12798C4.50423 0.00578049 2.94867 0.650449 1.80066 1.79336C0.652651 2.93628 0.00535889 4.48469 0 6.10078V29.5459C0.000439512 31.1655 0.645791 32.7189 1.7947 33.8658C2.94361 35.0128 4.50241 35.6598 6.12968 35.6652H23.7053V40.1586H14.998C14.6609 40.1586 14.3376 40.2918 14.0992 40.5291C13.8609 40.7663 13.727 41.0881 13.727 41.4236C13.727 41.7591 13.8609 42.0808 14.0992 42.3181C14.3376 42.5553 14.6609 42.6886 14.998 42.6886H24.9492H24.9814C24.9814 42.6886 25.0034 42.6886 25.0153 42.6886H30.8162V45.1174C30.8166 45.8821 31.1221 46.6153 31.6655 47.1558C32.209 47.6964 32.9458 48 33.7141 48H47.1021C47.8702 47.9996 48.6068 47.6958 49.1501 47.1553C49.6934 46.6149 49.9991 45.882 50 45.1174V6.09066C49.9844 4.47166 49.3279 2.92411 48.173 1.78384C47.0182 0.64357 45.4581 0.00258983 43.8313 0ZM2.54203 29.5442V6.10247C2.54515 5.15625 2.92409 4.24965 3.59618 3.58041C4.26827 2.91118 5.17898 2.5336 6.12968 2.53004H43.8297C44.7836 2.5322 45.6984 2.90803 46.3761 3.57625C47.0539 4.24447 47.4401 5.15136 47.4512 6.10078V20.5085C47.3334 20.4899 47.2145 20.4781 47.0953 20.4731H33.7073C32.9389 20.4736 32.202 20.7776 31.6587 21.3184C31.1153 21.8592 30.8098 22.5926 30.8094 23.3574V33.1402H24.9966H24.9797H24.9644H6.13307C5.17809 33.1362 4.2637 32.7553 3.59049 32.0812C2.91728 31.407 2.54022 30.4947 2.54203 29.5442ZM26.2473 40.1586V35.6618H30.8111V40.1586H26.2473ZM47.4512 45.1174C47.4512 45.1639 47.442 45.2099 47.4241 45.2527C47.4062 45.2956 47.3799 45.3345 47.3469 45.3673C47.3138 45.4001 47.2745 45.426 47.2314 45.4436C47.1882 45.4612 47.142 45.4702 47.0953 45.47H33.7073C33.6606 45.4704 33.6142 45.4616 33.571 45.4441C33.5277 45.4265 33.4884 45.4006 33.4552 45.3678C33.4221 45.335 33.3959 45.296 33.3781 45.253C33.3602 45.21 33.3512 45.1639 33.3514 45.1174V23.3591C33.3512 23.3125 33.3602 23.2663 33.378 23.2232C33.3958 23.1802 33.4221 23.141 33.4551 23.1081C33.4882 23.0752 33.5276 23.0491 33.5708 23.0314C33.6141 23.0136 33.6605 23.0046 33.7073 23.0048H47.0953C47.1897 23.0048 47.2802 23.0422 47.347 23.1086C47.4137 23.175 47.4512 23.2651 47.4512 23.3591V45.1174Z" fill="#0A0D12"></path></svg>