<svg xmlns="http://www.w3.org/2000/svg" width="50" height="50" viewBox="0 0 50 50" fill="none"><g clip-path="url(#clip0_8280_1927)"><path d="M50 8.10547V5.17578H44.8242V0H41.8945V5.17578H8.10547V0H5.17578V5.17578H0V8.10547H5.17578V41.8945H0V44.8242H5.17578V50H8.10547V44.8242H41.8945V50H44.8242V44.8242H50V41.8945H44.8242V8.10547H50ZM41.8945 32.7148H35.6445V26.4648H41.8945V32.7148ZM8.10547 17.2852H14.3555V23.5352H8.10547V17.2852ZM23.5352 17.2852V23.5352H17.2852V17.2852H23.5352ZM17.2852 14.3555V8.10547H23.5352V14.3555H17.2852ZM8.10547 26.4648H14.3555V32.7148H8.10547V26.4648ZM17.2852 26.4648H23.5352V32.7148H17.2852V26.4648ZM23.5352 35.6445V41.8945H17.2852V35.6445H23.5352ZM26.4648 35.6445H32.7148V41.8945H26.4648V35.6445ZM26.4648 32.7148V26.4648H32.7148V32.7148H26.4648ZM41.8945 23.5352H35.6445V17.2852H41.8945V23.5352ZM32.7148 23.5352H26.4648V17.2852H32.7148V23.5352ZM26.4648 14.3555V8.10547H32.7148V14.3555H26.4648ZM14.3555 8.10547V14.3555H8.10547V8.10547H14.3555ZM8.10547 35.6445H14.3555V41.8945H8.10547V35.6445ZM35.6445 41.8945V35.6445H41.8945V41.8945H35.6445ZM41.8945 14.3555H35.6445V8.10547H41.8945V14.3555Z" fill="#0A0D12"></path></g><defs><clipPath id="clip0_8280_1927"><rect width="50" height="50" fill="white"></rect></clipPath></defs></svg>