<svg xmlns="http://www.w3.org/2000/svg" width="44" height="50" viewBox="0 0 44 50" fill="none"><path d="M30.3577 33.0356C35.6849 24.6867 35.0152 25.7283 35.1687 25.5106C37.1082 22.7784 38.1333 19.5627 38.1333 16.2109C38.1333 7.32227 30.9114 0 22 0C13.1177 0 5.86667 7.30781 5.86667 16.2109C5.86667 19.5605 6.91328 22.8605 8.91636 25.6295L13.6422 33.0357C8.58949 33.8112 0 36.1223 0 41.2109C0 43.0659 1.21225 45.7095 6.9874 47.7694C11.0199 49.2078 16.3515 50 22 50C32.5624 50 44 47.0242 44 41.2109C44 36.1214 35.4206 33.8128 30.3577 33.0356ZM11.3666 24.0181C11.3504 23.9929 11.3336 23.9683 11.316 23.944C9.6492 21.6538 8.8 18.9396 8.8 16.2109C8.8 8.88496 14.7064 2.92969 22 2.92969C29.2785 2.92969 35.2 8.8876 35.2 16.2109C35.2 18.9439 34.3668 21.5661 32.7902 23.796C32.6489 23.9821 33.386 22.8384 22 40.6825L11.3666 24.0181ZM22 47.0703C10.4628 47.0703 2.93333 43.6833 2.93333 41.2109C2.93333 39.5492 6.8022 36.8169 15.3754 35.7519L20.7631 44.1955C21.0324 44.6176 21.4988 44.873 21.9999 44.873C22.501 44.873 22.9675 44.6175 23.2367 44.1955L28.6243 35.7519C37.1977 36.8169 41.0667 39.5492 41.0667 41.2109C41.0667 43.6623 33.6049 47.0703 22 47.0703Z" fill="#16A34A"></path><path d="M21.9993 8.88672C17.9557 8.88672 14.666 12.1724 14.666 16.2109C14.666 20.2495 17.9557 23.5352 21.9993 23.5352C26.0429 23.5352 29.3327 20.2495 29.3327 16.2109C29.3327 12.1724 26.0429 8.88672 21.9993 8.88672ZM21.9993 20.6055C19.5732 20.6055 17.5993 18.6341 17.5993 16.2109C17.5993 13.7878 19.5732 11.8164 21.9993 11.8164C24.4255 11.8164 26.3993 13.7878 26.3993 16.2109C26.3993 18.6341 24.4255 20.6055 21.9993 20.6055Z" fill="#16A34A"></path></svg>