<svg xmlns="http://www.w3.org/2000/svg" width="49" height="40" viewBox="0 0 49 40" fill="none"><path d="M38.8205 21.1571L20.6919 39.2856C20.4806 39.4969 20.2493 39.6981 20.0078 39.8792C20.3096 39.9597 20.6215 39.9999 20.9434 39.9999H37.9855C40.0478 39.9999 41.7279 38.3198 41.7279 36.2575V21.0162C40.9231 20.9659 40.0981 20.8653 39.243 20.7043C39.1122 20.8552 38.9714 21.0062 38.8205 21.1571Z" fill="#0099FF"></path><path d="M46.4859 9.28613C46.4557 9.25595 46.4255 9.22576 46.3953 9.19558C44.7153 7.51552 42.2706 5.96625 39.494 4.80932C38.991 4.59805 38.4779 4.40691 37.9648 4.23588V4.2057C37.9347 1.98239 36.1439 0.191666 33.9206 0.161485L23.0556 0.00052103C21.6169 -0.0195995 20.2286 0.543774 19.2126 1.55986L1.09405 19.6985C-0.364684 21.1572 -0.364684 23.5314 1.09405 24.9902L13.1462 37.0423C14.605 38.5011 16.9792 38.5011 18.4379 37.0423L36.5765 18.9037C37.0997 18.3806 37.492 17.7669 37.7636 17.0929C39.5845 17.6059 41.3551 17.8776 42.9145 17.8675C46.7776 17.8474 48.0553 16.1573 48.4778 15.1512C48.8903 14.1452 49.1921 12.0426 46.4859 9.28613ZM24.0415 19.5778C23.6189 19.8091 23.1863 20.0606 22.7538 20.282C22.3413 20.4932 22.2004 20.4429 22.0495 20.0003C21.7377 19.115 21.2347 18.3605 20.5405 17.7367C20.3594 17.5758 20.1683 17.4249 19.9369 17.3343C19.1119 17.0124 18.3876 17.5456 18.4882 18.4309C18.5385 18.8735 18.6794 19.2961 18.8504 19.7085C19.1421 20.4228 19.454 21.1371 19.6653 21.8816C20.3494 24.2558 18.8403 26.5897 16.456 26.8211C15.5909 26.9016 14.7659 26.7205 14.0114 26.2879C13.6794 26.0968 13.4279 26.1169 13.1764 26.3986C12.9249 26.6702 12.6432 26.9217 12.3816 27.1833C12.1503 27.4147 11.8988 27.4247 11.6674 27.1934C11.3756 26.9217 11.0939 26.63 10.8122 26.3483C10.5708 26.0968 10.5909 25.8352 10.8324 25.5938C11.0235 25.4026 11.2147 25.2014 11.4058 25.0103C11.8283 24.5777 11.8283 24.5475 11.4863 24.0747C11.0436 23.4711 10.6513 22.8373 10.4098 22.123C10.2187 21.5697 10.269 21.4288 10.772 21.1472C11.1442 20.9359 11.5165 20.7246 11.8988 20.5234C12.3414 20.292 12.4722 20.3423 12.6231 20.8152C12.8746 21.62 13.2871 22.3343 13.8001 22.9982C14.1321 23.4308 14.5446 23.7528 15.0476 23.954C15.9933 24.3262 16.8585 23.6622 16.7579 22.6562C16.7277 22.3141 16.6271 21.9822 16.4963 21.6602C16.1744 20.8353 15.7619 20.0405 15.5506 19.1653C15.1985 17.7569 15.3595 16.4691 16.4963 15.4631C17.784 14.3263 19.2226 14.2559 20.7417 14.9601C21.3654 15.2519 21.3654 15.2619 21.8483 14.779C22.0093 14.6181 22.1703 14.4571 22.3413 14.2961C22.7135 13.944 22.8342 13.944 23.2065 14.2961C23.3171 14.4068 23.4278 14.5175 23.5385 14.6281C24.303 15.3927 24.303 15.3927 23.5385 16.1673C22.9952 16.7106 22.9952 16.7106 23.4479 17.3343C23.8 17.8172 24.0716 18.3303 24.2829 18.8836C24.3936 19.1854 24.3332 19.4168 24.0415 19.5778ZM45.5603 13.944C45.2183 14.7589 41.5664 15.4732 36.0232 13.1593C34.3935 12.4853 32.8844 11.6402 31.647 10.7348C31.6068 10.7851 31.5565 10.8354 31.5162 10.8857C30.309 12.0929 28.3372 12.0929 27.13 10.8857C25.9227 9.67848 25.9227 7.70667 27.13 6.49944C28.3372 5.29221 30.309 5.29221 31.5162 6.49944C32.2406 7.22378 32.5223 8.20968 32.3915 9.14528C33.5786 9.99034 35.0071 10.765 36.5262 11.3988C37.0695 11.6201 37.5826 11.8213 38.0856 11.9923L38.0252 7.62619C38.1157 7.66643 38.1962 7.69661 38.2868 7.73685C40.661 8.72275 42.7938 10.0708 44.172 11.4491C44.1921 11.4692 44.2123 11.4893 44.2324 11.5094C45.5402 12.8273 45.671 13.6724 45.5603 13.944Z" fill="#0099FF"></path></svg>