<svg xmlns="http://www.w3.org/2000/svg" width="50" height="50" viewBox="0 0 50 50" fill="none"><path d="M31.0924 17.5813V14.5321C31.0924 13.72 30.434 13.0615 29.6218 13.0615H14.6854C13.8733 13.0615 13.2148 13.72 13.2148 14.5321V17.5813C13.2148 18.3935 13.8733 19.0519 14.6854 19.0519C15.4976 19.0519 16.156 18.3935 16.156 17.5813V16.0027H20.683V28.3072H19.6543C18.8421 28.3072 18.1837 28.9657 18.1837 29.7778C18.1837 30.59 18.8421 31.2484 19.6543 31.2484H24.6528C25.4649 31.2484 26.1234 30.59 26.1234 29.7778C26.1234 28.9657 25.4649 28.3072 24.6528 28.3072H23.6241V16.0027H28.151V17.5813C28.151 18.3935 28.8095 19.0519 29.6216 19.0519C30.4338 19.0519 31.0924 18.3935 31.0924 17.5813Z" fill="#0A0D12"></path><path d="M49.5693 42.9855L43.7872 37.2032L47.1116 33.8788C47.9595 33.0309 47.4871 31.5715 46.2986 31.386L40.2443 30.4406V10.8737C42.5857 10.2279 44.3109 8.08061 44.3109 5.53668C44.3107 2.48373 41.827 0 38.774 0C36.2304 0 34.0833 1.72471 33.4373 4.0657H10.8734C10.2274 1.72471 8.0803 0 5.53667 0C2.48373 0 0 2.48373 0 5.53668C0 8.08031 1.72471 10.2274 4.06569 10.8735V33.4373C1.72471 34.0834 0 36.2305 0 38.7741C0 41.8271 2.48373 44.3108 5.53667 44.3108C8.08059 44.3108 10.2278 42.5857 10.8736 40.2442H30.4406L31.386 46.2985C31.5713 47.4854 33.0299 47.9607 33.8788 47.1115L37.2033 43.7871L42.9855 49.5692C43.5597 50.1435 44.4909 50.1436 45.0652 49.5692L49.5693 45.0651C50.1436 44.4909 50.1436 43.5598 49.5693 42.9855ZM38.774 2.94118C40.2052 2.94118 41.3695 4.1055 41.3695 5.53668C41.3695 6.96786 40.2052 8.13217 38.774 8.13217C37.3429 8.13217 36.1785 6.96786 36.1785 5.53668C36.1785 4.1055 37.343 2.94118 38.774 2.94118ZM2.94118 5.53668C2.94118 4.1055 4.10559 2.94118 5.53667 2.94118C6.96775 2.94118 8.13216 4.1055 8.13216 5.53668C8.13216 6.96786 6.96785 8.13217 5.53667 8.13217C4.10549 8.13217 2.94118 6.96786 2.94118 5.53668ZM5.53667 41.3696C4.10559 41.3696 2.94118 40.2053 2.94118 38.7741C2.94118 37.3429 4.10549 36.1786 5.53667 36.1786C6.96785 36.1786 8.13216 37.3429 8.13216 38.7741C8.13216 40.2053 6.96785 41.3696 5.53667 41.3696ZM10.8733 37.303C10.3566 35.4306 8.87942 33.9536 7.00687 33.4371V10.8737C8.87971 10.3571 10.357 8.87973 10.8736 7.00688H33.4371C33.9535 8.87943 35.4305 10.3566 37.303 10.8734V29.9814L30.6173 28.9375C29.6341 28.7835 28.7838 29.6338 28.9375 30.6173L29.9814 37.303H10.8733ZM44.0253 46.4498L38.2431 40.6676C37.6688 40.0933 36.7377 40.0932 36.1633 40.6676L33.8454 42.9856L32.1541 32.1543L42.9854 33.8456L40.6675 36.1635C40.0932 36.7378 40.0932 37.6689 40.6675 38.2432L46.4496 44.0255L44.0253 46.4498Z" fill="#0A0D12"></path></svg>