<svg width="200" height="30" viewBox="0 0 200 30" xmlns="http://www.w3.org/2000/svg">
<path d="M30.8065 15.1601C30.8065 23.3558 24.1274 29.9999 15.8881 29.9999C7.6488 29.9999 0.970215 23.3578 0.970215 15.1601C0.970215 6.96249 7.64931 0.320801 15.8881 0.320801C24.1269 0.320801 30.8065 6.96449 30.8065 15.1601Z"/>
<path d="M47.1723 15.1602C47.1723 22.8754 43.8325 29.1292 39.7131 29.1292C35.5937 29.1292 32.2539 22.8734 32.2539 15.1602C32.2539 7.44699 35.5937 1.19116 39.7131 1.19116C43.8325 1.19116 47.1723 7.44699 47.1723 15.1602Z"/>
<path d="M53.8662 15.1602C53.8662 22.0726 52.6914 27.6758 51.2427 27.6758C49.7939 27.6758 48.6191 22.0706 48.6191 15.1602C48.6191 8.24975 49.7939 2.64453 51.2432 2.64453C52.6924 2.64453 53.8662 8.24825 53.8662 15.1602Z"/>
<path d="M95.0381 1.6075L95.0796 1.59849V1.28069H86.5957L78.718 19.5727L70.8404 1.28069H61.6979V1.59849L61.7389 1.6075C63.2875 1.95282 64.0737 2.4678 64.0737 4.32503V26.0678C64.0737 27.925 63.2844 28.44 61.7359 28.7853L61.6948 28.7943V29.1131H67.8977V28.7953L67.8567 28.7863C66.3081 28.441 65.5219 27.926 65.5219 26.0688V5.5862L75.6416 29.1131H76.2156L86.6301 4.93009V26.6058C86.4974 28.0726 85.7183 28.5256 84.3161 28.8384L84.2746 28.8479V29.1632H95.0796V28.8479L95.0381 28.8384C93.6344 28.5256 92.8366 28.0726 92.7038 26.6058L92.6968 4.32503H92.7038C92.7038 2.4678 93.49 1.95282 95.0381 1.6075ZM99.9736 16.0109C100.15 12.1043 101.57 9.28465 103.953 9.2361C104.688 9.24811 105.305 9.48634 105.784 9.94476C106.802 10.9212 107.281 12.9616 107.207 16.0109H99.9736ZM99.8667 17.1119H112.531V17.0594C112.495 14.0721 111.619 11.7484 109.93 10.153C108.47 8.77417 106.309 8.01547 104.038 8.01547H103.988C102.809 8.01547 101.364 8.29773 100.336 8.80921C99.1651 9.3447 98.1327 10.1454 97.2736 11.1964C95.8907 12.8895 95.0528 15.1776 94.8492 17.749C94.8426 17.8261 94.837 17.9032 94.8314 17.9802C94.8259 18.0573 94.8223 18.1264 94.8188 18.2C94.8117 18.3376 94.8061 18.4757 94.8031 18.6143C94.798 18.8365 94.7965 19.0603 94.8005 19.2855C94.9378 25.1094 98.1221 29.7637 103.778 29.7637C108.742 29.7637 111.633 26.1784 112.354 21.3659L111.99 21.2393C110.723 23.8257 108.449 25.3932 105.86 25.202C102.327 24.9407 99.6195 21.4009 99.8652 17.1129M126.85 25.0043C126.434 25.9777 125.567 26.5132 124.406 26.5132C123.244 26.5132 122.183 25.7255 121.428 24.2941C120.618 22.7577 120.191 20.5857 120.191 18.0128C120.191 12.6578 121.877 9.19406 124.486 9.19406C125.579 9.19406 126.439 9.72956 126.85 10.6639V25.0043ZM135.25 28.8218C133.702 28.46 132.916 27.921 132.916 25.9692V0L123.507 2.73855V3.07386L123.565 3.06936C124.863 2.96576 125.743 3.14293 126.254 3.60936C126.655 3.9747 126.85 4.53522 126.85 5.32396V8.88427C125.922 8.29923 124.819 8.01446 123.48 8.01446C120.765 8.01446 118.283 9.14402 116.493 11.1954C114.628 13.3334 113.641 16.2551 113.641 19.6438C113.641 25.6959 116.656 29.7637 121.145 29.7637C123.77 29.7637 125.882 28.3424 126.85 25.9452V29.1632H135.291V28.8299L135.25 28.8218ZM143.32 3.53179C143.32 1.64203 141.877 0.216702 139.964 0.216702C138.06 0.216702 136.57 1.67306 136.57 3.53179C136.57 5.39052 138.061 6.84688 139.964 6.84688C141.877 6.84688 143.32 5.42155 143.32 3.53179ZM145.54 28.8218C143.992 28.46 143.206 27.921 143.206 25.9692H143.199V8.07602L134.757 10.4708V10.7961L134.807 10.8006C136.634 10.9612 137.134 11.5828 137.134 13.6918V29.1632H145.583V28.8299L145.54 28.8218ZM167.173 28.8218C165.625 28.46 164.839 27.921 164.839 25.9692V8.07602L156.8 10.3917V10.718L156.848 10.723C158.341 10.8781 158.773 11.5352 158.773 13.6537V24.9643C158.275 25.9377 157.341 26.5157 156.209 26.5547C154.374 26.5547 153.363 25.3301 153.363 23.1065V8.07652L144.921 10.4713V10.7961L144.971 10.8006C146.798 10.9607 147.299 11.5823 147.299 13.6918V23.2642C147.294 23.9324 147.353 24.5996 147.474 25.257L147.626 25.9101C148.341 28.4405 150.214 29.7637 153.148 29.7637C155.633 29.7637 157.811 28.2438 158.771 25.8656V29.1687H167.213V28.8354L167.173 28.8218ZM199.97 29.1632V28.8293L199.929 28.8198C198.249 28.437 197.594 27.7153 197.594 26.2459V14.0746C197.594 10.2796 195.437 8.01446 191.823 8.01446C189.189 8.01446 186.967 9.51836 186.112 11.861C185.433 9.37874 183.478 8.01446 180.588 8.01446C178.049 8.01446 176.059 9.3382 175.205 11.5743V8.07752L166.763 10.3742V10.7015L166.814 10.706C168.619 10.8641 169.14 11.5037 169.14 13.5586V29.1632H177.017V28.8299L176.976 28.8198C175.636 28.5086 175.203 27.941 175.203 26.4847V12.5337C175.558 11.7154 176.272 10.746 177.685 10.746C179.44 10.746 180.329 11.9471 180.329 14.3133V29.1632H188.209V28.8299L188.167 28.8198C186.827 28.5086 186.394 27.941 186.394 26.4847V14.0731C186.397 13.609 186.36 13.1455 186.283 12.6878C186.658 11.7985 187.414 10.746 188.885 10.746C190.664 10.746 191.529 11.9126 191.529 14.3133V29.1632H199.97Z"/>
</svg>
