<svg width="144" height="30" viewBox="0 0 144 30" xmlns="http://www.w3.org/2000/svg">
<path d="M110.228 11.125H116.038L117.734 16.65C118.283 18.475 119.231 21.925 119.231 21.925C119.231 21.95 119.256 21.95 119.28 21.95L119.305 21.925C119.305 21.925 120.278 18.425 120.827 16.65L122.597 11.125H126.912L128.658 16.65C129.231 18.55 130.154 21.925 130.154 21.925C130.154 21.95 130.179 21.95 130.204 21.95L130.229 21.925C130.229 21.925 131.176 18.5 131.725 16.65L133.421 11.125H138.833L132.972 29.375H127.66L126.214 24.8C125.665 23 124.667 19.5 124.667 19.5C124.667 19.475 124.642 19.475 124.617 19.475L124.592 19.5C124.592 19.5 123.62 22.925 123.021 24.775L121.55 29.4H116.138L110.228 11.125ZM71.0485 1.47498H76.9341V29.4H71.0485V1.47498ZM81.2985 1.47498H87.184V29.4H81.2985V1.47498ZM104.267 20.325C104.267 17.6 102.322 15.75 100.053 15.75C97.7083 15.75 95.763 17.6 95.763 20.325C95.763 23.05 97.7083 24.9 100.053 24.9C102.322 24.9 104.267 23.05 104.267 20.325ZM90.1019 20.325C90.1019 14.775 94.566 10.675 100.028 10.675C105.439 10.675 109.903 14.775 109.903 20.325C109.903 25.9 105.439 30 100.028 30C94.5909 30 90.1019 25.9 90.1019 20.325ZM36.9819 4.07498V9.44998H47.3815C47.4313 9.44998 47.4563 9.49998 47.4313 9.52497L36.9819 27.325C36.7325 27.8 36.6577 27.875 36.6577 28.35V29.4H56.9331V24.025H45.6856C45.6607 24.025 45.6357 24 45.6357 23.975C45.6357 23.95 45.6357 23.95 45.6357 23.95L56.2099 5.92498C56.2847 5.74998 56.3844 5.62498 56.3844 5.19998V4.07498H36.9819ZM60.6989 11.125H66.5845V29.375H60.6989V11.125ZM63.6417 1.97498C65.4872 1.97498 66.9835 3.44998 66.9835 5.29998C66.9835 7.14998 65.4622 8.62498 63.6417 8.62498C61.7962 8.62498 60.2998 7.14998 60.2998 5.29998C60.2998 3.44998 61.8211 1.97498 63.6417 1.97498Z"/>
<path d="M19.1008 7.95C19.2255 7.925 19.3003 7.975 19.3751 8.05C19.824 8.575 21.3204 10.375 21.7194 10.875C21.7693 10.95 21.7693 11.05 21.6945 11.1L21.6695 11.125C18.6768 13.5 15.9336 16.2 13.4895 19.15C13.4646 19.2 13.4895 19.2 13.5145 19.175C16.7565 17.775 24.338 15.55 27.7546 14.925V10.6L14.3873 0L0.995117 10.6V15.35C5.13498 12.875 14.7365 9.05 19.1008 7.95Z"/>
<path d="M8.20251 26.2C8.10276 26.25 7.97806 26.225 7.92818 26.15L5.43429 23.175C5.35947 23.1 5.35947 23.05 5.45923 22.925C7.37953 20.1 11.3199 15.675 13.8387 13.8C13.8886 13.75 13.8886 13.725 13.8138 13.75C11.1702 14.6 3.73844 17.8 0.970215 19.375V29.5H27.7796V19.75C24.1136 20.375 13.1654 23.625 8.20251 26.2Z"/>
<path d="M142.774 8.525C142.774 8 142.4 7.625 141.901 7.625H140.953V10.175H141.377V9.425H141.801L142.275 10.2H142.749L142.25 9.375C142.549 9.225 142.774 8.925 142.774 8.525ZM141.876 9.05H141.377V8H141.876C142.15 8 142.35 8.225 142.35 8.525C142.35 8.825 142.15 9.05 141.876 9.05Z"/>
<path d="M141.75 6.75C140.528 6.75 139.556 7.725 139.556 8.95C139.556 10.175 140.528 11.15 141.75 11.15C142.972 11.15 143.945 10.175 143.945 8.95C143.945 7.725 142.972 6.75 141.75 6.75ZM141.75 10.725C140.778 10.725 139.98 9.925 139.98 8.95C139.98 7.975 140.778 7.175 141.75 7.175C142.723 7.175 143.521 7.975 143.521 8.95C143.546 9.925 142.748 10.725 141.75 10.725Z"/>
</svg>
