<svg width="132" height="24" viewBox="0 0 132 24" fill="none" xmlns="http://www.w3.org/2000/svg">
<path d="M24 12C24 18.6274 18.6274 24 12 24C5.37261 24 0 18.6274 0 12C0 5.37261 5.37261 0 12 0C18.6274 0 24 5.37261 24 12ZM24 24C30.6274 24 36 18.6274 36 12C36 5.37261 30.6274 0 24 0V24Z" fill="#FF6733"/>
<path d="M50.436 20.264C49.4093 20.264 48.456 20.0733 47.576 19.692C46.696 19.296 45.948 18.7607 45.332 18.086C44.716 17.4113 44.2613 16.634 43.968 15.754L46.168 14.83C46.564 15.842 47.1433 16.6193 47.906 17.162C48.6687 17.7047 49.5487 17.976 50.546 17.976C51.1327 17.976 51.646 17.888 52.086 17.712C52.526 17.5213 52.8633 17.2573 53.098 16.92C53.3473 16.5827 53.472 16.194 53.472 15.754C53.472 15.1527 53.3033 14.676 52.966 14.324C52.6287 13.972 52.13 13.6933 51.47 13.488L48.39 12.52C47.158 12.1387 46.2193 11.5593 45.574 10.782C44.9287 9.99 44.606 9.066 44.606 8.01C44.606 7.086 44.8333 6.27933 45.288 5.59C45.7427 4.886 46.366 4.336 47.158 3.94C47.9647 3.544 48.8813 3.346 49.908 3.346C50.8907 3.346 51.7853 3.522 52.592 3.874C53.3987 4.21133 54.088 4.68067 54.66 5.282C55.2467 5.88333 55.672 6.58 55.936 7.372L53.78 8.318C53.4573 7.45267 52.9513 6.78533 52.262 6.316C51.5873 5.84667 50.8027 5.612 49.908 5.612C49.3653 5.612 48.8887 5.70733 48.478 5.898C48.0673 6.074 47.7447 6.338 47.51 6.69C47.29 7.02733 47.18 7.42333 47.18 7.878C47.18 8.406 47.3487 8.87533 47.686 9.286C48.0233 9.69667 48.5367 10.0047 49.226 10.21L52.086 11.112C53.3913 11.508 54.374 12.08 55.034 12.828C55.694 13.5613 56.024 14.478 56.024 15.578C56.024 16.4873 55.782 17.294 55.298 17.998C54.8287 18.702 54.176 19.2593 53.34 19.67C52.504 20.066 51.536 20.264 50.436 20.264ZM60.9453 20.264C60.1386 20.264 59.4273 20.1247 58.8113 19.846C58.21 19.5527 57.7406 19.1567 57.4033 18.658C57.066 18.1447 56.8973 17.5433 56.8973 16.854C56.8973 16.2087 57.0366 15.6293 57.3153 15.116C57.6086 14.6027 58.056 14.17 58.6573 13.818C59.2586 13.466 60.014 13.2167 60.9233 13.07L65.0593 12.388V14.346L61.4073 14.984C60.7473 15.1013 60.2633 15.314 59.9553 15.622C59.6473 15.9153 59.4933 16.2967 59.4933 16.766C59.4933 17.2207 59.662 17.5947 59.9993 17.888C60.3513 18.1667 60.7986 18.306 61.3413 18.306C62.016 18.306 62.6026 18.1593 63.1013 17.866C63.6146 17.5727 64.0106 17.184 64.2893 16.7C64.568 16.2013 64.7073 15.6513 64.7073 15.05V11.992C64.7073 11.4053 64.4873 10.9287 64.0473 10.562C63.622 10.1807 63.05 9.99 62.3313 9.99C61.6713 9.99 61.092 10.166 60.5933 10.518C60.1093 10.8553 59.75 11.2953 59.5153 11.838L57.4473 10.804C57.6673 10.2173 58.0266 9.704 58.5253 9.264C59.024 8.80933 59.6033 8.45733 60.2633 8.208C60.938 7.95867 61.6493 7.834 62.3973 7.834C63.336 7.834 64.1646 8.01 64.8833 8.362C65.6166 8.714 66.1813 9.20533 66.5773 9.836C66.988 10.452 67.1933 11.1707 67.1933 11.992V20H64.8173V17.844L65.3233 17.91C65.0446 18.394 64.6853 18.812 64.2453 19.164C63.82 19.516 63.3286 19.7873 62.7713 19.978C62.2286 20.1687 61.62 20.264 60.9453 20.264ZM73.4 20.264C72.1827 20.264 71.112 19.9633 70.188 19.362C69.2787 18.7607 68.6407 17.954 68.274 16.942L70.188 16.04C70.5107 16.7147 70.9507 17.25 71.508 17.646C72.08 18.042 72.7107 18.24 73.4 18.24C73.9867 18.24 74.4634 18.108 74.83 17.844C75.1967 17.58 75.38 17.2207 75.38 16.766C75.38 16.4727 75.2994 16.238 75.138 16.062C74.9767 15.8713 74.7714 15.7173 74.522 15.6C74.2874 15.4827 74.0454 15.3947 73.796 15.336L71.926 14.808C70.8994 14.5147 70.1294 14.0747 69.616 13.488C69.1174 12.8867 68.868 12.19 68.868 11.398C68.868 10.6793 69.0514 10.056 69.418 9.528C69.7847 8.98533 70.2907 8.56733 70.936 8.274C71.5814 7.98067 72.3074 7.834 73.114 7.834C74.1994 7.834 75.1674 8.10533 76.018 8.648C76.8687 9.176 77.47 9.91667 77.822 10.87L75.908 11.772C75.6734 11.2 75.2994 10.7453 74.786 10.408C74.2874 10.0707 73.7227 9.902 73.092 9.902C72.5494 9.902 72.1167 10.034 71.794 10.298C71.4714 10.5473 71.31 10.8773 71.31 11.288C71.31 11.5667 71.3834 11.8013 71.53 11.992C71.6767 12.168 71.8674 12.3147 72.102 12.432C72.3367 12.5347 72.5787 12.6227 72.828 12.696L74.764 13.268C75.7467 13.5467 76.502 13.9867 77.03 14.588C77.558 15.1747 77.822 15.8787 77.822 16.7C77.822 17.404 77.6314 18.0273 77.25 18.57C76.8834 19.098 76.37 19.516 75.71 19.824C75.05 20.1173 74.28 20.264 73.4 20.264ZM79.1579 20V8.098H81.6439V20H79.1579ZM79.1579 6.47V3.61H81.6439V6.47H79.1579ZM89.1044 20.264C87.9164 20.264 86.8604 19.9927 85.9364 19.45C85.0271 18.8927 84.3011 18.1447 83.7584 17.206C83.2304 16.2673 82.9664 15.204 82.9664 14.016C82.9664 12.8427 83.2304 11.7867 83.7584 10.848C84.2864 9.90933 85.0124 9.176 85.9364 8.648C86.8604 8.10533 87.9164 7.834 89.1044 7.834C89.9111 7.834 90.6664 7.98067 91.3704 8.274C92.0744 8.55267 92.6831 8.94133 93.1964 9.44C93.7244 9.93867 94.1131 10.518 94.3624 11.178L92.1844 12.19C91.9351 11.574 91.5318 11.0827 90.9744 10.716C90.4318 10.3347 89.8084 10.144 89.1044 10.144C88.4298 10.144 87.8211 10.3127 87.2784 10.65C86.7504 10.9727 86.3324 11.4347 86.0244 12.036C85.7164 12.6227 85.5624 13.29 85.5624 14.038C85.5624 14.786 85.7164 15.4607 86.0244 16.062C86.3324 16.6487 86.7504 17.1107 87.2784 17.448C87.8211 17.7853 88.4298 17.954 89.1044 17.954C89.8231 17.954 90.4464 17.7707 90.9744 17.404C91.5171 17.0227 91.9204 16.5167 92.1844 15.886L94.3624 16.92C94.1278 17.5507 93.7464 18.1227 93.2184 18.636C92.7051 19.1347 92.0964 19.5307 91.3924 19.824C90.6884 20.1173 89.9258 20.264 89.1044 20.264ZM101.434 20.264C100.29 20.264 99.2416 19.9927 98.2882 19.45C97.3496 18.9073 96.6016 18.1667 96.0442 17.228C95.4869 16.2893 95.2082 15.226 95.2082 14.038C95.2082 12.8353 95.4869 11.772 96.0442 10.848C96.6016 9.90933 97.3496 9.176 98.2882 8.648C99.2269 8.10533 100.276 7.834 101.434 7.834C102.608 7.834 103.656 8.10533 104.58 8.648C105.519 9.176 106.26 9.90933 106.802 10.848C107.36 11.772 107.638 12.8353 107.638 14.038C107.638 15.2407 107.36 16.3113 106.802 17.25C106.245 18.1887 105.497 18.9293 104.558 19.472C103.62 20 102.578 20.264 101.434 20.264ZM101.434 17.954C102.138 17.954 102.762 17.7853 103.304 17.448C103.847 17.1107 104.272 16.6487 104.58 16.062C104.903 15.4607 105.064 14.786 105.064 14.038C105.064 13.29 104.903 12.6227 104.58 12.036C104.272 11.4493 103.847 10.9873 103.304 10.65C102.762 10.3127 102.138 10.144 101.434 10.144C100.745 10.144 100.122 10.3127 99.5642 10.65C99.0216 10.9873 98.5889 11.4493 98.2662 12.036C97.9582 12.6227 97.8042 13.29 97.8042 14.038C97.8042 14.786 97.9582 15.4607 98.2662 16.062C98.5889 16.6487 99.0216 17.1107 99.5642 17.448C100.122 17.7853 100.745 17.954 101.434 17.954ZM110.065 20V17.14H112.595V20H110.065ZM119.056 20.264C118.25 20.264 117.538 20.1247 116.922 19.846C116.321 19.5527 115.852 19.1567 115.514 18.658C115.177 18.1447 115.008 17.5433 115.008 16.854C115.008 16.2087 115.148 15.6293 115.426 15.116C115.72 14.6027 116.167 14.17 116.768 13.818C117.37 13.466 118.125 13.2167 119.034 13.07L123.17 12.388V14.346L119.518 14.984C118.858 15.1013 118.374 15.314 118.066 15.622C117.758 15.9153 117.604 16.2967 117.604 16.766C117.604 17.2207 117.773 17.5947 118.11 17.888C118.462 18.1667 118.91 18.306 119.452 18.306C120.127 18.306 120.714 18.1593 121.212 17.866C121.726 17.5727 122.122 17.184 122.4 16.7C122.679 16.2013 122.818 15.6513 122.818 15.05V11.992C122.818 11.4053 122.598 10.9287 122.158 10.562C121.733 10.1807 121.161 9.99 120.442 9.99C119.782 9.99 119.203 10.166 118.704 10.518C118.22 10.8553 117.861 11.2953 117.626 11.838L115.558 10.804C115.778 10.2173 116.138 9.704 116.636 9.264C117.135 8.80933 117.714 8.45733 118.374 8.208C119.049 7.95867 119.76 7.834 120.508 7.834C121.447 7.834 122.276 8.01 122.994 8.362C123.728 8.714 124.292 9.20533 124.688 9.836C125.099 10.452 125.304 11.1707 125.304 11.992V20H122.928V17.844L123.434 17.91C123.156 18.394 122.796 18.812 122.356 19.164C121.931 19.516 121.44 19.7873 120.882 19.978C120.34 20.1687 119.731 20.264 119.056 20.264ZM127.111 20V8.098H129.597V20H127.111ZM127.111 6.47V3.61H129.597V6.47H127.111Z" fill="white"/>
</svg>
