<svg width="40" height="40" viewBox="0 0 40 40" xmlns="http://www.w3.org/2000/svg">
<g clip-path="url(#clip0_8112_11924)">
<path d="M39.9813 34.8843C39.8707 33.6334 39.2797 32.5005 38.3181 31.6952C37.3293 30.8647 29.1968 24.0342 28.2114 23.2064C29.6423 20.886 30.4691 18.155 30.4691 15.2345C30.4691 13.9453 30.3074 12.6933 30.0046 11.4968L32.4699 9.03147C32.9289 9.25154 33.4426 9.37506 33.9847 9.37506C35.9232 9.37506 37.5004 7.79795 37.5004 5.85936C37.5004 3.92077 35.9233 2.34375 33.9848 2.34375C32.0463 2.34375 30.4691 3.92085 30.4691 5.85944C30.4691 6.40155 30.5926 6.91522 30.8127 7.3742L29.1502 9.0367C26.7713 3.71663 21.429 0 15.2345 0C6.83421 0 0 6.83421 0 15.2346C0 23.635 6.8342 30.4692 15.2346 30.4692C18.1551 30.4692 20.886 29.6424 23.2066 28.2116C24.0345 29.1973 30.868 37.3334 31.6994 38.3233C31.8792 38.5349 32.0798 38.7352 32.2795 38.9025C33.1336 39.6178 34.1893 40.0001 35.2902 40.0001C35.4302 40.0001 35.571 39.9939 35.7122 39.9814C36.9631 39.8709 38.096 39.2798 38.9023 38.3171C39.7086 37.3544 40.0918 36.1352 39.9813 34.8843ZM33.9848 4.68757C34.6309 4.68757 35.1567 5.21327 35.1567 5.85944C35.1567 6.50561 34.6309 7.03131 33.9848 7.03131C33.3386 7.03131 32.8129 6.50561 32.8129 5.85944C32.8129 5.21327 33.3385 4.68757 33.9848 4.68757ZM15.2345 28.141C8.12655 28.141 2.32812 22.3582 2.32812 15.2502C2.32812 8.14225 8.12655 2.32812 15.2345 2.32812C20.7982 2.32812 25.5496 5.88686 27.3517 10.8351L23.7806 14.4062C23.3216 14.1861 22.8079 14.0626 22.2658 14.0626C21.7237 14.0626 21.21 14.1861 20.7511 14.4062L18.4067 12.0618C18.6267 11.6028 18.7502 11.0891 18.7502 10.547C18.7502 8.6085 17.1731 7.03131 15.2345 7.03131C13.2959 7.03131 11.7188 8.60842 11.7188 10.547C11.7188 11.0891 11.8423 11.6028 12.0624 12.0618L9.71803 14.4062C9.25897 14.1861 8.7453 14.0626 8.20319 14.0626C6.26468 14.0626 4.68749 15.6397 4.68749 17.5783C4.68749 19.5168 6.2646 21.094 8.20319 21.094C10.1417 21.094 11.7189 19.5169 11.7189 17.5783C11.7189 17.0362 11.5954 16.5225 11.3753 16.0636L13.7197 13.7191C14.1787 13.9392 14.6924 14.0627 15.2345 14.0627C15.7766 14.0627 16.2903 13.9392 16.7493 13.7191L19.0936 16.0636C18.8736 16.5225 18.7501 17.0362 18.7501 17.5783C18.7501 19.5168 20.3272 21.094 22.2658 21.094C24.2044 21.094 25.7815 19.5169 25.7815 17.5783C25.7815 17.0362 25.658 16.5225 25.4379 16.0636L28.0073 13.4941C28.0846 14.0636 28.1253 14.6443 28.1253 15.2346C28.1253 22.3425 22.3425 28.141 15.2345 28.141ZM23.4378 17.5783C23.4378 18.2245 22.9121 18.7502 22.2659 18.7502C21.6197 18.7502 21.094 18.2245 21.094 17.5783C21.094 16.9322 21.6197 16.4065 22.2659 16.4065C22.9121 16.4065 23.4378 16.9322 23.4378 17.5783ZM16.4064 10.547C16.4064 11.1932 15.8807 11.7189 15.2345 11.7189C14.5883 11.7189 14.0626 11.1932 14.0626 10.547C14.0626 9.90084 14.5883 9.37514 15.2345 9.37514C15.8807 9.37514 16.4064 9.90084 16.4064 10.547ZM9.37506 17.5783C9.37506 18.2245 8.84936 18.7502 8.20319 18.7502C7.55702 18.7502 7.03131 18.2245 7.03131 17.5783C7.03131 16.9322 7.55702 16.4065 8.20319 16.4065C8.84936 16.4065 9.37506 16.9322 9.37506 17.5783ZM26.6114 28.6212L25.1057 26.8285C25.7246 26.3008 26.3007 25.7246 26.8284 25.1058L28.6211 26.6115C28.006 27.3343 27.3342 28.006 26.6114 28.6212ZM37.1055 36.812C36.7012 37.2948 36.1331 37.5912 35.5058 37.6466C34.8782 37.7019 34.2672 37.5098 33.7843 37.1054C33.6872 37.0241 33.5784 36.9149 33.4899 36.8107L28.1196 30.4168C28.9464 29.7143 29.7143 28.9464 30.4168 28.1196L36.8119 33.4909C37.2946 33.8952 37.591 34.4633 37.6464 35.0906C37.702 35.7179 37.5098 36.3292 37.1055 36.812Z"/>
</g>
<defs>
<clipPath id="clip0_8112_11924">
<rect width="40" height="40" fill="white"/>
</clipPath>
</defs>
</svg>
