<svg width="15" height="15" viewBox="0 0 15 15" xmlns="http://www.w3.org/2000/svg">
<path d="M1.03906 9.65234C2.13281 8.53125 3.60938 8.47656 4.62109 9.46094C5.60547 10.4727 5.55078 11.9492 4.42969 13.043C3.74609 13.7539 1.96875 14.082 0.0820312 14C0 12.1133 0.328125 10.3359 1.03906 9.65234ZM3.28125 11.9492C3.63672 11.5664 3.66406 11.0742 3.33594 10.7461C3.00781 10.418 2.51562 10.4453 2.13281 10.8008C1.91406 11.0469 1.80469 11.6211 1.83203 12.25C2.46094 12.2773 3.03516 12.168 3.28125 11.9492ZM13.8906 0.546875C14.082 1.42188 14.082 2.10547 14.0547 2.78906C14.0547 5.60547 12.5508 7.30078 10.5547 8.55859V11.4297C10.5547 11.8672 10.2539 12.3867 9.84375 12.6055L7.13672 13.9453C7.05469 13.9727 6.94531 14 6.86328 14C6.48047 14 6.20703 13.7266 6.20703 13.3438V10.5C6.20703 9.07812 5.03125 7.875 3.58203 7.875H0.738281C0.355469 7.875 0.0820312 7.60156 0.0820312 7.21875C0.0820312 7.13672 0.109375 7.02734 0.136719 6.94531L1.50391 4.23828C1.69531 3.82812 2.21484 3.5 2.65234 3.5H5.52344C6.78125 1.53125 8.47656 0 11.293 0C11.9766 0 12.6602 0 13.5352 0.191406C13.6992 0.246094 13.8359 0.382812 13.8906 0.546875ZM9.87109 7.46484C11.8945 6.17969 12.7422 4.75781 12.7422 2.78906C12.7695 2.32422 12.7695 1.88672 12.6875 1.39453C12.1953 1.3125 11.7852 1.3125 11.293 1.3125C9.29688 1.3125 7.90234 2.1875 6.61719 4.21094C6.17969 4.92188 6.42578 4.42969 5.19531 6.94531C6.07031 7.32812 6.75391 8.01172 7.13672 8.88672C9.65234 7.65625 9.16016 7.90234 9.87109 7.46484ZM10.1445 2.84375C10.7461 2.87109 11.2383 3.33594 11.2383 3.9375C11.2383 4.56641 10.7461 5.03125 10.1445 5.03125C9.51562 5.03125 9.05078 4.56641 9.05078 3.9375C9.05078 3.33594 9.51562 2.87109 10.1445 2.84375Z"/>
</svg>
