<svg width="19" height="20" viewBox="0 0 19 20" xmlns="http://www.w3.org/2000/svg">
<path d="M18.5156 13.0859C18.8281 13.2422 18.9453 13.6328 18.75 13.9453L17.5 16.0938C17.3438 16.4062 16.9531 16.4844 16.6406 16.3281L11.3672 13.2812V19.375C11.3672 19.7266 11.0547 20 10.7422 20H8.20312C7.89062 20 7.57812 19.7266 7.57812 19.375V13.2812L2.30469 16.3281C1.99219 16.4844 1.60156 16.4062 1.44531 16.0938L0.195312 13.9453C0 13.6328 0.117188 13.2422 0.429688 13.0859L5.70312 10L0.429688 6.95312C0.117188 6.79688 0 6.40625 0.195312 6.09375L1.44531 3.94531C1.60156 3.63281 1.99219 3.55469 2.30469 3.71094L7.57812 6.75781V0.625C7.57812 0.3125 7.89062 0 8.20312 0H10.7422C11.0547 0 11.3672 0.3125 11.3672 0.625V6.75781L16.6406 3.71094C16.9531 3.51562 17.3438 3.63281 17.5 3.94531L18.75 6.09375C18.9453 6.40625 18.8281 6.79688 18.5156 6.95312L13.2422 10L18.5156 13.0859Z"/>
</svg>
