<svg width="21" height="21" viewBox="0 0 21 21" xmlns="http://www.w3.org/2000/svg">
<path d="M8.75 4.10156V3.4375H8.67188C8.94531 2.92969 9.29688 2.5 9.6875 2.10938C11.1719 0.585938 13.3203 0 15.3906 0.507812C15.8984 0.625 16.25 1.01562 16.4062 1.48438C16.5234 1.95312 16.4062 2.46094 16.0547 2.8125L13.75 5.07812L13.9453 6.36719L15.2344 6.5625L17.5391 4.25781C17.8516 3.94531 18.3594 3.78906 18.8672 3.90625C19.3359 4.0625 19.6875 4.41406 19.8047 4.92188C20.3125 6.95312 19.6875 9.14062 18.2031 10.625C17.8516 10.9766 17.4609 11.2891 17.0703 11.5234L15.8594 10.3125C15.7812 10.2734 15.7031 10.1953 15.6641 10.1562C16.0938 9.96094 16.5234 9.6875 16.875 9.29688C17.6953 8.51562 18.125 7.42188 18.125 6.32812L15.8594 8.55469L12.3438 7.96875L11.7578 4.45312L13.9844 2.22656H13.9453C12.8516 2.22656 11.7969 2.61719 11.0156 3.4375C10.0391 4.41406 9.60938 5.78125 9.88281 7.14844L8.75 5.97656V4.10156ZM4.14062 18.0469L8.78906 13.3984C8.78906 14.1406 9.02344 14.8438 9.375 15.4688L5.46875 19.375C4.84375 20 4.02344 20.3125 3.20312 20.3125C2.34375 20.3125 1.52344 20 0.9375 19.375C0.3125 18.7891 0 17.9688 0 17.1094C0 16.2891 0.3125 15.4688 0.9375 14.8438L6.17188 9.60938L7.5 10.9375L2.22656 16.1719C1.99219 16.4453 1.83594 16.7578 1.83594 17.1094C1.83594 17.4609 1.99219 17.8125 2.22656 18.0469C2.73438 18.5547 3.63281 18.5547 4.14062 18.0469ZM19.5703 15.7812C20.1172 16.3672 20.1172 17.2656 19.5703 17.8516L17.5 19.9219C16.9141 20.4688 16.0156 20.4688 15.4297 19.9219L10.8594 15.3125C9.96094 14.4141 9.80469 13.0859 10.3125 11.9922L6.17188 7.8125H3.75L0 2.8125L2.5 0.3125L7.5 4.0625V6.52344L11.6406 10.6641C12.7344 10.1172 14.0625 10.3125 15 11.2109L19.5703 15.7812Z"/>
</svg>
