<svg xmlns="http://www.w3.org/2000/svg" width="50" height="50" viewBox="0 0 50 50" fill="none"><g clip-path="url(#clip0_6034_35876)"><path d="M21.4459 24.281C22.6171 24.75 23.8696 24.9825 25.1311 24.9651C26.3926 24.9476 27.6381 24.6806 28.7959 24.1793C29.1005 24.0482 29.3405 23.8015 29.4632 23.4935C29.5859 23.1855 29.5811 22.8413 29.4501 22.5368C29.319 22.2322 29.0723 21.9922 28.7643 21.8695C28.4563 21.7469 28.1121 21.7516 27.8076 21.8826C26.4037 22.4871 24.8424 22.6228 23.3553 22.2695C21.8683 21.9162 20.5348 21.0928 19.5528 19.9215C18.5709 18.7502 17.9928 17.2935 17.9045 15.7676C17.8161 14.2417 18.2222 12.728 19.0624 11.4512C19.9026 10.1744 21.1322 9.20256 22.5686 8.68002C24.0049 8.15748 25.5715 8.11206 27.0357 8.55051C28.4999 8.98896 29.7837 9.88791 30.6965 11.1139C31.6093 12.3399 32.1024 13.8275 32.1026 15.356V16.246V16.2826C32.1018 16.2965 32.1018 16.3104 32.1026 16.3243C32.1313 16.7419 31.9975 17.1544 31.7292 17.4756C31.4608 17.7967 31.0786 18.0017 30.6626 18.0476C30.4836 18.0439 30.3071 18.005 30.1432 17.9331C29.9793 17.8611 29.8312 17.7575 29.7073 17.6283C29.5835 17.499 29.4864 17.3466 29.4215 17.1798C29.3566 17.0129 29.3253 16.8349 29.3292 16.656V12.631C29.3292 12.2994 29.1976 11.9815 28.9631 11.7471C28.7287 11.5127 28.4108 11.381 28.0792 11.381C27.7827 11.3849 27.4975 11.4955 27.2759 11.6926C26.6115 11.2768 25.8464 11.0496 25.0627 11.0352C24.279 11.0208 23.5062 11.2199 22.8269 11.611C22.1477 12.0021 21.5876 12.5706 21.2066 13.2557C20.8256 13.9407 20.6381 14.7164 20.6642 15.4998C20.6902 16.2832 20.9289 17.0447 21.3545 17.7029C21.7801 18.3611 22.3768 18.8912 23.0805 19.2363C23.7843 19.5814 24.5686 19.7287 25.3496 19.6623C26.1306 19.5959 26.8789 19.3183 27.5142 18.8593C27.876 19.3765 28.3567 19.7992 28.9159 20.0918C29.4751 20.3845 30.0964 20.5385 30.7276 20.541C31.8023 20.4739 32.8084 19.9899 33.5316 19.192C34.2547 18.3941 34.6378 17.3454 34.5992 16.2693C34.5992 16.2593 34.5992 16.251 34.5992 16.241V15.356C34.5987 13.6115 34.1229 11.9001 33.2231 10.4056C32.3232 8.91109 31.0333 7.68993 29.4918 6.87324C27.9502 6.05655 26.2154 5.67518 24.4735 5.77008C22.7316 5.86498 21.0484 6.43257 19.6048 7.4119C18.1611 8.39123 17.0115 9.7453 16.2793 11.3287C15.5472 12.9121 15.2601 14.6651 15.4491 16.3993C15.638 18.1335 16.2958 19.7835 17.3517 21.1721C18.4077 22.5607 19.8219 23.6355 21.4426 24.281H21.4459ZM24.9992 17.1793C24.6391 17.1773 24.2875 17.0687 23.989 16.8672C23.6905 16.6656 23.4583 16.3802 23.3219 16.0468C23.1854 15.7135 23.1507 15.3472 23.2222 14.9942C23.2937 14.6411 23.4681 14.3172 23.7235 14.0632C23.9789 13.8092 24.3038 13.6365 24.6572 13.567C25.0106 13.4974 25.3767 13.5341 25.7093 13.6724C26.0419 13.8107 26.3261 14.0444 26.526 14.344C26.7259 14.6436 26.8326 14.9958 26.8326 15.356C26.8324 15.5962 26.7847 15.834 26.6924 16.0558C26.6001 16.2775 26.4648 16.4789 26.2945 16.6483C26.1242 16.8177 25.9221 16.9518 25.6998 17.0429C25.4775 17.134 25.2395 17.1804 24.9992 17.1793Z" fill="#061F14"></path><path d="M49.3427 16.935C49.165 16.388 48.8863 15.8792 48.521 15.435L41.8144 7.37831V5.01497C41.813 3.7998 41.3297 2.63478 40.4705 1.77553C39.6112 0.916275 38.4462 0.432964 37.231 0.431641H12.761C11.5458 0.432964 10.3808 0.916275 9.52157 1.77553C8.66232 2.63478 8.17901 3.7998 8.17768 5.01497V7.38831L1.47602 15.4366C0.791858 16.2605 0.416935 17.2974 0.416016 18.3683V41.6516C0.418662 43.7505 1.25359 45.7626 2.73768 47.2466C4.22177 48.7307 6.23386 49.5657 8.33268 49.5683H41.666C43.7208 49.5699 45.6948 48.7677 47.166 47.3333L47.1877 47.3183C47.9466 46.5826 48.55 45.7018 48.962 44.7284C49.374 43.755 49.5862 42.7087 49.586 41.6516V18.3683C49.5816 17.9157 49.5097 17.4663 49.3727 17.035C49.3627 17 49.3527 16.97 49.3427 16.935ZM46.111 44.7316L31.196 31.7966L47.0827 19.6866V41.6516C47.0827 42.7537 46.7435 43.8291 46.111 44.7316ZM46.536 16.9583L41.8144 20.5566V11.2866L46.536 16.9583ZM12.761 2.93164H37.231C37.7833 2.93252 38.3127 3.1523 38.7032 3.54281C39.0937 3.93332 39.3135 4.46271 39.3144 5.01497V22.4633L29.266 30.13L27.7393 28.7966C26.9746 28.1433 26.0018 27.7843 24.996 27.7843C23.9902 27.7843 23.0174 28.1433 22.2527 28.7966L20.736 30.1133L10.6777 22.4466V5.01497C10.6786 4.46271 10.8983 3.93332 11.2889 3.54281C11.6794 3.1523 12.2088 2.93252 12.761 2.93164ZM3.89102 44.7366C3.25679 43.8329 2.91635 42.7557 2.91602 41.6516V19.6783L18.806 31.7916L3.89102 44.7366ZM8.17768 20.5433L3.46768 16.9533L8.17768 11.2866V20.5433ZM24.9993 47.0683H8.33268C7.44091 47.0623 6.56483 46.8331 5.78435 46.4016L23.8877 30.6933C24.1969 30.4305 24.5894 30.2862 24.9952 30.2862C25.401 30.2862 25.7935 30.4305 26.1027 30.6933L44.2193 46.4016C43.4373 46.8338 42.5595 47.063 41.666 47.0683H24.9993Z" fill="#061F14"></path></g><defs><clipPath id="clip0_6034_35876"><rect width="50" height="50" fill="white"></rect></clipPath></defs></svg>