<svg xmlns="http://www.w3.org/2000/svg" width="45" height="45" viewBox="0 0 45 45" fill="none"><g clip-path="url(#clip0_6034_35049)"><path d="M23.6121 21.3881C23.2684 21.0445 22.7121 21.0445 22.3684 21.3881C22.0256 21.7309 22.0256 22.2872 22.3684 22.6309C22.7121 22.9737 23.2684 22.9737 23.6121 22.6309C23.9548 22.2872 23.9548 21.7309 23.6121 21.3881Z" fill="#061F14"></path><path d="M34.7985 10.2013C33.0811 8.48404 30.301 8.48395 28.5835 10.2013C26.8706 11.9142 26.8705 14.7021 28.5838 16.4164C30.2973 18.1289 33.0852 18.1296 34.7985 16.4162C36.5157 14.699 36.5161 11.9188 34.7985 10.2013ZM33.5556 15.1732C32.5278 16.201 30.8549 16.201 29.8267 15.1734C28.7988 14.1449 28.7987 12.472 29.8265 11.4443C30.8569 10.4139 32.525 10.4138 33.5556 11.4443C34.5859 12.4745 34.5861 14.1428 33.5556 15.1732Z" fill="#061F14"></path><path d="M44.7428 0.25744C44.5702 0.0849108 44.3346 -0.00860465 44.0898 0.000623847C43.891 0.00774297 39.1595 0.197938 33.5349 2.18593C29.0279 3.77728 25.2712 6.05566 22.3691 8.9578C21.7188 9.60811 21.086 10.2977 20.4805 11.0141C17.6111 9.32501 15.3117 9.85464 13.8581 10.6326C10.5111 12.4238 8.43945 17.2873 8.43945 20.766C8.43972 21.1214 8.65391 21.4419 8.98226 21.5779C9.09099 21.623 9.20524 21.6449 9.31845 21.6449C9.54722 21.6449 9.77196 21.5555 9.9401 21.3874C11.7052 19.6223 13.8823 19.7327 14.5935 19.8263L14.9013 20.134C14.2956 21.5754 13.8076 23.0088 13.4497 24.4028C13.3205 24.9073 13.3641 25.4411 13.5562 25.9295C12.71 26.3194 11.8935 26.892 11.1827 27.6029C8.9203 29.8654 8.4609 35.3791 8.44244 35.6127C8.42223 35.8691 8.51521 36.1215 8.69706 36.3033C8.86256 36.4688 9.08641 36.5608 9.31845 36.5608C9.34147 36.5608 9.36459 36.5599 9.3877 36.558C9.62132 36.5397 15.1352 36.0803 17.3976 33.8179C18.1082 33.1073 18.6807 32.291 19.0707 31.4449C19.5877 31.6482 20.1197 31.6733 20.5982 31.5507C21.9916 31.1929 23.4248 30.7051 24.8664 30.0992L25.1741 30.407C25.2676 31.1183 25.378 33.2955 23.6129 35.0604C23.3617 35.3118 23.2864 35.6898 23.4225 36.0181C23.5585 36.3466 23.8789 36.5607 24.2344 36.5607C27.7131 36.5607 32.5765 34.489 34.3678 31.1421C35.1457 29.6886 35.6753 27.3892 33.9862 24.5197C34.7023 23.9145 35.3919 23.2817 36.0425 22.6311C38.9446 19.729 41.2229 15.9723 42.8143 11.4656C44.8024 5.84077 44.9925 1.1091 44.9996 0.910466C45.0084 0.66657 44.9153 0.430057 44.7428 0.25744ZM10.4045 18.8755C10.9505 16.2333 12.5363 13.3339 14.6878 12.1823C16.1256 11.4129 17.6972 11.4883 19.3682 12.403C17.9446 14.2753 16.707 16.2924 15.6755 18.4224C15.6624 18.4143 15.5042 18.2154 15.2103 18.1491C15.0894 18.1218 12.7639 17.6216 10.4045 18.8755ZM16.1547 32.5748C14.9462 33.7833 12.1113 34.4207 10.3194 34.681C10.5798 32.8891 11.2172 30.0542 12.4256 28.8458C13.1024 28.1691 13.8871 27.656 14.6758 27.367L17.6335 30.3247C17.3445 31.1134 16.8315 31.8981 16.1547 32.5748ZM20.1616 29.8479C19.9072 29.913 19.6126 29.8174 19.3936 29.5987C18.2566 28.4617 17.8117 28.0169 17.6722 27.8774C17.4162 27.6214 16.7886 26.9938 15.4023 25.6074C15.1831 25.3878 15.0875 25.0933 15.1524 24.8393C15.434 23.743 15.8021 22.6182 16.2498 21.4825L23.5179 28.7506C22.3821 29.1984 21.2575 29.5665 20.1616 29.8479ZM32.8182 30.3126C31.6666 32.4641 28.7673 34.05 26.1251 34.5959C26.9676 33.0106 27.1533 30.9926 26.8455 29.7689C26.774 29.4846 26.5886 29.3417 26.5782 29.3249C28.708 28.2934 30.725 27.0558 32.5975 25.6322C33.5121 27.3034 33.5875 28.8751 32.8182 30.3126ZM34.7997 21.3882C34.0078 22.18 33.155 22.9451 32.265 23.6621C30.1255 25.3847 27.7708 26.8439 25.2585 28.0054L16.9951 19.7421C18.1566 17.2297 19.6158 14.8749 21.3383 12.7358C22.0558 11.8452 22.8208 10.9923 23.6124 10.2008C26.2162 7.59691 29.5766 5.52463 33.603 4.03295L40.9675 11.3975C39.476 15.4238 37.4038 18.7842 34.7997 21.3882ZM41.5999 9.54377L35.4567 3.40058C38.8037 2.36101 41.7154 1.97174 43.1688 1.83182C43.0287 3.28544 42.6394 6.19717 41.5999 9.54377Z" fill="#061F14"></path><path d="M21.1265 36.303C20.7831 35.9598 20.2266 35.9599 19.8835 36.3032L17.3979 38.7896C17.0548 39.1329 17.0549 39.6894 17.3981 40.0325C17.7415 40.3756 18.298 40.3756 18.6411 40.0323L21.1267 37.5459C21.4698 37.2026 21.4697 36.6461 21.1265 36.303Z" fill="#061F14"></path><path d="M8.69785 23.8737C8.35472 23.5304 7.79829 23.5304 7.4549 23.8735L4.96848 26.3591C4.62518 26.7022 4.62509 27.2587 4.96821 27.602C5.31125 27.9451 5.86769 27.9455 6.21116 27.6022L8.69758 25.1167C9.04088 24.7735 9.04097 24.217 8.69785 23.8737Z" fill="#061F14"></path><path d="M14.9112 37.547C14.5681 37.2038 14.0115 37.2038 13.6682 37.5469L7.71452 43.4997C7.37122 43.8429 7.37122 44.3994 7.71443 44.7427C8.05747 45.0859 8.61408 45.086 8.95738 44.7427L14.9111 38.7899C15.2544 38.4467 15.2544 37.8902 14.9112 37.547Z" fill="#061F14"></path><path d="M7.87991 37.547C7.53679 37.2038 6.98018 37.2038 6.63697 37.5469L0.683267 43.4997C0.339967 43.8429 0.339967 44.3994 0.683179 44.7427C1.02622 45.0859 1.58283 45.086 1.92613 44.7427L7.87983 38.7899C8.22313 38.4467 8.22313 37.8902 7.87991 37.547Z" fill="#061F14"></path><path d="M7.45317 30.0881C7.11004 29.745 6.55343 29.745 6.21022 30.0882L0.257398 36.0419C-0.085814 36.3852 -0.085814 36.9417 0.257486 37.285C0.600698 37.6282 1.15722 37.6282 1.50043 37.2849L7.45325 31.3312C7.79647 30.9879 7.79647 30.4314 7.45317 30.0881Z" fill="#061F14"></path><path d="M27.3409 17.6588C26.9976 17.3156 26.4412 17.3156 26.0978 17.6588L24.8551 18.9015C24.5119 19.2448 24.5119 19.8013 24.8551 20.1446C25.1984 20.4878 25.7548 20.4878 26.0981 20.1446L27.3409 18.9018C27.6841 18.5586 27.6841 18.0021 27.3409 17.6588Z" fill="#061F14"></path></g><defs><clipPath id="clip0_6034_35049"><rect width="45" height="45" fill="white"></rect></clipPath></defs></svg>