<svg xmlns="http://www.w3.org/2000/svg" width="45" height="45" viewBox="0 0 45 45" fill="none"><g clip-path="url(#clip0_6034_35029)"><path d="M45 18.871H43.3691L40.9383 20.15C40.6647 19.999 40.3801 19.8711 40.0732 19.7942L37.0154 19.029V18.6814C38.3682 17.7373 39.1936 16.1775 39.1936 14.5161V13.2474C39.1936 10.4278 36.9842 8.06822 34.2688 7.986C34.131 7.98245 33.9952 7.98742 33.8588 7.99415L34.6516 6.13817L30.8081 2.29579L28.5425 3.77044C27.6817 3.28562 26.7712 2.90819 25.8257 2.64345L25.2661 0H19.7346L19.175 2.64416C18.2295 2.9089 17.3184 3.28633 16.4582 3.77115L14.1926 2.2965L10.3523 6.13675L11.1316 7.99415C11.1019 7.99273 11.0735 7.98742 11.0437 7.98671C9.65379 7.94631 8.34465 8.45345 7.35021 9.41883C6.35435 10.3835 5.80645 11.6781 5.80645 13.0645V14.5161C5.80645 16.1775 6.63114 17.7365 7.98387 18.6807V19.029L5.98932 19.5277L2.37411 17.4194H0V32.4589L7.14041 34.8387H8.53106L8.70472 34.2306L10.8935 35.5443C10.9293 36.7344 11.8837 37.692 13.0727 37.7338C13.1145 38.9178 14.066 39.8694 15.2501 39.9112C15.2919 41.0953 16.2435 42.0468 17.4275 42.0886C17.4707 43.3003 18.4631 44.2742 19.6847 44.2742C20.1383 44.2742 20.5831 44.1328 20.957 43.8808L21.5998 44.4486C22.0028 44.8033 22.5216 45 23.0603 45H23.1946C24.4024 45 25.3852 44.0236 25.4004 42.8198C26.5951 42.8045 27.5626 41.837 27.5778 40.6423C28.7732 40.6271 29.7414 39.6582 29.7552 38.4628C30.9616 38.4344 31.9355 37.4489 31.9355 36.2357C31.9355 36.1627 31.9319 36.0908 31.9245 36.0182L45 29.4809V18.871ZM37.7419 13.2474V14.5161C37.7419 15.8044 37.0459 17.0079 35.9253 17.6568L35.5624 17.8666L35.5652 20.1635L39.1914 21.0693L31.2097 25.2703V23.3151C31.2097 22.3395 30.8156 21.446 30.1702 20.7858L32.6613 20.1635V17.8648L32.2991 17.6554C31.1792 17.0079 30.4839 15.8044 30.4839 14.5161V13.0645C30.4839 12.0747 30.8751 11.149 31.5864 10.4597C32.297 9.77075 33.2397 9.39934 34.2253 9.43761C36.1642 9.49573 37.7419 11.205 37.7419 13.2474ZM23.5944 24.6997L20.3088 23.6497C18.8114 23.1698 17.1908 23.0982 15.658 23.4377L15.2419 23.5299V23.3151C15.2419 22.3143 15.9206 21.4453 16.8909 21.2022L21.0484 20.1635V17.8648L20.6862 17.6554C19.5663 17.0079 18.871 15.8044 18.871 14.5161V13.0645C18.871 12.0747 19.2622 11.149 19.9735 10.4597C20.6841 9.77075 21.6328 9.39934 22.6123 9.43761C24.5513 9.49573 26.129 11.205 26.129 13.2474V14.5161C26.129 15.8044 25.433 17.0079 24.3124 17.6568L23.9495 17.8666L23.9523 20.1635L28.1091 21.2022C29.0794 21.4453 29.7581 22.3143 29.7581 23.3151V26.0348L29.5787 26.129H29.134L24.6718 24.8539C24.3202 24.7543 23.958 24.7136 23.5944 24.6997ZM15.4046 10.863C16.7676 8.22203 19.511 6.53226 22.5 6.53226C25.4606 6.53226 28.1923 8.19935 29.5656 10.8045C29.2201 11.4974 29.0323 12.2646 29.0323 13.0645V14.5161C29.0323 16.1775 29.8569 17.7365 31.2097 18.6807V19.029L28.3065 19.7559L25.4025 19.029V18.6814C26.7553 17.7373 27.5806 16.1775 27.5806 14.5161V13.2474C27.5806 10.4278 25.3713 8.06822 22.6559 7.986C21.2667 7.94524 19.9568 8.45274 18.9624 9.41812C17.9673 10.3835 17.4194 11.6781 17.4194 13.0645V14.5161C17.4194 16.1775 18.244 17.7365 19.5968 18.6807V19.029L16.6936 19.7559L13.7896 19.029V18.6814C15.1424 17.7373 15.9677 16.1775 15.9677 14.5161V13.2474C15.9677 12.3933 15.7622 11.5824 15.4046 10.863ZM12.0665 6.47343L14.3854 4.1546L16.4263 5.48289L16.8169 5.24331C17.7954 4.64367 18.8529 4.20457 19.9597 3.93984L20.4062 3.83281L20.9112 1.45161H24.0895L24.5931 3.8321L25.0396 3.93878C26.1464 4.20387 27.2039 4.64296 28.1824 5.24261L28.573 5.48218L30.6139 4.1539L32.9299 6.47059L32.1067 8.39816C31.5464 8.63915 31.0268 8.97831 30.5746 9.4167C30.5448 9.44576 30.5193 9.47695 30.4903 9.50672C28.7803 6.78849 25.7573 5.08065 22.5 5.08065C19.2193 5.08065 16.1878 6.80444 14.4821 9.55031C14.0256 9.07258 13.4827 8.68558 12.8809 8.41517L12.0665 6.47343ZM9.43548 20.1635V17.8648L9.07329 17.6554C7.95339 17.0079 7.25807 15.8044 7.25807 14.5161V13.0645C7.25807 12.0747 7.64932 11.149 8.3606 10.4597C9.07116 9.77075 10.016 9.39934 10.9994 9.43761C12.9384 9.49573 14.5161 11.205 14.5161 13.2474V14.5161C14.5161 15.8044 13.8201 17.0079 12.6995 17.6568L12.3366 17.8666L12.3394 20.1635L14.8298 20.7858C14.1844 21.446 13.7903 22.3395 13.7903 23.3151V23.8527L11.5264 24.356L11.5853 24.1504L11.6129 22.809L7.78505 20.576L9.43548 20.1635ZM1.45161 18.871H1.98073L7.20065 21.9156L4.56677 32.4508L1.45161 31.412V18.871ZM7.37573 33.3871L5.94715 32.9111L8.5059 22.6772L10.1613 23.6426V23.8499L7.43668 33.3871H7.37573ZM12.3387 35.4766C12.3387 35.2626 12.4252 35.0528 12.5769 34.9011L13.8527 33.6253C14.0044 33.4736 14.2142 33.3871 14.4282 33.3871C14.8769 33.3871 15.2419 33.7521 15.2419 34.2008C15.2419 34.4149 15.1555 34.6247 15.0038 34.7763L13.728 36.0522C13.5763 36.2039 13.3665 36.2903 13.1524 36.2903C12.7037 36.2903 12.3387 35.9253 12.3387 35.4766ZM14.5161 37.654C14.5161 37.44 14.6026 37.2302 14.7543 37.0785L16.0301 35.8027C16.1818 35.651 16.3916 35.5645 16.6057 35.5645C17.0543 35.5645 17.4194 35.9296 17.4194 36.3782C17.4194 36.5923 17.3329 36.8021 17.1812 36.9538L15.9054 38.2296C15.7537 38.3813 15.5439 38.4677 15.3298 38.4677C14.8812 38.4677 14.5161 38.1027 14.5161 37.654ZM16.6936 39.8315C16.6936 39.6174 16.78 39.4076 16.9317 39.2559L18.2075 37.9801C18.3592 37.8284 18.569 37.7419 18.7831 37.7419C19.2317 37.7419 19.5968 38.107 19.5968 38.5556C19.5968 38.7697 19.5103 38.9795 19.3586 39.1312L18.0828 40.407C17.9311 40.5587 17.7213 40.6452 17.5072 40.6452C17.0586 40.6452 16.6936 40.2801 16.6936 39.8315ZM19.6847 42.8226C19.236 42.8226 18.871 42.4576 18.871 42.0089C18.871 41.7948 18.9574 41.585 19.1091 41.4333L20.385 40.1575C20.5366 40.0058 20.7464 39.9194 20.9605 39.9194C21.4092 39.9194 21.7742 40.2844 21.7742 40.7331C21.7742 40.9471 21.6877 41.1569 21.536 41.3086L20.2602 42.5844C20.1085 42.7361 19.8987 42.8226 19.6847 42.8226ZM23.1946 43.5484H23.0603C22.8753 43.5484 22.6981 43.4811 22.5602 43.3588L22.0173 42.88L22.5624 42.3349C22.7569 42.1404 22.9079 41.9089 23.0196 41.6605L23.6794 42.2098C23.852 42.3537 23.9516 42.5656 23.9516 42.7914C23.9516 43.2089 23.6121 43.5484 23.1946 43.5484ZM29.7035 37.0161H29.578C29.3959 37.0161 29.218 36.9516 29.0787 36.8347L25.1427 33.5547L24.2128 34.6704L28.035 37.855C28.2069 37.9989 28.3065 38.2108 28.3065 38.4366C28.3065 38.854 27.9669 39.1936 27.5495 39.1936H27.391C27.2149 39.1936 27.0427 39.1312 26.9069 39.0178L22.9646 35.7329L22.0347 36.8485L25.8569 40.0335C26.0294 40.1763 26.129 40.3882 26.129 40.614C26.129 41.0315 25.7895 41.371 25.372 41.371C25.0935 41.371 24.822 41.2721 24.6083 41.0945L22.9884 39.7443C22.6315 39.0149 21.8982 38.5064 21.0395 38.4759C20.9977 37.2919 20.0462 36.3403 18.8621 36.2985C18.8203 35.1144 17.8687 34.1629 16.6847 34.1211C16.6422 32.9094 15.6498 31.9355 14.4282 31.9355C13.8318 31.9355 13.2481 32.1772 12.8264 32.5989L11.5505 33.8748C11.4743 33.9509 11.4113 34.0374 11.3471 34.1232L9.11759 32.7853L11.0721 25.9447L15.972 24.8553C17.2574 24.5679 18.6126 24.6303 19.8661 25.0315L20.9353 25.3735L17.3106 27.1859C16.4823 27.6008 15.9677 28.434 15.9677 29.3604V29.504C15.9677 30.8447 17.0586 31.9355 18.3993 31.9355C18.8398 31.9355 19.2732 31.8157 19.6499 31.5885L22.3526 29.9679C22.8955 29.6425 23.6242 29.7138 24.093 30.1355L30.2255 35.6545C30.3896 35.8034 30.4839 36.0146 30.4839 36.2357C30.4839 36.6663 30.1341 37.0161 29.7035 37.0161ZM43.5484 28.5836L31.3206 34.698C31.2809 34.6558 31.2395 34.6158 31.1959 34.5768L25.0644 29.0578C24.5272 28.573 23.8325 28.3065 23.1089 28.3065C22.5797 28.3065 22.0602 28.4503 21.6051 28.7232L18.9014 30.3446C18.7498 30.436 18.5765 30.4839 18.3993 30.4839C17.8585 30.4839 17.4194 30.0448 17.4194 29.504V29.3604C17.4194 28.9865 17.627 28.6513 17.9609 28.4844L22.0095 26.46C22.7024 26.1131 23.5249 26.0355 24.2716 26.2502L28.8327 27.553L29.9374 27.5806L43.5484 20.4169V28.5836Z" fill="#061F14"></path></g><defs><clipPath id="clip0_6034_35029"><rect width="45" height="45" fill="white"></rect></clipPath></defs></svg>