<svg xmlns="http://www.w3.org/2000/svg" width="45" height="45" viewBox="0 0 45 45" fill="none"><g clip-path="url(#clip0_6034_35038)"><path d="M38.8943 6.98936H44.1211C44.6066 6.98936 45 6.59592 45 6.11046V0.878906C45 0.393448 44.6066 0 44.1211 0H38.8943C38.4089 0 38.0154 0.393448 38.0154 0.878906V2.61578H25.9923V0.878906C25.9923 0.393448 25.5988 0 25.1134 0H19.8866C19.4012 0 19.0077 0.393448 19.0077 0.878906V2.61578H6.98456V0.878906C6.98456 0.393448 6.59111 0 6.10565 0H0.878906C0.393448 0 0 0.393448 0 0.878906V6.11046C0 6.59592 0.393448 6.98936 0.878906 6.98936H6.10565C6.59111 6.98936 6.98456 6.59592 6.98456 6.11046V4.37359H14.296C11.7214 5.54089 9.40018 7.25544 7.50881 9.42352C4.54319 12.8231 2.82864 17.1249 2.63054 21.6211H0.878906C0.393448 21.6211 0 22.0145 0 22.5V27.7316C0 28.217 0.393448 28.6105 0.878906 28.6105H6.10565C6.59111 28.6105 6.98456 28.217 6.98456 27.7316V22.5C6.98456 22.0145 6.59111 21.6211 6.10565 21.6211H4.39041C4.79553 13.3384 10.8885 6.28555 19.0077 4.70009V6.1108C19.0077 6.59626 19.4012 6.98971 19.8866 6.98971H25.1134C25.5988 6.98971 25.9923 6.59626 25.9923 6.1108V4.70009C34.1115 6.28555 40.2045 13.3384 40.6096 21.6211H38.8943C38.4089 21.6211 38.0154 22.0145 38.0154 22.5V27.7316C38.0154 28.217 38.4089 28.6105 38.8943 28.6105H44.1211C44.6066 28.6105 45 28.217 45 27.7316V22.5C45 22.0145 44.6066 21.6211 44.1211 21.6211H42.3695C42.1714 17.1249 40.4568 12.8231 37.4912 9.42352C35.5998 7.25544 33.2786 5.54089 30.704 4.37359H38.0154V6.1108C38.0154 6.59592 38.4089 6.98936 38.8943 6.98936ZM5.22675 5.23155H1.75781V1.75781H5.22675V5.23155ZM5.22675 26.8526H1.75781V23.3789H5.22675V26.8526ZM43.2422 26.8526H39.7733V23.3789H43.2422V26.8526ZM24.2345 5.23155H20.7655V1.75781H24.2345V5.23155ZM39.7733 1.75781H43.2422V5.23155H39.7733V1.75781Z" fill="#061F14"></path><path d="M23.2693 9.68342C23.1148 9.40292 22.8199 9.22852 22.4996 9.22852C22.1793 9.22852 21.8843 9.40292 21.7298 9.68342L18.0793 16.3109C17.8451 16.7363 18 17.2709 18.4254 17.5047C18.8501 17.7388 19.385 17.5843 19.6191 17.1589L21.6207 13.5249V20.0064C20.4005 20.3827 19.5113 21.5208 19.5113 22.8629C19.5113 24.5105 20.852 25.8512 22.4996 25.8512C24.1472 25.8512 25.4879 24.5105 25.4879 22.8629C25.4879 21.5208 24.5987 20.3827 23.3785 20.0064V13.5249L29.4083 24.4727C27.4273 26.4764 26.077 29.0465 25.5524 31.8164H19.4467C18.9218 29.0465 17.5715 26.4764 15.5909 24.4727L16.5982 22.6439C16.8323 22.2188 16.6775 21.6843 16.2525 21.4501C15.8274 21.216 15.2925 21.3705 15.0584 21.7958L13.7263 24.2149C13.5306 24.5699 13.6034 25.0131 13.9024 25.2871C15.7952 27.0205 17.1094 29.3167 17.6532 31.8164H16.8348C15.3808 31.8164 14.198 32.9995 14.198 34.4531C14.198 35.479 14.7868 36.3689 15.6441 36.8045V44.1211C15.6441 44.6066 16.0376 45 16.523 45C17.0085 45 17.4019 44.6066 17.4019 44.1211V37.0898H27.5972V44.1211C27.5972 44.6066 27.9907 45 28.4761 45C28.9616 45 29.355 44.6066 29.355 44.1211V36.8045C30.2123 36.3689 30.8011 35.4786 30.8011 34.4531C30.8011 32.9992 29.6184 31.8164 28.1644 31.8164H27.3459C27.8897 29.3163 29.204 27.0205 31.0967 25.2868C31.3958 25.0128 31.4685 24.5699 31.2728 24.2146L23.2693 9.68342ZM22.4996 24.0934C21.8212 24.0934 21.2691 23.5413 21.2691 22.8629C21.2691 22.1841 21.8212 21.6324 22.4996 21.6324C23.178 21.6324 23.73 22.1841 23.73 22.8629C23.73 23.5413 23.178 24.0934 22.4996 24.0934ZM29.0433 34.4531C29.0433 34.9379 28.6492 35.332 28.1644 35.332H16.8348C16.35 35.332 15.9558 34.9379 15.9558 34.4531C15.9558 33.9684 16.35 33.5742 16.8348 33.5742H28.1644C28.6492 33.5742 29.0433 33.9684 29.0433 34.4531Z" fill="#061F14"></path><path d="M17.2812 20.4014C17.5126 20.4014 17.7392 20.308 17.9027 20.1446C18.0661 19.9801 18.1602 19.7545 18.1602 19.5225C18.1602 19.2911 18.0661 19.0655 17.9027 18.901C17.7392 18.7376 17.5126 18.6436 17.2812 18.6436C17.0492 18.6436 16.8226 18.7376 16.6591 18.901C16.4957 19.0655 16.4023 19.2911 16.4023 19.5225C16.4023 19.7545 16.4957 19.9801 16.6591 20.1446C16.8226 20.308 17.0492 20.4014 17.2812 20.4014Z" fill="#061F14"></path></g><defs><clipPath id="clip0_6034_35038"><rect width="45" height="45" fill="white"></rect></clipPath></defs></svg>