<svg xmlns="http://www.w3.org/2000/svg" width="50" height="50" viewBox="0 0 50 50" fill="none"><path d="M39.4794 30.9737C38.4557 29.9078 37.2211 29.338 35.9125 29.338C34.6145 29.338 33.3693 29.8973 32.3034 30.9631L28.9687 34.2873C28.6944 34.1395 28.42 34.0023 28.1562 33.8652C27.7763 33.6752 27.4175 33.4958 27.1115 33.3059C23.9878 31.3219 21.1491 28.7365 18.4265 25.3912C17.1074 23.7239 16.2209 22.3204 15.5772 20.8957C16.4425 20.1043 17.2445 19.2811 18.0255 18.4897C18.3209 18.1942 18.6164 17.8882 18.9119 17.5927C21.128 15.3766 21.128 12.5062 18.9119 10.2901L16.031 7.40919C15.7038 7.08205 15.3661 6.74436 15.0496 6.40667C14.4164 5.7524 13.7516 5.07702 13.0656 4.44385C12.042 3.43077 10.8179 2.89258 9.53042 2.89258C8.24298 2.89258 6.99774 3.43077 5.94246 4.44385C5.93191 4.4544 5.93191 4.4544 5.92135 4.46495L2.33339 8.08457C0.982626 9.43534 0.212269 11.0816 0.0434234 12.9916C-0.209845 16.0731 0.697699 18.9434 1.39419 20.8218C3.10375 25.4334 5.65753 29.7073 9.46711 34.2873C14.0892 39.8064 19.6506 44.1647 26.0034 47.2356C28.4306 48.3859 31.6703 49.7472 35.2899 49.9793C35.5115 49.9899 35.7437 50.0004 35.9547 50.0004C38.3924 50.0004 40.4397 49.1246 42.0437 47.3833C42.0543 47.3622 42.0754 47.3517 42.0859 47.3306C42.6347 46.6657 43.2678 46.0642 43.9327 45.4205C44.3864 44.9878 44.8508 44.5341 45.3045 44.0592C46.3493 42.9723 46.898 41.7059 46.898 40.4079C46.898 39.0994 46.3387 37.8436 45.2729 36.7883L39.4794 30.9737ZM43.2573 42.0858C43.2467 42.0858 43.2467 42.0964 43.2573 42.0858C42.8457 42.529 42.4236 42.93 41.9698 43.3733C41.2839 44.0275 40.5874 44.7135 39.9331 45.4838C38.8673 46.6235 37.6115 47.1617 35.9653 47.1617C35.807 47.1617 35.6381 47.1617 35.4799 47.1512C32.3457 46.9507 29.4331 45.7265 27.2486 44.6818C21.2757 41.7903 16.031 37.6853 11.6727 32.4827C8.07413 28.1455 5.66809 24.1354 4.07461 19.8299C3.09319 17.2022 2.7344 15.155 2.89269 13.2238C2.99822 11.9891 3.4731 10.9655 4.34898 10.0896L7.9475 6.4911C8.46459 6.00566 9.01334 5.74184 9.55153 5.74184C10.2164 5.74184 10.7546 6.14285 11.0922 6.48054C11.1028 6.4911 11.1133 6.50165 11.1239 6.5122C11.7676 7.11371 12.3797 7.73633 13.0234 8.40116C13.3506 8.73885 13.6882 9.07654 14.0259 9.42478L16.9069 12.3057C18.0255 13.4243 18.0255 14.4585 16.9069 15.5771C16.6008 15.8831 16.3053 16.1892 15.9993 16.4846C15.1129 17.3922 14.2686 18.2364 13.3506 19.0595C13.3294 19.0806 13.3083 19.0912 13.2978 19.1123C12.3902 20.0198 12.5591 20.9063 12.749 21.5078C12.7596 21.5394 12.7701 21.5711 12.7807 21.6028C13.5299 23.4178 14.5852 25.1274 16.1893 27.1641L16.1998 27.1747C19.1124 30.7626 22.1833 33.5591 25.5707 35.7013C26.0034 35.9757 26.4466 36.1973 26.8687 36.4084C27.2486 36.5983 27.6074 36.7777 27.9135 36.9677C27.9557 36.9888 27.9979 37.0205 28.0401 37.0416C28.3989 37.221 28.7366 37.3054 29.0848 37.3054C29.9607 37.3054 30.5095 36.7566 30.6889 36.5772L34.2979 32.9682C34.6567 32.6094 35.2266 32.1767 35.8914 32.1767C36.5457 32.1767 37.0839 32.5883 37.411 32.9471C37.4216 32.9576 37.4216 32.9576 37.4321 32.9682L43.2467 38.7828C44.3337 39.8592 44.3337 40.9672 43.2573 42.0858Z" fill="#061F14"></path><path d="M26.9852 11.8945C29.75 12.3588 32.2616 13.6674 34.2666 15.6724C36.2717 17.6774 37.5696 20.189 38.0445 22.9539C38.1606 23.6503 38.7621 24.1358 39.4481 24.1358C39.5325 24.1358 39.6063 24.1252 39.6908 24.1147C40.4717 23.988 40.9888 23.2493 40.8621 22.4684C40.2923 19.1232 38.7094 16.0734 36.2928 13.6568C33.8762 11.2402 30.8264 9.65729 27.4811 9.08743C26.7002 8.9608 25.9721 9.47789 25.8349 10.2482C25.6977 11.0186 26.2042 11.7679 26.9852 11.8945Z" fill="#061F14"></path><path d="M49.9039 22.056C48.9647 16.5475 46.3687 11.5349 42.3797 7.54589C38.3908 3.55692 33.3782 0.960922 27.8696 0.0217193C27.0992 -0.115468 26.3711 0.412174 26.2339 1.18253C26.1073 1.96344 26.6244 2.69159 27.4053 2.82877C32.3229 3.66245 36.8078 5.99462 40.3747 9.55093C43.9416 13.1178 46.2632 17.6027 47.0969 22.5204C47.2129 23.2169 47.8145 23.7023 48.5004 23.7023C48.5848 23.7023 48.6587 23.6917 48.7431 23.6812C49.5135 23.5651 50.0411 22.8264 49.9039 22.056Z" fill="#061F14"></path></svg>