<svg xmlns="http://www.w3.org/2000/svg" width="72" height="55" viewBox="0 0 72 55" fill="none"><path d="M65.5147 4.44853C69.5588 8.89706 71.9853 13.75 71.9853 21.8382C71.9853 35.9927 61.875 48.5294 47.7206 55L44.0809 49.7427C57.4265 42.4632 60.2574 33.1618 61.0662 27.0956C59.0441 28.3088 56.2132 28.7132 53.3823 28.3088C46.1029 27.5 40.4412 21.8382 40.4412 14.1544C40.4412 10.5147 42.0588 6.875 44.4853 4.04412C47.3162 1.21324 50.5515 0 54.5956 0C59.0441 0 63.0882 2.02206 65.5147 4.44853ZM25.0735 4.44853C29.1176 8.89706 31.5441 13.75 31.5441 21.8382C31.5441 35.9927 21.4338 48.5294 7.27941 55L3.63971 49.7427C16.9853 42.4632 19.8162 33.1618 20.625 27.0956C18.6029 28.3088 15.7721 28.7132 12.9412 28.3088C5.66177 27.5 0 21.4338 0 14.1544C0 10.5147 1.61765 6.875 4.04412 4.04412C6.875 1.21324 10.1103 0 14.1544 0C18.6029 0 22.6471 2.02206 25.0735 4.44853Z" fill="white"></path></svg>