<svg xmlns="http://www.w3.org/2000/svg" width="111" height="30" viewBox="0 0 111 30" fill="#696969"><path d="M14.2644 0C21.1837 0 27.7216 5.36101 27.7216 13.1588C27.7216 17.5451 25.6512 21.1191 22.7092 23.5018C23.5809 24.9097 24.6706 25.8845 25.9781 25.8845C27.5036 25.8845 28.1574 24.6931 28.2664 23.7184H30.2278C30.3367 25.018 29.6829 30 24.2347 30C20.8568 30 19.1133 28.0505 17.8058 25.8845C16.7161 26.1011 15.5175 26.3177 14.3189 26.3177C7.61756 26.3177 0.970703 20.9567 0.970703 13.1588C0.970703 5.36101 7.61756 0 14.2644 0ZM63.1351 5.90253C68.6923 5.90253 73.1599 9.80144 73.2144 15.5957C73.2144 21.7148 68.6923 25.722 63.1351 25.722C57.7414 25.722 53.0559 21.6606 53.0559 15.5957C53.0559 9.69314 57.6869 5.90253 63.1351 5.90253ZM99.8018 5.90253C104.705 5.90253 107.756 7.20217 107.756 12.0758V20.4152C107.756 21.7148 108.192 22.3646 109.282 22.3646C109.827 22.3646 110.262 22.148 110.48 22.0397L110.971 23.0144C110.535 23.7726 109.118 25.1805 106.503 25.1805C104.215 25.1805 102.798 24.0975 102.58 22.3646H102.471C101.382 24.3141 99.4204 25.6137 96.5873 25.6137C93.2094 25.6137 91.1391 23.8809 91.1391 20.7401C91.1391 14.5668 99.8018 16.2996 102.308 12.1841V11.2094C102.308 8.2852 101.109 7.63538 99.8018 7.63538C95.8791 7.63538 97.6225 12.1841 94.1356 12.1841C92.3922 12.1841 91.7384 11.2094 91.7384 10.0181C91.7384 7.74368 94.5715 5.90253 99.8018 5.90253ZM37.8008 6.33574V19.0072C37.8008 21.3899 38.9994 22.4729 40.7429 22.4729C42.1594 22.4729 43.6849 21.8231 44.4477 20.3069V9.80144C44.4477 8.71841 44.1208 8.2852 42.9222 8.2852H41.6146V6.33574H49.8959V20.2527C49.8959 21.5523 50.3318 22.2022 51.8573 22.2022H52.0752V24.2599L44.6656 25.4513V22.6895H44.5566C43.1401 24.4765 41.0698 25.5596 38.3456 25.5596C34.9677 25.5596 32.4615 23.8267 32.4615 19.1697V9.80144C32.4615 8.71841 32.0257 8.2852 30.8271 8.2852H29.6285V6.33574H37.8008ZM86.9984 6.01083C88.7419 6.01083 90.1584 6.98556 90.1584 8.93502C90.1584 10.343 89.5046 11.7509 87.5433 11.7509C85.9088 11.7509 85.5819 10.2347 84.1654 10.2347C82.9667 10.2347 81.9861 11.426 81.9861 13.1588V20.8484C81.9861 22.5812 82.4219 23.1227 84.3833 23.1227H85.4729V25.1805H73.7047V23.1769H74.4675C76.4288 23.1769 76.6468 22.6354 76.6468 20.9025V9.80144C76.6468 8.71841 76.102 8.2852 74.9033 8.2852H73.8137V6.33574H81.3323L81.6592 10.2347H81.8771C82.6398 7.41877 84.9281 6.01083 86.9984 6.01083ZM14.3189 2.11191C9.30651 2.11191 7.12722 5.84838 7.12722 13.1047C7.12722 20.361 9.30651 24.0975 14.3189 24.0975C15.2451 24.0975 16.0623 23.8809 16.7161 23.6643C15.7354 21.3899 14.4279 19.2238 11.9217 19.2238C11.4858 19.2238 11.05 19.3321 10.6141 19.5487L9.85134 18.0325C10.941 17.1119 12.412 16.4079 14.4279 16.4079C17.5878 16.4079 19.2223 17.9242 20.5299 19.8736C21.2926 18.2491 21.6195 15.9747 21.6195 13.1047C21.6195 5.84838 19.4402 2.11191 14.3189 2.11191ZM63.1351 7.74368C60.52 7.74368 58.9945 10.343 58.9945 15.5415C58.9945 20.8484 60.52 23.556 63.1351 23.556C65.9682 23.556 67.0579 20.8484 67.1668 15.5415C67.2758 10.3971 65.9682 7.74368 63.1351 7.74368ZM102.254 14.4585C100.51 16.3538 96.4784 16.6245 96.4784 20.0903C96.4784 21.8231 97.568 22.7978 98.9846 22.7978C101.382 22.7978 102.254 20.7401 102.254 18.4657V14.4585Z"></path></svg>