<svg xmlns="http://www.w3.org/2000/svg" width="144" height="30" viewBox="0 0 144 30" fill="#696969"><path d="M110.228 11.125H116.039L117.735 16.65C118.283 18.475 119.231 21.925 119.231 21.925C119.231 21.95 119.256 21.95 119.281 21.95L119.306 21.925C119.306 21.925 120.279 18.425 120.827 16.65L122.598 11.125H126.912L128.658 16.65C129.232 18.55 130.154 21.925 130.154 21.925C130.154 21.95 130.179 21.95 130.204 21.95L130.229 21.925C130.229 21.925 131.177 18.5 131.726 16.65L133.421 11.125H138.833L132.972 29.375H127.66L126.214 24.8C125.665 23 124.668 19.5 124.668 19.5C124.668 19.475 124.643 19.475 124.618 19.475L124.593 19.5C124.593 19.5 123.62 22.925 123.022 24.775L121.55 29.4H116.139L110.228 11.125ZM71.049 1.47498H76.9346V29.4H71.049V1.47498ZM81.2989 1.47498H87.1845V29.4H81.2989V1.47498ZM104.268 20.325C104.268 17.6 102.322 15.75 100.053 15.75C97.7088 15.75 95.7635 17.6 95.7635 20.325C95.7635 23.05 97.7088 24.9 100.053 24.9C102.322 24.9 104.268 23.05 104.268 20.325ZM90.1024 20.325C90.1024 14.775 94.5665 10.675 100.028 10.675C105.44 10.675 109.904 14.775 109.904 20.325C109.904 25.9 105.44 30 100.028 30C94.5914 30 90.1024 25.9 90.1024 20.325ZM36.9824 4.07498V9.44998H47.382C47.4318 9.44998 47.4568 9.49998 47.4318 9.52497L36.9824 27.325C36.733 27.8 36.6582 27.875 36.6582 28.35V29.4H56.9336V24.025H45.6861C45.6612 24.025 45.6362 24 45.6362 23.975C45.6362 23.95 45.6362 23.95 45.6362 23.95L56.2103 5.92498C56.2852 5.74998 56.3849 5.62498 56.3849 5.19998V4.07498H36.9824ZM60.6994 11.125H66.585V29.375H60.6994V11.125ZM63.6422 1.97498C65.4876 1.97498 66.984 3.44998 66.984 5.29998C66.984 7.14998 65.4627 8.62498 63.6422 8.62498C61.7967 8.62498 60.3003 7.14998 60.3003 5.29998C60.3003 3.44998 61.8216 1.97498 63.6422 1.97498Z"></path><path d="M19.1018 7.95C19.2265 7.925 19.3013 7.975 19.3761 8.05C19.825 8.575 21.3213 10.375 21.7204 10.875C21.7702 10.95 21.7702 11.05 21.6954 11.1L21.6705 11.125C18.6778 13.5 15.9345 16.2 13.4905 19.15C13.4656 19.2 13.4905 19.2 13.5155 19.175C16.7575 17.775 24.339 15.55 27.7556 14.925V10.6L14.3883 0L0.996094 10.6V15.35C5.13596 12.875 14.7375 9.05 19.1018 7.95Z"></path><path d="M8.203 26.2C8.10325 26.25 7.97855 26.225 7.92867 26.15L5.43478 23.175C5.35996 23.1 5.35996 23.05 5.45972 22.925C7.38002 20.1 11.3204 15.675 13.8392 13.8C13.8891 13.75 13.8891 13.725 13.8143 13.75C11.1707 14.6 3.73893 17.8 0.970703 19.375V29.5H27.7801V19.75C24.1141 20.375 13.1659 23.625 8.203 26.2Z"></path><path d="M142.774 8.525C142.774 8 142.4 7.625 141.901 7.625H140.953V10.175H141.377V9.425H141.801L142.275 10.2H142.749L142.25 9.375C142.549 9.225 142.774 8.925 142.774 8.525ZM141.876 9.05H141.377V8H141.876C142.15 8 142.35 8.225 142.35 8.525C142.35 8.825 142.15 9.05 141.876 9.05Z"></path><path d="M141.751 6.75C140.529 6.75 139.557 7.725 139.557 8.95C139.557 10.175 140.529 11.15 141.751 11.15C142.973 11.15 143.946 10.175 143.946 8.95C143.946 7.725 142.973 6.75 141.751 6.75ZM141.751 10.725C140.779 10.725 139.981 9.925 139.981 8.95C139.981 7.975 140.779 7.175 141.751 7.175C142.724 7.175 143.522 7.975 143.522 8.95C143.547 9.925 142.749 10.725 141.751 10.725Z"></path></svg>