<svg xmlns="http://www.w3.org/2000/svg" width="159" height="45" viewBox="0 0 159 45" fill="none"><path d="M41.1973 0H48.486V45H41.1973V0Z" fill="white"></path><path d="M73.8379 30.7394C73.8379 37.7112 68.1337 38.345 66.2322 38.345C61.7956 38.345 61.1618 34.2253 61.1618 32.007V14.5775H53.873V31.6901C53.873 35.8098 55.1407 39.6126 57.6759 41.8309C59.8942 44.0493 62.7463 45 66.2322 45C68.7675 45 71.9365 44.3662 73.8379 42.4648V45H81.1267V14.5775H73.8379V30.7394Z" fill="white"></path><path d="M95.387 3.48596H88.0983V14.5775H82.7109V21.5493H88.0983V45H95.387V21.5493H100.774V14.5775H95.387V3.48596Z" fill="white"></path><path d="M123.592 35.8098C122.008 37.0774 119.79 38.0281 117.571 38.0281C112.501 38.0281 109.015 34.2253 109.015 29.1549C109.015 24.0845 112.501 20.5986 117.571 20.5986C119.79 20.5986 122.008 21.2324 123.592 22.8169L124.543 23.7676L129.614 19.0141L128.346 18.0634C125.494 15.5282 121.691 13.9437 117.571 13.9437C108.698 13.9437 102.043 20.5986 102.043 29.4718C102.043 38.345 108.698 45 117.571 45C121.691 45 125.494 43.4155 128.346 40.8803L129.614 39.9296L124.543 34.8591L123.592 35.8098Z" fill="white"></path><path d="M155.281 17.1127C153.063 14.8944 150.844 13.9437 147.358 13.9437C144.823 13.9437 142.288 14.5774 140.386 16.4789V0H133.098V45H140.386V28.2042C140.386 21.2324 145.14 20.5986 147.041 20.5986C151.478 20.5986 151.161 24.7183 151.161 26.9366V44.6831H158.45V27.2535C158.45 23.1338 157.499 19.331 155.281 17.1127Z" fill="white"></path><path d="M117.254 34.5422C120.054 34.5422 122.324 32.2721 122.324 29.4718C122.324 26.6715 120.054 24.4014 117.254 24.4014C114.454 24.4014 112.184 26.6715 112.184 29.4718C112.184 32.2721 114.454 34.5422 117.254 34.5422Z" fill="#EF4335"></path><path d="M31.0564 33.9084C28.5212 36.4436 24.7184 38.0281 20.5987 38.0281C12.6761 38.0281 6.97186 31.6901 6.97186 23.1338C6.97186 14.5774 12.6761 8.23941 20.9156 8.23941C24.7184 8.23941 28.5212 9.82391 31.3733 12.676L32.3241 13.6267L37.0776 8.87321L36.1269 7.9225C32.0072 3.80279 26.6198 1.58448 20.9156 1.58448C8.87327 1.26758 0 10.7746 0 23.1338C0 35.4929 8.87327 44.9999 20.5987 44.9999C26.3029 44.9999 32.0072 42.7816 35.81 38.6619L36.7607 37.7112L32.0072 32.9577L31.0564 33.9084Z" fill="white"></path></svg>