<svg xmlns="http://www.w3.org/2000/svg" width="24" height="25" viewBox="0 0 24 25" fill="none"><path d="M12 3C17.7656 3 22.5 7.73438 22.5 13.5C22.5 13.5469 22.4531 13.5469 22.4531 13.5469C22.4531 15.8906 21.7031 18.0469 20.3906 19.7812L22.2656 21.7031C22.4062 21.7969 22.5 21.9844 22.5 22.2188C22.5 22.4062 22.4062 22.5938 22.2656 22.7344L21.1875 23.8125C21.0469 23.9531 20.8594 24 20.6719 24C20.4375 24 20.25 23.9531 20.1562 23.8125L18.2812 21.9375C16.5 23.25 14.3438 24 11.9531 24C9.60938 24 7.45312 23.25 5.71875 21.9375L3.79688 23.8125C3.70312 23.9531 3.51562 24.0469 3.28125 24.0469C3.09375 24.0469 2.90625 23.9531 2.76562 23.8125L1.6875 22.7344C1.54688 22.5938 1.45312 22.4062 1.45312 22.2188C1.45312 21.9844 1.54688 21.7969 1.6875 21.7031L3.5625 19.7812C2.25 18.0469 1.5 15.8906 1.5 13.5469V13.5C1.5 7.73438 6.1875 3 12 3ZM12 21.75C16.5469 21.75 20.25 18.0938 20.25 13.5C20.25 8.95312 16.5469 5.25 12 5.25C7.40625 5.25 3.75 8.95312 3.75 13.5C3.75 18.0938 7.40625 21.75 12 21.75ZM4.5 0C5.67188 0.046875 6.75 0.46875 7.54688 1.21875L0.703125 6.9375C0.234375 6.23438 0 5.39062 0 4.5C0 2.0625 2.01562 0 4.5 0ZM13.125 13.7344L15.8438 15.9375C15.9375 15.9844 15.9844 16.0781 15.9844 16.2188C15.9844 16.3125 15.9375 16.4062 15.8906 16.4531L14.9531 17.625C14.9062 17.7188 14.8125 17.7656 14.7188 17.7656H14.6719C14.5781 17.7656 14.4844 17.7188 14.4375 17.6719L11.4375 15.2812C11.0625 15 10.875 14.5781 10.875 14.1094V7.875C10.875 7.6875 11.0156 7.5 11.25 7.5H12.75C12.9375 7.5 13.125 7.6875 13.125 7.875V13.7344ZM19.5 0C21.9375 0 24 2.0625 24 4.5C23.9531 5.39062 23.7188 6.23438 23.25 6.9375L16.4062 1.21875C17.2031 0.46875 18.2812 0.046875 19.5 0Z" fill="white"></path></svg>