<svg xmlns="http://www.w3.org/2000/svg" width="50" height="50" viewBox="0 0 50 50" fill="none"><path d="M24.9998 11.2903C24.032 11.2903 23.1723 11.7274 22.5804 12.4048L18.4748 10.3516C18.5215 10.1339 18.5481 9.90887 18.5481 9.67742C18.5481 7.89839 17.1014 6.45161 15.3223 6.45161C13.5433 6.45161 12.0965 7.89839 12.0965 9.67742C12.0965 10.4016 12.3449 11.0637 12.7498 11.6024L6.96266 18.8363C6.55944 18.6548 6.11589 18.5484 5.64573 18.5484C3.8667 18.5484 2.41992 19.9952 2.41992 21.7742C2.41992 23.5532 3.8667 25 5.64573 25C7.42476 25 8.87153 23.5532 8.87153 21.7742C8.87153 21.05 8.62315 20.3879 8.21831 19.8492L14.0054 12.6153C14.4086 12.7968 14.853 12.9032 15.3231 12.9032C16.2909 12.9032 17.1506 12.4661 17.7425 11.7887L21.8481 13.8419C21.8014 14.0597 21.7748 14.2847 21.7748 14.5161C21.7748 16.2952 23.2215 17.7419 25.0006 17.7419C26.7796 17.7419 28.2264 16.2952 28.2264 14.5161C28.2264 13.8306 28.0078 13.1976 27.6417 12.6742L33.2659 6.1121C33.6941 6.32258 34.1691 6.45161 34.6772 6.45161C35.8973 6.45161 36.9481 5.7629 37.4957 4.7621L41.1312 5.67097C41.1449 7.4379 42.5844 8.87097 44.3546 8.87097C46.1248 8.87097 47.5804 7.42419 47.5804 5.64516C47.5804 3.86613 46.1336 2.41935 44.3546 2.41935C43.1352 2.41935 42.0836 3.10806 41.5361 4.10887L37.9006 3.2C37.8861 1.43306 36.4473 0 34.6772 0C32.907 0 31.4514 1.44677 31.4514 3.22581C31.4514 3.91129 31.6699 4.54516 32.0361 5.06774L26.4119 11.6298C25.9836 11.4194 25.5086 11.2903 24.9998 11.2903ZM5.64492 23.3871C4.75541 23.3871 4.03202 22.6637 4.03202 21.7742C4.03202 20.8847 4.75541 20.1613 5.64492 20.1613C6.53444 20.1613 7.25783 20.8847 7.25783 21.7742C7.25783 22.6637 6.53444 23.3871 5.64492 23.3871ZM15.3223 11.2903C14.4328 11.2903 13.7094 10.5669 13.7094 9.67742C13.7094 8.7879 14.4328 8.06452 15.3223 8.06452C16.2119 8.06452 16.9352 8.7879 16.9352 9.67742C16.9352 10.5669 16.2119 11.2903 15.3223 11.2903ZM24.9998 16.129C24.1102 16.129 23.3869 15.4056 23.3869 14.5161C23.3869 13.6266 24.1102 12.9032 24.9998 12.9032C25.8893 12.9032 26.6127 13.6266 26.6127 14.5161C26.6127 15.4056 25.8893 16.129 24.9998 16.129ZM44.3546 4.03226C45.2441 4.03226 45.9675 4.75565 45.9675 5.64516C45.9675 6.53468 45.2441 7.25806 44.3546 7.25806C43.4651 7.25806 42.7417 6.53468 42.7417 5.64516C42.7417 4.75565 43.4651 4.03226 44.3546 4.03226ZM34.6772 1.6129C35.5667 1.6129 36.2901 2.33629 36.2901 3.22581C36.2901 4.11532 35.5667 4.83871 34.6772 4.83871C33.7877 4.83871 33.0643 4.11532 33.0643 3.22581C33.0643 2.33629 33.7877 1.6129 34.6772 1.6129Z" fill="#16A34A"></path><path d="M18.5479 39.5161C22.9947 39.5161 26.6124 35.8984 26.6124 31.4516C26.6124 27.0048 22.9947 23.3871 18.5479 23.3871C14.1011 23.3871 10.4834 27.0048 10.4834 31.4516C10.4834 35.8984 14.1011 39.5161 18.5479 39.5161ZM18.5479 37.9032C16.1665 37.9032 14.0866 36.6024 12.9689 34.6774H24.1261C23.0084 36.6024 20.9302 37.9032 18.5479 37.9032ZM24.9995 31.4516C24.9995 32.0097 24.9213 32.5476 24.7874 33.0645H23.3866V27.1984C24.3874 28.3355 24.9995 29.8218 24.9995 31.4516ZM21.7737 25.8726V33.0645H15.3221V25.8726C16.2721 25.321 17.3721 25 18.5479 25C19.7237 25 20.8237 25.321 21.7737 25.8726ZM13.7092 27.1984V33.0645H12.3084C12.1745 32.5476 12.0963 32.0097 12.0963 31.4516C12.0963 29.8218 12.7084 28.3355 13.7092 27.1984Z" fill="#16A34A"></path><path d="M3.43306 49.7097C4.58306 49.7097 5.65081 49.1387 6.28952 48.1806L9.93629 42.7105C10.1153 42.7637 10.2984 42.7992 10.4839 42.7992C10.9726 42.7992 11.4621 42.6137 11.8339 42.2411L13.0573 41.0177C14.6839 41.9274 16.5548 42.4516 18.5476 42.4516C23.6516 42.4516 27.9702 39.0444 29.3621 34.3871H49.1927V32.7742H48.3863V14.2258C48.3863 13.7806 48.025 13.4194 47.5798 13.4194H41.1282C40.6831 13.4194 40.3218 13.7806 40.3218 14.2258V32.7742H38.7089V22.2903H37.096V32.7742H32.2573V12.6129H37.096V19.871H38.7089V11.8065C38.7089 11.3613 38.3476 11 37.9024 11H31.4508C31.0056 11 30.6444 11.3613 30.6444 11.8065V32.7742H29.7089C29.7847 32.246 29.8379 31.7105 29.8379 31.1613C29.8379 26.3573 26.8169 22.2565 22.5798 20.6282V17.4516C22.5798 17.0065 22.2185 16.6452 21.7734 16.6452H15.3218C14.8766 16.6452 14.5153 17.0065 14.5153 17.4516V20.6282C11.8065 21.6685 9.60403 23.7202 8.3621 26.3226H2.41935C1.97419 26.3226 1.6129 26.6839 1.6129 27.129V32.7742H0.806452V34.3871H7.73387C7.97177 35.1823 8.29435 35.9403 8.69194 36.6516L7.46371 37.8798C6.95081 38.3927 6.80081 39.125 6.99677 39.775L1.52903 43.4202C0.571774 44.0589 0 45.1266 0 46.2766C0 48.1694 1.54032 49.7097 3.43306 49.7097ZM41.9355 15.0323H46.7742V32.7742H41.9355V15.0323ZM16.129 18.2581H20.9677V20.1387C20.1871 19.9677 19.379 19.871 18.5484 19.871C17.7177 19.871 16.9097 19.9677 16.129 20.1387V18.2581ZM18.5484 21.4839C23.8847 21.4839 28.2258 25.825 28.2258 31.1613C28.2258 36.4976 23.8847 40.8387 18.5484 40.8387C13.2121 40.8387 8.87097 36.4976 8.87097 31.1613C8.87097 25.825 13.2121 21.4839 18.5484 21.4839ZM3.22581 32.7742V27.9355H7.73387C7.42823 28.9589 7.25806 30.0403 7.25806 31.1613C7.25806 31.7105 7.31048 32.246 7.3871 32.7742H3.22581ZM8.60403 39.0202L9.60242 38.0218C10.2048 38.8048 10.9048 39.5048 11.6879 40.1073L10.6935 41.1016C10.5419 41.2532 10.425 41.2532 10.2734 41.1016L8.60323 39.4315C8.52903 39.3573 8.51855 39.271 8.51855 39.2258C8.51855 39.1806 8.53065 39.0944 8.60403 39.0202ZM2.42339 44.7621L7.9621 41.0702L8.64032 41.7484L4.94839 47.2871C4.61048 47.7944 4.04355 48.0976 3.43387 48.0976C2.42984 48.0976 1.61371 47.2815 1.61371 46.2774C1.61371 45.6677 1.91613 45.1016 2.42419 44.7629L2.42339 44.7621Z" fill="#16A34A"></path></svg>