<svg xmlns="http://www.w3.org/2000/svg" width="50" height="50" viewBox="0 0 50 50" fill="none"><path d="M44.1406 8.78906C45.7561 8.78906 47.0703 7.4748 47.0703 5.85938C47.0703 4.24395 45.7561 2.92969 44.1406 2.92969C42.5252 2.92969 41.2109 4.24395 41.2109 5.85938C41.2109 7.4748 42.5252 8.78906 44.1406 8.78906ZM44.1406 4.39453C44.9483 4.39453 45.6055 5.05166 45.6055 5.85938C45.6055 6.66709 44.9483 7.32422 44.1406 7.32422C43.3329 7.32422 42.6758 6.66709 42.6758 5.85938C42.6758 5.05166 43.3329 4.39453 44.1406 4.39453Z" fill="#16A34A"></path><path d="M8.78906 5.85938C8.78906 4.24395 7.4748 2.92969 5.85938 2.92969C4.24395 2.92969 2.92969 4.24395 2.92969 5.85938C2.92969 7.4748 4.24395 8.78906 5.85938 8.78906C7.4748 8.78906 8.78906 7.4748 8.78906 5.85938ZM4.39453 5.85938C4.39453 5.05166 5.05166 4.39453 5.85938 4.39453C6.66709 4.39453 7.32422 5.05166 7.32422 5.85938C7.32422 6.66709 6.66709 7.32422 5.85938 7.32422C5.05166 7.32422 4.39453 6.66709 4.39453 5.85938Z" fill="#16A34A"></path><path d="M5.85938 41.2109C4.24395 41.2109 2.92969 42.5252 2.92969 44.1406C2.92969 45.7561 4.24395 47.0703 5.85938 47.0703C7.4748 47.0703 8.78906 45.7561 8.78906 44.1406C8.78906 42.5252 7.4748 41.2109 5.85938 41.2109ZM5.85938 45.6055C5.05166 45.6055 4.39453 44.9483 4.39453 44.1406C4.39453 43.3329 5.05166 42.6758 5.85938 42.6758C6.66709 42.6758 7.32422 43.3329 7.32422 44.1406C7.32422 44.9483 6.66709 45.6055 5.85938 45.6055Z" fill="#16A34A"></path><path d="M41.2109 44.1406C41.2109 45.7561 42.5252 47.0703 44.1406 47.0703C45.7561 47.0703 47.0703 45.7561 47.0703 44.1406C47.0703 42.5252 45.7561 41.2109 44.1406 41.2109C42.5252 41.2109 41.2109 42.5252 41.2109 44.1406ZM45.6055 44.1406C45.6055 44.9483 44.9483 45.6055 44.1406 45.6055C43.3329 45.6055 42.6758 44.9483 42.6758 44.1406C42.6758 43.3329 43.3329 42.6758 44.1406 42.6758C44.9483 42.6758 45.6055 43.3329 45.6055 44.1406Z" fill="#16A34A"></path><path d="M47.9013 39.6471C47.5913 39.3875 47.1293 39.4282 46.8695 39.7383C46.6098 40.0483 46.6506 40.5103 46.9606 40.77C47.9612 41.6082 48.5352 42.8367 48.5352 44.1406C48.5352 46.5638 46.5638 48.5352 44.1406 48.5352C41.7175 48.5352 39.7461 46.5638 39.7461 44.1406C39.736 41.7316 41.7957 39.6638 44.2657 39.7476C44.662 39.7476 44.988 39.4312 44.9976 39.0328C45.0073 38.6284 44.6874 38.2927 44.283 38.2829C43.0427 38.2395 41.5917 38.7009 40.6053 39.4718L37.6856 36.5521L39.5036 34.7341C39.8956 34.342 39.8956 33.7039 39.5035 33.3117L37.8009 31.6092C38.171 30.8933 38.4811 30.1454 38.7256 29.3782H41.1328C41.6875 29.3782 42.1387 28.927 42.1387 28.3724V21.6276C42.1387 21.0729 41.6875 20.6218 41.1328 20.6218H38.7257C38.4812 19.8546 38.1712 19.1068 37.801 18.3908L39.5037 16.6882C39.8957 16.2961 39.8957 15.658 39.5036 15.2658L37.6368 13.399L40.5507 10.4852C41.5432 11.2572 42.7887 11.7188 44.1406 11.7188C47.3715 11.7188 50 9.09023 50 5.85938C50 2.62852 47.3715 0 44.1406 0C40.9098 0 38.2812 2.62852 38.2812 5.85938C38.2812 7.21133 38.7428 8.45684 39.5148 9.44932L36.601 12.3632L34.7341 10.4963C34.3421 10.1044 33.704 10.1044 33.3117 10.4964L31.6092 12.199C30.8934 11.8288 30.1455 11.5188 29.3782 11.2743V8.86719C29.3782 8.3126 28.927 7.86133 28.3724 7.86133H21.6276C21.0729 7.86133 20.6218 8.3126 20.6218 8.86719V11.2743C19.8546 11.5188 19.1066 11.8289 18.3908 12.199L16.6881 10.4963C16.2959 10.1044 15.658 10.1044 15.2657 10.4964L13.4479 12.3143L10.5282 9.39463C11.2747 8.41133 11.7188 7.18643 11.7188 5.85938C11.7188 2.62852 9.09023 0 5.85938 0C2.62852 0 0 2.62852 0 5.85938C0 7.4998 0.694531 9.07598 1.90557 10.1838C2.204 10.4567 2.66729 10.436 2.94043 10.1377C3.21348 9.83926 3.19277 9.37598 2.89434 9.10293C1.98584 8.27197 1.46484 7.08975 1.46484 5.85938C1.46484 3.43623 3.43623 1.46484 5.85938 1.46484C8.28252 1.46484 10.2539 3.43623 10.2539 5.85938C10.2539 8.28252 8.28252 10.2539 5.85938 10.2539C5.76152 10.2539 5.6627 10.2507 5.56563 10.2442C5.16455 10.2178 4.81328 10.5232 4.78672 10.927C4.76016 11.3306 5.06572 11.6794 5.46943 11.706C5.59834 11.7145 5.72959 11.7188 5.85938 11.7188C7.23623 11.7188 8.50273 11.2401 9.504 10.4422L12.412 13.3502L10.4963 15.2659C10.1043 15.658 10.1043 16.2961 10.4964 16.6883L12.199 18.3908C11.8289 19.1067 11.5188 19.8546 11.2743 20.6218H8.86719C8.3125 20.6218 7.86133 21.073 7.86133 21.6276V28.3724C7.86133 28.927 8.3125 29.3782 8.86719 29.3782H11.2743C11.5188 30.1454 11.8288 30.8932 12.199 31.6092L10.4963 33.3118C10.1043 33.7039 10.1043 34.342 10.4964 34.7342L12.3632 36.601L9.44932 39.5148C8.45684 38.7428 7.21133 38.2812 5.85938 38.2812C2.62852 38.2812 0 40.9098 0 44.1406C0 47.3715 2.62852 50 5.85938 50C9.09023 50 11.7188 47.3715 11.7188 44.1406C11.7188 42.7887 11.2572 41.5432 10.4852 40.5507L13.399 37.6368L15.2659 39.5037C15.6579 39.8956 16.296 39.8956 16.6883 39.5036L18.3908 37.801C19.1066 38.1712 19.8545 38.4812 20.6218 38.7257V41.1328C20.6218 41.6874 21.0729 42.1387 21.6276 42.1387H28.3724C28.927 42.1387 29.3782 41.6874 29.3782 41.1328V38.7257C30.1454 38.4812 30.8934 38.1711 31.6092 37.801L33.3119 39.5037C33.7041 39.8956 34.342 39.8956 34.7343 39.5036L36.6498 37.5881L39.5578 40.4961C38.7599 41.4973 38.2812 42.7638 38.2812 44.1406C38.2812 47.3715 40.9098 50 44.1406 50C47.3715 50 50 47.3715 50 44.1406C50 42.4022 49.2351 40.7644 47.9013 39.6471ZM44.1406 1.46484C46.5638 1.46484 48.5352 3.43623 48.5352 5.85938C48.5352 8.28252 46.5638 10.2539 44.1406 10.2539C41.7175 10.2539 39.7461 8.28252 39.7461 5.85938C39.7461 3.43623 41.7175 1.46484 44.1406 1.46484ZM5.85938 48.5352C3.43623 48.5352 1.46484 46.5638 1.46484 44.1406C1.46484 41.7175 3.43623 39.7461 5.85938 39.7461C8.28252 39.7461 10.2539 41.7175 10.2539 44.1406C10.2539 46.5638 8.28252 48.5352 5.85938 48.5352ZM34.023 38.1432L32.4042 36.5242C32.0905 36.2105 31.5988 36.1409 31.2088 36.3547C30.394 36.8012 29.5293 37.1597 28.6384 37.4201C28.2116 37.545 27.9135 37.9419 27.9135 38.3854V40.6738H22.0867V38.3854C22.0867 37.942 21.7886 37.5451 21.3616 37.4201C20.4709 37.1597 19.6061 36.8012 18.7914 36.3548C18.4015 36.141 17.9098 36.2106 17.5958 36.5244L15.9771 38.1432L11.857 34.023L13.4761 32.404C13.7896 32.0902 13.8592 31.5986 13.6454 31.2087C13.1989 30.3939 12.8404 29.5292 12.58 28.6384C12.4552 28.2115 12.0582 27.9134 11.6147 27.9134H9.32617V22.0865H11.6146C12.0581 22.0865 12.455 21.7884 12.5799 21.3614C12.8403 20.4707 13.1988 19.606 13.6453 18.7913C13.859 18.4014 13.7895 17.9098 13.4757 17.5957L11.8569 15.977L15.9771 11.8567L17.5959 13.4757C17.9097 13.7894 18.4012 13.859 18.7913 13.6452C19.6061 13.1987 20.4708 12.8402 21.3617 12.5798C21.7885 12.4549 22.0866 12.058 22.0866 11.6146V9.32617H27.9134V11.6146C27.9134 12.058 28.2115 12.4549 28.6385 12.5799C29.5292 12.8403 30.394 13.1988 31.2087 13.6452C31.5987 13.8591 32.0903 13.7895 32.4043 13.4756L34.0229 11.8568L38.1431 15.977L36.524 17.596C36.2105 17.9098 36.1409 18.4014 36.3547 18.7913C36.8012 19.6061 37.1597 20.4708 37.4201 21.3616C37.5449 21.7885 37.9419 22.0866 38.3854 22.0866H40.6738V27.9135H38.3854C37.9419 27.9135 37.545 28.2116 37.4201 28.6386C37.1597 29.5293 36.8012 30.394 36.3547 31.2087C36.141 31.5986 36.2105 32.0902 36.5243 32.4043L38.1431 34.023L34.023 38.1432Z" fill="#16A34A"></path><path d="M28.0241 17.926C29.9624 18.7469 31.4888 20.3502 32.2116 22.3248C32.3202 22.6216 32.6008 22.8056 32.8995 22.8056C32.983 22.8056 33.0682 22.7912 33.1512 22.7608C33.5311 22.6217 33.7263 22.201 33.5872 21.8211C32.7253 19.467 30.9059 17.5556 28.5954 16.5771C28.2233 16.4194 27.7931 16.5934 27.6354 16.9659C27.4776 17.3384 27.6516 17.7682 28.0241 17.926Z" fill="#16A34A"></path><path d="M21.619 31.745C19.8764 30.8625 18.5519 29.3675 17.8892 27.5352C17.7516 27.1547 17.3317 26.9579 16.9513 27.0956C16.5708 27.2332 16.3741 27.653 16.5117 28.0334C17.3018 30.218 18.8805 32.0002 20.9571 33.0518C21.0632 33.1055 21.1761 33.131 21.2874 33.131C21.5547 33.131 21.8124 32.9841 21.9414 32.7293C22.1243 32.3684 21.9798 31.9277 21.619 31.745Z" fill="#16A34A"></path><path d="M29.0596 24.9442C29.0596 22.7365 27.2634 20.9403 25.0557 20.9403C22.848 20.9403 21.0518 22.7365 21.0518 24.9442C21.0518 27.1519 22.848 28.9481 25.0557 28.9481C27.2634 28.9481 29.0596 27.1519 29.0596 24.9442ZM22.5166 24.9442C22.5166 23.5442 23.6556 22.4052 25.0557 22.4052C26.4558 22.4052 27.5947 23.5442 27.5947 24.9442C27.5947 26.3442 26.4558 27.4833 25.0557 27.4833C23.6556 27.4833 22.5166 26.3442 22.5166 24.9442Z" fill="#16A34A"></path><path d="M16.7056 25.6769C16.8814 25.6769 17.0533 25.6135 17.1879 25.4956L19.8852 23.1349C20.1895 22.8685 20.2204 22.4058 19.9539 22.1014C19.6876 21.797 19.2248 21.7662 18.9204 22.0326L17.6601 23.1357C18.4759 19.8454 21.4588 17.3636 24.9742 17.3268C25.3788 17.3226 25.7032 16.9912 25.699 16.5867C25.6948 16.1823 25.3654 15.8555 24.959 15.862C22.5736 15.8869 20.3296 16.829 18.6402 18.5149C17.5104 19.6422 16.7147 21.019 16.3013 22.5201L15.7428 21.4149C15.5603 21.0538 15.1196 20.9089 14.7588 21.0914C14.3978 21.2739 14.2528 21.7144 14.4353 22.0754L16.0519 25.2746C16.154 25.4766 16.3436 25.6201 16.5659 25.6633C16.6123 25.6724 16.6591 25.6769 16.7056 25.6769Z" fill="#16A34A"></path><path d="M34.06 24.6209C33.9579 24.4189 33.7682 24.2754 33.546 24.2322C33.3241 24.189 33.0942 24.251 32.9239 24.4001L30.2266 26.7608C29.9222 27.0272 29.8914 27.4899 30.1579 27.7943C30.4243 28.0987 30.8869 28.1295 31.1914 27.8631L32.4505 26.7611C31.6288 30.0818 28.6122 32.5622 25.0553 32.5622C24.9125 32.5622 24.7682 32.5582 24.6263 32.5504C24.2198 32.5278 23.8769 32.8373 23.8547 33.2413C23.8323 33.6452 24.1416 33.9907 24.5455 34.013C24.7141 34.0222 24.8856 34.027 25.0553 34.027C27.4619 34.027 29.7295 33.0953 31.4408 31.4036C32.586 30.2714 33.3918 28.8856 33.8091 27.3723L34.3691 28.4807C34.498 28.7359 34.7558 28.883 35.0234 28.883C35.1345 28.883 35.2472 28.8576 35.3532 28.8041C35.7141 28.6217 35.8591 28.1811 35.6766 27.8201L34.06 24.6209Z" fill="#16A34A"></path></svg>