<svg xmlns="http://www.w3.org/2000/svg" width="23" height="25" viewBox="0 0 23 25" fill="none"><path d="M19.6094 12C22.1406 15.9375 22.75 19.5938 20.875 21.4219C18.0156 24.2812 12.3438 20.7188 11.5 20.1562C10.6094 20.7188 4.9375 24.2812 2.07812 21.4219C0.203125 19.5938 0.8125 15.9375 3.34375 12C0.8125 8.10938 0.203125 4.45312 2.07812 2.625C3.90625 0.75 7.5625 1.35938 11.5 3.89062C15.3906 1.35938 19.0469 0.75 20.875 2.625C22.75 4.45312 22.1406 8.10938 19.6094 12ZM4.75 10.0312C6.15625 8.25 7.70312 6.70312 9.48438 5.29688C7.51562 4.17188 4.70312 3.14062 3.625 4.17188C2.875 4.96875 3.15625 7.21875 4.75 10.0312ZM9.48438 18.7031C7.70312 17.3438 6.15625 15.75 4.75 14.0156C3.15625 16.8281 2.875 19.0312 3.625 19.8281C4.42188 20.625 6.67188 20.3438 9.48438 18.7031ZM16.8438 12C15.3438 9.9375 13.5625 8.15625 11.4531 6.60938C9.39062 8.15625 7.60938 9.9375 6.10938 12C7.70312 14.1562 9.34375 15.8438 11.4531 17.3906C13.6094 15.8438 15.2969 14.1562 16.8438 12ZM13 12C13 12.8438 12.2969 13.5 11.4531 13.5C10.6562 13.5 9.95312 12.8438 9.95312 12C9.95312 11.2031 10.6562 10.5 11.4531 10.5H11.5C12.2969 10.5 13 11.2031 13 12ZM18.2031 14.0156C16.7969 15.75 15.25 17.3438 13.4688 18.7031C16.2812 20.3438 18.5312 20.625 19.3281 19.8281C20.0781 19.0312 19.7969 16.8281 18.2031 14.0156ZM13.4688 5.29688C15.25 6.70312 16.7969 8.25 18.2031 10.0312C19.7969 7.21875 20.0781 4.96875 19.3281 4.17188C18.25 3.14062 15.4375 4.17188 13.4688 5.29688Z" fill="#16A34A"></path></svg>