<svg xmlns="http://www.w3.org/2000/svg" width="31" height="31" viewBox="0 0 31 31" fill="none"><path d="M28.0117 17.625C28.5391 17.625 29.0078 18.1523 28.9492 18.6797C27.9531 25.5352 22.1523 30.75 15.0625 30.75C14.8867 30.75 14.7109 30.75 14.5352 30.75C7.26953 30.5156 1.23438 24.4805 1 17.2148C0.765625 9.89062 6.09766 3.79688 13.0703 2.80078C13.0703 2.80078 13.1289 2.80078 13.1875 2.80078C13.6562 2.80078 14.125 3.21094 14.125 3.73828V17.625H28.0117ZM15.0625 27.9375C19.8672 27.9375 24.0859 24.8906 25.6094 20.4375H11.3125V6.14062C6.74219 7.72266 3.63672 12.1172 3.8125 17.0977C3.98828 22.8984 8.85156 27.7617 14.6523 27.9375C14.7695 27.9375 14.8867 27.9375 15.0625 27.9375ZM17.875 0.808594C24.9062 1.27734 30.4727 6.84375 30.9414 13.875C31 14.4023 30.5312 14.8125 30.0039 14.8125H16.9375V1.74609C16.9375 1.21875 17.3477 0.75 17.8164 0.75C17.875 0.75 17.875 0.808594 17.875 0.808594Z" fill="#16A34A"></path></svg>