<svg xmlns="http://www.w3.org/2000/svg" width="40" height="40" viewBox="0 0 40 40" fill="none"><path d="M17.6562 35.2344C19.1684 35.2344 20.6616 35.0428 22.1092 34.6647C23.6298 37.8198 26.8405 40 30.5469 40C35.7302 40 40 35.729 40 30.5469C40 26.8405 37.8198 23.6298 34.6647 22.1092C35.0428 20.6616 35.2344 19.1685 35.2344 17.6562C35.2344 7.92055 27.3488 0 17.6562 0C7.93906 0 0 7.94 0 17.6562C0 27.3488 7.92055 35.2344 17.6562 35.2344ZM37.6562 30.5469C37.6562 34.4005 34.4005 37.6562 30.5469 37.6562C26.6698 37.6562 23.5156 34.467 23.5156 30.5469C23.5156 26.6698 26.6698 23.5156 30.5469 23.5156C34.467 23.5156 37.6562 26.6698 37.6562 30.5469ZM17.6562 2.34375C26.0565 2.34375 32.8906 9.21289 32.8906 17.6562C32.8906 18.9135 32.7379 20.1548 32.4368 21.3602C31.8259 21.2368 31.1939 21.1719 30.5469 21.1719C25.3775 21.1719 21.1719 25.3775 21.1719 30.5469C21.1719 31.1939 21.2368 31.8259 21.3602 32.4368C20.1548 32.7378 18.9135 32.8906 17.6562 32.8906C9.21289 32.8906 2.34375 26.0565 2.34375 17.6562C2.34375 9.21289 9.21289 2.34375 17.6562 2.34375Z" fill="#16A34A"></path><path d="M16.4844 4.76562H18.8281V7.10938H16.4844V4.76562Z" fill="#16A34A"></path><path d="M16.4844 28.2031H18.8281V30.5469H16.4844V28.2031Z" fill="#16A34A"></path><path d="M7.71094 9.37012L9.36797 7.71309L11.025 9.37012L9.36797 11.0271L7.71094 9.37012Z" fill="#16A34A"></path><path d="M7.70923 25.9404L9.36626 24.2834L11.0233 25.9404L9.36626 27.5975L7.70923 25.9404Z" fill="#16A34A"></path><path d="M24.2817 9.37109L25.9388 7.71406L27.5958 9.37109L25.9388 11.0281L24.2817 9.37109Z" fill="#16A34A"></path><path d="M4.76562 16.4844H7.10938V18.8281H4.76562V16.4844Z" fill="#16A34A"></path><path d="M28.2031 16.4844H30.5469V18.8281H28.2031V16.4844Z" fill="#16A34A"></path><path d="M23.5156 16.4844H18.8281V9.45312H16.4844V18.8281H23.5156V16.4844Z" fill="#16A34A"></path><path d="M27.8598 29.7183L26.2026 31.3755L29.375 34.5479L34.8911 29.0318L33.2339 27.3745L29.375 31.2334L27.8598 29.7183Z" fill="#16A34A"></path></svg>