<svg xmlns="http://www.w3.org/2000/svg" width="50" height="50" viewBox="0 0 50 50" fill="none"><path d="M16.666 15.0012H26.6658V16.6678H16.666V15.0012Z" fill="#16A34A"></path><path d="M28.333 15.0012H29.9996V16.6678H28.333V15.0012Z" fill="#16A34A"></path><path d="M31.666 15.0012H33.3326V16.6678H31.666V15.0012Z" fill="#16A34A"></path><path d="M16.666 21.6677H26.6658V23.3344H16.666V21.6677Z" fill="#16A34A"></path><path d="M28.333 21.6677H29.9996V23.3344H28.333V21.6677Z" fill="#16A34A"></path><path d="M31.666 21.6677H33.3326V23.3344H31.666V21.6677Z" fill="#16A34A"></path><path d="M16.666 28.3342H26.6658V30.0009H16.666V28.3342Z" fill="#16A34A"></path><path d="M28.333 28.3342H29.9996V30.0009H28.333V28.3342Z" fill="#16A34A"></path><path d="M31.666 28.3342H33.3326V30.0009H31.666V28.3342Z" fill="#16A34A"></path><path d="M46.6656 34.1674C45.9268 34.1683 45.2092 34.4142 44.6251 34.8666C44.0411 35.319 43.6235 35.9523 43.4378 36.6673H34.1659V33.3341C34.8286 33.3333 35.4641 33.0696 35.9327 32.601C36.4014 32.1323 36.665 31.4969 36.6658 30.8341V28.3342H41.6657C42.8169 28.3333 43.9555 28.094 45.0097 27.6311C46.0638 27.1683 47.0106 26.4921 47.7903 25.6451C48.5701 24.7981 49.1659 23.7988 49.5401 22.71C49.9144 21.6213 50.059 20.4668 49.9648 19.3194C49.8707 18.172 49.5398 17.0566 48.993 16.0435C48.4463 15.0303 47.6955 14.1415 46.7881 13.4329C45.8807 12.7244 44.8363 12.2116 43.7208 11.9268C42.6053 11.6421 41.443 11.5915 40.307 11.7784C39.4918 8.70326 37.7693 5.94491 35.3639 3.86277C32.9585 1.78063 29.9818 0.471231 26.8216 0.105186C23.6613 -0.260859 20.4641 0.333418 17.6464 1.81059C14.8288 3.28776 12.5214 5.57933 11.0248 8.38673C10.6842 8.35206 10.3421 8.33468 9.99976 8.33465C7.34766 8.33465 4.80418 9.38819 2.92886 11.2635C1.05354 13.1388 0 15.6823 0 18.3344C0 20.9865 1.05354 23.53 2.92886 25.4053C4.80418 27.2806 7.34766 28.3342 9.99976 28.3342H13.333V30.8341C13.3338 31.4969 13.5974 32.1323 14.0661 32.601C14.5347 33.0696 15.1702 33.3333 15.833 33.3341V36.6673H6.56099C6.35817 35.8818 5.87582 35.1972 5.20435 34.7419C4.53288 34.2865 3.7184 34.0917 2.91358 34.1939C2.10875 34.2962 1.36884 34.6884 0.832524 35.2971C0.296213 35.9059 0.000326427 36.6893 0.000326427 37.5006C0.000326427 38.3119 0.296213 39.0954 0.832524 39.7041C1.36884 40.3128 2.10875 40.7051 2.91358 40.8073C3.7184 40.9095 4.53288 40.7147 5.20435 40.2594C5.87582 39.8041 6.35817 39.1195 6.56099 38.3339H16.6663C16.8873 38.3339 17.0992 38.2461 17.2555 38.0899C17.4118 37.9336 17.4996 37.7216 17.4996 37.5006V33.3341H19.1662V40.0006H12.4997C12.2787 40.0006 12.0667 40.0884 11.9105 40.2446C11.7542 40.4009 11.6664 40.6129 11.6664 40.8339V43.4393C10.8809 43.6422 10.1963 44.1245 9.74093 44.796C9.2856 45.4674 9.09079 46.2819 9.19302 47.0868C9.29524 47.8916 9.68749 48.6315 10.2962 49.1678C10.905 49.7041 11.6884 50 12.4997 50C13.311 50 14.0944 49.7041 14.7032 49.1678C15.3119 48.6315 15.7042 47.8916 15.8064 47.0868C15.9086 46.2819 15.7138 45.4674 15.2585 44.796C14.8031 44.1245 14.1185 43.6422 13.333 43.4393V41.6672H19.9995C20.2205 41.6672 20.4325 41.5794 20.5888 41.4231C20.745 41.2668 20.8328 41.0549 20.8328 40.8339V33.3341H24.1661V41.7727C23.3806 41.9755 22.696 42.4579 22.2406 43.1293C21.7853 43.8008 21.5905 44.6153 21.6927 45.4201C21.7949 46.2249 22.1872 46.9649 22.7959 47.5012C23.4047 48.0375 24.1881 48.3334 24.9994 48.3334C25.8107 48.3334 26.5941 48.0375 27.2029 47.5012C27.8116 46.9649 28.2039 46.2249 28.3061 45.4201C28.4083 44.6153 28.2135 43.8008 27.7582 43.1293C27.3028 42.4579 26.6183 41.9755 25.8327 41.7727V33.3341H29.166V40.8339C29.166 41.0549 29.2538 41.2668 29.41 41.4231C29.5663 41.5794 29.7783 41.6672 29.9993 41.6672H36.6658V43.4393C35.8803 43.6422 35.1957 44.1245 34.7403 44.796C34.285 45.4674 34.0902 46.2819 34.1924 47.0868C34.2946 47.8916 34.6869 48.6315 35.2956 49.1678C35.9044 49.7041 36.6878 50 37.4991 50C38.3104 50 39.0938 49.7041 39.7026 49.1678C40.3113 48.6315 40.7036 47.8916 40.8058 47.0868C40.908 46.2819 40.7132 45.4674 40.2579 44.796C39.8025 44.1245 39.118 43.6422 38.3324 43.4393V40.8339C38.3324 40.6129 38.2446 40.4009 38.0884 40.2446C37.9321 40.0884 37.7201 40.0006 37.4991 40.0006H30.8326V33.3341H32.4992V37.5006C32.4992 37.7216 32.587 37.9336 32.7433 38.0899C32.8996 38.2461 33.1115 38.3339 33.3325 38.3339H43.4378C43.5937 38.9376 43.9157 39.4854 44.3673 39.9152C44.8189 40.3449 45.3819 40.6395 45.9925 40.7653C46.6031 40.8911 47.2368 40.8432 47.8215 40.6269C48.4062 40.4107 48.9185 40.0348 49.3003 39.5419C49.6821 39.0491 49.918 38.4591 49.9813 37.8389C50.0445 37.2187 49.9326 36.5932 49.6582 36.0334C49.3838 35.4736 48.9579 35.002 48.4289 34.6722C47.8999 34.3423 47.289 34.1674 46.6656 34.1674ZM3.33325 39.1673C3.00363 39.1673 2.6814 39.0695 2.40733 38.8864C2.13325 38.7032 1.91963 38.443 1.79349 38.1384C1.66735 37.8339 1.63434 37.4988 1.69865 37.1755C1.76296 36.8522 1.92169 36.5552 2.15477 36.3221C2.38785 36.0891 2.68482 35.9303 3.00811 35.866C3.33141 35.8017 3.66651 35.8347 3.97105 35.9609C4.27558 36.087 4.53587 36.3006 4.719 36.5747C4.90214 36.8488 4.99988 37.171 4.99988 37.5006C4.99936 37.9425 4.8236 38.3661 4.51116 38.6785C4.19872 38.991 3.77511 39.1667 3.33325 39.1673ZM14.1663 46.6671C14.1663 46.9967 14.0686 47.3189 13.8855 47.593C13.7023 47.8671 13.442 48.0807 13.1375 48.2068C12.833 48.333 12.4979 48.366 12.1746 48.3017C11.8513 48.2374 11.5543 48.0786 11.3212 47.8456C11.0881 47.6125 10.9294 47.3155 10.8651 46.9922C10.8008 46.6689 10.8338 46.3338 10.9599 46.0293C11.0861 45.7247 11.2997 45.4645 11.5738 45.2813C11.8479 45.0982 12.1701 45.0004 12.4997 45.0004C12.9416 45.001 13.3652 45.1767 13.6776 45.4892C13.99 45.8016 14.1658 46.2252 14.1663 46.6671ZM26.666 45.0004C26.666 45.3301 26.5683 45.6523 26.3852 45.9264C26.202 46.2005 25.9417 46.4141 25.6372 46.5402C25.3327 46.6664 24.9976 46.6994 24.6743 46.6351C24.351 46.5707 24.054 46.412 23.8209 46.1789C23.5878 45.9459 23.4291 45.6489 23.3648 45.3256C23.3005 45.0023 23.3335 44.6672 23.4596 44.3627C23.5858 44.0581 23.7994 43.7978 24.0735 43.6147C24.3476 43.4316 24.6698 43.3338 24.9994 43.3338C25.4413 43.3343 25.8649 43.5101 26.1773 43.8225C26.4898 44.135 26.6655 44.5586 26.666 45.0004ZM39.1657 46.6671C39.1657 46.9967 39.068 47.3189 38.8849 47.593C38.7017 47.8671 38.4414 48.0807 38.1369 48.2068C37.8324 48.333 37.4973 48.366 37.174 48.3017C36.8507 48.2374 36.5537 48.0786 36.3206 47.8456C36.0875 47.6125 35.9288 47.3155 35.8645 46.9922C35.8002 46.6689 35.8332 46.3338 35.9593 46.0293C36.0855 45.7247 36.2991 45.4645 36.5732 45.2813C36.8473 45.0982 37.1695 45.0004 37.4991 45.0004C37.941 45.001 38.3646 45.1767 38.677 45.4892C38.9895 45.8016 39.1652 46.2252 39.1657 46.6671ZM14.9996 17.5011V14.1678C14.9999 13.9469 15.0878 13.7351 15.244 13.5789C15.4002 13.4227 15.612 13.3348 15.833 13.3345H34.1659C34.3868 13.3348 34.5986 13.4227 34.7548 13.5789C34.911 13.7351 34.9989 13.9469 34.9992 14.1678V17.5011C34.9989 17.722 34.911 17.9338 34.7548 18.0901C34.5986 18.2463 34.3868 18.3342 34.1659 18.3344H15.833C15.612 18.3342 15.4002 18.2463 15.244 18.0901C15.0878 17.9338 14.9999 17.722 14.9996 17.5011ZM14.9996 24.1676V20.8344C14.9999 20.6134 15.0878 20.4016 15.244 20.2454C15.4002 20.0892 15.612 20.0013 15.833 20.001H34.1659C34.3868 20.0013 34.5986 20.0892 34.7548 20.2454C34.911 20.4016 34.9989 20.6134 34.9992 20.8344V24.1676C34.9989 24.3885 34.911 24.6004 34.7548 24.7566C34.5986 24.9128 34.3868 25.0007 34.1659 25.0009H15.833C15.612 25.0007 15.4002 24.9128 15.244 24.7566C15.0878 24.6004 14.9999 24.3885 14.9996 24.1676ZM1.66663 18.3344C1.66914 16.1251 2.54789 14.007 4.11012 12.4448C5.67234 10.8825 7.79045 10.0038 9.99976 10.0013C10.4569 10.0012 10.9132 10.0382 11.3643 10.1121C11.5416 10.1415 11.7236 10.1127 11.8832 10.0301C12.0428 9.94749 12.1713 9.81548 12.2497 9.65378C13.5401 6.99355 15.6303 4.80359 18.2275 3.39067C20.8248 1.97774 23.7989 1.41264 26.7334 1.77451C29.6678 2.13638 32.4156 3.4071 34.5917 5.40867C36.7679 7.41024 38.2634 10.0424 38.8689 12.9364C38.892 13.048 38.9379 13.1536 39.0035 13.2467C39.0691 13.3399 39.1531 13.4186 39.2503 13.478C39.3475 13.5374 39.4559 13.5762 39.5687 13.5921C39.6815 13.608 39.7964 13.6005 39.9062 13.5703C40.8229 13.3198 41.7824 13.2682 42.7206 13.4189C43.6589 13.5696 44.554 13.9192 45.3461 14.4441C46.1381 14.969 46.8088 15.6572 47.3132 16.4625C47.8176 17.2679 48.144 18.1717 48.2705 19.1135C48.397 20.0552 48.3207 21.0132 48.0468 21.923C47.7728 22.8329 47.3075 23.6737 46.682 24.3891C46.0566 25.1044 45.2854 25.6778 44.4202 26.0708C43.5551 26.4637 42.6159 26.6672 41.6657 26.6675H36.5225C36.4133 26.3601 36.245 26.0771 36.0272 25.8342C36.4387 25.3767 36.6662 24.783 36.6658 24.1676V20.8344C36.6662 20.219 36.4387 19.6252 36.0272 19.1677C36.4387 18.7102 36.6662 18.1165 36.6658 17.5011V14.1678C36.665 13.5051 36.4014 12.8696 35.9327 12.401C35.4641 11.9323 34.8286 11.6687 34.1659 11.6679H15.833C15.1702 11.6687 14.5347 11.9323 14.0661 12.401C13.5974 12.8696 13.3338 13.5051 13.333 14.1678V17.5011C13.3326 18.1165 13.5601 18.7102 13.9716 19.1677C13.5601 19.6252 13.3326 20.219 13.333 20.8344V24.1676C13.3326 24.783 13.5601 25.3767 13.9716 25.8342C13.7538 26.0771 13.5855 26.3601 13.4763 26.6675H9.99976C7.79045 26.665 5.67234 25.7863 4.11012 24.2241C2.54789 22.6618 1.66914 20.5437 1.66663 18.3344ZM14.9996 30.8341V27.5009C14.9999 27.2799 15.0878 27.0681 15.244 26.9119C15.4002 26.7557 15.612 26.6678 15.833 26.6675H34.1659C34.3868 26.6678 34.5986 26.7557 34.7548 26.9119C34.911 27.0681 34.9989 27.2799 34.9992 27.5009V30.8341C34.9989 31.055 34.911 31.2669 34.7548 31.4231C34.5986 31.5793 34.3868 31.6672 34.1659 31.6674H15.833C15.612 31.6672 15.4002 31.5793 15.244 31.4231C15.0878 31.2669 14.9999 31.055 14.9996 30.8341ZM46.6656 39.1673C46.3359 39.1673 46.0137 39.0695 45.7396 38.8864C45.4656 38.7032 45.2519 38.443 45.1258 38.1384C44.9997 37.8339 44.9666 37.4988 45.031 37.1755C45.0953 36.8522 45.254 36.5552 45.4871 36.3221C45.7202 36.0891 46.0171 35.9303 46.3404 35.866C46.6637 35.8017 46.9988 35.8347 47.3033 35.9609C47.6079 36.087 47.8682 36.3006 48.0513 36.5747C48.2344 36.8488 48.3322 37.171 48.3322 37.5006C48.3317 37.9425 48.1559 38.3661 47.8435 38.6785C47.531 38.991 47.1074 39.1667 46.6656 39.1673Z" fill="#16A34A"></path></svg>