<svg xmlns="http://www.w3.org/2000/svg" width="26" height="24" viewBox="0 0 26 24" fill="none"><path d="M24.2031 10.5C24.25 10.9219 23.875 11.25 23.4531 11.25H13V0.796875C13 0.375 13.3281 0 13.7031 0C13.75 0 13.75 0.046875 13.75 0.046875C19.375 0.421875 23.8281 4.875 24.2031 10.5ZM15.25 9H21.7188C20.9219 5.85938 18.3906 3.32812 15.25 2.53125V9ZM10.75 13.5L18.0156 20.8125C18.3438 21.1406 18.3438 21.7031 17.9688 21.9375C16.1875 23.25 13.9844 24 11.6406 24C11.5938 24 11.5469 24 11.5 24C5.54688 24 0.4375 19.125 0.25 13.1719C0.015625 7.3125 4.28125 2.4375 9.90625 1.64062C9.90625 1.64062 9.95312 1.64062 10 1.64062C10.375 1.64062 10.75 1.96875 10.75 2.39062V13.5ZM11.5938 21.75C12.8125 21.75 13.9844 21.5156 15.0625 21.0469L9.15625 15.0938L8.5 14.4375V4.3125C4.84375 5.57812 2.35938 9.09375 2.5 13.0781C2.64062 17.8125 6.76562 21.75 11.5 21.75H11.5938ZM24.9531 13.5C25.4219 13.5 25.7969 13.9219 25.7031 14.3438C25.375 16.9688 24.1094 19.2656 22.2812 20.9531C22.1406 21.0938 21.9531 21.1406 21.8125 21.1406C21.5781 21.1406 21.3906 21.0938 21.25 20.9531L13.8438 13.5H24.9531Z" fill="#16A34A"></path></svg>