<svg xmlns="http://www.w3.org/2000/svg" width="40" height="40" viewBox="0 0 40 40" fill="none"><path d="M39.355 19.3544H29.1364C28.7801 19.3544 28.4912 19.6433 28.4912 19.9996C28.4912 20.7588 28.3905 21.4948 28.2028 22.1955C27.453 21.0813 26.4821 20.1264 25.3418 19.3925C24.5766 18.9001 23.7524 18.5204 22.8919 18.2576C24.3501 17.3084 25.317 15.6652 25.317 13.7993C25.317 10.8674 22.9319 8.48231 20.0002 8.48231C17.0685 8.48231 14.6833 10.8674 14.6833 13.7993C14.6833 15.6651 15.6502 17.3084 17.1084 18.2576C16.2478 18.5204 15.4235 18.9001 14.6584 19.3925C13.518 20.1265 12.5471 21.0813 11.7974 22.1955C11.6096 21.4948 11.5089 20.7588 11.5089 19.9997C11.5089 19.6434 11.22 19.3545 10.8638 19.3545H0.645164C0.288872 19.3545 0 19.6434 0 19.9997V22.6191C0 22.886 0.164356 23.1253 0.413389 23.2212L3.30663 24.3349C3.70711 25.8807 4.31969 27.3584 5.13131 28.7367L3.87211 31.5718C3.76372 31.8157 3.81679 32.1011 4.0055 32.2899L7.70995 35.9943C7.89874 36.1831 8.18431 36.2359 8.42802 36.1277L11.2641 34.8681C12.6425 35.6797 14.1197 36.2922 15.6645 36.6924L16.7785 39.5866C16.8743 39.8356 17.1136 40 17.3806 40H22.6193C22.8862 40 23.1255 39.8356 23.2214 39.5866L24.335 36.6933C25.8807 36.2928 27.3584 35.6802 28.7368 34.8685L31.5719 36.1277C31.8158 36.2359 32.1013 36.183 32.29 35.9943L35.9943 32.2898C36.183 32.101 36.2361 31.8156 36.1278 31.5717L34.8682 28.7355C35.6799 27.357 36.2924 25.8798 36.6926 24.3352L39.5866 23.2212C39.8357 23.1254 40 22.886 40 22.6191V19.9998C40.0002 19.6433 39.7113 19.3544 39.355 19.3544ZM15.9736 13.7992C15.9736 11.5789 17.7799 9.77258 20.0002 9.77258C22.2203 9.77258 24.0266 11.5788 24.0266 13.7992C24.0266 16.0189 22.2214 17.8247 20.002 17.8257C20.0014 17.8257 20.0008 17.8257 20.0002 17.8257C19.9996 17.8257 19.999 17.8257 19.9984 17.8257C17.7789 17.8247 15.9736 16.0189 15.9736 13.7992ZM19.9983 19.1161H20.0002H20.0019C23.1922 19.1168 26.15 20.9211 27.6224 23.7382C27.1929 24.6106 26.6179 25.3987 25.9294 26.0713L14.0709 26.0714C13.3822 25.3988 12.8073 24.6106 12.3777 23.7381C13.8501 20.921 16.808 19.1168 19.9983 19.1161ZM24.2275 27.3617C22.9819 28.0796 21.5382 28.4908 20.0001 28.4908C18.4621 28.4908 17.0183 28.0797 15.7728 27.3617L24.2275 27.3617ZM38.7098 22.1759L35.9158 23.2514C35.7172 23.3278 35.5692 23.4972 35.5199 23.7042C35.1291 25.3464 34.4808 26.9102 33.593 28.3522C33.4814 28.5333 33.4663 28.7578 33.5526 28.9522L34.7688 31.6905L31.6909 34.7685L28.9537 33.5527C28.7592 33.4663 28.5346 33.4814 28.3535 33.593C26.912 34.4809 25.3478 35.1294 23.7044 35.5203C23.4974 35.5695 23.328 35.7176 23.2516 35.9161L22.1765 38.7095H17.8236L16.7482 35.9154C16.6718 35.7169 16.5025 35.5688 16.2955 35.5196C14.6531 35.1287 13.0893 34.4804 11.6475 33.5925C11.4663 33.4808 11.2417 33.4658 11.0474 33.5522L8.30915 34.7684L5.23115 31.6905L6.44688 28.9532C6.53325 28.7588 6.51817 28.5343 6.40656 28.353C5.51881 26.9116 4.87042 25.3474 4.47929 23.7039C4.43002 23.497 4.28195 23.3276 4.0834 23.2512L1.29033 22.176V20.6448H10.2396C10.5727 25.739 14.8231 29.7811 20 29.7811C25.1769 29.7811 29.4274 25.739 29.7604 20.6448H38.7098V22.1759ZM16.1933 3.83708L17.6801 5.0321L17.1797 6.87277C17.0906 7.2002 17.2105 7.54053 17.485 7.74004C17.6278 7.84376 17.7939 7.89593 17.9605 7.89593C18.114 7.89593 18.2679 7.85158 18.4041 7.76246L20.0001 6.71777L21.5961 7.76255C21.8801 7.94827 22.2409 7.93948 22.5153 7.74004C22.7897 7.54061 22.9095 7.20028 22.8206 6.87285L22.3201 5.03218L23.8069 3.83724C24.0714 3.62466 24.1745 3.27884 24.0697 2.9561C23.9648 2.63327 23.6781 2.41415 23.3393 2.3977L21.434 2.3048L20.7569 0.521541C20.6366 0.204681 20.3396 0 20.0002 0C19.6607 0 19.3637 0.204681 19.2434 0.521541L18.5663 2.3048L16.6612 2.3977C16.3222 2.41415 16.0355 2.63327 15.9306 2.9561C15.8257 3.27876 15.9289 3.62457 16.1933 3.83708ZM18.9432 3.5782C19.2648 3.56272 19.5465 3.35812 19.6608 3.05707L20.0001 2.16342L20.3394 3.05698C20.4536 3.35804 20.7353 3.56272 21.0568 3.5782L22.0115 3.62474L21.2665 4.22354C21.0157 4.42499 20.9081 4.75588 20.9924 5.06694L21.2432 5.98929L20.4437 5.46598C20.1743 5.28944 19.826 5.28936 19.5567 5.46581L18.7569 5.98929L19.0077 5.06694C19.0922 4.75621 18.9846 4.42515 18.7337 4.22362L17.9887 3.62474L18.9432 3.5782ZM26.0207 8.49256L27.5075 9.68758L27.007 11.5283C26.918 11.8557 27.0379 12.196 27.3124 12.3955C27.4552 12.4992 27.6213 12.5514 27.7879 12.5514C27.9414 12.5514 28.0953 12.5071 28.2315 12.4179L29.8275 11.3732L31.4235 12.418C31.7075 12.6038 32.0683 12.595 32.3426 12.3955C32.6171 12.1961 32.7369 11.8558 32.648 11.5283L32.1475 9.68766L33.6342 8.49272C33.8988 8.28013 34.0019 7.93432 33.8971 7.61157C33.7922 7.28875 33.5055 7.06963 33.1667 7.05318L31.2614 6.96027L30.5843 5.17702C30.464 4.86016 30.167 4.65548 29.8275 4.65548C29.4881 4.65556 29.1909 4.86024 29.0708 5.17702L28.3937 6.96019L26.4885 7.0531C26.1496 7.06947 25.8628 7.28867 25.7579 7.61141C25.6531 7.93408 25.7562 8.27997 26.0207 8.49256ZM28.7706 8.23368C29.0922 8.2182 29.3739 8.0136 29.4882 7.71254L29.8275 6.8189L30.1667 7.71246C30.281 8.01352 30.5627 8.2182 30.8842 8.23368L31.8388 8.28021L31.0939 8.87901C30.8429 9.08063 30.7353 9.41168 30.8198 9.72233L31.0705 10.6448L30.2711 10.1215C30.1363 10.0331 29.9819 9.98895 29.8275 9.98895C29.6731 9.98895 29.5187 10.0331 29.3842 10.1213L28.5844 10.6448L28.8351 9.72242C28.9196 9.41168 28.8121 9.08063 28.5612 8.8791L27.8162 8.28021L28.7706 8.23368ZM6.28462 8.49264L7.7714 9.68758L7.27092 11.5285C7.18196 11.8559 7.30188 12.1962 7.57648 12.3957C7.71931 12.4994 7.88535 12.5515 8.05189 12.5515C8.20544 12.5515 8.35931 12.5071 8.49544 12.418L10.0915 11.3733L11.6875 12.418C11.9713 12.6038 12.3321 12.595 12.6066 12.3957C12.8811 12.1962 13.0009 11.8558 12.9119 11.5284L12.4114 9.68766L13.8981 8.4928C14.1626 8.28021 14.2658 7.9344 14.1609 7.61166C14.056 7.28883 13.7693 7.06971 13.4305 7.05326L11.5253 6.96035L10.8483 5.17726C10.728 4.86032 10.431 4.65564 10.0916 4.65556C9.75214 4.65556 9.45504 4.86024 9.33471 5.1771L8.65762 6.96035L6.75245 7.05318C6.41349 7.06955 6.12672 7.28875 6.02188 7.61149C5.91704 7.93424 6.02019 8.28013 6.28462 8.49264ZM9.03455 8.23376C9.35617 8.21828 9.63786 8.0136 9.75214 7.71254L10.0914 6.81898L10.4308 7.71279C10.5451 8.01368 10.8268 8.21828 11.148 8.23376L12.1027 8.2803L11.3572 8.8795C11.1067 9.08128 10.9993 9.41217 11.0838 9.72242L11.3345 10.6448L10.535 10.1215C10.4003 10.0332 10.2458 9.98903 10.0913 9.98903C9.93698 9.98903 9.78262 10.0331 9.6481 10.1214L8.84834 10.6448L9.09907 9.7225C9.18351 9.41201 9.07609 9.08111 8.82512 8.8791L8.08019 8.2803L9.03455 8.23376Z" fill="white"></path></svg>