<svg xmlns="http://www.w3.org/2000/svg" width="40" height="40" viewBox="0 0 40 40" fill="none"><path d="M39.9219 23.9844C39.9219 23.5405 39.6711 23.1347 39.2741 22.9363L35.9016 21.25L39.2741 19.5638C39.6711 19.3653 39.9219 18.9595 39.9219 18.5156C39.9219 18.0717 39.6711 17.6659 39.2741 17.4675L30.4521 13.0566C30.4072 12.7062 30.2063 12.3801 29.8768 12.1898L28.9159 11.635C28.9614 11.27 28.9844 10.9062 28.9844 10.5469C28.9844 10.1875 28.9614 9.82375 28.9159 9.45875L29.8768 8.90391C30.4373 8.58023 30.6294 7.86359 30.3057 7.30313L27.962 3.24367C27.6383 2.68313 26.9216 2.49102 26.3612 2.81477L25.3961 3.37187C24.811 2.9282 24.1823 2.56258 23.5156 2.27812V1.17188C23.5156 0.524687 22.9909 0 22.3438 0H17.6562C17.0091 0 16.4844 0.524687 16.4844 1.17188V2.27812C15.8177 2.56258 15.189 2.9282 14.6039 3.37187L13.6388 2.81477C13.0781 2.49102 12.3616 2.6832 12.038 3.24367L9.6943 7.30313C9.37062 7.86359 9.56266 8.58031 10.1232 8.90391L11.0841 9.45875C11.0386 9.82375 11.0156 10.1875 11.0156 10.5469C11.0156 10.9062 11.0386 11.27 11.0841 11.635L10.1232 12.1898C9.79375 12.3801 9.59281 12.7063 9.54789 13.0566L0.725937 17.4675C0.328906 17.6659 0.078125 18.0717 0.078125 18.5156C0.078125 18.9595 0.328906 19.3653 0.725937 19.5638L4.09844 21.25L0.725937 22.9363C0.328906 23.1347 0.078125 23.5405 0.078125 23.9844C0.078125 24.4283 0.328906 24.8341 0.725937 25.0325L4.09844 26.7188L0.725937 28.405C0.328906 28.6034 0.078125 29.0092 0.078125 29.4531C0.078125 29.897 0.328906 30.3028 0.725937 30.5012L19.4759 39.8762C19.6409 39.9587 19.8204 40 20 40C20.1796 40 20.3591 39.9587 20.5241 39.8762L39.2741 30.5012C39.6711 30.3028 39.9219 29.897 39.9219 29.4531C39.9219 29.0092 39.6711 28.6034 39.2741 28.405L35.9016 26.7188L39.2741 25.0325C39.6711 24.8341 39.9219 24.4283 39.9219 23.9844ZM13.5213 11.9881C13.4138 11.503 13.3594 11.0181 13.3594 10.5469C13.3594 10.0756 13.4138 9.5907 13.5213 9.10563C13.6319 8.60633 13.4059 8.09297 12.963 7.83734L12.3099 7.46023L13.4818 5.43055L14.1398 5.81031C14.583 6.06617 15.1409 6.00484 15.518 5.65891C16.2502 4.98719 17.0877 4.50016 18.0074 4.21125C18.4959 4.05773 18.8281 3.60516 18.8281 3.0932V2.34375H21.1719V3.0932C21.1719 3.60516 21.5041 4.05781 21.9926 4.21125C22.9123 4.50016 23.7498 4.98727 24.482 5.65891C24.8591 6.00484 25.417 6.06617 25.8602 5.81031L26.5182 5.43055L27.6901 7.46023L27.037 7.83734C26.5941 8.09297 26.3681 8.60641 26.4788 9.10563C26.5862 9.5907 26.6406 10.0756 26.6406 10.5469C26.6406 11.0181 26.5862 11.503 26.4788 11.9881C26.3681 12.4874 26.5941 13.0008 27.037 13.2564L27.6901 13.6335L26.5182 15.6632L25.8602 15.2834C25.417 15.0275 24.859 15.0888 24.482 15.4348C23.7499 16.1065 22.9123 16.5936 21.9926 16.8825C21.5041 17.0359 21.1719 17.4886 21.1719 18.0005V18.75H18.8281V18.0005C18.8281 17.4886 18.4959 17.0359 18.0074 16.8825C17.0877 16.5936 16.2501 16.1064 15.518 15.4348C15.141 15.0888 14.583 15.0274 14.1398 15.2834L13.4818 15.6632L12.3099 13.6335L12.963 13.2564C13.406 13.0008 13.6319 12.4874 13.5213 11.9881ZM3.87039 18.5156L10.5066 15.1975L12.038 17.85C12.3617 18.4106 13.0784 18.6027 13.6388 18.2789L14.6039 17.7217C15.189 18.1655 15.8177 18.531 16.4844 18.8155V19.9219C16.4844 20.5691 17.0091 21.0938 17.6562 21.0938H22.3438C22.9909 21.0938 23.5156 20.5691 23.5156 19.9219V18.8156C24.1823 18.5311 24.811 18.1655 25.3961 17.7218L26.3612 18.279C26.9216 18.6027 27.6384 18.4105 27.962 17.8501L29.4934 15.1976L36.1296 18.5156L20 26.5804L3.87039 18.5156ZM36.1296 29.4531L20 37.5179L3.87039 29.4531L6.71875 28.0289L19.4759 34.4075C19.6409 34.49 19.8204 34.5312 20 34.5312C20.1796 34.5312 20.3591 34.49 20.5241 34.4075L33.2812 28.0289L36.1296 29.4531ZM20 32.0491L3.87039 23.9844L6.71875 22.5602L19.4759 28.9387C19.6409 29.0212 19.8204 29.0625 20 29.0625C20.1796 29.0625 20.3591 29.0212 20.5241 28.9387L33.2812 22.5602L36.1296 23.9844L20 32.0491Z" fill="#16A34A"></path><path d="M20 14.8438C22.3693 14.8438 24.2969 12.9162 24.2969 10.5469C24.2969 8.17758 22.3693 6.25 20 6.25C17.6307 6.25 15.7031 8.17758 15.7031 10.5469C15.7031 12.9162 17.6307 14.8438 20 14.8438ZM20 8.59375C21.077 8.59375 21.9531 9.46992 21.9531 10.5469C21.9531 11.6238 21.077 12.5 20 12.5C18.923 12.5 18.0469 11.6238 18.0469 10.5469C18.0469 9.46992 18.923 8.59375 20 8.59375Z" fill="#16A34A"></path></svg>