<svg xmlns="http://www.w3.org/2000/svg" width="30" height="30" viewBox="0 0 30 30" fill="none"><path d="M26.4844 13.6367C26.543 14.3984 26.543 15.1602 26.4844 15.8633L28.3594 16.9766C28.8867 17.2695 29.1797 17.9141 29.0039 18.5586C28.3594 21.0195 27.0117 23.2461 25.2539 25.0625C24.7852 25.4727 24.082 25.5898 23.5547 25.2969L21.6797 24.1836C21.0938 24.6523 20.4492 25.0039 19.7461 25.2969V27.4648C19.7461 28.1094 19.3359 28.6367 18.6914 28.8125C16.2891 29.457 13.6523 29.457 11.25 28.8125C10.6055 28.6367 10.1953 28.1094 10.1953 27.4648V25.2969C9.49219 25.0039 8.84766 24.6523 8.26172 24.1836L6.38672 25.2969C5.85938 25.5898 5.15625 25.4727 4.6875 25.0625C2.92969 23.2461 1.58203 21.0195 0.9375 18.5586C0.761719 17.9141 1.05469 17.2695 1.58203 16.9766L3.45703 15.8633C3.39844 15.5117 3.39844 15.1602 3.39844 14.8086C3.39844 14.3984 3.39844 14.0469 3.45703 13.6367L1.58203 12.582C1.05469 12.2891 0.761719 11.6445 0.9375 11C1.58203 8.53906 2.92969 6.3125 4.6875 4.49609C5.15625 4.08594 5.85938 3.96875 6.38672 4.26172L8.26172 5.375C8.84766 4.90625 9.49219 4.55469 10.1953 4.26172V2.09375C10.1953 1.44922 10.6055 0.921875 11.25 0.746094C13.6523 0.101562 16.2891 0.101562 18.6914 0.746094C19.3359 0.921875 19.7461 1.44922 19.7461 2.09375V4.26172C20.4492 4.55469 21.0938 4.90625 21.6797 5.375L23.5547 4.26172C24.082 3.96875 24.7852 4.08594 25.2539 4.49609C27.0117 6.3125 28.3594 8.53906 29.0039 11C29.1797 11.6445 28.8867 12.2891 28.3594 12.582L26.4844 13.6367ZM23.3789 17.3867C23.8477 14.9258 23.8477 14.6328 23.3789 12.1719L25.957 10.707C25.4883 9.47656 24.8438 8.30469 23.9648 7.30859L21.3867 8.77344C19.5703 7.19141 19.2773 7.01562 16.9336 6.19531V3.20703C16.2891 3.08984 15.6445 3.03125 15 3.03125C14.2969 3.03125 13.6523 3.08984 13.0078 3.20703V6.19531C10.6641 7.01562 10.4297 7.19141 8.55469 8.77344L5.97656 7.30859C5.09766 8.30469 4.45312 9.47656 3.98438 10.707L6.5625 12.1719C6.09375 14.6328 6.09375 14.9258 6.5625 17.3867L3.98438 18.8516C4.45312 20.082 5.09766 21.2539 5.97656 22.25L8.55469 20.7852C10.3711 22.3672 10.6641 22.543 13.0078 23.3633V26.3516C13.6523 26.4688 14.2969 26.5273 14.9414 26.5273C15.6445 26.5273 16.2891 26.4688 16.9336 26.3516V23.3633C19.2773 22.543 19.5117 22.3672 21.3867 20.7852L23.9648 22.25C24.8438 21.2539 25.4883 20.082 25.957 18.8516L23.3789 17.3867ZM15 9.125C18.0469 9.125 20.625 11.7031 20.625 14.75C20.625 17.8555 18.0469 20.375 15 20.375C11.8945 20.375 9.375 17.8555 9.375 14.75C9.375 11.7031 11.8945 9.125 15 9.125ZM15 17.5625C16.5234 17.5625 17.8125 16.332 17.8125 14.75C17.8125 13.2266 16.5234 11.9375 15 11.9375C13.418 11.9375 12.1875 13.2266 12.1875 14.75C12.1875 16.332 13.418 17.5625 15 17.5625Z" fill="#16A34A"></path></svg>