<svg xmlns="http://www.w3.org/2000/svg" width="40" height="40" viewBox="0 0 40 40" fill="none"><g clip-path="url(#clip0_10021_4835)"><path d="M37.8386 20C37.8386 18.4586 37.6421 16.9337 37.2539 15.4561L39.5117 13.7951L35.1294 6.20484L32.5581 7.33141C30.3598 5.14875 27.6679 3.59336 24.6918 2.78609L24.3823 0H15.6178L15.3082 2.78609C12.332 3.59336 9.6402 5.14875 7.44192 7.33141L4.87067 6.20484L0.488403 13.7951L2.74622 15.4561C2.35793 16.9337 2.16153 18.4586 2.16153 20C2.16153 21.5414 2.35801 23.0662 2.74622 24.5439L0.488403 26.2048L4.87067 33.7951L7.44192 32.6685C9.64028 34.8513 12.3321 36.4066 15.3082 37.2138L15.6178 40H24.3823L24.6918 37.2138C27.6681 36.4066 30.3599 34.8512 32.5582 32.6685L35.1294 33.7951L39.5117 26.2048L37.2539 24.5439C37.6421 23.0662 37.8386 21.5414 37.8386 20ZM23.3642 35.1276L22.5454 35.3088L22.2845 37.6562H17.7156L17.4547 35.3088L16.6359 35.1276C13.5313 34.4405 10.7467 32.8316 8.58325 30.4748L8.01684 29.8578L5.85153 30.8065L3.56708 26.8497L5.46747 25.4517L5.21622 24.6527C4.7445 23.1521 4.50528 21.5867 4.50528 20C4.50528 18.4132 4.7445 16.8478 5.21622 15.3473L5.46747 14.5483L3.56708 13.1503L5.85153 9.19352L8.01684 10.1422L8.58325 9.52516C10.7467 7.16844 13.5313 5.55953 16.6359 4.87242L17.4547 4.69117L17.7156 2.34375H22.2845L22.5454 4.69117L23.3642 4.87242C26.4688 5.55961 29.2534 7.16852 31.4168 9.52516L31.9832 10.1422L34.1486 9.19352L36.433 13.1503L34.5326 14.5483L34.7839 15.3473C35.2556 16.8479 35.4948 18.4133 35.4948 20C35.4948 21.5867 35.2557 23.1521 34.7839 24.6527L34.5326 25.4517L36.433 26.8497L34.1486 30.8065L31.9832 29.8578L31.4168 30.4748C29.2534 32.8316 26.4689 34.4405 23.3642 35.1276Z" fill="#16A34A"></path><path d="M15.3475 17.3171L13.673 15.6772L9.38684 20.0537L13.7634 24.3399L15.4032 22.6654L12.7012 20.0191L15.3475 17.3171Z" fill="#16A34A"></path><path d="M24.6525 17.3171L27.2987 20.0191L24.5967 22.6654L26.2365 24.3399L30.6131 20.0537L26.3269 15.6772L24.6525 17.3171Z" fill="#16A34A"></path><path d="M17.1951 27.6699L20.5282 11.8293L22.8228 12.3122L19.4897 28.1528L17.1951 27.6699Z" fill="#16A34A"></path></g><defs><clipPath id="clip0_10021_4835"><rect width="40" height="40" fill="white"></rect></clipPath></defs></svg>