<svg xmlns="http://www.w3.org/2000/svg" width="40" height="36" viewBox="0 0 40 36" fill="none"><path d="M20 21.0928C18.0615 21.0928 16.4844 22.6699 16.4844 24.6084C16.4844 26.5469 18.0615 28.124 20 28.124C21.9385 28.124 23.5156 26.5469 23.5156 24.6084C23.5156 22.6699 21.9385 21.0928 20 21.0928ZM20 25.7803C19.3538 25.7803 18.8281 25.2546 18.8281 24.6084C18.8281 23.9622 19.3538 23.4365 20 23.4365C20.6462 23.4365 21.1719 23.9622 21.1719 24.6084C21.1719 25.2546 20.6462 25.7803 20 25.7803Z" fill="#16A34A"></path><path d="M34.8491 11.7694C34.0892 9.57738 32.2646 7.88543 30.0023 7.28699C28.6006 2.96004 24.5886 -0.000976562 20 -0.000976562C16.383 -0.000976562 13.0723 1.85105 11.1409 4.89371C10.5891 4.75598 10.0246 4.68652 9.45312 4.68652C5.55305 4.68652 2.34375 7.84496 2.34375 11.7178C2.34375 12.0785 2.37805 12.4479 2.44789 12.8328C0.918203 13.9229 0 15.6682 0 17.5771C0 20.808 2.62852 23.4365 5.85938 23.4365H9.45312V26.9521C9.45312 27.5993 9.97781 28.124 10.625 28.124H11.9773C12.5334 28.124 12.8176 28.5124 12.9139 28.6793C13.1256 29.0461 13.128 29.4798 12.9203 29.8396L12.2678 30.9696C11.9477 31.524 12.1317 32.2327 12.6812 32.5613L16.7407 34.9892C17.3074 35.3282 18.0436 35.1318 18.3657 34.5543L19.0852 33.2641C19.3487 32.7915 19.7981 32.7405 19.9791 32.7405C20.3821 32.7405 20.7405 32.9516 20.9377 33.3053L21.6343 34.5543C21.9595 35.1372 22.6974 35.3253 23.2593 34.9892L27.3187 32.5613C27.8681 32.2327 28.0523 31.524 27.7321 30.9696L27.1083 29.889C26.8426 29.4288 26.9352 28.9403 27.1104 28.6367C27.2209 28.4453 27.4793 28.124 27.9677 28.124H29.375C30.0222 28.124 30.5469 27.5993 30.5469 26.9521V23.4365H34.0625C37.3013 23.4365 40 20.8166 40 17.5771C40 14.5834 37.7014 12.1464 34.8491 11.7694ZM28.2031 25.7803H27.9677C26.7688 25.7803 25.6896 26.41 25.0806 27.4648C24.4396 28.5751 24.4388 29.9531 25.0785 31.0609L25.1254 31.1421L23.0929 32.3577L22.9846 32.1636C22.3769 31.0738 21.2252 30.3968 19.9792 30.3968C19.9793 30.3968 19.9791 30.3968 19.9792 30.3968C18.7405 30.3968 17.6409 31.042 17.0383 32.1225L16.9071 32.3578L14.8746 31.1422L14.9501 31.0116C15.5815 29.918 15.5791 28.6081 14.9437 27.5075C14.3193 26.4261 13.2103 25.7804 11.9773 25.7804H11.7969V23.4366H12.1208C13.2648 23.4366 14.2981 22.8296 14.8851 21.813C15.5455 20.669 15.5447 19.2438 14.8835 18.0903L16.9133 16.9184L17.0373 17.1332C17.6473 18.1899 18.7485 18.8207 19.983 18.8207C21.2388 18.8207 22.3601 18.1768 22.9827 17.0985L23.0866 16.9185L25.1163 18.0904L25.0922 18.1321C24.4439 19.2549 24.4429 20.6481 25.0895 21.768C25.6928 22.8129 26.7589 23.4367 27.9414 23.4367H28.2031V25.7803ZM34.0625 21.0928C32.8577 21.0928 29.2318 21.0928 27.9415 21.0928C27.4757 21.0928 27.2265 20.7815 27.1194 20.596C26.9397 20.2847 26.846 19.7818 27.122 19.3038L27.7321 18.2472C28.0555 17.6871 27.8636 16.97 27.3032 16.6464L23.2437 14.3027C22.6831 13.9789 21.9665 14.1711 21.643 14.7316L20.953 15.9265C20.7541 16.2711 20.3915 16.4769 19.9831 16.4769C19.7973 16.4769 19.3358 16.4267 19.0672 15.9614L18.3572 14.7316C18.0336 14.1711 17.3169 13.9791 16.7564 14.3027L12.6969 16.6464C12.1368 16.9697 11.9443 17.6868 12.268 18.2473L12.8479 19.2517C13.0938 19.6776 13.0968 20.223 12.8554 20.6411C12.7365 20.8472 12.5124 21.0929 12.1209 21.0929C10.8097 21.0929 7.03969 21.0929 5.85945 21.0929C3.92094 21.0929 2.34383 19.5157 2.34383 17.5772C2.34383 16.2448 3.0968 15.0434 4.30891 14.4418C4.82031 14.188 5.07438 13.6025 4.91039 13.0556C4.75828 12.5484 4.6875 12.1233 4.6875 11.7178C4.6875 9.13309 6.82531 7.03027 9.45312 7.03027C10.0634 7.03027 10.6636 7.1502 11.2369 7.38668C11.8009 7.61934 12.4491 7.38027 12.727 6.83707C14.1453 4.06488 16.9321 2.34277 20 2.34277C23.7597 2.34277 27.0221 4.90441 27.9334 8.57215C28.0478 9.03238 28.4283 9.37832 28.8973 9.44855C30.8456 9.74004 32.4126 11.2204 32.7967 13.1322C32.9119 13.7054 33.4438 14.1448 34.1199 14.062C36.0428 14.0932 37.6562 15.6902 37.6562 17.5771C37.6562 19.4829 36.0105 21.0928 34.0625 21.0928Z" fill="#16A34A"></path></svg>