<svg xmlns="http://www.w3.org/2000/svg" width="21" height="24" viewBox="0 0 21 24" fill="none"><path d="M10.5 2.25C5.90625 2.25 2.25 3.5625 2.25 5.15625V5.39062C2.25 6.98438 5.90625 8.25 10.5 8.25C15.0469 8.25 18.75 6.98438 18.75 5.39062V5.15625C18.75 3.5625 15.0469 2.25 10.5 2.25ZM18.75 8.625C16.9688 9.89062 13.6875 10.5 10.5 10.5C7.26562 10.5 3.98438 9.89062 2.25 8.625V9.84375C2.25 11.4375 5.90625 12.75 10.5 12.75C15.0469 12.75 18.75 11.4375 18.75 9.84375V8.625ZM18.75 13.125C16.9688 14.3906 13.6875 15 10.5 15C7.26562 15 3.98438 14.3906 2.25 13.125V14.3438C2.25 15.9375 5.90625 17.25 10.5 17.25C15.0469 17.25 18.75 15.9375 18.75 14.3438V13.125ZM18.75 17.625C16.9688 18.8906 13.6875 19.5 10.5 19.5C7.26562 19.5 3.98438 18.8906 2.25 17.625V18.8906C2.25 20.4844 5.90625 21.75 10.5 21.75C15.0469 21.75 18.75 20.4844 18.75 18.8906V17.625ZM10.5 0C14.5312 0 21 1.125 21 5.15625V18.8906C21 22.9219 14.5312 24 10.5 24C6.42188 24 0 22.9219 0 18.8906V5.15625C0 1.125 6.42188 0 10.5 0Z" fill="white"></path></svg>