<svg xmlns="http://www.w3.org/2000/svg" width="27" height="24" viewBox="0 0 27 24" fill="none"><path d="M20.25 0C24 0.046875 27 3.09375 27 6.84375V9.375C27 10.0312 26.4844 10.5 25.875 10.5C25.2188 10.5 24.75 10.0312 24.75 9.375V6.75C24.75 4.26562 22.6875 2.25 20.2031 2.25C17.7188 2.29688 15.75 4.35938 15.75 6.84375V9H18.75C19.9688 9 21 10.0312 21 11.25V21.75C21 23.0156 19.9688 24 18.75 24H2.25C0.984375 24 0 23.0156 0 21.75V11.25C0 10.0312 0.984375 9 2.25 9H13.5V6.75C13.5 3.04688 16.5 0 20.25 0ZM18.75 11.25H2.25V21.75H18.75V11.25ZM10.5469 19.3125C9.79688 19.3125 9.23438 18.75 9.23438 18V15C9.23438 14.2969 9.79688 13.6875 10.5469 13.6875C11.25 13.6875 11.8594 14.2969 11.8594 15V18C11.8594 18.75 11.25 19.3125 10.5469 19.3125Z" fill="white"></path></svg>