<svg xmlns="http://www.w3.org/2000/svg" width="30" height="31" viewBox="0 0 30 31" fill="none"><path d="M30 15.8086C30 16.5117 29.5312 17.2148 28.8281 17.5078L24.1992 19.5L28.8281 21.5508C29.5312 21.8438 29.9414 22.5469 29.9414 23.3086C29.9414 24.0117 29.5312 24.7148 28.8281 25.0078L16.0547 30.5742C15.7031 30.6914 15.3516 30.75 14.9414 30.75C14.5898 30.75 14.2383 30.6914 13.8867 30.5742L1.11328 25.0078C0.410156 24.7148 0 24.0117 0 23.3086C0 22.5469 0.410156 21.8438 1.11328 21.5508L5.74219 19.5L1.11328 17.5078C0.410156 17.2148 0 16.5117 0 15.8086C0 15.0469 0.410156 14.3438 1.11328 14.0508L5.74219 12L1.11328 10.0078C0.410156 9.71484 0 9.01172 0 8.25C0 7.54688 0.410156 6.84375 1.11328 6.55078L13.8867 0.984375C14.5898 0.691406 15.3516 0.691406 16.0547 0.984375L28.8281 6.55078C29.5312 6.84375 30 7.54688 30 8.25C30 9.01172 29.5312 9.71484 28.8281 10.0078L24.1992 12L28.8281 14.0508C29.5312 14.3438 30 15.0469 30 15.8086ZM15 3.62109L4.16016 8.25L15 12.9961L25.7812 8.30859L15 3.62109ZM25.7812 23.3086L20.625 21.082L16.0547 23.0742C15.7031 23.1914 15.3516 23.25 15 23.25C14.5898 23.25 14.2383 23.1914 13.8867 23.0742L9.31641 21.082L4.16016 23.25L15 27.9961L25.7812 23.3086ZM15 20.4961L25.7812 15.8086L20.625 13.582L16.0547 15.5742C15.7031 15.6914 15.3516 15.75 15 15.75C14.5898 15.75 14.2383 15.6914 13.8867 15.5742L9.31641 13.582L4.16016 15.75L15 20.4961Z" fill="#16A34A"></path></svg>