<svg xmlns="http://www.w3.org/2000/svg" width="50" height="50" viewBox="0 0 50 50" fill="none"><g clip-path="url(#clip0_8066_19130)"><path d="M21.9811 27.6721C25.1004 27.6721 27.6383 25.1343 27.6383 22.015C27.6383 18.8957 25.1005 16.3579 21.9811 16.3579C18.8616 16.3579 16.3239 18.8957 16.3239 22.015C16.3239 25.1343 18.8617 27.6721 21.9811 27.6721ZM21.9811 17.725C24.3466 17.725 26.2711 19.6496 26.2711 22.015C26.2711 24.3804 24.3466 26.3049 21.9811 26.3049C19.6155 26.3049 17.6911 24.3804 17.6911 22.015C17.6911 19.6496 19.6156 17.725 21.9811 17.725ZM19.3626 22.0105C19.1738 21.6835 19.2858 21.2655 19.6128 21.0767C19.9398 20.8881 20.3578 21 20.5466 21.3269L21.1642 22.3966L23.5241 20.0367C23.7911 19.7698 24.2239 19.7699 24.4908 20.0367C24.7577 20.3037 24.7577 20.7365 24.4908 21.0034L21.501 23.9932C21.372 24.1222 21.1978 24.1934 21.0177 24.1934C20.988 24.1934 20.9582 24.1915 20.9284 24.1875C20.7177 24.1598 20.5318 24.0356 20.4257 23.8516L19.3627 22.0104L19.3626 22.0105ZM49.6093 12.3341C49.6093 8.06948 45.7241 4.59985 40.9486 4.59985C36.1731 4.59985 32.288 8.06939 32.288 12.3341C32.288 13.0495 32.3987 13.7523 32.6102 14.4259C31.7715 14.3132 30.9259 14.2638 30.0837 14.2821C29.7198 14.2899 29.3538 14.3105 28.9913 14.343L28.448 13.7997C28.0627 13.4142 27.4546 13.3549 27.0021 13.6583L26.1764 14.2121L24.532 13.5308L24.3397 12.5555C24.2343 12.021 23.7623 11.6331 23.2175 11.6331H22.6646V7.14136C22.6646 6.96011 22.5926 6.78618 22.4645 6.65796L19.6238 3.81743C19.7946 3.49497 19.8918 3.12788 19.8918 2.73833C19.8918 1.46255 18.8538 0.424561 17.5779 0.424561C16.302 0.424561 15.2642 1.46255 15.2642 2.73833C15.2642 4.01411 16.3021 5.0521 17.5779 5.0521C17.9675 5.0521 18.3347 4.95493 18.657 4.78413L21.2975 7.42446V11.6331H20.7446C20.1999 11.6331 19.7279 12.0209 19.6224 12.5556L19.4301 13.5309L17.7858 14.2122L16.9601 13.6584C16.5076 13.3549 15.8995 13.4143 15.5142 13.7996L15.1232 14.1905L12.187 11.2542C12.3578 10.9317 12.455 10.5646 12.455 10.175C12.455 8.89917 11.417 7.86118 10.1412 7.86118C8.86543 7.86118 7.82744 8.89917 7.82744 10.175C7.82744 11.4509 8.86543 12.4888 10.1412 12.4888C10.5308 12.4888 10.8979 12.3917 11.2203 12.2208L14.1565 15.1572L13.7657 15.548C13.3805 15.9333 13.3211 16.5414 13.6246 16.9939L14.1783 17.8197L13.4971 19.464L12.5217 19.6563C11.9871 19.7618 11.5991 20.2336 11.5991 20.7785V21.3312H7.39062L4.7502 18.6909C4.921 18.3684 5.01816 18.0013 5.01816 17.6118C5.01816 16.336 3.98018 15.298 2.70439 15.298C1.42861 15.298 0.390625 16.336 0.390625 17.6118C0.390625 18.8875 1.42861 19.9256 2.70439 19.9256C3.09395 19.9256 3.46113 19.8285 3.78359 19.6577L6.62422 22.4982C6.75244 22.6263 6.92627 22.6984 7.10762 22.6984H11.5993V23.2512C11.5993 23.796 11.9873 24.268 12.5219 24.3735L13.4972 24.5658L14.1784 26.2101L13.6247 27.0358C13.3212 27.4883 13.3806 28.0963 13.7658 28.4817L14.1567 28.8726L10.5846 32.4448C10.2621 32.274 9.89502 32.1768 9.50537 32.1768C8.22959 32.1768 7.1916 33.2148 7.1916 34.4906C7.1916 35.7664 8.22959 36.8044 9.50537 36.8044C10.7812 36.8044 11.8191 35.7665 11.8191 34.4906C11.8191 34.101 11.722 33.7339 11.5512 33.4115L15.1233 29.8393L15.5144 30.2303C15.7553 30.471 16.0831 30.5844 16.4056 30.5616C16.7991 32.1617 17.4469 33.6686 18.1276 35.25C19.7267 38.9636 21.38 42.8038 20.1844 48.7571C20.144 48.958 20.1959 49.1664 20.3258 49.3249C20.4557 49.4834 20.6497 49.5752 20.8546 49.5752H32.7488C33.0373 49.5752 33.2947 49.3941 33.3922 49.1225C33.4385 48.9935 33.4846 48.8624 33.5311 48.7302C33.6891 48.2807 33.8525 47.8159 34.0362 47.4049C34.6437 46.0459 35.3512 45.7273 37.1909 45.9841C37.6196 46.044 38.0473 46.1363 38.4608 46.2255C39.6669 46.4858 40.8061 46.7316 41.7161 46.1085C42.3195 45.6956 42.6963 44.9704 42.8681 43.8915C42.9146 43.5996 42.9394 43.3149 42.9613 43.0637C42.9774 42.8801 42.9979 42.6451 43.0242 42.5006C43.3686 42.3192 43.6414 42.0246 43.7931 41.6625C43.9834 41.2078 43.9698 40.7024 43.7556 40.2758C43.6636 40.0925 43.5385 39.9454 43.3989 39.8241C43.7789 39.6449 43.9702 39.3853 44.0663 39.1771C44.1902 38.9085 44.275 38.4664 44.0006 37.8612C43.9723 37.7328 43.9392 37.6103 43.9093 37.5C43.888 37.4212 43.8599 37.3175 43.8419 37.2348C44.0972 37.1094 44.6416 37.0539 44.9563 37.0216C46.0266 36.9123 46.6887 36.5639 46.9804 35.9569C47.3865 35.1116 46.8866 34.148 46.4036 33.3999C45.6622 32.265 44.4307 30.38 44.3723 29.8323C44.3879 29.6682 44.4043 29.5023 44.4209 29.3346C44.5819 27.7052 44.7645 25.8584 44.3966 24.0036C44.1068 22.5423 43.4904 21.1783 42.5625 19.9329C46.5693 19.2556 49.6093 16.1061 49.6093 12.3338V12.3341ZM17.5779 3.68481C17.056 3.68481 16.6313 3.26021 16.6313 2.73823C16.6313 2.21626 17.056 1.79165 17.5779 1.79165C18.0999 1.79165 18.5246 2.21626 18.5246 2.73823C18.5246 3.26021 18.0999 3.68481 17.5779 3.68481ZM10.1411 11.1216C9.61914 11.1216 9.19453 10.697 9.19453 10.175C9.19453 9.65308 9.61914 9.22837 10.1411 9.22837C10.6631 9.22837 11.0877 9.65308 11.0877 10.175C11.0877 10.697 10.6631 11.1216 10.1411 11.1216ZM2.7043 18.5585C2.18232 18.5585 1.75771 18.1338 1.75771 17.6119C1.75771 17.0899 2.18232 16.6653 2.7043 16.6653C3.22627 16.6653 3.65088 17.0899 3.65088 17.6119C3.65088 18.1338 3.22627 18.5585 2.7043 18.5585ZM9.50518 35.4375C8.9832 35.4375 8.55859 35.0127 8.55859 34.4908C8.55859 33.9688 8.9832 33.5442 9.50518 33.5442C10.0271 33.5442 10.4518 33.9688 10.4518 34.4908C10.4518 35.0127 10.0271 35.4375 9.50518 35.4375ZM14.1206 23.2954L12.9663 23.0678V20.9622L14.1206 20.7345C14.345 20.6903 14.5323 20.5368 14.6199 20.3255L15.5814 18.0047C15.6689 17.7934 15.645 17.5523 15.5177 17.3624L14.8623 16.3849L16.3512 14.896L17.3286 15.5514C17.5186 15.6788 17.7597 15.7027 17.971 15.6152L20.2918 14.6537C20.5031 14.5662 20.6565 14.3788 20.7008 14.1543L20.9284 13H23.0341L23.2616 14.1543C23.3059 14.3787 23.4594 14.5661 23.6706 14.6537L25.9915 15.6152C26.2027 15.7026 26.4438 15.6788 26.6339 15.5514L27.6112 14.896L29.1001 16.3849L28.4446 17.3623C28.3172 17.5522 28.2933 17.7934 28.3809 18.0046L29.3424 20.3254C29.4299 20.5368 29.6173 20.6902 29.8417 20.7344L30.996 20.9621V23.0677L29.8417 23.2953C29.6174 23.3395 29.43 23.493 29.3424 23.7042L28.3809 26.0251C28.2934 26.2365 28.3173 26.4776 28.4446 26.6675L29.1001 27.6448L27.6112 29.1336L26.6338 28.4782C26.4438 28.3508 26.2027 28.327 25.9914 28.4144L23.6706 29.3759C23.4593 29.4634 23.3059 29.6508 23.2616 29.8752L23.0341 31.0295H20.9284L20.7008 29.8751C20.6565 29.6507 20.503 29.4634 20.2918 29.3758L17.971 28.4144C17.7596 28.3268 17.5186 28.3507 17.3286 28.4782L16.3512 29.1336L14.8623 27.6448L15.5177 26.6674C15.6451 26.4775 15.669 26.2364 15.5814 26.0251L14.6199 23.7041C14.5324 23.4928 14.345 23.3394 14.1206 23.2952V23.2954ZM43.0603 29.2004C43.0419 29.3876 43.0235 29.5727 43.0063 29.7554C43.0038 29.7825 43.0028 29.8097 43.0035 29.837C43.0229 30.606 43.6845 31.7376 45.2571 34.1448C45.8677 35.0907 45.7533 35.3543 45.748 35.3651C45.7129 35.4384 45.473 35.5948 44.8174 35.6619C44.1075 35.7343 43.2241 35.8247 42.7116 36.4036C42.3169 36.8496 42.4682 37.4084 42.5897 37.8574C42.6219 37.9762 42.6552 38.0992 42.6772 38.212C42.689 38.272 42.7087 38.3301 42.7359 38.3849C42.7829 38.4793 42.8036 38.5482 42.8117 38.59C42.7881 38.6007 42.7518 38.6143 42.6986 38.6276L42.4839 38.6817C42.1923 38.7553 41.7516 38.8667 41.365 38.9566C41.0948 39.0195 40.8895 39.2394 40.8451 39.5133C40.8009 39.7872 40.9265 40.0606 41.1631 40.2054C41.2217 40.2413 41.2729 40.2626 41.3852 40.3096C41.5061 40.3602 41.6888 40.4365 41.9023 40.5394C41.9536 40.5641 42.0072 40.5889 42.062 40.6141C42.2111 40.6829 42.4889 40.8107 42.5338 40.8895C42.5672 40.956 42.5664 41.0523 42.5319 41.1347C42.495 41.2231 42.4276 41.2835 42.3317 41.3145C42.2702 41.3344 42.2118 41.3629 42.1583 41.3992C41.7078 41.7046 41.6576 42.2794 41.5994 42.9449C41.5785 43.1846 41.5568 43.4325 41.518 43.6766C41.41 44.355 41.2169 44.7937 40.944 44.9804C40.5191 45.2713 39.699 45.0941 38.7492 44.8892C38.3114 44.7947 37.8586 44.697 37.38 44.6302C35.3455 44.3462 33.7861 44.6146 32.7882 46.8471C32.5914 47.2872 32.4253 47.7541 32.2654 48.2083H21.6742C22.6467 42.2894 20.9172 38.2718 19.3834 34.7094C18.6784 33.0721 18.0103 31.518 17.6563 29.9045L17.7858 29.8177L19.4301 30.499L19.6225 31.4745C19.7279 32.0089 20.1999 32.3968 20.7446 32.3968H23.2175C23.7623 32.3968 24.2343 32.0088 24.3397 31.4743L24.532 30.4989L26.1764 29.8176L27.0021 30.3713C27.4547 30.6749 28.0627 30.6156 28.448 30.2303L28.839 29.8394L31.2006 32.201C31.0298 32.5235 30.9326 32.8906 30.9326 33.2801C30.9326 34.556 31.9706 35.594 33.2464 35.594C34.5222 35.594 35.5603 34.556 35.5603 33.2801C35.5603 32.0042 34.5223 30.9664 33.2464 30.9664C32.8568 30.9664 32.4897 31.0635 32.1673 31.2343L29.8057 28.8727L30.1965 28.4819C30.5817 28.0966 30.6411 27.4885 30.3377 27.036L29.7839 26.2103L30.4651 24.566L31.4404 24.3737C31.975 24.2683 32.363 23.7963 32.363 23.2514V20.7786C32.363 20.2337 31.975 19.7618 31.4404 19.6564L30.4651 19.4641L29.7839 17.8198L30.3378 16.9939C30.6162 16.5786 30.5882 16.0327 30.2839 15.6478C31.2828 15.6379 32.2859 15.7287 33.2726 15.9187C33.7113 16.6681 34.2888 17.3547 34.9894 17.9477L34.1948 21.7965C34.1364 22.0795 34.2623 22.3688 34.5094 22.5189C34.6189 22.5855 34.7418 22.6183 34.8643 22.6183C35.0178 22.6183 35.1706 22.5667 35.2954 22.4653L38.5997 19.7803C39.3499 19.9687 40.1259 20.065 40.9116 20.0679C42.0314 21.3304 42.7526 22.7425 43.0556 24.27C43.3841 25.9261 43.2195 27.5908 43.0604 29.2005L43.0603 29.2004ZM33.2462 32.3335C33.7682 32.3335 34.1929 32.7582 34.1929 33.2801C34.1929 33.8021 33.7682 34.2268 33.2462 34.2268C32.7242 34.2268 32.2996 33.8021 32.2996 33.2801C32.2996 32.7582 32.7242 32.3335 33.2462 32.3335ZM40.9485 18.7011C40.1567 18.7011 39.3774 18.5906 38.6323 18.3726C38.4167 18.3095 38.1838 18.3564 38.0094 18.4982L35.9214 20.1948L36.4127 17.8149C36.4658 17.5574 36.3666 17.2922 36.1575 17.133C34.5672 15.9214 33.6552 14.1724 33.6552 12.3341C33.6552 8.82329 36.927 5.96704 40.9486 5.96704C44.9703 5.96704 48.2421 8.82329 48.2421 12.3341C48.2421 15.845 44.9703 18.7012 40.9486 18.7012L40.9485 18.7011ZM38.1237 12.334C38.1237 12.9728 37.606 13.4906 36.9672 13.4906C36.3284 13.4906 35.8106 12.9728 35.8106 12.334C35.8106 11.6953 36.3284 11.1775 36.9672 11.1775C37.606 11.1775 38.1237 11.6953 38.1237 12.334ZM46.0864 12.334C46.0864 12.9728 45.5687 13.4906 44.9299 13.4906C44.2911 13.4906 43.7733 12.9728 43.7733 12.334C43.7733 11.6953 44.2911 11.1775 44.9299 11.1775C45.5687 11.1775 46.0864 11.6953 46.0864 12.334ZM42.1051 12.334C42.1051 12.9728 41.5873 13.4906 40.9485 13.4906C40.3098 13.4906 39.792 12.9728 39.792 12.334C39.792 11.6953 40.3098 11.1775 40.9485 11.1775C41.5873 11.1775 42.1051 11.6953 42.1051 12.334Z" fill="white"></path></g><defs><clipPath id="clip0_8066_19130"><rect width="50" height="50" fill="white"></rect></clipPath></defs></svg>