<svg xmlns="http://www.w3.org/2000/svg" width="40" height="40" viewBox="0 0 40 40" fill="none"><g clip-path="url(#clip0_8066_19221)"><path d="M19.5312 14.0625C19.9625 14.0625 20.3125 13.7125 20.3125 13.2812C20.3125 12.85 19.9625 12.5 19.5312 12.5C19.1 12.5 18.75 12.85 18.75 13.2812C18.75 13.7125 19.1 14.0625 19.5312 14.0625Z" fill="#16A34A"></path><path d="M19.5312 17.1875C19.9625 17.1875 20.3125 16.8375 20.3125 16.4062C20.3125 15.975 19.9625 15.625 19.5312 15.625C19.1 15.625 18.75 15.975 18.75 16.4062C18.75 16.8375 19.1 17.1875 19.5312 17.1875Z" fill="#16A34A"></path><path d="M39.7711 8.04138L31.9586 0.228882C31.8204 0.090332 31.6196 0 31.4062 0H11.7188C10.4263 0 9.375 1.05133 9.375 2.34375V4.72351C9.1156 4.70001 8.85468 4.6875 8.59375 4.6875C3.85529 4.6875 0 8.54279 0 13.2812C0 18.0197 3.85529 21.875 8.59375 21.875C8.85468 21.875 9.1156 21.8625 9.375 21.839V37.6562C9.375 38.9487 10.4263 40 11.7188 40H37.6562C38.9487 40 40 38.9487 40 37.6562V8.59375C40 8.38043 39.9112 8.18146 39.7711 8.04138ZM32.1875 2.66724L37.3328 7.8125H32.1875V2.66724ZM9.375 6.29364C12.674 6.65771 15.2191 9.28802 15.5798 12.5H9.375V6.29364ZM1.5625 13.2812C1.5625 9.66827 4.30176 6.68365 7.8125 6.29364V13.2812C7.8125 13.7128 8.16223 14.0616 8.59375 14.0616H15.5798C15.1874 17.5565 12.2305 20.3125 8.59375 20.3125C4.7168 20.3125 1.5625 17.1582 1.5625 13.2812ZM37.6562 38.4375H11.7188C11.2878 38.4375 10.9375 38.0872 10.9375 37.6562V21.5497C14.5947 20.5145 17.1875 17.1362 17.1875 13.2812C17.1875 9.42627 14.5947 6.04797 10.9375 5.01282V2.34375C10.9375 1.91284 11.2878 1.5625 11.7188 1.5625H30.625V8.59375C30.625 9.02527 30.9747 9.375 31.4062 9.375H38.4375V37.6562C38.4375 38.0872 38.0872 38.4375 37.6562 38.4375Z" fill="#16A34A"></path><path d="M20 6.25H28.2812C28.7128 6.25 29.0625 5.90027 29.0625 5.46875C29.0625 5.03723 28.7128 4.6875 28.2812 4.6875H20C19.5685 4.6875 19.2188 5.03723 19.2188 5.46875C19.2188 5.90027 19.5685 6.25 20 6.25Z" fill="#16A34A"></path><path d="M20 9.375H28.2812C28.7128 9.375 29.0625 9.02527 29.0625 8.59375C29.0625 8.16223 28.7128 7.8125 28.2812 7.8125H20C19.5685 7.8125 19.2188 8.16223 19.2188 8.59375C19.2188 9.02527 19.5685 9.375 20 9.375Z" fill="#16A34A"></path><path d="M8.59375 17.1875C6.43982 17.1875 4.6875 15.4352 4.6875 13.2812C4.6875 12.8497 4.33777 12.5 3.90625 12.5C3.47473 12.5 3.125 12.8497 3.125 13.2812C3.125 16.2967 5.57831 18.75 8.59375 18.75C9.02527 18.75 9.375 18.4003 9.375 17.9688C9.375 17.5372 9.02527 17.1875 8.59375 17.1875Z" fill="#16A34A"></path><path d="M34.2969 20.7812C33.0045 20.7812 31.9531 21.8326 31.9531 23.125C31.9531 23.6093 32.1008 24.0601 32.3535 24.4339L26.9284 30.2567C26.7136 30.1917 26.4859 30.1562 26.25 30.1562C25.9204 30.1562 25.6015 30.2246 25.3085 30.3531L22.865 27.3239C23.0347 26.9958 23.125 26.6299 23.125 26.25C23.125 24.9576 22.0737 23.9062 20.7812 23.9062C19.4888 23.9062 18.4375 24.9576 18.4375 26.25C18.4375 26.615 18.5211 26.9669 18.678 27.2849L15.8292 30.3726C15.5243 30.231 15.1898 30.1562 14.8438 30.1562C13.5513 30.1562 12.5 31.2076 12.5 32.5C12.5 33.7924 13.5513 34.8438 14.8438 34.8438C16.1362 34.8438 17.1875 33.7924 17.1875 32.5C17.1875 32.135 17.1042 31.7831 16.947 31.4651L19.7958 28.3774C20.1007 28.519 20.4352 28.5938 20.7812 28.5938C21.1108 28.5938 21.4297 28.5254 21.7227 28.3969L24.1663 31.4261C23.9966 31.7542 23.9062 32.1201 23.9062 32.5C23.9062 33.7924 24.9576 34.8438 26.25 34.8438C27.5424 34.8438 28.5938 33.7924 28.5938 32.5C28.5938 32.0157 28.446 31.5649 28.1934 31.1911L33.6185 25.3683C33.8333 25.4333 34.061 25.4688 34.2969 25.4688C35.5893 25.4688 36.6406 24.4174 36.6406 23.125C36.6406 21.8326 35.5893 20.7812 34.2969 20.7812ZM14.8438 33.2812C14.4128 33.2812 14.0625 32.9309 14.0625 32.5C14.0625 32.0691 14.4128 31.7188 14.8438 31.7188C15.275 31.7188 15.625 32.0685 15.625 32.5C15.625 32.9309 15.2747 33.2812 14.8438 33.2812ZM20 26.25C20 25.8191 20.3503 25.4688 20.7812 25.4688C21.2122 25.4688 21.5625 25.8191 21.5625 26.25C21.5625 26.6812 21.2128 27.0312 20.7812 27.0312C20.3497 27.0312 20 26.6812 20 26.25ZM26.25 33.2812C25.8191 33.2812 25.4688 32.9309 25.4688 32.5C25.4688 32.0688 25.8185 31.7188 26.25 31.7188C26.6809 31.7188 27.0312 32.0691 27.0312 32.5C27.0312 32.9309 26.6809 33.2812 26.25 33.2812ZM34.2969 23.9062C33.866 23.9062 33.5156 23.5559 33.5156 23.125C33.5156 22.6941 33.866 22.3438 34.2969 22.3438C34.7278 22.3438 35.0781 22.6941 35.0781 23.125C35.0781 23.5559 34.7278 23.9062 34.2969 23.9062Z" fill="#16A34A"></path><path d="M21.875 13.2812C21.875 13.7128 22.2247 14.0625 22.6562 14.0625H34.5312C34.9628 14.0625 35.3125 13.7128 35.3125 13.2812C35.3125 12.8497 34.9628 12.5 34.5312 12.5H22.6562C22.2247 12.5 21.875 12.8497 21.875 13.2812Z" fill="#16A34A"></path><path d="M34.5312 15.625H22.6562C22.2247 15.625 21.875 15.9747 21.875 16.4062C21.875 16.8378 22.2247 17.1875 22.6562 17.1875H34.5312C34.9628 17.1875 35.3125 16.8378 35.3125 16.4062C35.3125 15.9747 34.9628 15.625 34.5312 15.625Z" fill="#16A34A"></path></g><defs><clipPath id="clip0_8066_19221"><rect width="40" height="40" fill="white"></rect></clipPath></defs></svg>