<svg xmlns="http://www.w3.org/2000/svg" width="25" height="25" viewBox="0 0 25 25" fill="none"><path d="M2.64062 16.5469C4.51562 14.625 7.04688 14.5312 8.78125 16.2188C10.4688 17.9531 10.375 20.4844 8.45312 22.3594C7.28125 23.5781 4.23438 24.1406 1 24C0.859375 20.7656 1.42188 17.7188 2.64062 16.5469ZM6.48438 20.4844C7.09375 19.8281 7.14062 18.9844 6.57812 18.4219C6.01562 17.8594 5.17188 17.9062 4.51562 18.5156C4.14062 18.9375 3.95312 19.9219 4 21C5.07812 21.0469 6.0625 20.8594 6.48438 20.4844ZM24.6719 0.9375C25 2.4375 25 3.60938 24.9531 4.78125C24.9531 9.60938 22.375 12.5156 18.9531 14.6719V19.5938C18.9531 20.3438 18.4375 21.2344 17.7344 21.6094L13.0938 23.9062C12.9531 23.9531 12.7656 24 12.625 24C11.9688 24 11.5 23.5312 11.5 22.875V18C11.5 15.5625 9.48438 13.5 7 13.5H2.125C1.46875 13.5 1 13.0312 1 12.375C1 12.2344 1.04688 12.0469 1.09375 11.9062L3.4375 7.26562C3.76562 6.5625 4.65625 6 5.40625 6H10.3281C12.4844 2.625 15.3906 0 20.2188 0C21.3906 0 22.5625 0 24.0625 0.328125C24.3438 0.421875 24.5781 0.65625 24.6719 0.9375ZM17.7812 12.7969C21.25 10.5938 22.7031 8.15625 22.7031 4.78125C22.75 3.98438 22.75 3.23438 22.6094 2.39062C21.7656 2.25 21.0625 2.25 20.2188 2.25C16.7969 2.25 14.4062 3.75 12.2031 7.21875C11.4531 8.4375 11.875 7.59375 9.76562 11.9062C11.2656 12.5625 12.4375 13.7344 13.0938 15.2344C17.4062 13.125 16.5625 13.5469 17.7812 12.7969ZM18.25 4.875C19.2812 4.92188 20.125 5.71875 20.125 6.75C20.125 7.82812 19.2812 8.625 18.25 8.625C17.1719 8.625 16.375 7.82812 16.375 6.75C16.375 5.71875 17.1719 4.92188 18.25 4.875Z" fill="#16A34A"></path></svg>