<svg xmlns="http://www.w3.org/2000/svg" width="32" height="31" viewBox="0 0 32 31" fill="none"><path d="M20.1016 7.54688C31.4688 14.5195 30.9414 23.7773 30.9414 24.8906C30.9414 28.1719 28.0703 30.75 24.5547 30.75H7.38672C3.87109 30.75 1 28.1719 1 24.8906C1 23.7773 0.414062 14.5781 11.8984 7.54688L8.61719 2.80078C8.5 2.625 8.5 2.39062 8.5 2.15625C8.5 1.39453 9.08594 0.75 9.90625 0.75H22.0938C22.8555 0.808594 23.4414 1.39453 23.4414 2.21484C23.4414 2.39062 23.4414 2.625 23.3242 2.80078L20.1016 7.54688ZM19.3984 3.5625H12.543L14.7695 6.84375H17.1719L19.3984 3.5625ZM28.1289 24.8906C28.1875 20.1445 26.1953 14.6367 18.168 9.65625H13.832C5.6875 14.6367 3.75391 20.1445 3.8125 24.8906C3.8125 26.5898 5.39453 27.9375 7.38672 27.9375H24.5547C26.5469 27.9375 28.1289 26.5898 28.1289 24.8906ZM17.6992 18.9727C18.8711 19.3242 19.75 20.4375 19.6914 21.7266C19.6914 23.25 18.5195 24.5391 16.9961 24.5391V25.5938C16.9961 25.8867 16.7617 26.0625 16.4688 26.0625H15.4727C15.1797 26.0625 14.9453 25.8867 14.9453 25.5938V24.5391C14.1836 24.5391 13.5391 24.2461 12.9531 23.8359C12.8359 23.7773 12.7773 23.6016 12.7773 23.4258C12.7773 23.3086 12.8359 23.1914 12.8945 23.0742L13.6562 22.3711C13.7734 22.3125 13.8906 22.2539 14.0078 22.2539C14.125 22.2539 14.2422 22.2539 14.3008 22.3125C14.5352 22.4883 14.8281 22.5469 15.1211 22.5469H16.9375C17.3477 22.5469 17.6406 22.1953 17.6406 21.7266C17.6406 21.375 17.4648 21.0234 17.1133 20.9062L14.2422 20.0859C13.0703 19.7344 12.25 18.6211 12.25 17.332C12.25 15.8086 13.4219 14.5195 14.9453 14.5195V13.4648C14.9453 13.1719 15.1797 12.9375 15.4727 12.9375H16.4688V12.9961C16.7617 12.9961 16.9961 13.1719 16.9961 13.4648V14.5195C17.7578 14.5195 18.4023 14.8125 18.9883 15.2227C19.1055 15.2812 19.1641 15.457 19.1641 15.6328C19.1641 15.75 19.1055 15.8672 19.0469 15.9844L18.2852 16.6875C18.168 16.7461 18.0508 16.8047 17.9336 16.8047C17.8164 16.8047 17.6992 16.8047 17.6406 16.7461C17.4062 16.5703 17.1133 16.5117 16.8203 16.5117H15.0039C14.5938 16.5117 14.3008 16.8633 14.3008 17.332C14.3008 17.6836 14.4766 18.0352 14.8281 18.1523L17.6992 18.9727Z" fill="#16A34A"></path></svg>