<svg xmlns="http://www.w3.org/2000/svg" width="40" height="40" viewBox="0 0 40 40" fill="none"><g clip-path="url(#clip0_8066_19185)"><path d="M35.9015 4.09851C33.2584 1.45569 29.7443 0 26.0065 0C22.2687 0 18.7549 1.45569 16.1118 4.09851C13.4686 6.74164 12.0132 10.2557 12.0132 13.9935C12.0132 17.338 13.1787 20.5032 15.3171 23.0255L12.4878 25.8548C11.0373 25.1071 9.20776 25.3403 7.99347 26.5546L1.12915 33.4192C0.401001 34.1473 0 35.1154 0 36.145C0 37.1747 0.401001 38.1427 1.12915 38.8708C1.8808 39.6222 2.86774 39.9982 3.85498 39.9982C4.84222 39.9982 5.82916 39.6222 6.58081 38.8708L13.4454 32.0062C14.1736 31.2784 14.5746 30.3104 14.5746 29.2804C14.5746 28.6545 14.4263 28.0511 14.1464 27.511L16.9745 24.6826C19.4971 26.8213 22.6624 27.9868 26.0068 27.9868C29.7446 27.9868 33.2587 26.5311 35.9015 23.8882C38.5443 21.2451 40 17.7313 40 13.9932C40 10.2557 38.5443 6.74164 35.9015 4.09851ZM11.788 30.3491L4.9234 37.2137C4.33441 37.8027 3.37555 37.8027 2.78625 37.2137C2.50092 36.9281 2.34375 36.5488 2.34375 36.145C2.34375 35.7413 2.50092 35.3619 2.78625 35.0763L9.65088 28.212C10.2399 27.6227 11.1987 27.6227 11.788 28.212C12.3773 28.8013 12.3773 29.7598 11.788 30.3491ZM34.2441 22.2308C32.0438 24.4312 29.1183 25.643 26.0065 25.643C22.8949 25.643 19.9695 24.4312 17.7692 22.2308C15.5688 20.0305 14.357 17.1051 14.357 13.9935C14.357 10.8817 15.5688 7.95624 17.7692 5.75592C19.9695 3.5556 22.8949 2.34375 26.0065 2.34375C29.1183 2.34375 32.0438 3.5556 34.2441 5.75592C36.4444 7.95624 37.6562 10.8817 37.6562 13.9932C37.6562 17.1051 36.4444 20.0305 34.2441 22.2308Z" fill="#16A34A"></path><path d="M20.0693 14.0713C19.4224 14.0713 18.8975 14.5959 18.8975 15.2432V18.9935C18.8975 19.6407 19.4224 20.1653 20.0693 20.1653C20.7166 20.1653 21.2412 19.6407 21.2412 18.9935V15.2432C21.2412 14.5959 20.7166 14.0713 20.0693 14.0713Z" fill="#16A34A"></path><path d="M23.9756 10.165C23.3286 10.165 22.8037 10.6896 22.8037 11.3369V18.9935C22.8037 19.6407 23.3286 20.1653 23.9756 20.1653C24.6229 20.1653 25.1475 19.6407 25.1475 18.9935V11.3369C25.1475 10.6896 24.6229 10.165 23.9756 10.165Z" fill="#16A34A"></path><path d="M27.8818 11.7275C27.2349 11.7275 26.71 12.2521 26.71 12.8994V18.9935C26.71 19.6407 27.2349 20.1653 27.8818 20.1653C28.5291 20.1653 29.0537 19.6407 29.0537 18.9935V12.8994C29.0537 12.2521 28.5291 11.7275 27.8818 11.7275Z" fill="#16A34A"></path><path d="M31.7881 7.82129C31.1411 7.82129 30.6162 8.34589 30.6162 8.99316V18.9935C30.6162 19.6407 31.1411 20.1653 31.7881 20.1653C32.4354 20.1653 32.96 19.6407 32.96 18.9935V8.99316C32.96 8.34589 32.4354 7.82129 31.7881 7.82129Z" fill="#16A34A"></path></g><defs><clipPath id="clip0_8066_19185"><rect width="40" height="40" fill="white"></rect></clipPath></defs></svg>