<svg xmlns="http://www.w3.org/2000/svg" width="21" height="21" viewBox="0 0 21 21" fill="none"><path d="M8.75 4.28906V3.625H8.67188C8.94531 3.11719 9.29688 2.6875 9.6875 2.29688C11.1719 0.773438 13.3203 0.1875 15.3906 0.695312C15.8984 0.8125 16.25 1.20312 16.4062 1.67188C16.5234 2.14062 16.4062 2.64844 16.0547 3L13.75 5.26562L13.9453 6.55469L15.2344 6.75L17.5391 4.44531C17.8516 4.13281 18.3594 3.97656 18.8672 4.09375C19.3359 4.25 19.6875 4.60156 19.8047 5.10938C20.3125 7.14062 19.6875 9.32812 18.2031 10.8125C17.8516 11.1641 17.4609 11.4766 17.0703 11.7109L15.8594 10.5C15.7812 10.4609 15.7031 10.3828 15.6641 10.3438C16.0938 10.1484 16.5234 9.875 16.875 9.48438C17.6953 8.70312 18.125 7.60938 18.125 6.51562L15.8594 8.74219L12.3438 8.15625L11.7578 4.64062L13.9844 2.41406H13.9453C12.8516 2.41406 11.7969 2.80469 11.0156 3.625C10.0391 4.60156 9.60938 5.96875 9.88281 7.33594L8.75 6.16406V4.28906ZM4.14062 18.2344L8.78906 13.5859C8.78906 14.3281 9.02344 15.0312 9.375 15.6562L5.46875 19.5625C4.84375 20.1875 4.02344 20.5 3.20312 20.5C2.34375 20.5 1.52344 20.1875 0.9375 19.5625C0.3125 18.9766 0 18.1562 0 17.2969C0 16.4766 0.3125 15.6562 0.9375 15.0312L6.17188 9.79688L7.5 11.125L2.22656 16.3594C1.99219 16.6328 1.83594 16.9453 1.83594 17.2969C1.83594 17.6484 1.99219 18 2.22656 18.2344C2.73438 18.7422 3.63281 18.7422 4.14062 18.2344ZM19.5703 15.9688C20.1172 16.5547 20.1172 17.4531 19.5703 18.0391L17.5 20.1094C16.9141 20.6562 16.0156 20.6562 15.4297 20.1094L10.8594 15.5C9.96094 14.6016 9.80469 13.2734 10.3125 12.1797L6.17188 8H3.75L0 3L2.5 0.5L7.5 4.25V6.71094L11.6406 10.8516C12.7344 10.3047 14.0625 10.5 15 11.3984L19.5703 15.9688Z" fill="white"></path></svg>