<svg xmlns="http://www.w3.org/2000/svg" width="37" height="40" viewBox="0 0 37 40" fill="none"><path d="M23.333 0H13.333C12.67 0 12.0341 0.263392 11.5652 0.732233C11.0964 1.20107 10.833 1.83696 10.833 2.5V9.16667C10.833 9.82971 11.0964 10.4656 11.5652 10.9344C12.0341 11.4033 12.67 11.6667 13.333 11.6667H23.333C23.996 11.6667 24.6319 11.4033 25.1008 10.9344C25.5696 10.4656 25.833 9.82971 25.833 9.16667V2.5C25.833 1.83696 25.5696 1.20107 25.1008 0.732233C24.6319 0.263392 23.996 0 23.333 0ZM24.1663 9.16667C24.1663 9.38768 24.0785 9.59964 23.9223 9.75592C23.766 9.9122 23.554 10 23.333 10H13.333C13.112 10 12.9 9.9122 12.7438 9.75592C12.5875 9.59964 12.4997 9.38768 12.4997 9.16667V2.5C12.4997 2.27899 12.5875 2.06702 12.7438 1.91074C12.9 1.75446 13.112 1.66667 13.333 1.66667H23.333C23.554 1.66667 23.766 1.75446 23.9223 1.91074C24.0785 2.06702 24.1663 2.27899 24.1663 2.5V9.16667Z" fill="#16A34A"></path><path d="M23.333 14.1667H13.333C12.67 14.1667 12.0341 14.4301 11.5652 14.899C11.0964 15.3678 10.833 16.0037 10.833 16.6667V23.3334C10.833 23.9965 11.0964 24.6323 11.5652 25.1012C12.0341 25.57 12.67 25.8334 13.333 25.8334H23.333C23.996 25.8334 24.6319 25.57 25.1008 25.1012C25.5696 24.6323 25.833 23.9965 25.833 23.3334V16.6667C25.833 16.0037 25.5696 15.3678 25.1008 14.899C24.6319 14.4301 23.996 14.1667 23.333 14.1667ZM24.1663 23.3334C24.1663 23.5544 24.0785 23.7664 23.9223 23.9227C23.766 24.079 23.554 24.1667 23.333 24.1667H13.333C13.112 24.1667 12.9 24.079 12.7438 23.9227C12.5875 23.7664 12.4997 23.5544 12.4997 23.3334V16.6667C12.4997 16.4457 12.5875 16.2338 12.7438 16.0775C12.9 15.9212 13.112 15.8334 13.333 15.8334H23.333C23.554 15.8334 23.766 15.9212 23.9223 16.0775C24.0785 16.2338 24.1663 16.4457 24.1663 16.6667V23.3334Z" fill="#16A34A"></path><path d="M23.333 28.3333H13.333C12.67 28.3333 12.0341 28.5966 11.5652 29.0655C11.0964 29.5343 10.833 30.1702 10.833 30.8333V37.4999C10.833 38.163 11.0964 38.7988 11.5652 39.2677C12.0341 39.7365 12.67 39.9999 13.333 39.9999H23.333C23.996 39.9999 24.6319 39.7365 25.1008 39.2677C25.5696 38.7988 25.833 38.163 25.833 37.4999V30.8333C25.833 30.1702 25.5696 29.5343 25.1008 29.0655C24.6319 28.5966 23.996 28.3333 23.333 28.3333ZM24.1663 37.4999C24.1663 37.7209 24.0785 37.9329 23.9223 38.0892C23.766 38.2455 23.554 38.3333 23.333 38.3333H13.333C13.112 38.3333 12.9 38.2455 12.7438 38.0892C12.5875 37.9329 12.4997 37.7209 12.4997 37.4999V30.8333C12.4997 30.6122 12.5875 30.4003 12.7438 30.244C12.9 30.0877 13.112 29.9999 13.333 29.9999H23.333C23.554 29.9999 23.766 30.0877 23.9223 30.244C24.0785 30.4003 24.1663 30.6122 24.1663 30.8333V37.4999Z" fill="#16A34A"></path><path d="M28.3333 5C28.1123 5 27.9004 5.0878 27.7441 5.24408C27.5878 5.40036 27.5 5.61232 27.5 5.83333C27.5 6.05435 27.5878 6.26631 27.7441 6.42259C27.9004 6.57887 28.1123 6.66667 28.3333 6.66667C36.2333 6.66667 37.2333 16.8083 30.6167 18.8833C30.75 18.7202 30.8166 18.5127 30.803 18.3024C30.7895 18.0922 30.6969 17.8949 30.5437 17.7502C30.3906 17.6056 30.1884 17.5243 29.9777 17.5227C29.7671 17.5211 29.5636 17.5993 29.4083 17.7417C27.8083 19.35 27.6583 19.4583 27.5667 19.6833C27.5029 19.8351 27.4854 20.0024 27.5166 20.164C27.5477 20.3257 27.626 20.4745 27.7417 20.5917C29.5583 22.4083 29.55 22.5 30 22.5C30.1655 22.501 30.3276 22.4526 30.4655 22.3611C30.6034 22.2696 30.711 22.1391 30.7745 21.9862C30.8379 21.8334 30.8545 21.6651 30.8219 21.5028C30.7893 21.3405 30.7092 21.1916 30.5917 21.075L30.2083 20.7C32.0223 20.3568 33.6597 19.3916 34.8386 17.9709C36.0175 16.5502 36.6639 14.7628 36.6667 12.9167C36.6667 8.86667 33.5667 5 28.3333 5Z" fill="#16A34A"></path><path d="M8.33333 20.8334C8.55435 20.8334 8.76631 20.7456 8.92259 20.5893C9.07887 20.4331 9.16667 20.2211 9.16667 20.0001C9.16667 19.7791 9.07887 19.5671 8.92259 19.4108C8.76631 19.2545 8.55435 19.1667 8.33333 19.1667C3.05 19.1667 0 23.0834 0 27.0834C0.00271719 28.9295 0.649195 30.7169 1.82807 32.1377C3.00694 33.5584 4.64439 34.5235 6.45833 34.8667L6.075 35.2417C5.91808 35.3987 5.82992 35.6115 5.82992 35.8334C5.82992 36.0553 5.91808 36.2682 6.075 36.4251C6.23192 36.582 6.44475 36.6702 6.66667 36.6702C6.88859 36.6702 7.10141 36.582 7.25833 36.4251C9.825 33.8501 9.825 34.4751 7.25833 31.9084C7.10304 31.7661 6.8996 31.6878 6.68894 31.6894C6.47829 31.691 6.27605 31.7723 6.12293 31.917C5.9698 32.0617 5.87716 32.259 5.86363 32.4692C5.85009 32.6794 5.91669 32.887 6.05 33.0501C4.58888 32.5921 3.34635 31.6144 2.5576 30.302C1.76884 28.9896 1.4886 27.4335 1.76991 25.9284C2.05123 24.4233 2.87458 23.0735 4.08412 22.1346C5.29366 21.1956 6.80545 20.7327 8.33333 20.8334Z" fill="#16A34A"></path><path d="M32.7421 31.9084L30.0005 34.6584L28.9255 33.5751C28.8478 33.4974 28.7555 33.4357 28.654 33.3937C28.5525 33.3516 28.4437 33.33 28.3338 33.33C28.2239 33.33 28.1151 33.3516 28.0136 33.3937C27.9121 33.4357 27.8198 33.4974 27.7421 33.5751C27.6644 33.6528 27.6028 33.745 27.5608 33.8465C27.5187 33.9481 27.4971 34.0569 27.4971 34.1667C27.4971 34.2766 27.5187 34.3854 27.5608 34.487C27.6028 34.5885 27.6644 34.6807 27.7421 34.7584C30.4838 37.4917 29.4088 37.5917 33.9255 33.0917C34.0032 33.014 34.0648 32.9218 34.1069 32.8203C34.1489 32.7188 34.1706 32.61 34.1706 32.5001C34.1706 32.3902 34.1489 32.2814 34.1069 32.1799C34.0648 32.0783 34.0032 31.9861 33.9255 31.9084C33.8478 31.8307 33.7555 31.7691 33.654 31.727C33.5525 31.685 33.4437 31.6633 33.3338 31.6633C33.2239 31.6633 33.1151 31.685 33.0136 31.727C32.9121 31.7691 32.8198 31.8307 32.7421 31.9084Z" fill="#16A34A"></path><path d="M7.25866 2.74166C7.18096 2.66396 7.08872 2.60233 6.9872 2.56028C6.88568 2.51823 6.77687 2.49658 6.66699 2.49658C6.55711 2.49658 6.4483 2.51823 6.34678 2.56028C6.24527 2.60233 6.15302 2.66396 6.07533 2.74166C5.91841 2.89858 5.83025 3.11141 5.83025 3.33333C5.83025 3.55524 5.91841 3.76807 6.07533 3.92499C6.40866 4.24999 7.09199 4.16666 2.50033 4.16666C2.27931 4.16666 2.06735 4.25446 1.91107 4.41074C1.75479 4.56702 1.66699 4.77898 1.66699 4.99999C1.66699 5.22101 1.75479 5.43297 1.91107 5.58925C2.06735 5.74553 2.27931 5.83333 2.50033 5.83333C6.90866 5.83333 6.42533 5.72499 6.07533 6.07499C5.91841 6.23191 5.83025 6.44474 5.83025 6.66666C5.83025 6.88858 5.91841 7.10141 6.07533 7.25833C6.23224 7.41525 6.44507 7.5034 6.66699 7.5034C6.88891 7.5034 7.10174 7.41525 7.25866 7.25833C9.81699 4.69166 9.80866 5.29999 7.25866 2.74166Z" fill="#16A34A"></path><path d="M21.667 3.33325H15.0003C14.7793 3.33325 14.5673 3.42105 14.4111 3.57733C14.2548 3.73361 14.167 3.94557 14.167 4.16659C14.167 4.3876 14.2548 4.59956 14.4111 4.75584C14.5673 4.91212 14.7793 4.99992 15.0003 4.99992H21.667C21.888 4.99992 22.1 4.91212 22.2562 4.75584C22.4125 4.59956 22.5003 4.3876 22.5003 4.16659C22.5003 3.94557 22.4125 3.73361 22.2562 3.57733C22.1 3.42105 21.888 3.33325 21.667 3.33325Z" fill="#16A34A"></path><path d="M20.0003 6.66675H15.0003C14.7793 6.66675 14.5673 6.75455 14.4111 6.91083C14.2548 7.06711 14.167 7.27907 14.167 7.50008C14.167 7.7211 14.2548 7.93306 14.4111 8.08934C14.5673 8.24562 14.7793 8.33341 15.0003 8.33341H20.0003C20.2213 8.33341 20.4333 8.24562 20.5896 8.08934C20.7459 7.93306 20.8337 7.7211 20.8337 7.50008C20.8337 7.27907 20.7459 7.06711 20.5896 6.91083C20.4333 6.75455 20.2213 6.66675 20.0003 6.66675Z" fill="#16A34A"></path><path d="M21.667 17.5H15.0003C14.7793 17.5 14.5673 17.5878 14.4111 17.7441C14.2548 17.9004 14.167 18.1123 14.167 18.3333C14.167 18.5543 14.2548 18.7663 14.4111 18.9226C14.5673 19.0789 14.7793 19.1667 15.0003 19.1667H21.667C21.888 19.1667 22.1 19.0789 22.2562 18.9226C22.4125 18.7663 22.5003 18.5543 22.5003 18.3333C22.5003 18.1123 22.4125 17.9004 22.2562 17.7441C22.1 17.5878 21.888 17.5 21.667 17.5Z" fill="#16A34A"></path><path d="M20.0003 20.8333H15.0003C14.7793 20.8333 14.5673 20.921 14.4111 21.0773C14.2548 21.2336 14.167 21.4456 14.167 21.6666C14.167 21.8876 14.2548 22.0996 14.4111 22.2558C14.5673 22.4121 14.7793 22.4999 15.0003 22.4999H20.0003C20.2213 22.4999 20.4333 22.4121 20.5896 22.2558C20.7459 22.0996 20.8337 21.8876 20.8337 21.6666C20.8337 21.4456 20.7459 21.2336 20.5896 21.0773C20.4333 20.921 20.2213 20.8333 20.0003 20.8333Z" fill="#16A34A"></path><path d="M21.667 31.6667H15.0003C14.7793 31.6667 14.5673 31.7545 14.4111 31.9108C14.2548 32.0671 14.167 32.2791 14.167 32.5001C14.167 32.7211 14.2548 32.9331 14.4111 33.0893C14.5673 33.2456 14.7793 33.3334 15.0003 33.3334H21.667C21.888 33.3334 22.1 33.2456 22.2562 33.0893C22.4125 32.9331 22.5003 32.7211 22.5003 32.5001C22.5003 32.2791 22.4125 32.0671 22.2562 31.9108C22.1 31.7545 21.888 31.6667 21.667 31.6667Z" fill="#16A34A"></path><path d="M20.0003 35H15.0003C14.7793 35 14.5673 35.0878 14.4111 35.2441C14.2548 35.4004 14.167 35.6123 14.167 35.8333C14.167 36.0543 14.2548 36.2663 14.4111 36.4226C14.5673 36.5789 14.7793 36.6667 15.0003 36.6667H20.0003C20.2213 36.6667 20.4333 36.5789 20.5896 36.4226C20.7459 36.2663 20.8337 36.0543 20.8337 35.8333C20.8337 35.6123 20.7459 35.4004 20.5896 35.2441C20.4333 35.0878 20.2213 35 20.0003 35Z" fill="#16A34A"></path></svg>