<svg xmlns="http://www.w3.org/2000/svg" width="116" height="30" viewBox="0 0 116 30" fill="none"><g clip-path="url(#clip0_2196_13467)"><mask id="mask0_2196_13467" style="mask-type:luminance" maskUnits="userSpaceOnUse" x="2" y="4" width="14" height="8"><path d="M2.40039 4.3291L6.82436 11.6516H15.6061L11.1135 4.3291H2.40039Z" fill="white"></path></mask><g mask="url(#mask0_2196_13467)"><path d="M18.0062 5.22602L13.9893 15.9808L0 10.7561L4.01693 0L18.0062 5.22602Z" fill="url(#paint0_linear_2196_13467)"></path></g><mask id="mask1_2196_13467" style="mask-type:luminance" maskUnits="userSpaceOnUse" x="2" y="11" width="14" height="8"><path d="M6.82436 11.6523L2.40039 18.9749H11.1135L15.6061 11.6523H6.82436Z" fill="white"></path></mask><g mask="url(#mask1_2196_13467)"><path d="M18.0062 12.5493L13.9893 23.3041L0 18.0781L4.01693 7.32324L18.0062 12.5493Z" fill="url(#paint1_linear_2196_13467)"></path></g><mask id="mask2_2196_13467" style="mask-type:luminance" maskUnits="userSpaceOnUse" x="15" y="11" width="14" height="8"><path d="M15.606 11.6523L20.0999 18.9749H28.8117L24.3877 11.6523H15.606Z" fill="white"></path></mask><g mask="url(#mask2_2196_13467)"><path d="M31.2118 12.5493L27.1949 23.3041L13.2056 18.0781L17.2225 7.32324L31.2118 12.5493Z" fill="url(#paint2_linear_2196_13467)"></path></g><mask id="mask3_2196_13467" style="mask-type:luminance" maskUnits="userSpaceOnUse" x="15" y="4" width="14" height="8"><path d="M20.0999 4.3291L15.606 11.6516H24.3877L28.8117 4.3291H20.0999Z" fill="white"></path></mask><g mask="url(#mask3_2196_13467)"><path d="M31.2118 5.22602L27.1949 15.9808L13.2056 10.7561L17.2225 0L31.2118 5.22602Z" fill="url(#paint3_linear_2196_13467)"></path></g><mask id="mask4_2196_13467" style="mask-type:luminance" maskUnits="userSpaceOnUse" x="9" y="19" width="13" height="8"><path d="M15.6076 26.0286L21.6648 19.9706L9.54785 19.9668L15.6076 26.0286Z" fill="white"></path></mask><g mask="url(#mask4_2196_13467)"><path d="M23.6517 20.7097L20.1817 30.0003L7.56104 25.2857L11.031 15.9951L23.6517 20.7097Z" fill="#B7A2FC"></path></g><mask id="mask5_2196_13467" style="mask-type:luminance" maskUnits="userSpaceOnUse" x="29" y="4" width="19" height="17"><path d="M34.8692 4.99092C33.7791 5.43236 32.8353 6.04554 32.0391 6.83046C31.3229 7.53396 30.7811 8.34305 30.4122 9.259C30.0433 10.1762 29.8589 11.1711 29.8589 12.2473C29.8589 14.4532 30.5801 16.2724 32.0225 17.7049C32.8188 18.4898 33.7588 19.1004 34.8438 19.5342C35.9288 19.968 37.1054 20.1856 38.3748 20.1856C39.713 20.1856 40.9417 19.968 42.0623 19.5342C43.1817 19.1004 44.1395 18.4974 44.9357 17.7252C46.4354 16.2648 47.1859 14.3896 47.1859 12.1023V11.2334H37.735V14.1275H43.81C43.6027 14.5817 43.3229 15.0028 42.9705 15.3883C42.6182 15.7737 42.2086 16.1083 41.7418 16.3907C41.275 16.6731 40.7547 16.8907 40.1836 17.0421C39.6125 17.1934 39.0096 17.2698 38.3748 17.2698C37.6473 17.2698 36.9706 17.1591 36.3409 16.939C35.7113 16.7189 35.1605 16.4225 34.6873 16.0498C33.4637 15.0855 32.8531 13.8171 32.8531 12.246C32.8531 11.5298 32.9854 10.8683 33.2513 10.2615C33.5171 9.65465 33.8924 9.12797 34.377 8.68017C34.8616 8.23237 35.4416 7.88126 36.1158 7.62556C36.7912 7.37112 37.5379 7.24264 38.357 7.24264C39.2105 7.24264 39.9864 7.40802 40.6848 7.73878C41.3831 8.06954 41.9911 8.55932 42.5113 9.20685L45.6786 7.8838C44.9052 6.71215 43.9067 5.82673 42.6843 5.22754C41.4607 4.62835 40.0246 4.32812 38.3748 4.32812C37.1283 4.3294 35.9593 4.55075 34.8692 4.99092Z" fill="white"></path></mask><g mask="url(#mask5_2196_13467)"><path d="M47.1846 4.3291H29.8589V20.1865H47.1846V4.3291Z" fill="white" fill-opacity="0.65"></path></g><mask id="mask6_2196_13467" style="mask-type:luminance" maskUnits="userSpaceOnUse" x="50" y="4" width="15" height="16"><path d="M50.2295 4.78516V19.7534H64.3015V16.8999H53.2759V13.5923H60.5974V10.7388H53.2759V7.63733H63.8168V4.78516H50.2295Z" fill="white"></path></mask><g mask="url(#mask6_2196_13467)"><path d="M64.3015 4.78516H50.2295V19.7534H64.3015V4.78516Z" fill="white" fill-opacity="0.65"></path></g><mask id="mask7_2196_13467" style="mask-type:luminance" maskUnits="userSpaceOnUse" x="64" y="4" width="19" height="16"><path d="M79.1175 4.78516L73.7001 15.7422L68.2828 4.78516H64.8726L72.2806 19.7534H75.1184L82.5264 4.78516H79.1175Z" fill="white"></path></mask><g mask="url(#mask7_2196_13467)"><path d="M82.5264 4.78516H64.8726V19.7534H82.5264V4.78516Z" fill="white" fill-opacity="0.65"></path></g><mask id="mask8_2196_13467" style="mask-type:luminance" maskUnits="userSpaceOnUse" x="81" y="4" width="18" height="16"><path d="M89.5887 7.53429L92.3413 13.675H86.8374L89.5887 7.53429ZM87.7367 4.78516L81.0728 19.7534H84.1535L85.5896 16.5284H93.6209L95.0582 19.7534H98.139L91.4916 4.78516H87.7367Z" fill="white"></path></mask><g mask="url(#mask8_2196_13467)"><path d="M98.139 4.78516H81.0728V19.7534H98.139V4.78516Z" fill="white" fill-opacity="0.65"></path></g><mask id="mask9_2196_13467" style="mask-type:luminance" maskUnits="userSpaceOnUse" x="100" y="4" width="16" height="16"><path d="M103.054 7.63733H108.61C109.222 7.63733 109.784 7.75564 110.298 7.98972C110.81 8.22507 111.252 8.55456 111.622 8.97691C111.991 9.39927 112.279 9.9005 112.487 10.4819C112.694 11.0632 112.798 11.693 112.798 12.3723C112.798 13.3137 112.539 14.1788 112.02 14.9688C111.627 15.5641 111.128 16.0348 110.523 16.3809C109.917 16.7269 109.285 16.8999 108.628 16.8999H103.054V7.63733ZM100.007 4.78516V19.7534H108.835C109.793 19.7534 110.696 19.588 111.543 19.2572C112.391 18.9264 113.133 18.4583 113.766 17.8515C115.255 16.4457 116 14.6406 116 12.4346C116 11.291 115.824 10.2465 115.472 9.30258C115.12 8.35864 114.615 7.5521 113.957 6.88421C113.3 6.21633 112.503 5.69856 111.568 5.33346C110.633 4.96835 109.584 4.78516 108.419 4.78516H100.007Z" fill="white"></path></mask><g mask="url(#mask9_2196_13467)"><path d="M116 4.78516H100.007V19.7534H116V4.78516Z" fill="white" fill-opacity="0.65"></path></g></g><defs><linearGradient id="paint0_linear_2196_13467" x1="18.0062" y1="7.99042" x2="0" y2="7.99042" gradientUnits="userSpaceOnUse"><stop stop-color="#B7A2FC"></stop><stop offset="1" stop-color="#6D5CD8"></stop></linearGradient><linearGradient id="paint1_linear_2196_13467" x1="18.0062" y1="15.3137" x2="0" y2="15.3137" gradientUnits="userSpaceOnUse"><stop stop-color="#B7A2FC"></stop><stop offset="1" stop-color="#6D5CD8"></stop></linearGradient><linearGradient id="paint2_linear_2196_13467" x1="31.2118" y1="15.3137" x2="13.2056" y2="15.3137" gradientUnits="userSpaceOnUse"><stop stop-color="#B7A2FC"></stop><stop offset="1" stop-color="#6D5CD8"></stop></linearGradient><linearGradient id="paint3_linear_2196_13467" x1="31.2118" y1="7.99042" x2="13.2056" y2="7.99042" gradientUnits="userSpaceOnUse"><stop stop-color="#B7A2FC"></stop><stop offset="1" stop-color="#6D5CD8"></stop></linearGradient><clipPath id="clip0_2196_13467"><rect width="116" height="30" fill="white"></rect></clipPath></defs></svg>