<svg width="40" height="39" viewBox="0 0 40 39" fill="none" xmlns="http://www.w3.org/2000/svg">
<path d="M39.7858 16.6771C39.7286 16.2682 39.3859 15.9336 38.9669 15.8965L34.3204 15.3203C34.0348 14.3723 33.6348 13.4616 33.1588 12.588L36.0343 8.98213C36.3009 8.64756 36.3009 8.20148 36.0343 7.86691C34.8727 6.34278 33.5015 5.00453 31.94 3.87073C31.5972 3.6291 31.1212 3.6291 30.7784 3.87073L27.084 6.67735C26.189 6.21268 25.2559 5.82235 24.2847 5.54355L23.6944 1.00834C23.6372 0.599428 23.3135 0.264864 22.8946 0.209103C20.9712 -0.0697009 19.0288 -0.0697009 17.1054 0.209103C16.6865 0.264864 16.3437 0.599428 16.3056 1.00834L15.7153 5.54355C14.7441 5.82235 13.811 6.21268 12.916 6.67735L9.22161 3.87073C8.87884 3.61051 8.4218 3.61051 8.05999 3.87073C6.49845 5.00453 5.12735 6.34278 3.96572 7.86691C3.71816 8.20148 3.71816 8.66615 3.96572 8.98213L6.84123 12.588C6.36515 13.4616 5.96525 14.3723 5.6796 15.3203L1.03309 15.8965C0.614139 15.9522 0.271364 16.2682 0.214235 16.6771C-0.0714116 18.5544 -0.0714116 20.4503 0.214235 22.3275C0.271364 22.7364 0.614139 23.071 1.03309 23.1082L5.6796 23.6844C5.96525 24.6323 6.36515 25.5431 6.84123 26.4167L3.96572 30.0225C3.69912 30.3571 3.69912 30.8032 3.96572 31.1377C5.12735 32.6619 6.49845 34.0001 8.05999 35.1339C8.40276 35.3941 8.87884 35.3756 9.22161 35.1339L12.916 32.3273C13.811 32.792 14.7441 33.1823 15.7153 33.4611L16.3056 37.9963C16.3628 38.4052 16.6865 38.7398 17.1054 38.7955C18.0576 38.9257 19.0288 39 20 39C20.9712 39 21.9424 38.9257 22.8946 38.7955C23.3135 38.7398 23.6563 38.4052 23.6944 37.9963L24.2847 33.4611C25.2559 33.1823 26.189 32.792 27.084 32.3273L30.7784 35.1339C31.1212 35.3941 31.5972 35.3941 31.94 35.1339C33.5015 34.0001 34.8727 32.6619 36.0343 31.1377C36.2818 30.8032 36.2818 30.3385 36.0343 30.0225L33.1588 26.4167C33.6348 25.5431 34.0348 24.6323 34.3204 23.6844L38.9669 23.1082C39.3859 23.0524 39.7286 22.7364 39.7858 22.3275C40.0714 20.4503 40.0714 18.5544 39.7858 16.6771ZM37.9957 21.361L33.4635 21.9186C33.0826 21.9744 32.7589 22.2346 32.6637 22.6063C32.359 23.8145 31.8638 24.9483 31.2164 26.0077C31.0069 26.3423 31.045 26.7512 31.2735 27.0486L34.0728 30.5801C33.273 31.5466 32.359 32.4388 31.3687 33.2195L27.7505 30.4872C27.4458 30.2456 27.0079 30.227 26.6841 30.4314C25.5987 31.0634 24.418 31.5466 23.1992 31.844C22.8184 31.937 22.5327 32.2529 22.4946 32.6247L21.9234 37.067C20.6475 37.1971 19.3716 37.1971 18.1147 37.067L17.5434 32.6247C17.4863 32.2529 17.2197 31.937 16.8388 31.844C15.6201 31.5466 14.4394 31.0634 13.354 30.4314C13.0112 30.227 12.5922 30.2642 12.2876 30.4872L8.66936 33.2195C7.67912 32.4388 6.7841 31.5652 5.96525 30.5801L8.76458 27.0486C9.01214 26.7512 9.03118 26.3237 8.82171 26.0077C8.17424 24.9483 7.67912 23.7959 7.37443 22.6063C7.27922 22.2346 6.95549 21.9558 6.57463 21.9186L2.04237 21.361C1.90907 20.1157 1.90907 18.8704 2.04237 17.6436L6.57463 17.086C6.95549 17.0303 7.27922 16.77 7.37443 16.3983C7.67912 15.1902 8.17424 14.0564 8.82171 12.9969C9.03118 12.6623 8.9931 12.2534 8.76458 11.956L5.96525 8.42452C6.76506 7.458 7.67912 6.56583 8.66936 5.78518L12.2876 8.51746C12.5922 8.75908 13.0112 8.77767 13.354 8.57322C14.4394 7.94126 15.6201 7.458 16.8388 7.16061C17.2197 7.06768 17.5054 6.7517 17.5434 6.37996L18.1147 1.93769C19.3906 1.80758 20.6665 1.80758 21.9234 1.93769L22.4946 6.37996C22.5518 6.7517 22.8184 7.06768 23.1992 7.16061C24.418 7.458 25.5987 7.94126 26.6841 8.57322C27.0269 8.77767 27.4458 8.7405 27.7505 8.51746L31.3687 5.78518C32.359 6.56583 33.254 7.43941 34.0728 8.42452L31.2735 11.956C31.0259 12.2534 31.0069 12.6809 31.2164 12.9969C31.8638 14.0564 32.359 15.2087 32.6637 16.3983C32.7589 16.77 33.0826 17.0489 33.4635 17.086L37.9957 17.6436C38.129 18.889 38.129 20.1343 37.9957 21.361Z" fill="#004FFC"/>
<path d="M29.5226 18.5728H27.6183V17.6434H28.5704C29.1036 17.6434 29.5226 17.2345 29.5226 16.7141C29.5226 16.1936 29.1036 15.7847 28.5704 15.7847H27.6183V14.8925C27.6183 13.3312 26.3233 12.0673 24.7237 12.0673H23.8097V11.138C23.8097 10.6176 23.3907 10.2086 22.8575 10.2086C22.3243 10.2086 21.9053 10.6176 21.9053 11.138V12.0673H20.9532V10.2086C20.9532 9.68821 20.5342 9.2793 20.001 9.2793C19.4678 9.2793 19.0489 9.68821 19.0489 10.2086V12.0673H18.0967V11.138C18.0967 10.6176 17.6778 10.2086 17.1446 10.2086C16.6114 10.2086 16.1924 10.6176 16.1924 11.138V12.0673H15.2784C13.6787 12.0673 12.3838 13.3312 12.3838 14.8925V15.7847H11.4317C10.8984 15.7847 10.4795 16.1936 10.4795 16.7141C10.4795 17.2345 10.8984 17.6434 11.4317 17.6434H12.3838V18.5728H10.4795C9.94629 18.5728 9.52734 18.9817 9.52734 19.5021C9.52734 20.0225 9.94629 20.4314 10.4795 20.4314H12.3838V21.3608H11.4317C10.8984 21.3608 10.4795 21.7697 10.4795 22.2901C10.4795 22.8106 10.8984 23.2195 11.4317 23.2195H12.3838V24.1117C12.3838 25.673 13.6787 26.9369 15.2784 26.9369H16.1924V27.8662C16.1924 28.3866 16.6114 28.7956 17.1446 28.7956C17.6778 28.7956 18.0967 28.3866 18.0967 27.8662V26.9369H19.0489V28.7956C19.0489 29.316 19.4678 29.7249 20.001 29.7249C20.5342 29.7249 20.9532 29.316 20.9532 28.7956V26.9369H21.9053V27.8662C21.9053 28.3866 22.3243 28.7956 22.8575 28.7956C23.3907 28.7956 23.8097 28.3866 23.8097 27.8662V26.9369H24.7237C26.3233 26.9369 27.6183 25.673 27.6183 24.1117V23.2195H28.5704C29.1036 23.2195 29.5226 22.8106 29.5226 22.2901C29.5226 21.7697 29.1036 21.3608 28.5704 21.3608H27.6183V20.4314H29.5226C30.0558 20.4314 30.4747 20.0225 30.4747 19.5021C30.4747 18.9817 30.0558 18.5728 29.5226 18.5728ZM25.714 24.1117C25.714 24.6507 25.276 25.0782 24.7237 25.0782H15.2784C14.7261 25.0782 14.2881 24.6507 14.2881 24.1117V14.8925C14.2881 14.3535 14.7261 13.926 15.2784 13.926H24.7237C25.276 13.926 25.714 14.3535 25.714 14.8925V24.1117Z" fill="#004FFC"/>
<path d="M18.647 16.1016C17.1807 16.1016 16 17.254 16 18.6851V21.9936C16 22.514 16.4189 22.923 16.9522 22.923C17.4854 22.923 17.9043 22.514 17.9043 21.9936V21.436H19.3897V21.9936C19.3897 22.514 19.8086 22.923 20.3418 22.923C20.875 22.923 21.294 22.514 21.294 21.9936V18.6851C21.294 17.254 20.1133 16.1016 18.647 16.1016ZM17.9043 19.5587V18.6666C17.9043 18.2762 18.228 17.9417 18.647 17.9417C19.0659 17.9417 19.3897 18.2576 19.3897 18.6666V19.5587H17.9043Z" fill="#004FFC"/>
<path d="M23.0459 16.1016C22.5127 16.1016 22.0938 16.5105 22.0938 17.0309V21.9936C22.0938 22.514 22.5127 22.923 23.0459 22.923C23.5791 22.923 23.9981 22.514 23.9981 21.9936V17.0309C23.9981 16.5105 23.5791 16.1016 23.0459 16.1016Z" fill="#004FFC"/>
</svg>
