<svg width="40" height="40" viewBox="0 0 40 40" fill="none" xmlns="http://www.w3.org/2000/svg">
<path d="M24.7857 31.7693L31.5199 38.5035C33.3905 40.3741 36.6329 40.3741 38.5035 38.5035C40.4988 36.6329 40.4988 33.3905 38.5035 31.5199L31.7693 24.7857C33.0164 22.4162 33.7646 19.6726 33.7646 16.8044C33.7646 16.3055 33.7646 15.8067 33.6399 15.4326L38.2541 10.8184C38.7529 10.3196 38.7529 9.57132 38.2541 9.07249C37.7553 8.57366 37.007 8.57366 36.5082 9.07249L33.1411 12.4396C32.3928 9.57132 30.8963 7.07716 28.7763 4.95713C22.1668 -1.65238 11.5666 -1.65238 4.95713 4.95713C-1.65238 11.5666 -1.65238 22.1668 4.95713 28.7763C10.4443 34.2634 18.5503 35.1364 24.7857 31.7693ZM36.6329 33.2658C37.6306 34.2634 37.6306 35.7599 36.6329 36.7576C35.6352 37.7553 34.1387 37.7553 33.1411 36.7576L26.781 30.3975C27.4045 29.8987 28.0281 29.3998 28.6516 28.7763C29.2751 28.1528 29.774 27.5292 30.2728 26.9057L36.6329 33.2658ZM6.70304 6.70304C12.3149 1.09119 21.4186 1.09119 27.0304 6.70304C29.1504 8.82307 30.5222 11.5666 31.021 14.5596L28.5269 17.0538L24.4115 12.9384C23.9127 12.4396 23.1645 12.4396 22.6656 12.9384L16.1808 19.4232L13.3125 16.5549C12.8137 16.0561 12.0655 16.0561 11.5666 16.5549L6.57833 21.5433C6.0795 22.0421 6.0795 22.7903 6.57833 23.2892C7.07716 23.788 7.82541 23.788 8.32424 23.2892L12.4396 19.1738C14.3102 20.6703 15.682 23.4139 17.0538 22.0421L23.5386 15.5573L27.6539 19.6726C28.1528 20.1715 28.901 20.1715 29.3998 19.6726L31.1458 17.9267C30.8963 21.4185 29.3998 24.5362 27.0304 27.0304C21.4186 32.6422 12.3149 32.6422 6.70304 27.0304C1.09119 21.4186 1.09119 12.3149 6.70304 6.70304Z" fill="#004FFC"/>
</svg>
