<svg width="35" height="35" viewBox="0 0 35 35" fill="none" xmlns="http://www.w3.org/2000/svg">
<g clip-path="url(#clip0_6034_38442)">
<path d="M14.4236 10.5956C6.50802 10.5956 7.19889e-05 16.0388 7.19889e-05 22.7298C7.19889e-05 25.4043 1.03749 28.1225 2.94 30.2293L0.253412 33.2994C-0.0109339 33.6018 -0.075055 34.0314 0.0922204 34.3978C0.25847 34.7643 0.622963 34.9997 1.02546 34.9997H15.4489C21.2933 34.9997 28.847 29.9671 28.847 22.7298C28.847 16.0388 22.3391 10.5956 14.4236 10.5956ZM8.20299 24.6093C7.07246 24.6093 6.15228 23.689 6.15228 22.5585C6.15228 21.428 7.07253 20.5078 8.20299 20.5078C9.33345 20.5078 10.2537 21.4281 10.2537 22.5585C10.2538 23.689 9.33352 24.6093 8.20299 24.6093ZM14.4236 24.6093C13.293 24.6093 12.3728 23.689 12.3728 22.5585C12.3728 21.428 13.2931 20.5078 14.4236 20.5078C15.554 20.5078 16.4743 21.4281 16.4743 22.5585C16.4743 23.689 15.5541 24.6093 14.4236 24.6093ZM20.6441 24.6093C19.5136 24.6093 18.5934 23.689 18.5934 22.5585C18.5934 21.428 19.5137 20.5078 20.6441 20.5078C21.7746 20.5078 22.6948 21.4281 22.6948 22.5585C22.6948 23.689 21.7747 24.6093 20.6441 24.6093Z" fill="#004FFC"/>
<path d="M34.7511 20.8648L32.337 18.048C34.0602 16.1035 34.9985 13.7322 34.9985 11.279C34.9985 5.05976 29.0185 0 21.6687 0C15.0225 0 9.37593 4.14183 8.37891 9.53272C10.2334 8.90258 12.3131 8.54438 14.4228 8.54438C23.402 8.54438 30.7792 14.816 30.8871 22.558H33.9731C34.849 22.5581 35.3194 21.5267 34.7511 20.8648Z" fill="#004FFC"/>
</g>
<defs>
<clipPath id="clip0_6034_38442">
<rect width="35" height="35" fill="white"/>
</clipPath>
</defs>
</svg>
