<svg width="45" height="33" viewBox="0 0 45 33" fill="none" xmlns="http://www.w3.org/2000/svg">
<g clip-path="url(#clip0_6034_40674)">
<path d="M37.4377 2.7965C42.3107 9.98211 44.7173 18.0873 43.8176 27.4182C43.8139 27.4577 43.7934 27.4939 43.761 27.5177C40.0708 30.2353 36.4954 31.8846 32.9703 32.9783C32.9428 32.9867 32.9134 32.9862 32.8863 32.977C32.8591 32.9678 32.8355 32.9503 32.8187 32.9269C32.0043 31.7905 31.2643 30.5923 30.616 29.3341C30.5788 29.26 30.6128 29.1708 30.6894 29.1416C31.8646 28.6975 32.9821 28.1652 34.0571 27.535C34.1417 27.4853 34.1471 27.3636 34.0689 27.3051C33.8408 27.1353 33.6148 26.9568 33.3985 26.7783C33.3581 26.7453 33.3036 26.7388 33.2577 26.761C26.2791 29.993 18.6344 29.993 11.5732 26.761C11.5274 26.7404 11.4729 26.7474 11.4335 26.7799C11.2178 26.9584 10.9913 27.1353 10.7653 27.3051C10.6871 27.3636 10.6936 27.4853 10.7788 27.535C11.8537 28.1533 12.9712 28.6975 14.1449 29.1437C14.2209 29.1729 14.257 29.26 14.2193 29.3341C13.585 30.5939 12.845 31.7921 12.0155 32.9286C11.9794 32.9745 11.92 32.9956 11.8639 32.9783C8.35549 31.8846 4.78015 30.2353 1.08992 27.5177C1.05918 27.4939 1.03707 27.456 1.03383 27.4166C0.281981 19.3455 1.81427 11.1732 7.40785 2.79488C7.42133 2.7727 7.44183 2.75539 7.46556 2.74511C10.2179 1.47827 13.1665 0.546266 16.2483 0.013999C16.3044 0.00534427 16.3605 0.0313085 16.3896 0.0810733C16.7704 0.757226 17.2057 1.62432 17.5001 2.33293C20.7486 1.83528 24.0478 1.83528 27.3643 2.33293C27.6588 1.63947 28.0789 0.757226 28.4581 0.0810733C28.4716 0.0563855 28.4925 0.036607 28.5179 0.0245615C28.5433 0.0125159 28.5718 0.00881917 28.5994 0.013999C31.6828 0.547889 34.6315 1.4799 37.3816 2.74511C37.4059 2.75539 37.4258 2.7727 37.4377 2.7965ZM19.1516 18.1425C19.1856 15.7564 17.4511 13.7821 15.2737 13.7821C13.1142 13.7821 11.3963 15.7391 11.3963 18.1425C11.3963 20.5452 13.1481 22.5023 15.2737 22.5023C17.4338 22.5023 19.1516 20.5452 19.1516 18.1425ZM33.4886 18.1425C33.5226 15.7564 31.788 13.7821 29.6112 13.7821C27.4511 13.7821 25.7333 15.7391 25.7333 18.1425C25.7333 20.5452 27.4851 22.5023 29.6112 22.5023C31.788 22.5023 33.4886 20.5452 33.4886 18.1425Z" fill="#5865F2"/>
</g>
<defs>
<clipPath id="clip0_6034_40674">
<rect width="45" height="33" fill="white"/>
</clipPath>
</defs>
</svg>
