<svg width="40" height="40" viewBox="0 0 40 40" fill="none" xmlns="http://www.w3.org/2000/svg">
<path d="M24.5331 37.9045C24.5185 37.7764 24.4822 37.6491 24.4104 37.5318C24.1458 37.1045 23.5858 36.9709 23.1595 37.2345C22.4277 37.6855 21.6741 37.97 20.9086 38.0982V29.09H22.3722C22.8749 29.09 23.2813 28.6827 23.2813 28.1809C23.2813 27.6791 22.8749 27.2718 22.3722 27.2718H20.9086V20.9082H23.0449C23.5476 20.9082 23.954 20.5009 23.954 19.9991C23.954 19.4973 23.5476 19.09 23.0449 19.09H20.9086V12.7264H29.1584C29.6957 14.9555 29.9993 17.4127 29.9993 19.9991C29.9993 20.5009 30.4057 20.9082 30.9084 20.9082H38.1346C38.0873 21.8436 37.9919 22.7736 37.801 23.6745C37.6973 24.1655 38.011 24.6482 38.5019 24.7527C38.9928 24.8582 39.4755 24.5427 39.58 24.0518C39.8591 22.7355 40 21.3718 40 20C40 8.97182 31.0284 0 20.0005 0C8.97252 0 0 8.97182 0 20C0 31.0282 8.97161 40 19.9995 40C21.4441 40 22.8649 39.8464 24.2249 39.5418C24.714 39.4318 25.0231 38.9464 24.9131 38.4564C24.8603 38.22 24.7185 38.03 24.5331 37.9045ZM19.0905 38.0982C15.7824 37.5527 12.9415 34.0655 11.3525 29.0909H19.0905V38.0982ZM19.0905 27.2727H10.8407C10.367 25.3082 10.087 23.1609 10.0252 20.9091H19.0905V27.2727ZM1.8645 20.9091H8.208C8.26527 23.1555 8.52799 25.2936 8.97252 27.2727H3.3472C2.4854 25.3082 1.97632 23.1609 1.8645 20.9091ZM3.3472 12.7273H8.97252C8.52799 14.7064 8.26527 16.8445 8.208 19.0909H1.8645C1.97632 16.8391 2.4854 14.6918 3.3472 12.7273ZM19.0905 19.0909H10.0252C10.087 16.8391 10.367 14.6918 10.8407 12.7273H19.0905V19.0909ZM19.0905 1.90182V10.9091H11.3525C12.9406 5.93455 15.7824 2.44727 19.0905 1.90182ZM20.9086 10.9091V1.90182C24.2167 2.44727 27.0576 5.93455 28.6466 10.9091H20.9086ZM31.0275 12.7273H36.6528C37.5146 14.6918 38.0237 16.8391 38.1355 19.0909H31.8065C31.7502 16.8418 31.4729 14.7091 31.0275 12.7273ZM35.721 10.9091H30.5557C29.5802 7.60636 28.0866 4.85727 26.2385 2.94455C30.252 4.41818 33.6011 7.25818 35.721 10.9091ZM13.7706 2.94091C11.9179 4.85455 10.4189 7.60182 9.44251 10.9091H4.27808C6.39985 7.25455 9.75342 4.41273 13.7706 2.94091ZM4.27808 29.0909H9.44251C10.4198 32.3982 11.9179 35.1464 13.7706 37.0591C9.75251 35.5873 6.39985 32.7455 4.27808 29.0909Z" fill="#004FFC"/>
<path d="M38.9667 27.0213L27.2152 21.3794C26.6261 21.0967 25.9234 21.1531 25.3861 21.5285C24.848 21.9049 24.5543 22.544 24.618 23.1967L25.8997 36.1694C25.9707 36.8931 26.4443 37.4858 27.1343 37.7158C27.8261 37.9458 28.5579 37.754 29.0488 37.2185L30.6815 35.4349L32.8132 38.4776C33.2305 39.0749 33.855 39.4731 34.5741 39.5995C34.7341 39.6276 34.8941 39.6413 35.0523 39.6413C35.6068 39.6413 36.1477 39.4722 36.6113 39.1476L38.1013 38.1049C39.3322 37.2422 39.634 35.5385 38.7713 34.3067L36.6395 31.2631L38.8731 30.3394C39.5458 30.0613 39.9767 29.4367 39.9958 28.7094C40.0158 27.9822 39.6213 27.3349 38.9649 27.0204L38.9667 27.0213ZM34.8986 30.0167C34.6441 30.1222 34.4505 30.3376 34.3732 30.6022C34.2959 30.8676 34.3432 31.1522 34.5014 31.3785L37.2831 35.3504C37.5704 35.7613 37.4704 36.3294 37.0604 36.6167L35.5704 37.6594C35.3714 37.7985 35.1295 37.854 34.8905 37.8104C34.6514 37.7685 34.4441 37.6358 34.3041 37.4367L31.5223 33.4649C31.3642 33.2385 31.1124 33.0976 30.8369 33.0794C30.8169 33.0785 30.7969 33.0776 30.7778 33.0776C30.5242 33.0776 30.2796 33.184 30.1078 33.3731L27.7097 35.9922L26.4279 23.0185L38.1804 28.6604L34.8995 30.0176L34.8986 30.0167Z" fill="#004FFC"/>
</svg>
