<svg width="43" height="45" viewBox="0 0 43 45" fill="none" xmlns="http://www.w3.org/2000/svg">
<g clip-path="url(#clip0_6034_40653)">
<path d="M9.75887 23.9713V9.5293H3.39049C1.51585 9.5293 0 11.0401 0 12.8976V42.7502C0 44.2522 1.82979 44.9987 2.89716 43.9412L9.90238 37.0001H29.8506C31.7253 37.0001 33.2411 35.4982 33.2411 33.6407V27.3307H13.1583C11.2837 27.3307 9.75887 25.8287 9.75887 23.9713Z" fill="#00AC47"/>
<path d="M39.6112 0.00195313H13.16C11.2854 0.00195313 9.76953 1.50392 9.76953 3.36137V9.5292H29.8523C31.727 9.5292 33.2428 11.0312 33.2428 12.8886V27.3217H39.6112C41.4858 27.3217 43.0017 25.8197 43.0017 23.9623V3.36137C43.0017 1.50392 41.4858 0.00195313 39.6112 0.00195313Z" fill="#5BB974"/>
<path d="M29.8496 9.5293H9.75781V23.9624C9.75781 25.8198 11.2737 27.3218 13.1483 27.3218H33.2311V12.8976C33.2401 11.0401 31.7242 9.5293 29.8496 9.5293Z" fill="#00832D"/>
</g>
<defs>
<clipPath id="clip0_6034_40653">
<rect width="43" height="45" fill="white"/>
</clipPath>
</defs>
</svg>
