<svg width="45" height="36" viewBox="0 0 45 36" fill="none" xmlns="http://www.w3.org/2000/svg">
<g clip-path="url(#clip0_6034_40620)">
<path d="M28.5511 9.91473H29.9243L33.8363 6.02577L34.0287 4.37569C26.7497 -2.01089 15.6379 -1.32273 9.21335 5.91327C7.42708 7.92337 6.13123 10.3141 5.42578 12.9018C5.8615 12.7236 6.34438 12.6955 6.79896 12.8193L14.6212 11.5367C14.6212 11.5367 15.0192 10.8823 15.2248 10.9235C18.7049 7.12458 24.5617 6.68206 28.5794 9.91473H28.5511Z" fill="#EA4335"/>
<path d="M39.4117 12.9016C38.512 9.61082 36.6673 6.65191 34.1001 4.38867L28.6111 9.84521C30.9293 11.7278 32.2497 14.5648 32.1931 17.5406V18.51C34.8923 18.51 37.0785 20.6851 37.0785 23.3665C37.0785 26.0498 34.8904 28.223 32.1931 28.223H22.4205L21.4453 29.2056V35.0315L22.4205 36.0009H32.1931C37.7952 36.0441 42.7655 32.4345 44.4291 27.1167C46.089 21.7971 44.0519 16.0218 39.4117 12.9016Z" fill="#4285F4"/>
<path d="M12.6342 35.9473H22.4068V28.1713H12.6342C11.9381 28.1713 11.2497 28.0231 10.6159 27.7344L9.2427 28.1563L5.30423 32.0452L4.96094 33.4103C7.16972 35.0679 9.86516 35.9586 12.6342 35.9473Z" fill="#34A853"/>
<path d="M12.6331 10.7189C7.20453 10.7508 2.39651 14.2066 0.664939 19.32C-1.06663 24.4334 0.65928 30.0775 4.96179 33.3664L10.6299 27.7317C8.17028 26.6273 7.07815 23.7509 8.18915 21.3057C9.30014 18.8606 12.1936 17.7749 14.6533 18.8794C15.736 19.3669 16.6037 20.2294 17.0941 21.3057L22.7622 15.6711C20.3497 12.5378 16.6018 10.7058 12.6331 10.7189Z" fill="#FBBC05"/>
</g>
<defs>
<clipPath id="clip0_6034_40620">
<rect width="45" height="36" fill="white"/>
</clipPath>
</defs>
</svg>
