<svg width="45" height="45" viewBox="0 0 45 45" fill="none" xmlns="http://www.w3.org/2000/svg">
<g clip-path="url(#clip0_6034_40896)">
<path d="M43.7022 16.8926C43.5668 16.9252 43.4497 17.01 43.3766 17.1286C43.3035 17.2471 43.2803 17.3898 43.312 17.5254C43.6964 19.1569 43.891 20.8274 43.8921 22.5036C43.8853 28.1751 41.6292 33.6125 37.6188 37.6229C33.6084 41.6333 28.1711 43.8894 22.4995 43.8961C17.8413 43.9125 13.3081 42.3899 9.60416 39.5649C10.1015 38.8234 10.3002 37.9213 10.1604 37.0395C10.0207 36.1576 9.55289 35.3612 8.8507 34.8097C8.14852 34.2582 7.26387 33.9925 6.37403 34.0658C5.4842 34.1391 4.65493 34.5459 4.05242 35.2048C3.44991 35.8637 3.11867 36.726 3.12509 37.6188C3.13151 38.5116 3.47511 39.3691 4.08703 40.0192C4.69894 40.6694 5.53397 41.0643 6.42477 41.1248C7.31556 41.1853 8.1963 40.9069 8.89049 40.3454C12.7903 43.3477 17.5779 44.9678 22.4995 44.9508C25.89 44.9472 29.2358 44.1763 32.2861 42.696C35.3365 41.2158 38.0123 39.0644 40.1132 36.4032C42.214 33.7419 43.6855 30.6398 44.4172 27.3291C45.149 24.0185 45.1221 20.5852 44.3385 17.2864C44.3228 17.2186 44.2939 17.1546 44.2533 17.0981C44.2128 17.0416 44.1615 16.9937 44.1023 16.9571C44.0432 16.9205 43.9774 16.8959 43.9087 16.8849C43.84 16.8738 43.7699 16.8765 43.7022 16.8926Z" fill="#004FFC"/>
<path d="M1.10549 22.5035C1.10572 18.6982 2.12087 14.9619 4.04628 11.6797C5.9717 8.39752 8.73768 5.68827 12.0591 3.83128C15.3804 1.97428 19.137 1.03676 22.9415 1.11538C26.7459 1.19399 30.4605 2.28589 33.7024 4.2785C33.3678 4.99438 33.3142 5.80981 33.5523 6.5633C33.7904 7.31678 34.3028 7.95336 34.9881 8.34696C35.6733 8.74056 36.4813 8.86246 37.2522 8.68852C38.023 8.51459 38.7004 8.0575 39.1502 7.40779C39.6 6.75808 39.7894 5.96314 39.6808 5.18041C39.5723 4.39769 39.1738 3.68426 38.5642 3.18145C37.9546 2.67863 37.1784 2.42309 36.3893 2.46545C35.6002 2.5078 34.8558 2.84496 34.3035 3.41014C30.9031 1.30804 27.003 0.152132 23.0063 0.0618757C19.0096 -0.0283806 15.0613 0.95029 11.5694 2.89674C8.07756 4.8432 5.16883 7.68682 3.14383 11.1337C1.11883 14.5806 0.0510384 18.5058 0.0508024 22.5035C0.0489119 23.8738 0.173661 25.2413 0.423459 26.5887C0.4449 26.71 0.50849 26.82 0.603029 26.8991C0.697567 26.9782 0.816988 27.0214 0.940256 27.0211C0.972187 27.021 1.00402 27.0175 1.03518 27.0105C1.17265 26.9857 1.29465 26.9073 1.3744 26.7927C1.45415 26.678 1.48514 26.5363 1.46057 26.3988C1.22359 25.1139 1.10473 23.8101 1.10549 22.5035Z" fill="#004FFC"/>
<path d="M19.3359 19.0195V19.3359H25.6641V19.0195C25.6148 14.7445 19.3852 14.7445 19.3359 19.0195Z" fill="#004FFC"/>
<path d="M37.2469 11.5453C31.3125 11.6051 25.6031 7.93829 23.4199 6.35626C23.1518 6.16259 22.8295 6.05835 22.4988 6.05835C22.1681 6.05835 21.8458 6.16259 21.5777 6.35626C19.3945 7.93829 13.6711 11.591 7.75078 11.5453C7.54053 11.5432 7.33193 11.5828 7.13702 11.6616C6.9421 11.7405 6.7647 11.8571 6.61504 12.0048C6.46539 12.1525 6.34642 12.3283 6.265 12.5222C6.18358 12.7161 6.14131 12.9241 6.14062 13.1344C6.14414 21.252 7.76836 32.8641 21.7852 39.9586C22.0062 40.0713 22.2507 40.13 22.4988 40.13C22.7469 40.13 22.9915 40.0713 23.2125 39.9586C37.2293 32.8641 38.8535 21.252 38.857 13.1344C38.8539 12.7103 38.6825 12.3047 38.3807 12.0068C38.0788 11.7089 37.671 11.5429 37.2469 11.5453ZM28.2996 27.5977C28.2996 28.297 28.0218 28.9676 27.5273 29.4621C27.0328 29.9566 26.3622 30.2344 25.6629 30.2344H19.3348C18.6355 30.2344 17.9648 29.9566 17.4703 29.4621C16.9758 28.9676 16.698 28.297 16.698 27.5977V21.9727C16.6983 21.4599 16.8481 20.9582 17.1291 20.5293C17.4101 20.1003 17.8101 19.7626 18.2801 19.5574V19.0125C18.3434 13.3699 26.6543 13.3699 26.7176 19.0125V19.5574C27.1876 19.7626 27.5876 20.1003 27.8686 20.5293C28.1495 20.9582 28.2993 21.4599 28.2996 21.9727V27.5977Z" fill="#004FFC"/>
<path d="M23.3613 24.1798C23.3535 24.1326 23.3557 24.0843 23.3678 24.038C23.3799 23.9917 23.4017 23.9485 23.4316 23.9112C23.5494 23.7409 23.6183 23.5416 23.6309 23.335C23.6436 23.1283 23.5994 22.9221 23.5033 22.7388C23.4072 22.5554 23.2627 22.4018 23.0855 22.2947C22.9084 22.1875 22.7053 22.1309 22.4982 22.1309C22.2912 22.1309 22.0881 22.1875 21.9109 22.2947C21.7337 22.4018 21.5893 22.5554 21.4931 22.7388C21.397 22.9221 21.3529 23.1283 21.3655 23.335C21.3781 23.5416 21.4471 23.7409 21.5648 23.9112C21.5946 23.9481 21.6163 23.9909 21.6284 24.0367C21.6405 24.0826 21.6428 24.1305 21.6351 24.1773C21.5525 24.589 21.3187 25.766 21.1538 26.5831C21.1338 26.685 21.1366 26.79 21.162 26.8907C21.1874 26.9914 21.2348 27.0853 21.3008 27.1655C21.3668 27.2457 21.4497 27.3103 21.5436 27.3546C21.6375 27.3989 21.7401 27.4219 21.844 27.4219H23.1518C23.2558 27.4219 23.3586 27.3989 23.4526 27.3544C23.5467 27.3099 23.6297 27.2451 23.6957 27.1647C23.7617 27.0842 23.809 26.9901 23.8342 26.8892C23.8594 26.7883 23.8619 26.683 23.8415 26.5809L23.3613 24.1798Z" fill="#004FFC"/>
</g>
<defs>
<clipPath id="clip0_6034_40896">
<rect width="45" height="45" fill="white"/>
</clipPath>
</defs>
</svg>
