<svg width="45" height="45" viewBox="0 0 45 45" fill="none" xmlns="http://www.w3.org/2000/svg">
<g clip-path="url(#clip0_6034_40587)">
<path d="M39.0001 24.7409C38.9958 25.1359 38.8359 25.5133 38.555 25.7911C38.2742 26.0689 37.8951 26.2247 37.5 26.2247C37.105 26.2247 36.7259 26.0689 36.445 25.7911C36.1642 25.5133 36.0043 25.1359 36 24.7409V11.25C36.0043 10.855 36.1642 10.4776 36.445 10.1998C36.7259 9.92195 37.105 9.76612 37.5 9.76612C37.8951 9.76612 38.2742 9.92195 38.555 10.1998C38.8359 10.4776 38.9958 10.855 39.0001 11.25V24.7409ZM38.4766 34.1299C38.2447 34.3283 32.6881 38.9911 22.5 38.9911C12.3121 38.9911 6.75562 34.3281 6.52377 34.1297C6.22177 33.8707 6.03499 33.5024 6.0045 33.1058C5.974 32.7091 6.1023 32.3166 6.36117 32.0145C6.61948 31.7129 6.98688 31.5261 7.38276 31.4951C7.77864 31.464 8.17067 31.5913 8.47283 31.8489C8.5609 31.9228 13.5229 35.9909 22.5002 35.9909C31.5902 35.9909 36.4753 31.8934 36.5237 31.8521C37.1514 31.313 38.1001 31.3854 38.6388 32.0147C38.8978 32.3167 39.0262 32.7092 38.9957 33.1059C38.9653 33.5025 38.7786 33.8709 38.4766 34.1299ZM5.99994 11.25C6.00422 10.855 6.16414 10.4776 6.44498 10.1998C6.72583 9.92195 7.10493 9.76612 7.49997 9.76612C7.89501 9.76612 8.27411 9.92195 8.55496 10.1998C8.8358 10.4776 8.99572 10.855 9 11.25V24.7409C8.99572 25.1359 8.8358 25.5133 8.55496 25.7911C8.27411 26.0689 7.89501 26.2247 7.49997 26.2247C7.10493 26.2247 6.72583 26.0689 6.44498 25.7911C6.16414 25.5133 6.00422 25.1359 5.99994 24.7409V11.25ZM13.5002 8.24994C13.5062 7.85611 13.6669 7.48045 13.9475 7.20407C14.2282 6.9277 14.6062 6.77279 15.0001 6.77279C15.394 6.77279 15.7721 6.9277 16.0527 7.20407C16.3333 7.48045 16.494 7.85611 16.5001 8.24994V28.2892C16.494 28.683 16.3333 29.0587 16.0527 29.335C15.7721 29.6114 15.394 29.7663 15.0001 29.7663C14.6062 29.7663 14.2282 29.6114 13.9475 29.335C13.6669 29.0587 13.5062 28.683 13.5002 28.2892V8.24994ZM21.0001 7.49092C21 7.29394 21.0388 7.09888 21.1142 6.91689C21.1896 6.7349 21.3 6.56953 21.4393 6.43025C21.5786 6.29096 21.744 6.18048 21.926 6.10511C22.108 6.02974 22.303 5.99095 22.5 5.99098C22.697 5.99093 22.8921 6.02969 23.0741 6.10505C23.2561 6.18042 23.4215 6.2909 23.5608 6.43019C23.7001 6.56948 23.8106 6.73484 23.886 6.91685C23.9614 7.09885 24.0001 7.29392 24.0001 7.49092V29.2409C23.9958 29.6359 23.8359 30.0133 23.5551 30.2911C23.2742 30.5689 22.8951 30.7247 22.5001 30.7247C22.105 30.7247 21.7259 30.5689 21.4451 30.2911C21.1643 30.0133 21.0043 29.6359 21.0001 29.2409V7.49092ZM28.5001 8.24994C28.5061 7.85611 28.6668 7.48045 28.9475 7.20407C29.2281 6.9277 29.6062 6.77279 30.0001 6.77279C30.3939 6.77279 30.772 6.9277 31.0527 7.20407C31.3333 7.48045 31.494 7.85611 31.5 8.24994V28.2892C31.494 28.683 31.3333 29.0587 31.0527 29.335C30.772 29.6114 30.3939 29.7663 30.0001 29.7663C29.6062 29.7663 29.2281 29.6114 28.9475 29.335C28.6668 29.0587 28.5061 28.683 28.5001 28.2892V8.24994ZM39.375 0H5.625C2.51842 0 0 2.51842 0 5.625V39.375C0 42.4814 2.51842 45 5.625 45H39.375C42.4816 45 45 42.4814 45 39.375V5.625C45 2.51842 42.4816 0 39.375 0Z" fill="#1F8DED"/>
</g>
<defs>
<clipPath id="clip0_6034_40587">
<rect width="45" height="45" fill="white"/>
</clipPath>
</defs>
</svg>
