<svg width="35" height="40" viewBox="0 0 35 40" fill="none" xmlns="http://www.w3.org/2000/svg">
<path d="M24.1481 26.4285C28.3857 19.7494 27.853 20.5827 27.9751 20.4085C29.5179 18.2227 30.3333 15.6502 30.3333 12.9688C30.3333 5.85781 24.5886 0 17.5 0C10.4345 0 4.66667 5.84625 4.66667 12.9688C4.66667 15.6484 5.4992 18.2884 7.09256 20.5036L10.8517 26.4286C6.83254 27.049 0 28.8978 0 32.9688C0 34.4527 0.964289 36.5676 5.55816 38.2155C8.76587 39.3662 13.0069 40 17.5 40C25.9019 40 35 37.6194 35 32.9688C35 28.8971 28.1755 27.0502 24.1481 26.4285ZM9.04159 19.2145C9.02876 19.1943 9.01538 19.1746 9.00138 19.1552C7.6755 17.323 7 15.1516 7 12.9688C7 7.10797 11.6982 2.34375 17.5 2.34375C23.2897 2.34375 28 7.11008 28 12.9688C28 15.1552 27.3373 17.2529 26.0831 19.0368C25.9707 19.1857 26.5571 18.2707 17.5 32.546L9.04159 19.2145ZM17.5 37.6562C8.32269 37.6562 2.33333 34.9466 2.33333 32.9688C2.33333 31.6394 5.41084 29.4535 12.2304 28.6015L16.5161 35.3564C16.7303 35.6941 17.1013 35.8984 17.4999 35.8984C17.8985 35.8984 18.2696 35.694 18.4837 35.3564L22.7694 28.6015C29.5891 29.4535 32.6667 31.6394 32.6667 32.9688C32.6667 34.9298 26.7312 37.6562 17.5 37.6562Z" fill="#004FFC"/>
<path d="M17.5013 7.10938C14.2848 7.10938 11.668 9.73789 11.668 12.9688C11.668 16.1996 14.2848 18.8281 17.5013 18.8281C20.7178 18.8281 23.3346 16.1996 23.3346 12.9688C23.3346 9.73789 20.7178 7.10938 17.5013 7.10938ZM17.5013 16.4844C15.5714 16.4844 14.0013 14.9073 14.0013 12.9688C14.0013 11.0302 15.5714 9.45312 17.5013 9.45312C19.4312 9.45312 21.0013 11.0302 21.0013 12.9688C21.0013 14.9073 19.4312 16.4844 17.5013 16.4844Z" fill="#004FFC"/>
</svg>
