<svg width="40" height="40" viewBox="0 0 40 40" fill="none" xmlns="http://www.w3.org/2000/svg">
<g clip-path="url(#clip0_6034_41221)">
<path d="M17.1552 19.4255C18.0921 19.8008 19.0941 19.9868 20.1033 19.9728C21.1125 19.9589 22.109 19.7452 23.0352 19.3442C23.2788 19.2394 23.4708 19.042 23.569 18.7956C23.6671 18.5492 23.6634 18.2739 23.5585 18.0302C23.4537 17.7866 23.2563 17.5946 23.0099 17.4964C22.7635 17.3983 22.4881 17.402 22.2445 17.5069C21.1214 17.9905 19.8724 18.099 18.6827 17.8164C17.493 17.5338 16.4263 16.875 15.6407 15.938C14.8551 15.0009 14.3927 13.8356 14.322 12.6148C14.2513 11.3941 14.5762 10.1831 15.2484 9.16171C15.9205 8.14027 16.9042 7.36283 18.0533 6.9448C19.2024 6.52676 20.4556 6.49043 21.627 6.84119C22.7984 7.19195 23.8254 7.91111 24.5556 8.89189C25.2859 9.87267 25.6803 11.0628 25.6805 12.2855V12.9975V13.0269C25.6798 13.038 25.6798 13.0491 25.6805 13.0602C25.7035 13.3943 25.5965 13.7243 25.3818 13.9812C25.1671 14.2382 24.8613 14.4022 24.5285 14.4389C24.3853 14.4359 24.2441 14.4048 24.113 14.3472C23.9819 14.2897 23.8634 14.2068 23.7643 14.1034C23.6652 14 23.5875 13.8781 23.5356 13.7446C23.4837 13.6111 23.4586 13.4687 23.4618 13.3255V10.1055C23.4618 9.84033 23.3565 9.58598 23.1689 9.39844C22.9814 9.2109 22.7271 9.10555 22.4618 9.10555C22.2246 9.10869 21.9964 9.1972 21.8192 9.35488C21.2876 9.02225 20.6756 8.84046 20.0486 8.82895C19.4217 8.81745 18.8034 8.97668 18.26 9.28959C17.7166 9.60249 17.2685 10.0573 16.9637 10.6053C16.6589 11.1533 16.5089 11.7739 16.5298 12.4006C16.5506 13.0273 16.7415 13.6366 17.082 14.1631C17.4225 14.6897 17.8998 15.1137 18.4628 15.3898C19.0258 15.6659 19.6533 15.7837 20.2781 15.7306C20.9029 15.6775 21.5015 15.4554 22.0098 15.0882C22.2992 15.502 22.6838 15.8401 23.1312 16.0742C23.5785 16.3084 24.0756 16.4316 24.5805 16.4335C25.4403 16.3799 26.2452 15.9927 26.8237 15.3544C27.4022 14.7161 27.7087 13.8771 27.6778 13.0162C27.6778 13.0082 27.6778 13.0015 27.6778 12.9935V12.2855C27.6774 10.89 27.2968 9.52085 26.5769 8.32525C25.857 7.12966 24.8251 6.15273 23.5918 5.49938C22.3586 4.84602 20.9707 4.54093 19.5772 4.61685C18.1837 4.69277 16.8372 5.14684 15.6822 5.9303C14.5273 6.71376 13.6076 7.79702 13.0219 9.06375C12.4362 10.3305 12.2065 11.7328 12.3577 13.1202C12.5088 14.5076 13.0351 15.8276 13.8798 16.9385C14.7246 18.0494 15.856 18.9092 17.1525 19.4255H17.1552ZM19.9978 13.7442C19.7097 13.7426 19.4285 13.6557 19.1896 13.4945C18.9508 13.3333 18.7651 13.1049 18.6559 12.8382C18.5467 12.5716 18.519 12.2785 18.5762 11.9961C18.6334 11.7137 18.7729 11.4545 18.9772 11.2513C19.1815 11.0481 19.4415 10.91 19.7242 10.8544C20.0069 10.7987 20.2998 10.8281 20.5659 10.9387C20.8319 11.0493 21.0593 11.2363 21.2192 11.476C21.3791 11.7157 21.4645 11.9974 21.4645 12.2855C21.4643 12.4777 21.4262 12.668 21.3523 12.8454C21.2785 13.0228 21.1703 13.1839 21.0341 13.3194C20.8978 13.4549 20.7361 13.5622 20.5583 13.6351C20.3805 13.708 20.19 13.7451 19.9978 13.7442Z" fill="#004FFC"/>
<path d="M39.4734 13.5484C39.3312 13.1108 39.1083 12.7037 38.816 12.3484L33.4507 5.90304V4.01237C33.4496 3.04023 33.063 2.10822 32.3756 1.42081C31.6882 0.73341 30.7562 0.346762 29.784 0.345703H10.208C9.2359 0.346762 8.30388 0.73341 7.61648 1.42081C6.92907 2.10822 6.54242 3.04023 6.54136 4.01237V5.91104L1.18003 12.3497C0.632705 13.0088 0.332767 13.8383 0.332031 14.695V33.3217C0.334148 35.0008 1.00209 36.6104 2.18936 37.7977C3.37663 38.985 4.98631 39.6529 6.66536 39.655H33.332C34.9759 39.6563 36.555 39.0146 37.732 37.867L37.7494 37.855C38.3565 37.2665 38.8392 36.5619 39.1688 35.7831C39.4984 35.0044 39.6682 34.1673 39.668 33.3217V14.695C39.6645 14.333 39.607 13.9735 39.4974 13.6284C39.4894 13.6004 39.4814 13.5764 39.4734 13.5484ZM36.888 35.7857L24.956 25.4377L37.6654 15.7497V33.3217C37.6654 34.2034 37.394 35.0637 36.888 35.7857ZM37.228 13.567L33.4507 16.4457V9.0297L37.228 13.567ZM10.208 2.3457H29.784C30.2258 2.34641 30.6494 2.52223 30.9618 2.83464C31.2742 3.14705 31.45 3.57056 31.4507 4.01237V17.971L23.412 24.1044L22.1907 23.0377C21.5789 22.515 20.8007 22.2279 19.996 22.2279C19.1914 22.2279 18.4131 22.515 17.8014 23.0377L16.588 24.091L8.54136 17.9577V4.01237C8.54207 3.57056 8.71789 3.14705 9.0303 2.83464C9.34271 2.52223 9.76622 2.34641 10.208 2.3457ZM3.11203 35.7897C2.60465 35.0667 2.3323 34.205 2.33203 33.3217V15.743L15.044 25.4337L3.11203 35.7897ZM6.54136 16.435L2.77336 13.563L6.54136 9.0297V16.435ZM19.9987 37.655H6.66536C5.95194 37.6502 5.25108 37.4669 4.6267 37.1217L19.1094 24.555C19.3567 24.3448 19.6707 24.2294 19.9954 24.2294C20.32 24.2294 20.634 24.3448 20.8814 24.555L35.3747 37.1217C34.7491 37.4674 34.0468 37.6508 33.332 37.655H19.9987Z" fill="#004FFC"/>
</g>
<defs>
<clipPath id="clip0_6034_41221">
<rect width="40" height="40" fill="white"/>
</clipPath>
</defs>
</svg>
