<svg width="50" height="50" viewBox="0 0 50 50" fill="none" xmlns="http://www.w3.org/2000/svg">
<path d="M25 0C11.2109 0 0 11.2109 0 25C0 38.7891 11.2109 50 25 50C38.7891 50 50 38.7891 50 25C50 11.2109 38.7891 0 25 0Z" fill="#FDDD4C"/>
<path d="M14.0507 31.5191C13.504 30.6914 14.879 29.4389 14.3197 28.3871C13.9973 27.7807 13.4704 27.4027 12.8376 27.3234C12.2303 27.2471 11.6046 27.4695 11.2058 27.9039C10.5762 28.5891 10.4783 29.5218 10.6001 29.8518C10.6447 29.9727 10.7147 30.0057 10.7649 30.0128C11.1078 30.058 11.3008 29.1778 11.4192 28.9945C11.7465 28.4893 12.4898 28.3364 13.0032 28.6684C13.9765 29.298 13.1325 30.3155 13.2053 31.1748C13.2762 32.0116 13.7975 32.348 14.2656 32.3834C14.721 32.4005 15.0394 32.1477 15.1197 31.963C15.3124 31.5221 14.5004 32.2 14.0507 31.5191Z" fill="black"/>
<path d="M34.3901 23.9203C34.1348 23.8851 33.8558 23.8858 33.5655 23.9203C33.3451 23.6422 33.1476 23.1919 33.0362 22.6663C32.838 21.7313 32.8587 21.054 33.4119 20.966C33.9651 20.8781 34.2324 21.4438 34.4307 22.3788C34.5637 23.0074 34.5382 23.5849 34.3901 23.9203Z" fill="black"/>
<path d="M28.3294 24.4777C28.3513 24.6893 28.359 24.9036 28.3528 25.1009C28.8881 25.1323 29.2672 25.3864 29.3681 25.5479C29.4199 25.6311 29.3992 25.6853 29.3826 25.7103C29.3271 25.7966 29.2083 25.7834 28.9596 25.7553C28.7422 25.7311 28.5083 25.7096 28.2651 25.7207C28.1328 26.1266 27.7405 26.1646 27.4647 25.8645C27.2722 25.923 26.894 26.1646 26.7812 25.9021C26.7803 25.772 26.9165 25.5825 27.1631 25.4154C26.9947 25.0941 26.8819 24.7504 26.8153 24.3943C26.4656 24.4573 26.151 24.5552 25.9044 24.632C25.7887 24.668 25.3306 24.875 25.2769 24.6418C25.241 24.4807 25.4917 24.2152 25.7569 24.0234C26.053 23.8132 26.3815 23.6637 26.7222 23.5775C26.7149 23.0704 26.8442 22.7164 27.2128 22.6579C27.6696 22.5852 27.9528 22.937 28.1487 23.5882C28.7008 23.7416 29.2522 24.122 29.4956 24.5152C29.5903 24.6677 29.6087 24.7855 29.5472 24.8477C29.3942 25.0062 28.5465 24.5464 28.3294 24.4777Z" fill="black"/>
<path d="M31.9622 26.7568C32.3123 26.9265 32.6977 26.8597 32.8234 26.6075C32.9491 26.3552 32.767 26.0134 32.4166 25.8438C32.0665 25.6742 31.6813 25.7409 31.5554 25.9931C31.4297 26.2452 31.612 26.587 31.9622 26.7568Z" fill="black"/>
<path d="M33.6837 25.5036C33.69 25.1179 33.9264 24.8099 34.2107 24.8145C34.4948 24.82 34.72 25.1359 34.7137 25.5209C34.7073 25.9059 34.4709 26.214 34.1868 26.2091C33.9025 26.2045 33.6773 25.8886 33.6837 25.5036Z" fill="black"/>
<path fill-rule="evenodd" clip-rule="evenodd" d="M41.3885 30.229C41.3862 30.221 41.394 30.2488 41.3885 30.229C41.9592 30.229 42.8555 30.8765 42.8555 32.4408C42.8555 33.9974 42.2012 35.7605 42.0467 36.1519C39.6899 41.7272 34.0648 44.8308 27.364 44.6344C21.1173 44.4514 15.7898 41.1976 13.4584 35.8933C12.0487 35.8949 10.5952 35.2828 9.4904 34.3163C8.32588 33.2981 7.60792 31.9805 7.46783 30.6062C7.35877 29.5362 7.4917 28.5406 7.83158 27.6724L6.5222 26.5771C0.53006 21.5831 19.2714 1.02108 25.2651 6.18163C25.2953 6.20756 27.3044 8.15297 27.3092 8.15769C30.1992 6.94644 37.9428 4.64028 37.9514 10.0088C37.9546 11.7916 36.8037 13.8706 34.9594 15.7571C37.0908 17.7081 36.5287 20.4797 36.8682 23.0226L37.6083 23.2253C39.0196 23.6158 40.0233 24.1367 40.5146 24.6458C41.0056 25.1542 41.2492 25.6469 41.3376 26.2244C41.4203 26.6903 41.4092 27.513 40.7867 28.433C41.0108 29.0265 41.2155 29.6183 41.3885 30.229ZM13.3525 34.4469C13.5618 34.4515 13.7696 34.4381 13.9734 34.4037C16.1631 34.0351 16.7362 31.6874 16.3756 29.3821C15.9681 26.779 14.1843 25.8613 12.9736 25.7962C12.6369 25.7788 12.3241 25.8087 12.0662 25.8597C9.90511 26.2896 8.68488 28.1046 8.92526 30.4617C9.14256 32.5949 11.3283 34.3933 13.3525 34.4469ZM8.45802 26.4994C9.18317 25.4599 10.3684 24.708 11.7136 24.4494C13.4257 19.9128 16.2849 15.7328 20.069 12.8562C22.8773 10.5439 25.9058 8.88526 25.9058 8.88526C25.9058 8.88526 24.2749 7.01842 23.7823 6.88092C20.7519 6.0732 14.2074 10.5282 10.0285 16.4147C8.33783 18.7962 5.91726 23.0138 7.07461 25.1833C7.2171 25.4521 8.02501 26.1426 8.45802 26.4994ZM33.026 33.4049C33.0306 33.4537 33.0005 33.504 32.9567 33.5221C32.9567 33.5221 30.5217 34.6401 26.654 33.4592C26.7931 34.6185 28.199 35.0578 29.1814 35.2169C33.9739 36.0308 38.4546 33.3256 39.463 32.6444C39.6362 32.5274 39.4608 32.8281 39.4296 32.8722C38.1949 34.4444 34.8758 36.2649 30.5576 36.2642C28.6742 36.2633 26.7919 35.6088 26.1008 34.6024C25.0287 33.0412 26.0476 30.7619 27.8346 30.999C30.8551 31.3358 33.9517 31.0828 36.748 29.8017C39.186 28.6844 40.1069 27.4556 39.9685 26.4601C39.7537 24.9172 37.4664 24.676 36.3101 24.301C35.8071 24.1367 35.5587 24.0055 35.5023 23.0713C35.4776 22.6635 35.4058 21.2406 35.3796 20.6521C35.3335 19.6221 35.2076 18.2133 34.3226 17.6319C34.0917 17.4801 33.8355 17.4071 33.5657 17.393C33.3505 17.3826 33.2228 17.4122 33.1542 17.4281C33.1389 17.4317 33.1264 17.4346 33.1167 17.4362C32.6387 17.5163 32.3458 17.7581 32.0005 18.0433C31.9806 18.0597 31.9605 18.0763 31.9403 18.093C30.8362 19.0013 29.904 19.1497 28.8669 19.1058C28.5439 19.0922 28.211 19.0601 27.8598 19.026C27.5367 18.9947 27.1983 18.9619 26.838 18.9408L26.3978 18.9156C24.661 18.8276 22.7983 20.308 22.4887 22.4105C22.1428 24.7574 23.4546 26.1949 24.3076 27.1297C24.5185 27.3608 24.7014 27.561 24.8242 27.7369C24.903 27.843 24.9946 27.9922 24.9946 28.1344C24.9946 28.3042 24.883 28.4385 24.774 28.5531C23.0021 30.3517 22.4355 33.2094 23.1033 35.5908C23.1869 35.8878 23.2926 36.1722 23.4176 36.444C24.9842 40.0576 29.8444 41.7406 34.5915 40.2099C37.9187 39.1372 40.8583 36.5449 41.4569 32.9688C41.5994 32.0371 41.3901 31.6772 41.1051 31.5035C40.8035 31.3205 40.4421 31.384 40.4421 31.384C40.4421 31.384 40.2773 30.2708 39.8108 29.2588C38.4267 30.3367 36.6453 31.0942 35.2889 31.4783C33.1158 32.0938 30.7683 32.3333 28.5228 32.0431C27.6119 31.9255 26.9999 31.8463 26.7376 32.6876C29.733 33.7703 32.9033 33.3067 32.9033 33.3067C32.9646 33.3005 33.0196 33.3444 33.026 33.4049ZM24.384 12.3942C22.7458 13.2216 20.9167 14.6947 19.4314 16.3896C19.3789 16.4501 19.4569 16.5333 19.5214 16.4871C20.8044 15.5655 22.5635 14.709 24.868 14.1542C27.4492 13.5327 29.9344 13.7936 31.4523 14.137C31.5287 14.1542 31.5764 14.0246 31.5089 13.9869C30.5058 13.4314 28.9664 13.0542 27.8744 13.0464C27.821 13.0456 27.7908 12.9843 27.8226 12.9419C28.0112 12.6912 28.2699 12.4437 28.5064 12.2646C28.5589 12.2237 28.5271 12.1397 28.4601 12.1436C27.1017 12.226 23.9987 13.6408 24.0099 13.5893C24.0894 13.2122 24.3401 12.714 24.4699 12.4815C24.501 12.4265 24.4405 12.366 24.384 12.3942Z" fill="black"/>
</svg>
