<svg width="40" height="40" viewBox="0 0 40 40" fill="none" xmlns="http://www.w3.org/2000/svg">
<path d="M31.5858 24.7793C30.7668 23.9266 29.779 23.4708 28.7321 23.4708C27.6936 23.4708 26.6974 23.9182 25.8446 24.7709L23.1767 27.4302C22.9572 27.312 22.7376 27.2022 22.5266 27.0925C22.2226 26.9405 21.9356 26.797 21.6907 26.645C19.1916 25.0579 16.9205 22.9895 14.7422 20.3133C13.6869 18.9795 12.9777 17.8566 12.4627 16.7169C13.155 16.0838 13.7966 15.4253 14.4214 14.7921C14.6578 14.5557 14.8942 14.3109 15.1306 14.0745C16.9036 12.3016 16.9036 10.0054 15.1306 8.23248L12.8257 5.92774C12.564 5.66603 12.2938 5.39588 12.0405 5.12573C11.5339 4.60231 11.002 4.062 10.4533 3.55546C9.6343 2.74501 8.65492 2.31445 7.62489 2.31445C6.59486 2.31445 5.5986 2.74501 4.75431 3.55546C4.74587 3.56391 4.74587 3.56391 4.73743 3.57235L1.86685 6.46804C0.786158 7.54865 0.169827 8.86565 0.0347412 10.3937C-0.167888 12.8588 0.5582 15.1551 1.11543 16.6578C2.48318 20.3471 4.52635 23.7662 7.57423 27.4302C11.2722 31.8455 15.7216 35.3321 20.8042 37.7888C22.7461 38.709 25.3381 39.7981 28.234 39.9838C28.4113 39.9922 28.597 40.0007 28.7659 40.0007C30.7162 40.0007 32.3541 39.3 33.6374 37.907C33.6459 37.8901 33.6627 37.8817 33.6712 37.8648C34.1102 37.3329 34.6168 36.8517 35.1487 36.3368C35.5117 35.9906 35.8832 35.6276 36.2463 35.2477C37.0821 34.3782 37.5211 33.3651 37.5211 32.3267C37.5211 31.2798 37.0737 30.2752 36.2209 29.431L31.5858 24.7793ZM34.6083 33.669C34.5999 33.669 34.5999 33.6774 34.6083 33.669C34.2791 34.0236 33.9414 34.3444 33.5783 34.699C33.0295 35.2224 32.4723 35.7711 31.9488 36.3874C31.0961 37.2992 30.0914 37.7297 28.7743 37.7297C28.6477 37.7297 28.5126 37.7297 28.3859 37.7213C25.8784 37.5609 23.5482 36.5816 21.8005 35.7458C17.0218 33.4326 12.8257 30.1486 9.3388 25.9865C6.45977 22.5168 4.5348 19.3087 3.25992 15.8643C2.47473 13.7622 2.18768 12.1244 2.31432 10.5794C2.39875 9.59168 2.77868 8.77278 3.47944 8.07207L6.35846 5.19326C6.77216 4.80492 7.21119 4.59386 7.64178 4.59386C8.17368 4.59386 8.60427 4.91467 8.87444 5.18482C8.88288 5.19326 8.89132 5.20171 8.89977 5.21015C9.41478 5.69136 9.90447 6.18945 10.4195 6.72131C10.6812 6.99146 10.9514 7.26162 11.2216 7.54021L13.5265 9.84495C14.4214 10.7398 14.4214 11.5672 13.5265 12.462C13.2816 12.7069 13.0452 12.9517 12.8004 13.1881C12.0912 13.9141 11.4157 14.5895 10.6812 15.248C10.6643 15.2649 10.6474 15.2733 10.639 15.2902C9.91291 16.0162 10.048 16.7254 10.2 17.2066C10.2084 17.2319 10.2169 17.2572 10.2253 17.2826C10.8247 18.7346 11.669 20.1023 12.9523 21.7316L12.9608 21.7401C15.291 24.6105 17.7479 26.8477 20.4581 28.5614C20.8042 28.7809 21.1588 28.9582 21.4965 29.1271C21.8005 29.279 22.0875 29.4225 22.3324 29.5745C22.3662 29.5914 22.3999 29.6167 22.4337 29.6336C22.7208 29.7771 22.9909 29.8447 23.2696 29.8447C23.9703 29.8447 24.4093 29.4057 24.5529 29.2621L27.4403 26.3749C27.7274 26.0879 28.1833 25.7417 28.7152 25.7417C29.2387 25.7417 29.6693 26.071 29.931 26.358C29.9394 26.3664 29.9394 26.3664 29.9479 26.3749L34.5999 31.0266C35.4695 31.8877 35.4695 32.7741 34.6083 33.669Z" fill="#004FFC"/>
<path d="M21.5905 9.51676C23.8026 9.88822 25.812 10.9351 27.4161 12.5391C29.0203 14.1431 30.0587 16.1524 30.4387 18.3642C30.5315 18.9214 31.0128 19.3098 31.5616 19.3098C31.6291 19.3098 31.6882 19.3013 31.7558 19.2929C32.3805 19.1916 32.7942 18.6006 32.6929 17.9759C32.237 15.2997 30.9706 12.8599 29.0372 10.9266C27.1037 8.99334 24.6637 7.727 21.9874 7.27112C21.3626 7.16981 20.78 7.58348 20.6703 8.19977C20.5605 8.81605 20.9658 9.41545 21.5905 9.51676Z" fill="#004FFC"/>
<path d="M39.9253 17.6448C39.1739 13.238 37.0969 9.22788 33.9055 6.03671C30.7141 2.84553 26.7037 0.768736 22.2966 0.0173754C21.6802 -0.0923739 21.0977 0.329739 20.9879 0.946024C20.8866 1.57075 21.3003 2.15327 21.9251 2.26302C25.8594 2.92995 29.4477 4.79569 32.3014 7.64073C35.1551 10.4942 37.0125 14.0822 37.6795 18.0163C37.7724 18.5735 38.2536 18.9618 38.8024 18.9618C38.8699 18.9618 38.929 18.9534 38.9966 18.9449C39.6129 18.8521 40.035 18.2611 39.9253 17.6448Z" fill="#004FFC"/>
</svg>
