<svg width="40" height="40" viewBox="0 0 40 40" fill="none" xmlns="http://www.w3.org/2000/svg">
<path d="M6.28375 26.5492C4.25375 27.1255 2.75375 28.6892 2.27125 30.7305C1.385 34.4842 1.375 37.3792 1.375 37.5005C1.375 38.1217 1.87875 38.6255 2.5 38.6255C2.62125 38.6255 5.51625 38.6142 9.27 37.728C11.3112 37.2455 12.875 35.7455 13.4512 33.7155C14.0362 31.658 13.485 29.5292 11.9775 28.0217C10.47 26.5167 8.345 25.9642 6.28375 26.5492ZM11.2863 33.1005C10.9363 34.3355 9.98875 35.2467 8.7525 35.538C6.6425 36.0355 4.8075 36.238 3.68 36.3192C3.76125 35.193 3.96375 33.3567 4.46125 31.2467C4.7525 30.0105 5.66375 29.063 6.89875 28.713C7.23 28.618 7.565 28.573 7.895 28.573C8.81875 28.573 9.70625 28.9342 10.385 29.6142C11.3087 30.5367 11.645 31.8405 11.2863 33.1005Z" fill="#004FFC"/>
<path d="M38.5259 3.6147C38.4109 2.4897 37.5109 1.5897 36.3859 1.4747C33.1397 1.14595 23.8134 1.1247 15.7109 9.8522L9.63465 9.8472C9.6334 9.8472 9.6309 9.8472 9.6284 9.8472C8.3159 9.8472 7.03215 10.3797 6.1034 11.3072L2.9134 14.4972C2.3709 15.0397 2.1234 15.7859 2.23215 16.5434C2.3409 17.301 2.78715 17.9472 3.45715 18.316L9.35465 21.5609L18.4372 30.6434L21.6821 36.5409C22.0509 37.2122 22.6984 37.6597 23.4559 37.7659C23.5734 37.7834 23.6897 37.7922 23.8034 37.7922C24.4384 37.7922 25.0422 37.5434 25.5009 37.0859L28.6834 33.9035C29.6259 32.9609 30.1447 31.7084 30.1447 30.3772L30.1459 24.2897C38.8772 16.1909 38.8572 6.86595 38.5259 3.6147ZM4.4584 16.226C4.45215 16.1722 4.46715 16.1247 4.5059 16.0872L7.6959 12.8985C8.20465 12.3897 8.90965 12.0972 9.6309 12.0972H9.6334L13.8122 12.101C12.2984 14.0597 10.8534 16.3697 9.5259 19.0872L4.5434 16.3447C4.49465 16.3185 4.46715 16.2785 4.4584 16.226ZM36.1597 3.71345C36.2271 3.7197 36.2809 3.7747 36.2884 3.84345C36.6747 7.63345 36.5847 20.4984 19.5997 28.6222L11.3797 20.4022C19.5034 3.41595 32.3622 3.32345 36.1597 3.71345ZM27.8959 30.3784C27.8959 31.1097 27.6109 31.7972 27.0934 32.3134L23.9109 35.4959C23.8747 35.5334 23.8272 35.5522 23.7747 35.5422C23.7209 35.5334 23.6809 35.506 23.6534 35.4597L20.9122 30.4772C23.6297 29.1509 25.9384 27.7059 27.8959 26.1934V30.3784Z" fill="#004FFC"/>
<path d="M25.9738 18.6212C27.2013 18.6212 28.3575 18.1437 29.2275 17.2749C31.02 15.4812 31.02 12.5637 29.2275 10.7699C27.4888 9.03242 24.4613 9.03242 22.7225 10.7699C21.855 11.6387 21.375 12.7937 21.375 14.0224C21.375 15.2512 21.855 16.4062 22.7225 17.2749C23.5913 18.1437 24.7463 18.6212 25.9738 18.6212ZM24.3137 12.3612C24.7562 11.9174 25.3463 11.6737 25.9738 11.6737C26.6013 11.6737 27.1925 11.9174 27.635 12.3612C28.55 13.2774 28.55 14.7674 27.635 15.6837C26.7488 16.5712 25.2 16.5712 24.3137 15.6837C23.87 15.2399 23.625 14.6499 23.625 14.0224C23.625 13.3949 23.87 12.8062 24.3137 12.3612Z" fill="#004FFC"/>
</svg>
