<svg width="40" height="36" viewBox="0 0 40 36" fill="none" xmlns="http://www.w3.org/2000/svg">
<path d="M31.9981 8.65732C30.9613 5.83049 28.9894 3.44292 26.4095 1.89046C23.8296 0.338008 20.7966 -0.286087 17.8133 0.121651C14.8301 0.529389 12.0757 1.94447 10.007 4.13228C7.93832 6.32009 6.67947 9.14922 6.43918 12.1506C4.59083 12.3365 2.88724 13.234 1.68863 14.6532C0.490032 16.0725 -0.109605 17.9023 0.0165237 19.7557C0.142652 21.609 0.984657 23.3407 2.36449 24.5845C3.74432 25.8283 5.5538 26.4867 7.41029 26.4205H10.2562V31.9773C10.2562 32.8716 10.6114 33.7293 11.2438 34.3616C11.8761 34.994 12.7338 35.3492 13.6281 35.3492H26.6773C27.5716 35.3492 28.4292 34.994 29.0616 34.3616C29.6939 33.7293 30.0492 32.8716 30.0492 31.9773V26.4205H31.1619C33.4369 26.4059 35.6198 25.5202 37.2618 23.9455C38.9037 22.3708 39.88 20.2268 39.9896 17.9545C40.0993 15.6821 39.3342 13.454 37.8515 11.7285C36.3688 10.003 34.2814 8.91118 32.0184 8.67756L31.9981 8.65732ZM26.6773 33.2856H13.6078C13.2501 33.2856 12.9071 33.1435 12.6541 32.8906C12.4012 32.6376 12.2591 32.2946 12.2591 31.9369V20.351C12.2591 19.9933 12.4012 19.6503 12.6541 19.3973C12.9071 19.1444 13.2501 19.0023 13.6078 19.0023H26.6773C27.035 19.0023 27.3781 19.1444 27.631 19.3973C27.8839 19.6503 28.026 19.9933 28.026 20.351V31.9571C28.0207 32.3113 27.8763 32.6492 27.6239 32.8978C27.3715 33.1464 27.0315 33.2857 26.6773 33.2856ZM24.6946 16.9792H15.5905V15.772C15.5905 14.5647 16.0701 13.4069 16.9238 12.5532C17.7774 11.6996 18.9353 11.22 20.1426 11.22C21.3498 11.22 22.5077 11.6996 23.3613 12.5532C24.215 13.4069 24.6946 14.5647 24.6946 15.772V16.9792ZM36.0039 22.3742C35.367 23.0154 34.6094 23.5243 33.7749 23.8716C32.9405 24.2188 32.0455 24.3975 31.1417 24.3973H30.0289V20.351C30.0291 19.4672 29.6822 18.6186 29.0629 17.988C28.4436 17.3573 27.6015 16.9951 26.7177 16.9792V15.772C26.7177 14.0282 26.025 12.3557 24.7919 11.1227C23.5588 9.88957 21.8864 9.19683 20.1426 9.19683C18.3987 9.19683 16.7263 9.88957 15.4932 11.1227C14.2601 12.3557 13.5674 14.0282 13.5674 15.772V16.9792C12.6836 16.9951 11.8415 17.3573 11.2222 17.988C10.6029 18.6186 10.256 19.4672 10.2562 20.351V24.3973H7.41029C6.72024 24.4223 6.03223 24.308 5.38735 24.0612C4.74246 23.8144 4.15394 23.4401 3.65692 22.9608C3.1599 22.4815 2.76458 21.9069 2.49457 21.2714C2.22456 20.6358 2.08539 19.9524 2.08539 19.2619C2.08539 18.5714 2.22456 17.888 2.49457 17.2525C2.76458 16.617 3.1599 16.0424 3.65692 15.5631C4.15394 15.0837 4.74246 14.7095 5.38735 14.4627C6.03223 14.2158 6.72024 14.1015 7.41029 14.1265C7.67741 14.1265 7.93369 14.0209 8.1232 13.8326C8.31271 13.6444 8.42007 13.3888 8.42185 13.1217C8.44653 10.4526 9.42524 7.88039 11.1811 5.86998C12.9369 3.85957 15.354 2.54361 17.9955 2.15997C20.637 1.77633 23.3286 2.35031 25.5838 3.77818C27.839 5.20605 29.509 7.39358 30.292 9.94539C30.3546 10.1497 30.4804 10.3289 30.6512 10.4574C30.822 10.5858 31.0291 10.6568 31.2428 10.6602C32.5901 10.6826 33.9011 11.1006 35.0127 11.8622C36.1243 12.6238 36.9874 13.6954 37.4948 14.9437C38.0022 16.192 38.1313 17.5619 37.8663 18.883C37.6012 20.2042 36.9536 21.4182 36.0039 22.3742Z" fill="#004FFC"/>
<path d="M20.1427 22.6651C19.4888 22.6253 18.8427 22.8249 18.3251 23.2265C17.8075 23.6281 17.4538 24.2043 17.3299 24.8476C17.206 25.4909 17.3205 26.1573 17.652 26.7224C17.9834 27.2875 18.5092 27.7127 19.1311 27.9186V29.1864C19.1311 29.4547 19.2377 29.712 19.4274 29.9017C19.6171 30.0914 19.8744 30.198 20.1427 30.198C20.411 30.198 20.6683 30.0914 20.858 29.9017C21.0477 29.712 21.1543 29.4547 21.1543 29.1864V27.9186C21.7762 27.7127 22.302 27.2875 22.6335 26.7224C22.9649 26.1573 23.0794 25.4909 22.9555 24.8476C22.8316 24.2043 22.4779 23.6281 21.9603 23.2265C21.4427 22.8249 20.7966 22.6253 20.1427 22.6651ZM20.1427 24.6883C20.2761 24.6883 20.4065 24.7278 20.5174 24.8019C20.6283 24.876 20.7147 24.9814 20.7658 25.1046C20.8168 25.2278 20.8302 25.3634 20.8041 25.4942C20.7781 25.625 20.7139 25.7452 20.6196 25.8395C20.5253 25.9338 20.4051 25.9981 20.2743 26.0241C20.1435 26.0501 20.0079 26.0367 19.8846 25.9857C19.7614 25.9347 19.6561 25.8482 19.582 25.7373C19.5079 25.6264 19.4683 25.496 19.4683 25.3627C19.4683 25.1838 19.5394 25.0123 19.6659 24.8858C19.7923 24.7593 19.9639 24.6883 20.1427 24.6883Z" fill="#004FFC"/>
</svg>
