<svg width="35" height="35" viewBox="0 0 35 35" fill="none" xmlns="http://www.w3.org/2000/svg">
<g clip-path="url(#clip0_6034_38452)">
<path d="M34.4533 19.4368L32.2375 18.0502C32.247 17.8691 32.2529 17.6866 32.2529 17.5C32.2529 17.3134 32.247 17.1309 32.2375 16.9498L34.4533 15.5632C34.8522 15.3137 35.03 14.8246 34.8846 14.3771L33.3997 9.80725C33.2543 9.35977 32.823 9.06869 32.3537 9.10116L29.7363 9.28245C29.5311 8.97565 29.3176 8.67993 29.0969 8.39733L30.0768 5.96736C30.2528 5.53096 30.1092 5.03084 29.7285 4.75433L25.8413 1.92992C25.4606 1.65334 24.9406 1.67139 24.58 1.9736L22.5798 3.64984C22.2439 3.52864 21.8958 3.41811 21.5311 3.317L20.8961 0.776699C20.7819 0.320195 20.3718 0 19.9013 0H15.0961C14.6256 0 14.2155 0.320195 14.1014 0.776699L13.4663 3.317C13.1017 3.41811 12.7535 3.52864 12.4177 3.64984L10.4176 1.9736C10.0569 1.67139 9.53688 1.65341 9.15619 1.92999L5.26879 4.75439C4.88817 5.03098 4.74455 5.53109 4.92057 5.96743L5.9005 8.39733C5.67984 8.67993 5.46628 8.97559 5.26107 9.28245L2.64373 9.10116C2.17437 9.06862 1.74309 9.35977 1.59769 9.80725L0.112788 14.3771C-0.0326125 14.8246 0.14519 15.3136 0.544067 15.5632L2.75994 16.9498C2.75043 17.1309 2.74449 17.3135 2.74449 17.5C2.74449 17.6865 2.75043 17.8689 2.75994 18.0502L0.544067 19.4368C0.14519 19.6863 -0.0326125 20.1754 0.112788 20.6229L1.59769 25.1928C1.74309 25.6402 2.17437 25.9313 2.64379 25.8988L5.26107 25.7175C5.46628 26.0244 5.67984 26.32 5.9005 26.6027L4.92057 29.0326C4.74461 29.469 4.88817 29.9691 5.26879 30.2457L9.15619 33.0701C9.53688 33.3467 10.0569 33.3286 10.4176 33.0264L12.4177 31.3502C12.7537 31.4715 13.1018 31.582 13.4663 31.6831L14.1014 34.2234C14.2155 34.6799 14.6256 35.0001 15.0961 35.0001H19.9013C20.3718 35.0001 20.7819 34.6799 20.896 34.2234L21.5311 31.6831C21.8956 31.582 22.2438 31.4715 22.5798 31.3502L24.5799 33.0264C24.9406 33.3286 25.4606 33.3466 25.8413 33.0701L29.7287 30.2457C30.1093 29.9691 30.2529 29.469 30.0769 29.0326L29.097 26.6027C29.3176 26.32 29.5312 26.0244 29.7364 25.7175L32.3537 25.8988C32.823 25.9314 33.2544 25.6402 33.3997 25.1928L34.8846 20.6229C35.03 20.1754 34.8522 19.6863 34.4533 19.4368ZM25.0182 24.6777H22.6257V25.7031C22.6257 26.2694 22.1665 26.7285 21.6003 26.7285C21.034 26.7285 20.5749 26.2694 20.5749 25.7031V24.6777H9.97916C9.41288 24.6777 8.95377 24.2186 8.95377 23.6523C8.95377 23.0861 9.41288 22.627 9.97916 22.627H20.5749V21.6016C20.5749 21.0353 21.034 20.5762 21.6003 20.5762C22.1665 20.5762 22.6257 21.0353 22.6257 21.6016V22.627H25.0182C25.5845 22.627 26.0436 23.0861 26.0436 23.6523C26.0436 24.2186 25.5845 24.6777 25.0182 24.6777ZM25.0182 18.5254H15.1061V19.5508C15.1061 20.1171 14.647 20.5762 14.0807 20.5762C13.5144 20.5762 13.0553 20.1171 13.0553 19.5508V18.5254H9.97916C9.41288 18.5254 8.95377 18.0663 8.95377 17.5C8.95377 16.9337 9.41288 16.4746 9.97916 16.4746H13.0553V15.4492C13.0553 14.8829 13.5144 14.4238 14.0807 14.4238C14.647 14.4238 15.1061 14.8829 15.1061 15.4492V16.4746H25.0182C25.5845 16.4746 26.0436 16.9337 26.0436 17.5C26.0436 18.0663 25.5845 18.5254 25.0182 18.5254ZM25.0182 12.373H22.6257V13.3984C22.6257 13.9647 22.1665 14.4238 21.6003 14.4238C21.034 14.4238 20.5749 13.9647 20.5749 13.3984V12.373H9.97916C9.41288 12.373 8.95377 11.9139 8.95377 11.3477C8.95377 10.7814 9.41288 10.3223 9.97916 10.3223H20.5749V9.29688C20.5749 8.73059 21.034 8.27148 21.6003 8.27148C22.1665 8.27148 22.6257 8.73059 22.6257 9.29688V10.3223H25.0182C25.5845 10.3223 26.0436 10.7814 26.0436 11.3477C26.0436 11.9139 25.5845 12.373 25.0182 12.373Z" fill="#004FFC"/>
</g>
<defs>
<clipPath id="clip0_6034_38452">
<rect width="35" height="35" fill="white"/>
</clipPath>
</defs>
</svg>
