<svg width="39" height="45" viewBox="0 0 39 45" fill="none" xmlns="http://www.w3.org/2000/svg">
<g clip-path="url(#clip0_6034_40642)">
<path d="M34.0892 8.83573C34.0586 8.61073 33.8637 8.48621 33.7027 8.4725C33.542 8.45893 30.1408 8.20388 30.1408 8.20388C30.1408 8.20388 27.7787 5.83137 27.5194 5.56876C27.26 5.30631 26.7533 5.38614 26.5567 5.44471C26.5278 5.45334 26.0406 5.60544 25.2348 5.85772C24.4457 3.56056 23.0531 1.44957 20.6032 1.44957C20.5356 1.44957 20.466 1.45234 20.3964 1.45635C19.6996 0.524141 18.8365 0.119141 18.091 0.119141C12.384 0.119141 9.65752 7.33686 8.80265 11.0047C6.58505 11.6999 5.00967 12.1941 4.80845 12.258C3.57062 12.6509 3.53148 12.6903 3.36894 13.8703C3.24662 14.7637 0.0078125 40.1038 0.0078125 40.1038L25.2453 44.8877L38.9198 41.8949C38.9198 41.8949 34.1194 9.06073 34.0892 8.83573ZM23.8399 6.29416L21.7044 6.96284C21.7052 6.81058 21.7059 6.66078 21.7059 6.49697C21.7059 5.06929 21.5101 3.91979 21.1958 3.00854C22.4581 3.16882 23.2988 4.62191 23.8399 6.29416ZM19.6299 3.29164C19.9808 4.18131 20.209 5.45811 20.209 7.18106C20.209 7.26921 20.2083 7.34981 20.2075 7.43133C18.8187 7.86654 17.3096 8.33904 15.7971 8.81308C16.6464 5.49726 18.2382 3.89575 19.6299 3.29164ZM17.9343 1.66779C18.1806 1.66779 18.4287 1.75239 18.6662 1.91775C16.8372 2.78847 14.8768 4.98145 14.0488 9.36078L10.5627 10.4531C11.5324 7.11279 13.8351 1.66779 17.9343 1.66779Z" fill="#95BF46"/>
<path d="M33.7023 8.47349C33.5416 8.45993 30.1404 8.20488 30.1404 8.20488C30.1404 8.20488 27.7783 5.83236 27.519 5.56976C27.422 5.47205 27.2911 5.42197 27.1543 5.40039L25.2461 44.8884L38.9194 41.8959C38.9194 41.8959 34.1189 9.06173 34.0888 8.83673C34.0581 8.61173 33.8633 8.48721 33.7023 8.47349Z" fill="#5E8E3E"/>
<path d="M20.6033 16.1175L18.9172 21.1917C18.9172 21.1917 17.4399 20.394 15.629 20.394C12.9742 20.394 12.8406 22.0795 12.8406 22.5043C12.8406 24.8218 18.8119 25.7097 18.8119 31.1381C18.8119 35.4089 16.1344 38.159 12.5243 38.159C8.19203 38.159 5.97656 35.4313 5.97656 35.4313L7.13654 31.5539C7.13654 31.5539 9.41386 33.5319 11.3355 33.5319C12.5911 33.5319 13.1019 32.5317 13.1019 31.8009C13.1019 28.7779 8.203 28.6431 8.203 23.6757C8.203 19.4948 11.1691 15.449 17.1566 15.449C19.4636 15.449 20.6033 16.1175 20.6033 16.1175Z" fill="white"/>
</g>
<defs>
<clipPath id="clip0_6034_40642">
<rect width="39" height="45" fill="white"/>
</clipPath>
</defs>
</svg>
