<svg width="40" height="40" viewBox="0 0 40 40" fill="none" xmlns="http://www.w3.org/2000/svg">
<g clip-path="url(#clip0_6034_40596)">
<path fill-rule="evenodd" clip-rule="evenodd" d="M14.6658 0C12.4547 0.00163099 10.6651 1.79246 10.6668 3.99918C10.6651 6.20591 12.4563 7.99674 14.6674 7.99837H18.6681V4.00081C18.6697 1.79409 16.8786 0.00326198 14.6658 0C14.6674 0 14.6674 0 14.6658 0ZM14.6658 10.6667H4.00066C1.78951 10.6683 -0.00162979 12.4591 4.46622e-06 14.6658C-0.00326404 16.8726 1.78788 18.6634 3.99902 18.6667H14.6658C16.8769 18.665 18.6681 16.8742 18.6665 14.6675C18.6681 12.4591 16.8769 10.6683 14.6658 10.6667Z" fill="#36C5F0"/>
<path fill-rule="evenodd" clip-rule="evenodd" d="M39.9985 14.6658C40.0001 12.4591 38.209 10.6683 35.9978 10.6667C33.7867 10.6683 31.9955 12.4591 31.9972 14.6658V18.6667H35.9978C38.209 18.665 40.0001 16.8742 39.9985 14.6658ZM29.3317 14.6658V3.99918C29.3333 1.79409 27.5438 0.00326198 25.3327 0C23.1215 0.00163099 21.3304 1.79246 21.332 3.99918V14.6658C21.3288 16.8726 23.1199 18.6634 25.3311 18.6667C27.5422 18.665 29.3333 16.8742 29.3317 14.6658Z" fill="#2EB67D"/>
<path fill-rule="evenodd" clip-rule="evenodd" d="M25.3327 40.0003C27.5438 39.9987 29.335 38.2079 29.3333 36.0011C29.335 33.7944 27.5438 32.0036 25.3327 32.002H21.332V36.0011C21.3304 38.2062 23.1215 39.9971 25.3327 40.0003ZM25.3327 29.332H35.9995C38.2106 29.3304 40.0018 27.5396 40.0001 25.3328C40.0034 23.1261 38.2122 21.3353 36.0011 21.332H25.3343C23.1232 21.3337 21.332 23.1245 21.3337 25.3312C21.332 27.5396 23.1215 29.3304 25.3327 29.332Z" fill="#ECB22E"/>
<path fill-rule="evenodd" clip-rule="evenodd" d="M1.11744e-06 25.3332C-0.00163314 27.5399 1.78951 29.3307 4.00065 29.3324C6.2118 29.3307 8.00294 27.5399 8.00131 25.3332V21.334H4.00065C1.78951 21.3356 -0.00163314 23.1264 1.11744e-06 25.3332ZM10.6668 25.3332V35.9998C10.6635 38.2066 12.4546 39.9974 14.6658 40.0006C16.8769 39.999 18.6681 38.2082 18.6664 36.0015V25.3364C18.6697 23.1297 16.8786 21.3389 14.6674 21.3356C12.4546 21.3356 10.6651 23.1264 10.6668 25.3332Z" fill="#E01E5A"/>
</g>
<defs>
<clipPath id="clip0_6034_40596">
<rect width="40" height="40" fill="white"/>
</clipPath>
</defs>
</svg>
