<svg width="40" height="40" viewBox="0 0 40 40" fill="none" xmlns="http://www.w3.org/2000/svg">
<path d="M37.5438 16.9289C37.3875 12.4763 35.5844 8.31266 32.4183 5.14654C29.0997 1.82734 24.6892 0 20 0C10.5291 0 2.79045 7.53835 2.45687 16.9289C1.01158 17.5712 0 19.0178 0 20.699V25.3309C0 27.6053 1.8503 29.4563 4.12539 29.4563C5.59747 29.4563 6.79466 28.2591 6.79466 26.787V19.2423C6.79466 17.8601 5.7346 16.7331 4.3869 16.5992C4.8844 8.4179 11.695 1.91345 20 1.91345C24.179 1.91345 28.1086 3.54243 31.0661 6.49998C33.7819 9.21581 35.3714 12.7557 35.6105 16.5998C34.2641 16.735 33.206 17.8614 33.206 19.2423V26.7864C33.206 28.18 34.2826 29.314 35.6463 29.432V31.3385C35.6463 33.4853 33.8993 35.2317 31.7524 35.2317H28.8688C28.7272 34.8273 28.5053 34.4536 28.194 34.1436C27.6487 33.5957 26.9216 33.294 26.1473 33.294H23.175C22.7484 33.294 22.3389 33.3846 21.9638 33.5593C20.9408 34.0294 20.28 35.0614 20.28 36.1884C20.28 36.9627 20.5817 37.6898 21.1283 38.2339C21.6749 38.7818 22.402 39.0835 23.175 39.0835H26.1473C27.3795 39.0835 28.4657 38.2868 28.8707 37.1451H31.7524C34.9549 37.1451 37.5597 34.5403 37.5597 31.3385V29.0914C38.9961 28.4453 40 27.0039 40 25.3296V20.6978C40 19.0178 38.9884 17.5712 37.5438 16.9289ZM4.88057 19.2423V26.7864C4.88057 27.2029 4.54189 27.5422 4.12476 27.5422C2.90525 27.5422 1.91281 26.5497 1.91281 25.3302V20.6984C1.91281 19.4783 2.90525 18.4865 4.12476 18.4865C4.54189 18.4865 4.88057 18.8258 4.88057 19.2423ZM27.1072 36.3938C27.0122 36.8441 26.6078 37.1713 26.1466 37.1713H23.1744C22.9129 37.1713 22.6673 37.0692 22.4798 36.8817C22.2949 36.6974 22.1928 36.4512 22.1928 36.1897C22.1928 35.8076 22.4167 35.4588 22.7675 35.2974C22.8925 35.2387 23.0296 35.2087 23.1744 35.2087H26.1466C26.4081 35.2087 26.6537 35.3101 26.8406 35.4977C27.0255 35.682 27.1276 35.9282 27.1276 36.1897C27.1282 36.2599 27.1206 36.33 27.1072 36.3938ZM38.0866 25.3302C38.0866 26.5497 37.0941 27.5422 35.8746 27.5422C35.4581 27.5422 35.1188 27.2035 35.1188 26.7864V19.2423C35.1188 18.8258 35.4575 18.4865 35.8746 18.4865C37.0941 18.4865 38.0866 19.4789 38.0866 20.6984V25.3302Z" fill="#004FFC"/>
<path d="M26.1942 25.6593C28.4297 25.6593 30.2481 23.8402 30.2481 21.6053V13.345C30.2481 12.2645 29.8259 11.2466 29.0592 10.4799C28.2926 9.71325 27.2753 9.29102 26.1942 9.29102H13.804C11.5684 9.29102 9.75 11.1094 9.75 13.345V21.6053C9.75 23.8409 11.5684 25.6593 13.804 25.6593H13.8799V27.7998C13.8799 28.6162 14.3665 29.3408 15.1191 29.6463C15.3621 29.7439 15.6147 29.7923 15.8647 29.7923C16.3858 29.7923 16.8935 29.5857 17.2654 29.2011L20.8263 25.6593H26.1942ZM19.758 24.0239L15.9043 27.8566C15.8871 27.8744 15.8743 27.8878 15.838 27.8719C15.7939 27.854 15.7939 27.8253 15.7939 27.7998V24.7026C15.7939 24.1745 15.366 23.7458 14.8372 23.7458H13.8046C12.624 23.7458 11.6641 22.7853 11.6641 21.6053V13.345C11.6641 12.1644 12.624 11.2045 13.8046 11.2045H26.1948C26.765 11.2045 27.3014 11.4277 27.7071 11.8327C28.1127 12.2384 28.3353 12.7754 28.3353 13.345V21.6053C28.3353 22.7859 27.3748 23.7458 26.1948 23.7458H20.4328C20.1796 23.7458 19.9372 23.846 19.758 24.0239Z" fill="#004FFC"/>
<path d="M15.3529 16.2168C14.5748 16.2168 13.9414 16.8508 13.9414 17.6283C13.9414 18.4058 14.5754 19.0398 15.3529 19.0398C16.1317 19.0398 16.7657 18.4058 16.7657 17.6283C16.7657 16.8508 16.1323 16.2168 15.3529 16.2168Z" fill="#004FFC"/>
<path d="M20.0013 16.2168C19.2232 16.2168 18.5898 16.8508 18.5898 17.6283C18.5898 18.4058 19.2238 19.0398 20.0013 19.0398C20.7807 19.0398 21.4141 18.4058 21.4141 17.6283C21.4141 16.8508 20.7807 16.2168 20.0013 16.2168Z" fill="#004FFC"/>
<path d="M24.6459 16.2168C23.8677 16.2168 23.2344 16.8508 23.2344 17.6283C23.2344 18.4058 23.8684 19.0398 24.6459 19.0398C25.4246 19.0398 26.0586 18.4058 26.0586 17.6283C26.0586 16.8508 25.4246 16.2168 24.6459 16.2168Z" fill="#004FFC"/>
</svg>
