<svg width="40" height="45" viewBox="0 0 40 45" fill="none" xmlns="http://www.w3.org/2000/svg">
<path d="M22.1025 43.4435C19.5108 43.4468 16.9508 42.8818 14.6077 41.7894C12.2645 40.697 10.1968 39.1046 8.55407 37.1273C8.48073 37.0395 8.42563 36.9384 8.39192 36.8296C8.35821 36.7209 8.34654 36.6066 8.35759 36.4934C8.36864 36.3802 8.40219 36.2703 8.45631 36.1698C8.51044 36.0694 8.58409 35.9805 8.67305 35.9082C8.76201 35.8358 8.86455 35.7815 8.97481 35.7482C9.08507 35.715 9.20089 35.7035 9.31565 35.7144C9.43042 35.7253 9.54188 35.7584 9.64368 35.8117C9.74548 35.8651 9.83563 35.9378 9.90897 36.0255C11.387 37.8057 13.2479 39.2395 15.3567 40.2231C17.4656 41.2067 19.7698 41.7155 22.1025 41.7127C30.8082 41.7127 37.8909 34.7204 37.8909 26.1277C37.8905 22.4594 36.5776 18.9089 34.1836 16.1018C31.7896 13.2947 28.468 11.4111 24.8041 10.7828C21.1402 10.1544 17.369 10.8218 14.155 12.6671C10.941 14.5125 8.49034 17.4176 7.23481 20.8705C7.19592 20.9775 7.13605 21.0759 7.05862 21.1601C6.98118 21.2443 6.88769 21.3126 6.78349 21.3611C6.67929 21.4096 6.56642 21.4375 6.45132 21.443C6.33622 21.4485 6.22114 21.4316 6.11267 21.3932C6.00419 21.3549 5.90443 21.2958 5.81909 21.2194C5.73375 21.1431 5.6645 21.0508 5.61529 20.9481C5.56608 20.8453 5.53787 20.7339 5.53228 20.6204C5.52669 20.5069 5.54383 20.3934 5.58271 20.2864C6.66857 17.3037 8.56382 14.6723 11.0618 12.6792C13.5598 10.6861 16.5646 9.40787 19.7486 8.98379C22.9326 8.55971 26.1735 9.0061 29.1179 10.2743C32.0623 11.5425 34.5972 13.5838 36.4461 16.1756C38.2951 18.7674 39.3871 21.8102 39.6031 24.9722C39.8191 28.1343 39.1508 31.2941 37.671 34.1071C36.1913 36.9202 33.9569 39.2785 31.2116 40.9248C28.4663 42.5712 25.3154 43.4424 22.1025 43.4435Z" fill="#004FFC"/>
<path d="M5.63903 24.4358C5.40635 24.4358 5.18321 24.3447 5.01868 24.1824C4.85415 24.0201 4.76172 23.8 4.76172 23.5705C4.76172 23.3993 4.81317 23.232 4.90957 23.0897C5.00597 22.9474 5.14299 22.8364 5.3033 22.771C5.46361 22.7055 5.64001 22.6883 5.81019 22.7217C5.98037 22.7551 6.13669 22.8375 6.25939 22.9585C6.38208 23.0796 6.46564 23.2338 6.49949 23.4016C6.53334 23.5695 6.51597 23.7435 6.44956 23.9016C6.38316 24.0598 6.27072 24.1949 6.12644 24.29C5.98217 24.3851 5.81255 24.4358 5.63903 24.4358Z" fill="#004FFC"/>
<path d="M26.678 5.82458H17.521C16.9752 5.82286 16.4523 5.6078 16.0669 5.22652C15.6815 4.84523 15.465 4.32881 15.4648 3.79038V2.03257C15.4654 1.49368 15.6827 0.977016 16.069 0.595959C16.4553 0.214902 16.9791 0.000572684 17.5254 0H26.678C27.2243 0.000572684 27.7481 0.214902 28.1344 0.595959C28.5207 0.977016 28.738 1.49368 28.7386 2.03257V3.79038C28.7385 4.32956 28.5214 4.84664 28.135 5.22804C27.7486 5.60945 27.2246 5.824 26.678 5.82458ZM17.521 1.73077C17.4399 1.73077 17.3621 1.76256 17.3047 1.81916C17.2473 1.87576 17.2151 1.95253 17.2151 2.03257V3.79038C17.2151 3.87043 17.2473 3.94719 17.3047 4.00379C17.3621 4.06039 17.4399 4.09219 17.521 4.09219H26.678C26.7182 4.09219 26.758 4.08438 26.7951 4.06921C26.8322 4.05404 26.8659 4.03181 26.8944 4.00379C26.9228 3.97576 26.9453 3.94249 26.9607 3.90588C26.9761 3.86926 26.984 3.83002 26.984 3.79038V2.03257C26.984 1.99294 26.9761 1.95369 26.9607 1.91708C26.9453 1.88046 26.9228 1.84719 26.8944 1.81916C26.8659 1.79114 26.8322 1.76891 26.7951 1.75374C26.758 1.73857 26.7182 1.73077 26.678 1.73077H17.521Z" fill="#004FFC"/>
<path d="M25.1273 10.8108C24.8946 10.8108 24.6715 10.7196 24.507 10.5573C24.3424 10.395 24.25 10.1749 24.25 9.94537V4.95913C24.25 4.72962 24.3424 4.50951 24.507 4.34722C24.6715 4.18492 24.8946 4.09375 25.1273 4.09375C25.36 4.09375 25.5831 4.18492 25.7477 4.34722C25.9122 4.50951 26.0046 4.72962 26.0046 4.95913V9.94537C26.0046 10.1749 25.9122 10.395 25.7477 10.5573C25.5831 10.7196 25.36 10.8108 25.1273 10.8108Z" fill="#004FFC"/>
<path d="M19.0804 10.7967C18.8478 10.7967 18.6246 10.7055 18.4601 10.5432C18.2956 10.3809 18.2031 10.1608 18.2031 9.93131V4.95913C18.2031 4.72962 18.2956 4.50951 18.4601 4.34722C18.6246 4.18492 18.8478 4.09375 19.0804 4.09375C19.3131 4.09375 19.5363 4.18492 19.7008 4.34722C19.8653 4.50951 19.9578 4.72962 19.9578 4.95913V9.93131C19.9578 10.1608 19.8653 10.3809 19.7008 10.5432C19.5363 10.7055 19.3131 10.7967 19.0804 10.7967Z" fill="#004FFC"/>
<path d="M32.5454 14.1697C32.3719 14.1697 32.2023 14.119 32.058 14.0239C31.9137 13.9289 31.8013 13.7938 31.7348 13.6357C31.6684 13.4776 31.651 13.3036 31.6848 13.1357C31.7186 12.9679 31.8021 12.8136 31.9247 12.6926L33.8373 10.8039C33.9182 10.7216 34.015 10.6559 34.1219 10.6108C34.2288 10.5657 34.3437 10.542 34.46 10.541C34.5763 10.5401 34.6916 10.562 34.7993 10.6055C34.9069 10.6489 35.0047 10.713 35.087 10.7941C35.1692 10.8751 35.2344 10.9715 35.2786 11.0776C35.3227 11.1837 35.3451 11.2974 35.3443 11.4121C35.3435 11.5268 35.3197 11.6403 35.2741 11.7458C35.2284 11.8513 35.162 11.9468 35.0787 12.0268L33.1667 13.916C33.0851 13.9965 32.9883 14.0604 32.8817 14.1039C32.7751 14.1474 32.6608 14.1698 32.5454 14.1697Z" fill="#004FFC"/>
<path d="M36.523 13.6244C36.1885 13.6254 35.8571 13.5609 35.548 13.4345C35.239 13.3081 34.9585 13.1225 34.7228 12.8883L32.9775 11.1662C32.5016 10.6949 32.2344 10.0568 32.2344 9.3916C32.2344 8.72639 32.5016 8.08829 32.9775 7.61702L33.9135 6.69322C34.1499 6.45984 34.4305 6.27469 34.7394 6.14837C35.0484 6.02205 35.3795 5.95703 35.7139 5.95703C36.0483 5.95703 36.3795 6.02205 36.6884 6.14837C36.9973 6.27469 37.278 6.45984 37.5143 6.69322L39.2591 8.41588C39.7353 8.88692 40.0027 9.52498 40.0027 10.1902C40.0027 10.8554 39.7353 11.4934 39.2591 11.9645L38.3231 12.8883C38.0874 13.1224 37.8069 13.308 37.4979 13.4344C37.1889 13.5607 36.8575 13.6253 36.523 13.6244ZM35.7142 7.68787C35.6103 7.68751 35.5073 7.70755 35.4112 7.74683C35.3152 7.7861 35.2281 7.84384 35.1549 7.91666L34.2189 8.84046C34.0711 8.98683 33.9882 9.18501 33.9882 9.3916C33.9882 9.59819 34.0711 9.79636 34.2189 9.94274L35.9637 11.6649C36.0371 11.7374 36.1243 11.795 36.2202 11.8342C36.3162 11.8735 36.4191 11.8937 36.523 11.8937C36.6269 11.8937 36.7298 11.8735 36.8257 11.8342C36.9217 11.795 37.0089 11.7374 37.0823 11.6649L38.0177 10.7411C38.1657 10.5949 38.2489 10.3968 38.2489 10.1902C38.2489 9.9836 38.1657 9.78546 38.0177 9.63931L36.2729 7.91666C36.1998 7.8439 36.1128 7.78621 36.0169 7.74693C35.9209 7.70765 35.8181 7.68758 35.7142 7.68787Z" fill="#004FFC"/>
<path d="M11.6588 14.1697C11.5435 14.1697 11.4294 14.1473 11.3229 14.1038C11.2164 14.0603 11.1196 13.9965 11.0381 13.916L9.12504 12.0268C9.04167 11.9468 8.97526 11.8513 8.92965 11.7458C8.88405 11.6403 8.86017 11.5268 8.85939 11.4121C8.85862 11.2974 8.88098 11.1837 8.92516 11.0776C8.96934 10.9715 9.03446 10.8751 9.11674 10.7941C9.19903 10.713 9.29683 10.6489 9.40445 10.6055C9.51208 10.562 9.62739 10.5401 9.74367 10.541C9.85996 10.542 9.9749 10.5657 10.0818 10.6108C10.1887 10.6559 10.2855 10.7216 10.3664 10.8039L12.2795 12.6926C12.4022 12.8136 12.4857 12.9679 12.5195 13.1357C12.5533 13.3036 12.5359 13.4776 12.4694 13.6357C12.403 13.7938 12.2905 13.9289 12.1462 14.0239C12.002 14.119 11.8323 14.1697 11.6588 14.1697Z" fill="#004FFC"/>
<path d="M7.68671 13.6244C7.3522 13.6253 7.02084 13.5607 6.71182 13.4343C6.40281 13.308 6.12231 13.1224 5.88658 12.8882L4.95059 11.9644C4.47442 11.4934 4.20703 10.8553 4.20703 10.1901C4.20703 9.52494 4.47442 8.88687 4.95059 8.41583L6.69535 6.69318C6.93164 6.45981 7.21225 6.27467 7.52114 6.14836C7.83002 6.02205 8.16111 5.95703 8.49549 5.95703C8.82986 5.95703 9.16096 6.02205 9.46984 6.14836C9.77872 6.27467 10.0593 6.45981 10.2956 6.69318L11.2316 7.61697C11.7078 8.08802 11.9752 8.72608 11.9752 9.39128C11.9752 10.0565 11.7078 10.6945 11.2316 11.1656L9.48685 12.8882C9.25112 13.1224 8.97062 13.308 8.6616 13.4343C8.35259 13.5607 8.02122 13.6253 7.68671 13.6244ZM7.93675 7.91661L6.19144 9.63927C6.04368 9.78555 5.96071 9.98364 5.96071 10.1901C5.96071 10.3966 6.04368 10.5947 6.19144 10.741L7.12743 11.6648C7.20082 11.7374 7.288 11.7949 7.38397 11.8342C7.47994 11.8734 7.58281 11.8937 7.68671 11.8937C7.79061 11.8937 7.89349 11.8734 7.98946 11.8342C8.08543 11.7949 8.17261 11.7374 8.246 11.6648L9.99076 9.94269C10.1386 9.79632 10.2215 9.59814 10.2215 9.39155C10.2215 9.18496 10.1386 8.98679 9.99076 8.84041L9.05478 7.91661C8.98143 7.84408 8.8943 7.78654 8.79838 7.74728C8.70245 7.70802 8.59962 7.68781 8.49576 7.68781C8.39191 7.68781 8.28907 7.70802 8.19315 7.74728C8.09722 7.78654 8.01009 7.84408 7.93675 7.91661Z" fill="#004FFC"/>
<path d="M22.1039 16.9882C21.8712 16.9882 21.648 16.897 21.4835 16.7347C21.319 16.5724 21.2266 16.3523 21.2266 16.1228V13.7462C21.2266 13.6326 21.2493 13.5201 21.2933 13.4151C21.3374 13.3101 21.4021 13.2147 21.4835 13.1343C21.565 13.054 21.6617 12.9902 21.7681 12.9467C21.8746 12.9032 21.9887 12.8809 22.1039 12.8809C22.2191 12.8809 22.3332 12.9032 22.4396 12.9467C22.546 12.9902 22.6428 13.054 22.7242 13.1343C22.8057 13.2147 22.8703 13.3101 22.9144 13.4151C22.9585 13.5201 22.9812 13.6326 22.9812 13.7462V16.1228C22.9812 16.3523 22.8888 16.5724 22.7242 16.7347C22.5597 16.897 22.3366 16.9882 22.1039 16.9882Z" fill="#004FFC"/>
<path d="M22.1039 39.3736C21.8712 39.3736 21.648 39.2824 21.4835 39.1202C21.319 38.9579 21.2266 38.7377 21.2266 38.5082V36.1349C21.2266 36.0213 21.2493 35.9087 21.2933 35.8037C21.3374 35.6988 21.4021 35.6034 21.4835 35.523C21.565 35.4426 21.6617 35.3789 21.7681 35.3354C21.8746 35.2919 21.9887 35.2695 22.1039 35.2695C22.2191 35.2695 22.3332 35.2919 22.4396 35.3354C22.546 35.3789 22.6428 35.4426 22.7242 35.523C22.8057 35.6034 22.8703 35.6988 22.9144 35.8037C22.9585 35.9087 22.9812 36.0213 22.9812 36.1349V38.5109C22.9805 38.74 22.8877 38.9594 22.7233 39.1211C22.5588 39.2828 22.3361 39.3736 22.1039 39.3736Z" fill="#004FFC"/>
<path d="M17.0352 18.3266C16.881 18.3267 16.7296 18.2868 16.5961 18.2108C16.4626 18.1348 16.3517 18.0255 16.2746 17.8939L15.0683 15.8386C15.009 15.7401 14.9701 15.631 14.9539 15.5176C14.9377 15.4041 14.9445 15.2887 14.9738 15.1779C15.0032 15.067 15.0545 14.9631 15.1249 14.872C15.1953 14.7809 15.2834 14.7045 15.3839 14.6472C15.4845 14.5899 15.5956 14.5529 15.7108 14.5383C15.8259 14.5237 15.9429 14.5318 16.0549 14.5621C16.1669 14.5924 16.2716 14.6444 16.3631 14.715C16.4546 14.7855 16.5309 14.8733 16.5877 14.9732L17.794 17.0285C17.871 17.16 17.9116 17.3092 17.9116 17.4611C17.9116 17.613 17.8711 17.7622 17.7941 17.8937C17.7172 18.0253 17.6065 18.1345 17.4732 18.2105C17.3398 18.2865 17.1886 18.3265 17.0346 18.3266H17.0352Z" fill="#004FFC"/>
<path d="M28.3773 37.714C28.2232 37.7141 28.0717 37.6742 27.9382 37.5982C27.8047 37.5222 27.6939 37.4129 27.6168 37.2813L26.4105 35.226C26.3529 35.1275 26.3155 35.0189 26.3005 34.9062C26.2854 34.7935 26.2931 34.679 26.3229 34.5692C26.3527 34.4594 26.4042 34.3565 26.4744 34.2663C26.5445 34.1761 26.632 34.1005 26.7318 34.0436C26.8316 33.9868 26.9418 33.95 27.056 33.9351C27.1703 33.9203 27.2864 33.9278 27.3977 33.9573C27.509 33.9867 27.6133 34.0375 27.7047 34.1067C27.7961 34.1759 27.8728 34.2621 27.9304 34.3606L29.1367 36.4159C29.2137 36.5474 29.2542 36.6965 29.2543 36.8484C29.2543 37.0002 29.2139 37.1494 29.137 37.2809C29.0601 37.4124 28.9494 37.5217 28.8162 37.5977C28.683 37.6737 28.5318 37.7138 28.3779 37.714H28.3773Z" fill="#004FFC"/>
<path d="M11.2391 20.8054C11.0869 20.8054 10.9374 20.766 10.8054 20.6913L10.7983 20.6875C10.5961 20.5738 10.4481 20.3856 10.3866 20.1642C10.3252 19.9429 10.3554 19.7065 10.4706 19.5071C10.5859 19.3077 10.7767 19.1616 11.0011 19.101C11.2256 19.0404 11.4652 19.0702 11.6674 19.1839L11.675 19.1882C11.8433 19.2829 11.9751 19.4297 12.0498 19.6059C12.1246 19.7821 12.1382 19.9778 12.0884 20.1624C12.0386 20.347 11.9283 20.5102 11.7747 20.6265C11.6211 20.7428 11.4328 20.8057 11.2391 20.8054Z" fill="#004FFC"/>
<path d="M32.9703 33.1821C32.8162 33.1823 32.6649 33.1422 32.5316 33.0659L30.448 31.876C30.3468 31.8199 30.2578 31.7446 30.1862 31.6544C30.1147 31.5641 30.062 31.4608 30.0313 31.3503C30.0006 31.2399 29.9924 31.1245 30.0072 31.0109C30.022 30.8973 30.0595 30.7877 30.1176 30.6885C30.1756 30.5893 30.2531 30.5025 30.3454 30.433C30.4378 30.3636 30.5432 30.3129 30.6555 30.284C30.7679 30.255 30.8849 30.2483 30.9999 30.2644C31.1149 30.2804 31.2255 30.3187 31.3253 30.3772L33.409 31.5671C33.5763 31.6623 33.7071 31.8094 33.7811 31.9854C33.8551 32.1614 33.8681 32.3566 33.8181 32.5407C33.7681 32.7248 33.6579 32.8874 33.5046 33.0034C33.3513 33.1194 33.1635 33.1822 32.9703 33.1821Z" fill="#004FFC"/>
<path d="M34.6433 26.9944H32.2367C32.004 26.9944 31.7809 26.9033 31.6163 26.741C31.4518 26.5787 31.3594 26.3586 31.3594 26.1291C31.3594 25.8995 31.4518 25.6794 31.6163 25.5171C31.7809 25.3548 32.004 25.2637 32.2367 25.2637H34.6433C34.8759 25.2637 35.0991 25.3548 35.2636 25.5171C35.4282 25.6794 35.5206 25.8995 35.5206 26.1291C35.5206 26.3586 35.4282 26.5787 35.2636 26.741C35.0991 26.9033 34.8759 26.9944 34.6433 26.9944Z" fill="#004FFC"/>
<path d="M30.8816 21.9949C30.6884 21.995 30.5006 21.9322 30.3473 21.8162C30.194 21.7002 30.0838 21.5376 30.0338 21.3535C29.9838 21.1694 29.9968 20.9742 30.0708 20.7982C30.1447 20.6221 30.2756 20.4751 30.4429 20.3799L32.5265 19.1927C32.7278 19.0813 32.9655 19.0526 33.1881 19.1129C33.4106 19.1732 33.6002 19.3175 33.7156 19.5147C33.831 19.7118 33.863 19.9459 33.8046 20.1662C33.7463 20.3865 33.6023 20.5752 33.4038 20.6914L31.3202 21.8813C31.1866 21.9565 31.0353 21.9956 30.8816 21.9949Z" fill="#004FFC"/>
<path d="M15.8334 37.7068C15.6795 37.7067 15.5283 37.6666 15.3951 37.5906C15.2619 37.5145 15.1512 37.4053 15.0743 37.2738C14.9975 37.1422 14.957 36.9931 14.957 36.8412C14.9571 36.6894 14.9976 36.5402 15.0746 36.4088L16.2809 34.3535C16.4048 34.1715 16.5941 34.0427 16.8106 33.9931C17.0271 33.9435 17.2546 33.9768 17.4471 34.0863C17.6397 34.1958 17.7829 34.3732 17.848 34.5828C17.913 34.7924 17.895 35.0186 17.7975 35.2156L16.594 37.2709C16.5173 37.4032 16.4066 37.5131 16.2731 37.5897C16.1396 37.6662 15.9879 37.7066 15.8334 37.7068Z" fill="#004FFC"/>
<path d="M27.1733 18.3344C27.0194 18.3342 26.8682 18.2941 26.7349 18.2181C26.6017 18.1421 26.4911 18.0328 26.4142 17.9013C26.3373 17.7698 26.2968 17.6206 26.2969 17.4688C26.2969 17.3169 26.3374 17.1678 26.4144 17.0363L27.6207 14.981C27.6775 14.8811 27.7539 14.7933 27.8454 14.7228C27.9368 14.6522 28.0416 14.6003 28.1536 14.5699C28.2656 14.5396 28.3825 14.5315 28.4977 14.5461C28.6129 14.5607 28.724 14.5977 28.8245 14.655C28.9251 14.7123 29.0131 14.7887 29.0835 14.8798C29.1539 14.9709 29.2053 15.0748 29.2346 15.1857C29.264 15.2965 29.2708 15.412 29.2545 15.5254C29.2383 15.6388 29.1994 15.7479 29.1401 15.8464L27.9365 17.9017C27.8593 18.0337 27.748 18.1433 27.6139 18.2193C27.4799 18.2953 27.3279 18.335 27.1733 18.3344Z" fill="#004FFC"/>
<path d="M22.1017 39.3731C19.7606 39.3739 17.4602 38.7702 15.429 37.622C13.3979 36.4739 11.7068 34.8213 10.5239 32.8286C10.4655 32.7306 10.4274 32.6222 10.4115 32.5096C10.3956 32.3971 10.4024 32.2825 10.4314 32.1725C10.4605 32.0625 10.5112 31.9593 10.5807 31.8686C10.6501 31.7779 10.737 31.7017 10.8364 31.6441C10.9358 31.5866 11.0457 31.5489 11.1598 31.5333C11.2739 31.5176 11.3901 31.5243 11.5016 31.553C11.6131 31.5816 11.7178 31.6316 11.8097 31.7001C11.9016 31.7687 11.9789 31.8544 12.0372 31.9524C13.3317 34.1336 15.3185 35.8335 17.6904 36.7896C20.0623 37.7456 22.6874 37.9045 25.16 37.2417C27.6326 36.5788 29.8151 35.1312 31.3703 33.1225C32.9254 31.1138 33.7666 28.6558 33.7639 26.1284C33.7639 19.7792 28.5313 14.615 22.1017 14.615C19.8211 14.6171 17.5911 15.2777 15.6868 16.5154C13.7824 17.753 12.2871 19.5136 11.3853 21.5797C11.3413 21.6863 11.2763 21.7831 11.194 21.8646C11.1116 21.9461 11.0137 22.0105 10.9058 22.0542C10.7979 22.0979 10.6822 22.1199 10.5656 22.119C10.449 22.1181 10.3337 22.0943 10.2266 22.0489C10.1194 22.0035 10.0225 21.9375 9.94148 21.8547C9.86047 21.772 9.79701 21.6741 9.75479 21.5669C9.71258 21.4596 9.69247 21.3452 9.69564 21.2302C9.6988 21.1152 9.72518 21.002 9.77322 20.8971C9.98055 20.4203 10.2166 19.9562 10.48 19.5071C11.6569 17.4932 13.3511 15.8207 15.3918 14.6581C17.4325 13.4955 19.7478 12.8839 22.1044 12.8848C24.4596 12.8879 26.7725 13.5017 28.8113 14.6647C30.8501 15.8277 32.5431 17.4989 33.7206 19.5108C34.8981 21.5228 35.5186 23.8047 35.5201 26.1278C35.5215 28.4509 34.9038 30.7336 33.7288 32.747C32.5526 34.7618 30.8587 36.4352 28.8179 37.5985C26.7771 38.7618 24.4615 39.3739 22.1044 39.3731H22.1017Z" fill="#004FFC"/>
<path d="M22.1058 29.2108C21.4875 29.2115 20.8829 29.0314 20.3684 28.6931C19.8539 28.3548 19.4527 27.8735 19.2156 27.3103C18.9784 26.747 18.916 26.127 19.0362 25.5287C19.1563 24.9304 19.4537 24.3808 19.8906 23.9492C20.3276 23.5177 20.8845 23.2237 21.4908 23.1044C22.0972 22.9852 22.7258 23.046 23.2972 23.2792C23.8685 23.5125 24.3568 23.9076 24.7004 24.4147C25.044 24.9217 25.2274 25.5179 25.2274 26.1279C25.2274 26.9448 24.8987 27.7284 24.3134 28.3065C23.7281 28.8845 22.9341 29.2098 22.1058 29.2108ZM22.1058 24.78C21.8345 24.7793 21.5691 24.8579 21.3432 25.0061C21.1173 25.1542 20.941 25.3651 20.8366 25.6121C20.7323 25.8591 20.7046 26.1311 20.7571 26.3936C20.8095 26.6562 20.9398 26.8975 21.1313 27.087C21.3229 27.2764 21.5671 27.4056 21.8331 27.4581C22.0992 27.5106 22.375 27.484 22.6257 27.3818C22.8764 27.2795 23.0907 27.1062 23.2415 26.8838C23.3923 26.6613 23.4728 26.3998 23.4728 26.1322C23.4732 25.7739 23.3295 25.4302 23.0732 25.1763C22.8169 24.9225 22.469 24.7794 22.1058 24.7784V24.78Z" fill="#004FFC"/>
<path d="M22.1039 24.7792C21.8712 24.7792 21.648 24.688 21.4835 24.5257C21.319 24.3634 21.2266 24.1433 21.2266 23.9138V18.4084C21.2266 18.1788 21.319 17.9587 21.4835 17.7964C21.648 17.6341 21.8712 17.543 22.1039 17.543C22.3366 17.543 22.5597 17.6341 22.7242 17.7964C22.8888 17.9587 22.9812 18.1788 22.9812 18.4084L22.9784 23.9144C22.9783 24.1433 22.8862 24.3629 22.7223 24.525C22.5583 24.6871 22.336 24.7785 22.1039 24.7792Z" fill="#004FFC"/>
<path d="M29.928 26.9925H24.3461C24.1134 26.9925 23.8902 26.9013 23.7257 26.739C23.5612 26.5767 23.4688 26.3566 23.4688 26.1271C23.4688 25.8976 23.5612 25.6775 23.7257 25.5152C23.8902 25.3529 24.1134 25.2617 24.3461 25.2617H29.9274C30.1601 25.2617 30.3832 25.3529 30.5478 25.5152C30.7123 25.6775 30.8047 25.8976 30.8047 26.1271C30.8047 26.3566 30.7123 26.5767 30.5478 26.739C30.3832 26.9013 30.1601 26.9925 29.9274 26.9925H29.928Z" fill="#004FFC"/>
<path d="M7.50048 34.4231C3.3645 34.4231 0 31.1038 0 27.024C0 22.9443 3.3645 19.625 7.50048 19.625C11.6365 19.625 14.9993 22.9443 14.9993 27.024C14.9993 31.1038 11.6365 34.4231 7.50048 34.4231ZM7.50048 21.3558C6.36386 21.3553 5.25263 21.6874 4.30735 22.31C3.36207 22.9326 2.6252 23.8177 2.18993 24.8534C1.75467 25.8891 1.64056 27.0289 1.86203 28.1285C2.08351 29.2282 2.63063 30.2384 3.43419 31.0313C4.23775 31.8243 5.26166 32.3643 6.37641 32.5832C7.49117 32.8021 8.64669 32.69 9.69684 32.261C10.747 31.8321 11.6446 31.1056 12.2761 30.1734C12.9076 29.2412 13.2447 28.1452 13.2447 27.024C13.243 25.5216 12.6373 24.0812 11.5605 23.0186C10.4837 21.9561 9.02361 21.3581 7.50048 21.3558Z" fill="#004FFC"/>
<path d="M7.50012 31.8021C6.54209 31.8021 5.60558 31.5219 4.80901 30.9969C4.01244 30.4718 3.39159 29.7256 3.02497 28.8526C2.65835 27.9795 2.56242 27.0188 2.74933 26.092C2.93623 25.1651 3.39756 24.3138 4.07499 23.6455C4.75241 22.9773 5.61551 22.5223 6.55513 22.3379C7.49475 22.1535 8.46869 22.2482 9.35379 22.6098C10.2389 22.9714 10.9954 23.5838 11.5276 24.3696C12.0599 25.1553 12.344 26.0791 12.344 27.0241C12.3425 28.2909 11.8317 29.5053 10.9236 30.4011C10.0156 31.2968 8.78435 31.8007 7.50012 31.8021ZM7.50012 23.9769C6.88913 23.9769 6.29185 24.1556 5.78383 24.4904C5.27581 24.8252 4.87985 25.3012 4.64603 25.858C4.41222 26.4148 4.35104 27.0275 4.47024 27.6186C4.58944 28.2097 4.88366 28.7527 5.3157 29.1788C5.74774 29.605 6.29818 29.8952 6.89744 30.0128C7.49669 30.1304 8.11784 30.07 8.68232 29.8394C9.24681 29.6087 9.72928 29.2182 10.0687 28.717C10.4082 28.2159 10.5894 27.6268 10.5894 27.0241C10.5885 26.2162 10.2627 25.4416 9.68358 24.8703C9.10442 24.299 8.31917 23.9777 7.50012 23.9769Z" fill="#004FFC"/>
<path d="M7.50231 36.7744C7.26964 36.7744 7.04649 36.6832 6.88196 36.5209C6.71743 36.3586 6.625 36.1385 6.625 35.909V33.5568C6.625 33.3273 6.71743 33.1072 6.88196 32.9449C7.04649 32.7826 7.26964 32.6914 7.50231 32.6914C7.73499 32.6914 7.95814 32.7826 8.12267 32.9449C8.2872 33.1072 8.37963 33.3273 8.37963 33.5568V35.909C8.37963 36.1385 8.2872 36.3586 8.12267 36.5209C7.95814 36.6832 7.73499 36.7744 7.50231 36.7744Z" fill="#004FFC"/>
<path d="M7.49954 44.9992C6.80778 44.9984 6.14462 44.7269 5.65552 44.2443C5.16643 43.7618 4.89135 43.1076 4.89062 42.4252V35.9084C4.89062 35.6788 4.98306 35.4587 5.14758 35.2964C5.31211 35.1341 5.53526 35.043 5.76794 35.043H9.23168C9.46436 35.043 9.68751 35.1341 9.85204 35.2964C10.0166 35.4587 10.109 35.6788 10.109 35.9084V42.4252C10.1081 43.1076 9.83292 43.7618 9.34374 44.2444C8.85456 44.7269 8.19134 44.9984 7.49954 44.9992ZM6.64525 36.7737V42.4252C6.64236 42.5377 6.66233 42.6497 6.70398 42.7544C6.74562 42.8592 6.80811 42.9547 6.88775 43.0352C6.96738 43.1158 7.06257 43.1798 7.16769 43.2236C7.2728 43.2673 7.38573 43.2898 7.49981 43.2898C7.61389 43.2898 7.72682 43.2673 7.83193 43.2236C7.93705 43.1798 8.03223 43.1158 8.11187 43.0352C8.19151 42.9547 8.254 42.8592 8.29564 42.7544C8.33729 42.6497 8.35726 42.5377 8.35437 42.4252V36.7737H6.64525Z" fill="#004FFC"/>
</svg>
