<svg width="45" height="45" viewBox="0 0 45 45" fill="none" xmlns="http://www.w3.org/2000/svg">
<g clip-path="url(#clip0_6034_40609)">
<path d="M40.6055 0H4.39453C1.9675 0 0 1.9675 0 4.39453V40.6055C0 43.0325 1.9675 45 4.39453 45H40.6055C43.0325 45 45 43.0325 45 40.6055V4.39453C45 1.9675 43.0325 0 40.6055 0Z" fill="url(#paint0_linear_6034_40609)"/>
<path d="M37.0414 5.84961H27.5352C26.3702 5.84961 25.4258 6.79401 25.4258 7.95898V23.4277C25.4258 24.5927 26.3702 25.5371 27.5352 25.5371H37.0414C38.2064 25.5371 39.1508 24.5927 39.1508 23.4277V7.95898C39.1508 6.79401 38.2064 5.84961 37.0414 5.84961Z" fill="white"/>
<path d="M17.4672 5.84961H7.96094C6.79596 5.84961 5.85156 6.79401 5.85156 7.95898V34.6777C5.85156 35.8427 6.79596 36.7871 7.96094 36.7871H17.4672C18.6322 36.7871 19.5766 35.8427 19.5766 34.6777V7.95898C19.5766 6.79401 18.6322 5.84961 17.4672 5.84961Z" fill="white"/>
</g>
<defs>
<linearGradient id="paint0_linear_6034_40609" x1="2250" y1="0" x2="2250" y2="4500" gradientUnits="userSpaceOnUse">
<stop stop-color="#0091E6"/>
<stop offset="1" stop-color="#0079BF"/>
</linearGradient>
<clipPath id="clip0_6034_40609">
<rect width="45" height="45" fill="white"/>
</clipPath>
</defs>
</svg>
