<svg xmlns="http://www.w3.org/2000/svg" width="111" height="30" viewBox="0 0 111 30"><path d="M14.2639 0C21.1832 0 27.7211 5.36101 27.7211 13.1588C27.7211 17.5451 25.6508 21.1191 22.7087 23.5018C23.5804 24.9097 24.6701 25.8845 25.9776 25.8845C27.5032 25.8845 28.1569 24.6931 28.2659 23.7184H30.2273C30.3362 25.018 29.6824 30 24.2342 30C20.8563 30 19.1129 28.0505 17.8053 25.8845C16.7156 26.1011 15.517 26.3177 14.3184 26.3177C7.61707 26.3177 0.970215 20.9567 0.970215 13.1588C0.970215 5.36101 7.61707 0 14.2639 0ZM63.1347 5.90253C68.6919 5.90253 73.1594 9.80144 73.2139 15.5957C73.2139 21.7148 68.6919 25.722 63.1347 25.722C57.7409 25.722 53.0554 21.6606 53.0554 15.5957C53.0554 9.69314 57.6864 5.90253 63.1347 5.90253ZM99.8013 5.90253C104.705 5.90253 107.756 7.20217 107.756 12.0758V20.4152C107.756 21.7148 108.192 22.3646 109.281 22.3646C109.826 22.3646 110.262 22.148 110.48 22.0397L110.97 23.0144C110.534 23.7726 109.118 25.1805 106.503 25.1805C104.214 25.1805 102.798 24.0975 102.58 22.3646H102.471C101.381 24.3141 99.4199 25.6137 96.5869 25.6137C93.2089 25.6137 91.1386 23.8809 91.1386 20.7401C91.1386 14.5668 99.8013 16.2996 102.308 12.1841V11.2094C102.308 8.2852 101.109 7.63538 99.8013 7.63538C95.8786 7.63538 97.622 12.1841 94.1351 12.1841C92.3917 12.1841 91.7379 11.2094 91.7379 10.0181C91.7379 7.74368 94.571 5.90253 99.8013 5.90253ZM37.8003 6.33574V19.0072C37.8003 21.3899 38.9989 22.4729 40.7424 22.4729C42.1589 22.4729 43.6844 21.8231 44.4472 20.3069V9.80144C44.4472 8.71841 44.1203 8.2852 42.9217 8.2852H41.6141V6.33574H49.8954V20.2527C49.8954 21.5523 50.3313 22.2022 51.8568 22.2022H52.0747V24.2599L44.6651 25.4513V22.6895H44.5561C43.1396 24.4765 41.0693 25.5596 38.3452 25.5596C34.9672 25.5596 32.4611 23.8267 32.4611 19.1697V9.80144C32.4611 8.71841 32.0252 8.2852 30.8266 8.2852H29.628V6.33574H37.8003ZM86.9979 6.01083C88.7414 6.01083 90.1579 6.98556 90.1579 8.93502C90.1579 10.343 89.5041 11.7509 87.5428 11.7509C85.9083 11.7509 85.5814 10.2347 84.1649 10.2347C82.9663 10.2347 81.9856 11.426 81.9856 13.1588V20.8484C81.9856 22.5812 82.4214 23.1227 84.3828 23.1227H85.4725V25.1805H73.7042V23.1769H74.467C76.4284 23.1769 76.6463 22.6354 76.6463 20.9025V9.80144C76.6463 8.71841 76.1015 8.2852 74.9029 8.2852H73.8132V6.33574H81.3318L81.6587 10.2347H81.8766C82.6394 7.41877 84.9276 6.01083 86.9979 6.01083ZM14.3184 2.11191C9.30602 2.11191 7.12673 5.84838 7.12673 13.1047C7.12673 20.361 9.30602 24.0975 14.3184 24.0975C15.2446 24.0975 16.0618 23.8809 16.7156 23.6643C15.735 21.3899 14.4274 19.2238 11.9212 19.2238C11.4853 19.2238 11.0495 19.3321 10.6136 19.5487L9.85085 18.0325C10.9405 17.1119 12.4115 16.4079 14.4274 16.4079C17.5874 16.4079 19.2218 17.9242 20.5294 19.8736C21.2922 18.2491 21.6191 15.9747 21.6191 13.1047C21.6191 5.84838 19.4398 2.11191 14.3184 2.11191ZM63.1347 7.74368C60.5195 7.74368 58.994 10.343 58.994 15.5415C58.994 20.8484 60.5195 23.556 63.1347 23.556C65.9677 23.556 67.0574 20.8484 67.1664 15.5415C67.2753 10.3971 65.9677 7.74368 63.1347 7.74368ZM102.253 14.4585C100.51 16.3538 96.4779 16.6245 96.4779 20.0903C96.4779 21.8231 97.5675 22.7978 98.9841 22.7978C101.381 22.7978 102.253 20.7401 102.253 18.4657V14.4585Z"></path></svg>