<svg xmlns="http://www.w3.org/2000/svg" width="107" height="30" viewBox="0 0 107 30"><path d="M12.4502 4.96631V13.425H4.66421V4.96631H0.970215V25.1583H4.66521V16.9741H12.4492V25.1583H16.1452V4.96631H12.4502ZM27.9722 18.6319C27.9722 19.4412 27.6501 20.2174 27.0767 20.7897C26.5033 21.362 25.7256 21.6835 24.9147 21.6835C24.1038 21.6835 23.3261 21.362 22.7527 20.7897C22.1793 20.2174 21.8572 19.4412 21.8572 18.6319V9.98262H18.3522V18.6319C18.3522 20.3673 19.0429 22.0317 20.2724 23.2588C21.5019 24.4859 23.1695 25.1753 24.9082 25.1753C26.647 25.1753 28.3145 24.4859 29.544 23.2588C30.7735 22.0317 31.4642 20.3673 31.4642 18.6319V9.98262H27.9722V18.6319ZM53.9432 10.8739C53.9432 9.10032 55.1182 8.53841 56.4052 8.53841C57.4432 8.53841 58.8132 9.32689 59.7102 10.283L62.0052 7.58226C60.8592 6.03524 58.5352 4.96631 56.6322 4.96631C52.8292 4.96631 50.0792 7.18902 50.0792 10.8739C50.0792 17.7107 58.4512 15.5409 58.4512 19.3675C58.4512 20.5472 57.3032 21.5892 55.9892 21.5892C53.9162 21.5892 53.2442 20.5782 52.2922 19.5082L49.7442 22.1521C51.3742 24.1483 53.3842 25.1623 55.7912 25.1623C59.4042 25.1623 62.3102 22.9126 62.3102 19.3954C62.3102 11.8061 53.9372 14.1645 53.9372 10.8739M105.737 21.9325C103.666 21.9325 103.077 21.0383 103.077 19.6689V13.6056H106.297V10.5336H103.077V6.48038L99.5232 8.07231V20.4225C99.5232 23.5814 101.707 25.1733 104.701 25.1733C105.171 25.1813 105.641 25.1433 106.103 25.0615L106.97 21.8756C106.579 21.9026 106.13 21.9295 105.737 21.9295M41.3142 10.0834C39.5782 10.0834 38.3662 10.5865 37.1942 11.7332V5.08708H33.6842V17.4063C33.6842 22.0174 37.0242 25.1773 40.7782 25.1773C44.9422 25.1773 48.6052 21.9615 48.6052 17.6318C48.6052 13.3561 45.2342 10.0864 41.3142 10.0864M41.2922 21.6511C40.7691 21.6511 40.2511 21.5482 39.7678 21.3484C39.2845 21.1486 38.8454 20.8558 38.4755 20.4866C38.1056 20.1174 37.8121 19.6791 37.6119 19.1967C37.4118 18.7144 37.3087 18.1974 37.3087 17.6753C37.3087 17.1531 37.4118 16.6361 37.6119 16.1538C37.8121 15.6714 38.1056 15.2331 38.4755 14.8639C38.8454 14.4947 39.2845 14.2019 39.7678 14.0021C40.2511 13.8023 40.7691 13.6994 41.2922 13.6994C42.3487 13.6994 43.3619 14.1183 44.109 14.8639C44.856 15.6095 45.2757 16.6208 45.2757 17.6753C45.2757 18.7297 44.856 19.741 44.109 20.4866C43.3619 21.2322 42.3487 21.6511 41.2922 21.6511ZM79.4342 17.4482C79.4342 13.1106 75.7792 9.90277 71.6072 9.90277C67.8542 9.90277 64.5132 13.0617 64.5132 17.6738V30H68.0232V23.3448C69.1932 24.4896 70.4072 24.9946 72.1412 24.9946C76.0612 24.9946 79.4342 21.7249 79.4342 17.4482ZM76.1102 17.4043C76.1102 18.4587 75.6905 19.47 74.9435 20.2156C74.1964 20.9612 73.1832 21.3801 72.1267 21.3801C71.0702 21.3801 70.057 20.9612 69.31 20.2156C68.5629 19.47 68.1432 18.4587 68.1432 17.4043C68.1432 16.3498 68.5629 15.3386 69.31 14.593C70.057 13.8473 71.0702 13.4285 72.1267 13.4285C73.1832 13.4285 74.1964 13.8473 74.9435 14.593C75.6905 15.3386 76.1102 16.3498 76.1102 17.4043Z"></path><path d="M90.7762 9.7332V6.213C91.2423 5.99559 91.6369 5.65053 91.9141 5.21798C92.1914 4.78543 92.3398 4.28319 92.3422 3.76972V3.68887C92.3422 2.19177 91.1262 0.97811 89.6262 0.97811H89.5452C88.8249 0.97811 88.134 1.26371 87.6247 1.77207C87.1153 2.28044 86.8292 2.96993 86.8292 3.68887V3.76972C86.8316 4.28319 86.98 4.78543 87.2573 5.21798C87.5345 5.65053 87.9291 5.99559 88.3952 6.213V9.7332C87.0556 9.93791 85.7941 10.4923 84.7382 11.3401L75.0652 3.82062C75.1342 3.5721 75.1702 3.31659 75.1742 3.06009C75.1754 2.45596 74.997 1.86505 74.6617 1.36211C74.3263 0.859164 73.8491 0.466779 73.2903 0.234586C72.7315 0.00239329 72.1162 -0.0591757 71.5224 0.0576672C70.9285 0.17451 70.3827 0.464515 69.954 0.891C69.5253 1.31748 69.2329 1.86129 69.1139 2.45363C68.9949 3.04596 69.0546 3.66022 69.2854 4.2187C69.5162 4.77718 69.9078 5.2548 70.4106 5.59113C70.9134 5.92747 71.5049 6.10741 72.1102 6.1082C72.6397 6.10571 73.1594 5.96461 73.6172 5.69899L83.1422 13.0967C82.2865 14.3869 81.8401 15.9044 81.8612 17.4515C81.8822 18.9986 82.3697 20.5034 83.2602 21.77L80.3632 24.6624C80.129 24.5876 79.885 24.5479 79.6392 24.5446C79.1423 24.545 78.6568 24.6924 78.2438 24.9681C77.8308 25.2439 77.5091 25.6356 77.3191 26.0938C77.1291 26.5521 77.0796 27.0562 77.1766 27.5426C77.2736 28.0289 77.5129 28.4756 77.8642 28.8263C78.2156 29.1769 78.6632 29.4158 79.1504 29.5126C79.6377 29.6095 80.1428 29.56 80.602 29.3704C81.0611 29.1808 81.4536 28.8596 81.7298 28.4474C82.0061 28.0353 82.1538 27.5506 82.1542 27.0547C82.151 26.8094 82.1112 26.5658 82.0362 26.3321L84.9022 23.4707C85.8368 24.1888 86.9237 24.6839 88.0796 24.918C89.2355 25.1521 90.4297 25.119 91.5708 24.8213C92.712 24.5236 93.7697 23.9692 94.6629 23.2005C95.5562 22.4318 96.2613 21.4692 96.7243 20.3865C97.1872 19.3038 97.3958 18.1296 97.3338 16.9541C97.2719 15.7785 96.9412 14.6327 96.3671 13.6044C95.793 12.5761 94.9906 11.6926 94.0215 11.0216C93.0524 10.3506 91.9423 9.90985 90.7762 9.7332ZM89.5882 21.3108C89.0585 21.3254 88.5313 21.2338 88.0377 21.0416C87.5441 20.8493 87.0941 20.5602 86.7143 20.1915C86.3345 19.8227 86.0326 19.3817 85.8265 18.8945C85.6203 18.4073 85.5141 17.8838 85.5141 17.355C85.5141 16.8261 85.6203 16.3026 85.8265 15.8155C86.0326 15.3283 86.3345 14.8873 86.7143 14.5185C87.0941 14.1497 87.5441 13.8607 88.0377 13.6684C88.5313 13.4761 89.0585 13.3846 89.5882 13.3991C90.6148 13.435 91.5873 13.8671 92.3011 14.6045C93.0148 15.3418 93.4139 16.3268 93.4144 17.3521C93.415 18.3773 93.0168 19.3627 92.3038 20.1008C91.5909 20.8388 90.6187 21.2719 89.5922 21.3088"></path></svg>