<svg xmlns="http://www.w3.org/2000/svg" width="153" height="30" viewBox="0 0 153 30"><path d="M18.6022 5.63738L9.78622 11.2748L18.6022 16.9121L9.78622 22.5495L0.970215 16.8817L9.78622 11.2443L0.970215 5.63738L9.78622 0L18.6022 5.63738ZM9.74062 24.3626L18.5566 18.7252L27.3726 24.3626L18.5566 30L9.74062 24.3626ZM18.6022 16.8817L27.4182 11.2443L18.6022 5.63738L27.3726 0L36.1886 5.63738L27.3726 11.2748L36.1886 16.9121L27.3726 22.5495L18.6022 16.8817Z"></path><path d="M43.1045 5.63743H50.2333C54.7781 5.63743 58.5325 8.27329 58.5325 14.2916V15.5562C58.5325 21.6202 55.0213 24.3474 50.3701 24.3474H43.1045V5.63743ZM47.0869 9.03509V20.9345H50.1421C52.7261 20.9345 54.4589 19.2433 54.4589 15.48V14.4896C54.4589 10.7263 52.6349 9.03509 50.0053 9.03509H47.0869ZM60.6453 9.21793H63.8373L64.3541 12.7375C64.9621 10.3454 66.5125 9.06557 69.3245 9.06557H70.3125V13.1031H68.6709C65.4333 13.1031 64.6429 14.2306 64.6429 17.4302V24.3931H60.7061V9.21793H60.6453ZM71.1029 17.1103V16.6836C71.1029 11.61 74.3405 8.83702 78.7485 8.83702C83.2477 8.83702 86.3941 11.61 86.3941 16.6836V17.1103C86.3941 22.0925 83.3389 24.774 78.7485 24.774C73.8693 24.7283 71.1029 22.1077 71.1029 17.1103ZM82.3661 17.0646V16.6836C82.3661 13.865 80.9525 12.1737 78.7029 12.1737C76.4989 12.1737 75.0397 13.7278 75.0397 16.6836V17.0646C75.0397 19.7918 76.4533 21.3459 78.7029 21.3459C80.9525 21.3002 82.3661 19.7918 82.3661 17.0646ZM88.4613 9.21793H91.7445L92.1245 12.0823C92.9149 10.1626 94.6021 8.83702 97.0949 8.83702C100.94 8.83702 103.479 11.61 103.479 16.7446V17.1712C103.479 22.1534 100.667 24.7893 97.0949 24.7893C94.7085 24.7893 93.0669 23.7075 92.2613 21.9706V29.6344H88.4157L88.4613 9.21793ZM99.4813 17.0646V16.7294C99.4813 13.7126 97.9309 12.2195 95.8637 12.2195C93.6597 12.2195 92.2005 13.9107 92.2005 16.7294V17.0188C92.2005 19.7004 93.6141 21.3916 95.8181 21.3916C98.0829 21.3459 99.4813 19.8985 99.4813 17.0646ZM109.3 21.5897L108.966 24.3627H105.592V4.14429H109.437V11.8995C110.288 9.91879 111.976 8.83702 114.362 8.83702C117.98 8.88273 120.655 11.3815 120.655 16.4094V16.8817C120.655 21.9097 118.117 24.7893 114.271 24.7893C111.732 24.7283 110.091 23.5552 109.3 21.5897ZM116.612 16.8817V16.5008C116.612 13.7278 115.107 12.1737 112.994 12.1737C110.836 12.1737 109.331 13.9107 109.331 16.5465V16.8817C109.331 19.7004 110.79 21.3459 112.948 21.3459C115.259 21.3459 116.612 19.8985 116.612 16.8817ZM122.342 17.1103V16.6836C122.342 11.61 125.58 8.83702 129.988 8.83702C134.487 8.83702 137.633 11.61 137.633 16.6836V17.1103C137.633 22.0925 134.532 24.774 129.988 24.774C125.108 24.7283 122.342 22.1077 122.342 17.1103ZM133.636 17.0646V16.6836C133.636 13.865 132.222 12.1737 129.972 12.1737C127.769 12.1737 126.309 13.7278 126.309 16.6836V17.0646C126.309 19.7918 127.723 21.3459 129.972 21.3459C132.237 21.3002 133.636 19.7918 133.636 17.0646ZM142.786 16.5008L137.481 9.21793H142.026L145.081 13.7735L148.182 9.21793H152.681L147.3 16.4551L152.97 24.3627H148.517L145.051 19.3347L141.676 24.3627H137.025L142.786 16.5008Z"></path></svg>