<svg xmlns="http://www.w3.org/2000/svg" width="23" height="21" viewBox="0 0 23 21" fill="none"><path d="M16.5234 0.5C19.8047 0.5 22.5 3.15625 22.5 6.4375V9.5625C22.5 10.1094 22.0703 10.5 21.5625 10.5H20.3125C19.7656 10.5 19.375 10.1094 19.375 9.5625V6.4375C19.375 4.91406 18.0859 3.625 16.5234 3.625C14.9609 3.66406 13.75 4.95312 13.75 6.47656V9.25H15.625C16.6406 9.25 17.5 10.1094 17.5 11.125V18.625C17.5 19.6797 16.6406 20.5 15.625 20.5H1.875C0.820312 20.5 0 19.6797 0 18.625V11.125C0 10.1094 0.820312 9.25 1.875 9.25H10.625V6.51562C10.625 3.23438 13.2422 0.539062 16.5234 0.5ZM10.3125 15.8125V13.9375C10.3125 13.0781 9.60938 12.375 8.75 12.375C7.85156 12.375 7.1875 13.0781 7.1875 13.9375V15.8125C7.1875 16.7109 7.85156 17.375 8.75 17.375C9.60938 17.375 10.3125 16.7109 10.3125 15.8125Z" fill="url(#paint0_linear_4591_11419)"></path><defs><linearGradient id="paint0_linear_4591_11419" x1="11.5" y1="0" x2="11.5" y2="20" gradientUnits="userSpaceOnUse"><stop stop-color="#994AFF"></stop><stop offset="0.5" stop-color="#781BFA"></stop><stop offset="1" stop-color="#994AFF"></stop></linearGradient></defs></svg>