<svg xmlns="http://www.w3.org/2000/svg" width="178" height="36" viewBox="0 0 178 36" fill="none"><path d="M36 17.998C36 27.9391 27.9411 35.998 18 35.998C8.05891 35.998 0 27.9391 0 17.998C0 8.05696 8.05891 -0.00195312 18 -0.00195312C27.9411 -0.00195312 36 8.05696 36 17.998ZM36 35.998C45.9411 35.998 54 27.9391 54 17.998C54 8.05696 45.9411 -0.00195312 36 -0.00195312V35.998Z" fill="url(#paint0_linear_4591_5918)"></path><path d="M75.83 31.418C74.1733 31.418 72.6333 31.1147 71.21 30.508C69.81 29.9014 68.5967 29.0614 67.57 27.988C66.5667 26.8914 65.8317 25.6197 65.365 24.173L69.32 22.458C69.95 23.9514 70.86 25.1297 72.05 25.993C73.24 26.833 74.5817 27.253 76.075 27.253C76.915 27.253 77.6383 27.1247 78.245 26.868C78.875 26.588 79.3533 26.2147 79.68 25.748C80.03 25.2814 80.205 24.7214 80.205 24.068C80.205 23.298 79.9717 22.668 79.505 22.178C79.0617 21.6647 78.385 21.268 77.475 20.988L72.47 19.378C70.44 18.748 68.9117 17.803 67.885 16.543C66.8583 15.283 66.345 13.8014 66.345 12.098C66.345 10.6047 66.7067 9.28638 67.43 8.14304C68.1767 6.99971 69.2033 6.11305 70.51 5.48305C71.84 4.82971 73.3567 4.50305 75.06 4.50305C76.6233 4.50305 78.0583 4.78305 79.365 5.34305C80.6717 5.87971 81.7917 6.63805 82.725 7.61805C83.6817 8.57471 84.3933 9.70638 84.86 11.013L80.94 12.763C80.4267 11.4564 79.6567 10.453 78.63 9.75305C77.6033 9.02971 76.4133 8.66805 75.06 8.66805C74.2667 8.66805 73.5667 8.80805 72.96 9.08805C72.3533 9.34471 71.875 9.71805 71.525 10.208C71.1983 10.6747 71.035 11.2347 71.035 11.888C71.035 12.6114 71.2683 13.253 71.735 13.813C72.2017 14.3497 72.9133 14.7697 73.87 15.073L78.665 16.578C80.7417 17.2547 82.2933 18.188 83.32 19.378C84.37 20.568 84.895 22.038 84.895 23.788C84.895 25.2814 84.51 26.5997 83.74 27.743C82.97 28.8864 81.9083 29.7847 80.555 30.438C79.2017 31.0914 77.6267 31.418 75.83 31.418ZM94.4002 31.418C93.0702 31.418 91.9152 31.1964 90.9352 30.753C89.9552 30.3097 89.1969 29.6797 88.6602 28.863C88.1236 28.023 87.8552 27.0547 87.8552 25.958C87.8552 24.908 88.0886 23.9747 88.5552 23.158C89.0219 22.318 89.7452 21.618 90.7252 21.058C91.7052 20.498 92.9419 20.1014 94.4352 19.868L100.665 18.853V22.353L95.3102 23.263C94.4002 23.4264 93.7236 23.718 93.2802 24.138C92.8369 24.558 92.6152 25.1064 92.6152 25.783C92.6152 26.4364 92.8602 26.9614 93.3502 27.358C93.8636 27.7314 94.4936 27.918 95.2402 27.918C96.1969 27.918 97.0369 27.7197 97.7602 27.323C98.5069 26.903 99.0786 26.3314 99.4752 25.608C99.8952 24.8847 100.105 24.0914 100.105 23.228V18.328C100.105 17.5114 99.7786 16.8347 99.1252 16.298C98.4952 15.738 97.6552 15.458 96.6052 15.458C95.6252 15.458 94.7502 15.7264 93.9802 16.263C93.2336 16.7764 92.6852 17.4647 92.3352 18.328L88.5902 16.508C88.9636 15.5047 89.5469 14.6414 90.3402 13.918C91.1569 13.1714 92.1136 12.588 93.2102 12.168C94.3069 11.748 95.4969 11.538 96.7802 11.538C98.3436 11.538 99.7202 11.8297 100.91 12.413C102.1 12.973 103.022 13.7664 103.675 14.793C104.352 15.7964 104.69 16.9747 104.69 18.328V30.998H100.35V27.743L101.33 27.673C100.84 28.4897 100.257 29.178 99.5802 29.738C98.9036 30.2747 98.1336 30.6947 97.2702 30.998C96.4069 31.278 95.4502 31.418 94.4002 31.418ZM116.173 31.418C114.143 31.418 112.37 30.9397 110.853 29.983C109.36 29.003 108.333 27.6847 107.773 26.028L111.203 24.383C111.693 25.4564 112.37 26.2964 113.233 26.903C114.12 27.5097 115.1 27.813 116.173 27.813C117.013 27.813 117.678 27.6264 118.168 27.253C118.658 26.8797 118.903 26.3897 118.903 25.783C118.903 25.4097 118.798 25.1064 118.588 24.873C118.401 24.6164 118.133 24.4064 117.783 24.243C117.456 24.0564 117.095 23.9047 116.698 23.788L113.583 22.913C111.973 22.4464 110.748 21.7347 109.908 20.778C109.091 19.8214 108.683 18.6897 108.683 17.383C108.683 16.2164 108.975 15.2014 109.558 14.338C110.165 13.4514 110.993 12.763 112.043 12.273C113.116 11.783 114.341 11.538 115.718 11.538C117.515 11.538 119.101 11.9697 120.478 12.833C121.855 13.6964 122.835 14.9097 123.418 16.473L119.918 18.118C119.591 17.2547 119.043 16.5664 118.273 16.053C117.503 15.5397 116.64 15.283 115.683 15.283C114.913 15.283 114.306 15.458 113.863 15.808C113.42 16.158 113.198 16.613 113.198 17.173C113.198 17.523 113.291 17.8264 113.478 18.083C113.665 18.3397 113.921 18.5497 114.248 18.713C114.598 18.8764 114.995 19.028 115.438 19.168L118.483 20.078C120.046 20.5447 121.248 21.2447 122.088 22.178C122.951 23.1114 123.383 24.2547 123.383 25.608C123.383 26.7514 123.08 27.7664 122.473 28.653C121.866 29.5164 121.026 30.193 119.953 30.683C118.88 31.173 117.62 31.418 116.173 31.418ZM126.906 30.998V11.958H131.491V30.998H126.906ZM126.906 9.82305V4.92304H131.491V9.82305H126.906ZM144.895 31.418C143.005 31.418 141.302 30.9864 139.785 30.123C138.292 29.2364 137.113 28.0464 136.25 26.553C135.387 25.0364 134.955 23.333 134.955 21.443C134.955 19.553 135.387 17.8614 136.25 16.368C137.113 14.8747 138.292 13.6964 139.785 12.833C141.302 11.9697 143.005 11.538 144.895 11.538C146.248 11.538 147.508 11.783 148.675 12.273C149.842 12.7397 150.845 13.393 151.685 14.233C152.548 15.0497 153.167 16.0297 153.54 17.173L149.515 18.923C149.165 17.9664 148.57 17.1964 147.73 16.613C146.913 16.0297 145.968 15.738 144.895 15.738C143.892 15.738 142.993 15.983 142.2 16.473C141.43 16.963 140.823 17.6397 140.38 18.503C139.937 19.3664 139.715 20.358 139.715 21.478C139.715 22.598 139.937 23.5897 140.38 24.453C140.823 25.3164 141.43 25.993 142.2 26.483C142.993 26.973 143.892 27.218 144.895 27.218C145.992 27.218 146.948 26.9264 147.765 26.343C148.582 25.7597 149.165 24.978 149.515 23.998L153.54 25.818C153.167 26.8914 152.56 27.8597 151.72 28.723C150.88 29.563 149.877 30.228 148.71 30.718C147.543 31.1847 146.272 31.418 144.895 31.418ZM166.329 31.418C164.462 31.418 162.759 30.9864 161.219 30.123C159.702 29.2597 158.489 28.0814 157.579 26.588C156.692 25.0947 156.249 23.3914 156.249 21.478C156.249 19.5647 156.692 17.8614 157.579 16.368C158.489 14.8747 159.702 13.6964 161.219 12.833C162.735 11.9697 164.439 11.538 166.329 11.538C168.195 11.538 169.887 11.9697 171.404 12.833C172.92 13.6964 174.122 14.8747 175.009 16.368C175.919 17.838 176.374 19.5414 176.374 21.478C176.374 23.3914 175.919 25.0947 175.009 26.588C174.099 28.0814 172.885 29.2597 171.369 30.123C169.852 30.9864 168.172 31.418 166.329 31.418ZM166.329 27.218C167.355 27.218 168.254 26.973 169.024 26.483C169.817 25.993 170.435 25.3164 170.879 24.453C171.345 23.5664 171.579 22.5747 171.579 21.478C171.579 20.358 171.345 19.378 170.879 18.538C170.435 17.6747 169.817 16.998 169.024 16.508C168.254 15.9947 167.355 15.738 166.329 15.738C165.279 15.738 164.357 15.9947 163.564 16.508C162.77 16.998 162.14 17.6747 161.674 18.538C161.23 19.378 161.009 20.358 161.009 21.478C161.009 22.5747 161.23 23.5664 161.674 24.453C162.14 25.3164 162.77 25.993 163.564 26.483C164.357 26.973 165.279 27.218 166.329 27.218Z" fill="white"></path><defs><linearGradient id="paint0_linear_4591_5918" x1="27" y1="-0.00195312" x2="27" y2="35.998" gradientUnits="userSpaceOnUse"><stop stop-color="#994AFF"></stop><stop offset="0.5" stop-color="#781BFA"></stop><stop offset="1" stop-color="#994AFF"></stop></linearGradient></defs></svg>