<svg xmlns="http://www.w3.org/2000/svg" width="52" height="40" viewBox="0 0 52 40" fill="none"><path d="M47.3258 3.2353C50.2472 6.47059 52 10 52 15.8824C52 26.1765 44.6966 35.2941 34.4719 40L31.8427 36.1765C41.4831 30.8824 43.5281 24.1176 44.1124 19.7059C42.6517 20.5882 40.6067 20.8824 38.5618 20.5882C33.3034 20 29.2135 15.8824 29.2135 10.2941C29.2135 7.64706 30.382 5 32.1348 2.94118C34.1798 0.882353 36.5169 0 39.4382 0C42.6517 0 45.573 1.47059 47.3258 3.2353ZM18.1124 3.2353C21.0337 6.47059 22.7865 10 22.7865 15.8824C22.7865 26.1765 15.4831 35.2941 5.25843 40L2.62921 36.1765C12.2697 30.8824 14.3146 24.1176 14.8989 19.7059C13.4382 20.5882 11.3933 20.8824 9.34832 20.5882C4.08989 20 0 15.5882 0 10.2941C0 7.64706 1.16854 5 2.92135 2.94118C4.96629 0.882353 7.30337 0 10.2247 0C13.4382 0 16.3596 1.47059 18.1124 3.2353Z" fill="url(#paint0_linear_4591_11349)"></path><defs><linearGradient id="paint0_linear_4591_11349" x1="26" y1="0" x2="26" y2="40" gradientUnits="userSpaceOnUse"><stop stop-color="#994AFF"></stop><stop offset="0.5" stop-color="#781BFA"></stop><stop offset="1" stop-color="#994AFF"></stop></linearGradient></defs></svg>