<svg xmlns="http://www.w3.org/2000/svg" width="42" height="40" viewBox="0 0 42 40" fill="none"><path fill-rule="evenodd" clip-rule="evenodd" d="M22.7519 26.6151V34.188H25.9733C26.2735 33.3565 27.0651 32.762 27.9935 32.762C29.1797 32.762 30.1427 33.7324 30.1427 34.9276C30.1427 36.1229 29.1797 37.0934 27.9935 37.0934C27.0651 37.0934 26.2735 36.4988 25.9733 35.6672H22.018C21.6126 35.6672 21.284 35.3362 21.284 34.9276V26.6151H16.8414V35.7983C17.6667 36.1008 18.2566 36.8987 18.2566 37.8343C18.2566 39.0296 17.2936 40 16.1075 40C14.9214 40 13.9584 39.0296 13.9584 37.8343C13.9584 36.8987 14.5484 36.1008 15.3736 35.7983V26.6151H10.931V34.9276C10.931 35.3362 10.6024 35.6672 10.1971 35.6672H6.24173C5.94155 36.4988 5.14982 37.0934 4.22149 37.0934C3.03536 37.0934 2.07235 36.1229 2.07235 34.9276C2.07235 33.7324 3.03536 32.762 4.22149 32.762C5.14982 32.762 5.94155 33.3565 6.24173 34.188H9.46314V26.6151H5.37807C2.41987 26.6151 0 24.1765 0 21.1974C0 18.9371 1.39254 16.9894 3.35389 16.1785C3.34444 16.0136 3.34058 15.8469 3.34058 15.68C3.34058 10.8969 7.18721 7.01872 11.9336 7.01872C14.2546 7.01872 16.3625 7.94655 17.909 9.45533C18.7271 9.16004 19.6079 8.999 20.5267 8.999C24.5275 8.999 27.8186 12.0491 28.239 15.9676C30.5732 16.606 32.215 18.7569 32.215 21.1974C32.215 24.1765 29.7952 26.6151 26.837 26.6151H22.7519ZM33.4945 19.5964C32.9936 17.4993 31.5306 15.7318 29.5484 14.8664C28.6584 10.6683 24.959 7.51979 20.5267 7.51979C19.7472 7.51979 18.9907 7.61752 18.2679 7.80094C16.9589 6.73064 15.3777 5.98512 13.6461 5.68586C14.8501 2.3682 18.0096 0 21.7187 0C24.0396 0 26.1474 0.927921 27.694 2.43661C28.5121 2.14142 29.3929 1.98037 30.3118 1.98037C34.3124 1.98037 37.6036 5.03049 38.024 8.94898C40.3582 9.58735 42 11.7383 42 14.1787C42 17.1579 39.5801 19.5964 36.6219 19.5964H33.4945ZM30.3402 7.42217H28.7344C28.3293 7.42217 28.0004 7.75351 28.0004 8.16177C28.0004 8.56994 28.3293 8.90137 28.7344 8.90137H30.3402V10.5196C30.3402 10.9278 30.6691 11.2592 31.0741 11.2592C31.4793 11.2592 31.8081 10.9278 31.8081 10.5196V8.90137H33.414C33.819 8.90137 34.1479 8.56994 34.1479 8.16177C34.1479 7.75351 33.819 7.42217 33.414 7.42217H31.8081V5.80383C31.8081 5.39566 31.4793 5.06423 31.0741 5.06423C30.6691 5.06423 30.3402 5.39566 30.3402 5.80383V7.42217Z" fill="url(#paint0_linear_4591_6108)"></path><defs><linearGradient id="paint0_linear_4591_6108" x1="21" y1="0" x2="21" y2="40" gradientUnits="userSpaceOnUse"><stop stop-color="#994AFF"></stop><stop offset="0.5" stop-color="#781BFA"></stop><stop offset="1" stop-color="#994AFF"></stop></linearGradient></defs></svg>