<svg width="16" height="13" viewBox="0 0 16 13" fill="none" xmlns="http://www.w3.org/2000/svg">
<path d="M14.4102 0.625C15.1484 0.625 15.75 1.22656 15.75 1.9375V11.5625C15.75 12.3008 15.1484 12.875 14.4102 12.875H1.3125C0.574219 12.875 0 12.3008 0 11.5625V1.9375C0 1.22656 0.574219 0.625 1.3125 0.625H14.4102ZM1.47656 1.9375C1.36719 1.9375 1.3125 2.01953 1.3125 2.10156V3.25H14.4102V2.10156C14.4102 2.01953 14.3555 1.9375 14.2461 1.9375H1.47656ZM14.2461 11.5625C14.3555 11.5625 14.4102 11.5078 14.4102 11.3984V6.75H1.3125V11.3984C1.3125 11.5078 1.36719 11.5625 1.47656 11.5625H14.2461ZM5.25 8.82812V9.92188C5.25 10.1133 5.08594 10.25 4.92188 10.25H2.95312C2.76172 10.25 2.625 10.1133 2.625 9.92188V8.82812C2.625 8.66406 2.76172 8.5 2.95312 8.5H4.92188C5.08594 8.5 5.25 8.66406 5.25 8.82812ZM10.5 8.82812V9.92188C10.5 10.1133 10.3359 10.25 10.1719 10.25H6.45312C6.26172 10.25 6.125 10.1133 6.125 9.92188V8.82812C6.125 8.66406 6.26172 8.5 6.45312 8.5H10.1719C10.3359 8.5 10.5 8.66406 10.5 8.82812Z" fill="white" fill-opacity="0.65"/>
</svg>
