<svg xmlns="http://www.w3.org/2000/svg" width="40" height="40" viewBox="0 0 40 40" fill="none"><g clip-path="url(#clip0_4591_6089)"><path fill-rule="evenodd" clip-rule="evenodd" d="M10.0974 6.65673H29.9025C31.7976 6.65673 33.3433 8.20237 33.3433 10.0975V29.9026C33.3433 31.7976 31.7976 33.3433 29.9025 33.3433H10.0974C8.20237 33.3433 6.65666 31.7977 6.65666 29.9026V10.0974C6.65673 8.2023 8.2023 6.65673 10.0974 6.65673ZM34.5099 19.4167H37.292C37.5143 18.9253 38.0089 18.5833 38.5833 18.5833C39.3657 18.5833 40 19.2176 40 20C40 20.7825 39.3657 21.4167 38.5833 21.4167C38.0089 21.4167 37.5143 21.0748 37.292 20.5834H34.51V19.4167H34.5099V19.4167ZM40 34.4419C40 35.2244 39.3657 35.8586 38.5833 35.8586C37.8009 35.8586 37.1666 35.2244 37.1666 34.4419C37.1666 33.8674 37.5085 33.3728 38 33.1506V29.4671H34.5099V28.3005H38.5833C38.9055 28.3005 39.1667 28.5617 39.1667 28.8838V33.1506C39.6581 33.3728 40 33.8674 40 34.4419ZM29.4671 34.5099H28.3004V38.5833C28.3004 38.9055 28.5616 39.1667 28.8838 39.1667H33.1505C33.3728 39.6581 33.8674 40 34.4419 40C35.2244 40 35.8586 39.3657 35.8586 38.5833C35.8586 37.8009 35.2244 37.1666 34.4419 37.1666C33.8674 37.1666 33.3728 37.5085 33.1505 38H29.4671V34.5099H29.4671ZM38.5833 4.14152C39.3657 4.14152 40 4.77577 40 5.55821C40 6.13272 39.6581 6.6273 39.1667 6.84954V11.1163C39.1667 11.4384 38.9055 11.6996 38.5833 11.6996H34.5099V10.533H38V6.84961C37.5085 6.6273 37.1666 6.13272 37.1666 5.55828C37.1667 4.77577 37.8009 4.14152 38.5833 4.14152ZM28.3004 5.4901H29.4671V1.99998H33.1505C33.3728 2.49138 33.8673 2.83332 34.4419 2.83332C35.2243 2.83332 35.8585 2.19906 35.8585 1.41662C35.8585 0.634187 35.2244 0 34.4419 0C33.8674 0 33.3728 0.341937 33.1505 0.83334H28.8838C28.5616 0.83334 28.3004 1.09454 28.3004 1.41669V5.4901ZM4.14152 1.41669C4.14152 0.634254 4.77577 0 5.55815 0C6.13265 0 6.62723 0.341937 6.84947 0.83334H11.1162C11.4384 0.83334 11.6996 1.09454 11.6996 1.41669V5.4901H10.5329V1.99998H6.84954C6.62723 2.49138 6.13265 2.83332 5.55821 2.83332C4.77577 2.83332 4.14152 2.19906 4.14152 1.41669ZM5.4901 11.6996V10.5329H1.99998V6.84954C2.49138 6.62723 2.83332 6.13265 2.83332 5.55821C2.83332 4.77577 2.19906 4.14152 1.41662 4.14152C0.634187 4.14152 0 4.77577 0 5.55815C0 6.13265 0.341937 6.62723 0.83334 6.84947V11.1162C0.83334 11.4384 1.09454 11.6996 1.41669 11.6996H5.4901ZM20 0.317228C20.7824 0.317228 21.4167 0.951482 21.4167 1.73392C21.4167 2.30843 21.0747 2.803 20.5833 3.02525V5.49003H19.4167V3.02525C18.9253 2.80294 18.5833 2.30836 18.5833 1.73392C18.5833 0.951482 19.2176 0.317228 20 0.317228ZM1.41669 18.5833C1.99113 18.5833 2.48571 18.9253 2.70802 19.4167H5.49003V20.5833H2.70802C2.48571 21.0747 1.99113 21.4167 1.41669 21.4167C0.634254 21.4167 0 20.7824 0 20C0 19.2175 0.634254 18.5833 1.41669 18.5833ZM1.41669 35.8585C0.634254 35.8585 0 35.2244 0 34.4419C0 33.8674 0.341937 33.3728 0.83334 33.1506V28.8838C0.83334 28.5617 1.09454 28.3005 1.41669 28.3005H5.4901V29.4671H1.99998V33.1505C2.49138 33.3728 2.83332 33.8674 2.83332 34.4419C2.83332 35.2242 2.19906 35.8585 1.41669 35.8585ZM11.6996 34.5099H10.5329V38H6.84954C6.62723 37.5085 6.13265 37.1666 5.55821 37.1666C4.77577 37.1666 4.14152 37.8009 4.14152 38.5833C4.14152 39.3657 4.77577 40 5.55821 40C6.13272 40 6.6273 39.6581 6.84954 39.1667H11.1163C11.4384 39.1667 11.6996 38.9055 11.6996 38.5833L11.6996 34.5099ZM20.5833 37.292C21.0747 37.5143 21.4167 38.0089 21.4167 38.5833C21.4167 39.3657 20.7824 40 20 40C19.2175 40 18.5833 39.3657 18.5833 38.5833C18.5833 38.0089 18.9252 37.5143 19.4166 37.292V34.5099H20.5833V37.292H20.5833ZM28.9545 21.5879C29.3023 21.5879 29.5841 21.306 29.5841 20.9584V19.0417C29.5841 18.694 29.3024 18.4121 28.9545 18.4121C27.0672 18.4121 26.1202 16.1256 27.4547 14.791C27.7005 14.5452 27.7005 14.1465 27.4547 13.9007L26.0993 12.5453C25.8535 12.2995 25.4548 12.2995 25.209 12.5453C23.8744 13.8799 21.5879 12.9328 21.5879 11.0455C21.5879 10.6977 21.306 10.4159 20.9583 10.4159H19.0417C18.694 10.4159 18.4121 10.6976 18.4121 11.0455C18.4121 12.9328 16.1256 13.8798 14.791 12.5453C14.5452 12.2995 14.1465 12.2995 13.9007 12.5453L12.5453 13.9007C12.2995 14.1465 12.2995 14.5453 12.5453 14.791C13.8799 16.1256 12.9328 18.4121 11.0455 18.4121C10.6977 18.4121 10.4159 18.694 10.4159 19.0417V20.9583C10.4159 21.3059 10.6976 21.5879 11.0455 21.5879C12.9329 21.5879 13.8798 23.8744 12.5453 25.2089C12.2995 25.4547 12.2995 25.8534 12.5453 26.0992L13.9007 27.4546C14.1465 27.7004 14.5453 27.7004 14.791 27.4546C16.1272 26.1184 18.4121 27.0647 18.4121 28.9545C18.4121 29.3023 18.694 29.584 19.0417 29.584H20.9583C21.306 29.584 21.5879 29.3023 21.5879 28.9545C21.5879 27.067 23.8744 26.1201 25.209 27.4546C25.4548 27.7004 25.8535 27.7004 26.0993 27.4546L27.4547 26.0992C27.7005 25.8534 27.7005 25.4546 27.4547 25.2089C26.1203 23.8744 27.0672 21.5879 28.9545 21.5879ZM20 15.3164C17.4133 15.3164 15.3164 17.4133 15.3164 20C15.3164 22.5866 17.4133 24.6835 20 24.6835C22.5866 24.6835 24.6835 22.5866 24.6835 20C24.6835 17.4133 22.5867 15.3164 20 15.3164Z" fill="url(#paint0_linear_4591_6089)"></path></g><defs><linearGradient id="paint0_linear_4591_6089" x1="20" y1="0" x2="20" y2="40" gradientUnits="userSpaceOnUse"><stop stop-color="#994AFF"></stop><stop offset="0.5" stop-color="#781BFA"></stop><stop offset="1" stop-color="#994AFF"></stop></linearGradient><clipPath id="clip0_4591_6089"><rect width="40" height="40" fill="white"></rect></clipPath></defs></svg>