<svg xmlns="http://www.w3.org/2000/svg" width="40" height="40" viewBox="0 0 40 40" fill="none"><path d="M40 5.71429V0.714286C40 0.524845 39.9247 0.343164 39.7908 0.209209C39.6568 0.0752549 39.4752 0 39.2857 0H34.2857V1.42857H35.8429C35.9841 1.4286 36.1222 1.47051 36.2396 1.549C36.357 1.62749 36.4486 1.73903 36.5026 1.86953C36.5567 2.00003 36.5708 2.14363 36.5433 2.28217C36.5157 2.4207 36.4477 2.54796 36.3479 2.64786L32.0836 6.91214C31.9565 7.0391 31.7862 7.11349 31.6067 7.12051C31.4272 7.12753 31.2516 7.06664 31.115 6.95C28.0141 4.3082 24.0737 2.85724 20 2.85724C15.9264 2.85724 11.9859 4.3082 8.885 6.95C8.74838 7.06664 8.57282 7.12753 8.39331 7.12051C8.2138 7.11349 8.04353 7.0391 7.91643 6.91214L3.65214 2.64786C3.55228 2.54796 3.48427 2.4207 3.45673 2.28217C3.42918 2.14363 3.44332 2.00003 3.49737 1.86953C3.55142 1.73903 3.64295 1.62749 3.76039 1.549C3.87782 1.47051 4.01589 1.4286 4.15714 1.42857H5.71429V0H0.714286C0.524845 0 0.343164 0.0752549 0.209209 0.209209C0.0752549 0.343164 0 0.524845 0 0.714286V5.71429H1.42857V4.15714C1.4286 4.01589 1.47051 3.87782 1.549 3.76039C1.62749 3.64295 1.73903 3.55142 1.86953 3.49737C2.00003 3.44332 2.14363 3.42918 2.28217 3.45673C2.4207 3.48427 2.54796 3.55228 2.64786 3.65214L6.91214 7.91643C7.0391 8.04353 7.11349 8.2138 7.12051 8.39331C7.12753 8.57282 7.06664 8.74838 6.95 8.885C4.3082 11.9859 2.85724 15.9264 2.85724 20C2.85724 24.0737 4.3082 28.0141 6.95 31.115C7.06664 31.2516 7.12753 31.4272 7.12051 31.6067C7.11349 31.7862 7.0391 31.9565 6.91214 32.0836L2.64786 36.3479C2.54796 36.4477 2.4207 36.5157 2.28217 36.5433C2.14363 36.5708 2.00003 36.5567 1.86953 36.5026C1.73903 36.4486 1.62749 36.357 1.549 36.2396C1.47051 36.1222 1.4286 35.9841 1.42857 35.8429V34.2857H0V39.2857C0 39.4752 0.0752549 39.6568 0.209209 39.7908C0.343164 39.9247 0.524845 40 0.714286 40H5.71429V38.5714H4.15714C4.01589 38.5714 3.87782 38.5295 3.76039 38.451C3.64295 38.3725 3.55142 38.261 3.49737 38.1305C3.44332 38 3.42918 37.8564 3.45673 37.7178C3.48427 37.5793 3.55228 37.452 3.65214 37.3521L7.91643 33.0879C8.04353 32.9609 8.2138 32.8865 8.39331 32.8795C8.57282 32.8725 8.74838 32.9334 8.885 33.05C11.9859 35.6918 15.9264 37.1428 20 37.1428C24.0737 37.1428 28.0141 35.6918 31.115 33.05C31.2516 32.9334 31.4272 32.8725 31.6067 32.8795C31.7862 32.8865 31.9565 32.9609 32.0836 33.0879L36.3479 37.3521C36.4477 37.452 36.5157 37.5793 36.5433 37.7178C36.5708 37.8564 36.5567 38 36.5026 38.1305C36.4486 38.261 36.357 38.3725 36.2396 38.451C36.1222 38.5295 35.9841 38.5714 35.8429 38.5714H34.2857V40H39.2857C39.4752 40 39.6568 39.9247 39.7908 39.7908C39.9247 39.6568 40 39.4752 40 39.2857V34.2857H38.5714V35.8429C38.5714 35.9841 38.5295 36.1222 38.451 36.2396C38.3725 36.357 38.261 36.4486 38.1305 36.5026C38 36.5567 37.8564 36.5708 37.7178 36.5433C37.5793 36.5157 37.452 36.4477 37.3521 36.3479L33.0879 32.0836C32.9609 31.9565 32.8865 31.7862 32.8795 31.6067C32.8725 31.4272 32.9334 31.2516 33.05 31.115C35.6918 28.0141 37.1428 24.0737 37.1428 20C37.1428 15.9264 35.6918 11.9859 33.05 8.885C32.9334 8.74838 32.8725 8.57282 32.8795 8.39331C32.8865 8.2138 32.9609 8.04353 33.0879 7.91643L37.3521 3.65214C37.452 3.55228 37.5793 3.48427 37.7178 3.45673C37.8564 3.42918 38 3.44332 38.1305 3.49737C38.261 3.55142 38.3725 3.64295 38.451 3.76039C38.5295 3.87782 38.5714 4.01589 38.5714 4.15714V5.71429H40ZM35.7143 20C35.7143 23.108 34.7927 26.1462 33.066 28.7304C31.3392 31.3146 28.885 33.3287 26.0136 34.5181C23.1422 35.7075 19.9826 36.0187 16.9343 35.4123C13.886 34.806 11.086 33.3094 8.88832 31.1117C6.69064 28.914 5.194 26.114 4.58766 23.0657C3.98132 20.0174 4.29252 16.8578 5.48189 13.9864C6.67127 11.115 8.68541 8.66076 11.2696 6.93405C13.8538 5.20734 16.892 4.28571 20 4.28571C24.1662 4.29044 28.1605 5.94757 31.1065 8.89354C34.0524 11.8395 35.7096 15.8338 35.7143 20Z" fill="url(#paint0_linear_4591_6097)"></path><path d="M27.1451 14.2012C25.5272 15.1983 22.7572 15.7147 20.0022 15.7147C17.2472 15.7147 14.4772 15.1983 12.8594 14.2012V17.1433C12.8594 17.9962 15.7079 19.2862 20.0022 19.2862C24.2965 19.2862 27.1451 17.9962 27.1451 17.1433V14.2012Z" fill="url(#paint1_linear_4591_6097)"></path><path d="M12.8594 19.2012V22.1433C12.8594 22.9962 15.7079 24.2862 20.0022 24.2862C24.2965 24.2862 27.1451 22.9962 27.1451 22.1433V19.2012C25.5272 20.1983 22.7572 20.7147 20.0022 20.7147C17.2472 20.7147 14.4772 20.1983 12.8594 19.2012Z" fill="url(#paint2_linear_4591_6097)"></path><path d="M20.0022 29.2862C24.2965 29.2862 27.1451 27.9962 27.1451 27.1433V24.2012C25.5272 25.1983 22.7572 25.7147 20.0022 25.7147C17.2472 25.7147 14.4772 25.1983 12.8594 24.2012V27.1433C12.8594 27.9962 15.7079 29.2862 20.0022 29.2862Z" fill="url(#paint3_linear_4591_6097)"></path><path d="M20.0022 14.2857C23.9471 14.2857 27.1451 13.3263 27.1451 12.1429C27.1451 10.9594 23.9471 10 20.0022 10C16.0573 10 12.8594 10.9594 12.8594 12.1429C12.8594 13.3263 16.0573 14.2857 20.0022 14.2857Z" fill="url(#paint4_linear_4591_6097)"></path><defs><linearGradient id="paint0_linear_4591_6097" x1="20" y1="0" x2="20" y2="40" gradientUnits="userSpaceOnUse"><stop stop-color="#994AFF"></stop><stop offset="0.5" stop-color="#781BFA"></stop><stop offset="1" stop-color="#994AFF"></stop></linearGradient><linearGradient id="paint1_linear_4591_6097" x1="20.0022" y1="14.2012" x2="20.0022" y2="19.2862" gradientUnits="userSpaceOnUse"><stop stop-color="#994AFF"></stop><stop offset="0.5" stop-color="#781BFA"></stop><stop offset="1" stop-color="#994AFF"></stop></linearGradient><linearGradient id="paint2_linear_4591_6097" x1="20.0022" y1="19.2012" x2="20.0022" y2="24.2862" gradientUnits="userSpaceOnUse"><stop stop-color="#994AFF"></stop><stop offset="0.5" stop-color="#781BFA"></stop><stop offset="1" stop-color="#994AFF"></stop></linearGradient><linearGradient id="paint3_linear_4591_6097" x1="20.0022" y1="24.2012" x2="20.0022" y2="29.2862" gradientUnits="userSpaceOnUse"><stop stop-color="#994AFF"></stop><stop offset="0.5" stop-color="#781BFA"></stop><stop offset="1" stop-color="#994AFF"></stop></linearGradient><linearGradient id="paint4_linear_4591_6097" x1="20.0022" y1="10" x2="20.0022" y2="14.2857" gradientUnits="userSpaceOnUse"><stop stop-color="#994AFF"></stop><stop offset="0.5" stop-color="#781BFA"></stop><stop offset="1" stop-color="#994AFF"></stop></linearGradient></defs></svg>