<svg width="26" height="25" viewBox="0 0 26 25" fill="none" xmlns="http://www.w3.org/2000/svg">
<path d="M1.5625 6.98438C0.765625 6.60938 0.765625 5.4375 1.5625 5.0625L12.4844 0.140625C12.625 0.046875 12.8125 0.046875 13 0.046875C13.1406 0.046875 13.3281 0.046875 13.4688 0.140625L24.3906 5.0625C25.1875 5.4375 25.1875 6.60938 24.3906 6.98438L13.4688 11.9062C13.1406 12.0469 12.8125 12.0469 12.4844 11.9062L1.5625 6.98438ZM24.3906 11.1094C25.1875 11.4375 25.1875 12.6094 24.3906 12.9844L13.4688 17.9062C13.1406 18.0469 12.8125 18.0469 12.4844 17.9062L1.5625 12.9844C0.765625 12.6094 0.765625 11.4375 1.5625 11.1094L4.28125 9.84375L11.875 13.3125C12.2031 13.4531 12.5781 13.5469 13 13.5469C13.375 13.5469 13.75 13.4531 14.0781 13.3125L21.6719 9.84375L24.3906 11.1094ZM24.3906 17.1094C25.1875 17.4375 25.1875 18.6094 24.3906 18.9844L13.4688 23.9062C13.1406 24.0469 12.8125 24.0469 12.4844 23.9062L1.5625 18.9844C0.765625 18.6094 0.765625 17.4375 1.5625 17.1094L4.28125 15.8438L11.875 19.3125C12.2031 19.4531 12.5781 19.5469 13 19.5469C13.375 19.5469 13.75 19.4531 14.0781 19.3125L21.6719 15.8438L24.3906 17.1094Z" fill="white"/>
</svg>
