<svg xmlns="http://www.w3.org/2000/svg" width="40" height="40" viewBox="0 0 40 40" fill="none"><g clip-path="url(#clip0_4553_12978)"><path d="M17.1552 19.4255C18.0921 19.8008 19.0941 19.9868 20.1033 19.9728C21.1125 19.9589 22.109 19.7452 23.0352 19.3442C23.2788 19.2394 23.4708 19.042 23.569 18.7956C23.6671 18.5492 23.6634 18.2739 23.5585 18.0302C23.4537 17.7866 23.2563 17.5946 23.0099 17.4964C22.7635 17.3983 22.4881 17.402 22.2445 17.5069C21.1214 17.9905 19.8724 18.099 18.6827 17.8164C17.493 17.5338 16.4263 16.875 15.6407 15.938C14.8551 15.0009 14.3927 13.8356 14.322 12.6148C14.2513 11.3941 14.5762 10.1831 15.2484 9.16171C15.9205 8.14027 16.9042 7.36283 18.0533 6.9448C19.2024 6.52676 20.4556 6.49043 21.627 6.84119C22.7984 7.19195 23.8254 7.91111 24.5556 8.89189C25.2859 9.87267 25.6803 11.0628 25.6805 12.2855V12.9975V13.0269C25.6798 13.038 25.6798 13.0491 25.6805 13.0602C25.7035 13.3943 25.5965 13.7243 25.3818 13.9812C25.1671 14.2382 24.8613 14.4022 24.5285 14.4389C24.3853 14.4359 24.2441 14.4048 24.113 14.3472C23.9819 14.2897 23.8634 14.2068 23.7643 14.1034C23.6652 14 23.5875 13.8781 23.5356 13.7446C23.4837 13.6111 23.4586 13.4687 23.4618 13.3255V10.1055C23.4618 9.84033 23.3565 9.58598 23.1689 9.39844C22.9814 9.2109 22.7271 9.10555 22.4618 9.10555C22.2246 9.10869 21.9964 9.1972 21.8192 9.35488C21.2876 9.02225 20.6756 8.84046 20.0486 8.82895C19.4217 8.81745 18.8034 8.97668 18.26 9.28959C17.7166 9.60249 17.2685 10.0573 16.9637 10.6053C16.6589 11.1533 16.5089 11.7739 16.5298 12.4006C16.5506 13.0273 16.7415 13.6366 17.082 14.1631C17.4225 14.6897 17.8998 15.1137 18.4628 15.3898C19.0258 15.6659 19.6533 15.7837 20.2781 15.7306C20.9029 15.6775 21.5015 15.4554 22.0098 15.0882C22.2992 15.502 22.6838 15.8401 23.1312 16.0742C23.5785 16.3084 24.0756 16.4316 24.5805 16.4335C25.4403 16.3799 26.2452 15.9927 26.8237 15.3544C27.4022 14.7161 27.7087 13.8771 27.6778 13.0162C27.6778 13.0082 27.6778 13.0015 27.6778 12.9935V12.2855C27.6774 10.89 27.2968 9.52085 26.5769 8.32525C25.857 7.12966 24.8251 6.15273 23.5918 5.49938C22.3586 4.84602 20.9707 4.54093 19.5772 4.61685C18.1837 4.69277 16.8372 5.14684 15.6822 5.9303C14.5273 6.71376 13.6076 7.79702 13.0219 9.06375C12.4362 10.3305 12.2065 11.7328 12.3577 13.1202C12.5088 14.5076 13.0351 15.8276 13.8798 16.9385C14.7246 18.0494 15.856 18.9092 17.1525 19.4255H17.1552ZM19.9978 13.7442C19.7097 13.7426 19.4285 13.6557 19.1896 13.4945C18.9508 13.3333 18.7651 13.1049 18.6559 12.8382C18.5467 12.5716 18.519 12.2785 18.5762 11.9961C18.6334 11.7137 18.7729 11.4545 18.9772 11.2513C19.1815 11.0481 19.4415 10.91 19.7242 10.8544C20.0069 10.7987 20.2998 10.8281 20.5659 10.9387C20.8319 11.0493 21.0593 11.2363 21.2192 11.476C21.3791 11.7157 21.4645 11.9974 21.4645 12.2855C21.4643 12.4777 21.4262 12.668 21.3523 12.8454C21.2785 13.0228 21.1703 13.1839 21.0341 13.3194C20.8978 13.4549 20.7361 13.5622 20.5583 13.6351C20.3805 13.708 20.19 13.7451 19.9978 13.7442Z" fill="#200B56"></path><path d="M39.4773 13.5484C39.3351 13.1108 39.1122 12.7037 38.8199 12.3484L33.4546 5.90304V4.01237C33.4535 3.04023 33.0669 2.10822 32.3795 1.42081C31.6921 0.73341 30.7601 0.346762 29.7879 0.345703H10.2119C9.2398 0.346762 8.30779 0.73341 7.62038 1.42081C6.93298 2.10822 6.54633 3.04023 6.54527 4.01237V5.91104L1.18394 12.3497C0.636612 13.0088 0.336673 13.8383 0.335938 14.695V33.3217C0.338054 35.0008 1.00599 36.6104 2.19327 37.7977C3.38054 38.985 4.99022 39.6529 6.66927 39.655H33.3359C34.9798 39.6563 36.5589 39.0146 37.7359 37.867L37.7533 37.855C38.3604 37.2665 38.8432 36.5619 39.1728 35.7831C39.5023 35.0044 39.6721 34.1673 39.6719 33.3217V14.695C39.6684 14.333 39.6109 13.9735 39.5013 13.6284C39.4933 13.6004 39.4853 13.5764 39.4773 13.5484ZM36.8919 35.7857L24.9599 25.4377L37.6693 15.7497V33.3217C37.6693 34.2034 37.3979 35.0637 36.8919 35.7857ZM37.2319 13.567L33.4546 16.4457V9.0297L37.2319 13.567ZM10.2119 2.3457H29.7879C30.2297 2.34641 30.6533 2.52223 30.9657 2.83464C31.2781 3.14705 31.4539 3.57056 31.4546 4.01237V17.971L23.4159 24.1044L22.1946 23.0377C21.5828 22.515 20.8046 22.2279 19.9999 22.2279C19.1953 22.2279 18.4171 22.515 17.8053 23.0377L16.5919 24.091L8.54527 17.9577V4.01237C8.54598 3.57056 8.7218 3.14705 9.03421 2.83464C9.34661 2.52223 9.77013 2.34641 10.2119 2.3457ZM3.11594 35.7897C2.60856 35.0667 2.33621 34.205 2.33594 33.3217V15.743L15.0479 25.4337L3.11594 35.7897ZM6.54527 16.435L2.77727 13.563L6.54527 9.0297V16.435ZM20.0026 37.655H6.66927C5.95585 37.6502 5.25499 37.4669 4.6306 37.1217L19.1133 24.555C19.3606 24.3448 19.6747 24.2294 19.9993 24.2294C20.3239 24.2294 20.6379 24.3448 20.8853 24.555L35.3786 37.1217C34.753 37.4674 34.0507 37.6508 33.3359 37.655H20.0026Z" fill="#200B56"></path></g><defs><clipPath id="clip0_4553_12978"><rect width="40" height="40" fill="white"></rect></clipPath></defs></svg>