<svg xmlns="http://www.w3.org/2000/svg" width="20" height="21" viewBox="0 0 20 21" fill="none"><path d="M19.0234 12.8438C19.2188 12.9609 19.2969 13.1953 19.2578 13.3906C18.7891 14.7969 18.0859 16.0469 17.1094 17.1016C16.9531 17.2578 16.7188 17.2969 16.5234 17.1797L14.8438 16.2422C14.1406 16.8281 13.3594 17.2969 12.5 17.6094V19.5234C12.5 19.7188 12.3438 19.9141 12.1094 19.9922C10.7422 20.2656 9.29688 20.3047 7.85156 19.9922C7.65625 19.9141 7.5 19.7188 7.5 19.5234V17.6094C6.60156 17.2969 5.82031 16.8281 5.11719 16.2422L3.4375 17.1797C3.24219 17.2969 3.00781 17.2578 2.85156 17.1016C1.91406 16.0469 1.17188 14.7969 0.742188 13.3906C0.664062 13.1953 0.742188 12.9609 0.9375 12.8438L2.61719 11.9062C2.46094 10.9688 2.46094 10.0703 2.61719 9.13281L0.9375 8.19531C0.742188 8.07812 0.664062 7.84375 0.742188 7.64844C1.17188 6.24219 1.91406 4.99219 2.85156 3.9375C3.00781 3.78125 3.24219 3.74219 3.4375 3.85938L5.11719 4.83594C5.82031 4.21094 6.60156 3.74219 7.5 3.42969V1.51562C7.5 1.32031 7.61719 1.125 7.85156 1.08594C9.21875 0.773438 10.6641 0.734375 12.1094 1.08594C12.3438 1.125 12.5 1.32031 12.5 1.51562V3.42969C13.3594 3.74219 14.1406 4.21094 14.8438 4.79688L16.5234 3.85938C16.7188 3.74219 16.9531 3.78125 17.1094 3.9375C18.0469 4.99219 18.7891 6.24219 19.2188 7.64844C19.2969 7.84375 19.2188 8.07812 19.0234 8.19531L17.3438 9.13281C17.5391 10.0703 17.5391 10.9688 17.3438 11.9062L19.0234 12.8438ZM10 13.625C11.7188 13.625 13.125 12.2578 13.125 10.5C13.125 8.78125 11.7188 7.375 10 7.375C8.24219 7.375 6.875 8.78125 6.875 10.5C6.875 12.2578 8.24219 13.625 10 13.625Z" fill="url(#paint0_linear_4591_11414)"></path><defs><linearGradient id="paint0_linear_4591_11414" x1="10" y1="0" x2="10" y2="20" gradientUnits="userSpaceOnUse"><stop stop-color="#994AFF"></stop><stop offset="0.5" stop-color="#781BFA"></stop><stop offset="1" stop-color="#994AFF"></stop></linearGradient></defs></svg>