<svg width="25" height="25" viewBox="0 0 25 25" fill="none" xmlns="http://www.w3.org/2000/svg">
<path d="M24.6719 0.9375C25 2.4375 25 3.60938 24.9531 4.78125C24.9531 9.60938 22.375 12.5156 18.9531 14.6719V19.5938C18.9531 20.3438 18.4375 21.2344 17.7344 21.6094L13.0938 23.9062C12.9531 23.9531 12.7656 24 12.625 24C11.9688 24 11.5 23.5312 11.5 22.875V18C11.5 15.5625 9.48438 13.5 7 13.5H2.125C1.46875 13.5 1 13.0312 1 12.375C1 12.2344 1.04688 12.0469 1.09375 11.9062L3.4375 7.26562C3.76562 6.5625 4.65625 6 5.40625 6H10.3281C12.4844 2.625 15.3906 0 20.2188 0C21.3906 0 22.5625 0 24.0625 0.328125C24.3438 0.421875 24.5781 0.65625 24.6719 0.9375ZM19 7.875C20.0312 7.875 20.875 7.07812 20.875 6C20.875 4.96875 20.0312 4.125 19 4.125C17.9219 4.125 17.125 4.96875 17.125 6C17.125 7.07812 17.9219 7.875 19 7.875ZM2.64062 16.5469C4.51562 14.625 7.04688 14.5312 8.78125 16.2188C10.4688 17.9531 10.375 20.4844 8.45312 22.3594C7.28125 23.5781 4.23438 24.1406 1 24C0.859375 20.7656 1.42188 17.7188 2.64062 16.5469ZM6.48438 20.4844C7.09375 19.8281 7.14062 18.9844 6.57812 18.4219C6.01562 17.8594 5.17188 17.9062 4.51562 18.5156C4.14062 18.9375 3.95312 19.9219 4 21C5.07812 21.0469 6.0625 20.8594 6.48438 20.4844Z" fill="white"/>
</svg>
