<svg xmlns="http://www.w3.org/2000/svg" width="38" height="40" viewBox="0 0 38 40" fill="none"><path fill-rule="evenodd" clip-rule="evenodd" d="M28.0661 23.8565L32.7585 26.1658C32.7877 26.1802 32.805 26.208 32.805 26.2405C32.805 26.2731 32.7877 26.3009 32.7585 26.3153L19.037 33.068C19.0129 33.0799 18.987 33.0799 18.9629 33.068L5.24149 26.3153C5.21226 26.3009 5.19486 26.2731 5.19486 26.2405C5.19486 26.208 5.21217 26.1802 5.24149 26.1658L9.93393 23.8565C9.95805 23.8446 9.98388 23.8446 10.008 23.8565L18.9629 28.2634C18.987 28.2753 19.0129 28.2753 19.037 28.2634L27.992 23.8565C28.0161 23.8446 28.0419 23.8446 28.0661 23.8565ZM27.2035 36.3729C26.1982 36.3729 25.3832 37.1849 25.3832 38.1864C25.3832 39.188 26.1982 39.9999 27.2035 39.9999C28.3113 39.9999 29.1548 39.0254 29.0072 37.9419C29.0025 37.9075 29.0185 37.8754 29.0488 37.8584L37.6365 32.9951C37.6384 32.994 37.64 32.9932 37.6419 32.9922C37.8537 32.8919 38 32.6768 38 32.4276V7.57229H37.9982C37.998 7.35553 37.8841 7.14498 37.6814 7.03028L29.0488 2.14165C29.0185 2.12449 29.0026 2.09245 29.0072 2.05796C29.1548 0.974504 28.3113 0 27.2035 0C26.1982 0 25.3832 0.81193 25.3832 1.81348C25.3832 3.34498 27.1652 4.16605 28.3368 3.23254C28.3641 3.21077 28.4 3.20795 28.4304 3.2251L36.7029 7.90988C36.7298 7.92506 36.7452 7.95154 36.7452 7.98226V32.0175C36.7452 32.0483 36.7298 32.0747 36.7029 32.0898L28.4304 36.7746C28.4 36.7918 28.3642 36.789 28.3369 36.7674C28.026 36.5206 27.632 36.3729 27.2035 36.3729ZM10.7965 36.3729C10.368 36.3729 9.97404 36.5206 9.663 36.7675C9.63575 36.7892 9.5999 36.792 9.56953 36.7748L1.29696 32.09C1.2701 32.0749 1.25468 32.0484 1.25468 32.0176V7.98236C1.25468 7.95154 1.2701 7.92515 1.29696 7.90998L9.56953 3.22519C9.5999 3.20804 9.63584 3.21087 9.66309 3.23264C10.8351 4.16624 12.6167 3.34479 12.6167 1.81358C12.6167 0.812024 11.8017 9.41943e-05 10.7964 9.41943e-05C9.68863 9.41943e-05 8.84509 0.974598 8.99266 2.05805C8.99739 2.09245 8.9814 2.12449 8.95113 2.14174L0.318518 7.03038C0.11579 7.14508 0.00189214 7.35562 0.00170294 7.57239H0V32.4277C0 32.6769 0.146441 32.892 0.35806 32.9923C0.359952 32.9933 0.36156 32.994 0.363452 32.9952L8.95113 37.8584C8.9814 37.8756 8.99739 37.9076 8.99266 37.942C8.84509 39.0255 9.68863 40 10.7964 40C11.8017 40 12.6167 39.1881 12.6167 38.1865C12.6168 37.1849 11.8018 36.3729 10.7965 36.3729ZM19.037 6.93208L32.7585 13.6848C32.7877 13.6992 32.805 13.727 32.805 13.7595C32.805 13.7921 32.7877 13.8199 32.7585 13.8343L19.037 20.587C19.0129 20.5989 18.987 20.5989 18.9629 20.587L5.24149 13.8343C5.21226 13.8199 5.19486 13.7921 5.19486 13.7595C5.19486 13.727 5.21217 13.6992 5.24149 13.6848L18.9629 6.93208C18.987 6.9202 19.0129 6.9202 19.037 6.93208ZM28.0682 17.617C28.044 17.6052 28.0182 17.6052 27.9941 17.617L19.037 22.025C19.0129 22.0369 18.987 22.0369 18.9629 22.025L10.0059 17.617C9.9818 17.6052 9.95597 17.6052 9.93185 17.617L5.24149 19.9253C5.21226 19.9397 5.19486 19.9675 5.19486 20C5.19486 20.0326 5.21217 20.0604 5.24149 20.0748L18.9629 26.8275C18.987 26.8394 19.0129 26.8394 19.037 26.8275L32.7585 20.0748C32.7877 20.0604 32.805 20.0326 32.805 20C32.805 19.9675 32.7877 19.9397 32.7585 19.9253L28.0682 17.617Z" fill="url(#paint0_linear_4591_6115)"></path><defs><linearGradient id="paint0_linear_4591_6115" x1="19" y1="0" x2="19" y2="40" gradientUnits="userSpaceOnUse"><stop stop-color="#994AFF"></stop><stop offset="0.5" stop-color="#781BFA"></stop><stop offset="1" stop-color="#994AFF"></stop></linearGradient></defs></svg>