<svg xmlns="http://www.w3.org/2000/svg" width="24" height="25" viewBox="0 0 24 25" fill="none"><g clip-path="url(#clip0_4604_52786)"><path d="M18.8438 20.4688C18.0585 20.4688 17.3848 20.9542 17.106 21.6406H15.4688V23.0469H17.106C17.3848 23.7333 18.0585 24.2188 18.8438 24.2188C19.8776 24.2188 20.7188 23.3776 20.7188 22.3438C20.7188 21.3099 19.8776 20.4688 18.8438 20.4688Z" fill="#200B56"></path><path d="M22.125 16.4844C21.8168 16.4844 21.526 16.5596 21.2692 16.6919L19.5283 15.2411C19.4019 15.1358 19.2426 15.0781 19.0781 15.0781H15.4688V16.4844H18.8235L20.35 17.7565C20.2855 17.9458 20.25 18.1484 20.25 18.3594C20.25 19.3932 21.0911 20.2344 22.125 20.2344C23.1589 20.2344 24 19.3932 24 18.3594C24 17.3255 23.1589 16.4844 22.125 16.4844Z" fill="#200B56"></path><path d="M22.125 10.625C21.3397 10.625 20.6661 11.1104 20.3873 11.7969H15.4688V13.2031H20.3873C20.6661 13.8896 21.3397 14.375 22.125 14.375C23.1589 14.375 24 13.5339 24 12.5C24 11.4661 23.1589 10.625 22.125 10.625Z" fill="#200B56"></path><path d="M19.5283 9.75889L21.2692 8.30806C21.526 8.44044 21.8168 8.51562 22.125 8.51562C23.1589 8.51562 24 7.6745 24 6.64062C24 5.60675 23.1589 4.76562 22.125 4.76562C21.0911 4.76562 20.25 5.60675 20.25 6.64062C20.25 6.85156 20.2855 7.0542 20.35 7.24353L18.8235 8.51562H15.4688V9.92188H19.0781C19.2426 9.92188 19.4019 9.86422 19.5283 9.75889Z" fill="#200B56"></path><path d="M18.8438 4.53125C19.8776 4.53125 20.7188 3.69012 20.7188 2.65625C20.7188 1.62238 19.8776 0.78125 18.8438 0.78125C18.0585 0.78125 17.3848 1.26669 17.106 1.95312H15.4688V3.35938H17.106C17.3848 4.04581 18.0585 4.53125 18.8438 4.53125Z" fill="#200B56"></path><path d="M7.03125 12.5C7.03125 15.2139 9.2392 17.4219 11.9531 17.4219C12.7076 17.4219 13.4228 17.251 14.0625 16.9463V8.05367C13.4228 7.74898 12.7076 7.57812 11.9531 7.57812C9.2392 7.57812 7.03125 9.78608 7.03125 12.5Z" fill="#200B56"></path><path d="M13.3594 0.546875H10.5469C10.1586 0.546875 9.84375 0.861687 9.84375 1.25V2.16523C8.52436 2.43402 7.26173 2.95709 6.13706 3.70081L5.48972 3.05352C5.21513 2.77892 4.76995 2.77892 4.49536 3.05352L2.50664 5.04223C2.23205 5.31678 2.23205 5.762 2.50664 6.03659L3.15394 6.68394C2.41022 7.80861 1.88714 9.07123 1.61836 10.3906H0.703125C0.314812 10.3906 0 10.7054 0 11.0938V13.9062C0 14.2946 0.314812 14.6094 0.703125 14.6094H1.61836C1.88714 15.9288 2.41022 17.1914 3.15394 18.3161L2.50659 18.9635C2.37473 19.0953 2.30067 19.2741 2.30067 19.4606C2.30067 19.6471 2.37473 19.8259 2.50659 19.9577L4.49536 21.9465C4.76995 22.2211 5.21513 22.2211 5.48972 21.9465L6.13706 21.2992C7.26173 22.0429 8.52436 22.5659 9.84375 22.8348V23.75C9.84375 24.1383 10.1586 24.4531 10.5469 24.4531H13.3594C13.7477 24.4531 14.0625 24.1383 14.0625 23.75V18.4662C13.4024 18.7003 12.6925 18.8281 11.9531 18.8281C8.4638 18.8281 5.625 15.9893 5.625 12.5C5.625 9.01067 8.4638 6.17188 11.9531 6.17188C12.6925 6.17188 13.4024 6.29975 14.0625 6.53384V1.25C14.0625 0.861687 13.7477 0.546875 13.3594 0.546875Z" fill="#200B56"></path></g><defs><clipPath id="clip0_4604_52786"><rect width="24" height="24" fill="white" transform="translate(0 0.5)"></rect></clipPath></defs></svg>