<svg xmlns="http://www.w3.org/2000/svg" width="24" height="25" viewBox="0 0 24 25" fill="none"><g clip-path="url(#clip0_4604_52772)"><path d="M23.6241 11.7901C23.5999 11.7739 23.5749 11.7589 23.5492 11.7452L21.846 10.8281L12.4012 15.8287C12.1503 15.9616 11.8498 15.9616 11.5989 15.8287L2.15409 10.8281L0.450917 11.7452C0.0369774 11.965 -0.120523 12.4787 0.0992039 12.8926C0.112865 12.9183 0.127831 12.9433 0.144053 12.9675L12 19.2444L23.856 12.9675C24.1171 12.5784 24.0133 12.0512 23.6241 11.7901Z" fill="#200B56"></path><path d="M23.8956 17.235C23.8162 17.0879 23.6955 16.9672 23.5485 16.8878L21.8454 15.9707L12.4005 20.9713C12.1496 21.1042 11.8491 21.1042 11.5982 20.9713L2.15334 15.9707L0.450176 16.8878C0.0335746 17.1127 -0.121816 17.6326 0.103033 18.0492C0.182436 18.1963 0.303122 18.317 0.450176 18.3964L11.593 24.3964C11.8467 24.533 12.152 24.533 12.4056 24.3964L23.5485 18.3964C23.965 18.1715 24.1205 17.6516 23.8956 17.235Z" fill="#200B56"></path><path d="M23.6241 6.64728C23.5999 6.63106 23.5749 6.61609 23.5492 6.60243L12.4063 0.602418C12.1527 0.465861 11.8474 0.465861 11.5938 0.602418L0.450917 6.60243C0.0369774 6.82216 -0.120523 7.33584 0.0992039 7.74978C0.112865 7.77549 0.127831 7.8005 0.144053 7.82471L12 14.1016L23.856 7.82471C24.1171 7.43553 24.0133 6.90839 23.6241 6.64728Z" fill="#200B56"></path></g><defs><clipPath id="clip0_4604_52772"><rect width="24" height="24" fill="white" transform="translate(0 0.5)"></rect></clipPath></defs></svg>