<svg xmlns="http://www.w3.org/2000/svg" width="25" height="25" viewBox="0 0 25 25" fill="none"><path fill-rule="evenodd" clip-rule="evenodd" d="M9.84077 0.5H13.783V2.50956C15.0883 2.77391 16.302 3.29566 17.3711 4.02038L18.7704 2.59876L21.558 5.43081L20.1586 6.85242C20.8721 7.93843 21.3854 9.17163 21.6458 10.4975H23.6238V14.5026H21.6458C21.633 14.5674 21.6196 14.632 21.6057 14.6964C21.2754 14.6313 20.9343 14.5969 20.5851 14.5969C19.9765 14.5969 19.3918 14.7007 18.8469 14.8915C19.1174 14.1075 19.2648 13.2648 19.2648 12.387C19.2648 8.20526 15.9281 4.81529 11.8119 4.81529C7.69566 4.81529 4.35898 8.20521 4.35898 12.3869C4.35898 16.5685 7.69571 19.9586 11.8119 19.9586C13.0862 19.9586 14.2855 19.6334 15.3345 19.0608C15.2803 19.3705 15.252 19.6893 15.252 20.0149C15.252 20.6916 15.3745 21.3391 15.5975 21.9363C15.0179 22.1765 14.411 22.3633 13.783 22.4905V24.5H9.84077V22.4905C8.53556 22.2262 7.32184 21.7046 6.2527 20.9798L4.85342 22.4013L2.06582 19.5693L3.4651 18.1479C2.75153 17.0618 2.23821 15.8286 1.97796 14.5025H0V10.4975H1.97796C2.23816 9.17148 2.75173 7.93843 3.4651 6.85227L2.06582 5.4307L4.85342 2.59871L6.2527 4.02028C7.32173 3.29545 8.53566 2.77396 9.84077 2.50956V0.5ZM20.5852 15.5298C18.1469 15.5298 16.1704 17.5378 16.1704 20.0149C16.1704 22.4919 18.1469 24.5 20.5852 24.5C23.0235 24.5 25 22.4919 25 20.0149C25 17.5378 23.0235 15.5298 20.5852 15.5298ZM22.2568 17.9695L19.6416 20.6264L18.7491 19.4854C18.5295 19.2049 18.1278 19.1582 17.8516 19.3812C17.5754 19.6043 17.5295 20.0125 17.7491 20.293L19.0623 21.9722C19.2895 22.3027 19.7572 22.3478 20.0402 22.0603L23.1618 18.889C23.4116 18.6351 23.4116 18.2234 23.1618 17.9695C22.9119 17.7157 22.5068 17.7157 22.2568 17.9695ZM11.8119 6.57844C8.65424 6.57844 6.09444 9.17899 6.09444 12.3869C6.09444 15.5949 8.65424 18.1954 11.8119 18.1954C14.9695 18.1954 17.5293 15.5949 17.5293 12.3869C17.5293 9.17899 14.9695 6.57844 11.8119 6.57844ZM12.2711 11.7348V8.22568C12.2711 7.96802 12.0656 7.75919 11.8119 7.75919C11.5583 7.75919 11.3528 7.96802 11.3528 8.22568V12.2319L9.0149 13.6032C8.79597 13.732 8.72133 14.0168 8.84806 14.2392C8.9748 14.4616 9.25515 14.5375 9.47408 14.4087L11.387 13.2866C11.4558 13.4563 11.6201 13.5759 11.8119 13.5759C12.0656 13.5759 12.2711 13.367 12.2711 13.1094V12.7671L12.5591 12.5981C12.7781 12.4703 12.8536 12.1864 12.7278 11.964C12.6326 11.7956 12.4494 11.7108 12.2711 11.7348Z" fill="#200B56"></path></svg>