<svg xmlns="http://www.w3.org/2000/svg" width="24" height="25" viewBox="0 0 24 25" fill="none"><g clip-path="url(#clip0_4604_52759)"><path d="M6.10492 6.98047L4.02565 7.14111C3.44708 7.18583 2.93179 7.48906 2.61182 7.97304L0.213854 11.5998C-0.0288162 11.9669 -0.067394 12.4262 0.110589 12.8285C0.288619 13.2309 0.654475 13.5113 1.08924 13.5787L2.99305 13.8735C3.43841 11.5101 4.50452 9.1525 6.10492 6.98047Z" fill="#200B56"></path><path d="M10.625 21.5064L10.9199 23.4102C10.9872 23.845 11.2677 24.2108 11.67 24.3888C11.8374 24.4629 12.0146 24.4994 12.1908 24.4994C12.4385 24.4994 12.6844 24.4273 12.8987 24.2855L16.5256 21.8876C17.0096 21.5676 17.3128 21.0523 17.3575 20.4738L17.5181 18.3945C15.346 19.995 12.9885 21.0611 10.625 21.5064Z" fill="#200B56"></path><path d="M9.90947 20.1879C9.97557 20.1879 10.042 20.1825 10.1084 20.1714C11.0985 20.0059 12.0529 19.727 12.9633 19.3619L5.13853 11.5371C4.77347 12.4475 4.49456 13.4018 4.329 14.3921C4.26375 14.7824 4.39467 15.18 4.67447 15.4599L9.04056 19.826C9.27287 20.0582 9.58641 20.1879 9.90947 20.1879Z" fill="#200B56"></path><path d="M22.0826 11.1407C23.9974 7.43881 24.0683 3.52684 23.9682 1.69216C23.934 1.06353 23.4328 0.562343 22.8041 0.528078C22.5054 0.511766 22.1513 0.5 21.7523 0.5C19.7008 0.5 16.4547 0.810732 13.3556 2.4137C10.8927 3.68762 7.66317 6.49264 5.75781 10.179C5.78031 10.1965 5.8023 10.2152 5.82302 10.2359L14.2604 18.6733C14.2812 18.6941 14.2998 18.716 14.3174 18.7385C18.0037 16.8331 20.8087 13.6036 22.0826 11.1407ZM13.9508 5.57371C15.3215 4.20305 17.5518 4.20291 18.9226 5.57371C19.5866 6.23769 19.9522 7.12057 19.9522 8.05961C19.9522 8.99865 19.5866 9.88154 18.9226 10.5455C18.2373 11.2308 17.3368 11.5735 16.4367 11.5736C15.5363 11.5736 14.6362 11.231 13.9508 10.5455C13.2868 9.88154 12.9211 8.99865 12.9211 8.05961C12.9211 7.12057 13.2868 6.23769 13.9508 5.57371Z" fill="#200B56"></path><path d="M14.9459 9.55108C15.7684 10.3735 17.1066 10.3735 17.9291 9.55108C18.3275 9.15264 18.5469 8.62295 18.5469 8.05952C18.5469 7.49608 18.3275 6.96639 17.9291 6.568C17.5179 6.15677 16.9777 5.95117 16.4375 5.95117C15.8974 5.95117 15.3572 6.15677 14.946 6.568C14.5476 6.96639 14.3281 7.49608 14.3281 8.05952C14.3281 8.62295 14.5475 9.15269 14.9459 9.55108Z" fill="#200B56"></path><path d="M0.718773 20.2781C0.898727 20.2781 1.07868 20.2094 1.21593 20.0721L3.51154 17.7765C3.78613 17.5019 3.78613 17.0567 3.51154 16.7821C3.23699 16.5075 2.79177 16.5075 2.51718 16.7821L0.22157 19.0777C-0.0530234 19.3523 -0.0530234 19.7975 0.22157 20.0721C0.358867 20.2094 0.53882 20.2781 0.718773 20.2781Z" fill="#200B56"></path><path d="M5.61382 18.8856C5.33927 18.611 4.89405 18.611 4.61946 18.8856L0.205945 23.2991C-0.0686484 23.5737 -0.0686484 24.0189 0.205945 24.2935C0.343242 24.4308 0.523195 24.4994 0.703148 24.4994C0.883102 24.4994 1.06305 24.4308 1.2003 24.2935L5.61377 19.88C5.88841 19.6054 5.88841 19.1602 5.61382 18.8856Z" fill="#200B56"></path><path d="M6.72026 20.9891L4.4247 23.2848C4.1501 23.5594 4.1501 24.0045 4.4247 24.2791C4.56199 24.4164 4.74195 24.4851 4.92185 24.4851C5.10176 24.4851 5.28176 24.4165 5.41901 24.2791L7.71462 21.9835C7.98921 21.7089 7.98921 21.2637 7.71462 20.9891C7.44007 20.7146 6.99485 20.7146 6.72026 20.9891Z" fill="#200B56"></path></g><defs><clipPath id="clip0_4604_52759"><rect width="24" height="24" fill="white" transform="translate(0 0.5)"></rect></clipPath></defs></svg>