<svg xmlns="http://www.w3.org/2000/svg" width="24" height="25" viewBox="0 0 24 25" fill="none"><path fill-rule="evenodd" clip-rule="evenodd" d="M6.75 2.375H5.625C4.63125 2.375 3.67502 2.77024 2.97377 3.47337C2.26877 4.17649 1.875 5.1305 1.875 6.125V7.25H0.75C0.3375 7.25 0 7.586 0 8C0 8.414 0.3375 8.75 0.75 8.75H1.875V10.25H0.75C0.3375 10.25 0 10.586 0 11C0 11.414 0.3375 11.75 0.75 11.75H1.875V13.25H0.75C0.3375 13.25 0 13.586 0 14C0 14.414 0.3375 14.75 0.75 14.75H1.875V16.25H0.75C0.3375 16.25 0 16.586 0 17C0 17.414 0.3375 17.75 0.75 17.75H1.875V18.875C1.875 19.8695 2.26877 20.8235 2.97377 21.5266C3.67502 22.2298 4.63125 22.625 5.625 22.625H6.75V23.75C6.75 24.164 7.0875 24.5 7.5 24.5C7.9125 24.5 8.25 24.164 8.25 23.75V22.625H9.75V23.75C9.75 24.164 10.0875 24.5 10.5 24.5C10.9125 24.5 11.25 24.164 11.25 23.75V22.625H12.75V23.75C12.75 24.164 13.0875 24.5 13.5 24.5C13.9125 24.5 14.25 24.164 14.25 23.75V22.625H15.75V23.75C15.75 24.164 16.0875 24.5 16.5 24.5C16.9125 24.5 17.25 24.164 17.25 23.75V22.625H18.375C19.3687 22.625 20.325 22.2298 21.0262 21.5266C21.7312 20.8235 22.125 19.8695 22.125 18.875V17.75H23.25C23.6625 17.75 24 17.414 24 17C24 16.586 23.6625 16.25 23.25 16.25H22.125V14.75H23.25C23.6625 14.75 24 14.414 24 14C24 13.586 23.6625 13.25 23.25 13.25H22.125V11.75H23.25C23.6625 11.75 24 11.414 24 11C24 10.586 23.6625 10.25 23.25 10.25H22.125V8.75H23.25C23.6625 8.75 24 8.414 24 8C24 7.586 23.6625 7.25 23.25 7.25H22.125V6.125C22.125 5.1305 21.7312 4.17649 21.0262 3.47337C20.325 2.77024 19.3687 2.375 18.375 2.375H17.25V1.25C17.25 0.836 16.9125 0.5 16.5 0.5C16.0875 0.5 15.75 0.836 15.75 1.25V2.375H14.25V1.25C14.25 0.836 13.9125 0.5 13.5 0.5C13.0875 0.5 12.75 0.836 12.75 1.25V2.375H11.25V1.25C11.25 0.836 10.9125 0.5 10.5 0.5C10.0875 0.5 9.75 0.836 9.75 1.25V2.375H8.25V1.25C8.25 0.836 7.9125 0.5 7.5 0.5C7.0875 0.5 6.75 0.836 6.75 1.25V2.375ZM20.625 6.125V18.875C20.625 19.4716 20.3887 20.0439 19.965 20.4661C19.545 20.888 18.9713 21.125 18.375 21.125H5.625C5.02875 21.125 4.455 20.888 4.035 20.4661C3.61125 20.0439 3.375 19.4716 3.375 18.875V6.125C3.375 5.52838 3.61125 4.95612 4.035 4.53387C4.455 4.112 5.02875 3.875 5.625 3.875H18.375C18.9713 3.875 19.545 4.112 19.965 4.53387C20.3887 4.95612 20.625 5.52838 20.625 6.125ZM19.875 6.125C19.875 5.72713 19.7175 5.34575 19.4362 5.0645C19.155 4.78287 18.7725 4.625 18.375 4.625C15.9113 4.625 8.08875 4.625 5.625 4.625C5.2275 4.625 4.84502 4.78287 4.56377 5.0645C4.28252 5.34575 4.125 5.72713 4.125 6.125V18.875C4.125 19.2729 4.28252 19.6543 4.56377 19.9355C4.84502 20.2171 5.2275 20.375 5.625 20.375H18.375C18.7725 20.375 19.155 20.2171 19.4362 19.9355C19.7175 19.6543 19.875 19.2729 19.875 18.875V6.125ZM13.125 15.875V10.25C13.125 8.80025 11.9513 7.625 10.5 7.625C9.04875 7.625 7.875 8.80025 7.875 10.25V15.875C7.875 16.289 8.2125 16.625 8.625 16.625C9.0375 16.625 9.375 16.289 9.375 15.875V14H11.625V15.875C11.625 16.289 11.9625 16.625 12.375 16.625C12.7875 16.625 13.125 16.289 13.125 15.875ZM14.625 8.375V15.875C14.625 16.289 14.9625 16.625 15.375 16.625C15.7875 16.625 16.125 16.289 16.125 15.875V8.375C16.125 7.961 15.7875 7.625 15.375 7.625C14.9625 7.625 14.625 7.961 14.625 8.375ZM9.375 12.5H11.625V10.25C11.625 9.62862 11.1225 9.125 10.5 9.125C9.8775 9.125 9.375 9.62862 9.375 10.25V12.5Z" fill="#200B56"></path></svg>