<svg width="1920" height="1130" viewBox="0 0 1920 1130" fill="none" xmlns="http://www.w3.org/2000/svg">
<rect width="1920" height="1130" fill="url(#paint0_linear_4550_9988)"/>
<rect width="1920" height="1130" fill="url(#paint1_linear_4550_9988)"/>
<g filter="url(#filter0_f_4550_9988)">
<circle cx="1920" r="250" fill="url(#paint2_linear_4550_9988)"/>
</g>
<g filter="url(#filter1_f_4550_9988)">
<circle r="250" fill="url(#paint3_linear_4550_9988)"/>
</g>
<circle cx="1753" cy="518" r="314" stroke="#200B56" stroke-opacity="0.1" stroke-width="2" stroke-dasharray="10 10"/>
<circle cx="1753" cy="518" r="214" stroke="#200B56" stroke-opacity="0.1" stroke-width="2" stroke-dasharray="10 10"/>
<g filter="url(#filter2_d_4550_9988)">
<circle cx="1771.5" cy="320.5" r="42.5" fill="white"/>
</g>
<path d="M1788.23 310.253C1787.55 307.196 1784.59 304.396 1781.52 303.801C1779.65 303.428 1774.44 302.966 1771 303.002C1767.55 302.964 1762.34 303.424 1760.48 303.799C1757.41 304.396 1754.45 307.196 1753.77 310.253C1753.38 312.109 1753.01 314.635 1753 318.082C1753.01 321.527 1753.38 324.053 1753.77 325.91C1754.45 328.967 1757.41 331.767 1760.48 332.362C1761.49 332.563 1763.47 332.791 1765.62 332.951C1765.87 333.334 1766.13 333.742 1766.42 334.175C1767.56 335.906 1768.43 337.112 1769.1 337.952C1770.2 339.349 1771.8 339.349 1772.91 337.952C1773.57 337.112 1774.44 335.906 1775.59 334.175C1775.87 333.743 1776.14 333.335 1776.38 332.951C1778.53 332.791 1780.52 332.563 1781.53 332.362C1784.59 331.767 1787.55 328.967 1788.23 325.91C1788.62 324.053 1789 321.528 1789 318.082C1788.99 314.634 1788.61 312.11 1788.23 310.253ZM1775.99 325.26H1766C1765.47 325.26 1764.97 325.05 1764.59 324.676C1764.22 324.302 1764.01 323.795 1764.01 323.266C1764.01 322.738 1764.22 322.23 1764.59 321.857C1764.97 321.483 1765.47 321.272 1766 321.272H1776C1776.53 321.272 1777.03 321.483 1777.41 321.857C1777.78 322.23 1777.99 322.738 1777.99 323.266C1777.99 323.795 1777.78 324.302 1777.41 324.676C1777.03 325.05 1776.53 325.26 1776 325.26H1775.99ZM1779.51 316.933H1762.49C1761.96 316.933 1761.45 316.723 1761.08 316.349C1760.7 315.975 1760.49 315.468 1760.49 314.939C1760.49 314.41 1760.7 313.903 1761.08 313.529C1761.45 313.155 1761.96 312.945 1762.49 312.945H1779.51C1780.04 312.945 1780.55 313.155 1780.92 313.529C1781.3 313.903 1781.51 314.41 1781.51 314.939C1781.51 315.468 1781.3 315.975 1780.92 316.349C1780.55 316.723 1780.04 316.933 1779.51 316.933H1779.51Z" fill="url(#paint4_linear_4550_9988)"/>
<g filter="url(#filter3_d_4550_9988)">
<circle cx="1756" cy="729" r="40" fill="white"/>
</g>
<path d="M1770.33 715.619C1767.39 712.214 1760.86 711 1755.74 711C1750.61 711 1744.09 712.214 1741.14 715.619C1736.95 720.464 1736.95 733.31 1741.14 738.154C1741.95 739.044 1742.91 739.776 1743.99 740.315C1744.07 740.363 1744.14 740.429 1744.19 740.507C1744.24 740.586 1744.27 740.674 1744.28 740.767L1744.89 744.422C1744.97 744.93 1745.18 745.409 1745.5 745.815C1745.82 746.221 1746.23 746.541 1746.71 746.746C1747.18 746.951 1747.7 747.034 1748.21 746.988C1748.72 746.941 1749.21 746.767 1749.64 746.481L1755.1 742.843C1755.19 742.779 1755.3 742.748 1755.41 742.757C1760.7 742.787 1767.33 741.624 1770.33 738.155C1774.52 733.31 1774.52 720.464 1770.33 715.619Z" fill="#994AFF"/>
<path d="M1755.74 734.6C1755.29 734.599 1754.87 734.423 1754.55 734.109C1754.24 733.795 1754.06 733.369 1754.06 732.925V719.53C1754.06 719.086 1754.24 718.66 1754.55 718.346C1754.87 718.032 1755.29 717.855 1755.74 717.855C1756.18 717.855 1756.61 718.032 1756.92 718.346C1757.23 718.66 1757.41 719.086 1757.41 719.53V732.925C1757.41 733.369 1757.23 733.795 1756.92 734.109C1756.61 734.423 1756.18 734.599 1755.74 734.6Z" fill="white"/>
<path d="M1749.03 731.252C1748.59 731.251 1748.16 731.075 1747.85 730.761C1747.54 730.447 1747.36 730.021 1747.36 729.577V722.879C1747.36 722.435 1747.54 722.01 1747.85 721.696C1748.16 721.381 1748.59 721.205 1749.03 721.205C1749.48 721.205 1749.9 721.381 1750.22 721.696C1750.53 722.01 1750.71 722.435 1750.71 722.879V729.577C1750.71 730.021 1750.53 730.447 1750.22 730.761C1749.9 731.075 1749.48 731.251 1749.03 731.252Z" fill="white"/>
<path d="M1762.42 731.252C1761.98 731.251 1761.55 731.075 1761.24 730.761C1760.93 730.447 1760.75 730.021 1760.75 729.577V722.879C1760.75 722.435 1760.93 722.01 1761.24 721.696C1761.55 721.381 1761.98 721.205 1762.42 721.205C1762.87 721.205 1763.29 721.381 1763.61 721.696C1763.92 722.01 1764.1 722.435 1764.1 722.879V729.577C1764.1 730.021 1763.92 730.447 1763.61 730.761C1763.29 731.075 1762.87 731.251 1762.42 731.252Z" fill="white"/>
<circle cx="-100" cy="518" r="314" stroke="#200B56" stroke-opacity="0.1" stroke-width="2" stroke-dasharray="10 10"/>
<circle cx="-100" cy="518" r="214" stroke="#200B56" stroke-opacity="0.1" stroke-width="2" stroke-dasharray="10 10"/>
<g filter="url(#filter4_d_4550_9988)">
<circle cx="141" cy="313" r="40" fill="white"/>
</g>
<path d="M148.642 306.672C148.642 306.618 148.64 306.563 148.639 306.509C143.672 304.541 138.142 304.541 133.174 306.509C133.173 306.563 133.172 306.618 133.172 306.672V317.397C133.172 320.834 133.947 324.227 135.44 327.324H146.374C147.867 324.227 148.642 320.834 148.642 317.397V306.672Z" fill="url(#paint5_linear_4550_9988)"/>
<path d="M148.637 306.51C145.279 305.18 141.665 304.75 138.141 305.218V327.324H146.371C147.864 324.228 148.639 320.835 148.639 317.397V306.673C148.639 306.619 148.637 306.564 148.637 306.51Z" fill="url(#paint6_linear_4550_9988)"/>
<path d="M142.761 305.117L137.844 310.035L148.415 320.606C148.565 319.546 148.641 318.474 148.641 317.398V308.582L145.634 305.575C144.685 305.355 143.726 305.203 142.761 305.117Z" fill="url(#paint7_linear_4550_9988)"/>
<path d="M133.188 318.207C133.299 321.366 134.065 324.471 135.441 327.324H146.375C147.75 324.471 148.516 321.366 148.628 318.207H133.188Z" fill="url(#paint8_linear_4550_9988)"/>
<path d="M135.182 316.607L133.203 318.586C133.361 321.614 134.119 324.585 135.44 327.324H145.898L135.182 316.607Z" fill="url(#paint9_linear_4550_9988)"/>
<path d="M145.754 326.973H136.062C135.909 326.973 135.761 327.025 135.642 327.121L135.327 327.375C134.755 327.838 134.422 328.534 134.422 329.269V330.331C134.422 330.7 134.721 330.999 135.09 330.999H146.726C147.095 330.999 147.394 330.7 147.394 330.331V329.269C147.394 328.534 147.061 327.838 146.489 327.375L146.174 327.121C146.055 327.025 145.907 326.973 145.754 326.973Z" fill="url(#paint10_linear_4550_9988)"/>
<path d="M136.627 330.998H135.617V329.587C135.617 329.308 135.843 329.082 136.122 329.082C136.401 329.082 136.627 329.308 136.627 329.587L136.627 330.998Z" fill="url(#paint11_linear_4550_9988)"/>
<path d="M138.541 330.998H137.531V329.587C137.531 329.308 137.757 329.082 138.036 329.082C138.315 329.082 138.541 329.308 138.541 329.587L138.541 330.998Z" fill="url(#paint12_linear_4550_9988)"/>
<path d="M140.455 330.998H139.445V329.587C139.445 329.308 139.671 329.082 139.95 329.082C140.229 329.082 140.455 329.308 140.455 329.587V330.998H140.455Z" fill="url(#paint13_linear_4550_9988)"/>
<path d="M142.369 330.998H141.359V329.587C141.359 329.308 141.585 329.082 141.864 329.082C142.143 329.082 142.369 329.308 142.369 329.587L142.369 330.998Z" fill="url(#paint14_linear_4550_9988)"/>
<path d="M144.283 330.998H143.273V329.587C143.273 329.308 143.499 329.082 143.778 329.082C144.057 329.082 144.283 329.308 144.283 329.587V330.998H144.283Z" fill="url(#paint15_linear_4550_9988)"/>
<path d="M146.197 330.998H145.188V329.587C145.188 329.308 145.414 329.082 145.692 329.082C145.971 329.082 146.197 329.308 146.197 329.587V330.998H146.197Z" fill="url(#paint16_linear_4550_9988)"/>
<path d="M134.422 329.232V330.331C134.422 330.7 134.721 330.999 135.09 330.999H146.726C147.095 330.999 147.394 330.7 147.394 330.331V329.232H134.422Z" fill="url(#paint17_linear_4550_9988)"/>
<path d="M146.493 327.375L146.178 327.121C146.059 327.025 145.911 326.973 145.758 326.973H141.656V330.999H146.73C147.099 330.999 147.398 330.7 147.398 330.331V329.269C147.398 328.534 147.065 327.838 146.493 327.375Z" fill="url(#paint18_linear_4550_9988)"/>
<path d="M148.637 306.509C148.583 303.468 147.032 300.439 144.013 297.486L141.877 295.397C141.337 294.868 140.472 294.868 139.931 295.397L137.796 297.486C134.777 300.439 133.225 303.468 133.172 306.509C138.264 305.37 143.545 305.37 148.637 306.509Z" fill="url(#paint19_linear_4550_9988)"/>
<path d="M144.011 297.486L141.875 295.397C141.335 294.868 140.47 294.868 139.929 295.397L138.547 296.749V305.733C141.92 305.508 145.318 305.767 148.635 306.509C148.581 303.468 147.03 300.439 144.011 297.486Z" fill="url(#paint20_linear_4550_9988)"/>
<path d="M142.203 305.681C143.507 305.728 144.808 305.847 146.102 306.039L143.974 303.91L142.203 305.681Z" fill="url(#paint21_linear_4550_9988)"/>
<path d="M140.909 311.303C143.301 311.303 145.24 309.364 145.24 306.972C145.24 304.58 143.301 302.641 140.909 302.641C138.517 302.641 136.578 304.58 136.578 306.972C136.578 309.364 138.517 311.303 140.909 311.303Z" fill="url(#paint22_linear_4550_9988)"/>
<path d="M140.913 310.464C142.842 310.464 144.405 308.9 144.405 306.972C144.405 305.044 142.842 303.48 140.913 303.48C138.985 303.48 137.422 305.044 137.422 306.972C137.422 308.9 138.985 310.464 140.913 310.464Z" fill="url(#paint23_linear_4550_9988)"/>
<path d="M136.578 306.971C136.578 309.363 138.517 311.302 140.909 311.302C143.301 311.302 145.24 309.363 145.24 306.971C145.24 306.453 145.149 305.957 144.982 305.496H136.836C136.669 305.957 136.578 306.453 136.578 306.971Z" fill="url(#paint24_linear_4550_9988)"/>
<path d="M137.845 310.035C139.536 311.726 142.279 311.726 143.97 310.035C145.661 308.343 145.661 305.601 143.97 303.909C143.604 303.543 143.188 303.256 142.744 303.049L136.984 308.809C137.192 309.252 137.479 309.668 137.845 310.035Z" fill="url(#paint25_linear_4550_9988)"/>
<path d="M140.905 309.923C142.535 309.923 143.856 308.601 143.856 306.971C143.856 305.341 142.535 304.02 140.905 304.02C139.275 304.02 137.953 305.341 137.953 306.971C137.953 308.601 139.275 309.923 140.905 309.923Z" fill="url(#paint26_linear_4550_9988)"/>
<path d="M143.856 306.971C143.856 305.341 142.535 304.02 140.905 304.02C139.275 304.02 137.953 305.341 137.953 306.971C137.953 307.324 138.015 307.663 138.129 307.976H143.68C143.794 307.663 143.856 307.324 143.856 306.971Z" fill="url(#paint27_linear_4550_9988)"/>
<path d="M142.992 304.884C141.839 303.731 139.97 303.731 138.818 304.884C137.665 306.037 137.665 307.906 138.818 309.058C139.067 309.308 139.351 309.503 139.653 309.645L143.578 305.719C143.437 305.417 143.241 305.134 142.992 304.884Z" fill="url(#paint28_linear_4550_9988)"/>
<path d="M151.818 324.15V330.026C151.818 330.648 151.066 330.959 150.626 330.52L145.934 325.827C145.67 325.563 145.566 325.179 145.658 324.818C145.853 324.053 146.017 323.276 146.151 322.489C146.433 320.824 146.576 319.116 146.576 317.398V316.774C146.576 316.541 146.859 316.424 147.024 316.589L149.861 319.427C151.114 320.679 151.818 322.378 151.818 324.15Z" fill="url(#paint29_linear_4550_9988)"/>
<path d="M151.818 324.15V330.026C151.818 330.648 151.066 330.959 150.626 330.52L145.934 325.827C145.67 325.563 145.566 325.179 145.658 324.818C145.853 324.053 146.017 323.276 146.151 322.489C146.433 320.824 146.576 319.116 146.576 317.398V316.774C146.576 316.541 146.859 316.424 147.024 316.589L149.861 319.427C151.114 320.679 151.818 322.378 151.818 324.15Z" fill="url(#paint30_linear_4550_9988)"/>
<path d="M146.151 322.488C146.017 323.275 145.853 324.052 145.658 324.816C145.566 325.178 145.67 325.562 145.934 325.826L150.626 330.519C151.066 330.958 151.818 330.647 151.818 330.025V324.149C151.818 322.885 151.458 321.66 150.798 320.605H146.408C146.342 321.238 146.256 321.866 146.151 322.488Z" fill="url(#paint31_linear_4550_9988)"/>
<path d="M130 324.15V330.026C130 330.648 130.752 330.959 131.192 330.52L135.884 325.827C136.148 325.563 136.252 325.179 136.16 324.818C135.965 324.053 135.801 323.276 135.667 322.489C135.385 320.824 135.242 319.116 135.242 317.398V316.774C135.242 316.541 134.959 316.424 134.794 316.589L131.957 319.427C130.704 320.679 130 322.378 130 324.15Z" fill="url(#paint32_linear_4550_9988)"/>
<path d="M130 324.15V330.026C130 330.648 130.752 330.959 131.192 330.52L135.884 325.827C136.148 325.563 136.252 325.179 136.16 324.818C135.965 324.053 135.801 323.276 135.667 322.489C135.385 320.824 135.242 319.116 135.242 317.398V316.774C135.242 316.541 134.959 316.424 134.794 316.589L131.957 319.427C130.704 320.679 130 322.378 130 324.15Z" fill="url(#paint33_linear_4550_9988)"/>
<path d="M130 324.15V330.026C130 330.647 130.752 330.959 131.192 330.52L135.884 325.827C136.148 325.563 136.252 325.179 136.16 324.817C135.965 324.053 135.801 323.276 135.667 322.489C135.584 322 135.515 321.506 135.456 321.01H130.784C130.274 321.968 130 323.045 130 324.15Z" fill="url(#paint34_linear_4550_9988)"/>
<g filter="url(#filter5_d_4550_9988)">
<circle cx="140" cy="719" r="40" fill="white"/>
</g>
<path d="M140.498 737.001C142.968 737.001 145.15 735.398 145.894 733.035H135.109C135.846 735.398 138.028 737.001 140.498 737.001Z" fill="url(#paint35_linear_4550_9988)"/>
<path d="M140.495 702.97C141.653 702.97 142.74 703.519 143.435 704.44C144.277 704.581 145.105 704.784 145.912 705.052C145.021 702.056 141.877 700.348 138.888 701.234C137.057 701.782 135.625 703.217 135.078 705.052C135.885 704.784 136.72 704.581 137.555 704.44C138.25 703.512 139.337 702.97 140.495 702.97Z" fill="url(#paint36_linear_4550_9988)"/>
<path d="M140.496 705.15C131.382 705.15 124 712.554 124 721.687V726.102C124 729.4 126.673 732.079 129.964 732.079H151.036C154.327 732.079 157 729.4 157 726.102V721.687C156.993 712.554 149.611 705.15 140.496 705.15Z" fill="url(#paint37_linear_4550_9988)"/>
<defs>
<filter id="filter0_f_4550_9988" x="1270" y="-650" width="1300" height="1300" filterUnits="userSpaceOnUse" color-interpolation-filters="sRGB">
<feFlood flood-opacity="0" result="BackgroundImageFix"/>
<feBlend mode="normal" in="SourceGraphic" in2="BackgroundImageFix" result="shape"/>
<feGaussianBlur stdDeviation="200" result="effect1_foregroundBlur_4550_9988"/>
</filter>
<filter id="filter1_f_4550_9988" x="-650" y="-650" width="1300" height="1300" filterUnits="userSpaceOnUse" color-interpolation-filters="sRGB">
<feFlood flood-opacity="0" result="BackgroundImageFix"/>
<feBlend mode="normal" in="SourceGraphic" in2="BackgroundImageFix" result="shape"/>
<feGaussianBlur stdDeviation="200" result="effect1_foregroundBlur_4550_9988"/>
</filter>
<filter id="filter2_d_4550_9988" x="1679" y="222" width="205" height="205" filterUnits="userSpaceOnUse" color-interpolation-filters="sRGB">
<feFlood flood-opacity="0" result="BackgroundImageFix"/>
<feColorMatrix in="SourceAlpha" type="matrix" values="0 0 0 0 0 0 0 0 0 0 0 0 0 0 0 0 0 0 127 0" result="hardAlpha"/>
<feOffset dx="10" dy="4"/>
<feGaussianBlur stdDeviation="30"/>
<feComposite in2="hardAlpha" operator="out"/>
<feColorMatrix type="matrix" values="0 0 0 0 0.725962 0 0 0 0 0.725962 0 0 0 0 0.725962 0 0 0 0.25 0"/>
<feBlend mode="normal" in2="BackgroundImageFix" result="effect1_dropShadow_4550_9988"/>
<feBlend mode="normal" in="SourceGraphic" in2="effect1_dropShadow_4550_9988" result="shape"/>
</filter>
<filter id="filter3_d_4550_9988" x="1666" y="633" width="200" height="200" filterUnits="userSpaceOnUse" color-interpolation-filters="sRGB">
<feFlood flood-opacity="0" result="BackgroundImageFix"/>
<feColorMatrix in="SourceAlpha" type="matrix" values="0 0 0 0 0 0 0 0 0 0 0 0 0 0 0 0 0 0 127 0" result="hardAlpha"/>
<feOffset dx="10" dy="4"/>
<feGaussianBlur stdDeviation="30"/>
<feComposite in2="hardAlpha" operator="out"/>
<feColorMatrix type="matrix" values="0 0 0 0 0.725962 0 0 0 0 0.725962 0 0 0 0 0.725962 0 0 0 0.25 0"/>
<feBlend mode="normal" in2="BackgroundImageFix" result="effect1_dropShadow_4550_9988"/>
<feBlend mode="normal" in="SourceGraphic" in2="effect1_dropShadow_4550_9988" result="shape"/>
</filter>
<filter id="filter4_d_4550_9988" x="51" y="217" width="200" height="200" filterUnits="userSpaceOnUse" color-interpolation-filters="sRGB">
<feFlood flood-opacity="0" result="BackgroundImageFix"/>
<feColorMatrix in="SourceAlpha" type="matrix" values="0 0 0 0 0 0 0 0 0 0 0 0 0 0 0 0 0 0 127 0" result="hardAlpha"/>
<feOffset dx="10" dy="4"/>
<feGaussianBlur stdDeviation="30"/>
<feComposite in2="hardAlpha" operator="out"/>
<feColorMatrix type="matrix" values="0 0 0 0 0.725962 0 0 0 0 0.725962 0 0 0 0 0.725962 0 0 0 0.25 0"/>
<feBlend mode="normal" in2="BackgroundImageFix" result="effect1_dropShadow_4550_9988"/>
<feBlend mode="normal" in="SourceGraphic" in2="effect1_dropShadow_4550_9988" result="shape"/>
</filter>
<filter id="filter5_d_4550_9988" x="50" y="623" width="200" height="200" filterUnits="userSpaceOnUse" color-interpolation-filters="sRGB">
<feFlood flood-opacity="0" result="BackgroundImageFix"/>
<feColorMatrix in="SourceAlpha" type="matrix" values="0 0 0 0 0 0 0 0 0 0 0 0 0 0 0 0 0 0 127 0" result="hardAlpha"/>
<feOffset dx="10" dy="4"/>
<feGaussianBlur stdDeviation="30"/>
<feComposite in2="hardAlpha" operator="out"/>
<feColorMatrix type="matrix" values="0 0 0 0 0.725962 0 0 0 0 0.725962 0 0 0 0 0.725962 0 0 0 0.25 0"/>
<feBlend mode="normal" in2="BackgroundImageFix" result="effect1_dropShadow_4550_9988"/>
<feBlend mode="normal" in="SourceGraphic" in2="effect1_dropShadow_4550_9988" result="shape"/>
</filter>
<linearGradient id="paint0_linear_4550_9988" x1="960" y1="0" x2="960" y2="1130" gradientUnits="userSpaceOnUse">
<stop stop-color="#F8FAFB"/>
<stop offset="1" stop-color="#F8FAFB" stop-opacity="0"/>
</linearGradient>
<linearGradient id="paint1_linear_4550_9988" x1="960" y1="0" x2="960" y2="1130" gradientUnits="userSpaceOnUse">
<stop stop-color="#781BFA" stop-opacity="0.12"/>
<stop offset="1" stop-color="#781BFA" stop-opacity="0"/>
</linearGradient>
<linearGradient id="paint2_linear_4550_9988" x1="1920" y1="-250" x2="1920" y2="250" gradientUnits="userSpaceOnUse">
<stop stop-color="#994AFF"/>
<stop offset="0.5" stop-color="#781BFA"/>
<stop offset="1" stop-color="#994AFF"/>
</linearGradient>
<linearGradient id="paint3_linear_4550_9988" x1="0" y1="-250" x2="0" y2="250" gradientUnits="userSpaceOnUse">
<stop stop-color="#994AFF"/>
<stop offset="0.5" stop-color="#781BFA"/>
<stop offset="1" stop-color="#994AFF"/>
</linearGradient>
<linearGradient id="paint4_linear_4550_9988" x1="1753" y1="321.001" x2="1789" y2="321.001" gradientUnits="userSpaceOnUse">
<stop stop-color="#0080DE"/>
<stop offset="0.6" stop-color="#49BCFF"/>
<stop offset="1" stop-color="#61CAFF"/>
</linearGradient>
<linearGradient id="paint5_linear_4550_9988" x1="136.914" y1="316.178" x2="144.156" y2="316.178" gradientUnits="userSpaceOnUse">
<stop stop-color="#F5FBFF"/>
<stop offset="1" stop-color="#DBD5EF"/>
</linearGradient>
<linearGradient id="paint6_linear_4550_9988" x1="141.059" y1="316.18" x2="148.555" y2="316.18" gradientUnits="userSpaceOnUse">
<stop stop-color="#DBD5EF" stop-opacity="0"/>
<stop offset="0.2853" stop-color="#D9D2EE" stop-opacity="0.285"/>
<stop offset="0.4739" stop-color="#D4C9E9" stop-opacity="0.474"/>
<stop offset="0.6346" stop-color="#CBBAE2" stop-opacity="0.635"/>
<stop offset="0.7795" stop-color="#BFA5D7" stop-opacity="0.78"/>
<stop offset="0.9126" stop-color="#AF8ACA" stop-opacity="0.913"/>
<stop offset="1" stop-color="#A274BF"/>
</linearGradient>
<linearGradient id="paint7_linear_4550_9988" x1="148.216" y1="315.999" x2="142.211" y2="307.92" gradientUnits="userSpaceOnUse">
<stop stop-color="#DBD5EF" stop-opacity="0"/>
<stop offset="0.2853" stop-color="#D9D2EE" stop-opacity="0.285"/>
<stop offset="0.4739" stop-color="#D4C9E9" stop-opacity="0.474"/>
<stop offset="0.6346" stop-color="#CBBAE2" stop-opacity="0.635"/>
<stop offset="0.7795" stop-color="#BFA5D7" stop-opacity="0.78"/>
<stop offset="0.9126" stop-color="#AF8ACA" stop-opacity="0.913"/>
<stop offset="1" stop-color="#A274BF"/>
</linearGradient>
<linearGradient id="paint8_linear_4550_9988" x1="140.908" y1="321.919" x2="140.908" y2="327.663" gradientUnits="userSpaceOnUse">
<stop stop-color="#DBD5EF" stop-opacity="0"/>
<stop offset="0.2853" stop-color="#D9D2EE" stop-opacity="0.285"/>
<stop offset="0.4739" stop-color="#D4C9E9" stop-opacity="0.474"/>
<stop offset="0.6346" stop-color="#CBBAE2" stop-opacity="0.635"/>
<stop offset="0.7795" stop-color="#BFA5D7" stop-opacity="0.78"/>
<stop offset="0.9126" stop-color="#AF8ACA" stop-opacity="0.913"/>
<stop offset="1" stop-color="#A274BF"/>
</linearGradient>
<linearGradient id="paint9_linear_4550_9988" x1="138.551" y1="321.966" x2="135.094" y2="321.966" gradientUnits="userSpaceOnUse">
<stop stop-color="#DBD5EF" stop-opacity="0"/>
<stop offset="0.2853" stop-color="#D9D2EE" stop-opacity="0.285"/>
<stop offset="0.4739" stop-color="#D4C9E9" stop-opacity="0.474"/>
<stop offset="0.6346" stop-color="#CBBAE2" stop-opacity="0.635"/>
<stop offset="0.7795" stop-color="#BFA5D7" stop-opacity="0.78"/>
<stop offset="0.9126" stop-color="#AF8ACA" stop-opacity="0.913"/>
<stop offset="1" stop-color="#A274BF"/>
</linearGradient>
<linearGradient id="paint10_linear_4550_9988" x1="140.908" y1="327.241" x2="140.908" y2="328.267" gradientUnits="userSpaceOnUse">
<stop stop-color="#FEF0AE"/>
<stop offset="1" stop-color="#FAC600"/>
</linearGradient>
<linearGradient id="paint11_linear_4550_9988" x1="136.641" y1="330.04" x2="135.588" y2="330.04" gradientUnits="userSpaceOnUse">
<stop stop-color="#FEF0AE"/>
<stop offset="1" stop-color="#FAC600"/>
</linearGradient>
<linearGradient id="paint12_linear_4550_9988" x1="138.555" y1="330.04" x2="137.502" y2="330.04" gradientUnits="userSpaceOnUse">
<stop stop-color="#FEF0AE"/>
<stop offset="1" stop-color="#FAC600"/>
</linearGradient>
<linearGradient id="paint13_linear_4550_9988" x1="140.469" y1="330.04" x2="139.416" y2="330.04" gradientUnits="userSpaceOnUse">
<stop stop-color="#FEF0AE"/>
<stop offset="1" stop-color="#FAC600"/>
</linearGradient>
<linearGradient id="paint14_linear_4550_9988" x1="142.383" y1="330.04" x2="141.33" y2="330.04" gradientUnits="userSpaceOnUse">
<stop stop-color="#FEF0AE"/>
<stop offset="1" stop-color="#FAC600"/>
</linearGradient>
<linearGradient id="paint15_linear_4550_9988" x1="144.297" y1="330.04" x2="143.244" y2="330.04" gradientUnits="userSpaceOnUse">
<stop stop-color="#FEF0AE"/>
<stop offset="1" stop-color="#FAC600"/>
</linearGradient>
<linearGradient id="paint16_linear_4550_9988" x1="146.211" y1="330.04" x2="145.158" y2="330.04" gradientUnits="userSpaceOnUse">
<stop stop-color="#FEF0AE"/>
<stop offset="1" stop-color="#FAC600"/>
</linearGradient>
<linearGradient id="paint17_linear_4550_9988" x1="140.908" y1="329.699" x2="140.908" y2="330.991" gradientUnits="userSpaceOnUse">
<stop stop-color="#FE9738" stop-opacity="0"/>
<stop offset="1" stop-color="#FE9738"/>
</linearGradient>
<linearGradient id="paint18_linear_4550_9988" x1="143.375" y1="328.986" x2="147.426" y2="328.986" gradientUnits="userSpaceOnUse">
<stop stop-color="#FE9738" stop-opacity="0"/>
<stop offset="1" stop-color="#FE9738"/>
</linearGradient>
<linearGradient id="paint19_linear_4550_9988" x1="137.129" y1="300.755" x2="144.665" y2="300.755" gradientUnits="userSpaceOnUse">
<stop stop-color="#FFA1AE"/>
<stop offset="1" stop-color="#FF4565"/>
</linearGradient>
<linearGradient id="paint20_linear_4550_9988" x1="140.257" y1="301.736" x2="146.425" y2="300.371" gradientUnits="userSpaceOnUse">
<stop stop-color="#FE0364" stop-opacity="0"/>
<stop offset="0.2343" stop-color="#F90362" stop-opacity="0.234"/>
<stop offset="0.5173" stop-color="#EA035B" stop-opacity="0.517"/>
<stop offset="0.8243" stop-color="#D20250" stop-opacity="0.824"/>
<stop offset="1" stop-color="#C00148"/>
</linearGradient>
<linearGradient id="paint21_linear_4550_9988" x1="149.072" y1="305.958" x2="144.295" y2="305.03" gradientUnits="userSpaceOnUse">
<stop stop-color="#FE0364" stop-opacity="0"/>
<stop offset="0.2343" stop-color="#F90362" stop-opacity="0.234"/>
<stop offset="0.5173" stop-color="#EA035B" stop-opacity="0.517"/>
<stop offset="0.8243" stop-color="#D20250" stop-opacity="0.824"/>
<stop offset="1" stop-color="#C00148"/>
</linearGradient>
<linearGradient id="paint22_linear_4550_9988" x1="138.26" y1="304.322" x2="143.039" y2="309.102" gradientUnits="userSpaceOnUse">
<stop stop-color="#B3DAFE"/>
<stop offset="1" stop-color="#0182FC"/>
</linearGradient>
<linearGradient id="paint23_linear_4550_9988" x1="143.357" y1="309.416" x2="138.098" y2="304.156" gradientUnits="userSpaceOnUse">
<stop stop-color="#B3DAFE"/>
<stop offset="1" stop-color="#0182FC"/>
</linearGradient>
<linearGradient id="paint24_linear_4550_9988" x1="140.909" y1="307.026" x2="140.909" y2="312.121" gradientUnits="userSpaceOnUse">
<stop stop-color="#314DC9" stop-opacity="0"/>
<stop offset="0.2761" stop-color="#304BC4" stop-opacity="0.276"/>
<stop offset="0.5628" stop-color="#2B45B8" stop-opacity="0.563"/>
<stop offset="0.8535" stop-color="#243BA3" stop-opacity="0.854"/>
<stop offset="1" stop-color="#1F3596"/>
</linearGradient>
<linearGradient id="paint25_linear_4550_9988" x1="140.974" y1="306.99" x2="144.766" y2="310.781" gradientUnits="userSpaceOnUse">
<stop stop-color="#314DC9" stop-opacity="0"/>
<stop offset="0.2761" stop-color="#304BC4" stop-opacity="0.276"/>
<stop offset="0.5628" stop-color="#2B45B8" stop-opacity="0.563"/>
<stop offset="0.8535" stop-color="#243BA3" stop-opacity="0.854"/>
<stop offset="1" stop-color="#1F3596"/>
</linearGradient>
<linearGradient id="paint26_linear_4550_9988" x1="142.71" y1="308.777" x2="139.453" y2="305.52" gradientUnits="userSpaceOnUse">
<stop stop-color="#5A5A5A"/>
<stop offset="1" stop-color="#444444"/>
</linearGradient>
<linearGradient id="paint27_linear_4550_9988" x1="140.567" y1="305.983" x2="139.855" y2="303.899" gradientUnits="userSpaceOnUse">
<stop stop-color="#433F43" stop-opacity="0"/>
<stop offset="1" stop-color="#1A1A1A"/>
</linearGradient>
<linearGradient id="paint28_linear_4550_9988" x1="139.455" y1="306.275" x2="138.136" y2="305.642" gradientUnits="userSpaceOnUse">
<stop stop-color="#433F43" stop-opacity="0"/>
<stop offset="1" stop-color="#1A1A1A"/>
</linearGradient>
<linearGradient id="paint29_linear_4550_9988" x1="145.96" y1="321.121" x2="151.965" y2="326.225" gradientUnits="userSpaceOnUse">
<stop stop-color="#FFA1AE"/>
<stop offset="1" stop-color="#FF4565"/>
</linearGradient>
<linearGradient id="paint30_linear_4550_9988" x1="148.836" y1="323.619" x2="151.758" y2="323.619" gradientUnits="userSpaceOnUse">
<stop stop-color="#FE0364" stop-opacity="0"/>
<stop offset="0.2343" stop-color="#F90362" stop-opacity="0.234"/>
<stop offset="0.5173" stop-color="#EA035B" stop-opacity="0.517"/>
<stop offset="0.8243" stop-color="#D20250" stop-opacity="0.824"/>
<stop offset="1" stop-color="#C00148"/>
</linearGradient>
<linearGradient id="paint31_linear_4550_9988" x1="148.556" y1="326.067" x2="147.173" y2="327.595" gradientUnits="userSpaceOnUse">
<stop stop-color="#FE0364" stop-opacity="0"/>
<stop offset="0.2343" stop-color="#F90362" stop-opacity="0.234"/>
<stop offset="0.5173" stop-color="#EA035B" stop-opacity="0.517"/>
<stop offset="0.8243" stop-color="#D20250" stop-opacity="0.824"/>
<stop offset="1" stop-color="#C00148"/>
</linearGradient>
<linearGradient id="paint32_linear_4550_9988" x1="130.811" y1="322.176" x2="135.943" y2="325.961" gradientUnits="userSpaceOnUse">
<stop stop-color="#FFA1AE"/>
<stop offset="1" stop-color="#FF4565"/>
</linearGradient>
<linearGradient id="paint33_linear_4550_9988" x1="133.758" y1="323.461" x2="136.451" y2="322.988" gradientUnits="userSpaceOnUse">
<stop stop-color="#FE0364" stop-opacity="0"/>
<stop offset="0.2343" stop-color="#F90362" stop-opacity="0.234"/>
<stop offset="0.5173" stop-color="#EA035B" stop-opacity="0.517"/>
<stop offset="0.8243" stop-color="#D20250" stop-opacity="0.824"/>
<stop offset="1" stop-color="#C00148"/>
</linearGradient>
<linearGradient id="paint34_linear_4550_9988" x1="133.003" y1="325.924" x2="134.313" y2="327.125" gradientUnits="userSpaceOnUse">
<stop stop-color="#FE0364" stop-opacity="0"/>
<stop offset="0.2343" stop-color="#F90362" stop-opacity="0.234"/>
<stop offset="0.5173" stop-color="#EA035B" stop-opacity="0.517"/>
<stop offset="0.8243" stop-color="#D20250" stop-opacity="0.824"/>
<stop offset="1" stop-color="#C00148"/>
</linearGradient>
<linearGradient id="paint35_linear_4550_9988" x1="115.327" y1="708.269" x2="150.571" y2="743.442" gradientUnits="userSpaceOnUse">
<stop stop-color="#55DB58"/>
<stop offset="1" stop-color="#0EA012"/>
</linearGradient>
<linearGradient id="paint36_linear_4550_9988" x1="129.755" y1="693.809" x2="164.999" y2="728.982" gradientUnits="userSpaceOnUse">
<stop stop-color="#55DB58"/>
<stop offset="1" stop-color="#0EA012"/>
</linearGradient>
<linearGradient id="paint37_linear_4550_9988" x1="121.206" y1="702.378" x2="156.45" y2="737.551" gradientUnits="userSpaceOnUse">
<stop stop-color="#55DB58"/>
<stop offset="1" stop-color="#0EA012"/>
</linearGradient>
</defs>
</svg>
