<svg width="1920" height="530" viewBox="0 0 1920 530" fill="none" xmlns="http://www.w3.org/2000/svg">
<rect width="1920" height="530" fill="#1A0848"/>
<g filter="url(#filter0_f_4550_9990)">
<circle cx="1918" r="250" fill="url(#paint0_linear_4550_9990)"/>
</g>
<g filter="url(#filter1_f_4550_9990)">
<circle cx="-2" r="250" fill="url(#paint1_linear_4550_9990)"/>
</g>
<mask id="mask0_4550_9990" style="mask-type:alpha" maskUnits="userSpaceOnUse" x="0" y="0" width="1920" height="530">
<rect width="1920" height="530" fill="#F8FAFB"/>
</mask>
<g mask="url(#mask0_4550_9990)">
<circle cx="1841" cy="518" r="314" stroke="white" stroke-opacity="0.1" stroke-width="2" stroke-dasharray="10 10"/>
<circle cx="1841" cy="518" r="214" stroke="white" stroke-opacity="0.1" stroke-width="2" stroke-dasharray="10 10"/>
<circle cx="80" cy="518" r="314" stroke="white" stroke-opacity="0.1" stroke-width="2" stroke-dasharray="10 10"/>
<circle cx="80" cy="518" r="214" stroke="white" stroke-opacity="0.1" stroke-width="2" stroke-dasharray="10 10"/>
</g>
<g filter="url(#filter2_d_4550_9990)">
<circle cx="171" cy="324" r="40" fill="white"/>
</g>
<path d="M178.642 317.672C178.642 317.618 178.64 317.563 178.639 317.509C173.672 315.541 168.142 315.541 163.174 317.509C163.173 317.563 163.172 317.618 163.172 317.672V328.397C163.172 331.834 163.947 335.227 165.44 338.324H176.374C177.867 335.227 178.642 331.834 178.642 328.397V317.672Z" fill="url(#paint2_linear_4550_9990)"/>
<path d="M178.637 317.51C175.279 316.18 171.665 315.75 168.141 316.218V338.324H176.371C177.864 335.228 178.639 331.835 178.639 328.397V317.673C178.639 317.619 178.637 317.564 178.637 317.51Z" fill="url(#paint3_linear_4550_9990)"/>
<path d="M172.761 316.117L167.844 321.035L178.415 331.606C178.565 330.546 178.641 329.474 178.641 328.398V319.582L175.634 316.575C174.685 316.355 173.726 316.203 172.761 316.117Z" fill="url(#paint4_linear_4550_9990)"/>
<path d="M163.188 329.207C163.299 332.366 164.065 335.471 165.441 338.324H176.375C177.75 335.471 178.516 332.366 178.628 329.207H163.188Z" fill="url(#paint5_linear_4550_9990)"/>
<path d="M165.182 327.607L163.203 329.586C163.361 332.614 164.119 335.585 165.44 338.324H175.898L165.182 327.607Z" fill="url(#paint6_linear_4550_9990)"/>
<path d="M175.754 337.973H166.062C165.909 337.973 165.761 338.025 165.642 338.121L165.327 338.375C164.755 338.838 164.422 339.534 164.422 340.269V341.331C164.422 341.7 164.721 341.999 165.09 341.999H176.726C177.095 341.999 177.394 341.7 177.394 341.331V340.269C177.394 339.534 177.061 338.838 176.489 338.375L176.174 338.121C176.055 338.025 175.907 337.973 175.754 337.973Z" fill="url(#paint7_linear_4550_9990)"/>
<path d="M166.627 341.998H165.617V340.587C165.617 340.308 165.843 340.082 166.122 340.082C166.401 340.082 166.627 340.308 166.627 340.587L166.627 341.998Z" fill="url(#paint8_linear_4550_9990)"/>
<path d="M168.541 341.998H167.531V340.587C167.531 340.308 167.757 340.082 168.036 340.082C168.315 340.082 168.541 340.308 168.541 340.587L168.541 341.998Z" fill="url(#paint9_linear_4550_9990)"/>
<path d="M170.455 341.998H169.445V340.587C169.445 340.308 169.671 340.082 169.95 340.082C170.229 340.082 170.455 340.308 170.455 340.587V341.998H170.455Z" fill="url(#paint10_linear_4550_9990)"/>
<path d="M172.369 341.998H171.359V340.587C171.359 340.308 171.585 340.082 171.864 340.082C172.143 340.082 172.369 340.308 172.369 340.587L172.369 341.998Z" fill="url(#paint11_linear_4550_9990)"/>
<path d="M174.283 341.998H173.273V340.587C173.273 340.308 173.499 340.082 173.778 340.082C174.057 340.082 174.283 340.308 174.283 340.587V341.998H174.283Z" fill="url(#paint12_linear_4550_9990)"/>
<path d="M176.197 341.998H175.188V340.587C175.188 340.308 175.414 340.082 175.692 340.082C175.971 340.082 176.197 340.308 176.197 340.587V341.998H176.197Z" fill="url(#paint13_linear_4550_9990)"/>
<path d="M164.422 340.232V341.331C164.422 341.7 164.721 341.999 165.09 341.999H176.726C177.095 341.999 177.394 341.7 177.394 341.331V340.232H164.422Z" fill="url(#paint14_linear_4550_9990)"/>
<path d="M176.493 338.375L176.178 338.121C176.059 338.025 175.911 337.973 175.758 337.973H171.656V341.999H176.73C177.099 341.999 177.398 341.7 177.398 341.331V340.269C177.398 339.534 177.065 338.838 176.493 338.375Z" fill="url(#paint15_linear_4550_9990)"/>
<path d="M178.637 317.509C178.583 314.468 177.032 311.439 174.013 308.486L171.877 306.397C171.337 305.868 170.472 305.868 169.931 306.397L167.796 308.486C164.777 311.439 163.225 314.468 163.172 317.509C168.264 316.37 173.545 316.37 178.637 317.509Z" fill="url(#paint16_linear_4550_9990)"/>
<path d="M174.011 308.486L171.875 306.397C171.335 305.868 170.47 305.868 169.929 306.397L168.547 307.749V316.733C171.92 316.508 175.318 316.767 178.635 317.509C178.581 314.468 177.03 311.439 174.011 308.486Z" fill="url(#paint17_linear_4550_9990)"/>
<path d="M172.203 316.681C173.507 316.728 174.808 316.847 176.102 317.039L173.974 314.91L172.203 316.681Z" fill="url(#paint18_linear_4550_9990)"/>
<path d="M170.909 322.303C173.301 322.303 175.24 320.364 175.24 317.972C175.24 315.58 173.301 313.641 170.909 313.641C168.517 313.641 166.578 315.58 166.578 317.972C166.578 320.364 168.517 322.303 170.909 322.303Z" fill="url(#paint19_linear_4550_9990)"/>
<path d="M170.913 321.464C172.842 321.464 174.405 319.9 174.405 317.972C174.405 316.044 172.842 314.48 170.913 314.48C168.985 314.48 167.422 316.044 167.422 317.972C167.422 319.9 168.985 321.464 170.913 321.464Z" fill="url(#paint20_linear_4550_9990)"/>
<path d="M166.578 317.971C166.578 320.363 168.517 322.302 170.909 322.302C173.301 322.302 175.24 320.363 175.24 317.971C175.24 317.453 175.149 316.957 174.982 316.496H166.836C166.669 316.957 166.578 317.453 166.578 317.971Z" fill="url(#paint21_linear_4550_9990)"/>
<path d="M167.845 321.035C169.536 322.726 172.279 322.726 173.97 321.035C175.661 319.343 175.661 316.601 173.97 314.909C173.604 314.543 173.188 314.256 172.744 314.049L166.984 319.809C167.192 320.252 167.479 320.668 167.845 321.035Z" fill="url(#paint22_linear_4550_9990)"/>
<path d="M170.905 320.923C172.535 320.923 173.856 319.601 173.856 317.971C173.856 316.341 172.535 315.02 170.905 315.02C169.275 315.02 167.953 316.341 167.953 317.971C167.953 319.601 169.275 320.923 170.905 320.923Z" fill="url(#paint23_linear_4550_9990)"/>
<path d="M173.856 317.971C173.856 316.341 172.535 315.02 170.905 315.02C169.275 315.02 167.953 316.341 167.953 317.971C167.953 318.324 168.015 318.663 168.129 318.976H173.68C173.794 318.663 173.856 318.324 173.856 317.971Z" fill="url(#paint24_linear_4550_9990)"/>
<path d="M172.992 315.884C171.839 314.731 169.97 314.731 168.818 315.884C167.665 317.037 167.665 318.906 168.818 320.058C169.067 320.308 169.351 320.503 169.653 320.645L173.578 316.719C173.437 316.417 173.241 316.134 172.992 315.884Z" fill="url(#paint25_linear_4550_9990)"/>
<path d="M181.818 335.15V341.026C181.818 341.648 181.066 341.959 180.626 341.52L175.934 336.827C175.67 336.563 175.566 336.179 175.658 335.818C175.853 335.053 176.017 334.276 176.151 333.489C176.433 331.824 176.576 330.116 176.576 328.398V327.774C176.576 327.541 176.859 327.424 177.024 327.589L179.861 330.427C181.114 331.679 181.818 333.378 181.818 335.15Z" fill="url(#paint26_linear_4550_9990)"/>
<path d="M181.818 335.15V341.026C181.818 341.648 181.066 341.959 180.626 341.52L175.934 336.827C175.67 336.563 175.566 336.179 175.658 335.818C175.853 335.053 176.017 334.276 176.151 333.489C176.433 331.824 176.576 330.116 176.576 328.398V327.774C176.576 327.541 176.859 327.424 177.024 327.589L179.861 330.427C181.114 331.679 181.818 333.378 181.818 335.15Z" fill="url(#paint27_linear_4550_9990)"/>
<path d="M176.151 333.488C176.017 334.275 175.853 335.052 175.658 335.816C175.566 336.178 175.67 336.562 175.934 336.826L180.626 341.519C181.066 341.958 181.818 341.647 181.818 341.025V335.149C181.818 333.885 181.458 332.66 180.798 331.605H176.408C176.342 332.238 176.256 332.866 176.151 333.488Z" fill="url(#paint28_linear_4550_9990)"/>
<path d="M160 335.15V341.026C160 341.648 160.752 341.959 161.192 341.52L165.884 336.827C166.148 336.563 166.252 336.179 166.16 335.818C165.965 335.053 165.801 334.276 165.667 333.489C165.385 331.824 165.242 330.116 165.242 328.398V327.774C165.242 327.541 164.959 327.424 164.794 327.589L161.957 330.427C160.704 331.679 160 333.378 160 335.15Z" fill="url(#paint29_linear_4550_9990)"/>
<path d="M160 335.15V341.026C160 341.648 160.752 341.959 161.192 341.52L165.884 336.827C166.148 336.563 166.252 336.179 166.16 335.818C165.965 335.053 165.801 334.276 165.667 333.489C165.385 331.824 165.242 330.116 165.242 328.398V327.774C165.242 327.541 164.959 327.424 164.794 327.589L161.957 330.427C160.704 331.679 160 333.378 160 335.15Z" fill="url(#paint30_linear_4550_9990)"/>
<path d="M160 335.15V341.026C160 341.647 160.752 341.959 161.192 341.52L165.884 336.827C166.148 336.563 166.252 336.179 166.16 335.817C165.965 335.053 165.801 334.276 165.667 333.489C165.584 333 165.515 332.506 165.456 332.01H160.784C160.274 332.968 160 334.045 160 335.15Z" fill="url(#paint31_linear_4550_9990)"/>
<g filter="url(#filter3_d_4550_9990)">
<circle cx="1719.5" cy="343.5" r="42.5" fill="white"/>
</g>
<path d="M1736.23 333.253C1735.55 330.196 1732.59 327.396 1729.52 326.801C1727.65 326.428 1722.44 325.966 1719 326.002C1715.55 325.964 1710.34 326.424 1708.48 326.799C1705.41 327.396 1702.45 330.196 1701.77 333.253C1701.38 335.109 1701.01 337.635 1701 341.082C1701.01 344.527 1701.38 347.053 1701.77 348.91C1702.45 351.967 1705.41 354.767 1708.48 355.362C1709.49 355.563 1711.47 355.791 1713.62 355.951C1713.87 356.334 1714.13 356.742 1714.42 357.175C1715.56 358.906 1716.43 360.112 1717.1 360.952C1718.2 362.349 1719.8 362.349 1720.91 360.952C1721.57 360.112 1722.44 358.906 1723.59 357.175C1723.87 356.743 1724.14 356.335 1724.38 355.951C1726.53 355.791 1728.52 355.563 1729.53 355.362C1732.59 354.767 1735.55 351.967 1736.23 348.91C1736.62 347.053 1737 344.528 1737 341.082C1736.99 337.634 1736.61 335.11 1736.23 333.253ZM1723.99 348.26H1714C1713.47 348.26 1712.97 348.05 1712.59 347.676C1712.22 347.302 1712.01 346.795 1712.01 346.266C1712.01 345.738 1712.22 345.23 1712.59 344.857C1712.97 344.483 1713.47 344.272 1714 344.272H1724C1724.53 344.272 1725.03 344.483 1725.41 344.857C1725.78 345.23 1725.99 345.738 1725.99 346.266C1725.99 346.795 1725.78 347.302 1725.41 347.676C1725.03 348.05 1724.53 348.26 1724 348.26H1723.99ZM1727.51 339.933H1710.49C1709.96 339.933 1709.45 339.723 1709.08 339.349C1708.7 338.975 1708.49 338.468 1708.49 337.939C1708.49 337.41 1708.7 336.903 1709.08 336.529C1709.45 336.155 1709.96 335.945 1710.49 335.945H1727.51C1728.04 335.945 1728.55 336.155 1728.92 336.529C1729.3 336.903 1729.51 337.41 1729.51 337.939C1729.51 338.468 1729.3 338.975 1728.92 339.349C1728.55 339.723 1728.04 339.933 1727.51 339.933H1727.51Z" fill="url(#paint32_linear_4550_9990)"/>
<defs>
<filter id="filter0_f_4550_9990" x="1268" y="-650" width="1300" height="1300" filterUnits="userSpaceOnUse" color-interpolation-filters="sRGB">
<feFlood flood-opacity="0" result="BackgroundImageFix"/>
<feBlend mode="normal" in="SourceGraphic" in2="BackgroundImageFix" result="shape"/>
<feGaussianBlur stdDeviation="200" result="effect1_foregroundBlur_4550_9990"/>
</filter>
<filter id="filter1_f_4550_9990" x="-652" y="-650" width="1300" height="1300" filterUnits="userSpaceOnUse" color-interpolation-filters="sRGB">
<feFlood flood-opacity="0" result="BackgroundImageFix"/>
<feBlend mode="normal" in="SourceGraphic" in2="BackgroundImageFix" result="shape"/>
<feGaussianBlur stdDeviation="200" result="effect1_foregroundBlur_4550_9990"/>
</filter>
<filter id="filter2_d_4550_9990" x="81" y="228" width="200" height="200" filterUnits="userSpaceOnUse" color-interpolation-filters="sRGB">
<feFlood flood-opacity="0" result="BackgroundImageFix"/>
<feColorMatrix in="SourceAlpha" type="matrix" values="0 0 0 0 0 0 0 0 0 0 0 0 0 0 0 0 0 0 127 0" result="hardAlpha"/>
<feOffset dx="10" dy="4"/>
<feGaussianBlur stdDeviation="30"/>
<feComposite in2="hardAlpha" operator="out"/>
<feColorMatrix type="matrix" values="0 0 0 0 0.725962 0 0 0 0 0.725962 0 0 0 0 0.725962 0 0 0 0.25 0"/>
<feBlend mode="normal" in2="BackgroundImageFix" result="effect1_dropShadow_4550_9990"/>
<feBlend mode="normal" in="SourceGraphic" in2="effect1_dropShadow_4550_9990" result="shape"/>
</filter>
<filter id="filter3_d_4550_9990" x="1627" y="245" width="205" height="205" filterUnits="userSpaceOnUse" color-interpolation-filters="sRGB">
<feFlood flood-opacity="0" result="BackgroundImageFix"/>
<feColorMatrix in="SourceAlpha" type="matrix" values="0 0 0 0 0 0 0 0 0 0 0 0 0 0 0 0 0 0 127 0" result="hardAlpha"/>
<feOffset dx="10" dy="4"/>
<feGaussianBlur stdDeviation="30"/>
<feComposite in2="hardAlpha" operator="out"/>
<feColorMatrix type="matrix" values="0 0 0 0 0.725962 0 0 0 0 0.725962 0 0 0 0 0.725962 0 0 0 0.25 0"/>
<feBlend mode="normal" in2="BackgroundImageFix" result="effect1_dropShadow_4550_9990"/>
<feBlend mode="normal" in="SourceGraphic" in2="effect1_dropShadow_4550_9990" result="shape"/>
</filter>
<linearGradient id="paint0_linear_4550_9990" x1="1918" y1="-250" x2="1918" y2="250" gradientUnits="userSpaceOnUse">
<stop stop-color="#994AFF"/>
<stop offset="0.5" stop-color="#781BFA"/>
<stop offset="1" stop-color="#994AFF"/>
</linearGradient>
<linearGradient id="paint1_linear_4550_9990" x1="-2" y1="-250" x2="-2" y2="250" gradientUnits="userSpaceOnUse">
<stop stop-color="#994AFF"/>
<stop offset="0.5" stop-color="#781BFA"/>
<stop offset="1" stop-color="#994AFF"/>
</linearGradient>
<linearGradient id="paint2_linear_4550_9990" x1="166.914" y1="327.178" x2="174.156" y2="327.178" gradientUnits="userSpaceOnUse">
<stop stop-color="#F5FBFF"/>
<stop offset="1" stop-color="#DBD5EF"/>
</linearGradient>
<linearGradient id="paint3_linear_4550_9990" x1="171.059" y1="327.18" x2="178.555" y2="327.18" gradientUnits="userSpaceOnUse">
<stop stop-color="#DBD5EF" stop-opacity="0"/>
<stop offset="0.2853" stop-color="#D9D2EE" stop-opacity="0.285"/>
<stop offset="0.4739" stop-color="#D4C9E9" stop-opacity="0.474"/>
<stop offset="0.6346" stop-color="#CBBAE2" stop-opacity="0.635"/>
<stop offset="0.7795" stop-color="#BFA5D7" stop-opacity="0.78"/>
<stop offset="0.9126" stop-color="#AF8ACA" stop-opacity="0.913"/>
<stop offset="1" stop-color="#A274BF"/>
</linearGradient>
<linearGradient id="paint4_linear_4550_9990" x1="178.216" y1="326.999" x2="172.211" y2="318.92" gradientUnits="userSpaceOnUse">
<stop stop-color="#DBD5EF" stop-opacity="0"/>
<stop offset="0.2853" stop-color="#D9D2EE" stop-opacity="0.285"/>
<stop offset="0.4739" stop-color="#D4C9E9" stop-opacity="0.474"/>
<stop offset="0.6346" stop-color="#CBBAE2" stop-opacity="0.635"/>
<stop offset="0.7795" stop-color="#BFA5D7" stop-opacity="0.78"/>
<stop offset="0.9126" stop-color="#AF8ACA" stop-opacity="0.913"/>
<stop offset="1" stop-color="#A274BF"/>
</linearGradient>
<linearGradient id="paint5_linear_4550_9990" x1="170.908" y1="332.919" x2="170.908" y2="338.663" gradientUnits="userSpaceOnUse">
<stop stop-color="#DBD5EF" stop-opacity="0"/>
<stop offset="0.2853" stop-color="#D9D2EE" stop-opacity="0.285"/>
<stop offset="0.4739" stop-color="#D4C9E9" stop-opacity="0.474"/>
<stop offset="0.6346" stop-color="#CBBAE2" stop-opacity="0.635"/>
<stop offset="0.7795" stop-color="#BFA5D7" stop-opacity="0.78"/>
<stop offset="0.9126" stop-color="#AF8ACA" stop-opacity="0.913"/>
<stop offset="1" stop-color="#A274BF"/>
</linearGradient>
<linearGradient id="paint6_linear_4550_9990" x1="168.551" y1="332.966" x2="165.094" y2="332.966" gradientUnits="userSpaceOnUse">
<stop stop-color="#DBD5EF" stop-opacity="0"/>
<stop offset="0.2853" stop-color="#D9D2EE" stop-opacity="0.285"/>
<stop offset="0.4739" stop-color="#D4C9E9" stop-opacity="0.474"/>
<stop offset="0.6346" stop-color="#CBBAE2" stop-opacity="0.635"/>
<stop offset="0.7795" stop-color="#BFA5D7" stop-opacity="0.78"/>
<stop offset="0.9126" stop-color="#AF8ACA" stop-opacity="0.913"/>
<stop offset="1" stop-color="#A274BF"/>
</linearGradient>
<linearGradient id="paint7_linear_4550_9990" x1="170.908" y1="338.241" x2="170.908" y2="339.267" gradientUnits="userSpaceOnUse">
<stop stop-color="#FEF0AE"/>
<stop offset="1" stop-color="#FAC600"/>
</linearGradient>
<linearGradient id="paint8_linear_4550_9990" x1="166.641" y1="341.04" x2="165.588" y2="341.04" gradientUnits="userSpaceOnUse">
<stop stop-color="#FEF0AE"/>
<stop offset="1" stop-color="#FAC600"/>
</linearGradient>
<linearGradient id="paint9_linear_4550_9990" x1="168.555" y1="341.04" x2="167.502" y2="341.04" gradientUnits="userSpaceOnUse">
<stop stop-color="#FEF0AE"/>
<stop offset="1" stop-color="#FAC600"/>
</linearGradient>
<linearGradient id="paint10_linear_4550_9990" x1="170.469" y1="341.04" x2="169.416" y2="341.04" gradientUnits="userSpaceOnUse">
<stop stop-color="#FEF0AE"/>
<stop offset="1" stop-color="#FAC600"/>
</linearGradient>
<linearGradient id="paint11_linear_4550_9990" x1="172.383" y1="341.04" x2="171.33" y2="341.04" gradientUnits="userSpaceOnUse">
<stop stop-color="#FEF0AE"/>
<stop offset="1" stop-color="#FAC600"/>
</linearGradient>
<linearGradient id="paint12_linear_4550_9990" x1="174.297" y1="341.04" x2="173.244" y2="341.04" gradientUnits="userSpaceOnUse">
<stop stop-color="#FEF0AE"/>
<stop offset="1" stop-color="#FAC600"/>
</linearGradient>
<linearGradient id="paint13_linear_4550_9990" x1="176.211" y1="341.04" x2="175.158" y2="341.04" gradientUnits="userSpaceOnUse">
<stop stop-color="#FEF0AE"/>
<stop offset="1" stop-color="#FAC600"/>
</linearGradient>
<linearGradient id="paint14_linear_4550_9990" x1="170.908" y1="340.699" x2="170.908" y2="341.991" gradientUnits="userSpaceOnUse">
<stop stop-color="#FE9738" stop-opacity="0"/>
<stop offset="1" stop-color="#FE9738"/>
</linearGradient>
<linearGradient id="paint15_linear_4550_9990" x1="173.375" y1="339.986" x2="177.426" y2="339.986" gradientUnits="userSpaceOnUse">
<stop stop-color="#FE9738" stop-opacity="0"/>
<stop offset="1" stop-color="#FE9738"/>
</linearGradient>
<linearGradient id="paint16_linear_4550_9990" x1="167.129" y1="311.755" x2="174.665" y2="311.755" gradientUnits="userSpaceOnUse">
<stop stop-color="#FFA1AE"/>
<stop offset="1" stop-color="#FF4565"/>
</linearGradient>
<linearGradient id="paint17_linear_4550_9990" x1="170.257" y1="312.736" x2="176.425" y2="311.371" gradientUnits="userSpaceOnUse">
<stop stop-color="#FE0364" stop-opacity="0"/>
<stop offset="0.2343" stop-color="#F90362" stop-opacity="0.234"/>
<stop offset="0.5173" stop-color="#EA035B" stop-opacity="0.517"/>
<stop offset="0.8243" stop-color="#D20250" stop-opacity="0.824"/>
<stop offset="1" stop-color="#C00148"/>
</linearGradient>
<linearGradient id="paint18_linear_4550_9990" x1="179.072" y1="316.958" x2="174.295" y2="316.03" gradientUnits="userSpaceOnUse">
<stop stop-color="#FE0364" stop-opacity="0"/>
<stop offset="0.2343" stop-color="#F90362" stop-opacity="0.234"/>
<stop offset="0.5173" stop-color="#EA035B" stop-opacity="0.517"/>
<stop offset="0.8243" stop-color="#D20250" stop-opacity="0.824"/>
<stop offset="1" stop-color="#C00148"/>
</linearGradient>
<linearGradient id="paint19_linear_4550_9990" x1="168.26" y1="315.322" x2="173.039" y2="320.102" gradientUnits="userSpaceOnUse">
<stop stop-color="#B3DAFE"/>
<stop offset="1" stop-color="#0182FC"/>
</linearGradient>
<linearGradient id="paint20_linear_4550_9990" x1="173.357" y1="320.416" x2="168.098" y2="315.156" gradientUnits="userSpaceOnUse">
<stop stop-color="#B3DAFE"/>
<stop offset="1" stop-color="#0182FC"/>
</linearGradient>
<linearGradient id="paint21_linear_4550_9990" x1="170.909" y1="318.026" x2="170.909" y2="323.121" gradientUnits="userSpaceOnUse">
<stop stop-color="#314DC9" stop-opacity="0"/>
<stop offset="0.2761" stop-color="#304BC4" stop-opacity="0.276"/>
<stop offset="0.5628" stop-color="#2B45B8" stop-opacity="0.563"/>
<stop offset="0.8535" stop-color="#243BA3" stop-opacity="0.854"/>
<stop offset="1" stop-color="#1F3596"/>
</linearGradient>
<linearGradient id="paint22_linear_4550_9990" x1="170.974" y1="317.99" x2="174.766" y2="321.781" gradientUnits="userSpaceOnUse">
<stop stop-color="#314DC9" stop-opacity="0"/>
<stop offset="0.2761" stop-color="#304BC4" stop-opacity="0.276"/>
<stop offset="0.5628" stop-color="#2B45B8" stop-opacity="0.563"/>
<stop offset="0.8535" stop-color="#243BA3" stop-opacity="0.854"/>
<stop offset="1" stop-color="#1F3596"/>
</linearGradient>
<linearGradient id="paint23_linear_4550_9990" x1="172.71" y1="319.777" x2="169.453" y2="316.52" gradientUnits="userSpaceOnUse">
<stop stop-color="#5A5A5A"/>
<stop offset="1" stop-color="#444444"/>
</linearGradient>
<linearGradient id="paint24_linear_4550_9990" x1="170.567" y1="316.983" x2="169.855" y2="314.899" gradientUnits="userSpaceOnUse">
<stop stop-color="#433F43" stop-opacity="0"/>
<stop offset="1" stop-color="#1A1A1A"/>
</linearGradient>
<linearGradient id="paint25_linear_4550_9990" x1="169.455" y1="317.275" x2="168.136" y2="316.642" gradientUnits="userSpaceOnUse">
<stop stop-color="#433F43" stop-opacity="0"/>
<stop offset="1" stop-color="#1A1A1A"/>
</linearGradient>
<linearGradient id="paint26_linear_4550_9990" x1="175.96" y1="332.121" x2="181.965" y2="337.225" gradientUnits="userSpaceOnUse">
<stop stop-color="#FFA1AE"/>
<stop offset="1" stop-color="#FF4565"/>
</linearGradient>
<linearGradient id="paint27_linear_4550_9990" x1="178.836" y1="334.619" x2="181.758" y2="334.619" gradientUnits="userSpaceOnUse">
<stop stop-color="#FE0364" stop-opacity="0"/>
<stop offset="0.2343" stop-color="#F90362" stop-opacity="0.234"/>
<stop offset="0.5173" stop-color="#EA035B" stop-opacity="0.517"/>
<stop offset="0.8243" stop-color="#D20250" stop-opacity="0.824"/>
<stop offset="1" stop-color="#C00148"/>
</linearGradient>
<linearGradient id="paint28_linear_4550_9990" x1="178.556" y1="337.067" x2="177.173" y2="338.595" gradientUnits="userSpaceOnUse">
<stop stop-color="#FE0364" stop-opacity="0"/>
<stop offset="0.2343" stop-color="#F90362" stop-opacity="0.234"/>
<stop offset="0.5173" stop-color="#EA035B" stop-opacity="0.517"/>
<stop offset="0.8243" stop-color="#D20250" stop-opacity="0.824"/>
<stop offset="1" stop-color="#C00148"/>
</linearGradient>
<linearGradient id="paint29_linear_4550_9990" x1="160.811" y1="333.176" x2="165.943" y2="336.961" gradientUnits="userSpaceOnUse">
<stop stop-color="#FFA1AE"/>
<stop offset="1" stop-color="#FF4565"/>
</linearGradient>
<linearGradient id="paint30_linear_4550_9990" x1="163.758" y1="334.461" x2="166.451" y2="333.988" gradientUnits="userSpaceOnUse">
<stop stop-color="#FE0364" stop-opacity="0"/>
<stop offset="0.2343" stop-color="#F90362" stop-opacity="0.234"/>
<stop offset="0.5173" stop-color="#EA035B" stop-opacity="0.517"/>
<stop offset="0.8243" stop-color="#D20250" stop-opacity="0.824"/>
<stop offset="1" stop-color="#C00148"/>
</linearGradient>
<linearGradient id="paint31_linear_4550_9990" x1="163.003" y1="336.924" x2="164.313" y2="338.125" gradientUnits="userSpaceOnUse">
<stop stop-color="#FE0364" stop-opacity="0"/>
<stop offset="0.2343" stop-color="#F90362" stop-opacity="0.234"/>
<stop offset="0.5173" stop-color="#EA035B" stop-opacity="0.517"/>
<stop offset="0.8243" stop-color="#D20250" stop-opacity="0.824"/>
<stop offset="1" stop-color="#C00148"/>
</linearGradient>
<linearGradient id="paint32_linear_4550_9990" x1="1701" y1="344.001" x2="1737" y2="344.001" gradientUnits="userSpaceOnUse">
<stop stop-color="#0080DE"/>
<stop offset="0.6" stop-color="#49BCFF"/>
<stop offset="1" stop-color="#61CAFF"/>
</linearGradient>
</defs>
</svg>
