<svg width="595" height="724" viewBox="0 0 595 724" fill="none" xmlns="http://www.w3.org/2000/svg">
<circle cx="325" cy="325" r="324.5" stroke="white" stroke-opacity="0.1"/>
<circle cx="325" cy="325" r="214.5" stroke="white" stroke-opacity="0.1"/>
<g filter="url(#filter0_d_4604_54157)">
<circle cx="439" cy="625" r="35" fill="url(#paint0_linear_4604_54157)"/>
</g>
<path d="M453.357 616.044C452.792 613.497 450.323 611.163 447.768 610.667C446.212 610.356 441.87 609.972 438.999 610.002C436.128 609.97 431.786 610.353 430.23 610.666C427.675 611.163 425.206 613.497 424.644 616.044C424.32 617.591 424.005 619.696 424 622.568C424.005 625.439 424.32 627.544 424.644 629.092C425.209 631.639 427.678 633.973 430.233 634.469C431.073 634.636 432.725 634.826 434.52 634.959C434.723 635.279 434.943 635.618 435.181 635.979C436.134 637.421 436.862 638.426 437.414 639.126C438.333 640.291 439.671 640.291 440.589 639.126C441.141 638.426 441.869 637.421 442.822 635.979C443.06 635.619 443.28 635.279 443.484 634.959C445.278 634.826 446.931 634.636 447.771 634.469C450.326 633.973 452.795 631.639 453.36 629.092C453.681 627.544 453.996 625.44 454.001 622.568C453.993 619.695 453.678 617.592 453.357 616.044ZM443.162 628.55H434.834C434.394 628.55 433.971 628.375 433.66 628.064C433.348 627.752 433.173 627.329 433.173 626.889C433.173 626.448 433.348 626.025 433.66 625.714C433.971 625.402 434.394 625.227 434.834 625.227H443.164C443.604 625.227 444.027 625.402 444.339 625.714C444.65 626.025 444.825 626.448 444.825 626.889C444.825 627.329 444.65 627.752 444.339 628.064C444.027 628.375 443.604 628.55 443.164 628.55H443.162ZM446.091 621.611H431.905C431.464 621.611 431.042 621.436 430.73 621.124C430.418 620.813 430.243 620.39 430.243 619.949C430.243 619.509 430.418 619.086 430.73 618.774C431.042 618.463 431.464 618.288 431.905 618.288H446.093C446.534 618.288 446.957 618.463 447.268 618.774C447.58 619.086 447.755 619.509 447.755 619.949C447.755 620.39 447.58 620.813 447.268 621.124C446.957 621.436 446.534 621.611 446.093 621.611H446.091Z" fill="white"/>
<g filter="url(#filter1_d_4604_54157)">
<circle cx="510" cy="426" r="35" fill="url(#paint1_linear_4604_54157)"/>
</g>
<path d="M521.944 414.849C519.49 412.012 514.052 411 509.781 411C505.511 411 500.072 412.012 497.618 414.849C494.127 418.886 494.127 429.592 497.618 433.628C498.291 434.37 499.095 434.98 499.991 435.429C500.057 435.469 500.113 435.524 500.155 435.59C500.197 435.655 500.224 435.729 500.233 435.806L500.742 438.852C500.812 439.275 500.987 439.675 501.252 440.013C501.516 440.351 501.861 440.618 502.255 440.788C502.649 440.959 503.079 441.028 503.507 440.99C503.935 440.951 504.346 440.806 504.703 440.567L509.25 437.536C509.324 437.483 509.414 437.457 509.505 437.464C513.917 437.489 519.445 436.52 521.944 433.629C525.435 429.592 525.435 418.886 521.944 414.849Z" fill="white"/>
<path d="M509.786 430.666C509.416 430.666 509.061 430.519 508.8 430.257C508.538 429.996 508.391 429.641 508.391 429.271V418.108C508.391 417.738 508.538 417.383 508.799 417.122C509.061 416.86 509.416 416.713 509.786 416.713C510.156 416.713 510.511 416.86 510.773 417.122C511.034 417.383 511.181 417.738 511.181 418.108V429.271C511.181 429.641 511.034 429.996 510.772 430.257C510.511 430.519 510.156 430.666 509.786 430.666Z" fill="#270C62"/>
<path d="M504.2 427.876C503.83 427.876 503.475 427.729 503.214 427.467C502.952 427.205 502.805 426.851 502.805 426.481V420.899C502.805 420.529 502.952 420.174 503.213 419.913C503.475 419.651 503.83 419.504 504.2 419.504C504.57 419.504 504.925 419.651 505.187 419.913C505.448 420.174 505.595 420.529 505.595 420.899V426.481C505.595 426.851 505.448 427.205 505.186 427.467C504.925 427.729 504.57 427.876 504.2 427.876Z" fill="#270C62"/>
<path d="M515.364 427.876C514.994 427.876 514.639 427.729 514.378 427.467C514.116 427.205 513.969 426.851 513.969 426.481V420.899C513.969 420.529 514.116 420.174 514.377 419.913C514.639 419.651 514.994 419.504 515.364 419.504C515.734 419.504 516.089 419.651 516.351 419.913C516.612 420.174 516.759 420.529 516.759 420.899V426.481C516.759 426.851 516.612 427.205 516.35 427.467C516.089 427.729 515.734 427.876 515.364 427.876Z" fill="#270C62"/>
<defs>
<filter id="filter0_d_4604_54157" x="354" y="534" width="190" height="190" filterUnits="userSpaceOnUse" color-interpolation-filters="sRGB">
<feFlood flood-opacity="0" result="BackgroundImageFix"/>
<feColorMatrix in="SourceAlpha" type="matrix" values="0 0 0 0 0 0 0 0 0 0 0 0 0 0 0 0 0 0 127 0" result="hardAlpha"/>
<feOffset dx="10" dy="4"/>
<feGaussianBlur stdDeviation="30"/>
<feComposite in2="hardAlpha" operator="out"/>
<feColorMatrix type="matrix" values="0 0 0 0 0.725962 0 0 0 0 0.725962 0 0 0 0 0.725962 0 0 0 0.25 0"/>
<feBlend mode="normal" in2="BackgroundImageFix" result="effect1_dropShadow_4604_54157"/>
<feBlend mode="normal" in="SourceGraphic" in2="effect1_dropShadow_4604_54157" result="shape"/>
</filter>
<filter id="filter1_d_4604_54157" x="425" y="335" width="190" height="190" filterUnits="userSpaceOnUse" color-interpolation-filters="sRGB">
<feFlood flood-opacity="0" result="BackgroundImageFix"/>
<feColorMatrix in="SourceAlpha" type="matrix" values="0 0 0 0 0 0 0 0 0 0 0 0 0 0 0 0 0 0 127 0" result="hardAlpha"/>
<feOffset dx="10" dy="4"/>
<feGaussianBlur stdDeviation="30"/>
<feComposite in2="hardAlpha" operator="out"/>
<feColorMatrix type="matrix" values="0 0 0 0 0.725962 0 0 0 0 0.725962 0 0 0 0 0.725962 0 0 0 0.25 0"/>
<feBlend mode="normal" in2="BackgroundImageFix" result="effect1_dropShadow_4604_54157"/>
<feBlend mode="normal" in="SourceGraphic" in2="effect1_dropShadow_4604_54157" result="shape"/>
</filter>
<linearGradient id="paint0_linear_4604_54157" x1="439" y1="590" x2="439" y2="660" gradientUnits="userSpaceOnUse">
<stop stop-color="#4C00E5"/>
<stop offset="1" stop-color="#5A16B8"/>
</linearGradient>
<linearGradient id="paint1_linear_4604_54157" x1="510" y1="391" x2="510" y2="461" gradientUnits="userSpaceOnUse">
<stop stop-color="#4C00E5"/>
<stop offset="1" stop-color="#5A16B8"/>
</linearGradient>
</defs>
</svg>
