<svg xmlns="http://www.w3.org/2000/svg" width="108" height="30" viewBox="0 0 108 30" fill="none"><path d="M12.4754 4.96631V13.425H4.67265V4.96631H0.970703V25.1583H4.67366V16.9741H12.4744V25.1583H16.1784V4.96631H12.4754ZM28.0308 18.6319C28.0308 19.4412 27.708 20.2174 27.1334 20.7897C26.5587 21.362 25.7794 21.6835 24.9667 21.6835C24.1541 21.6835 23.3747 21.362 22.8001 20.7897C22.2255 20.2174 21.9027 19.4412 21.9027 18.6319V9.98262H18.3901V18.6319C18.3901 20.3673 19.0823 22.0317 20.3145 23.2588C21.5466 24.4859 23.2177 25.1753 24.9602 25.1753C26.7027 25.1753 28.3739 24.4859 29.606 23.2588C30.8381 22.0317 31.5303 20.3673 31.5303 18.6319V9.98262H28.0308V18.6319ZM54.0577 10.8739C54.0577 9.10032 55.2352 8.53841 56.525 8.53841C57.5653 8.53841 58.9382 9.32689 59.8371 10.283L62.1371 7.58226C60.9886 6.03524 58.6596 4.96631 56.7525 4.96631C52.9413 4.96631 50.1854 7.18902 50.1854 10.8739C50.1854 17.7107 58.5754 15.5409 58.5754 19.3675C58.5754 20.5472 57.4249 21.5892 56.1081 21.5892C54.0307 21.5892 53.3572 20.5782 52.4032 19.5082L49.8497 22.1521C51.4832 24.1483 53.4975 25.1623 55.9097 25.1623C59.5305 25.1623 62.4427 22.9126 62.4427 19.3954C62.4427 11.8061 54.0517 14.1645 54.0517 10.8739M105.963 21.9325C103.888 21.9325 103.297 21.0383 103.297 19.6689V13.6056H106.524V10.5336H103.297V6.48038L99.7358 8.07231V20.4225C99.7358 23.5814 101.925 25.1733 104.925 25.1733C105.396 25.1813 105.867 25.1433 106.33 25.0615L107.199 21.8756C106.807 21.9026 106.357 21.9295 105.963 21.9295M41.4015 10.0834C39.6618 10.0834 38.4472 10.5865 37.2727 11.7332V5.08708H33.7551V17.4063C33.7551 22.0174 37.1023 25.1773 40.8644 25.1773C45.0373 25.1773 48.7082 21.9615 48.7082 17.6318C48.7082 13.3561 45.33 10.0864 41.4015 10.0864M41.3795 21.6511C40.8552 21.6511 40.3361 21.5482 39.8518 21.3484C39.3674 21.1486 38.9274 20.8558 38.5567 20.4866C38.186 20.1174 37.8919 19.6791 37.6913 19.1967C37.4907 18.7144 37.3874 18.1974 37.3874 17.6753C37.3874 17.1531 37.4907 16.6361 37.6913 16.1538C37.8919 15.6714 38.186 15.2331 38.5567 14.8639C38.9274 14.4947 39.3674 14.2019 39.8518 14.0021C40.3361 13.8023 40.8552 13.6994 41.3795 13.6994C42.4383 13.6994 43.4537 14.1183 44.2023 14.8639C44.951 15.6095 45.3716 16.6208 45.3716 17.6753C45.3716 18.7297 44.951 19.741 44.2023 20.4866C43.4537 21.2322 42.4383 21.6511 41.3795 21.6511ZM79.6036 17.4482C79.6036 13.1106 75.9407 9.90277 71.7597 9.90277C67.9987 9.90277 64.6505 13.0617 64.6505 17.6738V30H68.168V23.3448C69.3405 24.4896 70.5572 24.9946 72.2949 24.9946C76.2233 24.9946 79.6036 21.7249 79.6036 17.4482ZM76.2724 17.4043C76.2724 18.4587 75.8518 19.47 75.1032 20.2156C74.3545 20.9612 73.3391 21.3801 72.2804 21.3801C71.2216 21.3801 70.2062 20.9612 69.4575 20.2156C68.7089 19.47 68.2883 18.4587 68.2883 17.4043C68.2883 16.3498 68.7089 15.3386 69.4575 14.593C70.2062 13.8473 71.2216 13.4285 72.2804 13.4285C73.3391 13.4285 74.3545 13.8473 75.1032 14.593C75.8518 15.3386 76.2724 16.3498 76.2724 17.4043Z" fill="#696969"></path><path d="M90.9699 9.7332V6.213C91.437 5.99559 91.8325 5.65053 92.1103 5.21798C92.3882 4.78543 92.5369 4.28319 92.5393 3.76972V3.68887C92.5393 2.19177 91.3207 0.97811 89.8174 0.97811H89.7363C89.0144 0.97811 88.3221 1.26371 87.8116 1.77207C87.3012 2.28044 87.0144 2.96993 87.0144 3.68887V3.76972C87.0168 4.28319 87.1656 4.78543 87.4434 5.21798C87.7212 5.65053 88.1167 5.99559 88.5838 6.213V9.7332C87.2414 9.93791 85.9771 10.4923 84.9189 11.3401L75.2251 3.82062C75.2943 3.5721 75.3303 3.31659 75.3343 3.06009C75.3355 2.45596 75.1568 1.86505 74.8207 1.36211C74.4847 0.859164 74.0064 0.466779 73.4464 0.234586C72.8864 0.00239329 72.2698 -0.0591757 71.6747 0.0576672C71.0795 0.17451 70.5325 0.464515 70.1029 0.891C69.6733 1.31748 69.3803 1.86129 69.261 2.45363C69.1418 3.04596 69.2016 3.66022 69.4329 4.2187C69.6642 4.77718 70.0566 5.2548 70.5605 5.59113C71.0644 5.92747 71.6571 6.10741 72.2637 6.1082C72.7944 6.10571 73.3152 5.96461 73.774 5.69899L83.3195 13.0967C82.462 14.3869 82.0146 15.9044 82.0357 17.4515C82.0568 18.9986 82.5454 20.5034 83.4377 21.77L80.5345 24.6624C80.2998 24.5876 80.0553 24.5479 79.809 24.5446C79.311 24.545 78.8244 24.6924 78.4106 24.9681C77.9967 25.2439 77.6742 25.6356 77.4839 26.0938C77.2935 26.5521 77.2438 27.0562 77.341 27.5426C77.4383 28.0289 77.6781 28.4756 78.0302 28.8263C78.3823 29.1769 78.8308 29.4158 79.3191 29.5126C79.8075 29.6095 80.3137 29.56 80.7738 29.3704C81.2339 29.1808 81.6272 28.8596 81.9041 28.4474C82.181 28.0353 82.329 27.5506 82.3294 27.0547C82.3261 26.8094 82.2863 26.5658 82.2111 26.3321L85.0833 23.4707C86.0199 24.1888 87.1091 24.6839 88.2675 24.918C89.4259 25.1521 90.6227 25.119 91.7663 24.8213C92.9099 24.5236 93.9698 23.9692 94.865 23.2005C95.7602 22.4318 96.4669 21.4692 96.9308 20.3865C97.3948 19.3038 97.6037 18.1296 97.5417 16.9541C97.4796 15.7785 97.1482 14.6327 96.5729 13.6044C95.9975 12.5761 95.1934 11.6926 94.2222 11.0216C93.2511 10.3506 92.1385 9.90985 90.9699 9.7332ZM89.7794 21.3108C89.2486 21.3254 88.7202 21.2338 88.2255 21.0416C87.7308 20.8493 87.2799 20.5602 86.8993 20.1915C86.5187 19.8227 86.2161 19.3817 86.0096 18.8945C85.803 18.4073 85.6965 17.8838 85.6965 17.355C85.6965 16.8261 85.803 16.3026 86.0096 15.8155C86.2161 15.3283 86.5187 14.8873 86.8993 14.5185C87.2799 14.1497 87.7308 13.8607 88.2255 13.6684C88.7202 13.4761 89.2486 13.3846 89.7794 13.3991C90.8082 13.435 91.7828 13.8671 92.4981 14.6045C93.2133 15.3418 93.6133 16.3268 93.6138 17.3521C93.6144 18.3773 93.2153 19.3627 92.5008 20.1008C91.7863 20.8388 90.8121 21.2719 89.7834 21.3088" fill="#696969"></path></svg>