<svg xmlns="http://www.w3.org/2000/svg" width="160" height="30" viewBox="0 0 160 30" fill="none"><path fill-rule="evenodd" clip-rule="evenodd" d="M109.646 22.9975C108.634 22.9975 107.658 22.6356 106.935 21.9119C106.212 21.1881 105.742 20.1025 105.742 18.6187C105.742 17.135 106.212 16.0494 106.935 15.3256C107.658 14.6019 108.634 14.24 109.646 14.24C110.658 14.24 111.634 14.6019 112.357 15.3256C113.08 16.0494 113.55 17.135 113.55 18.6187C113.55 20.1025 113.08 21.1881 112.357 21.9119C111.634 22.6356 110.658 22.9975 109.646 22.9975ZM109.646 9.46313C104.44 9.46313 100.5 13.2991 100.5 18.6187C100.5 23.9022 104.44 27.7744 109.646 27.7744C114.851 27.7744 118.792 23.9022 118.792 18.6187C118.792 13.2991 114.851 9.46313 109.646 9.46313Z" fill="#696969"></path><path fill-rule="evenodd" clip-rule="evenodd" d="M66.3763 22.9975C65.3641 22.9975 64.3881 22.6356 63.6651 21.9119C62.9421 21.1881 62.4722 20.1025 62.4722 18.6187C62.4722 17.135 62.9421 16.0494 63.6651 15.3256C64.3881 14.6019 65.3641 14.24 66.3763 14.24C67.3885 14.24 68.3645 14.6019 69.0875 15.3256C69.8105 16.0494 70.2805 17.135 70.2805 18.6187C70.2805 20.1025 69.8105 21.1881 69.0875 21.9119C68.4007 22.6356 67.4247 22.9975 66.3763 22.9975ZM66.3763 9.46313C61.1708 9.46313 57.2305 13.2991 57.2305 18.6187C57.2305 23.9022 61.1708 27.7744 66.3763 27.7744C71.5819 27.7744 75.5222 23.9022 75.5222 18.6187C75.5222 13.2991 71.5819 9.46313 66.3763 9.46313Z" fill="#696969"></path><path fill-rule="evenodd" clip-rule="evenodd" d="M133.001 27.7744H138.207V17.3884C138.207 16.5199 138.46 15.7961 138.93 15.2533C139.399 14.7467 140.086 14.3848 140.99 14.3848C141.93 14.3848 142.581 14.7105 142.978 15.1809C143.376 15.6514 143.593 16.3752 143.593 17.2437V27.7382H148.762V17.3884C148.762 16.5561 149.015 15.7961 149.485 15.2895C149.955 14.7467 150.642 14.421 151.51 14.421C152.449 14.421 153.1 14.7467 153.498 15.2171C153.895 15.6876 154.112 16.4113 154.112 17.2799V27.7744H159.173V16.339C159.173 14.0229 158.414 12.3221 157.185 11.2002C155.992 10.1146 154.402 9.60797 152.775 9.60797C151.618 9.60797 150.57 9.78891 149.63 10.2594C148.835 10.6574 148.112 11.2726 147.497 12.0688C146.485 10.4403 144.677 9.57178 142.508 9.57178C140.918 9.57178 139.11 10.187 137.953 11.4174V10.0422H132.965V27.7744H133.001Z" fill="#696969"></path><path fill-rule="evenodd" clip-rule="evenodd" d="M131.048 10.0422V15.3256L130.65 15.2533C130.18 15.1447 129.747 15.1085 129.349 15.1085C128.264 15.1085 127.288 15.3618 126.565 16.0494C125.879 16.7008 125.373 17.7864 125.373 19.5235V27.7382H120.203V10.0783H125.228V11.743C126.457 10.2593 128.409 9.93359 129.638 9.93359C130.036 9.93359 130.397 9.96978 130.723 10.006L131.048 10.0422Z" fill="#696969"></path><path fill-rule="evenodd" clip-rule="evenodd" d="M37.8906 19.0531H42.9154L42.9877 19.1255C43.0239 19.1617 43.06 19.2341 43.06 19.2703C43.1685 20.3559 43.6023 21.1882 44.253 21.7673C44.9036 22.3101 45.7351 22.5634 46.6027 22.5634C47.651 22.5634 48.5186 22.1653 49.1331 21.4777C49.7115 20.7902 50.0369 19.8493 50.0369 18.7998V4.10742H55.4955V18.9446C55.4955 23.6852 51.8444 27.6659 46.6388 27.6659C44.0361 27.6659 41.8671 26.7974 40.3488 25.3137C38.8667 23.8662 37.9629 21.7673 37.9268 19.2341L37.8906 19.0531Z" fill="#696969"></path><path fill-rule="evenodd" clip-rule="evenodd" d="M99.7434 6.53203L100.033 6.60441V2.62371L99.8881 2.55133C99.6712 2.44277 99.3458 2.37039 98.9843 2.29802C98.5867 2.22564 98.1529 2.18945 97.6829 2.18945C95.9116 2.18945 93.8872 2.76846 92.8389 3.85411C91.7905 4.90357 91.2121 6.42347 91.2121 8.23288V9.06521H88.6094V13.5887H91.2121V27.7383H96.4538V13.6249H99.9965V9.1014H96.4538V8.34144C96.4538 7.50912 96.743 7.03867 97.1045 6.78535C97.466 6.49585 97.9721 6.38728 98.4421 6.38728C99.1651 6.38728 99.5627 6.49585 99.7434 6.53203Z" fill="#696969"></path><path fill-rule="evenodd" clip-rule="evenodd" d="M86.7998 23.4318L87.0528 23.3594V27.3763L86.9443 27.4487C86.7636 27.5573 86.4383 27.6296 86.0768 27.702C85.7153 27.7744 85.2815 27.8106 84.8838 27.8106C83.2209 27.8106 81.3412 27.2316 80.3651 26.1459C79.3891 25.0603 78.8468 23.5404 78.8468 21.731V13.6972H76.3887V9.13748H78.8468V4.25208H83.7632V9.17367H87.089V13.7334H83.7632V21.6586C83.7632 22.4909 84.0162 22.9614 84.3777 23.2147C84.7392 23.5042 85.2092 23.6128 85.6068 23.6128C86.2575 23.5766 86.619 23.468 86.7998 23.4318Z" fill="#696969"></path><path d="M8.75362 28.4258C9.33202 29.0048 8.93437 29.9818 8.10293 29.9818H2.82509C1.77675 29.9818 0.945312 29.1857 0.945312 28.1724V23.1061C0.945312 22.31 1.9575 21.9119 2.53589 22.4547L8.75362 28.4258Z" fill="#696969"></path><path d="M16.9588 28.86C15.4044 27.3401 15.4044 24.8431 16.9588 23.3232L22.562 17.7864C24.1164 16.2665 26.6469 16.2665 28.2013 17.7864C29.7557 19.3063 29.7557 21.8033 28.2013 23.3232L22.5981 28.86C21.0437 30.3799 18.5132 30.3799 16.9588 28.86Z" fill="#696969"></path><path d="M2.13848 14.9638C0.584048 13.4439 0.584048 10.9469 2.13848 9.42702L10.5613 1.13993C12.1158 -0.379976 14.6462 -0.379976 16.2007 1.13993C17.7551 2.65983 17.7551 5.15682 16.2007 6.67672L7.77782 14.9638C6.22338 16.5199 3.69291 16.5199 2.13848 14.9638Z" fill="#696969"></path><path d="M9.8377 21.6224C8.28327 20.1025 8.28327 17.6055 9.8377 16.0856L22.6347 3.4921C24.1891 1.9722 26.7196 1.9722 28.274 3.4921C29.8284 5.012 29.8284 7.50899 28.274 9.02889L15.477 21.6224C13.9226 23.1423 11.4283 23.1423 9.8377 21.6224Z" fill="#696969"></path></svg>