<svg xmlns="http://www.w3.org/2000/svg" width="91" height="30" viewBox="0 0 91 30" fill="none"><path d="M33.8755 29.5995C33.9203 29.689 33.8551 29.7944 33.755 29.7944H15.9752C7.65143 29.7944 0.96875 23.1874 0.96875 14.8972C0.96875 6.60699 7.65143 0 15.9752 0C24.2978 0 30.9805 6.60699 30.9805 14.8972C30.9805 16.946 30.5723 18.8918 29.8327 20.6604C29.7954 20.7494 29.7077 20.8069 29.6113 20.8069H22.8249C22.705 20.8069 22.6371 20.6683 22.712 20.5745C23.9384 19.0392 24.6661 17.0658 24.6661 14.8972C24.6661 9.93183 20.8532 5.99095 15.975 5.99095C11.0957 5.99095 7.28261 9.93183 7.28261 14.8972C7.28261 19.8626 11.4934 23.8035 16.3726 23.8035H30.7939C30.908 23.8035 31.0124 23.868 31.0635 23.9703L33.8755 29.5995Z" fill="#696969"></path><path d="M36.8773 19.9915H39.6713L41.0546 24.9134C41.1368 25.2242 41.2166 25.5352 41.2943 25.8457C41.3717 26.1565 41.4382 26.4401 41.4929 26.6957C41.5566 26.9975 41.6162 27.2853 41.6709 27.5595H41.6984C41.7532 27.2853 41.8126 26.9975 41.8765 26.6957C41.9314 26.4401 41.9929 26.1566 42.0613 25.8457C42.1299 25.5352 42.2096 25.2244 42.3009 24.9134L43.6842 19.9915H46.5194V29.7941H44.6704V24.1731C44.6704 23.972 44.6726 23.7549 44.6773 23.5217C44.6818 23.2887 44.6931 23.0673 44.7115 22.8568C44.7205 22.6194 44.7341 22.3817 44.7525 22.1441H44.7251C44.6794 22.3725 44.6337 22.5965 44.5882 22.8158C44.5424 23.0077 44.4944 23.2087 44.4443 23.419C44.3941 23.6295 44.3462 23.8257 44.3005 24.0085L42.6159 29.7941H40.712L39.0685 24.0085C39.0136 23.8257 38.9633 23.6295 38.9178 23.419C38.8721 23.2087 38.8265 23.0077 38.7808 22.8158C38.7351 22.5965 38.6894 22.3725 38.6438 22.1441H38.6163C38.6253 22.3819 38.639 22.6195 38.6575 22.8568C38.6665 23.0673 38.6757 23.2887 38.6849 23.5217C38.6939 23.755 38.6986 23.972 38.6986 24.1731V29.7941H36.877V19.9915H36.8773Z" fill="#696969"></path><path d="M50.9031 30C50.3187 30 49.8005 29.9041 49.3485 29.712C48.8965 29.5202 48.5153 29.2573 48.2048 28.9236C47.8943 28.5901 47.6592 28.1948 47.4995 27.7376C47.3395 27.2809 47.2598 26.7917 47.2598 26.2706C47.2598 25.7497 47.3442 25.2631 47.5132 24.8106C47.682 24.358 47.9193 23.9674 48.2255 23.6384C48.5313 23.3092 48.8965 23.0488 49.3211 22.8568C49.7457 22.6647 50.2136 22.5688 50.7249 22.5688C51.291 22.5688 51.7886 22.6715 52.2179 22.8773C52.647 23.0829 53.0075 23.3733 53.2998 23.7481C53.592 24.1229 53.8134 24.5685 53.9642 25.0849C54.1149 25.6014 54.1901 26.1748 54.1901 26.8054H49.095C49.1679 27.3539 49.3528 27.7834 49.6498 28.0942C49.9464 28.405 50.3597 28.5603 50.8893 28.5603C51.2543 28.5603 51.5466 28.4829 51.7659 28.3274C51.9849 28.1721 52.1446 27.962 52.2452 27.6967H54.0807C54.0166 28.0076 53.9001 28.3023 53.7313 28.5811C53.5623 28.86 53.343 29.1045 53.0739 29.3146C52.8045 29.5248 52.4871 29.6917 52.1221 29.8149C51.7567 29.9382 51.3504 30 50.9031 30ZM50.7523 24.0087C50.2593 24.0087 49.8847 24.1436 49.6293 24.4132C49.3735 24.6827 49.2047 25.0506 49.1226 25.5168H52.2454C52.218 25.0692 52.0695 24.7058 51.8003 24.4269C51.5308 24.1481 51.1816 24.0087 50.7523 24.0087Z" fill="#696969"></path><path d="M54.2305 22.7609H55.2028V20.5674H57.0244V22.7609H58.2297V23.9947H57.0244V27.7237C57.0244 27.989 57.0881 28.1718 57.2161 28.2722C57.3439 28.3729 57.5128 28.423 57.7228 28.423H58.0789C58.1426 28.423 58.2067 28.4185 58.2706 28.4091V29.7803C58.1791 29.7895 58.0789 29.794 57.9692 29.794C57.8686 29.803 57.7453 29.8077 57.5995 29.8077C57.4534 29.8077 57.289 29.8077 57.1065 29.8077C56.8781 29.8077 56.6522 29.7826 56.4286 29.7324C56.2047 29.6821 56.0017 29.5931 55.8192 29.4648C55.6365 29.3369 55.4881 29.1632 55.374 28.9439C55.2597 28.7246 55.2028 28.4504 55.2028 28.1212V23.9946H54.2305V22.7609Z" fill="#696969"></path><path d="M60.7083 23.8852H60.7493C60.9592 23.4832 61.1966 23.1814 61.4616 22.9803C61.7262 22.7794 62.0642 22.6787 62.475 22.6787C62.6667 22.6787 62.8127 22.6969 62.9133 22.7335V24.3648H62.8723C62.2604 24.301 61.7581 24.4335 61.3657 24.7625C60.9729 25.0917 60.7767 25.6263 60.7767 26.3666V29.7942H58.9141V22.7609H60.7083V23.8852Z" fill="#696969"></path><path d="M63.4473 19.9915H65.3099V21.6641H63.4473V19.9915ZM63.4473 22.7608H65.3099V29.7941H63.4473V22.7608Z" fill="#696969"></path><path d="M69.5025 30C68.9454 30 68.4456 29.9041 68.0028 29.712C67.5598 29.5202 67.1833 29.2573 66.8729 28.9236C66.5624 28.5901 66.3227 28.1969 66.1538 27.7445C65.9848 27.2921 65.9004 26.8054 65.9004 26.2843C65.9004 25.7634 65.9826 25.2768 66.147 24.8243C66.3113 24.3717 66.5462 23.9789 66.8522 23.6452C67.158 23.3117 67.5254 23.0488 67.9549 22.8568C68.384 22.6649 68.8679 22.5688 69.4066 22.5688C69.8631 22.5688 70.274 22.633 70.6393 22.7607C71.0043 22.8888 71.3218 23.0647 71.5911 23.2885C71.8604 23.5126 72.0794 23.7822 72.2485 24.0975C72.4173 24.413 72.5338 24.7623 72.5978 25.1463H70.7761C70.7122 24.8357 70.5683 24.5773 70.3446 24.3715C70.1209 24.1661 69.8355 24.0631 69.4885 24.0631C68.9222 24.0631 68.4976 24.2618 68.2148 24.6595C67.9317 25.0571 67.7902 25.5986 67.7902 26.284C67.7902 26.9513 67.9248 27.4885 68.1943 27.8949C68.4636 28.3016 68.8861 28.505 69.4612 28.505C69.8447 28.505 70.1597 28.4068 70.4062 28.2103C70.6526 28.0137 70.8079 27.7144 70.8718 27.3121H72.6661C72.6387 27.687 72.5449 28.0366 72.3853 28.3609C72.2252 28.6854 72.0107 28.969 71.7416 29.211C71.4721 29.4533 71.1478 29.6454 70.769 29.7868C70.3905 29.929 69.9682 30 69.5025 30Z" fill="#696969"></path><path d="M47.4151 16.9872L45.8153 15.2053C46.6946 14.1615 47.1124 12.7959 47.1124 11.4909C47.1124 8.86566 45.4089 5.99451 41.6841 5.99451C37.9594 5.99451 36.2559 8.86584 36.2559 11.4909C36.2559 14.1159 37.9446 16.9872 41.6841 16.9872C42.8055 16.9872 43.7412 16.7276 44.5036 16.2952L45.1326 16.9872H47.4151ZM41.6841 15.0663C39.5014 15.0663 38.364 13.2916 38.364 11.4907C38.364 9.6898 39.4816 8.00639 41.6841 8.00639C43.9768 8.00639 45.0042 9.68998 45.0042 11.4907C45.0042 12.2665 44.824 13.0372 44.4313 13.6635L43.7178 12.8687H41.3895L43.1331 14.7872C42.7245 14.9649 42.2439 15.0663 41.6841 15.0663Z" fill="#696969"></path><path d="M52.5494 16.3925V15.5698H52.5082C52.2706 15.8898 51.9992 16.1388 51.6932 16.3172C51.3872 16.4952 50.9878 16.5846 50.4947 16.5846C49.7092 16.5846 49.1068 16.3563 48.6866 15.899C48.2665 15.4421 48.0566 14.825 48.0566 14.048V9.35889H49.9058V13.7326C49.9058 14.1439 49.9994 14.4594 50.1866 14.6787C50.3736 14.898 50.6681 15.0077 51.0702 15.0077C51.5085 15.0077 51.853 14.8592 52.1043 14.5621C52.3554 14.2653 52.481 13.8834 52.481 13.4172V9.35889H54.3439V16.3925H52.5494Z" fill="#696969"></path><path d="M59.7002 16.3925C59.6455 16.3195 59.5996 16.2098 59.5632 16.0633C59.5267 15.9174 59.4993 15.7666 59.4809 15.6109H59.4536C59.3621 15.748 59.2594 15.8738 59.1454 15.988C59.0311 16.1024 58.8941 16.2004 58.7345 16.2828C58.5746 16.3651 58.3853 16.4314 58.166 16.4815C57.947 16.5318 57.6865 16.557 57.3854 16.557C56.6639 16.557 56.0748 16.3741 55.6185 16.0086C55.1618 15.6431 54.9336 15.1084 54.9336 14.4044C54.9336 14.0205 55.0065 13.6961 55.1528 13.4309C55.2986 13.1659 55.4997 12.9466 55.7555 12.7729C56.0111 12.5994 56.3102 12.4644 56.6528 12.3684C56.9951 12.2725 57.3627 12.197 57.7553 12.1421C58.3396 12.0599 58.7689 11.9731 59.0428 11.8815C59.3168 11.7902 59.4538 11.612 59.4538 11.3468C59.4538 11.0911 59.3555 10.8875 59.1593 10.7367C58.9629 10.5861 58.6684 10.5104 58.2758 10.5104C57.8375 10.5104 57.5089 10.5906 57.2896 10.7504C57.0706 10.9106 56.9471 11.1596 56.9197 11.4978H55.2625C55.2715 11.1871 55.3399 10.8924 55.4678 10.6134C55.5956 10.3347 55.7828 10.0902 56.0294 9.87976C56.276 9.66967 56.5864 9.50066 56.9609 9.37256C57.3352 9.24463 57.778 9.18066 58.2895 9.18066C59.3395 9.18066 60.0951 9.40697 60.5564 9.8594C61.0174 10.3118 61.2482 10.9493 61.2482 11.772V15.3505C61.2482 15.8808 61.3304 16.2053 61.4948 16.324V16.3925H59.7002ZM57.8374 15.2545C58.1021 15.2545 58.3374 15.2158 58.5428 15.1379C58.7482 15.0603 58.9217 14.9597 59.0633 14.8363C59.2048 14.7129 59.3121 14.5713 59.3852 14.4113C59.4581 14.2514 59.4948 14.0846 59.4948 13.9107V12.8551C59.3305 12.956 59.1319 13.0358 58.899 13.0951C58.6661 13.1549 58.431 13.2116 58.1936 13.2664C57.7006 13.3761 57.3352 13.5042 57.0979 13.6504C56.8603 13.7967 56.7417 14.0343 56.7417 14.3633C56.7417 14.6925 56.8421 14.9235 57.043 15.0559C57.2437 15.1884 57.5087 15.2545 57.8374 15.2545Z" fill="#696969"></path><path d="M63.972 10.3185H64.013C64.2504 9.93467 64.5358 9.64656 64.8691 9.45467C65.2025 9.26278 65.6109 9.16675 66.0951 9.16675C66.4601 9.16675 66.7913 9.23323 67.0881 9.36549C67.3848 9.4981 67.6382 9.6808 67.8483 9.91395C68.0584 10.1471 68.2227 10.4235 68.3415 10.7433C68.4601 11.0635 68.5195 11.4154 68.5195 11.799V16.3921H66.6567V12.0732C66.6567 11.6893 66.5516 11.3786 66.3417 11.1408C66.1316 10.9033 65.8303 10.7844 65.4377 10.7844C65.0268 10.7844 64.6864 10.933 64.4173 11.23C64.1478 11.5269 64.0132 11.9177 64.0132 12.4022V16.3921H62.1504V9.35882H63.9722V10.3185H63.972Z" fill="#696969"></path><path d="M68.8496 9.35884H69.8221V7.16516H71.6439V9.35884H72.8492V10.5929H71.6439V14.3221C71.6439 14.5873 71.7076 14.7702 71.8356 14.8705C71.9634 14.9712 72.1323 15.0213 72.3425 15.0213H72.6985C72.7623 15.0213 72.8263 15.0168 72.8902 15.0075V16.3786C72.7988 16.3878 72.6985 16.3923 72.5889 16.3923C72.4883 16.4013 72.365 16.406 72.2192 16.406C72.0729 16.406 71.9087 16.406 71.726 16.406C71.4976 16.406 71.2717 16.381 71.048 16.3307C70.824 16.2804 70.621 16.1914 70.4385 16.0631C70.2558 15.9352 70.1075 15.7615 69.9933 15.5422C69.879 15.323 69.8221 15.0487 69.8221 14.7195V10.5929H68.8496V9.35884Z" fill="#696969"></path><path d="M77.9713 16.3925V15.5698H77.9301C77.6925 15.8898 77.4211 16.1388 77.1151 16.3172C76.8091 16.4952 76.4096 16.5846 75.9166 16.5846C75.1311 16.5846 74.5286 16.3563 74.1085 15.899C73.6884 15.4421 73.4785 14.825 73.4785 14.048V9.35889H75.3278V13.7326C75.3278 14.1439 75.4214 14.4594 75.6086 14.6787C75.7957 14.898 76.0901 15.0077 76.4923 15.0077C76.9306 15.0077 77.2751 14.8592 77.5264 14.5621C77.7775 14.2653 77.9031 13.8834 77.9031 13.4172V9.35889H79.7659V16.3925H77.9713Z" fill="#696969"></path><path d="M80.6974 9.35882H82.4919V10.3048H82.5329C82.7246 9.98494 82.9894 9.71539 83.3272 9.49594C83.6649 9.27666 84.0807 9.16675 84.5737 9.16675C85.021 9.16675 85.4138 9.27882 85.7517 9.50278C86.0893 9.72674 86.3451 10.026 86.5188 10.4008H86.5462C86.7834 10.0168 87.0824 9.71521 87.4433 9.49594C87.804 9.27666 88.2081 9.16675 88.6556 9.16675C89.3952 9.16675 89.9658 9.38837 90.3678 9.83161C90.7695 10.275 90.9704 10.8853 90.9704 11.662V16.3923H89.1076V11.9775C89.1076 11.5756 89.0138 11.2738 88.8268 11.0727C88.6396 10.8718 88.3725 10.7711 88.0256 10.7711C87.6328 10.7711 87.3247 10.9105 87.1009 11.1893C86.877 11.4682 86.7654 11.8404 86.7654 12.3065V16.3923H84.9024V11.9775C84.9024 11.5756 84.8086 11.2738 84.6216 11.0727C84.4342 10.8718 84.1673 10.7711 83.8203 10.7711C83.4367 10.7711 83.1307 10.9105 82.9024 11.1893C82.6742 11.4682 82.5601 11.8404 82.5601 12.3065V16.3923H80.6973L80.6974 9.35882Z" fill="#696969"></path></svg>