<svg xmlns="http://www.w3.org/2000/svg" width="18" height="14" viewBox="0 0 18 14"><path d="M16.4688 0C17.3125 0 18 0.6875 18 1.5V12.5C18 13.3438 17.3125 14 16.4688 14H1.5C0.65625 14 0 13.3438 0 12.5V1.5C0 0.6875 0.65625 0 1.5 0H16.4688ZM1.6875 1.5C1.5625 1.5 1.5 1.59375 1.5 1.6875V3H16.4688V1.6875C16.4688 1.59375 16.4062 1.5 16.2812 1.5H1.6875ZM16.2812 12.5C16.4062 12.5 16.4688 12.4375 16.4688 12.3125V7H1.5V12.3125C1.5 12.4375 1.5625 12.5 1.6875 12.5H16.2812ZM6 9.375V10.625C6 10.8438 5.8125 11 5.625 11H3.375C3.15625 11 3 10.8438 3 10.625V9.375C3 9.1875 3.15625 9 3.375 9H5.625C5.8125 9 6 9.1875 6 9.375ZM12 9.375V10.625C12 10.8438 11.8125 11 11.625 11H7.375C7.15625 11 7 10.8438 7 10.625V9.375C7 9.1875 7.15625 9 7.375 9H11.625C11.8125 9 12 9.1875 12 9.375Z"></path></svg>