<svg width="1920" height="837" viewBox="0 0 1920 837" fill="none" xmlns="http://www.w3.org/2000/svg">
<path d="M1543 835.5C1642.5 745.667 1833.8 524.6 1803 359C1772.2 193.4 1868.17 51.6667 1920 1.5" stroke="white" stroke-opacity="0.15" stroke-width="2" stroke-dasharray="12 12"/>
<path d="M377 835.5C277.5 745.667 86.2 524.6 117 359C147.8 193.4 51.8333 51.6667 0 1.5" stroke="white" stroke-opacity="0.15" stroke-width="2" stroke-dasharray="12 12"/>
<circle cx="1798" cy="264" r="50" fill="url(#paint0_linear_4604_54276)"/>
<path d="M1820.01 250.268C1819.15 246.362 1815.36 242.783 1811.44 242.023C1809.06 241.546 1802.4 240.957 1798 241.003C1793.6 240.954 1786.94 241.542 1784.55 242.021C1780.64 242.783 1776.85 246.362 1775.99 250.268C1775.49 252.64 1775.01 255.867 1775 260.271C1775.01 264.673 1775.49 267.901 1775.99 270.274C1776.85 274.18 1780.64 277.758 1784.56 278.518C1785.85 278.775 1788.38 279.066 1791.13 279.271C1791.44 279.761 1791.78 280.282 1792.14 280.834C1793.61 283.046 1794.72 284.587 1795.57 285.661C1796.98 287.446 1799.03 287.446 1800.44 285.661C1801.28 284.587 1802.4 283.046 1803.86 280.834C1804.23 280.282 1804.56 279.761 1804.87 279.271C1807.63 279.066 1810.16 278.775 1811.45 278.518C1815.37 277.758 1819.15 274.18 1820.02 270.274C1820.51 267.901 1820.99 264.675 1821 260.271C1820.99 255.866 1820.51 252.64 1820.01 250.268ZM1804.38 269.444H1791.61C1790.94 269.444 1790.29 269.175 1789.81 268.698C1789.33 268.22 1789.07 267.572 1789.07 266.896C1789.07 266.22 1789.33 265.572 1789.81 265.094C1790.29 264.617 1790.94 264.348 1791.61 264.348H1804.38C1805.06 264.348 1805.71 264.617 1806.19 265.094C1806.66 265.572 1806.93 266.22 1806.93 266.896C1806.93 267.572 1806.66 268.22 1806.19 268.698C1805.71 269.175 1805.06 269.444 1804.38 269.444H1804.38ZM1808.87 258.803H1787.12C1786.45 258.803 1785.8 258.535 1785.32 258.057C1784.84 257.579 1784.57 256.931 1784.57 256.256C1784.57 255.58 1784.84 254.932 1785.32 254.454C1785.8 253.976 1786.45 253.708 1787.12 253.708H1808.88C1809.55 253.708 1810.2 253.976 1810.68 254.454C1811.16 254.932 1811.42 255.58 1811.42 256.256C1811.42 256.931 1811.16 257.579 1810.68 258.057C1810.2 258.535 1809.55 258.803 1808.88 258.803H1808.87Z" fill="white"/>
<circle cx="119" cy="264" r="50" fill="url(#paint1_linear_4604_54276)"/>
<path d="M128.822 255.914C128.822 255.845 128.82 255.776 128.819 255.706C122.472 253.192 115.405 253.192 109.058 255.706C109.057 255.776 109.055 255.845 109.055 255.914V269.618C109.055 274.011 110.045 278.346 111.953 282.303H125.924C127.831 278.346 128.822 274.01 128.822 269.618V255.914Z" fill="url(#paint2_linear_4604_54276)"/>
<path d="M128.818 255.707C124.528 254.007 119.909 253.458 115.406 254.056V282.303H125.923C127.831 278.347 128.821 274.011 128.821 269.619V255.915C128.821 255.846 128.819 255.776 128.818 255.707Z" fill="url(#paint3_linear_4604_54276)"/>
<path d="M121.307 253.928L115.023 260.211L128.531 273.719C128.723 272.365 128.82 270.995 128.82 269.619V258.355L124.978 254.512C123.766 254.232 122.539 254.037 121.307 253.928Z" fill="url(#paint4_linear_4604_54276)"/>
<path d="M109.078 270.654C109.221 274.691 110.2 278.659 111.957 282.304H125.928C127.686 278.659 128.664 274.691 128.807 270.654H109.078Z" fill="url(#paint5_linear_4604_54276)"/>
<path d="M111.623 268.609L109.094 271.138C109.295 275.007 110.265 278.803 111.951 282.302H125.316L111.623 268.609Z" fill="url(#paint6_linear_4604_54276)"/>
<path d="M125.129 281.855H112.744C112.549 281.855 112.359 281.922 112.207 282.045L111.805 282.37C111.073 282.961 110.648 283.85 110.648 284.79V286.147C110.648 286.618 111.031 287 111.502 287H126.371C126.842 287 127.224 286.618 127.224 286.147V284.79C127.224 283.85 126.799 282.961 126.068 282.37L125.665 282.045C125.513 281.922 125.324 281.855 125.129 281.855Z" fill="url(#paint7_linear_4604_54276)"/>
<path d="M113.47 286.999H112.18V285.196C112.18 284.84 112.469 284.551 112.825 284.551C113.181 284.551 113.47 284.84 113.47 285.196L113.47 286.999Z" fill="url(#paint8_linear_4604_54276)"/>
<path d="M115.915 286.999H114.625V285.196C114.625 284.84 114.914 284.551 115.27 284.551C115.626 284.551 115.915 284.84 115.915 285.196L115.915 286.999Z" fill="url(#paint9_linear_4604_54276)"/>
<path d="M118.361 286.999H117.07V285.196C117.07 284.84 117.359 284.551 117.715 284.551C118.072 284.551 118.361 284.84 118.361 285.196V286.999H118.361Z" fill="url(#paint10_linear_4604_54276)"/>
<path d="M120.806 286.999H119.516V285.196C119.516 284.84 119.804 284.551 120.161 284.551C120.517 284.551 120.806 284.84 120.806 285.196L120.806 286.999Z" fill="url(#paint11_linear_4604_54276)"/>
<path d="M123.251 286.999H121.961V285.196C121.961 284.84 122.25 284.551 122.606 284.551C122.962 284.551 123.251 284.84 123.251 285.196V286.999H123.251Z" fill="url(#paint12_linear_4604_54276)"/>
<path d="M125.697 286.999H124.406V285.196C124.406 284.84 124.695 284.551 125.051 284.551C125.408 284.551 125.697 284.84 125.697 285.196V286.999H125.697Z" fill="url(#paint13_linear_4604_54276)"/>
<path d="M110.648 284.742V286.146C110.648 286.617 111.031 286.999 111.502 286.999H126.371C126.842 286.999 127.224 286.617 127.224 286.146V284.742H110.648Z" fill="url(#paint14_linear_4604_54276)"/>
<path d="M126.071 282.37L125.668 282.045C125.516 281.922 125.327 281.855 125.132 281.855H119.891V287H126.373C126.845 287 127.227 286.618 127.227 286.147V284.79C127.227 283.85 126.802 282.961 126.071 282.37Z" fill="url(#paint15_linear_4604_54276)"/>
<path d="M128.823 255.707C128.755 251.82 126.773 247.95 122.915 244.176L120.186 241.507C119.495 240.831 118.391 240.831 117.7 241.507L114.971 244.176C111.113 247.95 109.131 251.82 109.062 255.707C115.569 254.25 122.317 254.25 128.823 255.707Z" fill="url(#paint16_linear_4604_54276)"/>
<path d="M122.904 244.176L120.175 241.507C119.484 240.831 118.38 240.831 117.689 241.507L115.922 243.235V254.715C120.232 254.428 124.573 254.758 128.812 255.707C128.744 251.82 126.762 247.95 122.904 244.176Z" fill="url(#paint17_linear_4604_54276)"/>
<path d="M120.594 254.647C122.26 254.708 123.923 254.86 125.576 255.105L122.856 252.385L120.594 254.647Z" fill="url(#paint18_linear_4604_54276)"/>
<path d="M118.94 261.832C121.997 261.832 124.475 259.354 124.475 256.298C124.475 253.241 121.997 250.764 118.94 250.764C115.884 250.764 113.406 253.241 113.406 256.298C113.406 259.354 115.884 261.832 118.94 261.832Z" fill="url(#paint19_linear_4604_54276)"/>
<path d="M118.946 260.759C121.41 260.759 123.407 258.761 123.407 256.297C123.407 253.833 121.41 251.836 118.946 251.836C116.482 251.836 114.484 253.833 114.484 256.297C114.484 258.761 116.482 260.759 118.946 260.759Z" fill="url(#paint20_linear_4604_54276)"/>
<path d="M113.406 256.297C113.406 259.354 115.884 261.831 118.94 261.831C121.997 261.831 124.475 259.353 124.475 256.297C124.475 255.635 124.358 255 124.145 254.412H113.736C113.523 255 113.406 255.635 113.406 256.297Z" fill="url(#paint21_linear_4604_54276)"/>
<path d="M115.029 260.211C117.19 262.373 120.695 262.373 122.856 260.211C125.017 258.05 125.017 254.546 122.856 252.385C122.388 251.917 121.857 251.55 121.29 251.285L113.93 258.645C114.195 259.212 114.561 259.743 115.029 260.211Z" fill="url(#paint22_linear_4604_54276)"/>
<path d="M118.943 260.068C121.026 260.068 122.715 258.38 122.715 256.297C122.715 254.214 121.026 252.525 118.943 252.525C116.86 252.525 115.172 254.214 115.172 256.297C115.172 258.38 116.86 260.068 118.943 260.068Z" fill="url(#paint23_linear_4604_54276)"/>
<path d="M122.715 256.297C122.715 254.214 121.026 252.525 118.943 252.525C116.86 252.525 115.172 254.214 115.172 256.297C115.172 256.748 115.251 257.181 115.397 257.582H122.49C122.635 257.181 122.715 256.748 122.715 256.297Z" fill="url(#paint24_linear_4604_54276)"/>
<path d="M121.61 253.63C120.137 252.157 117.749 252.157 116.277 253.63C114.804 255.103 114.804 257.491 116.277 258.964C116.596 259.283 116.958 259.532 117.344 259.713L122.36 254.697C122.179 254.311 121.929 253.949 121.61 253.63Z" fill="url(#paint25_linear_4604_54276)"/>
<path d="M132.874 278.246V285.755C132.874 286.549 131.913 286.947 131.351 286.386L125.355 280.39C125.018 280.052 124.885 279.562 125.003 279.099C125.252 278.123 125.462 277.13 125.633 276.125C125.993 273.997 126.177 271.815 126.177 269.619V268.822C126.177 268.524 126.537 268.374 126.748 268.585L130.374 272.211C131.975 273.812 132.874 275.983 132.874 278.246Z" fill="url(#paint26_linear_4604_54276)"/>
<path d="M132.874 278.246V285.755C132.874 286.549 131.913 286.947 131.351 286.386L125.355 280.39C125.018 280.052 124.885 279.562 125.003 279.099C125.252 278.123 125.462 277.13 125.633 276.125C125.993 273.997 126.177 271.815 126.177 269.619V268.822C126.177 268.524 126.537 268.374 126.748 268.585L130.374 272.211C131.975 273.812 132.874 275.983 132.874 278.246Z" fill="url(#paint27_linear_4604_54276)"/>
<path d="M125.633 276.125C125.462 277.13 125.252 278.123 125.003 279.099C124.885 279.562 125.018 280.052 125.356 280.39L131.351 286.386C131.913 286.947 132.874 286.549 132.874 285.755V278.246C132.874 276.632 132.415 275.066 131.571 273.719H125.962C125.877 274.527 125.767 275.33 125.633 276.125Z" fill="url(#paint28_linear_4604_54276)"/>
<path d="M105 278.246V285.755C105 286.549 105.961 286.947 106.523 286.386L112.519 280.39C112.856 280.052 112.989 279.562 112.871 279.099C112.622 278.123 112.413 277.13 112.242 276.125C111.881 273.997 111.698 271.815 111.698 269.619V268.822C111.698 268.524 111.337 268.374 111.126 268.585L107.5 272.211C105.899 273.812 105 275.983 105 278.246Z" fill="url(#paint29_linear_4604_54276)"/>
<path d="M105 278.246V285.755C105 286.549 105.961 286.947 106.523 286.386L112.519 280.39C112.856 280.052 112.989 279.562 112.871 279.099C112.622 278.123 112.413 277.13 112.242 276.125C111.881 273.997 111.698 271.815 111.698 269.619V268.822C111.698 268.524 111.337 268.374 111.126 268.585L107.5 272.211C105.899 273.812 105 275.983 105 278.246Z" fill="url(#paint30_linear_4604_54276)"/>
<path d="M105 278.246V285.755C105 286.549 105.961 286.948 106.523 286.386L112.519 280.39C112.856 280.052 112.989 279.562 112.871 279.1C112.622 278.123 112.413 277.13 112.242 276.125C112.136 275.499 112.047 274.868 111.972 274.234H106.002C105.35 275.458 105 276.834 105 278.246Z" fill="url(#paint31_linear_4604_54276)"/>
<circle cx="1740" cy="614" r="50" fill="url(#paint32_linear_4604_54276)"/>
<path d="M1758.31 596.903C1754.55 592.551 1746.21 591 1739.66 591C1733.12 591 1724.78 592.551 1721.01 596.903C1715.66 603.092 1715.66 619.508 1721.01 625.696C1722.05 626.834 1723.28 627.77 1724.65 628.458C1724.75 628.52 1724.84 628.604 1724.9 628.704C1724.97 628.804 1725.01 628.917 1725.02 629.035L1725.8 633.706C1725.91 634.356 1726.18 634.968 1726.59 635.486C1726.99 636.005 1727.52 636.414 1728.12 636.676C1728.73 636.937 1729.39 637.043 1730.04 636.984C1730.7 636.925 1731.33 636.702 1731.88 636.337L1738.85 631.689C1738.96 631.607 1739.1 631.567 1739.24 631.578C1746.01 631.617 1754.48 630.131 1758.31 625.697C1763.67 619.508 1763.67 603.092 1758.31 596.903Z" fill="white"/>
<path d="M1739.67 621.155C1739.1 621.155 1738.56 620.929 1738.16 620.528C1737.76 620.127 1737.53 619.583 1737.53 619.016V601.899C1737.53 601.332 1737.76 600.788 1738.16 600.386C1738.56 599.985 1739.1 599.76 1739.67 599.76C1740.24 599.76 1740.78 599.985 1741.18 600.386C1741.58 600.788 1741.81 601.332 1741.81 601.899V619.016C1741.81 619.583 1741.58 620.127 1741.18 620.528C1740.78 620.929 1740.24 621.155 1739.67 621.155Z" fill="#FF9D2C"/>
<path d="M1731.11 616.876C1730.54 616.876 1730 616.65 1729.6 616.249C1729.19 615.848 1728.97 615.304 1728.97 614.737V606.179C1728.97 605.611 1729.19 605.067 1729.6 604.666C1730 604.264 1730.54 604.039 1731.11 604.039C1731.68 604.039 1732.22 604.264 1732.62 604.666C1733.02 605.067 1733.25 605.611 1733.25 606.179V614.737C1733.25 615.304 1733.02 615.848 1732.62 616.249C1732.22 616.65 1731.68 616.876 1731.11 616.876Z" fill="#FF9D2C"/>
<path d="M1748.22 616.876C1747.65 616.876 1747.11 616.65 1746.71 616.249C1746.3 615.848 1746.08 615.304 1746.08 614.737V606.179C1746.08 605.611 1746.3 605.067 1746.7 604.666C1747.11 604.264 1747.65 604.039 1748.22 604.039C1748.79 604.039 1749.33 604.264 1749.73 604.666C1750.13 605.067 1750.36 605.611 1750.36 606.179V614.737C1750.36 615.304 1750.13 615.848 1749.73 616.249C1749.33 616.65 1748.78 616.876 1748.22 616.876Z" fill="#FF9D2C"/>
<circle cx="189" cy="614" r="50" fill="url(#paint33_linear_4604_54276)"/>
<path d="M188.999 637.001C192.143 637.001 194.92 634.952 195.867 631.934H182.141C183.078 634.952 185.856 637.001 188.999 637.001Z" fill="white"/>
<path d="M188.996 593.518C190.469 593.518 191.854 594.219 192.738 595.395C193.809 595.575 194.863 595.836 195.89 596.177C194.756 592.35 190.755 590.167 186.951 591.299C184.62 592 182.798 593.832 182.102 596.177C183.129 595.836 184.191 595.575 185.254 595.395C186.138 594.21 187.522 593.518 188.996 593.518Z" fill="white"/>
<path d="M188.996 596.303C177.395 596.303 168 605.763 168 617.433V623.075C168 627.288 171.403 630.711 175.591 630.711H202.409C206.597 630.711 210 627.288 210 623.075V617.433C209.991 605.763 200.596 596.303 188.996 596.303Z" fill="white"/>
<defs>
<linearGradient id="paint0_linear_4604_54276" x1="1748" y1="264" x2="1848" y2="264" gradientUnits="userSpaceOnUse">
<stop stop-color="#4C00E5"/>
<stop offset="1" stop-color="#5A16B8"/>
</linearGradient>
<linearGradient id="paint1_linear_4604_54276" x1="69" y1="264" x2="169" y2="264" gradientUnits="userSpaceOnUse">
<stop stop-color="#4C00E5"/>
<stop offset="1" stop-color="#5A16B8"/>
</linearGradient>
<linearGradient id="paint2_linear_4604_54276" x1="113.836" y1="268.062" x2="123.09" y2="268.062" gradientUnits="userSpaceOnUse">
<stop stop-color="#F5FBFF"/>
<stop offset="1" stop-color="#DBD5EF"/>
</linearGradient>
<linearGradient id="paint3_linear_4604_54276" x1="119.136" y1="268.063" x2="128.714" y2="268.063" gradientUnits="userSpaceOnUse">
<stop stop-color="#DBD5EF" stop-opacity="0"/>
<stop offset="0.2853" stop-color="#D9D2EE" stop-opacity="0.285"/>
<stop offset="0.4739" stop-color="#D4C9E9" stop-opacity="0.474"/>
<stop offset="0.6346" stop-color="#CBBAE2" stop-opacity="0.635"/>
<stop offset="0.7795" stop-color="#BFA5D7" stop-opacity="0.78"/>
<stop offset="0.9126" stop-color="#AF8ACA" stop-opacity="0.913"/>
<stop offset="1" stop-color="#A274BF"/>
</linearGradient>
<linearGradient id="paint4_linear_4604_54276" x1="128.276" y1="267.833" x2="120.604" y2="257.51" gradientUnits="userSpaceOnUse">
<stop stop-color="#DBD5EF" stop-opacity="0"/>
<stop offset="0.2853" stop-color="#D9D2EE" stop-opacity="0.285"/>
<stop offset="0.4739" stop-color="#D4C9E9" stop-opacity="0.474"/>
<stop offset="0.6346" stop-color="#CBBAE2" stop-opacity="0.635"/>
<stop offset="0.7795" stop-color="#BFA5D7" stop-opacity="0.78"/>
<stop offset="0.9126" stop-color="#AF8ACA" stop-opacity="0.913"/>
<stop offset="1" stop-color="#A274BF"/>
</linearGradient>
<linearGradient id="paint5_linear_4604_54276" x1="118.943" y1="275.397" x2="118.943" y2="282.737" gradientUnits="userSpaceOnUse">
<stop stop-color="#DBD5EF" stop-opacity="0"/>
<stop offset="0.2853" stop-color="#D9D2EE" stop-opacity="0.285"/>
<stop offset="0.4739" stop-color="#D4C9E9" stop-opacity="0.474"/>
<stop offset="0.6346" stop-color="#CBBAE2" stop-opacity="0.635"/>
<stop offset="0.7795" stop-color="#BFA5D7" stop-opacity="0.78"/>
<stop offset="0.9126" stop-color="#AF8ACA" stop-opacity="0.913"/>
<stop offset="1" stop-color="#A274BF"/>
</linearGradient>
<linearGradient id="paint6_linear_4604_54276" x1="115.927" y1="275.456" x2="111.51" y2="275.456" gradientUnits="userSpaceOnUse">
<stop stop-color="#DBD5EF" stop-opacity="0"/>
<stop offset="0.2853" stop-color="#D9D2EE" stop-opacity="0.285"/>
<stop offset="0.4739" stop-color="#D4C9E9" stop-opacity="0.474"/>
<stop offset="0.6346" stop-color="#CBBAE2" stop-opacity="0.635"/>
<stop offset="0.7795" stop-color="#BFA5D7" stop-opacity="0.78"/>
<stop offset="0.9126" stop-color="#AF8ACA" stop-opacity="0.913"/>
<stop offset="1" stop-color="#A274BF"/>
</linearGradient>
<linearGradient id="paint7_linear_4604_54276" x1="118.936" y1="282.199" x2="118.936" y2="283.51" gradientUnits="userSpaceOnUse">
<stop stop-color="#FEF0AE"/>
<stop offset="1" stop-color="#FAC600"/>
</linearGradient>
<linearGradient id="paint8_linear_4604_54276" x1="113.488" y1="285.775" x2="112.142" y2="285.775" gradientUnits="userSpaceOnUse">
<stop stop-color="#FEF0AE"/>
<stop offset="1" stop-color="#FAC600"/>
</linearGradient>
<linearGradient id="paint9_linear_4604_54276" x1="115.933" y1="285.775" x2="114.587" y2="285.775" gradientUnits="userSpaceOnUse">
<stop stop-color="#FEF0AE"/>
<stop offset="1" stop-color="#FAC600"/>
</linearGradient>
<linearGradient id="paint10_linear_4604_54276" x1="118.378" y1="285.775" x2="117.033" y2="285.775" gradientUnits="userSpaceOnUse">
<stop stop-color="#FEF0AE"/>
<stop offset="1" stop-color="#FAC600"/>
</linearGradient>
<linearGradient id="paint11_linear_4604_54276" x1="120.823" y1="285.775" x2="119.478" y2="285.775" gradientUnits="userSpaceOnUse">
<stop stop-color="#FEF0AE"/>
<stop offset="1" stop-color="#FAC600"/>
</linearGradient>
<linearGradient id="paint12_linear_4604_54276" x1="123.269" y1="285.775" x2="121.923" y2="285.775" gradientUnits="userSpaceOnUse">
<stop stop-color="#FEF0AE"/>
<stop offset="1" stop-color="#FAC600"/>
</linearGradient>
<linearGradient id="paint13_linear_4604_54276" x1="125.714" y1="285.775" x2="124.369" y2="285.775" gradientUnits="userSpaceOnUse">
<stop stop-color="#FEF0AE"/>
<stop offset="1" stop-color="#FAC600"/>
</linearGradient>
<linearGradient id="paint14_linear_4604_54276" x1="118.936" y1="285.338" x2="118.936" y2="286.99" gradientUnits="userSpaceOnUse">
<stop stop-color="#FE9738" stop-opacity="0"/>
<stop offset="1" stop-color="#FE9738"/>
</linearGradient>
<linearGradient id="paint15_linear_4604_54276" x1="122.087" y1="284.428" x2="127.264" y2="284.428" gradientUnits="userSpaceOnUse">
<stop stop-color="#FE9738" stop-opacity="0"/>
<stop offset="1" stop-color="#FE9738"/>
</linearGradient>
<linearGradient id="paint16_linear_4604_54276" x1="114.119" y1="248.353" x2="123.749" y2="248.353" gradientUnits="userSpaceOnUse">
<stop stop-color="#FFA1AE"/>
<stop offset="1" stop-color="#FF4565"/>
</linearGradient>
<linearGradient id="paint17_linear_4604_54276" x1="118.107" y1="249.607" x2="125.989" y2="247.864" gradientUnits="userSpaceOnUse">
<stop stop-color="#FE0364" stop-opacity="0"/>
<stop offset="0.2343" stop-color="#F90362" stop-opacity="0.234"/>
<stop offset="0.5173" stop-color="#EA035B" stop-opacity="0.517"/>
<stop offset="0.8243" stop-color="#D20250" stop-opacity="0.824"/>
<stop offset="1" stop-color="#C00148"/>
</linearGradient>
<linearGradient id="paint18_linear_4604_54276" x1="129.37" y1="255.001" x2="123.267" y2="253.815" gradientUnits="userSpaceOnUse">
<stop stop-color="#FE0364" stop-opacity="0"/>
<stop offset="0.2343" stop-color="#F90362" stop-opacity="0.234"/>
<stop offset="0.5173" stop-color="#EA035B" stop-opacity="0.517"/>
<stop offset="0.8243" stop-color="#D20250" stop-opacity="0.824"/>
<stop offset="1" stop-color="#C00148"/>
</linearGradient>
<linearGradient id="paint19_linear_4604_54276" x1="115.555" y1="252.913" x2="121.662" y2="259.019" gradientUnits="userSpaceOnUse">
<stop stop-color="#B3DAFE"/>
<stop offset="1" stop-color="#0182FC"/>
</linearGradient>
<linearGradient id="paint20_linear_4604_54276" x1="122.068" y1="259.42" x2="115.348" y2="252.7" gradientUnits="userSpaceOnUse">
<stop stop-color="#B3DAFE"/>
<stop offset="1" stop-color="#0182FC"/>
</linearGradient>
<linearGradient id="paint21_linear_4604_54276" x1="118.94" y1="256.367" x2="118.94" y2="262.877" gradientUnits="userSpaceOnUse">
<stop stop-color="#314DC9" stop-opacity="0"/>
<stop offset="0.2761" stop-color="#304BC4" stop-opacity="0.276"/>
<stop offset="0.5628" stop-color="#2B45B8" stop-opacity="0.563"/>
<stop offset="0.8535" stop-color="#243BA3" stop-opacity="0.854"/>
<stop offset="1" stop-color="#1F3596"/>
</linearGradient>
<linearGradient id="paint22_linear_4604_54276" x1="119.028" y1="256.321" x2="123.873" y2="261.165" gradientUnits="userSpaceOnUse">
<stop stop-color="#314DC9" stop-opacity="0"/>
<stop offset="0.2761" stop-color="#304BC4" stop-opacity="0.276"/>
<stop offset="0.5628" stop-color="#2B45B8" stop-opacity="0.563"/>
<stop offset="0.8535" stop-color="#243BA3" stop-opacity="0.854"/>
<stop offset="1" stop-color="#1F3596"/>
</linearGradient>
<linearGradient id="paint23_linear_4604_54276" x1="121.25" y1="258.604" x2="117.089" y2="254.442" gradientUnits="userSpaceOnUse">
<stop stop-color="#5A5A5A"/>
<stop offset="1" stop-color="#444444"/>
</linearGradient>
<linearGradient id="paint24_linear_4604_54276" x1="118.512" y1="255.034" x2="117.602" y2="252.371" gradientUnits="userSpaceOnUse">
<stop stop-color="#433F43" stop-opacity="0"/>
<stop offset="1" stop-color="#1A1A1A"/>
</linearGradient>
<linearGradient id="paint25_linear_4604_54276" x1="117.091" y1="255.408" x2="115.406" y2="254.599" gradientUnits="userSpaceOnUse">
<stop stop-color="#433F43" stop-opacity="0"/>
<stop offset="1" stop-color="#1A1A1A"/>
</linearGradient>
<linearGradient id="paint26_linear_4604_54276" x1="125.389" y1="274.376" x2="133.062" y2="280.897" gradientUnits="userSpaceOnUse">
<stop stop-color="#FFA1AE"/>
<stop offset="1" stop-color="#FF4565"/>
</linearGradient>
<linearGradient id="paint27_linear_4604_54276" x1="129.064" y1="277.567" x2="132.798" y2="277.567" gradientUnits="userSpaceOnUse">
<stop stop-color="#FE0364" stop-opacity="0"/>
<stop offset="0.2343" stop-color="#F90362" stop-opacity="0.234"/>
<stop offset="0.5173" stop-color="#EA035B" stop-opacity="0.517"/>
<stop offset="0.8243" stop-color="#D20250" stop-opacity="0.824"/>
<stop offset="1" stop-color="#C00148"/>
</linearGradient>
<linearGradient id="paint28_linear_4604_54276" x1="128.706" y1="280.697" x2="126.939" y2="282.65" gradientUnits="userSpaceOnUse">
<stop stop-color="#FE0364" stop-opacity="0"/>
<stop offset="0.2343" stop-color="#F90362" stop-opacity="0.234"/>
<stop offset="0.5173" stop-color="#EA035B" stop-opacity="0.517"/>
<stop offset="0.8243" stop-color="#D20250" stop-opacity="0.824"/>
<stop offset="1" stop-color="#C00148"/>
</linearGradient>
<linearGradient id="paint29_linear_4604_54276" x1="106.037" y1="275.724" x2="112.593" y2="280.56" gradientUnits="userSpaceOnUse">
<stop stop-color="#FFA1AE"/>
<stop offset="1" stop-color="#FF4565"/>
</linearGradient>
<linearGradient id="paint30_linear_4604_54276" x1="109.802" y1="277.366" x2="113.243" y2="276.761" gradientUnits="userSpaceOnUse">
<stop stop-color="#FE0364" stop-opacity="0"/>
<stop offset="0.2343" stop-color="#F90362" stop-opacity="0.234"/>
<stop offset="0.5173" stop-color="#EA035B" stop-opacity="0.517"/>
<stop offset="0.8243" stop-color="#D20250" stop-opacity="0.824"/>
<stop offset="1" stop-color="#C00148"/>
</linearGradient>
<linearGradient id="paint31_linear_4604_54276" x1="108.838" y1="280.514" x2="110.512" y2="282.049" gradientUnits="userSpaceOnUse">
<stop stop-color="#FE0364" stop-opacity="0"/>
<stop offset="0.2343" stop-color="#F90362" stop-opacity="0.234"/>
<stop offset="0.5173" stop-color="#EA035B" stop-opacity="0.517"/>
<stop offset="0.8243" stop-color="#D20250" stop-opacity="0.824"/>
<stop offset="1" stop-color="#C00148"/>
</linearGradient>
<linearGradient id="paint32_linear_4604_54276" x1="1690" y1="614" x2="1790" y2="614" gradientUnits="userSpaceOnUse">
<stop stop-color="#4C00E5"/>
<stop offset="1" stop-color="#5A16B8"/>
</linearGradient>
<linearGradient id="paint33_linear_4604_54276" x1="139" y1="614" x2="239" y2="614" gradientUnits="userSpaceOnUse">
<stop stop-color="#4C00E5"/>
<stop offset="1" stop-color="#5A16B8"/>
</linearGradient>
</defs>
</svg>
