<svg xmlns="http://www.w3.org/2000/svg" width="35" height="32" viewBox="0 0 35 32" fill="none"><path d="M30.5233 0.25H4.47674C3.28981 0.251207 2.15183 0.72325 1.31254 1.56254C0.47325 2.40183 0.00120667 3.53981 0 4.72674V27.5174C0.00120667 28.7044 0.47325 29.8424 1.31254 30.6816C2.15183 31.5209 3.28981 31.993 4.47674 31.9942H30.5233C31.7102 31.993 32.8482 31.5209 33.6875 30.6816C34.5267 29.8424 34.9988 28.7044 35 27.5174V4.72674C34.9988 3.53981 34.5267 2.40183 33.6875 1.56254C32.8482 0.72325 31.7102 0.251207 30.5233 0.25ZM7.32558 24.2616C7.32558 24.5854 7.19695 24.896 6.96798 25.125C6.73901 25.3539 6.42846 25.4826 6.10465 25.4826C5.78084 25.4826 5.47029 25.3539 5.24132 25.125C5.01235 24.896 4.88372 24.5854 4.88372 24.2616V21.0058C4.88372 20.682 5.01235 20.3715 5.24132 20.1425C5.47029 19.9135 5.78084 19.7849 6.10465 19.7849C6.42846 19.7849 6.73901 19.9135 6.96798 20.1425C7.19695 20.3715 7.32558 20.682 7.32558 21.0058V24.2616ZM13.0233 24.2616C13.0233 24.5854 12.8946 24.896 12.6657 25.125C12.4367 25.3539 12.1261 25.4826 11.8023 25.4826C11.4785 25.4826 11.168 25.3539 10.939 25.125C10.71 24.896 10.5814 24.5854 10.5814 24.2616V17.75C10.5814 17.4262 10.71 17.1156 10.939 16.8867C11.168 16.6577 11.4785 16.5291 11.8023 16.5291C12.1261 16.5291 12.4367 16.6577 12.6657 16.8867C12.8946 17.1156 13.0233 17.4262 13.0233 17.75V24.2616ZM18.7209 24.2616C18.7209 24.5854 18.5923 24.896 18.3633 25.125C18.1344 25.3539 17.8238 25.4826 17.5 25.4826C17.1762 25.4826 16.8656 25.3539 16.6367 25.125C16.4077 24.896 16.2791 24.5854 16.2791 24.2616V19.3779C16.2791 19.0541 16.4077 18.7435 16.6367 18.5146C16.8656 18.2856 17.1762 18.157 17.5 18.157C17.8238 18.157 18.1344 18.2856 18.3633 18.5146C18.5923 18.7435 18.7209 19.0541 18.7209 19.3779V24.2616ZM19.015 14.7136L14.52 11.3433C14.4476 11.2899 14.3598 11.2618 14.2699 11.2632C14.18 11.2647 14.093 11.2956 14.0224 11.3513L6.86693 17.076C6.61396 17.2781 6.29103 17.3715 5.96919 17.3356C5.64735 17.2997 5.35297 17.1374 5.1508 16.8844C4.94863 16.6314 4.85523 16.3085 4.89116 15.9866C4.92708 15.6648 5.08939 15.3704 5.34237 15.1682L12.497 9.44514C12.9897 9.04982 13.6001 8.8299 14.2317 8.82011C14.8633 8.81032 15.4802 9.01121 15.9849 9.39107L20.48 12.7614C20.552 12.8155 20.64 12.8441 20.7301 12.8426C20.8202 12.8412 20.9073 12.8098 20.9776 12.7534L28.133 7.0287C28.386 6.82653 28.7089 6.73314 29.0308 6.76906C29.3526 6.80499 29.647 6.9673 29.8492 7.22027C30.0513 7.47325 30.1447 7.79618 30.1088 8.11802C30.0729 8.43986 29.9106 8.73424 29.6576 8.93641L22.5029 14.6595C22.0099 15.0541 21.3997 15.2735 20.7682 15.2833C20.1368 15.2931 19.5201 15.0927 19.015 14.7136ZM24.4186 24.2616C24.4186 24.5854 24.29 24.896 24.061 25.125C23.832 25.3539 23.5215 25.4826 23.1977 25.4826C22.8739 25.4826 22.5633 25.3539 22.3343 25.125C22.1054 24.896 21.9767 24.5854 21.9767 24.2616V17.75C21.9767 17.4262 22.1054 17.1156 22.3343 16.8867C22.5633 16.6577 22.8739 16.5291 23.1977 16.5291C23.5215 16.5291 23.832 16.6577 24.061 16.8867C24.29 17.1156 24.4186 17.4262 24.4186 17.75V24.2616ZM30.1163 24.2616C30.1163 24.5854 29.9876 24.896 29.7587 25.125C29.5297 25.3539 29.2192 25.4826 28.8953 25.4826C28.5715 25.4826 28.261 25.3539 28.032 25.125C27.803 24.896 27.6744 24.5854 27.6744 24.2616V14.4942C27.6744 14.1704 27.803 13.8598 28.032 13.6309C28.261 13.4019 28.5715 13.2733 28.8953 13.2733C29.2192 13.2733 29.5297 13.4019 29.7587 13.6309C29.9876 13.8598 30.1163 14.1704 30.1163 14.4942V24.2616Z" fill="#200B56"></path></svg>