<svg xmlns="http://www.w3.org/2000/svg" width="35" height="35" viewBox="0 0 35 35" fill="none"><g clip-path="url(#clip0_4604_52463)"><path d="M32.91 22.7563C31.1096 20.9545 28.6114 20.1912 25.4031 21.051L13.9626 9.59894L14.1139 9.02718C14.7728 6.5549 14.0608 3.89743 12.2564 2.09301C10.4192 0.254349 7.80729 -0.420289 5.33713 0.258246C4.98487 0.354974 4.71068 0.631761 4.61737 0.984974C4.52406 1.33819 4.62639 1.71362 4.88459 1.97195L7.63926 4.72662C8.44461 5.53395 8.43674 6.8269 7.64125 7.62452C6.85204 8.41584 5.52546 8.41461 4.73939 7.6265L1.98417 4.87107C1.72584 4.6126 1.34931 4.51122 0.996099 4.60508C0.642818 4.69887 0.367056 4.97374 0.270669 5.32634C-0.397954 7.76937 0.2598 10.3974 2.10585 12.2435C3.90547 14.0444 6.40052 14.8105 9.61075 13.9488L21.0521 25.4009C20.1983 28.6082 20.9348 31.0822 22.7594 32.9068C24.599 34.7477 27.2121 35.4174 29.6768 34.7411C30.0292 34.6444 30.3034 34.3676 30.3968 34.0144C30.4902 33.6612 30.3879 33.2857 30.1296 33.0273L27.3755 30.2732C26.5702 29.4659 26.578 28.1728 27.3735 27.3753C28.1726 26.5804 29.4962 26.593 30.2754 27.3743L33.0308 30.129C33.2891 30.3873 33.6657 30.4887 34.0188 30.3948C34.372 30.301 34.6478 30.0262 34.7442 29.6737C35.4128 27.2311 34.7552 24.6023 32.91 22.7563Z" fill="#200B56"></path><path d="M10.9746 18.2227L1.19976 27.9987C-0.399919 29.5984 -0.399919 32.1998 1.19976 33.7994C2.79944 35.399 5.40078 35.399 7.00039 33.7994L16.775 24.0236L10.9746 18.2227ZM6.03707 30.6172C5.63649 31.0178 4.98776 31.0178 4.58717 30.6172C4.18665 30.2166 4.18665 29.5678 4.58717 29.1673L10.8065 22.9468C11.207 22.5462 11.856 22.5462 12.2564 22.9468C12.6569 23.3473 12.6569 23.9962 12.2564 24.3967L6.03707 30.6172Z" fill="#200B56"></path><path d="M34.7038 2.06809L32.9361 0.300381C32.6034 -0.0323238 32.0871 -0.095898 31.6836 0.146026L26.2458 3.40834C25.6737 3.75157 25.5765 4.54092 26.0482 5.01267L26.4811 5.44538L19.5781 12.3201L22.479 15.2209L29.3819 8.34621L29.9916 8.95605C30.4633 9.42766 31.2527 9.33059 31.5959 8.75842L34.8582 3.32064C35.1001 2.91711 35.0365 2.40079 34.7038 2.06809Z" fill="#200B56"></path></g><defs><clipPath id="clip0_4604_52463"><rect width="35" height="35" fill="white"></rect></clipPath></defs></svg>