<svg xmlns="http://www.w3.org/2000/svg" width="43" height="40" viewBox="0 0 43 40" fill="none"><path d="M42.0417 26.4L37.2333 23.75L21.9583 32.35C21.7583 32.4499 21.5333 32.5 21.3333 32.5C21.1333 32.5 20.9083 32.4499 20.7083 32.35L5.43333 23.75L0.625 26.4C0.249917 26.6249 0 27.05 0 27.5C0 27.95 0.249917 28.3749 0.625 28.6L20.7083 39.85C20.9083 39.9499 21.1333 40 21.3333 40C21.5333 40 21.7583 39.9499 21.9583 39.85L42.0417 28.6C42.4168 28.3749 42.6667 27.95 42.6667 27.5C42.6667 27.05 42.4168 26.6249 42.0417 26.4ZM0.625 13.6L20.7083 24.85C20.9083 24.9499 21.1333 25 21.3333 25C21.5333 25 21.7583 24.9499 21.9583 24.85L42.0417 13.6C42.4168 13.3749 42.6667 12.95 42.6667 12.5C42.6667 12.05 42.4168 11.6249 42.0417 11.4L21.9583 0.15C21.5584 -0.05 21.1082 -0.05 20.7083 0.15L0.625 11.4C0.249917 11.6249 0 12.05 0 12.5C0 12.95 0.249917 13.3749 0.625 13.6ZM25.4584 10.8749C24.9584 10.3999 24.9584 9.59992 25.4584 9.12492C25.9334 8.625 26.7333 8.625 27.2083 9.12492L29.7083 11.6249C30.2083 12.0999 30.2083 12.8999 29.7083 13.3749L27.2083 15.8749C26.7587 16.3749 25.9083 16.3751 25.4584 15.8749C24.9584 15.3999 24.9584 14.5999 25.4584 14.1249L27.0583 12.5L25.4584 10.8749ZM19.4833 14.7L20.7333 9.7C20.9083 9.02492 21.5833 8.625 22.2583 8.79983C22.9334 8.94983 23.3333 9.62492 23.1833 10.2999L21.9333 15.2999C21.7203 16.1165 20.7978 16.3949 20.4083 16.1999C19.7333 16.05 19.3333 15.3749 19.4833 14.7ZM12.9584 11.6249L15.4584 9.12492C15.9334 8.625 16.7333 8.625 17.2083 9.12492C17.7083 9.59992 17.7083 10.3999 17.2083 10.8749L15.6084 12.5L17.2083 14.1249C17.7083 14.5999 17.7083 15.3999 17.2083 15.8749C16.7586 16.3749 15.9083 16.3751 15.4583 15.8749L12.9583 13.3749C12.4583 12.8999 12.4583 12.0999 12.9584 11.6249Z" fill="white"></path></svg>