<svg xmlns="http://www.w3.org/2000/svg" width="31" height="35" viewBox="0 0 31 35" fill="none"><path fill-rule="evenodd" clip-rule="evenodd" d="M2.76941 20.1583C2.76959 19.9998 2.74163 19.8426 2.6868 19.6936L4.13857 18.2936H7.66854V19.435C7.66854 19.4491 7.66854 19.4627 7.66912 19.4765L4.91216 20.3513C4.77399 20.3948 4.65776 20.4884 4.58699 20.6131L2.68544 23.9453C2.64737 23.9423 2.60888 23.9406 2.57031 23.9406C2.25915 23.9406 1.95706 24.0438 1.71276 24.2336C1.46847 24.4233 1.29622 24.6886 1.22379 24.9866C1.15136 25.2845 1.18298 25.5978 1.31354 25.8759C1.4441 26.154 1.666 26.3807 1.94344 26.5194C2.22088 26.6582 2.53769 26.7008 2.84277 26.6405C3.14785 26.5802 3.42341 26.4205 3.625 26.1871C3.82659 25.9537 3.94247 25.6603 3.95394 25.3541C3.9654 25.0479 3.87179 24.7469 3.6882 24.4995L5.47917 21.3585L8.09991 20.527C8.25412 20.6944 8.44218 20.8282 8.65202 20.9199C8.86186 21.0115 9.08885 21.059 9.3184 21.0591H12.9973V16.2662C12.9973 15.9359 13.0664 15.6092 13.2001 15.3063C13.3339 15.0034 13.5296 14.7309 13.7749 14.5057C13.5769 14.2081 13.4643 13.8633 13.449 13.5078C13.4338 13.1523 13.5166 12.7993 13.6885 12.4864C13.8604 12.1734 14.1151 11.912 14.4256 11.73C14.7362 11.548 15.0909 11.4521 15.4523 11.4524C15.8136 11.4528 16.1682 11.5494 16.4783 11.732C16.7885 11.9146 17.0426 12.1765 17.2139 12.4898C17.3852 12.8031 17.4673 13.1562 17.4513 13.5117C17.4354 13.8671 17.3221 14.2117 17.1234 14.509C17.3678 14.734 17.5626 15.0061 17.6958 15.3084C17.8289 15.6106 17.8976 15.9366 17.8976 16.266V20.6437C17.9464 20.6409 17.9956 20.6395 18.0452 20.6394C18.5371 20.639 19.0177 20.7852 19.4236 21.059H21.5822C21.8174 21.0588 22.0499 21.0089 22.2639 20.9129C22.4779 20.8168 22.6686 20.6767 22.823 20.502L25.5219 21.3584L27.3129 24.4994C27.1294 24.7468 27.0358 25.0478 27.0474 25.354C27.0589 25.6601 27.1748 25.9536 27.3764 26.1869C27.578 26.4202 27.8536 26.5799 28.1587 26.6402C28.4638 26.7004 28.7806 26.6577 29.058 26.5189C29.3354 26.3802 29.5572 26.1534 29.6877 25.8753C29.8182 25.5972 29.8498 25.2839 29.7773 24.986C29.7048 24.688 29.5325 24.4228 29.2882 24.2331C29.0439 24.0434 28.7418 23.9402 28.4306 23.9403C28.3918 23.9403 28.3533 23.942 28.3155 23.9451L26.4141 20.6126C26.3434 20.4879 26.2272 20.3944 26.089 20.3508L23.2319 19.444V19.4342V18.2936H26.862L28.3135 19.6938C28.2059 19.9863 28.2032 20.3063 28.3059 20.6006C28.4086 20.8949 28.6105 21.1457 28.878 21.3113C29.1455 21.4769 29.4625 21.5474 29.7764 21.5111C30.0902 21.4747 30.3819 21.3337 30.6031 21.1115C30.8243 20.8892 30.9615 20.5991 30.992 20.2894C31.0225 19.9797 30.9445 19.6691 30.7709 19.4091C30.5972 19.1491 30.3384 18.9555 30.0375 18.8604C29.7367 18.7653 29.4118 18.7745 29.1169 18.8864L27.5267 17.3527C27.4728 17.2921 27.4063 17.2435 27.3317 17.2103C27.2571 17.177 27.1762 17.1599 27.0943 17.16H23.2316V15.0885H28.3562C28.4876 15.3715 28.7134 15.6018 28.996 15.741C29.2787 15.8802 29.6012 15.92 29.91 15.8538C30.2188 15.7876 30.4953 15.6194 30.6936 15.377C30.8919 15.1347 31 14.8329 31 14.5217C31 14.2105 30.8919 13.9087 30.6936 13.6664C30.4953 13.4241 30.2188 13.2558 29.91 13.1896C29.6012 13.1234 29.2787 13.1632 28.996 13.3024C28.7134 13.4417 28.4876 13.6719 28.3562 13.9549H23.2316V11.8836H27.0948C27.1767 11.8837 27.2576 11.8666 27.3322 11.8333C27.4068 11.8001 27.4733 11.7516 27.5272 11.691L29.1174 10.1572C29.4122 10.2691 29.7369 10.2782 30.0377 10.1832C30.3385 10.0882 30.5971 9.89464 30.7707 9.6348C30.9443 9.37495 31.0224 9.06443 30.9919 8.75486C30.9615 8.44528 30.8243 8.15528 30.6033 7.93308C30.3823 7.71087 30.0907 7.56983 29.777 7.5334C29.4633 7.49697 29.1464 7.56735 28.8789 7.73283C28.6115 7.89831 28.4096 8.14894 28.3068 8.44305C28.2041 8.73716 28.2066 9.05703 28.314 9.34952L26.862 10.75H23.2316V9.73487L26.1111 8.68593C26.24 8.6396 26.3477 8.54921 26.4146 8.43123L28.3155 5.09802C28.3535 5.10113 28.3919 5.10272 28.4306 5.10276C28.7418 5.10276 29.0439 4.99956 29.2882 4.80979C29.5325 4.62003 29.7047 4.35477 29.7771 4.0568C29.8496 3.75884 29.8179 3.44553 29.6874 3.16743C29.5568 2.88932 29.3349 2.66262 29.0575 2.52391C28.78 2.38519 28.4632 2.34253 28.1582 2.40282C27.8531 2.46312 27.5775 2.62283 27.3759 2.85622C27.1743 3.08961 27.0585 3.38305 27.047 3.68923C27.0355 3.9954 27.1291 4.29645 27.3127 4.54383L25.5155 7.69566L22.9081 8.64548C22.755 8.44081 22.5552 8.27437 22.3249 8.15954C22.0946 8.04471 21.8401 7.98469 21.5819 7.98431H20.7629V5.23136C20.7629 3.84391 20.2032 2.5133 19.2068 1.53223C18.2104 0.551159 16.8591 0 15.45 0C14.0409 0 12.6895 0.551159 11.6932 1.53223C10.6968 2.5133 10.137 3.84391 10.137 5.23136V7.98431H9.31811C9.06611 7.98463 8.81752 8.04181 8.59146 8.15147C8.36539 8.26112 8.16785 8.42032 8.014 8.61685L5.48514 7.6958L3.68792 4.54383C3.8715 4.29646 3.96511 3.99541 3.95365 3.68924C3.94218 3.38306 3.82631 3.08962 3.62472 2.85623C3.42314 2.62285 3.14758 2.46313 2.84251 2.40283C2.53744 2.34254 2.22063 2.38518 1.94319 2.52389C1.66574 2.6626 1.44384 2.88929 1.31327 3.16739C1.1827 3.44549 1.15107 3.75878 1.22349 4.05675C1.2959 4.35472 1.46814 4.61998 1.71243 4.80975C1.95671 4.99953 2.25879 5.10275 2.56995 5.10276C2.6088 5.10276 2.64718 5.10118 2.68508 5.09802L4.58599 8.43123C4.65285 8.54923 4.76057 8.63963 4.88949 8.68593L7.66833 9.69824V10.7504H4.13857L2.6868 9.3498C2.79426 9.0573 2.79682 8.7374 2.69406 8.44328C2.59129 8.14915 2.3894 7.89851 2.12193 7.73301C1.85445 7.56751 1.53752 7.49713 1.22379 7.53356C0.91007 7.56999 0.618456 7.71104 0.397421 7.93326C0.176387 8.15548 0.0392438 8.44549 0.00878822 8.75509C-0.0216674 9.06468 0.0563987 9.37522 0.23001 9.63508C0.403622 9.89494 0.662323 10.0885 0.963114 10.1835C1.2639 10.2785 1.58867 10.2694 1.88343 10.1575L3.47363 11.6913C3.52759 11.7519 3.59409 11.8004 3.66866 11.8336C3.74323 11.8668 3.82416 11.884 3.90601 11.8839H7.66862V13.9552H2.64435C2.51296 13.6722 2.28719 13.442 2.00456 13.3028C1.72192 13.1636 1.39943 13.1238 1.09064 13.19C0.781857 13.2562 0.505367 13.4244 0.307099 13.6667C0.108831 13.909 0.000717478 14.2108 0.000717478 14.522C0.000717478 14.8332 0.108831 15.135 0.307099 15.3773C0.505367 15.6196 0.781857 15.7878 1.09064 15.854C1.39943 15.9202 1.72192 15.8804 2.00456 15.7412C2.28719 15.602 2.51296 15.3718 2.64435 15.0888H7.66833V17.16H3.90572C3.82387 17.1599 3.74294 17.177 3.66837 17.2103C3.59379 17.2435 3.5273 17.2921 3.47335 17.3527L1.88314 18.8864C1.60733 18.7817 1.3047 18.7665 1.01954 18.8433C0.73438 18.9201 0.481655 19.0847 0.298345 19.313C0.115035 19.5414 0.0107639 19.8216 0.000788845 20.1125C-0.00918619 20.4034 0.0756586 20.6898 0.242908 20.9298C0.410158 21.1699 0.651033 21.3509 0.930286 21.4464C1.20954 21.5419 1.51251 21.5469 1.79487 21.4607C2.07723 21.3745 2.32415 21.2016 2.4995 20.9672C2.67486 20.7329 2.76944 20.4494 2.76941 20.1583ZM23.3997 32.8363H13.8525C13.3643 30.4392 11.6179 28.9833 9.57406 24.4835C8.77269 22.7193 10.6174 21.689 11.8238 23.2045L14.148 26.1251V16.2662C14.1454 16.0966 14.1771 15.9283 14.2412 15.7709C14.3053 15.6136 14.4006 15.4703 14.5215 15.3495C14.6423 15.2287 14.7864 15.1328 14.9452 15.0673C15.1041 15.0019 15.2745 14.9682 15.4467 14.9682C15.619 14.9682 15.7894 15.0019 15.9483 15.0673C16.1071 15.1328 16.2512 15.2287 16.372 15.3495C16.4929 15.4703 16.5882 15.6136 16.6523 15.7709C16.7164 15.9283 16.7481 16.0966 16.7455 16.2662V23.0521C16.7506 22.7163 16.8897 22.3958 17.1327 22.1601C17.3757 21.9243 17.7032 21.7922 18.0443 21.7922C18.3855 21.7922 18.7129 21.9243 18.9559 22.1601C19.199 22.3958 19.338 22.7163 19.3431 23.0521V24.2254C19.3406 24.0559 19.3723 23.8875 19.4364 23.7301C19.5005 23.5728 19.5958 23.4295 19.7166 23.3087C19.8375 23.188 19.9815 23.092 20.1404 23.0266C20.2992 22.9611 20.4697 22.9274 20.6419 22.9274C20.8141 22.9274 20.9846 22.9611 21.1434 23.0266C21.3023 23.092 21.4463 23.188 21.5672 23.3087C21.6881 23.4295 21.7833 23.5728 21.8474 23.7301C21.9116 23.8875 21.9433 24.0559 21.9407 24.2254V25.3627C21.9381 25.1932 21.9698 25.0248 22.034 24.8674C22.0981 24.7101 22.1933 24.5668 22.3142 24.446C22.435 24.3252 22.5791 24.2293 22.7379 24.1639C22.8968 24.0984 23.0673 24.0647 23.2395 24.0647C23.4117 24.0647 23.5822 24.0984 23.741 24.1639C23.8999 24.2293 24.0439 24.3252 24.1648 24.446C24.2856 24.5668 24.3809 24.7101 24.445 24.8674C24.5091 25.0248 24.5408 25.1932 24.5383 25.3627V27.0991C24.5383 28.4586 24.379 31.0147 23.3986 32.8363H23.3997ZM13.9422 33.9699V35H23.0493V33.9699H13.9422ZM12.6623 7.98431V5.23136C12.666 4.50578 12.9614 3.81117 13.4838 3.29941C14.0062 2.78765 14.7131 2.50036 15.45 2.50036C16.1869 2.50036 16.8939 2.78765 17.4162 3.29941C17.9386 3.81117 18.234 4.50578 18.2377 5.23136V7.98431H12.6623Z" fill="#200B56"></path></svg>