<svg xmlns="http://www.w3.org/2000/svg" width="35" height="35" viewBox="0 0 35 35" fill="none"><path d="M17.5467 20.4167C16.905 20.4167 16.38 19.8917 16.38 19.25C16.38 18.6083 16.905 18.0833 17.5467 18.0833H21.0467C22.7033 16.975 24.6983 16.3333 26.8333 16.3333C28.0583 16.3333 29.2367 16.555 30.3333 16.9517V10.5H0V29.1667C0 29.8083 0.525 30.3333 1.16667 30.3333H16.9517C16.5667 29.2367 16.3333 28.0583 16.3333 26.8333C16.3333 24.4183 17.1617 22.19 18.5383 20.4167H17.5467ZM23.4033 12.5883H24.5C25.1417 12.5883 25.6667 13.1133 25.6667 13.755C25.6667 14.3967 25.1417 14.9217 24.5 14.9217H23.4033C22.7617 14.9217 22.2367 14.3967 22.2367 13.755C22.2367 13.1133 22.7617 12.5883 23.4033 12.5883ZM17.5467 12.5883H18.6433C19.285 12.5883 19.81 13.1133 19.81 13.755C19.81 14.3967 19.285 14.9217 18.6433 14.9217H17.5467C16.905 14.9217 16.38 14.3967 16.38 13.755C16.38 13.1133 16.905 12.5883 17.5467 12.5883ZM6.93 25.9H5.83333C5.19167 25.9 4.66667 25.375 4.66667 24.7333C4.66667 24.0917 5.19167 23.5667 5.83333 23.5667H6.93C7.57167 23.5667 8.09667 24.0917 8.09667 24.7333C8.09667 25.375 7.57167 25.9 6.93 25.9ZM6.93 20.405H5.83333C5.19167 20.405 4.66667 19.88 4.66667 19.2383C4.66667 18.5967 5.19167 18.0717 5.83333 18.0717H6.93C7.57167 18.0717 8.09667 18.5967 8.09667 19.2383C8.09667 19.88 7.57167 20.405 6.93 20.405ZM6.93 14.91H5.83333C5.19167 14.91 4.66667 14.385 4.66667 13.7433C4.66667 13.1017 5.19167 12.5767 5.83333 12.5767H6.93C7.57167 12.5767 8.09667 13.1017 8.09667 13.7433C8.09667 14.385 7.57167 14.91 6.93 14.91ZM12.7867 25.8883H11.69C11.0483 25.8883 10.5233 25.3633 10.5233 24.7217C10.5233 24.08 11.0483 23.555 11.69 23.555H12.7867C13.4283 23.555 13.9533 24.08 13.9533 24.7217C13.9533 25.3633 13.4283 25.8883 12.7867 25.8883ZM12.7867 20.3933H11.69C11.0483 20.3933 10.5233 19.8683 10.5233 19.2267C10.5233 18.585 11.0483 18.06 11.69 18.06H12.7867C13.4283 18.06 13.9533 18.585 13.9533 19.2267C13.9533 19.8683 13.4283 20.3933 12.7867 20.3933ZM12.7867 14.8983H11.69C11.0483 14.8983 10.5233 14.3733 10.5233 13.7317C10.5233 13.09 11.0483 12.565 11.69 12.565H12.7867C13.4283 12.565 13.9533 13.09 13.9533 13.7317C13.9533 14.3733 13.4283 14.8983 12.7867 14.8983Z" fill="#200B56"></path><path d="M30.3333 4.66667C30.3333 4.025 29.8083 3.5 29.1667 3.5H28.5833V1.16667C28.5833 0.525 28.0583 0 27.4167 0C26.775 0 26.25 0.525 26.25 1.16667V3.5H22.75V1.16667C22.75 0.525 22.225 0 21.5833 0C20.9417 0 20.4167 0.525 20.4167 1.16667V3.5H16.9167V1.16667C16.9167 0.525 16.3917 0 15.75 0C15.1083 0 14.5833 0.525 14.5833 1.16667V3.5H11.0833V1.16667C11.0833 0.525 10.5583 0 9.91667 0C9.275 0 8.75 0.525 8.75 1.16667V3.5H5.25V1.16667C5.25 0.525 4.725 0 4.08333 0C3.44167 0 2.91667 0.525 2.91667 1.16667V3.5H1.16667C0.525 3.5 0 4.025 0 4.66667V8.16667H30.3333V4.66667Z" fill="#200B56"></path><path d="M26.8307 18.668C22.3274 18.668 18.6641 22.3313 18.6641 26.8346C18.6641 31.338 22.3274 35.0013 26.8307 35.0013C31.3341 35.0013 34.9974 31.338 34.9974 26.8346C34.9974 22.3313 31.3341 18.668 26.8307 18.668ZM29.9924 29.9963C29.7591 30.2296 29.4674 30.3346 29.1641 30.3346C28.8607 30.3346 28.5691 30.218 28.3357 29.9963L26.0024 27.663C25.7807 27.4413 25.6641 27.1496 25.6641 26.8346V23.3346C25.6641 22.693 26.1891 22.168 26.8307 22.168C27.4724 22.168 27.9974 22.693 27.9974 23.3346V26.3563L29.9924 28.3513C30.4474 28.8063 30.4474 29.5413 29.9924 29.9963Z" fill="#200B56"></path></svg>