<svg xmlns="http://www.w3.org/2000/svg" width="41" height="35" viewBox="0 0 41 35" fill="none"><path d="M34.6553 0.348364C34.1908 -0.116201 33.4378 -0.116042 32.9733 0.348364C32.5089 0.812849 32.5089 1.56587 32.9734 2.03036C36.358 5.41488 38.2219 9.91495 38.2219 14.7016C38.2219 15.3584 38.7545 15.8909 39.4113 15.8909C40.0682 15.8909 40.6006 15.3584 40.6006 14.7016C40.6006 9.27952 38.4892 4.18215 34.6553 0.348364Z" fill="#200B56"></path><path d="M7.6271 0.348364C7.16254 -0.116201 6.40961 -0.116042 5.94505 0.348364C2.1114 4.18239 0 9.27968 0 14.7015C0 15.3583 0.532509 15.8909 1.18934 15.8909C1.84618 15.8909 2.37869 15.3583 2.37869 14.7015C2.37869 9.91511 4.24262 5.41504 7.6271 2.03036C8.09158 1.56587 8.09158 0.812849 7.6271 0.348364Z" fill="#200B56"></path><path d="M29.3639 3.94795C28.8995 4.41244 28.8995 5.16546 29.364 5.63003C31.7863 8.05212 33.1203 11.2726 33.1203 14.6983C33.1203 15.3551 33.6528 15.8876 34.3096 15.8876C34.9665 15.8876 35.4989 15.3551 35.4989 14.6983C35.4989 10.6372 33.9175 6.81931 31.046 3.94787C30.5815 3.48347 29.8284 3.48355 29.3639 3.94795Z" fill="#200B56"></path><path d="M11.236 3.94983C10.7716 3.48542 10.0185 3.4855 9.55407 3.94991C6.68283 6.8215 5.10156 10.6391 5.10156 14.6996C5.10156 15.3564 5.63415 15.889 6.29091 15.889C6.94782 15.889 7.48025 15.3564 7.48025 14.6996C7.48025 11.2745 8.81414 8.05408 11.2361 5.6319C11.7005 5.16734 11.7005 4.41423 11.236 3.94983Z" fill="#200B56"></path><path d="M30.402 23.3414V17.2525C30.402 15.0315 29.6949 12.9241 28.3572 11.1579C27.239 9.68178 25.7142 8.52857 24.0011 7.85C23.7625 6.01744 22.1916 4.59766 20.2952 4.59766C18.3987 4.59766 16.8277 6.01744 16.5893 7.85C14.8761 8.52857 13.3513 9.68178 12.2332 11.1579C10.8955 12.9241 10.1884 15.0315 10.1884 17.2525V23.3414L7.76615 28.186C7.58188 28.5546 7.60155 28.9926 7.81817 29.3432C8.03486 29.6939 8.41775 29.9073 8.8299 29.9073H31.7604C32.1727 29.9073 32.5555 29.6939 32.7722 29.3432C32.9889 28.9926 33.0086 28.5547 32.8243 28.186L30.402 23.3414Z" fill="#200B56"></path><path d="M20.2951 35.0003C22.4363 35.0003 24.3298 33.9233 25.4651 32.2832H15.125C16.2603 33.9233 18.1539 35.0003 20.2951 35.0003Z" fill="#200B56"></path></svg>