<svg xmlns="http://www.w3.org/2000/svg" width="40" height="40" viewBox="0 0 40 40" fill="none"><path fill-rule="evenodd" clip-rule="evenodd" d="M27.765 34.3529C29.0304 34.3529 30.2122 33.9959 31.2158 33.3774C31.5445 33.1749 31.9566 33.2231 32.2296 33.4961L33.5152 34.7817L34.7817 33.5152L33.4961 32.2296C33.2231 31.9566 33.1748 31.5444 33.3774 31.2159C33.9959 30.2124 34.3528 29.0305 34.3528 27.7651C34.3528 24.1268 31.4033 21.1773 27.765 21.1773C24.1266 21.1773 21.1772 24.1268 21.1772 27.7651C21.1772 31.4035 24.1266 34.3529 27.765 34.3529H27.765ZM27.9028 1.86798L23.1357 5.48444C22.9897 5.18584 22.7868 4.92025 22.541 4.70165L27.3416 1.05992L26.8203 0.981811C26.5508 0.942387 26.3642 0.691934 26.4036 0.422387C26.4431 0.152839 26.6935 -0.0336626 26.9631 0.00576129L28.6413 0.257119C28.9108 0.296543 29.0973 0.546996 29.0579 0.816543L28.8065 2.49473C28.7671 2.76428 28.5166 2.95078 28.2471 2.91136C27.9776 2.87193 27.7911 2.62148 27.8305 2.35193L27.903 1.86798H27.9028ZM18.36 6.17432L15.2958 5.0121C15.4685 4.73613 15.5894 4.42453 15.6453 4.09095L18.7095 5.25325C18.5368 5.52922 18.4158 5.84074 18.3599 6.1744L18.36 6.17432ZM11.3728 5.47811L7.76616 7.94058C7.63488 7.6335 7.44468 7.35761 7.20978 7.12716L10.8165 4.66469C10.9478 4.97177 11.138 5.24765 11.3729 5.47811H11.3728ZM0.493826 32.3595C0.22107 32.3595 0 32.1384 0 31.8657V0.493827C0 0.22107 0.22107 0 0.493826 0C0.766583 0 0.987652 0.22107 0.987652 0.493827V31.3718H21.1019C21.2898 31.7183 21.5044 32.0482 21.7422 32.3594H0.493826V32.3595ZM19.2087 12.3681H22.5081C22.9614 12.3681 23.3311 12.7378 23.3311 13.1911V21.623C20.9242 23.3638 19.7057 26.3872 20.3664 29.3965H19.2087C18.7554 29.3965 18.3856 29.0268 18.3856 28.5735V13.1911C18.3856 12.7378 18.7554 12.3681 19.2087 12.3681ZM3.786 15.0084C3.33267 15.0084 2.96296 15.3781 2.96296 15.8314V28.5735C2.96296 29.0268 3.33267 29.3965 3.786 29.3965H7.08534C7.53867 29.3965 7.90838 29.0268 7.90838 28.5735V15.8314C7.90838 15.378 7.53867 15.0083 7.08534 15.0083H3.786V15.0084ZM11.4973 9.06782C11.044 9.06782 10.6743 9.43753 10.6743 9.89086V28.5735C10.6743 29.0268 11.044 29.3965 11.4973 29.3965H14.7967C15.25 29.3965 15.6197 29.0268 15.6197 28.5735V9.89086C15.6197 9.43753 15.25 9.06782 14.7967 9.06782H11.4973ZM26.92 5.76749H30.2194C30.6728 5.76749 31.0425 6.1372 31.0425 6.59054V20.9337C29.5209 20.2023 27.7734 19.9974 26.0971 20.3744V6.59054C26.0971 6.1372 26.4667 5.76749 26.92 5.76749ZM5.43571 7.38938C4.58205 7.38938 3.88995 8.0814 3.88995 8.93514C3.88995 9.78889 4.58205 10.4809 5.43571 10.4809C6.28937 10.4809 6.98147 9.78881 6.98147 8.93514C6.98147 8.08148 6.28945 7.38938 5.43571 7.38938ZM20.8585 5.04938C20.0048 5.04938 19.3127 5.7414 19.3127 6.59514C19.3127 7.44889 20.0047 8.14091 20.8585 8.14091C21.7122 8.14091 22.4042 7.44881 22.4042 6.59514C22.4042 5.74148 21.7122 5.04938 20.8585 5.04938ZM13.1471 2.12444C12.2934 2.12444 11.6014 2.81646 11.6014 3.67021C11.6014 4.52395 12.2934 5.21597 13.1471 5.21597C14.0009 5.21597 14.6929 4.52387 14.6929 3.67021C14.6929 2.81654 14.0009 2.12444 13.1471 2.12444ZM35.3772 34.3081C35.6337 34.0517 36.0519 34.0517 36.3084 34.3081L39.5874 37.5872C40.1375 38.1373 40.1375 39.0374 39.5874 39.5874C39.0373 40.1375 38.1372 40.1375 37.5872 39.5874L34.3082 36.3084C34.0517 36.052 34.0517 35.6337 34.3082 35.3772L35.3773 34.3081L35.3772 34.3081ZM27.7651 32.2192C25.3051 32.2192 23.3111 30.2252 23.3111 27.7652C23.3111 25.3052 25.3051 23.3112 27.7651 23.3112C30.2251 23.3112 32.2191 25.3052 32.2191 27.7652C32.2191 30.2252 30.2252 32.2192 27.7651 32.2192ZM31.6129 31.613C29.4878 33.7381 26.0426 33.7381 23.9174 31.613C21.7922 29.4878 21.7922 26.0426 23.9174 23.9174C26.0426 21.7923 29.4878 21.7923 31.6129 23.9174C33.7381 26.0426 33.7381 29.4879 31.6129 31.613Z" fill="#200B56"></path></svg>