<svg xmlns="http://www.w3.org/2000/svg" width="21" height="22" viewBox="0 0 21 22" fill="none"><path d="M20.9531 6.45312C20.9531 6.5 20.9531 6.5 20.9062 6.5H11.25V0.5H16.875C17.5312 0.5 18.0938 0.921875 18.3281 1.53125L20.9531 6.45312ZM9.75 6.5H0.046875C0 6.5 0 6.5 0 6.45312L2.625 1.53125C2.85938 0.921875 3.42188 0.5 4.07812 0.5H9.75V6.5ZM0 8H21V20C21 20.8438 20.2969 21.5 19.5 21.5H1.5C0.65625 21.5 0 20.8438 0 20V8ZM11.25 18.5C12.3281 18.5 13.2188 17.5625 13.2188 16.3906C13.2188 15.4531 12.6094 14.6094 11.7656 14.375L9.65625 13.7188C9.42188 13.6719 9.23438 13.4375 9.23438 13.1562C9.23438 12.7812 9.46875 12.5 9.79688 12.5H11.1094C11.2969 12.5 11.5312 12.5938 11.7188 12.6875C11.8594 12.7812 12.0469 12.7812 12.1875 12.6406L12.7031 12.125C12.8906 11.9844 12.8906 11.7031 12.7031 11.5625C12.2812 11.2344 11.7656 11.0469 11.2031 11.0469V10.25C11.2031 10.0625 11.0625 9.875 10.8281 9.875H10.0781C9.89062 9.875 9.70312 10.0625 9.70312 10.25V11.0469C8.625 11.0469 7.73438 11.9844 7.73438 13.1562C7.73438 14.0938 8.34375 14.9375 9.1875 15.1719L11.2969 15.8281C11.5781 15.875 11.7188 16.1094 11.7188 16.3906C11.7188 16.7656 11.4844 17.0469 11.1562 17.0469H9.84375C9.65625 17.0469 9.42188 16.9531 9.23438 16.8594C9.09375 16.7656 8.90625 16.7656 8.76562 16.9062L8.25 17.4219C8.0625 17.5625 8.0625 17.8438 8.25 17.9844C8.67188 18.3125 9.1875 18.5 9.75 18.5V19.25C9.75 19.4844 9.89062 19.625 10.125 19.625H10.875C11.0625 19.625 11.25 19.4844 11.25 19.25V18.5Z" fill="#200B56"></path></svg>