<svg xmlns="http://www.w3.org/2000/svg" width="39" height="40" viewBox="0 0 39 40" fill="none"><path fill-rule="evenodd" clip-rule="evenodd" d="M34.0484 30.3113C36.722 30.3113 38.8927 32.482 38.8927 35.1557C38.8927 37.8293 36.722 40 34.0484 40C31.3748 40 29.2041 37.8293 29.2041 35.1557C29.2041 32.482 31.3748 30.3113 34.0484 30.3113ZM31.4226 35.7572L32.6791 37.0116C32.9306 37.2626 33.3347 37.2723 33.5979 37.0337L36.651 34.2655C36.9236 34.0183 36.9443 33.5963 36.6971 33.3238C36.4499 33.0513 36.028 33.0306 35.7554 33.2777L33.1722 35.6198L32.3646 34.8136C32.1042 34.5536 31.6817 34.554 31.4217 34.8143C31.1618 35.0748 31.1622 35.4972 31.4226 35.7572ZM4.84425 30.3113C7.51792 30.3113 9.68858 32.482 9.68858 35.1557C9.68858 37.8293 7.51792 40 4.84425 40C2.17067 40 0 37.8293 0 35.1557C0 32.482 2.17067 30.3113 4.84425 30.3113ZM2.2185 35.7572L3.475 37.0116C3.72642 37.2626 4.13058 37.2723 4.39383 37.0337L7.44692 34.2655C7.7195 34.0183 7.74008 33.5963 7.493 33.3238C7.24583 33.0513 6.82383 33.0306 6.55125 33.2777L3.96808 35.6198L3.1605 34.8136C2.90008 34.5536 2.47767 34.554 2.21767 34.8143C1.95775 35.0748 1.95808 35.4972 2.2185 35.7572ZM4.84425 0C7.51792 0 9.68858 2.17067 9.68858 4.84433C9.68858 7.518 7.51792 9.68867 4.84425 9.68867C2.17067 9.68867 0 7.518 0 4.84433C0 2.17067 2.17067 0 4.84425 0ZM2.2185 5.44583L3.475 6.70025C3.72642 6.95125 4.13058 6.96092 4.39383 6.72233L7.44692 3.95408C7.7195 3.707 7.74008 3.285 7.493 3.01242C7.24583 2.73983 6.82383 2.71917 6.55125 2.96633L3.96808 5.3085L3.1605 4.50217C2.90008 4.24225 2.47767 4.24258 2.21767 4.503C1.95775 4.76342 1.95808 5.18583 2.2185 5.44583ZM34.0484 0C36.722 0 38.8927 2.17067 38.8927 4.84433C38.8927 7.518 36.722 9.68867 34.0484 9.68867C31.3748 9.68867 29.2041 7.518 29.2041 4.84433C29.2041 2.17067 31.3748 0 34.0484 0ZM31.4226 5.44583L32.6791 6.70025C32.9306 6.95125 33.3347 6.96092 33.5979 6.72233L36.651 3.95408C36.9236 3.707 36.9443 3.285 36.6971 3.01242C36.4499 2.73983 36.028 2.71917 35.7554 2.96633L33.1722 5.3085L32.3646 4.50217C32.1042 4.24225 31.6817 4.24258 31.4217 4.503C31.1618 4.76342 31.1622 5.18583 31.4226 5.44583ZM19.4463 7.24333L30.8783 12.1436V21.3877C30.8783 27.8203 26.1966 33.379 19.8629 34.4832L19.4463 34.556L19.0298 34.4832C12.6961 33.379 8.01433 27.8203 8.01433 21.3877V12.1436L19.4463 7.24333ZM13.8349 18.8574C13.3729 18.8574 12.9963 19.234 12.9963 19.6941V28.6164C12.9963 29.0784 13.3729 29.4531 13.8349 29.4531H25.0597C25.5217 29.4531 25.8963 29.0784 25.8963 28.6164V19.6941C25.8963 19.234 25.5217 18.8574 25.0597 18.8574H13.8349ZM19.4473 20.9715C20.3481 20.9715 21.078 21.7033 21.078 22.6042C21.078 23.1923 20.7693 23.7068 20.3034 23.9941V26.4829C20.3034 26.9547 19.9171 27.339 19.4473 27.339C18.9756 27.339 18.5912 26.9547 18.5912 26.4829V23.9941C18.1253 23.7068 17.8147 23.1923 17.8147 22.6042C17.8147 21.7033 18.5465 20.9715 19.4473 20.9715ZM21.9322 17.6074H24.0308V16.0983C24.0308 13.5765 21.9691 11.5128 19.4473 11.5128C16.9255 11.5128 14.8619 13.5765 14.8619 16.0983V17.6074H16.9624V16.0983C16.9624 14.7335 18.0845 13.6114 19.4473 13.6114C20.8101 13.6114 21.9322 14.7335 21.9322 16.0983V17.6074ZM3.21958 27.6921C3.362 28.0313 3.20208 28.4224 2.86275 28.5648C2.5235 28.7071 2.1325 28.5473 1.99008 28.2079C1.0465 25.9589 0.52475 23.4897 0.52475 20.8997C0.52475 17.6618 1.33992 14.6129 2.77567 11.9469C2.95017 11.623 3.35483 11.5016 3.67875 11.6761C4.00275 11.8505 4.12408 12.2552 3.94958 12.5792C2.61525 15.0568 1.85808 17.8906 1.85808 20.8997C1.85808 23.3069 2.34258 25.6018 3.21958 27.6921ZM26.2636 37.116C26.6026 36.9731 26.9939 37.1323 27.1367 37.4714C27.2797 37.8105 27.1204 38.2018 26.7813 38.3447C24.5252 39.2954 22.0467 39.8213 19.4463 39.8213C16.7211 39.8213 14.1297 39.2437 11.7878 38.2047C11.4514 38.0555 11.2995 37.6613 11.4487 37.325C11.5979 36.9887 11.9921 36.8368 12.3284 36.9859C14.505 37.9515 16.9135 38.4879 19.4463 38.4879C21.8631 38.4879 24.1667 37.9996 26.2636 37.116ZM34.9231 12.5422C34.7478 12.2186 34.8683 11.8137 35.1917 11.6384C35.5153 11.4632 35.9202 11.5836 36.0955 11.9071C37.5446 14.5826 38.3679 17.6458 38.3679 20.8997C38.3679 23.4899 37.8462 25.9593 36.9024 28.2083C36.76 28.5477 36.369 28.7075 36.0297 28.5652C35.6904 28.4228 35.5305 28.0317 35.6729 27.6925C36.55 25.6021 37.0346 23.307 37.0346 20.8997C37.0346 17.8756 36.2698 15.0287 34.9231 12.5422ZM12.7936 4.61508C12.4531 4.7545 12.0634 4.59117 11.924 4.25067C11.7846 3.91017 11.9478 3.52058 12.2883 3.38117C14.4969 2.47683 16.9138 1.97808 19.4463 1.97808C22.0318 1.97808 24.4967 2.49792 26.7424 3.43833C27.0818 3.58042 27.242 3.97133 27.0998 4.31075C26.9578 4.65017 26.5668 4.81033 26.2274 4.66817C24.1402 3.79417 21.8492 3.31142 19.4463 3.31142C17.0926 3.31142 14.8463 3.77458 12.7936 4.61508Z" fill="#200B56"></path></svg>