<svg xmlns="http://www.w3.org/2000/svg" width="40" height="40" viewBox="0 0 40 40" fill="none"><g clip-path="url(#clip0_4553_14499)"><path d="M40 20C40 14.6578 37.9196 9.63539 34.1422 5.85781C30.3646 2.08039 25.3422 0 20 0C16.0816 0 12.3358 1.12063 9.12648 3.20789C8.47922 2.61188 7.61594 2.24711 6.66883 2.24711C4.66625 2.24711 3.03703 3.87633 3.03703 5.87891C3.03703 6.7518 3.34672 7.55367 3.86188 8.1807C1.35492 11.5886 0 15.69 0 20C0 25.3422 2.08039 30.3646 5.85781 34.1422C9.63539 37.9196 14.6578 40 20 40C23.9184 40 27.6641 38.8794 30.8735 36.7921C31.5208 37.3881 32.3841 37.7529 33.3312 37.7529C35.3338 37.7529 36.963 36.1237 36.963 34.1211C36.963 33.2482 36.6533 32.4463 36.1381 31.8193C38.6451 28.4114 40 24.31 40 20ZM34.6192 34.1211C34.6192 34.8313 34.0414 35.4091 33.3312 35.4091C32.6209 35.4091 32.0431 34.8313 32.0431 34.1211C32.0431 33.4109 32.6209 32.833 33.3312 32.833C34.0414 32.833 34.6192 33.4109 34.6192 34.1211ZM33.3312 30.4893C31.3286 30.4893 29.6994 32.1185 29.6994 34.1211C29.6994 34.3229 29.7166 34.5206 29.7484 34.7135C28.2008 35.7423 26.4824 36.5334 24.6455 37.0348C25.2755 36.1307 25.8518 35.0303 26.3607 33.7449C27.0063 32.1143 27.5235 30.2507 27.9 28.2324H35.6155C35.1802 29.0547 34.6827 29.8391 34.1279 30.5784C33.8713 30.5207 33.6048 30.4893 33.3312 30.4893ZM15.8185 32.8821C15.4856 32.0412 15.1897 31.1305 14.9323 30.1629C15.6513 29.7241 16.2058 29.042 16.4826 28.2324H25.5149C25.1755 29.933 24.7281 31.5015 24.1815 32.8821C22.9979 35.8715 21.4348 37.6562 20 37.6562C18.5652 37.6562 17.002 35.8715 15.8185 32.8821ZM3.35477 25.8887C2.70094 24.0459 2.34375 22.0641 2.34375 20C2.34375 18.0358 2.66656 16.1456 3.26117 14.3794H11.702C11.4857 16.1812 11.3737 18.0702 11.3737 20C11.3737 21.2779 11.423 22.5378 11.5189 23.7665C10.6266 24.1818 9.93055 24.9488 9.60914 25.8887H3.35477ZM5.38078 5.87891C5.38078 5.16867 5.95859 4.59086 6.66883 4.59086C7.37906 4.59086 7.95687 5.16867 7.95687 5.87891C7.95687 6.58914 7.37906 7.16695 6.66883 7.16695C5.95859 7.16695 5.38078 6.58914 5.38078 5.87891ZM6.66883 9.5107C8.67141 9.5107 10.3006 7.88148 10.3006 5.87891C10.3006 5.67711 10.2834 5.47945 10.2516 5.28656C11.7992 4.25773 13.5176 3.46672 15.3545 2.96516C14.7247 3.8693 14.1483 4.96969 13.6394 6.25508C12.9653 7.95766 12.4313 9.91422 12.0512 12.0355H4.245C4.71219 11.1152 5.25719 10.2408 5.87219 9.42156C6.12875 9.4793 6.39508 9.5107 6.66883 9.5107ZM24.1815 7.11789C24.5409 8.02578 24.8571 9.01555 25.1283 10.07C24.3801 10.507 23.8019 11.2036 23.5173 12.0356H14.433C14.7782 10.2318 15.2432 8.5707 15.8184 7.11789C17.002 4.12852 18.5652 2.34375 20 2.34375C21.4348 2.34375 22.9979 4.12852 24.1815 7.11789ZM36.7388 14.3794C37.3334 16.1456 37.6562 18.0358 37.6562 20C37.6562 22.0641 37.2991 24.0459 36.6452 25.8887H28.2645C28.5024 24.0064 28.6263 22.0258 28.6263 20C28.6263 18.8118 28.5834 17.6393 28.5002 16.4928C29.3834 16.0755 30.0717 15.3125 30.3908 14.3794H36.7388ZM16.4826 25.8887C16.0787 24.7075 15.0827 23.7993 13.8498 23.5195C13.7624 22.3731 13.7174 21.1959 13.7174 20C13.7174 18.0598 13.8355 16.1689 14.0623 14.3794H23.5174C23.9235 15.5669 24.928 16.4786 26.17 16.7531C26.2443 17.8133 26.2826 18.8987 26.2826 20.0001C26.2826 22.0374 26.1523 24.0204 25.9027 25.8888H16.4826V25.8887ZM11.7578 27.0605C11.7578 26.3503 12.3356 25.7725 13.0459 25.7725C13.7561 25.7725 14.3339 26.3503 14.3339 27.0605C14.3339 27.7708 13.7561 28.3486 13.0459 28.3486C12.3356 28.3486 11.7578 27.7708 11.7578 27.0605ZM28.2422 13.2075C28.2422 13.9177 27.6644 14.4955 26.9541 14.4955C26.2439 14.4955 25.6661 13.9177 25.6661 13.2075C25.6661 12.4973 26.2439 11.9195 26.9541 11.9195C27.6644 11.9195 28.2422 12.4972 28.2422 13.2075ZM35.755 12.0356H30.3909C29.9515 10.7508 28.8114 9.78891 27.4283 9.60766C27.1258 8.41031 26.769 7.28617 26.3608 6.25516C25.8519 4.96977 25.2755 3.8693 24.6456 2.96523C29.496 4.28938 33.5209 7.63414 35.755 12.0356ZM4.38453 28.2324H9.60914C10.0561 29.5395 11.228 30.5127 12.6434 30.6695C12.9302 31.7633 13.2627 32.7939 13.6393 33.7448C14.1482 35.0302 14.7246 36.1307 15.3545 37.0348C10.603 35.7377 6.6443 32.5014 4.38453 28.2324Z" fill="#200B56"></path></g><defs><clipPath id="clip0_4553_14499"><rect width="40" height="40" fill="white"></rect></clipPath></defs></svg>