<svg xmlns="http://www.w3.org/2000/svg" width="40" height="45" viewBox="0 0 40 45" fill="none"><path d="M13.2999 15.6142C12.7214 16.4428 12.2928 17.3713 12.0499 18.3856L10 18.6427V21.3641L11.9285 21.607C12.1071 22.7212 12.5071 23.7569 13.0856 24.6712L11.9642 26.1069L13.8927 28.0354L15.2641 26.9711C16.1927 27.6354 17.2641 28.1068 18.4212 28.3354L18.6355 29.9997H21.3568L21.5711 28.3354C22.7282 28.1068 23.7996 27.6354 24.7282 26.9711L26.0996 28.0354L28.0281 26.1069L26.9067 24.6712C27.4852 23.7569 27.8852 22.7212 28.0638 21.607L29.9994 21.3641V18.6427L27.9424 18.3856C27.6995 17.3713 27.2709 16.4428 26.6924 15.6142L28.0281 13.8999L26.0996 11.9714L24.3067 13.3642C23.4996 12.8642 22.6068 12.4857 21.6425 12.2928L21.3568 10H18.6355L18.3498 12.2928C17.3855 12.4857 16.4927 12.8642 15.6856 13.3642L13.8927 11.9714L11.9642 13.8999L13.2999 15.6142ZM19.9997 16.0642C22.3425 16.0642 24.2353 17.9642 24.2353 20.307C24.2353 22.6498 22.3425 24.5498 19.9997 24.5498C17.6498 24.5498 15.757 22.6498 15.757 20.307C15.757 17.9642 17.6498 16.0642 19.9997 16.0642Z" fill="#200B56"></path><path d="M2.14062 37.1414C2.14062 38.72 3.41916 39.9985 4.99769 39.9985H34.9968C36.5754 39.9985 37.8539 38.72 37.8539 37.1414V35.7129H2.14062V37.1414Z" fill="#200B56"></path><path d="M29.2852 43.5725H26.4281V41.4297H13.5713V43.5725H10.7143C10.3143 43.5725 10 43.8939 10 44.2868C10 44.6868 10.3143 45.0011 10.7143 45.0011H29.2852C29.678 45.0011 29.9994 44.6868 29.9994 44.2868C29.9994 43.8939 29.678 43.5725 29.2852 43.5725Z" fill="#200B56"></path><path d="M28.5848 6.43003H31.4276C31.4704 6.43003 31.5061 6.41575 31.549 6.4086C31.8347 7.25145 32.6275 7.86572 33.5704 7.86572C34.756 7.86572 35.7132 6.9086 35.7132 5.7229C35.7132 4.53721 34.756 3.58008 33.5704 3.58008C32.6275 3.58008 31.8418 4.18721 31.549 5.03005C31.5133 5.01577 31.4704 5.00148 31.4276 5.00148H27.8705C27.4777 5.00148 27.1562 5.32291 27.1562 5.71576V11.0085L28.5848 12.4442V6.43003Z" fill="#200B56"></path><path d="M37.8581 9.28516C36.9152 9.28516 36.1296 9.89229 35.8367 10.7351C35.7938 10.728 35.7581 10.7137 35.7153 10.7137H32.8582C32.4582 10.7137 32.144 11.0351 32.144 11.428V19.285H31.4297V20.7135H32.8582C33.2511 20.7135 33.5725 20.3993 33.5725 19.9993V12.1423H35.7153C35.7581 12.1423 35.7938 12.128 35.8367 12.1208C36.1224 12.9637 36.9152 13.5779 37.8581 13.5779C39.0438 13.5779 40.0009 12.6208 40.0009 11.4351C40.0009 10.2494 39.0438 9.28516 37.8581 9.28516Z" fill="#200B56"></path><path d="M4.16417 12.1137C4.20703 12.1208 4.24274 12.1351 4.29274 12.1351H6.43553V19.9921C6.43553 20.3921 6.74981 20.7064 7.1498 20.7064H8.57833V19.2779H7.86407V11.4208C7.86407 11.028 7.54265 10.7066 7.1498 10.7066H4.29274C4.24988 10.7066 4.20703 10.7208 4.16417 10.7351C3.87132 9.89229 3.08563 9.28516 2.1428 9.28516C0.957116 9.28516 0 10.2423 0 11.428C0 12.6137 0.957116 13.5708 2.1428 13.5708C3.08563 13.5708 3.87846 12.9637 4.16417 12.1137Z" fill="#200B56"></path><path d="M6.42405 7.85596C7.36688 7.85596 8.15971 7.24168 8.44542 6.39884C8.48828 6.40598 8.52399 6.42027 8.57399 6.42027H11.4096V12.4345L12.8382 10.9988V5.71313C12.8382 5.32028 12.5167 4.99886 12.1239 4.99886H8.56684C8.52399 4.99886 8.48113 5.01315 8.43828 5.02743C8.15257 4.17745 7.36688 3.57031 6.42405 3.57031C5.23837 3.57031 4.28125 4.52744 4.28125 5.71313C4.28125 6.89883 5.23837 7.85596 6.42405 7.85596Z" fill="#200B56"></path><path d="M19.3308 4.17136C19.3093 4.2285 19.2879 4.28564 19.2879 4.34993V8.57129H20.7164V4.34993C20.7164 4.28564 20.695 4.2285 20.6807 4.17136C21.5307 3.87851 22.145 3.08566 22.145 2.14282C22.145 0.957127 21.1879 0 20.0022 0C18.8165 0 17.8594 0.957127 17.8594 2.14282C17.8594 3.09281 18.4736 3.88565 19.3308 4.17136Z" fill="#200B56"></path><path d="M34.9968 15.7148V20.0005C34.9968 21.1862 34.0326 22.1433 32.854 22.1433H31.4255V22.6219L29.2399 22.9004C29.0827 23.4647 28.8756 24.0147 28.6113 24.5361L29.9327 26.2218L26.2185 29.936L24.64 28.7146C24.0757 29.0289 23.4829 29.2861 22.8615 29.4789L22.6115 31.4289H17.3759L17.1259 29.4789C16.5045 29.2861 15.9117 29.0289 15.3474 28.7146L13.7689 29.936L10.0618 26.2218L11.3761 24.5361C11.1118 24.0147 10.9047 23.4647 10.7475 22.9004L8.56902 22.6219V22.1433H7.14048C5.9548 22.1433 4.99769 21.1862 4.99769 20.0005V15.7148C4.20485 15.7148 3.49059 16.0363 2.97632 16.5505C2.46204 17.072 2.14062 17.7862 2.14062 18.5719V34.286H37.8539V18.5719C37.8539 17.0005 36.5682 15.7148 34.9968 15.7148Z" fill="#200B56"></path></svg>