<svg xmlns="http://www.w3.org/2000/svg" width="41" height="40" viewBox="0 0 41 40" fill="none"><path d="M39.8857 27.1833L34.3623 23.9996L39.8857 20.8084C40.0255 20.727 40.1415 20.6103 40.2221 20.4699C40.3028 20.3296 40.3452 20.1706 40.3452 20.0088C40.3452 19.847 40.3028 19.688 40.2221 19.5477C40.1415 19.4074 40.0255 19.2907 39.8857 19.2092L34.3697 16.0181L39.8561 12.8492C40.0112 12.769 40.1398 12.6455 40.2263 12.4938C40.2875 12.3888 40.3275 12.2727 40.344 12.1523C40.3604 12.0318 40.3529 11.9093 40.322 11.7917C40.291 11.6741 40.2372 11.5638 40.1636 11.467C40.09 11.3703 39.9981 11.2889 39.8931 11.2277L20.6427 0.121747C20.5016 0.0419401 20.3422 0 20.18 0C20.0178 0 19.8584 0.0419401 19.7172 0.121747L0.466921 11.2277C0.325367 11.3087 0.207724 11.4256 0.125904 11.5667C0.044084 11.7078 0.000992774 11.868 0.000992774 12.031C0.000992774 12.1941 0.044084 12.3543 0.125904 12.4954C0.207724 12.6364 0.325367 12.7534 0.466921 12.8344L5.98288 16.0181L0.459517 19.2092C0.3197 19.2907 0.20369 19.4074 0.123061 19.5477C0.0424313 19.688 0 19.847 0 20.0088C0 20.1706 0.0424313 20.3296 0.123061 20.4699C0.20369 20.6103 0.3197 20.727 0.459517 20.8084L5.98288 23.9996L0.466921 27.1833C0.325367 27.2642 0.207724 27.3812 0.125904 27.5223C0.044084 27.6633 0.000992774 27.8235 0.000992774 27.9866C0.000992774 28.1497 0.044084 28.3099 0.125904 28.4509C0.207724 28.592 0.325367 28.7089 0.466921 28.7899L19.7172 39.8959C19.8563 39.9688 20.0119 40.0045 20.1689 39.9995C20.3326 39.9983 20.4932 39.9549 20.6353 39.8737L39.8857 28.7677C40.0254 28.6852 40.1411 28.5678 40.2215 28.4269C40.302 28.286 40.3443 28.1266 40.3443 27.9644C40.3443 27.8022 40.302 27.6428 40.2215 27.5019C40.1411 27.361 40.0254 27.2435 39.8857 27.1611V27.1833ZM2.76956 20.0088L7.82647 17.0917L19.6728 23.9477C19.812 24.0296 19.9704 24.0731 20.1319 24.0736C20.2956 24.0723 20.4562 24.029 20.5983 23.9477L32.4447 17.0917L37.5682 20.0088L20.1689 30.056L2.76956 20.0088ZM20.1689 38.0301L2.76956 27.9903L7.82647 25.0287L19.6728 31.8848C19.8119 31.9668 19.9704 32.0101 20.1319 32.0101C20.2933 32.0101 20.4519 31.9668 20.5909 31.8848L32.4743 25.0287L37.5312 27.9903L20.1689 38.0301Z" fill="#200B56"></path></svg>