<svg xmlns="http://www.w3.org/2000/svg" width="40" height="40" viewBox="0 0 40 40" fill="none"><path d="M31.5845 24.7791C30.7655 23.9265 29.7778 23.4706 28.7309 23.4706C27.6925 23.4706 26.6962 23.918 25.8435 24.7707L23.1757 27.43C22.9562 27.3118 22.7367 27.202 22.5256 27.0923C22.2217 26.9403 21.9347 26.7968 21.6898 26.6449C19.1908 25.0577 16.9198 22.9894 14.7416 20.3132C13.6863 18.9793 12.9771 17.8565 12.4621 16.7168C13.1544 16.0837 13.7961 15.4252 14.4208 14.792C14.6572 14.5556 14.8936 14.3108 15.13 14.0744C16.9029 12.3016 16.9029 10.0053 15.13 8.23243L12.8252 5.92771C12.5634 5.666 12.2933 5.39585 12.04 5.1257C11.5335 4.60229 11.0016 4.06199 10.4528 3.55546C9.63389 2.745 8.65456 2.31445 7.62457 2.31445C6.59458 2.31445 5.59836 2.745 4.75411 3.55546C4.74567 3.5639 4.74567 3.5639 4.73723 3.57234L1.86677 6.46801C0.786124 7.54861 0.16982 8.8656 0.0347397 10.3936C-0.167881 12.8588 0.558176 15.155 1.11538 16.6577C2.48307 20.347 4.52616 23.7661 7.57392 27.43C11.2717 31.8453 15.721 35.3319 20.8034 37.7886C22.7451 38.7088 25.337 39.7978 28.2328 39.9835C28.4101 39.992 28.5958 40.0004 28.7647 40.0004C30.7149 40.0004 32.3527 39.2997 33.636 37.9067C33.6444 37.8899 33.6613 37.8814 33.6698 37.8645C34.1088 37.3327 34.6153 36.8515 35.1472 36.3365C35.5102 35.9904 35.8817 35.6274 36.2447 35.2475C37.0805 34.3779 37.5196 33.3648 37.5196 32.3265C37.5196 31.2796 37.0721 30.275 36.2194 29.4308L31.5845 24.7791ZM34.6069 33.6688C34.5984 33.6688 34.5984 33.6772 34.6069 33.6688C34.2776 34.0233 33.9399 34.3441 33.5769 34.6987C33.0281 35.2221 32.4709 35.7709 31.9475 36.3872C31.0948 37.2989 30.0901 37.7295 28.7731 37.7295C28.6465 37.7295 28.5114 37.7295 28.3847 37.721C25.8773 37.5606 23.5472 36.5813 21.7996 35.7455C17.0211 33.4324 12.8252 30.1484 9.3384 25.9864C6.4595 22.5166 4.53461 19.3086 3.25978 15.8642C2.47463 13.7621 2.18758 12.1243 2.31422 10.5794C2.39865 9.59163 2.77856 8.77273 3.47929 8.07203L6.35819 5.19324C6.77188 4.8049 7.21089 4.59385 7.64146 4.59385C8.17334 4.59385 8.6039 4.91465 8.87406 5.1848C8.88251 5.19324 8.89095 5.20168 8.89939 5.21013C9.41439 5.69133 9.90405 6.18942 10.419 6.72128C10.6808 6.99143 10.9509 7.26158 11.2211 7.54017L13.5259 9.84489C14.4208 10.7398 14.4208 11.5671 13.5259 12.462C13.2811 12.7068 13.0447 12.9516 12.7998 13.188C12.0907 13.914 11.4153 14.5894 10.6808 15.2479C10.6639 15.2648 10.647 15.2732 10.6386 15.2901C9.91249 16.0161 10.0476 16.7253 10.1995 17.2065C10.208 17.2318 10.2164 17.2571 10.2249 17.2825C10.8243 18.7345 11.6685 20.1022 12.9518 21.7315L12.9602 21.7399C15.2904 24.6103 17.7472 26.8475 20.4572 28.5612C20.8034 28.7807 21.1579 28.958 21.4956 29.1269C21.7996 29.2788 22.0866 29.4223 22.3314 29.5743C22.3652 29.5912 22.399 29.6165 22.4328 29.6334C22.7198 29.7769 22.99 29.8445 23.2686 29.8445C23.9693 29.8445 24.4083 29.4055 24.5518 29.2619L27.4392 26.3747C27.7262 26.0877 28.1821 25.7415 28.714 25.7415C29.2374 25.7415 29.668 26.0708 29.9297 26.3578C29.9382 26.3663 29.9382 26.3663 29.9466 26.3747L34.5984 31.0264C35.468 31.8875 35.468 32.7739 34.6069 33.6688Z" fill="#200B56"></path><path d="M21.5866 9.51479C23.7985 9.88625 25.8079 10.9331 27.4119 12.5371C29.016 14.1411 30.0544 16.1504 30.4344 18.3622C30.5272 18.9194 31.0084 19.3077 31.5572 19.3077C31.6248 19.3077 31.6839 19.2993 31.7514 19.2909C32.3761 19.1895 32.7898 18.5986 32.6885 17.9739C32.2326 15.2977 30.9662 12.8579 29.0329 10.9246C27.0996 8.99137 24.6597 7.72504 21.9834 7.26916C21.3586 7.16786 20.7761 7.58153 20.6664 8.19781C20.5566 8.81409 20.9618 9.41348 21.5866 9.51479Z" fill="#200B56"></path><path d="M39.9284 17.6447C39.177 13.2379 37.1002 9.22781 33.9089 6.03666C30.7176 2.84551 26.7074 0.768731 22.3004 0.0173753C21.6841 -0.0923732 21.1016 0.329737 20.9918 0.946017C20.8905 1.57074 21.3042 2.15325 21.9289 2.263C25.8632 2.92993 29.4512 4.79566 32.3048 7.64068C35.1584 10.4941 37.0157 14.0821 37.6827 18.0161C37.7756 18.5733 38.2568 18.9617 38.8055 18.9617C38.8731 18.9617 38.9322 18.9532 38.9997 18.9448C39.616 18.8519 40.0382 18.261 39.9284 17.6447Z" fill="#200B56"></path></svg>