<svg xmlns="http://www.w3.org/2000/svg" width="21" height="24" viewBox="0 0 21 24" fill="none"><path d="M0.84375 12H0.796875C0.375 12 0 11.625 0 11.2031V11.1562V6.84375C0 6.42188 0.375 6 0.796875 6H0.84375H2.25V12H0.84375ZM20.1562 6C20.5781 6 21 6.42188 21 6.84375V11.1562V11.2031C21 11.625 20.5781 12 20.1562 12H18.75V6H20.1562ZM5.4375 15C4.5 15 3.75 14.25 3.75 13.3125V5.10938C3.75 3.98438 4.6875 3 5.8125 3H5.85938H9.65625V0.84375C9.65625 0.421875 10.0312 0 10.5 0C10.9219 0 11.3438 0.421875 11.3438 0.84375V3H15.1406C16.2656 3 17.25 3.98438 17.25 5.10938V13.3125C17.2031 14.25 16.4531 15 15.5625 15H5.4375ZM14.25 12.75V11.25H12.75V12.75H14.25ZM13.5 6C12.6562 6 12 6.70312 12 7.5C12 8.34375 12.6562 9 13.5 9C14.2969 9 15 8.34375 15 7.5C15 6.70312 14.2969 6 13.5 6ZM9.75 11.25V12.75H11.25V11.25H9.75ZM8.25 12.75V11.25H6.75V12.75H8.25ZM7.5 6C6.65625 6 6 6.70312 6 7.5C6 8.34375 6.65625 9 7.5 9C8.29688 9 9 8.34375 9 7.5C9 6.70312 8.29688 6 7.5 6ZM16.5 16.5C18.9375 16.5 21 18.5625 21 21V22.5C21 23.3438 20.2969 24 19.5 24H15V21C15 20.2031 14.2969 19.5 13.5 19.5H7.5C6.65625 19.5 6 20.2031 6 21V24H1.5C0.65625 24 0 23.3438 0 22.5V21C0 18.5625 2.01562 16.5 4.5 16.5H16.5ZM8.25 21C8.625 21 9 21.375 9 21.75V24H7.5V21.75C7.5 21.375 7.82812 21 8.25 21ZM12.75 21C13.125 21 13.5 21.375 13.5 21.75C13.5 22.1719 13.125 22.5 12.75 22.5C12.3281 22.5 12 22.1719 12 21.75C12 21.375 12.3281 21 12.75 21Z" fill="#200B56"></path></svg>