<svg xmlns="http://www.w3.org/2000/svg" width="40" height="40" viewBox="0 0 40 40" fill="none"><path fill-rule="evenodd" clip-rule="evenodd" d="M39.9999 19.9994C39.9999 25.3413 37.9196 30.3635 34.142 34.141C30.3638 37.9193 25.3415 40 20.0003 40C19.3322 40 18.7906 39.4584 18.7906 38.7903C18.7906 38.1222 19.3322 37.5806 20.0003 37.5806C24.6952 37.5806 29.11 35.7515 32.4312 32.4303C39.2856 25.5759 39.2856 14.423 32.4312 7.56861C25.5761 0.713635 14.4222 0.713715 7.56714 7.56861C7.51456 7.62119 7.46286 7.67458 7.41093 7.72789H8.93829C9.60637 7.72789 10.148 8.2695 10.148 8.93757C10.148 9.60564 9.60637 10.1473 8.93829 10.1473H4.48741C3.81934 10.1473 3.27771 9.60564 3.27771 8.93757V4.48673C3.27771 3.81866 3.81934 3.27704 4.48741 3.27704C5.15549 3.27704 5.69711 3.81866 5.69711 4.48673V6.02021C5.75009 5.96602 5.80276 5.91142 5.8563 5.85787C9.63395 2.08042 14.6566 0 19.9993 0C25.3419 0 30.3645 2.08034 34.1421 5.85787C37.9196 9.6354 40 14.6575 40 19.9994H39.9999ZM7.4223 19.9994C7.4223 13.0639 13.0648 7.42151 20.0003 7.42151C26.9358 7.42151 32.5783 13.0639 32.5783 19.9994C32.5783 26.935 26.9359 32.5774 20.0003 32.5774C13.0647 32.5774 7.4223 26.935 7.4223 19.9994ZM18.7906 19.9994C18.7906 20.4315 19.0211 20.8309 19.3953 21.0469L23.4918 23.4129C23.6824 23.523 23.8904 23.5753 24.0957 23.5753C24.5137 23.5753 24.9203 23.3583 25.1444 22.9704C25.4785 22.3919 25.2804 21.652 24.7019 21.3179L21.21 19.3012V13.617C21.21 12.9489 20.6684 12.4073 20.0003 12.4073C19.3322 12.4073 18.7906 12.9489 18.7906 13.617V19.9995V19.9994ZM2.41859 19.9994C2.41859 19.3342 1.8768 18.7902 1.20929 18.7902C0.541783 18.7902 0 19.3342 0 19.9994C0 20.6647 0.544041 21.2087 1.20929 21.2087C1.87455 21.2087 2.41859 20.6647 2.41859 19.9994ZM15.4489 36.9798C14.8042 36.8084 14.1413 37.1901 13.9676 37.8371C13.7961 38.4818 14.1779 39.1447 14.8225 39.3184C15.4694 39.4898 16.1324 39.1081 16.3038 38.4611C16.4775 37.8164 16.0958 37.1535 15.4489 36.9798ZM11.2106 35.2242C10.6299 34.8904 9.89153 35.0893 9.55782 35.6676C9.22402 36.246 9.42064 36.9867 9.99903 37.3204C10.5774 37.6541 11.3181 37.4552 11.6518 36.8769C11.9856 36.2985 11.789 35.5579 11.2106 35.2242ZM5.85679 32.4307C5.38589 32.9039 5.38589 33.6697 5.85679 34.1406C6.33002 34.6138 7.09584 34.6138 7.56899 34.1406C8.03989 33.6697 8.03989 32.9039 7.56899 32.4307C7.09576 31.9574 6.32994 31.9574 5.85679 32.4307ZM3.12271 28.3479C2.54432 28.6816 2.34544 29.42 2.67924 29.9984C3.01295 30.5768 3.75369 30.7757 4.33201 30.4419C4.9104 30.1081 5.10928 29.3674 4.77548 28.7891C4.44177 28.2107 3.70103 28.0118 3.12271 28.3479ZM3.01755 24.5486C2.84609 23.9039 2.18318 23.5222 1.53623 23.6937C0.891547 23.8674 0.507508 24.5304 0.681221 25.175C0.854933 25.8219 1.51793 26.2037 2.16253 26.0322C2.80722 25.8585 3.19134 25.1955 3.01755 24.5486ZM1.53623 16.3053C2.18318 16.4767 2.84609 16.095 3.01755 15.4504C3.19126 14.8034 2.80722 14.1405 2.16262 13.9667C1.51793 13.7953 0.855014 14.177 0.681301 14.824C0.507589 15.4687 0.891627 16.1316 1.53632 16.3053H1.53623Z" fill="#200B56"></path></svg>