<svg xmlns="http://www.w3.org/2000/svg" width="40" height="33" viewBox="0 0 40 33" fill="none"><path d="M39.9811 18.0007C40.0449 19.5231 39.5014 21.0086 38.4699 22.1314C37.4383 23.2541 36.003 23.9224 34.4787 23.9896C34.3895 23.9937 34.3006 23.9958 34.2117 23.9958C33.8067 23.9955 33.4029 23.9517 33.0073 23.8652C31.8334 25.6753 30.2941 27.2208 28.4879 28.4028C26.6817 29.5848 24.6484 30.3773 22.518 30.7296C22.266 31.4689 21.7633 32.097 21.0968 32.5054C20.4302 32.9138 19.6418 33.0768 18.8677 32.9662C18.0935 32.8557 17.3825 32.4784 16.8573 31.8998C16.3321 31.3211 16.0259 30.5774 15.9916 29.7972C15.9572 29.017 16.1969 28.2494 16.6692 27.6269C17.1415 27.0045 17.8167 26.5664 18.5781 26.3884C19.3395 26.2104 20.1393 26.3037 20.8391 26.6521C21.539 27.0005 22.0949 27.5822 22.4109 28.2966C25.4102 27.7426 28.1198 26.1551 30.0674 23.8107C32.015 21.4663 33.0771 18.5137 33.0686 15.4676C33.0686 8.27097 27.2061 2.41618 20 2.41618C12.7939 2.41618 6.93141 8.27097 6.93141 15.4676C6.93102 17.6929 7.50049 19.8813 8.58569 21.8248C8.62247 21.889 8.65008 21.9579 8.66771 22.0297C8.77253 22.3207 8.76132 22.6408 8.63641 22.9237C8.5115 23.2066 8.28245 23.4308 7.99666 23.5497C7.29686 23.8439 6.54525 23.9953 5.786 23.9952C5.69665 23.9952 5.60711 23.9931 5.51737 23.989C3.99373 23.921 2.55927 23.2523 1.52853 22.1297C0.497788 21.007 -0.0451042 19.5219 0.0188897 18.0001C0.0446156 17.3932 0.0302607 16.8518 0.0162284 16.3282C0.00316384 15.8352 -0.0104652 15.3254 0.0119542 14.7934C0.0788638 13.3075 0.718887 11.9051 1.79797 10.8799C2.87706 9.85474 4.31149 9.28629 5.80084 9.29366C8.19246 3.82892 13.6564 0 20 0C26.3436 0 31.8076 3.82891 34.1992 9.29374C35.6887 9.28526 37.1236 9.85321 38.2029 10.8784C39.2822 11.9036 39.9219 13.3065 39.988 14.7926C40.0105 15.3253 39.9969 15.8351 39.9837 16.328C39.9698 16.8517 39.9554 17.3934 39.9811 18.0007ZM30.1456 15.4676C30.145 17.0198 29.7874 18.5512 29.1005 19.9436C28.4135 21.3361 27.4155 22.5523 26.1834 23.4986C24.9513 24.4449 23.518 25.0959 21.9941 25.4015C20.4702 25.7071 18.8964 25.6591 17.394 25.2611L13.2875 27.6295C13.0803 27.749 12.8422 27.8045 12.6035 27.7889C12.3647 27.7733 12.136 27.6873 11.9461 27.5418C11.7563 27.3964 11.6139 27.1979 11.537 26.9717C11.4601 26.7454 11.4521 26.5014 11.5141 26.2706L12.5636 22.3606C10.8255 20.4844 9.85847 18.0235 9.85481 15.4676C9.85481 9.8791 14.4057 5.33298 20 5.33298C25.5943 5.33298 30.1456 9.8791 30.1456 15.4676ZM17.1794 15.4676C17.1794 15.1472 17.052 14.8399 16.8251 14.6133C16.5983 14.3867 16.2906 14.2595 15.9697 14.2595H15.9677C15.7286 14.2599 15.4949 14.3311 15.2963 14.4642C15.0976 14.5972 14.943 14.786 14.8517 15.0068C14.7605 15.2276 14.7369 15.4704 14.7838 15.7046C14.8308 15.9388 14.9461 16.1539 15.1154 16.3226C15.2847 16.4913 15.5002 16.6062 15.7348 16.6526C15.9694 16.699 16.2125 16.675 16.4334 16.5835C16.6543 16.492 16.8431 16.3371 16.976 16.1385C17.1088 15.9399 17.1797 15.7064 17.1797 15.4676H17.1794ZM21.2099 15.4676C21.2098 15.428 21.2077 15.3885 21.2035 15.3492C21.1997 15.3097 21.1938 15.2704 21.1858 15.2316C21.1786 15.1929 21.1689 15.1547 21.1567 15.1172C21.1455 15.0794 21.1318 15.0423 21.1173 15.0053C21.1027 14.9682 21.085 14.9336 21.0665 14.8989C21.048 14.8641 21.0278 14.8302 21.006 14.7975C20.9839 14.7643 20.9602 14.7324 20.9349 14.7016C20.9101 14.6708 20.8834 14.6415 20.8552 14.6138C20.8277 14.5857 20.7979 14.5591 20.7673 14.5333C20.7365 14.5091 20.7043 14.485 20.6712 14.4632C20.6384 14.4414 20.6045 14.4212 20.5697 14.4028C20.5349 14.3843 20.4987 14.3674 20.4623 14.3521C20.426 14.3369 20.3889 14.3237 20.3511 14.3126C20.2757 14.2884 20.1978 14.2728 20.1189 14.2659C20.0004 14.2545 19.8809 14.2602 19.764 14.2828C19.7251 14.2908 19.6867 14.3007 19.6488 14.3126C19.611 14.3237 19.5738 14.3369 19.5375 14.3521C19.5012 14.3674 19.4649 14.3843 19.4302 14.4028C19.3956 14.4214 19.3617 14.4415 19.3285 14.4632C19.2954 14.485 19.2632 14.5091 19.2335 14.5333C19.202 14.5591 19.173 14.5857 19.1448 14.6138C19.1165 14.6415 19.0898 14.6709 19.0648 14.7016C19.0399 14.7324 19.0165 14.7644 18.9948 14.7975C18.9726 14.8302 18.9521 14.8641 18.9335 14.8989C18.9149 14.9335 18.8981 14.9689 18.8834 15.0053C18.8681 15.0419 18.8546 15.0792 18.8431 15.1172C18.8319 15.1543 18.8222 15.1929 18.8141 15.2316C18.8061 15.2704 18.8002 15.3097 18.7963 15.3492C18.7923 15.3886 18.7906 15.4281 18.7906 15.4676C18.7906 15.507 18.7923 15.5473 18.7963 15.5868C18.8003 15.626 18.8062 15.6649 18.8141 15.7035C18.8222 15.7422 18.8319 15.7809 18.8431 15.8187C18.8546 15.8564 18.8681 15.8935 18.8834 15.9299C18.8981 15.9664 18.9149 16.0022 18.9335 16.037C18.9519 16.0716 18.973 16.1054 18.9948 16.1384C19.0165 16.1713 19.0399 16.203 19.0648 16.2335C19.09 16.2643 19.1166 16.2939 19.1448 16.3221C19.173 16.3495 19.202 16.3768 19.2335 16.4018C19.2638 16.427 19.2955 16.4504 19.3285 16.4719C19.3617 16.4936 19.3955 16.5146 19.4302 16.5331C19.5003 16.5695 19.5734 16.5997 19.6488 16.6233C19.6866 16.6346 19.7253 16.6442 19.764 16.6523C19.8418 16.6682 19.921 16.676 20.0003 16.6756C20.3208 16.6748 20.6279 16.5477 20.8552 16.3221C20.9109 16.2656 20.9614 16.2041 21.006 16.1384C21.0277 16.1054 21.0479 16.0716 21.0665 16.037C21.085 16.0023 21.1019 15.9661 21.1173 15.9299C21.1326 15.8936 21.1455 15.8558 21.1567 15.8187C21.1688 15.781 21.1785 15.7425 21.1858 15.7035C21.1937 15.6649 21.1996 15.626 21.2035 15.5868C21.2076 15.5471 21.2097 15.5073 21.2097 15.4674L21.2099 15.4676ZM25.2422 15.4676C25.2422 15.1472 25.1147 14.8399 24.8879 14.6133C24.661 14.3867 24.3533 14.2595 24.0325 14.2595H24.0302C23.791 14.2599 23.5574 14.3312 23.3588 14.4642C23.1601 14.5972 23.0054 14.7861 22.9142 15.0069C22.823 15.2276 22.7994 15.4705 22.8464 15.7047C22.8933 15.9389 23.0087 16.1539 23.178 16.3226C23.3472 16.4913 23.5628 16.6062 23.7974 16.6526C24.032 16.699 24.2751 16.675 24.496 16.5835C24.7169 16.492 24.9057 16.3371 25.0385 16.1385C25.1713 15.9399 25.2422 15.7064 25.2422 15.4676Z" fill="#200B56"></path></svg>