<svg width="1920" height="697" viewBox="0 0 1920 697" fill="none" xmlns="http://www.w3.org/2000/svg">
<mask id="mask0_4351_23153" style="mask-type:alpha" maskUnits="userSpaceOnUse" x="0" y="0" width="1920" height="697">
<rect width="1920" height="697" fill="black"/>
</mask>
<g mask="url(#mask0_4351_23153)">
<g filter="url(#filter0_f_4351_23153)">
<path d="M2678 1134.5C2678 1057.35 2662.8 980.952 2633.28 909.673C2603.75 838.395 2560.48 773.629 2505.93 719.075C2451.37 664.52 2386.61 621.245 2315.33 591.721C2244.05 562.196 2167.65 547 2090.5 547C2013.35 547 1936.95 562.196 1865.67 591.721C1794.39 621.245 1729.63 664.52 1675.07 719.075C1620.52 773.629 1577.25 838.395 1547.72 909.674C1518.2 980.952 1503 1057.35 1503 1134.5L2090.5 1134.5H2678Z" fill="url(#paint0_linear_4351_23153)"/>
</g>
<g filter="url(#filter1_f_4351_23153)">
<path d="M1312 342.5C1312 235.67 1290.96 129.885 1250.08 31.187C1209.19 -67.5114 1149.27 -157.191 1073.73 -232.731C998.191 -308.272 908.511 -368.194 809.813 -409.076C711.115 -449.958 605.33 -471 498.5 -471C391.67 -471 285.885 -449.958 187.187 -409.076C88.4886 -368.194 -1.19095 -308.272 -76.7314 -232.731C-152.272 -157.191 -212.194 -67.5113 -253.076 31.1871C-293.958 129.885 -315 235.67 -315 342.5L498.5 342.5H1312Z" fill="url(#paint1_linear_4351_23153)"/>
</g>
</g>
<defs>
<filter id="filter0_f_4351_23153" x="1203" y="247" width="1775" height="1187.5" filterUnits="userSpaceOnUse" color-interpolation-filters="sRGB">
<feFlood flood-opacity="0" result="BackgroundImageFix"/>
<feBlend mode="normal" in="SourceGraphic" in2="BackgroundImageFix" result="shape"/>
<feGaussianBlur stdDeviation="150" result="effect1_foregroundBlur_4351_23153"/>
</filter>
<filter id="filter1_f_4351_23153" x="-615" y="-771" width="2227" height="1413.5" filterUnits="userSpaceOnUse" color-interpolation-filters="sRGB">
<feFlood flood-opacity="0" result="BackgroundImageFix"/>
<feBlend mode="normal" in="SourceGraphic" in2="BackgroundImageFix" result="shape"/>
<feGaussianBlur stdDeviation="150" result="effect1_foregroundBlur_4351_23153"/>
</filter>
<linearGradient id="paint0_linear_4351_23153" x1="1819.35" y1="610.269" x2="2361.65" y2="1667.77" gradientUnits="userSpaceOnUse">
<stop stop-color="#013EFE"/>
<stop offset="0.503322" stop-opacity="0.1"/>
<stop offset="1" stop-color="#013EFE"/>
</linearGradient>
<linearGradient id="paint1_linear_4351_23153" x1="123.038" y1="-383.392" x2="873.962" y2="1080.91" gradientUnits="userSpaceOnUse">
<stop stop-color="#013EFE"/>
<stop offset="0.503322" stop-opacity="0.1"/>
<stop offset="1" stop-color="#013EFE"/>
</linearGradient>
</defs>
</svg>
