<svg width="1920" height="1630" viewBox="0 0 1920 1630" fill="none" xmlns="http://www.w3.org/2000/svg">
<mask id="mask0_6034_1058" style="mask-type:alpha" maskUnits="userSpaceOnUse" x="0" y="0" width="1920" height="1630">
<rect width="1920" height="1630" fill="black"/>
</mask>
<g mask="url(#mask0_6034_1058)">
<g filter="url(#filter0_f_6034_1058)">
<path d="M2508 1915.5C2508 1838.35 2492.8 1761.95 2463.28 1690.67C2433.75 1619.39 2390.48 1554.63 2335.93 1500.07C2281.37 1445.52 2216.61 1402.25 2145.33 1372.72C2074.05 1343.2 1997.65 1328 1920.5 1328C1843.35 1328 1766.95 1343.2 1695.67 1372.72C1624.39 1402.25 1559.63 1445.52 1505.07 1500.07C1450.52 1554.63 1407.25 1619.39 1377.72 1690.67C1348.2 1761.95 1333 1838.35 1333 1915.5L1920.5 1915.5H2508Z" fill="url(#paint0_linear_6034_1058)"/>
</g>
<g filter="url(#filter1_f_6034_1058)">
<path d="M1774 880.5C1774 773.67 1752.96 667.885 1712.08 569.187C1671.19 470.489 1611.27 380.809 1535.73 305.269C1460.19 229.728 1370.51 169.806 1271.81 128.924C1173.11 88.0418 1067.33 67 960.5 67C853.67 67 747.885 88.0418 649.187 128.924C550.489 169.806 460.809 229.728 385.269 305.269C309.728 380.809 249.806 470.489 208.924 569.187C168.042 667.885 147 773.67 147 880.5L960.5 880.5H1774Z" fill="url(#paint1_linear_6034_1058)" fill-opacity="0.5"/>
</g>
</g>
<defs>
<filter id="filter0_f_6034_1058" x="1033" y="1028" width="1775" height="1187.5" filterUnits="userSpaceOnUse" color-interpolation-filters="sRGB">
<feFlood flood-opacity="0" result="BackgroundImageFix"/>
<feBlend mode="normal" in="SourceGraphic" in2="BackgroundImageFix" result="shape"/>
<feGaussianBlur stdDeviation="150" result="effect1_foregroundBlur_6034_1058"/>
</filter>
<filter id="filter1_f_6034_1058" x="-153" y="-233" width="2227" height="1413.5" filterUnits="userSpaceOnUse" color-interpolation-filters="sRGB">
<feFlood flood-opacity="0" result="BackgroundImageFix"/>
<feBlend mode="normal" in="SourceGraphic" in2="BackgroundImageFix" result="shape"/>
<feGaussianBlur stdDeviation="150" result="effect1_foregroundBlur_6034_1058"/>
</filter>
<linearGradient id="paint0_linear_6034_1058" x1="1649.35" y1="1391.27" x2="2191.65" y2="2448.77" gradientUnits="userSpaceOnUse">
<stop stop-color="#013EFE"/>
<stop offset="0.503322" stop-opacity="0.1"/>
<stop offset="1" stop-color="#013EFE"/>
</linearGradient>
<linearGradient id="paint1_linear_6034_1058" x1="585.038" y1="154.608" x2="1335.96" y2="1618.91" gradientUnits="userSpaceOnUse">
<stop stop-color="#013EFE"/>
<stop offset="0.503322" stop-opacity="0.1"/>
<stop offset="1" stop-color="#013EFE"/>
</linearGradient>
</defs>
</svg>
