<svg width="1080" height="581" viewBox="0 0 1080 581" fill="none" xmlns="http://www.w3.org/2000/svg">
<g clip-path="url(#clip0_10_26)">
<mask id="mask0_10_26" style="mask-type:luminance" maskUnits="userSpaceOnUse" x="0" y="0" width="1080" height="581">
<path d="M1080 0H0V581H1080V0Z" fill="white"/>
</mask>
<g mask="url(#mask0_10_26)">
<g filter="url(#filter0_f_10_26)">
<path d="M1080 907C1080 833.196 1060.62 760.117 1022.99 691.931C985.339 623.747 930.175 561.792 860.629 509.606C791.071 457.42 708.509 416.023 617.634 387.78C526.76 359.536 429.361 345 331 345C232.639 345 135.243 359.536 44.3695 387.78C-46.5024 416.023 -129.072 457.42 -198.623 509.606C-268.174 561.792 -323.346 623.747 -360.985 691.931C-398.627 760.117 -418 833.196 -418 907H331H1080Z" fill="url(#paint0_linear_10_26)"/>
</g>
</g>
</g>
<defs>
<filter id="filter0_f_10_26" x="-718" y="45" width="2098" height="1162" filterUnits="userSpaceOnUse" color-interpolation-filters="sRGB">
<feFlood flood-opacity="0" result="BackgroundImageFix"/>
<feBlend mode="normal" in="SourceGraphic" in2="BackgroundImageFix" result="shape"/>
<feGaussianBlur stdDeviation="150" result="effect1_foregroundBlur_10_26"/>
</filter>
<linearGradient id="paint0_linear_10_26" x1="-14.6925" y1="405.524" x2="413.522" y2="1518.39" gradientUnits="userSpaceOnUse">
<stop stop-color="#013EFE"/>
<stop offset="0.503322" stop-opacity="0.1"/>
<stop offset="1" stop-color="#013EFE"/>
</linearGradient>
<clipPath id="clip0_10_26">
<rect width="1080" height="581" fill="white"/>
</clipPath>
</defs>
</svg>
