<svg xmlns="http://www.w3.org/2000/svg" width="40" height="40" viewBox="0 0 40 40" fill="none"><path d="M11.9997 4H3.33301V5.33332H11.9997V4Z" fill="white"></path><path d="M11.9997 6.66797H3.33301V8.00129H11.9997V6.66797Z" fill="white"></path><path d="M9.33301 9.33398H3.33301V10.6673H9.33301V9.33398Z" fill="white"></path><path d="M9.33301 12H3.33301V13.3333H9.33301V12Z" fill="white"></path><path d="M40 38.666H0V39.9993H40V38.666Z" fill="white"></path><path d="M38.597 5.70248L35.9304 0.369208C35.7659 0.0397121 35.3657 -0.0941196 35.0362 0.0702951C35.036 0.0703784 35.0359 0.0704618 35.0357 0.0705451L29.7024 2.73718C29.3729 2.90176 29.2391 3.30234 29.4037 3.63184C29.5683 3.96133 29.9689 4.09508 30.2984 3.9305L34.161 2.00052L33.107 5.00982C28.4743 18.2037 16.5419 27.4599 2.61035 28.6669L2.72368 30.0002C17.1801 28.7479 29.5615 19.1416 34.3664 5.44981L35.4424 2.37518L37.4037 6.29847C37.5683 6.62796 37.9689 6.76171 38.2984 6.59713C38.6279 6.43255 38.7616 6.03206 38.597 5.70248Z" fill="white"></path><path d="M8.00033 32H3.33366C2.96549 32 2.66699 32.2985 2.66699 32.6667V36.6666C2.66699 37.0348 2.96549 37.3333 3.33366 37.3333H8.00033C8.36849 37.3333 8.66699 37.0348 8.66699 36.6666V32.6667C8.66699 32.2985 8.36849 32 8.00033 32ZM7.33366 36H4.00033V33.3333H7.33366V36Z" fill="white"></path><path d="M15.3333 30H10.6667C10.2985 30 10 30.2985 10 30.6667V36.6666C10 37.0347 10.2985 37.3332 10.6667 37.3332H15.3333C15.7015 37.3332 16 37.0347 16 36.6666V30.6667C16 30.2985 15.7015 30 15.3333 30ZM14.6667 35.9999H11.3333V31.3333H14.6667V35.9999Z" fill="white"></path><path d="M22.6663 26.666H17.9997C17.6315 26.666 17.333 26.9645 17.333 27.3327V36.6659C17.333 37.0341 17.6315 37.3326 17.9997 37.3326H22.6663C23.0345 37.3326 23.333 37.0341 23.333 36.6659V27.3327C23.333 26.9645 23.0345 26.666 22.6663 26.666ZM21.9997 35.9992H18.6663V27.9993H21.9997V35.9992Z" fill="white"></path><path d="M30.0003 22H25.3337C24.9655 22 24.667 22.2985 24.667 22.6667V36.6665C24.667 37.0346 24.9655 37.3331 25.3337 37.3331H30.0003C30.3685 37.3331 30.667 37.0346 30.667 36.6665V22.6667C30.667 22.2985 30.3685 22 30.0003 22ZM29.3337 35.9998H26.0003V23.3333H29.3337V35.9998Z" fill="white"></path><path d="M37.3333 12.668H32.6667C32.2985 12.668 32 12.9665 32 13.3346V36.6677C32 37.0358 32.2985 37.3343 32.6667 37.3343H37.3333C37.7015 37.3343 38 37.0358 38 36.6677V13.3346C38 12.9665 37.7015 12.668 37.3333 12.668ZM36.6667 36.001H33.3333V14.0013H36.6667V36.001Z" fill="white"></path></svg>