<svg xmlns="http://www.w3.org/2000/svg" width="40" height="40" viewBox="0 0 40 40" fill="none"><g clip-path="url(#clip0_6034_17862)"><path d="M38.8278 40H1.17187C0.524683 40 0 39.4753 0 38.8281C0 38.1809 0.524683 37.6562 1.17187 37.6562H38.8278C39.475 37.6562 39.9997 38.1809 39.9997 38.8281C39.9997 39.4753 39.475 40 38.8278 40Z" fill="#3A6EF2"></path><path d="M8.2812 39.9999H3.59374C2.94656 39.9999 2.42188 39.4752 2.42188 38.828V30.2344C2.42188 29.1574 3.29804 28.2812 4.37498 28.2812H7.49996C8.5769 28.2812 9.45307 29.1574 9.45307 30.2344V38.828C9.45307 39.4752 8.92839 39.9999 8.2812 39.9999ZM4.76561 37.6562H7.10934V30.625H4.76561V37.6562Z" fill="#3A6EF2"></path><path d="M17.6562 39.9999H12.9687C12.3216 39.9999 11.7969 39.4752 11.7969 38.828V27.4219C11.7969 26.3449 12.673 25.4688 13.75 25.4688H16.875C17.9519 25.4688 18.8281 26.3449 18.8281 27.4219V38.828C18.8281 39.4752 18.3034 39.9999 17.6562 39.9999ZM14.1406 37.6562H16.4843V27.8125H14.1406V37.6562Z" fill="#3A6EF2"></path><path d="M27.031 39.9999H22.3435C21.6963 39.9999 21.1716 39.4752 21.1716 38.828V23.125C21.1716 22.048 22.0478 21.1719 23.1247 21.1719H26.2497C27.3267 21.1719 28.2028 22.048 28.2028 23.125V38.828C28.2028 39.4752 27.6781 39.9999 27.031 39.9999ZM23.5154 37.6561H25.8591V23.5156H23.5154V37.6561Z" fill="#3A6EF2"></path><path d="M36.406 39.9998H31.7185C31.0713 39.9998 30.5466 39.4751 30.5466 38.8279V15.3125C30.5466 14.2355 31.4228 13.3594 32.4997 13.3594H35.6247C36.7017 13.3594 37.5778 14.2355 37.5778 15.3125V38.8279C37.5778 39.4751 37.0531 39.9998 36.406 39.9998ZM32.8904 37.6561H35.2341V15.7031H32.8904V37.6561Z" fill="#3A6EF2"></path><path d="M1.17187 25.1799C0.524683 25.1799 0 24.6552 0 24.008C0 23.3608 0.524683 22.8361 1.17187 22.8361C8.06291 22.8361 15.5658 20.3268 22.2983 15.7703C28.4921 11.5786 33.4276 6.08328 35.8391 0.693557C36.1035 0.10278 36.7967 -0.161905 37.3874 0.102546C37.9781 0.366841 38.2427 1.06004 37.9784 1.65082C35.3936 7.42788 30.1572 13.2817 23.612 17.7113C16.4957 22.5275 8.52626 25.1799 1.17187 25.1799Z" fill="#3A6EF2"></path><path d="M38.8272 9.50595C38.3097 9.50595 37.8363 9.16064 37.696 8.63705L36.0804 2.60733L30.0506 4.22302C29.4253 4.39068 28.7829 4.01959 28.6154 3.39444C28.4479 2.76928 28.8189 2.12671 29.444 1.95921L36.6057 0.0402427C37.2311 -0.127334 37.8734 0.243757 38.0409 0.86883L39.9599 8.03049C40.1274 8.65564 39.7564 9.29822 39.1313 9.46572C39.0296 9.4929 38.9276 9.50595 38.8272 9.50595Z" fill="#3A6EF2"></path></g><defs><clipPath id="clip0_6034_17862"><rect width="40" height="40" fill="white"></rect></clipPath></defs></svg>