<svg xmlns="http://www.w3.org/2000/svg" width="30" height="30" viewBox="0 0 30 30" fill="none"><path d="M15 28.9474H2.36842C1.06239 28.9474 0 27.885 0 26.5789V2.36842C0 1.06239 1.06239 0 2.36842 0H23.4211C24.7271 0 25.7895 1.06239 25.7895 2.36842V16.3631C25.7895 16.7989 25.4359 17.1525 25 17.1525C24.5641 17.1525 24.2105 16.7989 24.2105 16.3631V2.36842C24.2105 1.93308 23.8564 1.57895 23.4211 1.57895H2.36842C1.93308 1.57895 1.57895 1.93308 1.57895 2.36842V26.5789C1.57895 27.0143 1.93308 27.3684 2.36842 27.3684H15C15.4359 27.3684 15.7895 27.722 15.7895 28.1579C15.7895 28.5937 15.4359 28.9474 15 28.9474Z" fill="white"></path><path d="M13.9477 17.3683H4.47404C4.03819 17.3683 3.68457 17.0147 3.68457 16.5788V4.47356C3.68457 4.0377 4.03819 3.68408 4.47404 3.68408C4.9099 3.68408 5.26352 4.0377 5.26352 4.47356V15.7893H13.9477C14.3836 15.7893 14.7372 16.143 14.7372 16.5788C14.7372 17.0147 14.3836 17.3683 13.9477 17.3683Z" fill="white"></path><path d="M4.47363 13.6842C4.28911 13.6842 4.10408 13.6199 3.95451 13.4889C3.62608 13.2015 3.59267 12.703 3.87998 12.3751L7.56419 8.16454C7.70811 8.00007 7.9137 7.90241 8.13214 7.89521C8.34544 7.88185 8.56234 7.97128 8.71654 8.12599L11.784 11.1934L15.9683 6.07881C16.1096 5.90611 16.3173 5.80177 16.5398 5.79047C16.7686 5.78225 16.9798 5.86294 17.1376 6.02073L19.1457 8.02833L20.7 6.08549C20.9719 5.74523 21.4679 5.68921 21.8097 5.96265C22.1499 6.23506 22.2049 6.73156 21.9325 7.07233L19.8272 9.70391C19.6869 9.87918 19.4788 9.98608 19.2547 9.99894C19.0337 10.0082 18.8116 9.92749 18.6528 9.76867L16.638 7.75387L12.4537 12.8685C12.3123 13.0412 12.1047 13.1455 11.8821 13.1568C11.6514 13.163 11.4422 13.0838 11.2844 12.9266L8.19691 9.83909L5.06831 13.4143C4.91205 13.5927 4.69362 13.6842 4.47363 13.6842Z" fill="white"></path><path d="M12.8951 21.0526H4.47404C4.03819 21.0526 3.68457 20.699 3.68457 20.2631C3.68457 19.8273 4.03819 19.4736 4.47404 19.4736H12.8951C13.3309 19.4736 13.6846 19.8273 13.6846 20.2631C13.6846 20.699 13.3309 21.0526 12.8951 21.0526Z" fill="white"></path><path d="M9.21089 24.2103H4.47404C4.03819 24.2103 3.68457 23.8567 3.68457 23.4208C3.68457 22.985 4.03819 22.6313 4.47404 22.6313H9.21089C9.64674 22.6313 10.0004 22.985 10.0004 23.4208C10.0004 23.8567 9.64674 24.2103 9.21089 24.2103Z" fill="white"></path><path d="M22.553 30.0001C18.4463 30.0001 15.1054 26.6592 15.1054 22.553C15.1054 18.4463 18.4463 15.1055 22.553 15.1055C26.6591 15.1055 30 18.4463 30 22.553C30 26.6592 26.6591 30.0001 22.553 30.0001ZM22.553 16.6844C19.3169 16.6844 16.6843 19.317 16.6843 22.553C16.6843 25.7885 19.3169 28.4212 22.553 28.4212C25.7885 28.4212 28.4211 25.7885 28.4211 22.553C28.4211 19.317 25.7885 16.6844 22.553 16.6844Z" fill="white"></path><path d="M25.48 26.0346C25.2888 26.0346 25.0971 25.9657 24.9455 25.8265L22.0184 23.1342C21.856 22.9847 21.7635 22.7739 21.7635 22.5529V18.6611C21.7635 18.2252 22.1171 17.8716 22.5529 17.8716C22.9888 17.8716 23.3424 18.2252 23.3424 18.6611V22.2065L26.0146 24.6638C26.3353 24.9594 26.3564 25.4585 26.0614 25.7797C25.9056 25.9488 25.6928 26.0346 25.48 26.0346Z" fill="white"></path></svg>