<svg xmlns="http://www.w3.org/2000/svg" width="200" height="30" viewBox="0 0 200 30" fill="none"><path d="M30.7868 15.1601C30.7868 23.3558 24.1122 29.9999 15.8785 29.9999C7.64477 29.9999 0.970703 23.3578 0.970703 15.1601C0.970703 6.96249 7.64527 0.320801 15.8785 0.320801C24.1117 0.320801 30.7868 6.96449 30.7868 15.1601Z" fill="#696969"></path><path d="M47.1407 15.1602C47.1407 22.8754 43.8032 29.1292 39.6866 29.1292C35.57 29.1292 32.2324 22.8734 32.2324 15.1602C32.2324 7.44699 35.57 1.19116 39.6866 1.19116C43.8032 1.19116 47.1407 7.44699 47.1407 15.1602Z" fill="#696969"></path><path d="M53.8314 15.1602C53.8314 22.0726 52.6574 27.6758 51.2096 27.6758C49.7618 27.6758 48.5879 22.0706 48.5879 15.1602C48.5879 8.24975 49.7618 2.64453 51.2101 2.64453C52.6584 2.64453 53.8314 8.24825 53.8314 15.1602Z" fill="#696969"></path><path d="M94.975 1.6075L95.0165 1.59849V1.28069H86.5383L78.666 19.5727L70.7937 1.28069H61.6573V1.59849L61.6983 1.6075C63.2459 1.95282 64.0315 2.4678 64.0315 4.32503V26.0678C64.0315 27.925 63.2428 28.44 61.6953 28.7853L61.6543 28.7943V29.1131H67.853V28.7953L67.812 28.7863C66.2645 28.441 65.4788 27.926 65.4788 26.0688V5.5862L75.5917 29.1131H76.1652L86.5727 4.93009V26.6058C86.4401 28.0726 85.6615 28.5256 84.2603 28.8384L84.2187 28.8479V29.1632H95.0165V28.8479L94.975 28.8384C93.5722 28.5256 92.7749 28.0726 92.6423 26.6058L92.6352 4.32503H92.6423C92.6423 2.4678 93.428 1.95282 94.975 1.6075ZM99.9071 16.0109C100.084 12.1043 101.503 9.28465 103.884 9.2361C104.619 9.24811 105.235 9.48634 105.714 9.94476C106.731 10.9212 107.209 12.9616 107.136 16.0109H99.9071ZM99.8003 17.1119H112.456V17.0594C112.42 14.0721 111.545 11.7484 109.857 10.153C108.398 8.77417 106.238 8.01547 103.969 8.01547H103.918C102.741 8.01547 101.297 8.29773 100.269 8.80921C99.0992 9.3447 98.0675 10.1454 97.209 11.1964C95.827 12.8895 94.9897 15.1776 94.7862 17.749C94.7796 17.8261 94.774 17.9032 94.7685 17.9802C94.7629 18.0573 94.7593 18.1264 94.7558 18.2C94.7487 18.3376 94.7431 18.4757 94.7401 18.6143C94.735 18.8365 94.7335 19.0603 94.7376 19.2855C94.8748 25.1094 98.0569 29.7637 103.709 29.7637C108.67 29.7637 111.559 26.1784 112.279 21.3659L111.915 21.2393C110.65 23.8257 108.377 25.3932 105.79 25.202C102.259 24.9407 99.5533 21.4009 99.7988 17.1129M126.765 25.0043C126.35 25.9777 125.484 26.5132 124.323 26.5132C123.162 26.5132 122.101 25.7255 121.347 24.2941C120.537 22.7577 120.111 20.5857 120.111 18.0128C120.111 12.6578 121.796 9.19406 124.403 9.19406C125.495 9.19406 126.355 9.72956 126.765 10.6639V25.0043ZM135.16 28.8218C133.613 28.46 132.827 27.921 132.827 25.9692V0L123.425 2.73855V3.07386L123.483 3.06936C124.779 2.96576 125.659 3.14293 126.17 3.60936C126.57 3.9747 126.765 4.53522 126.765 5.32396V8.88427C125.838 8.29923 124.735 8.01446 123.397 8.01446C120.684 8.01446 118.204 9.14402 116.416 11.1954C114.551 13.3334 113.566 16.2551 113.566 19.6438C113.565 25.6959 116.579 29.7637 121.064 29.7637C123.688 29.7637 125.798 28.3424 126.765 25.9452V29.1632H135.201V28.8299L135.16 28.8218ZM143.224 3.53179C143.224 1.64203 141.783 0.216702 139.871 0.216702C137.968 0.216702 136.479 1.67306 136.479 3.53179C136.479 5.39052 137.969 6.84688 139.871 6.84688C141.783 6.84688 143.224 5.42155 143.224 3.53179ZM145.443 28.8218C143.896 28.46 143.11 27.921 143.11 25.9692H143.103V8.07602L134.667 10.4708V10.7961L134.717 10.8006C136.543 10.9612 137.042 11.5828 137.042 13.6918V29.1632H145.486V28.8299L145.443 28.8218ZM167.061 28.8218C165.514 28.46 164.728 27.921 164.728 25.9692V8.07602L156.695 10.3917V10.718L156.743 10.723C158.235 10.8781 158.667 11.5352 158.667 13.6537V24.9643C158.169 25.9377 157.236 26.5157 156.105 26.5547C154.271 26.5547 153.261 25.3301 153.261 23.1065V8.07652L144.824 10.4713V10.7961L144.875 10.8006C146.7 10.9607 147.2 11.5823 147.2 13.6918V23.2642C147.196 23.9324 147.255 24.5996 147.376 25.257L147.528 25.9101C148.242 28.4405 150.113 29.7637 153.046 29.7637C155.529 29.7637 157.706 28.2438 158.665 25.8656V29.1687H167.101V28.8354L167.061 28.8218ZM199.836 29.1632V28.8293L199.795 28.8198C198.116 28.437 197.462 27.7153 197.462 26.2459V14.0746C197.462 10.2796 195.306 8.01446 191.694 8.01446C189.062 8.01446 186.842 9.51836 185.988 11.861C185.309 9.37874 183.355 8.01446 180.467 8.01446C177.929 8.01446 175.941 9.3382 175.088 11.5743V8.07752L166.651 10.3742V10.7015L166.702 10.706C168.506 10.8641 169.027 11.5037 169.027 13.5586V29.1632H176.899V28.8299L176.857 28.8198C175.518 28.5086 175.086 27.941 175.086 26.4847V12.5337C175.44 11.7154 176.154 10.746 177.566 10.746C179.32 10.746 180.208 11.9471 180.208 14.3133V29.1632H188.082V28.8299L188.041 28.8198C186.701 28.5086 186.269 27.941 186.269 26.4847V14.0731C186.272 13.609 186.235 13.1455 186.158 12.6878C186.533 11.7985 187.289 10.746 188.758 10.746C190.536 10.746 191.401 11.9126 191.401 14.3133V29.1632H199.836Z" fill="#696969"></path></svg>