<svg xmlns="http://www.w3.org/2000/svg" width="34" height="30" viewBox="0 0 34 30" fill="none"><path d="M29.2831 22.1106C27.4457 22.1106 25.898 23.3733 25.4615 25.0764H24.6921C24.2702 25.0764 23.9272 24.7334 23.9272 24.3116V19.5608H26.9323C30.4036 19.5608 33.2276 16.7368 33.2276 13.2655C33.2276 9.79424 30.4036 6.97017 26.9323 6.97017C26.621 6.97017 26.3112 6.99324 26.005 7.03862C24.8062 2.90443 21.0074 0 16.6138 0C12.2203 0 8.4215 2.90443 7.22266 7.03862C6.91643 6.99299 6.60664 6.97017 6.29534 6.97017C2.82407 6.97017 0 9.79424 0 13.2653C0 16.7365 2.82407 19.5606 6.29534 19.5606H9.30041V24.3116C9.30041 24.7331 8.95741 25.0764 8.53558 25.0764H7.76618C7.32964 23.3733 5.78198 22.1106 3.94457 22.1106C1.76948 22.1106 0 23.8803 0 26.0554C0 28.2305 1.76948 30 3.94457 30C5.78198 30 7.32964 28.7375 7.76618 27.0342H8.53558C10.0368 27.0342 11.2582 25.8128 11.2582 24.3116V19.5608H15.6348V22.2338C13.9317 22.6704 12.6693 24.2183 12.6693 26.0554C12.6693 28.2305 14.4387 30 16.6138 30C18.7889 30 20.5584 28.2305 20.5584 26.0554C20.5584 24.2183 19.2957 22.6704 17.5929 22.2338V19.5608H21.9694V24.3116C21.9694 25.8128 23.1908 27.0342 24.6921 27.0342H25.4615C25.898 28.7375 27.4457 30 29.2831 30C31.4582 30 33.2276 28.2305 33.2276 26.0554C33.2276 23.8803 31.4582 22.1106 29.2831 22.1106ZM3.94457 28.0422C2.84916 28.0422 1.95783 27.1508 1.95783 26.0554C1.95783 24.9598 2.84916 24.0687 3.94457 24.0687C5.04022 24.0687 5.9313 24.9598 5.9313 26.0554C5.9313 27.1508 5.04022 28.0422 3.94457 28.0422ZM18.6006 26.0554C18.6006 27.1508 17.7092 28.0422 16.6138 28.0422C15.5184 28.0422 14.6271 27.1508 14.6271 26.0554C14.6271 24.9598 15.5184 24.0687 16.6138 24.0687C17.7092 24.0687 18.6006 24.9598 18.6006 26.0554ZM1.95783 13.2653C1.95783 10.8737 3.9035 8.928 6.29534 8.928C6.75494 8.928 7.20973 9.00051 7.64678 9.14374C7.916 9.23196 8.21007 9.19926 8.45344 9.054C8.69655 8.90874 8.86488 8.66537 8.91508 8.38651C9.58433 4.66148 12.8221 1.95783 16.6138 1.95783C20.4055 1.95783 23.6433 4.66148 24.3126 8.38651C24.3628 8.66537 24.5311 8.90874 24.7742 9.054C25.0173 9.19926 25.3116 9.23196 25.5809 9.14374C26.0179 9.00051 26.4727 8.928 26.9323 8.928C29.3239 8.928 31.2698 10.8737 31.2698 13.2653C31.2698 15.6571 29.3242 17.6028 26.9323 17.6028H6.29534C3.9035 17.6028 1.95783 15.6571 1.95783 13.2653ZM29.2831 28.0422C28.1874 28.0422 27.2964 27.1508 27.2964 26.0554C27.2964 24.9598 28.1874 24.0684 29.2831 24.0684C30.3785 24.0684 31.2698 24.9598 31.2698 26.0554C31.2698 27.1508 30.3785 28.0422 29.2831 28.0422Z" fill="#3A6EF2"></path></svg>