<svg xmlns="http://www.w3.org/2000/svg" width="41" height="41" viewBox="0 0 41 41" fill="none"><path d="M38.7619 30.3863L29.7452 21.3562C29.5957 21.2141 29.3972 21.1348 29.1909 21.1348C28.9846 21.1348 28.7861 21.2141 28.6366 21.3562L26.8485 23.1443L24.7429 21.0433L29.8257 15.9337C31.9491 15.8219 34.7788 15.8309 34.904 15.813C35.4315 15.7325 36.4418 14.9189 39.8616 10.3189C39.9566 10.1889 40.0096 10.0329 40.0136 9.87191V7.80214C40.0133 7.66435 39.9768 7.52907 39.9077 7.40982C39.8387 7.29057 39.7395 7.19155 39.6202 7.12265C39.5011 7.05226 39.3652 7.01512 39.2268 7.01512C39.0884 7.01512 38.9526 7.05226 38.8334 7.12265L35.2169 9.26841C34.9085 9.36676 33.554 9.68416 32.3961 8.0346C31.1444 6.24647 31.7032 5.38816 32.4945 4.71314C33.676 3.86904 34.9027 3.09004 36.1691 2.37962C36.2834 2.31284 36.3793 2.21858 36.448 2.10539C36.5167 1.99221 36.556 1.86367 36.5625 1.73142C36.5675 1.59937 36.539 1.46821 36.4795 1.35017C36.4201 1.23213 36.3318 1.13107 36.2228 1.0564C36.111 0.980407 33.3886 -0.839021 28.7126 0.971466C25.1006 2.36621 24.5954 4.20352 24.5507 4.40916L23.7818 9.84062L18.6677 14.9592L14.099 10.3771C14.2971 9.87905 14.4002 9.34837 14.403 8.81244C14.4041 8.25584 14.2948 7.70456 14.0815 7.19046C13.8682 6.67636 13.5551 6.20965 13.1603 5.81731C13.1229 5.77808 13.0809 5.74355 13.0351 5.71449L5.29695 0.680894C5.14743 0.581943 4.96832 0.537683 4.78992 0.555604C4.61152 0.573526 4.4448 0.652527 4.31795 0.779241L1.10377 3.99341C0.977059 4.12026 0.898057 4.28699 0.880136 4.46539C0.862215 4.64379 0.906474 4.8229 1.00543 4.97242L6.05244 12.6972C6.08285 12.7419 6.11727 12.7838 6.15526 12.8223C6.54668 13.2168 7.01269 13.5294 7.52614 13.742C8.03958 13.9546 8.5902 14.0629 9.14591 14.0606C9.68323 14.0615 10.2158 13.9598 10.715 13.7611L15.2837 18.3432L9.68682 23.9401L4.32242 24.7H4.2643C4.05867 24.7492 2.22583 25.2499 0.826612 28.8664C-0.961523 33.5424 0.826612 36.2603 0.916019 36.3765C0.989926 36.4845 1.08946 36.5725 1.2057 36.6326C1.32194 36.6926 1.45127 36.7229 1.5821 36.7208C1.71363 36.7161 1.84178 36.6779 1.95443 36.6098C2.06707 36.5418 2.16049 36.4461 2.22583 36.3318C2.93683 35.0658 3.71581 33.8391 4.55935 32.6572C5.23437 31.866 6.10608 31.3161 7.88528 32.5544C9.5393 33.7212 9.22638 35.0846 9.11909 35.3752L6.97333 38.9917C6.9018 39.11 6.86312 39.2453 6.86126 39.3836C6.85939 39.5218 6.89442 39.6581 6.96273 39.7783C7.03103 39.8985 7.13016 39.9984 7.24988 40.0675C7.36961 40.1367 7.50561 40.1727 7.64388 40.1719H9.71364C9.87558 40.169 10.0323 40.1141 10.1607 40.0154C14.8545 36.5464 15.6011 35.5451 15.6637 35.0399C15.6637 34.9326 15.6637 32.1029 15.7754 29.984L21.3589 24.4273L23.4868 26.5239L21.6986 28.3121C21.5523 28.4594 21.4702 28.6587 21.4702 28.8664C21.4702 29.0741 21.5523 29.2733 21.6986 29.4207L30.7287 38.4463C31.7429 39.4591 33.1176 40.0279 34.5508 40.0279C35.9841 40.0279 37.3588 39.4591 38.373 38.4463L38.7798 38.0395C39.2829 37.5382 39.682 36.9426 39.9544 36.2867C40.2268 35.6308 40.367 34.9276 40.367 34.2174C40.367 33.5072 40.2268 32.804 39.9544 32.1481C39.682 31.4922 39.2829 30.8965 38.7798 30.3952L38.7619 30.3863ZM25.0737 10.766C25.1924 10.644 25.2691 10.4875 25.2928 10.3189L26.084 4.75784C26.1332 4.63267 26.6562 3.46591 29.2758 2.45115C30.7559 1.80721 32.3899 1.60238 33.9831 1.86106C33.1134 2.36431 32.2758 2.92119 31.4753 3.5285C29.325 5.37028 30.0939 7.48475 31.1132 8.93761C32.7091 11.2041 34.9085 11.0923 35.8428 10.7257C35.8785 10.7257 38.449 9.19242 38.449 9.19242V9.63945C36.9827 11.6064 35.2169 13.7924 34.6179 14.2752C33.5897 14.2215 30.7287 14.3601 29.4457 14.4317C29.2519 14.4409 29.0686 14.5222 28.9316 14.6596L23.6388 19.9257L22.2976 18.5846L27.4028 13.4571C27.486 13.3873 27.5537 13.3009 27.6017 13.2035C27.6497 13.106 27.6769 12.9997 27.6815 12.8912C27.6862 12.7826 27.6681 12.6744 27.6286 12.5732C27.5891 12.472 27.529 12.3802 27.452 12.3035C27.375 12.2269 27.283 12.1671 27.1816 12.128C27.0803 12.0889 26.9719 12.0713 26.8634 12.0764C26.7549 12.0814 26.6487 12.109 26.5514 12.1574C26.4542 12.2058 26.3681 12.2739 26.2986 12.3574L21.1801 17.4715L19.7764 16.0633L25.0737 10.766ZM9.1325 12.496C8.45247 12.4993 7.79744 12.2399 7.30413 11.7718L2.65945 4.65055L4.97509 2.33492L12.0963 6.99301C12.57 7.49962 12.829 8.17001 12.819 8.86348C12.809 9.55695 12.5308 10.2196 12.0427 10.7123L11.019 11.736C10.7715 11.9839 10.4774 12.1802 10.1536 12.3137C9.82979 12.4473 9.48274 12.5153 9.1325 12.5139V12.496ZM14.4701 29.0944C14.3322 29.2292 14.2507 29.4113 14.2421 29.604C14.1706 30.8914 14.032 33.748 14.0901 34.7762C13.6073 35.3752 11.4079 37.1454 9.44989 38.6117H9.00286C9.00286 38.6117 10.5228 36.0502 10.5496 36.0055C10.9296 35.0667 11.0458 32.8763 8.76146 31.2759C7.3086 30.2567 5.18519 29.4878 3.34788 31.638C2.74107 32.4389 2.1842 33.2764 1.68045 34.1458C1.42138 32.5522 1.62783 30.9177 2.275 29.4386C3.29424 26.7966 4.46547 26.3093 4.5817 26.2423L10.1651 25.451C10.3342 25.4293 10.4914 25.3523 10.6122 25.232L16.3879 19.4474L17.796 20.8511L12.15 26.5016C12.0766 26.5736 12.0183 26.6595 11.9785 26.7543C11.9387 26.8491 11.9182 26.9508 11.9182 27.0537C11.9182 27.1565 11.9387 27.2582 11.9785 27.353C12.0183 27.4478 12.0766 27.5337 12.15 27.6057C12.222 27.6791 12.3079 27.7374 12.4027 27.7772C12.4975 27.817 12.5993 27.8375 12.7021 27.8375C12.8049 27.8375 12.9067 27.817 13.0015 27.7772C13.0962 27.7374 13.1822 27.6791 13.2542 27.6057L18.9002 21.9597L20.2413 23.3008L14.4701 29.0944ZM12.0472 12.8939L12.1276 12.8223L13.1469 11.8031L13.2184 11.7226L25.7353 24.2396L24.5641 25.4108L12.0472 12.8939ZM37.6577 36.9443L37.2509 37.3555C36.5288 38.074 35.5516 38.4774 34.533 38.4774C33.5143 38.4774 32.5371 38.074 31.815 37.3555L23.3437 28.8619L25.1318 27.0738L27.4117 24.7984L29.1999 23.0102L37.6935 31.5039C38.0497 31.8627 38.3315 32.2884 38.5227 32.7565C38.7138 33.2246 38.8105 33.7259 38.8071 34.2315C38.8038 34.7371 38.7006 35.2371 38.5033 35.7027C38.306 36.1682 38.0187 36.5902 37.6577 36.9443Z" fill="#3A6EF2"></path><path d="M28.7082 27.2787C28.6362 27.2053 28.5503 27.147 28.4555 27.1072C28.3607 27.0674 28.2589 27.0469 28.1561 27.0469C28.0533 27.0469 27.9515 27.0674 27.8567 27.1072C27.7619 27.147 27.676 27.2053 27.604 27.2787C27.458 27.4253 27.376 27.6238 27.376 27.8308C27.376 28.0377 27.458 28.2362 27.604 28.3828L34.3095 35.0884C34.3823 35.1611 34.4687 35.2189 34.5639 35.2583C34.659 35.2977 34.7609 35.318 34.8639 35.318C34.9668 35.318 35.0687 35.2977 35.1639 35.2583C35.259 35.2189 35.3454 35.1611 35.4182 35.0884C35.491 35.0156 35.5487 34.9291 35.5881 34.834C35.6275 34.7389 35.6478 34.637 35.6478 34.534C35.6478 34.4311 35.6275 34.3291 35.5881 34.234C35.5487 34.1389 35.491 34.0525 35.4182 33.9797L28.7082 27.2787Z" fill="#3A6EF2"></path></svg>