<svg xmlns="http://www.w3.org/2000/svg" width="34" height="31" viewBox="0 0 34 31" fill="none"><path d="M27.2539 0.75C27.4883 0.75 27.7227 0.925781 27.8984 1.10156L33.7578 10.6523C33.875 10.8867 33.875 11.2383 33.6992 11.4727L17.5273 30.5156C17.2344 30.8672 16.707 30.8672 16.4141 30.5156L0.242188 11.4727C0.0664062 11.2383 0.0664062 10.8867 0.183594 10.6523L6.10156 1.10156C6.21875 0.925781 6.45312 0.75 6.6875 0.75H27.2539ZM26.4922 2.85938H22.625L25.9648 10.125H30.8281L26.4922 2.85938ZM20.3398 2.85938H13.6602L10.3203 10.125H23.6211L20.3398 2.85938ZM7.44922 2.85938L3.11328 10.125H7.97656L11.3164 2.85938H7.44922ZM3.69922 12L12.7812 23.25L7.97656 12H3.69922ZM10.2617 12L17 27.4688L23.6797 12H10.2617ZM21.2188 23.25L30.2422 12H25.9648L21.2188 23.25Z" fill="white"></path></svg>