<svg xmlns="http://www.w3.org/2000/svg" width="29" height="30" viewBox="0 0 29 30" fill="none"><path d="M28.125 17.6367V12.3633H24.2423C24.0377 11.6453 23.7481 10.9529 23.3769 10.2933L26.1281 7.54213L22.399 3.81334L19.648 6.56437C18.9884 6.19312 18.2961 5.90373 17.5781 5.69906V1.81641H13.2001C13.0737 1.64396 12.9344 1.47914 12.7823 1.32352C11.9481 0.470039 10.8421 0 9.66797 0C8.49387 0 7.38785 0.470039 6.55359 1.32352C5.68037 2.21684 5.24748 3.38496 5.27449 4.54125C3.27047 4.94906 1.75781 6.72504 1.75781 8.84766C1.75781 9.65033 1.98117 10.4271 2.39227 11.1026C1.904 11.3518 1.46256 11.6917 1.0943 12.1083C0.388652 12.9063 0 13.9332 0 15C0 16.0667 0.388594 17.0936 1.09424 17.8917C1.46256 18.3082 1.90395 18.6482 2.39221 18.8974C1.98123 19.5728 1.75781 20.3497 1.75781 21.1523C1.75781 23.275 3.27047 25.0509 5.27449 25.4588C5.24754 26.614 5.67967 27.7825 6.55353 28.6765C7.38785 29.53 8.49387 30 9.66797 30C10.8421 30 11.9481 29.53 12.7824 28.6765C12.9345 28.5209 13.0738 28.3561 13.2002 28.1836H17.5781V24.3009C18.2962 24.0963 18.9885 23.8069 19.648 23.4356L22.3991 26.1867L26.1281 22.4578L23.377 19.7067C23.7483 19.0472 24.0377 18.3548 24.2424 17.6368H28.125V17.6367ZM9.66797 28.2422C8.05693 28.2422 6.66445 26.649 7.13057 24.8789L7.43262 23.7324L6.24779 23.7767C4.67971 23.8355 3.51562 22.5802 3.51562 21.1523C3.51562 20.4953 3.77045 19.8654 4.22309 19.3785C4.29879 19.3822 4.37432 19.3849 4.44932 19.3849C5.20828 19.3849 5.92688 19.1911 6.59244 18.8061L5.7123 17.2845C5.19018 17.5865 4.6565 17.6858 4.03295 17.5965L4.03002 17.5961C2.73463 17.4153 1.75781 16.2992 1.75781 15C1.75781 13.7008 2.73469 12.5847 4.03008 12.4039L4.03301 12.4035C4.65662 12.3144 5.19023 12.4135 5.71225 12.7155L6.59238 11.1939C5.86107 10.7708 5.0659 10.5797 4.22326 10.6217C3.77057 10.1348 3.51562 9.50479 3.51562 8.84766C3.51562 7.41041 4.68773 6.16588 6.24844 6.2233L7.43244 6.26684L7.13057 5.12109C6.66516 3.35379 8.0543 1.75781 9.66797 1.75781C11.0972 1.75781 12.3047 2.99209 12.3047 4.45312V25.5469C12.3047 27.0079 11.0972 28.2422 9.66797 28.2422ZM14.0625 12.5144C14.3432 12.4154 14.6405 12.3633 14.9414 12.3633C16.3953 12.3633 17.5781 13.5461 17.5781 15C17.5781 16.4539 16.3953 17.6367 14.9414 17.6367C14.6405 17.6367 14.3432 17.5846 14.0625 17.4856V12.5144ZM23.6422 22.4577L22.3991 23.7007L19.8936 21.1953L19.2947 21.5923C18.4374 22.1605 17.5051 22.55 16.5236 22.7501L15.8203 22.8936V26.4258H13.9755C14.0329 26.139 14.0625 25.845 14.0625 25.5469C14.0625 24.2285 14.0625 20.6121 14.0625 19.3056C14.3506 19.3643 14.645 19.3945 14.9414 19.3945C17.3646 19.3945 19.3359 17.4231 19.3359 15C19.3359 12.5769 17.3646 10.6055 14.9414 10.6055C14.645 10.6055 14.3506 10.6357 14.0625 10.6944C14.0625 9.38719 14.0625 5.76926 14.0625 4.45312C14.0625 4.155 14.0329 3.86098 13.9755 3.57422H15.8203V7.10643L16.5237 7.2498C17.5051 7.4499 18.4375 7.83943 19.2947 8.40768L19.8937 8.80465L22.3992 6.29924L23.6422 7.54219L21.1366 10.0477L21.5336 10.6467C22.102 11.5042 22.4916 12.4365 22.6917 13.4177L22.835 14.1211H26.3672V15.8789H22.835L22.6917 16.5822C22.4916 17.5637 22.102 18.4961 21.5337 19.3533L21.1368 19.9523L23.6422 22.4577Z" fill="white"></path><path d="M9.49219 12.0117C10.1821 11.0917 10.5469 9.99762 10.5469 8.84766C10.5469 7.6977 10.1821 6.60357 9.49219 5.68359L8.08594 6.73828C9.0174 7.98023 9.0174 9.71508 8.08594 10.957L9.49219 12.0117Z" fill="white"></path><path d="M8.08594 19.043C9.0174 20.2849 9.0174 22.0198 8.08594 23.2617L9.49219 24.3164C10.1821 23.3964 10.5469 22.3023 10.5469 21.1523C10.5469 20.0024 10.1821 18.9083 9.49219 17.9883L8.08594 19.043Z" fill="white"></path><path d="M5.80078 13.8574L4.74609 15.2637C5.66607 15.9537 6.7602 16.3184 7.91016 16.3184C9.06012 16.3184 10.1542 15.9537 11.0742 15.2637L10.0195 13.8574C8.77764 14.7888 7.04268 14.7888 5.80078 13.8574Z" fill="white"></path></svg>