<svg xmlns="http://www.w3.org/2000/svg" width="55" height="55" viewBox="0 0 55 55" fill="none"><g clip-path="url(#clip0_4282_26903)"><path d="M37.3849 16.666C36.7908 16.666 36.3086 17.1461 36.3086 17.7398C36.3086 18.3332 36.7908 18.814 37.3849 18.814C37.9803 18.814 38.4612 18.3332 38.4612 17.7398C38.4612 17.1461 37.9803 16.666 37.3849 16.666Z" fill="#3A6EF2"></path><path d="M17.8283 36.1836C17.2329 36.1836 16.752 36.6649 16.752 37.2578C16.752 37.852 17.2329 38.332 17.8283 38.332C18.4224 38.332 18.9046 37.852 18.9046 37.2578C18.9046 36.6649 18.4224 36.1836 17.8283 36.1836Z" fill="#3A6EF2"></path><path d="M53.8222 6.60865C53.459 6.52431 53.0772 6.63383 52.8149 6.89818L48.3528 11.3868H46.2136L43.8587 8.95179V6.78699L48.2569 2.33191C48.5172 2.06839 48.6231 1.68948 48.5369 1.32903C48.4512 0.968997 48.1854 0.678623 47.834 0.560291C46.729 0.18851 45.5728 0.000101913 44.3969 0.000101913C40.8913 0.000101913 37.7064 1.63157 35.6589 4.47616C33.7426 7.13905 33.1518 10.4024 33.9982 13.5256L26.07 21.4383L12.8615 8.22543V5.6322C12.8615 5.25497 12.6631 4.905 12.3389 4.71114L4.72856 0.153262C4.30476 -0.100606 3.76281 -0.033887 3.41385 0.314815L0.36988 3.35242C0.0209167 3.70112 -0.0459328 4.24201 0.208012 4.66498L4.77397 12.2605C4.96821 12.584 5.31843 12.7816 5.69641 12.7821L8.29387 12.7829L21.5036 25.9958L13.6057 33.8783C10.4764 33.034 7.20494 33.6244 4.53558 35.5383C1.68711 37.5806 0.0537109 40.7583 0.0537109 44.2571C0.0537109 45.4304 0.242488 46.5847 0.614996 47.687C0.733979 48.0399 1.02787 48.3064 1.39112 48.3903C1.7548 48.4747 2.13614 48.3652 2.39891 48.1008L6.8606 43.6126H9.01156L11.4623 46.0585V48.2053L6.96529 52.6583C6.70041 52.9205 6.59068 53.3011 6.67519 53.6641C6.75927 54.0266 7.02625 54.3199 7.37984 54.4387C8.48433 54.8105 9.64096 54.9989 10.8165 54.9989C14.3221 54.9989 17.5057 53.3682 19.5524 50.5253C21.47 47.8612 22.0615 44.5966 21.2156 41.4734L27.5588 35.1426L29.0118 36.7178L28.345 37.3829C27.9245 37.8026 27.9245 38.4828 28.345 38.9024C28.7654 39.3216 29.4465 39.3216 29.8674 38.9024L30.4711 38.2998L44.1042 53.0795C44.1143 53.0905 44.1248 53.1009 44.1354 53.1114C46.658 55.6291 50.7451 55.63 53.269 53.111C55.7857 50.5979 55.7857 46.5088 53.269 43.9957C53.258 43.9848 53.2467 43.9743 53.2353 43.9638L38.4035 30.3833L39.0006 29.7875C39.421 29.3683 39.421 28.6881 39.0006 28.2684C38.5801 27.8488 37.899 27.8488 37.4781 28.2684L36.816 28.9298L35.2347 27.4812L41.6085 21.1198C42.5146 21.3615 43.4496 21.4841 44.3969 21.4841C50.3318 21.4841 55.1597 16.6652 55.1597 10.7423C55.1597 9.56863 54.9709 8.41468 54.5984 7.31193C54.4794 6.95903 54.1855 6.69257 53.8222 6.60865ZM9.50221 10.95C9.3004 10.7482 9.0267 10.6454 8.7408 10.6454L6.30646 10.6445L2.48636 4.27894L4.34176 2.42717L10.7089 6.24065V8.67023C10.7089 8.95473 10.822 9.22748 11.0234 9.42889L24.548 22.9578L23.0256 24.4768L9.50221 10.95ZM36.8799 31.904L51.7621 45.5302C53.4245 47.207 53.4195 49.9219 51.7465 51.5924C50.0698 53.2659 47.3555 53.2709 45.6721 51.6071L31.9944 36.7791L36.8799 31.904ZM35.2923 30.45L30.535 35.1972L29.082 33.6219L33.711 29.0015L35.2923 30.45ZM44.3969 19.3356C43.4555 19.3356 42.5297 19.185 41.6459 18.8879C41.2587 18.7582 40.8307 18.8581 40.5415 19.1464C35.1456 24.5317 23.5188 36.1354 19.2374 40.4088C18.9482 40.6975 18.8477 41.1247 18.9785 41.5115C19.8732 44.1631 19.4451 46.9913 17.8038 49.2719C16.167 51.5458 13.62 52.8504 10.8165 52.8504C10.5016 52.8504 10.1884 52.8332 9.87808 52.8001L13.2967 49.4146C13.5002 49.2132 13.6149 48.9388 13.6149 48.6522V45.6133C13.6149 45.3284 13.5014 45.0552 13.2996 44.8538L10.2182 41.7784C10.0164 41.577 9.7427 41.4637 9.45722 41.4637H6.41241C6.12525 41.4637 5.85029 41.5783 5.64806 41.7814L2.25638 45.1933C2.22275 44.8836 2.20593 44.571 2.20593 44.2567C2.20593 41.4583 3.51265 38.9166 5.79143 37.2831C8.07609 35.6449 10.9103 35.2173 13.5674 36.1107C13.9546 36.2412 14.3827 36.1409 14.6719 35.8522C14.7312 35.7934 35.9608 14.6049 35.9759 14.5898C36.2652 14.3011 36.3652 13.8743 36.2349 13.4874C35.3398 10.8359 35.767 8.00849 37.4071 5.72955C39.0451 3.45355 41.5926 2.14854 44.3965 2.14854C44.721 2.14854 45.0435 2.16658 45.363 2.20183L42.0155 5.59276C41.8171 5.79375 41.7061 6.06441 41.7061 6.34639V9.38525C41.7061 9.66388 41.8141 9.93118 42.0079 10.1313L44.9817 13.2067C45.1844 13.4165 45.4639 13.5348 45.7561 13.5348H48.801C49.0877 13.5348 49.3627 13.4207 49.5649 13.2172L52.9566 9.80571C52.9902 10.1154 53.007 10.428 53.007 10.7423C53.007 15.4806 49.1445 19.3356 44.3969 19.3356Z" fill="#3A6EF2"></path><path d="M33.5796 20.0178L20.1109 33.4603C19.6909 33.8795 19.6909 34.5597 20.1109 34.9793C20.5313 35.3989 21.2129 35.3989 21.6333 34.9793L35.102 21.5369C35.5225 21.1177 35.5225 20.4375 35.102 20.0178C34.6816 19.5982 34.0001 19.5982 33.5796 20.0178Z" fill="#3A6EF2"></path><path d="M47.1811 48.5548C47.6015 48.9732 48.283 48.9732 48.7035 48.5523C49.1231 48.1322 49.1218 47.452 48.701 47.0333L38.9993 37.3817C38.5785 36.9629 37.8965 36.9641 37.4774 37.3842C37.0573 37.8046 37.0586 38.4844 37.4795 38.9032L47.1811 48.5548Z" fill="#3A6EF2"></path></g><defs><clipPath id="clip0_4282_26903"><rect width="55" height="55" fill="white"></rect></clipPath></defs></svg>