<svg xmlns="http://www.w3.org/2000/svg" width="30" height="30" viewBox="0 0 30 30" fill="none"><path d="M21.4549 23.5575L20.8334 24.1789C20.6685 24.3437 20.5759 24.5673 20.5759 24.8004C20.5759 25.0335 20.6685 25.2571 20.8334 25.4219L23.3195 27.9079C23.4842 28.0728 23.7078 28.1654 23.9409 28.1654C24.174 28.1654 24.3976 28.0728 24.5624 27.9079L27.0485 25.422C27.3917 25.0788 27.3917 24.5222 27.0485 24.179L24.5625 21.693C24.2193 21.3497 23.6627 21.3497 23.3195 21.693L22.6979 22.3146L19.1725 18.7892C19.7653 18.8959 20.3706 18.9489 20.9826 18.9461C22.7413 18.9381 24.4415 18.4703 25.9401 17.5882C26.9606 18.2439 28.3375 18.1263 29.2294 17.2344C30.2575 16.2062 30.2574 14.5334 29.2294 13.5054C28.2013 12.4773 26.5284 12.4773 25.5003 13.5054C24.9863 14.0194 24.7293 14.6946 24.7293 15.3699C24.7293 15.644 24.7724 15.9179 24.8571 16.1812C23.6734 16.8351 22.3461 17.182 20.9745 17.1883C19.604 17.1946 18.2745 16.8604 17.0855 16.2187C17.368 15.3121 17.1517 14.2822 16.435 13.5655C15.7182 12.8488 14.6883 12.6323 13.7818 12.9149C13.1459 11.7369 12.8121 10.4211 12.8121 9.06398C12.8121 9.05133 12.8121 9.03855 12.8122 9.0259C12.8184 7.65433 13.1655 6.32701 13.8193 5.14336C14.7313 5.43669 15.7724 5.22282 16.4951 4.50009C17.5233 3.47207 17.5232 1.79914 16.4951 0.771012C15.467 -0.257004 13.7941 -0.257004 12.7661 0.771012C12.252 1.28502 11.995 1.96028 11.995 2.63555C11.995 3.13192 12.1344 3.628 12.4122 4.06032C11.5301 5.55898 11.0624 7.25916 11.0543 9.01781C11.0543 9.03334 11.0542 9.04852 11.0542 9.06404C11.0542 9.66032 11.1074 10.2502 11.2115 10.8281L7.68587 7.30258L8.30746 6.68099C8.65066 6.33779 8.65066 5.78124 8.30746 5.43798L5.82145 2.95197C5.65668 2.78714 5.43307 2.6945 5.19998 2.6945C4.96688 2.6945 4.74328 2.78708 4.5785 2.95197L2.09243 5.43798C1.9276 5.60281 1.83496 5.82636 1.83496 6.05945C1.83496 6.29255 1.92754 6.5161 2.09243 6.68093L4.5785 9.16694C4.74328 9.33177 4.96688 9.42441 5.19998 9.42441C5.43307 9.42441 5.65668 9.33177 5.82145 9.16694L6.44286 8.54547L12.1912 14.2938C12.0206 14.652 11.9348 15.0409 11.9348 15.43C11.9348 16.1052 12.1918 16.7804 12.7059 17.2944C13.5161 18.1046 14.7266 18.2759 15.7065 17.809L21.4549 23.5575ZM25.184 24.8005L23.941 26.0435L22.6979 24.8005L23.941 23.5575L25.184 24.8005ZM14.0091 2.01402C14.3519 1.6714 14.9095 1.67135 15.2521 2.01402C15.5931 2.34122 15.5931 2.92988 15.2521 3.25702C14.9094 3.59969 14.3519 3.59969 14.0091 3.25702C13.6681 2.92988 13.6682 2.34122 14.0091 2.01402ZM3.95691 6.05951L5.19998 4.81651L6.44298 6.05951L5.19998 7.30252L3.95691 6.05951ZM26.7434 14.7483C26.9094 14.5823 27.1301 14.4909 27.3649 14.4909C27.8373 14.4811 28.2536 14.8974 28.2438 15.3698C28.2536 15.8422 27.8373 16.2586 27.3649 16.2488C26.8924 16.2581 26.4768 15.8436 26.4859 15.3698C26.4859 15.135 26.5774 14.9143 26.7434 14.7483ZM13.9489 16.0515C13.5813 15.6884 13.6141 15.0717 14.0159 14.748C14.3608 14.4672 14.8707 14.4873 15.192 14.8085C15.5363 15.1493 15.5323 15.7173 15.1898 16.0534C14.847 16.3941 14.2909 16.3936 13.9489 16.0515Z" fill="white"></path><path d="M7.92522 29.4317L11.6985 19.4345C11.8207 19.1112 11.742 18.7468 11.4977 18.5026C11.2536 18.2584 10.8889 18.1798 10.5659 18.3018L0.56862 22.075C0.225479 22.2045 0 22.5327 0 22.8971C0 22.9087 0.000234386 22.9204 0.000703157 22.9321C0.0157038 23.3103 0.271067 23.6365 0.634599 23.7416L4.9964 25.0038L6.25856 29.3656C6.3638 29.7291 6.68989 29.9845 7.06807 29.9995C7.44626 30.0145 7.79162 29.7858 7.92522 29.4317ZM6.55037 24.0499C6.46652 23.7602 6.24005 23.5337 5.95041 23.4499L3.66005 22.7871L9.36716 20.6331L7.2131 26.3402L6.55037 24.0499Z" fill="white"></path></svg>