<svg xmlns="http://www.w3.org/2000/svg" width="32" height="30" viewBox="0 0 32 30" fill="none"><path fill-rule="evenodd" clip-rule="evenodd" d="M16.1047 2.44649C15.9921 2.39008 15.8592 2.39008 15.7463 2.44649L3.1348 8.7523C2.83947 8.89997 2.83947 9.32142 3.1348 9.46909L15.7463 15.7749C15.8592 15.8313 15.9921 15.8313 16.1047 15.7749L28.7165 9.46909C29.0117 9.32142 29.0117 8.89997 28.7165 8.7523L16.1047 2.44649ZM14.6712 0.296112C15.4609 -0.0987042 16.3903 -0.0987042 17.18 0.296112L29.7916 6.60193C31.8589 7.6356 31.8589 10.5858 29.7916 11.6195L17.18 17.9253C16.3903 18.3201 15.4609 18.3201 14.6712 17.9253L2.05961 11.6195C-0.00773749 10.5858 -0.00772144 7.63559 2.05961 6.60193L14.6712 0.296112ZM0.12717 15.1985C0.424087 14.6047 1.14615 14.3641 1.73995 14.6609L15.7463 21.6642C15.8592 21.7206 15.9921 21.7206 16.1047 21.6642L30.1112 14.6609C30.7051 14.3641 31.4271 14.6047 31.724 15.1985C32.021 15.7923 31.7802 16.5144 31.1864 16.8114L17.18 23.8145C16.3903 24.2094 15.4609 24.2094 14.6712 23.8145L0.664763 16.8114C0.0709597 16.5144 -0.169732 15.7923 0.12717 15.1985ZM1.73995 20.5502C1.14615 20.2534 0.424087 20.494 0.12717 21.0878C-0.169732 21.6817 0.0709597 22.4037 0.664763 22.7007L14.6712 29.7038C15.4609 30.0987 16.3903 30.0987 17.18 29.7038L31.1864 22.7007C31.7802 22.4037 32.021 21.6817 31.724 21.0878C31.4271 20.494 30.7051 20.2534 30.1112 20.5502L16.1047 27.5535C15.9921 27.6099 15.8592 27.6099 15.7463 27.5535L1.73995 20.5502Z" fill="#3A6EF2"></path></svg>