<svg xmlns="http://www.w3.org/2000/svg" width="37" height="30" viewBox="0 0 37 30" fill="none"><path d="M34.9686 23.1861H34.1937V7.71356C34.1937 5.57977 32.4577 3.8438 30.3239 3.8438H25.9845L25.7186 3.38323C25.4589 2.93349 24.9107 2.7393 24.4259 2.92582L23.6115 3.23885C22.8436 2.59956 21.9705 2.09474 21.0368 1.75019L20.9011 0.890819C20.8201 0.37783 20.3779 0 19.8586 0H16.1653C15.6459 0 15.2038 0.37783 15.1228 0.890819L14.9871 1.75019C14.0534 2.09474 13.1801 2.59964 12.4124 3.23885L11.598 2.92582C11.1132 2.73944 10.5649 2.93356 10.3053 3.38323L10.0394 3.8438H5.70002C3.56623 3.8438 1.83026 5.57977 1.83026 7.71356V23.1861H1.05539C0.472533 23.1861 0 23.6586 0 24.2414V25.6298C0 28.0396 1.96042 30 4.37016 30H31.6538C34.0635 30 36.0239 28.0396 36.0239 25.6298V24.2414C36.024 23.6586 35.5514 23.1861 34.9686 23.1861ZM30.3239 5.95458C31.2938 5.95458 32.0829 6.74366 32.0829 7.71356V13.515H27.469L27.5653 13.3483C27.8249 12.8985 27.7189 12.3267 27.3151 12.0001L26.6381 11.4524C26.722 10.9626 26.7644 10.4647 26.7644 9.96499C26.7644 9.46529 26.722 8.96736 26.6381 8.47759L27.3151 7.92991C27.7188 7.60331 27.8249 7.03142 27.5653 6.58169L27.2032 5.95451L30.3239 5.95458ZM11.6825 5.21953L12.2586 5.44102C12.6436 5.58906 13.0793 5.49921 13.3744 5.21123C14.1697 4.43517 15.1515 3.86751 16.2137 3.56954C16.611 3.45816 16.9069 3.12543 16.9712 2.71791L17.0671 2.11064H18.9568L19.0526 2.71791C19.1169 3.12543 19.4128 3.45809 19.8101 3.56954C20.8723 3.86751 21.8542 4.43524 22.6495 5.2113C22.9445 5.49921 23.3805 5.58899 23.7652 5.44102L24.3414 5.21953L25.2862 6.85609L24.8081 7.24286C24.4878 7.50206 24.3475 7.924 24.449 8.32336C24.5847 8.8569 24.6534 9.40922 24.6534 9.96499C24.6534 10.5208 24.5846 11.073 24.449 11.6066C24.3475 12.006 24.4878 12.4279 24.8081 12.6871L25.2862 13.0739L24.3414 14.7104L23.7652 14.4889C23.3802 14.341 22.9445 14.4308 22.6495 14.7187C21.8541 15.4947 20.8722 16.0625 19.8101 16.3604C19.4128 16.4718 19.1169 16.8045 19.0526 17.2121L18.9568 17.8193H17.0671L16.9712 17.2121C16.9069 16.8045 16.611 16.4719 16.2137 16.3604C15.1514 16.0625 14.1696 15.4947 13.3744 14.7187C13.0792 14.4307 12.6432 14.341 12.2586 14.4889L11.6825 14.7104L10.7376 13.0739L11.2157 12.6871C11.536 12.4279 11.6763 12.006 11.5748 11.6066C11.4391 11.0729 11.3703 10.5205 11.3703 9.96499C11.3703 9.40943 11.4392 8.85711 11.5748 8.32336C11.6763 7.924 11.536 7.50206 11.2157 7.24286L10.7376 6.85609L11.6825 5.21953ZM5.70002 5.95458H8.82073L8.45866 6.58176C8.19904 7.0315 8.30507 7.60338 8.70886 7.92998L9.38586 8.47766C9.30192 8.9675 9.25949 9.46551 9.25949 9.96506C9.25949 10.4646 9.30192 10.9626 9.38586 11.4525L8.70886 12.0001C8.30514 12.3267 8.19904 12.8986 8.45866 13.3484L8.55491 13.515H3.94103V7.71356C3.94103 6.74366 4.73011 5.95458 5.70002 5.95458ZM3.94103 15.6257H9.77354L10.3053 16.5467C10.5649 16.9965 11.113 17.1905 11.598 17.0042L12.4124 16.6911C13.1801 17.3303 14.0534 17.8352 14.9871 18.1798L15.1228 19.0392C15.2038 19.5521 15.646 19.93 16.1653 19.93H19.8586C20.3779 19.93 20.8201 19.5521 20.9011 19.0392L21.0368 18.1798C21.9705 17.8352 22.8436 17.3304 23.6115 16.6911L24.4259 17.0042C24.9105 17.1905 25.4589 16.9965 25.7186 16.5467L26.2503 15.6257H32.0828V23.1861H3.94103V15.6257ZM33.9132 25.6298C33.9132 26.8757 32.8997 27.8892 31.6539 27.8892H4.37016C3.1243 27.8892 2.11078 26.8756 2.11078 25.6298V25.2968H33.9132V25.6298Z" fill="#3A6EF2"></path><path d="M18.0122 13.6587C20.049 13.6587 21.7061 12.0017 21.7061 9.96486C21.7061 7.92803 20.049 6.271 18.0122 6.271C15.9755 6.271 14.3184 7.92803 14.3184 9.96486C14.3184 12.0017 15.9754 13.6587 18.0122 13.6587ZM18.0122 8.38177C18.8851 8.38177 19.5953 9.09191 19.5953 9.96486C19.5953 10.8378 18.8851 11.5479 18.0122 11.5479C17.1393 11.5479 16.4291 10.8378 16.4291 9.96486C16.4291 9.09191 17.1393 8.38177 18.0122 8.38177Z" fill="#3A6EF2"></path></svg>