<svg xmlns="http://www.w3.org/2000/svg" width="38" height="40" viewBox="0 0 38 40" fill="none"><path d="M24.6542 12.7204C20.7505 6.9775 15.5368 3.92518 12.8064 5.79539C12.5058 6.00711 12.2445 6.26985 12.0345 6.5717C12.0345 6.59375 5.71366 19.3853 5.71366 19.3853L2.18491 21.7759C1.64319 22.1437 1.17924 22.6145 0.819542 23.1616C0.459848 23.7087 0.211463 24.3212 0.0885777 24.9643C-0.0343078 25.6074 -0.0292863 26.2684 0.103355 26.9096C0.235997 27.5507 0.49366 28.1595 0.861624 28.701L1.02042 28.9348C1.7642 30.0182 2.90513 30.7648 4.19576 31.0125C5.48639 31.2602 6.82265 30.9891 7.91471 30.258L13.5828 38.6078C14.4164 39.6355 16.0176 40.6589 17.9937 39.4547C18.3438 39.2277 18.6424 38.9299 18.8703 38.5804C19.0982 38.2309 19.2504 37.8376 19.317 37.4257C19.3968 37.016 19.3947 36.5946 19.3106 36.1858C19.2266 35.7769 19.0623 35.3888 18.8274 35.0438L13.8342 27.6777C13.8342 27.6777 25.6379 26.7382 25.682 26.7205C26.0505 26.6434 26.3999 26.4934 26.7097 26.2794C28.1124 25.3267 28.6152 23.3286 28.13 20.6512C27.6934 18.1855 26.4539 15.3934 24.6542 12.7204ZM2.304 28.0658L2.14521 27.8321C1.89133 27.4583 1.71366 27.0382 1.62236 26.5957C1.53107 26.1532 1.52794 25.697 1.61316 25.2533C1.69838 24.8096 1.87028 24.387 2.119 24.0098C2.36773 23.6326 2.68841 23.3082 3.06268 23.0551L6.11064 20.982L10.1334 26.9058L7.08546 28.9789C6.71162 29.2331 6.29134 29.4111 5.84866 29.5028C5.40598 29.5945 4.94956 29.5981 4.50551 29.5133C4.06145 29.4285 3.63846 29.257 3.26071 29.0086C2.88296 28.7603 2.55787 28.4399 2.304 28.0658ZM17.557 35.9128C17.7981 36.2715 17.8871 36.7112 17.8044 37.1354C17.7217 37.5596 17.4741 37.9336 17.1159 38.1755C16.7565 38.4168 16.3162 38.5059 15.8912 38.4232C15.4663 38.3406 15.0914 38.0929 14.8487 37.7345L9.1983 29.4112L11.4699 27.8673L12.0698 27.8188L17.557 35.9128ZM11.5934 26.3059L7.20896 19.8484L11.3905 11.3222C11.7963 13.7173 12.9829 16.5623 14.8796 19.3544C16.7763 22.1465 18.9818 24.299 21.0549 25.5605L11.5934 26.3059ZM24.6057 25.2782C22.4973 25.1414 19.0656 22.764 16.1588 18.481C13.2519 14.1981 12.308 10.1445 12.9564 8.12873C13.0735 7.75036 13.3072 7.41867 13.624 7.18103C13.9409 6.94338 14.3248 6.81194 14.7208 6.80547C16.8116 6.80547 20.3712 9.19616 23.3618 13.6026C25.0468 16.0815 26.273 18.6751 26.6083 20.9423C27.2655 25.2782 24.6057 25.2782 24.6057 25.2782Z" fill="white"></path><path d="M19.1406 12.8843C18.6003 12.7782 18.0443 12.7809 17.505 12.8922C16.9658 13.0035 16.4542 13.2213 16 13.5327C15.9163 13.5906 15.8449 13.6644 15.7897 13.75C15.7345 13.8355 15.6968 13.9311 15.6785 14.0312C15.6603 14.1314 15.662 14.2341 15.6835 14.3336C15.705 14.4331 15.7458 14.5274 15.8038 14.6111C15.8617 14.6948 15.9355 14.7663 16.0211 14.8215C16.1066 14.8766 16.2022 14.9144 16.3023 14.9326C16.4025 14.9508 16.5052 14.9492 16.6047 14.9277C16.7042 14.9062 16.7985 14.8653 16.8822 14.8074C17.1698 14.6122 17.4931 14.4755 17.8335 14.4053C18.1739 14.335 18.5248 14.3324 18.8662 14.3977C19.2076 14.4631 19.5328 14.595 19.8232 14.786C20.1136 14.977 20.3635 15.2233 20.5587 15.5109C20.754 15.7985 20.8906 16.1218 20.9609 16.4622C21.0312 16.8026 21.0337 17.1535 20.9684 17.4949C20.9031 17.8363 20.7711 18.1614 20.5801 18.4518C20.3891 18.7422 20.1428 18.9922 19.8552 19.1874C19.7196 19.281 19.6175 19.4156 19.5639 19.5715C19.5103 19.7273 19.508 19.8962 19.5573 20.0535C19.6066 20.2107 19.7049 20.3481 19.8379 20.4454C19.9709 20.5427 20.1315 20.595 20.2963 20.5945C20.4535 20.5974 20.6078 20.5511 20.7374 20.4621C21.4235 19.9974 21.9562 19.3395 22.268 18.5717C22.5798 17.804 22.6568 16.961 22.4891 16.1495C22.3214 15.3379 21.9166 14.5945 21.326 14.0132C20.7354 13.4319 19.9856 13.039 19.1715 12.8843H19.1406Z" fill="white"></path><path d="M25.6072 7.35279H25.6822C25.8731 7.35272 26.0572 7.28189 26.199 7.15399C26.3407 7.02609 26.4301 6.8502 26.4497 6.66029L27.0452 0.873234C27.0587 0.770904 27.0516 0.666895 27.0243 0.567361C26.9969 0.467827 26.9499 0.37479 26.8859 0.293755C26.822 0.21272 26.7424 0.145332 26.652 0.0955794C26.5616 0.0458266 26.4621 0.0147191 26.3594 0.00409746C26.2567 -0.00652418 26.1529 0.00355578 26.0542 0.033741C25.9555 0.0639261 25.8638 0.113603 25.7847 0.179833C25.7055 0.246064 25.6404 0.327501 25.5933 0.419328C25.5461 0.511155 25.5179 0.611506 25.5102 0.714443L24.9191 6.50591C24.8981 6.70944 24.9588 6.91298 25.0879 7.07178C25.2169 7.23058 25.4037 7.33166 25.6072 7.35279Z" fill="white"></path><path d="M35.5844 6.16162C35.4711 5.99078 35.2948 5.8717 35.094 5.83039C34.8932 5.78907 34.6842 5.82886 34.5126 5.94108L29.1356 9.46977C28.996 9.56196 28.8901 9.69702 28.8339 9.8546C28.7777 10.0122 28.7742 10.1838 28.824 10.3435C28.8738 10.5032 28.9741 10.6425 29.1098 10.7403C29.2456 10.838 29.4095 10.8891 29.5767 10.8857C29.7328 10.8892 29.8863 10.8462 30.0178 10.7622L35.3948 7.23346C35.5616 7.1161 35.6751 6.9375 35.7107 6.73666C35.7462 6.53583 35.7008 6.3291 35.5844 6.16162Z" fill="white"></path><path d="M37.23 15.5842L30.9752 14.4595C30.7734 14.4232 30.5655 14.4686 30.3972 14.5856C30.2288 14.7027 30.1139 14.8818 30.0776 15.0836C30.0414 15.2854 30.0867 15.4933 30.2038 15.6617C30.3208 15.83 30.5 15.9449 30.7018 15.9812L36.9521 17.106H37.0888C37.2855 17.1117 37.4769 17.0422 37.624 16.9115C37.7711 16.7808 37.8628 16.5989 37.8802 16.4029C37.8977 16.2069 37.8396 16.0117 37.718 15.857C37.5963 15.7024 37.4201 15.6001 37.2255 15.571L37.23 15.5842Z" fill="white"></path></svg>