<svg xmlns="http://www.w3.org/2000/svg" width="61" height="55" viewBox="0 0 61 55" fill="none"><path fill-rule="evenodd" clip-rule="evenodd" d="M30.0715 19.4916V43.1848C30.0715 43.7282 29.6311 44.1689 29.0877 44.1689H23.1239C22.5805 44.1689 22.14 43.7282 22.14 43.1848V19.4916C22.14 18.9481 22.5805 18.5075 23.1239 18.5075H29.0877C29.6311 18.5075 30.0715 18.9481 30.0715 19.4916ZM28.1038 20.4757H24.1078V42.2007H28.1038V20.4757ZM19.0003 25.75V43.1848C19.0003 43.7282 18.5597 44.1689 18.0164 44.1689H12.0551C11.5118 44.1689 11.0713 43.7282 11.0713 43.1848V25.75C11.0713 25.2064 11.5118 24.7659 12.0551 24.7659H18.0164C18.5597 24.7659 19.0003 25.2064 19.0003 25.75ZM17.0325 26.734H13.039V42.2007H17.0325V26.734ZM35.179 28.2428C35.179 28.7858 34.7381 29.2268 34.1952 29.2268C33.6521 29.2268 33.2113 28.7858 33.2113 28.2428V13.8609C33.2113 13.3173 33.6517 12.8768 34.1952 12.8768H40.1564C40.6998 12.8768 41.1403 13.3173 41.1403 13.8609V26.5407C41.1403 27.0839 40.6994 27.5247 40.1564 27.5247C39.6134 27.5247 39.1726 27.0839 39.1726 26.5407V14.845H35.179V28.2428ZM0.983871 30.7618H6.94515C7.48849 30.7618 7.92902 31.2024 7.92902 31.7458V43.1848C7.92902 43.7282 7.48849 44.1689 6.94515 44.1689H0.983871C0.440528 44.1689 0 43.7282 0 43.1848V31.7458C0 31.2024 0.440528 30.7618 0.983871 30.7618ZM1.96774 32.7299V42.2007H5.96127V32.7299H1.96774ZM30.4932 9.64783C28.2116 13.0134 24.9479 16.0559 20.885 18.324L20.8848 18.3241C14.3199 21.9857 7.13405 22.8085 1.3313 21.1368C0.858674 21.0007 0.559208 20.5364 0.630046 20.0496C0.700885 19.5628 1.12014 19.203 1.61195 19.2072C5.71617 19.2419 9.85125 18.3028 14.3095 15.8155C18.1045 13.6981 22.4837 9.6546 24.9966 5.9595L23.1678 4.73408C22.8596 4.52754 22.6938 4.1654 22.7387 3.79723C22.7836 3.42906 23.0318 3.11735 23.3805 2.99115L31.4788 0.0587122C31.763 -0.0441241 32.0789 -0.0106651 32.3353 0.149617C32.5916 0.309899 32.7601 0.579167 32.792 0.879804L33.7513 9.88795C33.7918 10.268 33.6085 10.6372 33.2814 10.8346C32.9543 11.0322 32.5423 11.0223 32.225 10.8094L30.4932 9.64783ZM30.7596 7.45665L31.5716 8.00134L30.9683 2.33673L25.8769 4.18041L26.8965 4.86348C27.3353 5.1576 27.4637 5.74583 27.1872 6.19605C24.6413 10.342 19.5988 15.118 15.2682 17.5344C13.5008 18.5204 11.7803 19.279 10.0907 19.8422C13.3463 19.4633 16.7158 18.3958 19.9262 16.6053C24.0185 14.3207 27.2446 11.1974 29.3751 7.75581C29.5156 7.52861 29.7427 7.36846 30.0038 7.31199C30.2649 7.25553 30.5376 7.30781 30.7596 7.45665ZM49.4923 27.3955C50.482 27.6736 51.4341 28.0681 52.3315 28.5723L54.1528 27.7623C54.5248 27.5968 54.9603 27.6778 55.2482 27.9657L57.9378 30.656C58.2254 30.9436 58.3064 31.3784 58.1417 31.7504L57.3347 33.5724C57.8393 34.4707 58.2341 35.4242 58.5123 36.4173L60.3695 37.1322C60.7494 37.2785 61 37.6435 61 38.0506V41.8561C61 42.2632 60.7494 42.6283 60.3695 42.7745C60.3695 42.7745 58.5117 43.4897 58.5117 43.4896C58.2331 44.4795 57.8367 45.4319 57.3343 46.3294L58.1417 48.1525C58.3064 48.5245 58.2254 48.9594 57.9378 49.247L55.2482 51.9372C54.9606 52.2249 54.5258 52.3058 54.154 52.1411C54.154 52.1411 52.3328 51.3343 52.333 51.3343C51.4369 51.8385 50.4825 52.2333 49.492 52.5114L48.777 54.3695C48.6309 54.7493 48.2659 55 47.8588 55H44.0542C43.6472 55 43.2822 54.7493 43.136 54.3695C43.136 54.3695 42.4211 52.5116 42.4212 52.5116C41.4287 52.2329 40.4757 51.8363 39.5781 51.3336L37.7552 52.1411C37.3834 52.3058 36.9487 52.2249 36.6611 51.9372L33.9713 49.247C33.6834 48.959 33.6026 48.5234 33.7681 48.1513C33.7681 48.1513 34.5775 46.3303 34.5775 46.3304C34.0737 45.4346 33.6789 44.4804 33.3987 43.4902L31.5397 42.7745C31.1598 42.6283 30.9092 42.2632 30.9092 41.8561V38.0506C30.9092 37.6435 31.1598 37.2785 31.5397 37.1322L33.3984 36.4168C33.6786 35.4242 34.0735 34.4711 34.5778 33.5733L33.7681 31.7516C33.6026 31.3795 33.6834 30.9439 33.9713 30.656L36.6611 27.9657C36.9489 27.6778 37.3845 27.5968 37.7565 27.7623L39.5777 28.5723C40.4753 28.068 41.4277 27.6733 42.4178 27.3952L43.1363 25.5327C43.2827 25.1531 43.6475 24.9029 44.0542 24.9029H47.8588C48.266 24.9029 48.6311 25.1537 48.7772 25.534L49.4923 27.3955ZM47.837 28.5738L47.1829 26.8711H44.7291L44.0716 28.5751C43.9549 28.8776 43.6967 29.1032 43.3813 29.1782C42.2419 29.4491 41.1552 29.8993 40.1564 30.5149C39.88 30.6852 39.5373 30.7082 39.2406 30.5763L37.5745 29.8354L35.8407 31.5697L36.5814 33.236C36.7134 33.5328 36.6904 33.8756 36.5201 34.152C35.9042 35.1517 35.4538 36.2395 35.1793 37.3835C35.1038 37.6984 34.8781 37.956 34.5761 38.0722L32.8769 38.7264V41.1804L34.5761 41.8345C34.878 41.9507 35.1034 42.208 35.1792 42.5225C35.4535 43.6627 35.9035 44.7536 36.5192 45.7495C36.6903 46.0262 36.7135 46.3696 36.5814 46.6669L35.8407 48.3332L37.5753 50.0683L39.2418 49.3299C39.5375 49.199 39.8786 49.2216 40.1544 49.3905C41.1537 50.003 42.2408 50.4574 43.3844 50.7284C43.7005 50.8033 43.9592 51.0292 44.0758 51.3325L44.7297 53.0318H47.1833L47.8372 51.3325C47.9538 51.0295 48.2121 50.8035 48.528 50.7285C49.6668 50.4577 50.7567 50.008 51.7514 49.3927C52.0277 49.2219 52.3703 49.1984 52.6674 49.3299L54.3339 50.0683L56.0692 48.3325L55.3311 46.6656C55.2001 46.3699 55.2228 46.0288 55.3917 45.753C56.004 44.7533 56.4585 43.6657 56.7294 42.5253C56.8044 42.2095 57.0303 41.951 57.3332 41.8345L59.0323 41.1804V38.7264L57.3332 38.0722C57.0301 37.9556 56.804 37.6968 56.7293 37.3808C56.4585 36.2377 56.0083 35.151 55.393 34.152C55.223 33.876 55.1997 33.5338 55.3311 33.2373L56.0692 31.5704L54.3346 29.8354L52.6686 30.5763C52.3719 30.7082 52.0292 30.6852 51.7527 30.5149C50.754 29.8993 49.6673 29.4491 48.528 29.1782C48.212 29.1031 47.9535 28.877 47.837 28.5738ZM45.9546 32.3299C50.1648 32.3299 53.5784 35.7403 53.5784 39.9515C53.5784 44.1623 50.1646 47.5768 45.9546 47.5768C41.7444 47.5768 38.3346 44.1626 38.3346 39.9515C38.3346 35.7402 41.7443 32.3299 45.9546 32.3299ZM45.9546 34.298C42.8315 34.298 40.3023 36.8277 40.3023 39.9515C40.3023 43.0754 42.8313 45.6087 45.9546 45.6087C49.0781 45.6087 51.6107 43.0755 51.6107 39.9515C51.6107 36.8275 49.0778 34.298 45.9546 34.298Z" fill="#3A6EF2"></path></svg>