<svg xmlns="http://www.w3.org/2000/svg" width="55" height="55" viewBox="0 0 55 55" fill="none"><g clip-path="url(#clip0_4282_26796)"><path d="M28.8606 26.1412C28.4406 25.7212 27.7606 25.7212 27.3406 26.1412C26.9216 26.5601 26.9216 27.2401 27.3406 27.6601C27.7606 28.0791 28.4406 28.0791 28.8606 27.6601C29.2795 27.2401 29.2795 26.5601 28.8606 26.1412Z" fill="#3A6EF2"></path><path d="M42.5315 12.4688C40.4325 10.3698 37.0345 10.3697 34.9354 12.4688C32.8418 14.5623 32.8417 17.9697 34.9357 20.065C37.03 22.158 40.4374 22.1588 42.5315 20.0648C44.6303 17.966 44.6307 14.5679 42.5315 12.4688ZM41.0123 18.5455C39.7563 19.8017 37.7116 19.8017 36.4549 18.5457C35.1986 17.2887 35.1985 15.244 36.4547 13.9879C37.714 12.7286 39.7528 12.7284 41.0123 13.9879C42.2716 15.2471 42.2719 17.2861 41.0123 18.5455Z" fill="#3A6EF2"></path><path d="M54.6852 0.314649C54.4742 0.10378 54.1863 -0.0105168 53.887 0.000762479C53.6442 0.00946364 47.8611 0.241924 40.9867 2.67169C35.4781 4.61667 30.8866 7.40136 27.3396 10.9484C26.5448 11.7432 25.7714 12.5861 25.0313 13.4617C21.5242 11.3972 18.7139 12.0446 16.9372 12.9953C12.8465 15.1846 10.3145 21.1289 10.3145 25.3806C10.3148 25.815 10.5766 26.2068 10.9779 26.373C11.1108 26.4281 11.2504 26.4549 11.3888 26.4549C11.6684 26.4549 11.9431 26.3456 12.1486 26.1402C14.3059 23.9829 16.9669 24.1178 17.8361 24.2321L18.2123 24.6083C17.472 26.37 16.8756 28.1218 16.4381 29.8256C16.2802 30.4422 16.3335 31.0947 16.5682 31.6916C15.534 32.1682 14.5361 32.868 13.6673 33.7369C10.9022 36.5021 10.3407 43.2411 10.3181 43.5266C10.2934 43.84 10.4071 44.1485 10.6293 44.3707C10.8316 44.5729 11.1052 44.6854 11.3888 44.6854C11.4169 44.6854 11.4452 44.6843 11.4734 44.6821C11.759 44.6596 18.4982 44.0981 21.2633 41.333C22.1318 40.4645 22.8315 39.4667 23.3082 38.4327C23.94 38.6812 24.5904 38.7118 25.1752 38.5619C26.8782 38.1246 28.6298 37.5284 30.3918 36.788L30.768 37.1642C30.8822 38.0335 31.0171 40.6945 28.8598 42.8516C28.5527 43.1588 28.4608 43.6208 28.6271 44.0222C28.7932 44.4236 29.1849 44.6853 29.6194 44.6853C33.8712 44.6853 39.8153 42.1532 42.0046 38.0625C42.9554 36.2861 43.6027 33.4757 41.5383 29.9685C42.4134 29.2288 43.2564 28.4554 44.0515 27.6602C47.5986 24.1132 50.3832 19.5216 52.3281 14.0135C54.758 7.13872 54.9904 1.35556 54.9991 1.11279C55.0098 0.814697 54.8961 0.525625 54.6852 0.314649ZM12.7162 23.0701C13.3835 19.8407 15.3217 16.297 17.9514 14.8895C19.7087 13.9491 21.6295 14.0413 23.6718 15.1592C21.9319 17.4475 20.4193 19.9129 19.1585 22.5162C19.1425 22.5064 18.9491 22.2633 18.5899 22.1823C18.4422 22.1489 15.5999 21.5375 12.7162 23.0701ZM19.7441 39.8137C18.2671 41.2908 14.8022 42.0698 12.6122 42.3878C12.9304 40.1977 13.7095 36.733 15.1865 35.256C16.0136 34.4289 16.9727 33.8017 17.9367 33.4485L21.5516 37.0635C21.1984 38.0275 20.5714 38.9866 19.7441 39.8137ZM24.6415 36.4807C24.3306 36.5603 23.9705 36.4435 23.7028 36.1762C22.3131 34.7865 21.7695 34.2428 21.5989 34.0723C21.2861 33.7595 20.519 32.9924 18.8246 31.298C18.5567 31.0295 18.4398 30.6695 18.5192 30.3592C18.8633 29.0192 19.3133 27.6444 19.8605 26.2564L28.7437 35.1397C27.3555 35.687 25.9809 36.1369 24.6415 36.4807ZM40.1106 37.0488C38.7032 39.6784 35.1596 41.6167 31.9303 42.2839C32.9599 40.3463 33.1869 37.8798 32.8107 36.3842C32.7234 36.0368 32.4967 35.8621 32.484 35.8416C35.0872 34.5808 37.5524 33.0682 39.8409 31.3283C40.9588 33.3708 41.0509 35.2918 40.1106 37.0488ZM42.5326 26.1411C41.5646 27.1089 40.5223 28.044 39.4345 28.9203C36.8197 31.0258 33.9416 32.8092 30.8711 34.2289L20.7713 24.1293C22.191 21.0585 23.9744 18.1805 26.0797 15.5659C26.9566 14.4774 27.8916 13.435 28.8592 12.4676C32.0416 9.28511 36.1487 6.75232 41.0699 4.92916L50.071 13.9302C48.2481 18.8513 45.7153 22.9585 42.5326 26.1411ZM50.8439 11.6646L43.3356 4.15626C47.4263 2.88568 50.9851 2.40991 52.7614 2.23889C52.5903 4.01554 52.1144 7.57431 50.8439 11.6646Z" fill="#3A6EF2"></path><path d="M25.8208 44.3711C25.4011 43.9517 24.7209 43.9519 24.3016 44.3714L21.2637 47.4103C20.8443 47.8299 20.8444 48.5101 21.2639 48.9295C21.6836 49.3488 22.3638 49.3488 22.7832 48.9293L25.821 45.8903C26.2404 45.4707 26.2403 44.7905 25.8208 44.3711Z" fill="#3A6EF2"></path><path d="M10.6297 29.18C10.2104 28.7604 9.53026 28.7604 9.11057 29.1797L6.07161 32.2176C5.65202 32.637 5.65191 33.3172 6.07129 33.7368C6.49055 34.1562 7.17064 34.1566 7.59044 33.737L10.6294 30.6991C11.049 30.2797 11.0491 29.5995 10.6297 29.18Z" fill="#3A6EF2"></path><path d="M18.2258 45.8908C17.8066 45.4713 17.1263 45.4713 16.7067 45.8907L9.42994 53.1664C9.01035 53.5858 9.01035 54.266 9.42983 54.6855C9.8491 55.105 10.5294 55.1052 10.949 54.6856L18.2257 47.41C18.6453 46.9905 18.6453 46.3103 18.2258 45.8908Z" fill="#3A6EF2"></path><path d="M9.63209 45.8908C9.21272 45.4713 8.53242 45.4713 8.11293 45.8907L0.83619 53.1664C0.416601 53.5858 0.416601 54.266 0.836082 54.6855C1.25535 55.105 1.93565 55.1052 2.35524 54.6856L9.63198 47.41C10.0516 46.9905 10.0516 46.3103 9.63209 45.8908Z" fill="#3A6EF2"></path><path d="M9.10942 36.7755C8.69005 36.3561 8.00975 36.3561 7.59027 36.7756L0.314598 44.0523C-0.104884 44.4719 -0.104884 45.152 0.314705 45.5716C0.734187 45.9911 1.41438 45.9911 1.83386 45.5715L9.10953 38.2947C9.52901 37.8751 9.52901 37.195 9.10942 36.7755Z" fill="#3A6EF2"></path><path d="M33.4173 21.5822C32.9977 21.1627 32.3177 21.1627 31.898 21.5822L30.3791 23.1011C29.9596 23.5206 29.9596 24.2008 30.3791 24.6204C30.7987 25.0399 31.4787 25.0399 31.8983 24.6204L33.4173 23.1015C33.8368 22.682 33.8368 22.0018 33.4173 21.5822Z" fill="#3A6EF2"></path></g><defs><clipPath id="clip0_4282_26796"><rect width="55" height="55" fill="white"></rect></clipPath></defs></svg>