<svg xmlns="http://www.w3.org/2000/svg" width="41" height="41" viewBox="0 0 41 41" fill="none"><path d="M10.7202 34.3042C8.50561 35.5758 6.00929 36.0319 4.53109 36.1955C4.69474 34.7173 5.15081 32.221 6.4211 30.005C6.75376 29.4269 6.55389 28.6891 5.97576 28.3565C5.39226 28.0225 4.65852 28.225 4.3272 28.8032C2.05222 32.771 2.02539 37.3022 2.02539 37.494C2.02539 38.1606 2.56597 38.7012 3.23263 38.7012C3.42445 38.7012 7.95564 38.6744 11.9234 36.3994C12.5016 36.0667 12.7014 35.3303 12.3688 34.7508C12.0388 34.1727 11.3024 33.9715 10.7202 34.3042Z" fill="#3A6EF2"></path><path d="M40.3607 3.2942C40.3754 2.50144 40.0763 1.75832 39.5183 1.20164C38.9616 0.644971 38.1568 0.369988 37.4298 0.363281C34.087 0.426326 25.0703 1.38541 16.5391 9.04336C15.018 8.45181 12.7255 7.57321 10.9858 7.79722C8.4264 8.12586 4.64505 11.6081 0.941494 15.3237C0.450549 15.816 0.254707 16.5135 0.419697 17.1896C0.583345 17.8683 1.07966 18.4008 1.74498 18.6141L7.63365 20.5055C7.18965 21.3157 6.75236 22.1446 6.32982 23.0192C5.79864 24.1192 6.02399 25.4404 6.89052 26.3043L14.4197 33.8334C14.9723 34.3874 15.7128 34.6798 16.4599 34.6798C16.8825 34.6798 17.309 34.5873 17.7061 34.3955C18.5807 33.9729 19.4096 33.5356 20.2171 33.093L22.1098 38.9803C22.3231 39.6456 22.8556 40.142 23.5357 40.3069C23.6927 40.3445 23.851 40.3633 24.0092 40.3633C24.5257 40.3633 25.0233 40.1607 25.4016 39.7838C29.1172 36.0803 32.5994 32.3002 32.9267 29.7422C33.1534 27.9864 32.2721 25.7073 31.6806 24.1862C39.3372 15.655 40.2976 6.63826 40.3607 3.2942ZM3.14941 16.531C5.11453 14.5739 9.38281 10.4384 11.2929 10.1929C12.1447 10.0843 13.4821 10.488 14.6115 10.8972C12.6169 12.9589 10.6799 15.4297 8.87442 18.3686L3.14941 16.531ZM16.6558 32.2211C16.4854 32.3043 16.2668 32.2667 16.1273 32.1272L8.59676 24.5967C8.4586 24.4585 8.4197 24.2412 8.5042 24.0682C17.8818 4.64363 33.0501 2.86228 37.4767 2.77911H37.4874C37.6471 2.77911 37.7517 2.8502 37.8134 2.91191C37.8644 2.96288 37.9516 3.07555 37.9489 3.24993C37.863 7.67649 36.0803 22.8448 16.6558 32.2211ZM30.5324 29.4337C30.2869 31.3425 26.1514 35.6121 24.1943 37.5759L22.354 31.8522C25.2956 30.0467 27.7664 28.1084 29.8281 26.1138C30.2386 27.2419 30.6424 28.5766 30.5324 29.4337Z" fill="#3A6EF2"></path><path d="M31.2645 16.6257C33.239 14.6498 33.239 11.4359 31.2645 9.46C29.349 7.54719 26.0116 7.54719 24.0988 9.46C23.1424 10.4164 22.6152 11.6894 22.6152 13.0428C22.6152 14.3963 23.1437 15.6693 24.0988 16.6257C25.0552 17.5821 26.3282 18.1092 27.6816 18.1092C29.0351 18.1092 30.3067 17.5821 31.2645 16.6257ZM29.5555 14.9181C28.5535 15.9214 26.8057 15.9214 25.8064 14.9181C25.3047 14.4177 25.0284 13.7511 25.0284 13.0428C25.0284 12.3346 25.3047 11.6693 25.8064 11.1676C26.3067 10.6672 26.972 10.3909 27.6803 10.3909C28.3872 10.3909 29.0539 10.6672 29.5542 11.1676C30.5897 12.2018 30.5897 13.8839 29.5555 14.9181Z" fill="#3A6EF2"></path></svg>