<svg xmlns="http://www.w3.org/2000/svg" width="30" height="31" viewBox="0 0 30 31" fill="none"><path d="M21.5625 5.96484C23.3203 5.96484 24.8438 7.42969 24.8438 9.24609C24.8438 11.0039 23.3203 12.5273 21.5625 12.5273C19.7461 12.5273 18.2812 11.0039 18.2812 9.24609C18.2812 7.42969 19.7461 5.96484 21.5625 5.96484ZM21.5625 10.6523C22.3242 10.6523 22.9688 10.0078 22.9688 9.24609C22.9688 8.42578 22.3242 7.83984 21.5625 7.83984C20.7422 7.83984 20.1562 8.42578 20.1562 9.24609C20.1562 10.0078 20.7422 10.6523 21.5625 10.6523ZM29.5898 1.92188C30 3.79688 30 5.26172 29.9414 6.72656C29.9414 12.7617 26.7188 16.3945 22.5 19.0898V25.2422C22.5 26.1797 21.7969 27.293 20.918 27.7617L15.1172 30.6328C14.9414 30.6914 14.707 30.75 14.5312 30.75C13.7109 30.75 13.125 30.1641 13.125 29.3438V23.25C13.125 20.1445 10.6055 17.625 7.5 17.625H1.40625C0.585938 17.625 0 17.0391 0 16.2188C0 16.043 0.0585938 15.8086 0.117188 15.6328L3.04688 9.83203C3.45703 8.95312 4.57031 8.25 5.56641 8.25H11.6602C14.3555 4.03125 17.9883 0.75 24.0234 0.75C25.4883 0.75 26.9531 0.75 28.8281 1.16016C29.1797 1.27734 29.4727 1.57031 29.5898 1.92188ZM2.16797 15.75C3.57422 15.75 7.67578 15.8086 7.73438 15.8086V15.75C8.67188 13.875 9.72656 11.8242 10.5469 10.125H5.56641C5.27344 10.125 4.80469 10.4766 4.6875 10.6523L2.16797 15.75ZM20.625 25.2422V20.2031H20.5664C18.9258 21.0234 16.875 22.0781 15 23.0156H14.9414C14.9414 23.0742 15 27.2344 15 28.6406L20.0977 26.0625C20.2734 25.9453 20.625 25.4766 20.625 25.2422ZM14.5898 21.082C20.6836 18.0938 28.0664 15.2227 28.0664 6.72656C28.125 5.49609 28.125 4.32422 27.832 2.91797C26.4258 2.625 25.2539 2.625 24.0234 2.625C15.5273 2.625 12.7148 10.0664 9.66797 16.1602C12.0117 16.8633 13.8867 18.7383 14.5898 21.082ZM5.97656 19.5C7.44141 19.5 8.78906 20.1445 9.66797 21.0234C12.6562 24.0117 11.8945 30.5742 1.875 30.75H0V28.875C0.117188 21.8438 3.16406 19.5 5.97656 19.5ZM9.08203 25.9453C9.60938 24.5977 9.14062 23.0742 8.37891 22.3711C7.79297 21.7852 6.85547 21.4336 5.97656 21.4336C1.75781 21.4336 1.875 28.6992 1.81641 28.875C5.68359 28.8164 8.32031 27.7617 9.08203 25.9453Z" fill="white"></path></svg>