<svg xmlns="http://www.w3.org/2000/svg" width="24" height="24" viewBox="0 0 24 24"><path d="M21.75 6.75C22.9688 6.75 24 7.78125 24 9V15C24 15.4219 23.625 15.75 23.25 15.75H22.5V20.8125C22.5 22.1719 21.375 23.25 20.0156 23.25H3.9375C2.57812 23.25 1.5 22.1719 1.5 20.8125V15.75H0.75C0.328125 15.75 0 15.4219 0 15V9C0 7.78125 0.984375 6.75 2.25 6.75H3.5625C3.23438 6.1875 3.09375 5.57812 3.09375 4.875C3.09375 2.625 4.92188 0.75 7.21875 0.75C9.14062 0.75 10.4062 1.78125 12.0469 3.98438C13.6406 1.78125 14.9062 0.75 16.875 0.75C19.125 0.75 21 2.625 21 4.875C21 5.57812 20.8125 6.1875 20.4844 6.75H21.75ZM10.875 21V9H2.25V13.5H9V15.75H3.75V20.8125C3.75 20.9062 3.84375 21 3.9375 21H10.875ZM7.17188 6.75H11.25L11.1562 6.60938C8.95312 3.375 8.20312 3 7.17188 3C6.14062 3 5.29688 3.84375 5.29688 4.875C5.29688 5.95312 6.14062 6.75 7.17188 6.75ZM12.8906 6.60938L12.7969 6.75H16.875C17.9062 6.75 18.75 5.95312 18.75 4.875C18.75 3.84375 17.9062 3 16.875 3C15.8438 3 15.0938 3.375 12.8906 6.60938ZM21.75 13.5V9H13.125V21H20.0156C20.1562 21 20.25 20.9062 20.25 20.8125V15.75H15V13.5H21.75Z"></path></svg>