<svg xmlns="http://www.w3.org/2000/svg" width="49" height="50" viewBox="0 0 49 50" fill="none"><path d="M31.1038 37.1094H25.0978V33.0031C25.0978 32.4098 24.6169 31.9288 24.0236 31.9288C23.4304 31.9288 22.9494 32.4098 22.9494 33.0031V37.1094H16.9435C16.3503 37.1094 15.8693 37.5904 15.8693 38.1836V42.3877C15.8693 42.981 16.3503 43.4619 16.9435 43.4619C17.5368 43.4619 18.0178 42.981 18.0178 42.3877V39.2578H30.0296V42.3877C30.0296 42.981 30.5105 43.4619 31.1038 43.4619C31.6971 43.4619 32.178 42.981 32.178 42.3877V38.1836C32.178 37.5903 31.6971 37.1094 31.1038 37.1094Z" fill="white"></path><path d="M43.0666 32.7148H34.4152V29.8954C34.4152 29.3021 33.9342 28.8212 33.3409 28.8212C32.7477 28.8212 32.2667 29.3021 32.2667 29.8954V33.789C32.2667 34.3823 32.7477 34.8633 33.3409 34.8633H41.9924V38.5346C41.9924 39.1279 42.4734 39.6089 43.0666 39.6089C43.6599 39.6089 44.1408 39.1279 44.1408 38.5346V33.789C44.1408 33.1958 43.6599 32.7148 43.0666 32.7148Z" fill="white"></path><path d="M14.7336 28.754C14.1403 28.754 13.6594 29.235 13.6594 29.8282V32.717H4.98056C4.3873 32.717 3.90634 33.198 3.90634 33.7912V38.4836C3.90634 39.0769 4.3873 39.5578 4.98056 39.5578C5.57382 39.5578 6.05478 39.0769 6.05478 38.4836V34.8655H14.7336C15.3268 34.8655 15.8078 34.3845 15.8078 33.7912V29.8282C15.8078 29.235 15.3269 28.754 14.7336 28.754Z" fill="white"></path><path d="M24.0361 8.78906C19.6745 8.78906 16.1261 12.3375 16.1261 16.6992C16.1261 21.0608 19.6745 24.6094 24.0361 24.6094C28.3977 24.6094 31.9463 21.0609 31.9463 16.6992C31.9463 12.3376 28.3977 8.78906 24.0361 8.78906ZM24.0361 22.4609C20.8592 22.4609 18.2745 19.8763 18.2745 16.6992C18.2745 13.5222 20.8592 10.9375 24.0361 10.9375C27.2131 10.9375 29.7978 13.5222 29.7978 16.6992C29.7978 19.8763 27.2131 22.4609 24.0361 22.4609Z" fill="white"></path><path d="M47.8939 44.7267L43.9876 38.2163C43.7935 37.8928 43.4439 37.6948 43.0664 37.6948C42.689 37.6948 42.3395 37.8928 42.1453 38.2164L38.2391 44.7268C38.04 45.0586 38.0348 45.4719 38.2254 45.8087C38.4162 46.1454 38.7732 46.3536 39.1602 46.3536H46.9727C47.3597 46.3536 47.7168 46.1454 47.9075 45.8086C48.0982 45.4719 48.093 45.0586 47.8939 44.7267ZM41.0576 44.2052L43.0664 40.8569L45.0754 44.2052H41.0576Z" fill="white"></path><path d="M31.1036 41.9922C28.8958 41.9922 27.0996 43.7884 27.0996 45.9961C27.0996 48.2039 28.8958 50 31.1036 50C33.3113 50 35.1075 48.2038 35.1075 45.9961C35.1075 43.7884 33.3114 41.9922 31.1036 41.9922ZM31.1036 47.8516C30.0804 47.8516 29.248 47.0192 29.248 45.9961C29.248 44.9729 30.0804 44.1406 31.1036 44.1406C32.1268 44.1406 32.9591 44.9729 32.9591 45.9961C32.9591 47.0192 32.1268 47.8516 31.1036 47.8516Z" fill="white"></path><path d="M19.8731 41.9922H14.0138C13.4205 41.9922 12.9395 42.4731 12.9395 43.0664V48.9258C12.9395 49.519 13.4205 50 14.0138 50H19.8731C20.4664 50 20.9474 49.519 20.9474 48.9258V43.0664C20.9474 42.473 20.4664 41.9922 19.8731 41.9922ZM18.7989 47.8516H15.088V44.1406H18.7989V47.8516Z" fill="white"></path><path d="M5.90171 38.1213C5.70757 37.7978 5.35796 37.5999 4.98052 37.5999C4.60308 37.5999 4.25356 37.7978 4.05933 38.1213L0.153076 44.6317C-0.0460449 44.9635 -0.0512207 45.3769 0.139404 45.7136C0.330029 46.0504 0.687158 46.2586 1.07417 46.2586H8.88667C9.27368 46.2586 9.63081 46.0504 9.82144 45.7136C10.0121 45.3769 10.0069 44.9635 9.80776 44.6317L5.90171 38.1213ZM2.97153 44.1101L4.98052 40.7619L6.9895 44.1101H2.97153Z" fill="white"></path><path d="M39.7804 20.233C40.3242 20.1723 40.7354 19.7125 40.7354 19.1654V14.23C40.7354 13.6826 40.3239 13.2229 39.7799 13.1623L37.9446 12.9583C37.6209 11.7498 37.1418 10.5947 36.5141 9.50889L37.6678 8.06504C38.0093 7.6376 37.975 7.02178 37.5882 6.63486L34.0983 3.14502C33.7113 2.75801 33.0951 2.72393 32.6678 3.06572L31.2245 4.22031C30.1386 3.59277 28.9835 3.11387 27.7751 2.79023L27.57 0.954883C27.5093 0.41123 27.0495 0 26.5023 0H21.5669C21.0195 0 20.5597 0.411523 20.4992 0.955566L20.2953 2.79033C19.0863 3.11436 17.9309 3.59346 16.8454 4.221L15.402 3.06758C14.9744 2.72607 14.3587 2.76025 13.9718 3.14717L10.4819 6.63701C10.0949 7.02402 10.0608 7.64023 10.4026 8.06768L11.5571 9.51084C10.9296 10.5969 10.4507 11.7521 10.127 12.9604L8.29177 13.1654C7.74802 13.2262 7.33679 13.6859 7.33679 14.233V19.1686C7.33679 19.7159 7.74841 20.1757 8.29236 20.2362L10.1275 20.4401C10.4513 21.6486 10.9305 22.8038 11.5581 23.8895L10.4044 25.3334C10.0629 25.7608 10.0971 26.3767 10.484 26.7636L13.9738 30.2534C14.3609 30.6405 14.9771 30.6746 15.4044 30.3327L16.8476 29.1782C17.9337 29.8058 19.0887 30.2847 20.2971 30.6083L20.5021 32.4436C20.5628 32.9873 21.0225 33.3985 21.5697 33.3985H26.5053C27.0526 33.3985 27.5124 32.9869 27.5729 32.4429L27.7767 30.6082C28.9858 30.2843 30.1411 29.8052 31.2267 29.1775L32.67 30.331C33.0973 30.6725 33.7133 30.6383 34.1003 30.2514L37.5902 26.7615C37.9772 26.3745 38.0113 25.7583 37.6695 25.3309L36.5149 23.8877C37.1427 22.8016 37.6215 21.6465 37.9451 20.4381L39.7804 20.233ZM36.0249 19.2331C35.7137 20.7135 35.135 22.1095 34.3049 23.3822C34.0514 23.7707 34.0761 24.2779 34.3658 24.6401L35.3914 25.9221L33.2608 28.0526L31.9786 27.0279C31.6162 26.7385 31.1092 26.7142 30.7209 26.9675C29.4492 27.7975 28.0531 28.3763 26.5716 28.6881C26.1177 28.7836 25.7762 29.1597 25.7251 29.6207L25.544 31.25H22.5309L22.3489 29.6199C22.2975 29.1591 21.9562 28.7833 21.5023 28.6879C20.0219 28.3767 18.626 27.798 17.3533 26.968C16.9649 26.7147 16.4577 26.7392 16.0955 27.0289L14.8135 28.0544L12.683 25.9238L13.708 24.641C13.9974 24.2788 14.0218 23.7718 13.7683 23.3834C12.9383 22.1112 12.3594 20.7153 12.0479 19.2347C11.9523 18.7808 11.5763 18.4394 11.1153 18.3882L9.48552 18.2071V15.194L11.1156 15.012C11.5764 14.9605 11.9522 14.6192 12.0476 14.1654C12.3589 12.6851 12.9375 11.2892 13.7676 10.0164C14.0209 9.62793 13.9964 9.1208 13.7066 8.75859L12.6811 7.47666L14.8116 5.34609L16.0938 6.37051C16.4562 6.65996 16.9632 6.68428 17.3515 6.43096C18.6231 5.60107 20.0192 5.02217 21.5009 4.71035C21.9547 4.61484 22.2961 4.23877 22.3472 3.77783L22.5284 2.14844H25.5415L25.7236 3.77861C25.775 4.23945 26.1164 4.61514 26.5701 4.71055C28.0507 5.02187 29.4466 5.60049 30.7191 6.43047C31.1075 6.68389 31.6148 6.65928 31.9769 6.36953L33.259 5.34395L35.3894 7.47451L34.3645 8.75723C34.0751 9.11943 34.0508 9.62646 34.3042 10.0148C35.1343 11.287 35.7132 12.6829 36.0245 14.1636C36.12 14.6175 36.4961 14.9589 36.9571 15.0101L38.587 15.1912V18.2043L36.9569 18.3863C36.4961 18.438 36.1202 18.7793 36.0249 19.2331Z" fill="white"></path></svg>