<svg xmlns="http://www.w3.org/2000/svg" width="50" height="50" viewBox="0 0 50 50" fill="none"><g clip-path="url(#clip0_6034_885)"><path d="M20.844 3.34314C11.1826 3.34314 3.35059 11.1752 3.35059 20.8365C3.35059 30.4978 11.1826 38.3299 20.844 38.3299C30.5053 38.3299 38.3373 30.4978 38.3373 20.8365C38.3268 11.1795 30.5009 3.35366 20.844 3.34314ZM20.844 5.00917C25.9895 5.01324 30.8113 7.52103 33.7691 11.7316L31.6865 13.8142C31.1797 13.5075 30.5995 13.3434 30.0071 13.3393C28.1669 13.3393 26.6751 14.8312 26.6751 16.6714C26.678 17.2644 26.8412 17.8456 27.1474 18.3533L21.6928 23.8079C20.66 23.1781 19.3619 23.1781 18.3291 23.8079L14.5405 20.0193C14.8467 19.5116 15.0099 18.9305 15.0128 18.3375C15.0151 16.5009 13.5282 15.0102 11.6916 15.0079C10.1727 15.006 8.84559 16.0334 8.46698 17.5044H5.37648C6.9537 10.2211 13.3918 5.02011 20.844 5.00917ZM31.6732 16.6714C31.6732 17.5916 30.9273 18.3375 30.0071 18.3375C29.087 18.3375 28.3411 17.5916 28.3411 16.6714C28.3411 15.7512 29.087 15.0054 30.0071 15.0054C30.9273 15.0054 31.6732 15.7512 31.6732 16.6714ZM21.677 26.6676C21.677 27.5878 20.9311 28.3337 20.0109 28.3337C19.0908 28.3337 18.3449 27.5878 18.3449 26.6676C18.3449 25.7475 19.0908 25.0016 20.0109 25.0016C20.9311 25.0016 21.677 25.7475 21.677 26.6676ZM13.3468 18.3375C13.3468 19.2576 12.6009 20.0035 11.6808 20.0035C10.7606 20.0035 10.0147 19.2576 10.0147 18.3375C10.0147 17.4173 10.7606 16.6714 11.6808 16.6714C12.6009 16.6714 13.3468 17.4173 13.3468 18.3375ZM28.5342 34.6756C26.1817 35.9818 23.5348 36.6661 20.844 36.6637C12.1087 36.6697 5.02256 29.5933 5.01662 20.8581C5.0162 20.2943 5.04598 19.7309 5.10575 19.1704H8.46698C8.84569 20.637 10.166 21.6637 11.6808 21.6694C12.2738 21.6665 12.8549 21.5033 13.3626 21.1971L17.1512 24.9857C16.8449 25.4934 16.6818 26.0745 16.6789 26.6675C16.6789 28.5078 18.1707 29.9996 20.0109 29.9996C21.8512 29.9996 23.343 28.5078 23.343 26.6675C23.3401 26.0745 23.1769 25.4934 22.8707 24.9857L28.3253 19.5311C28.833 19.8373 29.4141 20.0005 30.0071 20.0034C31.8474 20.0034 33.3392 18.5116 33.3392 16.6713C33.3363 16.0783 33.1731 15.4972 32.8669 14.9895L34.6829 13.1743C38.9224 20.8097 36.1695 30.4362 28.5342 34.6756Z" fill="white"></path><path d="M41.6698 8.34127C43.1846 8.33555 44.5049 7.30896 44.8836 5.84222H50V4.17619H44.8836C44.5049 2.70945 43.1846 1.68286 41.6698 1.67713C39.8296 1.67713 38.3378 3.16896 38.3378 5.0092C38.3407 5.60221 38.5038 6.18334 38.8101 6.69107L37.3465 8.15468C30.3434 -0.969051 17.27 -2.68819 8.14629 4.31488C-0.977443 11.318 -2.69658 24.3914 4.30649 33.5152C10.9169 42.1272 23.0343 44.2163 32.1468 38.3149L34.6608 40.829L35.8387 42.0068L42.5445 48.7126C44.25 50.4181 47.015 50.4181 48.7205 48.7126C50.426 47.0071 50.426 44.2421 48.7205 42.5366L42.0147 35.8308L40.8368 34.653L38.3228 32.1389C42.7855 25.2649 42.7855 16.4083 38.3228 9.53415L39.9888 7.86812C40.4962 8.17446 41.0771 8.33794 41.6698 8.34127ZM41.6698 3.34317C42.59 3.34317 43.3359 4.08903 43.3359 5.0092C43.3359 5.92937 42.59 6.67524 41.6698 6.67524C40.7497 6.67524 40.0038 5.92937 40.0038 5.0092C40.0038 4.08903 40.7498 3.34317 41.6698 3.34317ZM47.5426 43.7145C48.6095 44.7575 48.629 46.4679 47.586 47.5347C46.5431 48.6016 44.8327 48.6211 43.7658 47.5782C43.7511 47.5639 43.7367 47.5494 43.7224 47.5347L37.0166 40.829L40.8368 37.0087L47.5426 43.7145ZM39.6589 35.8308L35.8387 39.6511L33.5329 37.3453C33.6504 37.2553 33.7603 37.1562 33.8761 37.0637C33.9919 36.9713 34.126 36.8605 34.2501 36.7563C34.4326 36.6031 34.6125 36.4481 34.7891 36.289C34.8799 36.2057 34.9665 36.1224 35.0557 36.0391C35.3972 35.7192 35.7279 35.3885 36.0478 35.047C36.1311 34.9578 36.2144 34.8712 36.2977 34.7804C36.4568 34.6038 36.6117 34.4239 36.765 34.2415C36.8695 34.1182 36.9719 33.9935 37.0724 33.8674C37.164 33.7525 37.2632 33.6425 37.3531 33.5251L39.6589 35.8308ZM36.4285 31.9615C36.1661 32.328 35.8953 32.687 35.6096 33.0327C35.5263 33.1335 35.4372 33.231 35.3514 33.3301C35.0965 33.6267 34.8332 33.9144 34.5617 34.1931C34.4434 34.3153 34.3231 34.4355 34.201 34.5538C33.9233 34.8254 33.6357 35.0886 33.338 35.3435C33.2389 35.4268 33.1414 35.5176 33.0406 35.6018C32.6949 35.8875 32.3359 36.1582 31.9693 36.4206C23.3459 42.5813 11.361 40.5849 5.20032 31.9615C-0.960366 23.3381 1.03606 11.3532 9.65946 5.19247C18.2829 -0.968218 30.2678 1.02811 36.4285 9.65161C41.1955 16.3243 41.1955 25.2888 36.4285 31.9615Z" fill="white"></path></g><defs><clipPath id="clip0_6034_885"><rect width="50" height="50" fill="white"></rect></clipPath></defs></svg>