<svg xmlns="http://www.w3.org/2000/svg" width="28" height="30" viewBox="0 0 28 30" fill="none"><path d="M25.6428 4.85962C24.1356 4.34189 22.9282 3.12767 22.4128 1.61156C22.085 0.647507 21.1826 0 20.1668 0H7.07931C6.06377 0 5.16106 0.647507 4.8333 1.61156C4.31786 3.12767 3.1105 4.34189 1.60332 4.85962C0.644302 5.18921 0 6.09444 0 7.11227V10.423C0 14.7434 1.29456 18.9034 3.74382 22.4533C5.9848 25.7014 9.07288 28.2431 12.6746 29.8041C12.976 29.9348 13.2994 30 13.623 30C13.9465 30 14.2699 29.9348 14.5713 29.8041C18.173 28.2433 21.2611 25.7014 23.502 22.4533C25.9513 18.9034 27.2461 14.7432 27.2461 10.423V7.11227C27.2461 6.09444 26.6018 5.18921 25.6428 4.85962ZM25.4883 10.423C25.4883 14.385 24.3011 18.1998 22.0551 21.4552C20.0013 24.432 17.1716 26.7613 13.8723 28.1911C13.7141 28.2598 13.5322 28.26 13.3736 28.1911C10.074 26.7613 7.24457 24.432 5.19081 21.4552C2.94502 18.2 1.75781 14.3852 1.75781 10.423V7.11227C1.75781 6.84494 1.92535 6.60782 2.17461 6.52222C4.1922 5.82893 5.80833 4.20479 6.4975 2.17735C6.58287 1.9265 6.81656 1.75781 7.07931 1.75781H20.1668C20.4293 1.75781 20.6632 1.9265 20.7486 2.17735C21.4378 4.20479 23.0539 5.82893 25.0715 6.52222C25.3207 6.60782 25.4883 6.84494 25.4883 7.11227V10.423Z" fill="white"></path><path d="M17.3581 11.3958H17.2984V8.8927C17.2984 6.86641 15.6498 5.21777 13.6235 5.21777C11.5972 5.21777 9.94855 6.86641 9.94855 8.8927V11.3958H9.88881C8.72174 11.3958 7.77234 12.3454 7.77234 13.5125V18.5707C7.77234 20.7442 9.54068 22.5128 11.7139 22.5128H15.533C17.7065 22.5128 19.4746 20.7442 19.4746 18.5707V13.5125C19.4746 12.3454 18.5252 11.3958 17.3581 11.3958ZM11.7064 8.8927C11.7064 7.83572 12.5665 6.97559 13.6235 6.97559C14.6805 6.97559 15.5406 7.83572 15.5406 8.8927V11.396H11.7064V8.8927ZM17.7168 18.5707C17.7168 19.7751 16.7372 20.7547 15.533 20.7547H11.7139C10.5098 20.7547 9.53015 19.7751 9.53015 18.5707V13.5125C9.53015 13.3147 9.69106 13.1538 9.88881 13.1538H17.3581C17.5559 13.1538 17.7168 13.3147 17.7168 13.5125V18.5707Z" fill="white"></path><path d="M13.623 15.2451C13.1376 15.2451 12.7441 15.6386 12.7441 16.124V17.7846C12.7441 18.27 13.1376 18.6635 13.623 18.6635C14.1085 18.6635 14.502 18.27 14.502 17.7846V16.124C14.502 15.6386 14.1085 15.2451 13.623 15.2451Z" fill="white"></path></svg>