<svg xmlns="http://www.w3.org/2000/svg" width="50" height="50" viewBox="0 0 50 50" fill="none"><path d="M10.2611 6.92212C12.8666 5.96102 18.4222 5.61659 22.3944 6.24435C22.6525 6.26376 22.9086 6.18716 23.1137 6.02926C23.3187 5.87136 23.4583 5.64328 23.5055 5.38881C23.5251 5.13153 23.4492 4.87603 23.2925 4.67109C23.1357 4.46615 22.9089 4.32612 22.6555 4.27772C18.8555 3.72217 13.0722 3.76661 9.49997 5.07215C9.25169 5.17013 9.05252 5.36272 8.94624 5.60756C8.83997 5.85239 8.83532 6.12942 8.9333 6.37769C9.03128 6.62595 9.22388 6.82513 9.46872 6.9314C9.71355 7.03767 9.99058 7.04233 10.2389 6.94434L10.2611 6.92212ZM38.2665 36.3217C37.8084 36.318 37.354 36.4047 36.9293 36.5766C36.5046 36.7486 36.1179 37.0025 35.7914 37.3239C35.4648 37.6453 35.2048 38.0278 35.0261 38.4497C34.8474 38.8716 34.7535 39.3246 34.7499 39.7828C34.7447 40.216 34.8277 40.6458 34.9939 41.046C35.1601 41.4462 35.406 41.8084 35.7165 42.1105L35.261 44.8327C35.252 44.9735 35.2715 45.1147 35.3186 45.2477C35.3656 45.3807 35.4391 45.5028 35.5346 45.6067C35.6302 45.7105 35.7458 45.7939 35.8744 45.8519C36.0031 45.9098 36.1421 45.9411 36.2832 45.9438H40.1721C40.3114 45.9436 40.449 45.9135 40.5757 45.8555C40.7024 45.7975 40.8151 45.713 40.9062 45.6076C40.9974 45.5022 41.0648 45.3785 41.104 45.2448C41.1431 45.1111 41.1531 44.9706 41.1332 44.8327L40.6832 42.1105C40.996 41.8092 41.2444 41.4475 41.4135 41.0474C41.5825 40.6473 41.6686 40.2171 41.6665 39.7828C41.6762 39.3308 41.5952 38.8814 41.4286 38.4611C41.2619 38.0409 41.0128 37.6582 40.696 37.3357C40.3791 37.0132 40.001 36.7573 39.5837 36.5832C39.1665 36.409 38.7186 36.3201 38.2665 36.3217ZM39.061 40.9161C38.9201 41.032 38.8098 41.1808 38.7401 41.3494C38.6703 41.518 38.6432 41.7011 38.661 41.8827L38.9999 43.9827H37.4165L37.7776 41.8827C37.7985 41.7009 37.7728 41.5167 37.7028 41.3476C37.6328 41.1785 37.5209 41.03 37.3776 40.9161C37.1922 40.7946 37.0388 40.6302 36.9305 40.4367C36.8221 40.2433 36.7621 40.0266 36.7554 39.805C36.7656 39.411 36.9292 39.0366 37.2115 38.7615C37.4938 38.4865 37.8724 38.3326 38.2665 38.3328C38.4573 38.3326 38.6462 38.371 38.8218 38.4457C38.9974 38.5203 39.1561 38.6297 39.2884 38.7672C39.4207 38.9046 39.5239 39.0674 39.5917 39.2458C39.6596 39.4241 39.6907 39.6143 39.6832 39.805C39.6765 40.0266 39.6165 40.2433 39.5082 40.4367C39.3998 40.6302 39.2464 40.7946 39.061 40.9161ZM46.8832 32.2218H35.0332L35.0888 27.0052C35.0739 26.6059 35.1389 26.2076 35.2798 25.8337C35.4207 25.4598 35.6347 25.1177 35.9094 24.8275C36.1841 24.5373 36.5139 24.3048 36.8795 24.1436C37.2451 23.9824 37.6392 23.8957 38.0388 23.8885C38.4669 23.8562 38.8971 23.9132 39.3021 24.0558C39.7071 24.1985 40.0781 24.4237 40.3914 24.7172C40.7048 25.0108 40.9538 25.3662 41.1226 25.761C41.2914 26.1558 41.3764 26.5814 41.3721 27.0107C41.355 27.4011 41.4171 27.7909 41.5547 28.1567C41.6923 28.5224 41.9025 28.8565 42.1727 29.1388C42.4429 29.4211 42.7675 29.6458 43.1269 29.7993C43.4862 29.9528 43.873 30.0319 44.2637 30.0319C44.6545 30.0319 45.0412 29.9528 45.4006 29.7993C45.76 29.6458 46.0845 29.4211 46.3547 29.1388C46.6249 28.8565 46.8352 28.5224 46.9728 28.1567C47.1104 27.7909 47.1725 27.4011 47.1554 27.0107C47.1852 25.8155 46.9755 24.6265 46.5386 23.5136C46.1018 22.4007 45.4467 21.3865 44.6119 20.5306C43.7771 19.6748 42.7795 18.9946 41.6778 18.5303C40.5761 18.0659 39.3926 17.8266 38.1971 17.8266C37.0015 17.8266 35.818 18.0659 34.7164 18.5303C33.6147 18.9946 32.6171 19.6748 31.7822 20.5306C30.9474 21.3865 30.2924 22.4007 29.8555 23.5136C29.4187 24.6265 29.209 25.8155 29.2388 27.0107V32.2884C28.4727 32.3759 27.7659 32.7428 27.2534 33.3188C26.7409 33.8948 26.4588 34.6396 26.461 35.4106V42.7772C23.6469 43.3718 20.7761 43.6568 17.8999 43.6271C8.77775 43.6271 1.97222 40.9605 1.97222 38.5772V31.2718C5.14998 33.6551 11.6666 34.9606 17.8999 34.9606C19.4333 34.9606 21.0221 34.8439 22.3444 34.7328C22.4759 34.7246 22.6045 34.6898 22.7223 34.6306C22.84 34.5713 22.9446 34.4889 23.0297 34.3882C23.1148 34.2876 23.1787 34.1707 23.2175 34.0447C23.2563 33.9187 23.2692 33.7862 23.2555 33.6551C23.2188 33.3975 23.0887 33.1623 22.89 32.9944C22.6913 32.8264 22.4378 32.7373 22.1777 32.744C20.9277 32.8606 19.3999 32.9717 17.9222 32.9717C8.79997 32.9717 1.99444 30.3051 1.99444 27.9218V20.5553C5.1722 22.9941 11.6888 24.2441 17.9222 24.2441C20.8734 24.2675 23.819 23.9826 26.711 23.3941C26.9737 23.3392 27.2043 23.1831 27.3529 22.9596C27.5016 22.7362 27.5564 22.4632 27.5055 22.1997C27.4828 22.0696 27.4328 21.9459 27.3587 21.8366C27.2847 21.7272 27.1883 21.6349 27.076 21.5656C26.9636 21.4963 26.8378 21.4516 26.7069 21.4345C26.576 21.4174 26.443 21.4282 26.3166 21.4664C23.5512 22.0055 20.7396 22.2716 17.9222 22.2608C8.79997 22.2608 1.99444 19.5886 1.99444 17.2609V10.3832C5.1722 12.8276 11.6888 14.072 17.9222 14.072C24.1555 14.072 30.6221 12.8276 33.7999 10.3832V15.9387C33.8186 16.1888 33.9312 16.4227 34.1151 16.5933C34.299 16.764 34.5407 16.8588 34.7915 16.8588C35.0424 16.8588 35.284 16.764 35.4679 16.5933C35.6519 16.4227 35.7645 16.1888 35.7832 15.9387V7.09434C35.7721 2.49441 26.5888 0 17.911 0C9.2333 0 0 2.49441 0 7.09434V38.5939C0 43.1327 9.23886 45.6271 17.911 45.6271C20.7838 45.6405 23.6509 45.3745 26.4721 44.8327V46.9327C26.4779 47.3431 26.5648 47.7484 26.728 48.1251C26.8911 48.5018 27.1271 48.8425 27.4225 49.1276C27.7179 49.4126 28.0668 49.6364 28.4491 49.786C28.8314 49.9356 29.2395 50.0081 29.6499 49.9993H46.8721C47.6933 50.0067 48.4839 49.6879 49.0703 49.113C49.6567 48.538 49.991 47.7539 49.9998 46.9327V35.4162C50.0087 34.5797 49.6857 33.7738 49.1015 33.175C48.5173 32.5763 47.7196 32.2335 46.8832 32.2218ZM17.911 1.98886C26.9832 1.98886 33.7888 4.65549 33.7888 7.09434C33.7888 9.19431 27.7221 12.0943 17.911 12.0943C8.09997 12.0943 1.98333 9.19987 1.98333 7.09434C1.98333 3.00551 15.3166 1.98886 17.911 1.98886ZM31.2443 27.0163C31.218 26.0838 31.379 25.1554 31.7176 24.2862C32.0563 23.4169 32.5659 22.6244 33.2162 21.9555C33.8665 21.2867 34.6443 20.7549 35.5036 20.3919C36.363 20.0288 37.2864 19.8417 38.2193 19.8417C39.1522 19.8417 40.0756 20.0288 40.935 20.3919C41.7943 20.7549 42.5722 21.2867 43.2224 21.9555C43.8727 22.6244 44.3823 23.4169 44.721 24.2862C45.0597 25.1554 45.2206 26.0838 45.1943 27.0163C45.2003 27.2487 45.1144 27.4741 44.9553 27.6437C44.7962 27.8132 44.5766 27.9131 44.3443 27.9218C44.2205 27.9294 44.0965 27.9116 43.9798 27.8696C43.8632 27.8275 43.7563 27.7621 43.6658 27.6773C43.5753 27.5926 43.5031 27.4902 43.4535 27.3765C43.404 27.2629 43.3781 27.1403 43.3776 27.0163C43.4003 26.3283 43.2843 25.6428 43.0367 25.0006C42.789 24.3584 42.4147 23.7725 41.9361 23.2779C41.4575 22.7832 40.8842 22.3899 40.2505 22.1212C39.6167 21.8526 38.9354 21.7142 38.2471 21.7142C37.5588 21.7142 36.8775 21.8526 36.2437 22.1212C35.61 22.3899 35.0367 22.7832 34.5581 23.2779C34.0794 23.7725 33.7051 24.3584 33.4575 25.0006C33.2099 25.6428 33.0939 26.3283 33.1165 27.0163V32.2218H31.2332L31.2443 27.0163ZM48.0165 46.9327C48.0078 47.2215 47.8869 47.4956 47.6795 47.6969C47.4721 47.8981 47.1944 48.0105 46.9054 48.0104H29.6832C29.382 48.0255 29.0871 47.9206 28.8631 47.7185C28.6392 47.5165 28.5046 47.2338 28.4888 46.9327V35.4162C28.485 35.2583 28.5133 35.1012 28.572 34.9546C28.6306 34.808 28.7185 34.6748 28.8302 34.5631C28.9418 34.4514 29.075 34.3636 29.2217 34.3049C29.3683 34.2462 29.5253 34.2179 29.6832 34.2217H46.9054C47.0569 34.2267 47.206 34.2617 47.3439 34.3245C47.4819 34.3873 47.6061 34.4768 47.7094 34.5878C47.8127 34.6988 47.893 34.8292 47.9457 34.9713C47.9984 35.1135 48.0224 35.2647 48.0165 35.4162V46.9327ZM5.44443 35.9828C5.18867 35.8951 4.90873 35.9111 4.66465 36.0275C4.42058 36.1438 4.23182 36.3511 4.13887 36.605C4.09222 36.7276 4.07146 36.8585 4.0779 36.9896C4.08434 37.1206 4.11784 37.2488 4.17629 37.3663C4.23474 37.4837 4.31688 37.5877 4.41753 37.6719C4.51818 37.756 4.63516 37.8183 4.76109 37.855L6.74442 38.5939C6.98429 38.6788 7.24759 38.6685 7.48011 38.5652C7.71263 38.4618 7.8967 38.2733 7.99442 38.0383C8.0803 37.7914 8.07095 37.5213 7.9682 37.2808C7.86545 37.0404 7.6767 36.847 7.43886 36.7384L5.44443 35.9828ZM5.44443 25.1996C5.19615 25.1017 4.91913 25.1063 4.67429 25.2126C4.42945 25.3188 4.23686 25.518 4.13887 25.7663C4.04089 26.0146 4.04555 26.2916 4.15182 26.5364C4.25809 26.7813 4.45727 26.9739 4.70554 27.0718L6.66664 27.8663C6.91491 27.9642 7.19194 27.9596 7.43678 27.8533C7.68162 27.7471 7.87421 27.5479 7.97219 27.2996C8.07018 27.0513 8.06552 26.7743 7.95925 26.5295C7.85298 26.2846 7.6538 26.0921 7.40553 25.9941L5.44443 25.1996ZM5.44443 14.8109C5.18791 14.725 4.90799 14.7425 4.66418 14.8597C4.42037 14.9769 4.23191 15.1846 4.13887 15.4387C4.09497 15.5599 4.07637 15.6889 4.08421 15.8176C4.09205 15.9463 4.12618 16.0721 4.18447 16.1871C4.24277 16.3021 4.324 16.404 4.42317 16.4864C4.52235 16.5689 4.63735 16.6301 4.76109 16.6664L6.74442 17.4053C6.98421 17.4916 7.24808 17.482 7.48097 17.3785C7.71386 17.275 7.8978 17.0856 7.99442 16.8498C8.08057 16.602 8.07141 16.3311 7.96871 16.0897C7.866 15.8484 7.67712 15.6539 7.43886 15.5442L5.44443 14.8109Z" fill="white"></path></svg>