<svg xmlns="http://www.w3.org/2000/svg" width="36" height="30" viewBox="0 0 36 30" fill="none"><path d="M27.6947 12.7064V6.18487C27.6947 5.68583 27.3402 5.26236 26.8576 5.168L18.1467 0.138852C17.8261 -0.0462841 17.4311 -0.0462841 17.1105 0.138852L8.1927 5.28758C7.87209 5.47264 7.67459 5.81473 7.67459 6.18494V12.7064C4.23859 13.7875 0 16.0187 0 19.6189C0 22.7084 3.27526 25.3923 8.79432 26.8557L8.3826 28.741C8.20603 29.5494 9.00716 30.2333 9.77983 29.9242L14.9609 27.8518C15.6463 27.5777 15.8341 26.6916 15.3152 26.1635L11.4467 22.2259C10.8711 21.6402 9.87081 21.9265 9.69514 22.7311L9.23706 24.8286C4.86397 23.6503 2.07242 21.6351 2.07242 19.6189C2.07242 17.8681 4.19223 16.0995 7.67459 14.8894V16.4824C7.67459 16.8526 7.87209 17.1947 8.1927 17.3797L17.1666 22.5608C17.4872 22.7459 17.8822 22.7459 18.2028 22.5608L27.1766 17.3797C27.4972 17.1946 27.6947 16.8526 27.6947 16.4824V14.8894C31.1771 16.0995 33.2969 17.8681 33.2969 19.6189C33.2969 23.4561 24.8692 25.404 20.7304 25.7453C20.1601 25.7924 19.736 26.293 19.783 26.8633C19.8296 27.428 20.3242 27.8577 20.901 27.8107C26.2963 27.3647 35.3693 25.0333 35.3693 19.6189C35.3693 16.0184 31.1296 13.7871 27.6947 12.7064ZM11.3111 25.045L12.7461 26.5057L10.8242 27.2745L11.3111 25.045ZM17.6286 2.23269L24.5301 6.21727C23.6875 6.70373 18.2469 9.84483 17.6847 10.1694C17.0712 9.81527 11.7037 6.71637 10.7832 6.18487L17.6286 2.23269ZM9.74701 7.97972L16.6485 11.9642V19.8687L9.74701 15.8841V7.97972ZM25.6223 15.8841L18.7209 19.8687V11.9642L25.6223 7.97972V15.8841Z" fill="#3A6EF2"></path></svg>