<svg xmlns="http://www.w3.org/2000/svg" width="14" height="15" viewBox="0 0 14 15" fill="none"><path d="M7.95703 6.92188C8.75 7.16797 9.29688 7.96094 9.29688 8.80859C9.29688 9.875 8.44922 10.75 7.4375 10.75V11.1875C7.4375 11.4336 7.21875 11.625 7 11.625H6.5625C6.31641 11.625 6.125 11.4336 6.125 11.1875V10.75C5.66016 10.75 5.22266 10.5859 4.83984 10.3398C4.62109 10.1758 4.56641 9.84766 4.78516 9.65625L5.11328 9.35547C5.25 9.21875 5.46875 9.19141 5.66016 9.30078C5.82422 9.41016 5.98828 9.4375 6.17969 9.4375H7.41016C7.73828 9.4375 7.98438 9.16406 7.98438 8.80859C7.98438 8.50781 7.82031 8.26172 7.57422 8.17969L5.60547 7.57812C4.8125 7.35938 4.26562 6.56641 4.26562 5.71875C4.26562 4.65234 5.08594 3.77734 6.125 3.75V3.3125C6.125 3.09375 6.31641 2.875 6.5625 2.875H7C7.24609 2.875 7.4375 3.09375 7.4375 3.3125V3.77734C7.875 3.77734 8.3125 3.91406 8.69531 4.1875C8.94141 4.35156 8.96875 4.67969 8.75 4.87109L8.42188 5.17188C8.28516 5.30859 8.06641 5.33594 7.90234 5.22656C7.73828 5.11719 7.54688 5.0625 7.35547 5.0625H6.125C5.82422 5.0625 5.55078 5.36328 5.55078 5.71875C5.55078 5.99219 5.74219 6.26562 5.98828 6.34766L7.95703 6.92188ZM6.78125 0.46875C10.5273 0.46875 13.5625 3.50391 13.5625 7.25C13.5625 10.9961 10.5273 14.0312 6.78125 14.0312C3.03516 14.0312 0 10.9961 0 7.25C0 3.50391 3.03516 0.46875 6.78125 0.46875ZM6.78125 12.7188C9.78906 12.7188 12.25 10.2852 12.25 7.25C12.25 4.24219 9.78906 1.78125 6.78125 1.78125C3.74609 1.78125 1.3125 4.24219 1.3125 7.25C1.3125 10.2852 3.74609 12.7188 6.78125 12.7188Z" fill="#696969"></path></svg>