<svg xmlns="http://www.w3.org/2000/svg" width="153" height="30" viewBox="0 0 153 30" fill="none"><path d="M18.6027 5.63738L9.7867 11.2748L18.6027 16.9121L9.7867 22.5495L0.970703 16.8817L9.7867 11.2443L0.970703 5.63738L9.7867 0L18.6027 5.63738ZM9.7411 24.3626L18.5571 18.7252L27.3731 24.3626L18.5571 30L9.7411 24.3626ZM18.6027 16.8817L27.4187 11.2443L18.6027 5.63738L27.3731 0L36.1891 5.63738L27.3731 11.2748L36.1891 16.9121L27.3731 22.5495L18.6027 16.8817Z" fill="#696969"></path><path d="M43.1055 5.63743H50.2343C54.7791 5.63743 58.5335 8.27329 58.5335 14.2916V15.5562C58.5335 21.6202 55.0223 24.3474 50.3711 24.3474H43.1055V5.63743ZM47.0879 9.03509V20.9345H50.1431C52.7271 20.9345 54.4599 19.2433 54.4599 15.48V14.4896C54.4599 10.7263 52.6359 9.03509 50.0063 9.03509H47.0879ZM60.6463 9.21793H63.8383L64.3551 12.7375C64.9631 10.3454 66.5135 9.06557 69.3255 9.06557H70.3135V13.1031H68.6719C65.4343 13.1031 64.6439 14.2306 64.6439 17.4302V24.3931H60.7071V9.21793H60.6463ZM71.1039 17.1103V16.6836C71.1039 11.61 74.3415 8.83702 78.7495 8.83702C83.2487 8.83702 86.3951 11.61 86.3951 16.6836V17.1103C86.3951 22.0925 83.3399 24.774 78.7495 24.774C73.8703 24.7283 71.1039 22.1077 71.1039 17.1103ZM82.3671 17.0646V16.6836C82.3671 13.865 80.9535 12.1737 78.7039 12.1737C76.4999 12.1737 75.0407 13.7278 75.0407 16.6836V17.0646C75.0407 19.7918 76.4543 21.3459 78.7039 21.3459C80.9535 21.3002 82.3671 19.7918 82.3671 17.0646ZM88.4623 9.21793H91.7455L92.1255 12.0823C92.9159 10.1626 94.6031 8.83702 97.0959 8.83702C100.941 8.83702 103.48 11.61 103.48 16.7446V17.1712C103.48 22.1534 100.668 24.7893 97.0959 24.7893C94.7095 24.7893 93.0679 23.7075 92.2623 21.9706V29.6344H88.4167L88.4623 9.21793ZM99.4823 17.0646V16.7294C99.4823 13.7126 97.9319 12.2195 95.8647 12.2195C93.6607 12.2195 92.2015 13.9107 92.2015 16.7294V17.0188C92.2015 19.7004 93.6151 21.3916 95.8191 21.3916C98.0839 21.3459 99.4823 19.8985 99.4823 17.0646ZM109.301 21.5897L108.967 24.3627H105.593V4.14429H109.438V11.8995C110.289 9.91879 111.977 8.83702 114.363 8.83702C117.981 8.88273 120.656 11.3815 120.656 16.4094V16.8817C120.656 21.9097 118.117 24.7893 114.272 24.7893C111.733 24.7283 110.092 23.5552 109.301 21.5897ZM116.613 16.8817V16.5008C116.613 13.7278 115.108 12.1737 112.995 12.1737C110.837 12.1737 109.332 13.9107 109.332 16.5465V16.8817C109.332 19.7004 110.791 21.3459 112.949 21.3459C115.26 21.3459 116.613 19.8985 116.613 16.8817ZM122.343 17.1103V16.6836C122.343 11.61 125.581 8.83702 129.989 8.83702C134.488 8.83702 137.634 11.61 137.634 16.6836V17.1103C137.634 22.0925 134.533 24.774 129.989 24.774C125.109 24.7283 122.343 22.1077 122.343 17.1103ZM133.637 17.0646V16.6836C133.637 13.865 132.223 12.1737 129.973 12.1737C127.769 12.1737 126.31 13.7278 126.31 16.6836V17.0646C126.31 19.7918 127.724 21.3459 129.973 21.3459C132.238 21.3002 133.637 19.7918 133.637 17.0646ZM142.787 16.5008L137.482 9.21793H142.027L145.082 13.7735L148.183 9.21793H152.682L147.301 16.4551L152.971 24.3627H148.517L145.052 19.3347L141.677 24.3627H137.026L142.787 16.5008Z" fill="#696969"></path></svg>