<svg xmlns="http://www.w3.org/2000/svg" width="48" height="50" viewBox="0 0 48 50" fill="none"><path d="M47.7684 37.7894C47.7684 34.4296 45.6121 31.446 42.4641 30.359C41.838 26.3774 39.0227 23.0168 35.2305 21.688C35.4752 20.8389 35.6266 19.8535 35.6266 18.6278C35.6266 12.2171 30.4111 7.00166 24.0004 7.00166C17.5896 7.00166 12.3742 12.2171 12.3742 18.6278C12.3742 20.326 12.6647 21.5628 13.0914 22.6149C10.8328 23.3273 8.80303 24.7061 7.30391 26.5645C5.57822 28.7037 4.62793 31.3984 4.62793 34.1521C4.62793 34.2037 4.62832 34.2559 4.629 34.3085C1.94082 35.631 0.232422 38.3419 0.232422 41.3594C0.232422 45.6931 3.75811 49.2187 8.0917 49.2187H36.3392C39.4265 49.2187 42.1023 47.4286 43.3869 44.8325C46.0581 43.506 47.7684 40.7733 47.7684 37.7894ZM24.0003 8.56416C29.5494 8.56416 34.064 13.0787 34.064 18.6278C34.064 20.0154 33.8523 21.0202 33.5126 21.8991C33.508 21.9104 33.5033 21.9215 33.4992 21.933C33.207 22.6791 32.8229 23.3364 32.3976 24.0633C31.325 25.8964 30.1167 27.9617 29.7479 32.3877H26.6543V22.009H28.3932C30.2136 22.009 31.6946 20.528 31.6946 18.7076C31.6946 16.8872 30.2136 15.4062 28.3932 15.4062C26.5728 15.4062 25.0918 16.8872 25.0918 18.7076V20.4465H22.9088V18.7076C22.9088 16.8872 21.4277 15.4062 19.6073 15.4062C17.7869 15.4062 16.306 16.8872 16.306 18.7076C16.306 20.528 17.7869 22.009 19.6073 22.009H21.3463V32.3878H18.2526C18.0494 29.9479 17.5908 28.2262 17.0406 26.8645C17.0345 26.8472 17.0274 26.8304 17.0201 26.8136C16.5773 25.7292 16.077 24.8734 15.6029 24.0635C14.672 22.4723 13.9366 21.2155 13.9366 18.6278C13.9366 13.0787 18.4512 8.56416 24.0003 8.56416ZM21.8757 40.9997H26.1249V41.981C26.1249 42.5219 25.6848 42.962 25.1438 42.962H22.8567C22.3158 42.962 21.8757 42.5219 21.8757 41.981V40.9997ZM26.9514 39.4372H21.0495C20.5085 39.4372 20.0684 38.9971 20.0684 38.4562V37.475H27.9321V38.4562C27.9322 38.9971 27.4922 39.4372 26.9514 39.4372ZM28.7137 35.9125H19.2872C18.7463 35.9125 18.3062 35.4725 18.3062 34.9315V33.9503H29.6945V34.9315C29.6945 35.4725 29.2545 35.9125 28.7137 35.9125ZM21.3463 20.4465H19.6073C18.6485 20.4465 17.8685 19.6665 17.8685 18.7076C17.8685 17.7487 18.6484 16.9687 19.6073 16.9687C20.5662 16.9687 21.3463 17.7487 21.3463 18.7076V20.4465ZM25.0919 32.3878H22.9089V22.009H25.0919V32.3878ZM26.6544 20.4465V18.7076C26.6544 17.7488 27.4344 16.9687 28.3933 16.9687C29.3521 16.9687 30.1322 17.7487 30.1322 18.7076C30.1322 19.6665 29.3521 20.4465 28.3933 20.4465H26.6544ZM36.339 47.6562H8.0915C4.61943 47.6562 1.79473 44.8314 1.79473 41.3595C1.79473 38.7946 3.33721 36.5057 5.72432 35.528C6.03291 35.4016 6.22725 35.0933 6.20811 34.7604C6.19629 34.5535 6.19023 34.3489 6.19023 34.1521C6.19023 29.4094 9.28486 25.3324 13.7853 24.0373C13.9376 24.3111 14.0951 24.5807 14.2543 24.8526C14.5519 25.3612 14.8607 25.8895 15.1564 26.4906C11.5723 27.2182 8.90215 30.3924 8.90215 34.1521C8.90215 34.5836 9.25195 34.9334 9.6834 34.9334C10.1148 34.9334 10.4646 34.5836 10.4646 34.1521C10.4646 31.0352 12.7576 28.4214 15.7812 27.9667C16.2426 29.2639 16.6075 30.9095 16.7435 33.1948V34.9316C16.7435 36.0616 17.4844 37.0213 18.5058 37.3519V38.4562C18.5058 39.6027 19.2685 40.5742 20.3131 40.8907V41.9811C20.3131 43.3835 21.4542 44.5246 22.8566 44.5246H25.1438C26.5462 44.5246 27.6873 43.3835 27.6873 41.9811V40.8908C28.7318 40.5743 29.4946 39.6028 29.4946 38.4562V37.3519C30.5159 37.0214 31.2569 36.0616 31.2569 34.9316V33.1963C31.4166 30.5098 31.8927 28.707 32.4699 27.3152C35.2046 28.7755 37.0726 31.5067 37.4086 34.6119C37.4432 34.9315 37.67 35.1974 37.9803 35.2817C40.7213 36.0273 42.6357 38.5266 42.6357 41.3595C42.6357 42.26 42.4443 43.1161 42.1023 43.8915C42.0909 43.9138 42.0807 43.9365 42.0715 43.9597C41.0796 46.1376 38.884 47.6562 36.339 47.6562ZM44.1195 42.4603C44.1702 42.1003 44.1982 41.7331 44.1982 41.3594C44.1982 37.9996 42.0421 35.0161 38.8939 33.9291C38.3571 30.5008 36.2138 27.5192 33.1465 25.9054C33.3466 25.5354 33.5489 25.1896 33.7462 24.8525C34.0729 24.2942 34.3933 23.7462 34.6745 23.1493C38.0875 24.3273 40.5869 27.4209 40.9788 31.0417C41.0134 31.3613 41.2402 31.6271 41.5505 31.7115C44.2915 32.457 46.2059 34.9563 46.2059 37.7893C46.2059 39.5934 45.4239 41.2825 44.1195 42.4603ZM23.219 4.11699V1.5625C23.219 1.13105 23.5688 0.78125 24.0003 0.78125C24.4317 0.78125 24.7815 1.13105 24.7815 1.5625V4.11699C24.7815 4.54844 24.4317 4.89824 24.0003 4.89824C23.5688 4.89824 23.219 4.54844 23.219 4.11699ZM13.867 4.48701C13.6512 4.11338 13.7793 3.63555 14.1529 3.41982C14.5268 3.20381 15.0045 3.33223 15.2201 3.70576L16.4974 5.91807C16.7132 6.2917 16.5851 6.76953 16.2114 6.98525C16.0884 7.05635 15.954 7.09004 15.8216 7.09004C15.5515 7.09004 15.289 6.9499 15.1442 6.69932L13.867 4.48701ZM6.94424 10.6286C7.15986 10.2549 7.63779 10.1268 8.01143 10.3427L10.2237 11.6199C10.5974 11.8356 10.7255 12.3135 10.5097 12.6871C10.365 12.9377 10.1023 13.0778 9.83232 13.0778C9.69981 13.0778 9.56553 13.044 9.44248 12.973L7.23018 11.6958C6.85645 11.4801 6.72842 11.0022 6.94424 10.6286ZM31.5032 5.91816L32.7806 3.70586C32.9962 3.33213 33.474 3.2041 33.8478 3.41992C34.2214 3.63564 34.3495 4.11348 34.1337 4.48711L32.8563 6.69941C32.7117 6.95 32.449 7.09014 32.179 7.09014C32.0465 7.09014 31.9122 7.05635 31.7892 6.98535C31.4155 6.76953 31.2874 6.2918 31.5032 5.91816ZM37.4911 12.6872C37.2753 12.3136 37.4034 11.8357 37.7771 11.62L39.9894 10.3428C40.3632 10.1269 40.8409 10.2552 41.0565 10.6287C41.2724 11.0023 41.1442 11.4802 40.7706 11.6959L38.5583 12.9731C38.4353 13.0442 38.3009 13.0779 38.1685 13.0779C37.8982 13.0779 37.6357 12.9378 37.4911 12.6872Z" fill="#0E0E0E"></path></svg>