<svg width="40" height="40" viewBox="0 0 40 40" fill="none" xmlns="http://www.w3.org/2000/svg">
<g clip-path="url(#clip0_8099_775)">
<path d="M18.8223 28.5146C18.6168 28.5146 18.4152 28.5982 18.2699 28.7436C18.1247 28.8889 18.041 29.0896 18.041 29.2959C18.041 29.5014 18.1246 29.7029 18.2699 29.8482C18.4152 29.9935 18.6168 30.0771 18.8223 30.0771C19.0277 30.0771 19.2293 29.9936 19.3746 29.8482C19.5198 29.7021 19.6035 29.5014 19.6035 29.2959C19.6035 29.0896 19.5199 28.8889 19.3746 28.7436C19.2293 28.5982 19.0277 28.5146 18.8223 28.5146Z" fill="#0E0E0E"/>
<path d="M33.7324 26.1812C33.5262 26.1812 33.3246 26.2647 33.1793 26.4101C33.0341 26.5554 32.9512 26.7562 32.9512 26.9624C32.9512 27.1679 33.0341 27.3694 33.1793 27.5147C33.3246 27.66 33.5262 27.7437 33.7324 27.7437C33.9379 27.7437 34.1387 27.6601 34.2848 27.5147C34.4301 27.3686 34.5137 27.1679 34.5137 26.9624C34.5137 26.7569 34.4302 26.5554 34.2848 26.4101C34.1387 26.2647 33.9378 26.1812 33.7324 26.1812Z" fill="#0E0E0E"/>
<path d="M10.6211 22.4219C10.4156 22.4219 10.2141 22.5054 10.0688 22.6508C9.92352 22.7961 9.83984 22.9977 9.83984 23.2031C9.83984 23.4086 9.92344 23.6102 10.0688 23.7554C10.2141 23.9007 10.4156 23.9844 10.6211 23.9844C10.8266 23.9844 11.0281 23.9008 11.1734 23.7554C11.3188 23.6102 11.4023 23.4086 11.4023 23.2031C11.4023 22.9977 11.3188 22.7961 11.1734 22.6508C11.028 22.5055 10.8266 22.4219 10.6211 22.4219Z" fill="#0E0E0E"/>
<path d="M39.9999 8.47945C39.9999 8.04797 39.6501 7.6982 39.2187 7.6982H38.0156C37.8513 7.14953 37.6323 6.62031 37.3605 6.11578L38.211 5.26523C38.5161 4.96016 38.5161 4.46547 38.211 4.16039L35.8396 1.78906C35.5345 1.48398 35.0399 1.48398 34.7347 1.78906L33.8842 2.63953C33.3796 2.36781 32.8505 2.14875 32.3018 1.98438V0.78125C32.3018 0.349844 31.952 0 31.5205 0H28.1669C27.7355 0 27.3856 0.349766 27.3856 0.78125V1.98727C26.838 2.15195 26.31 2.37117 25.8066 2.64281L24.9527 1.78898C24.6476 1.48391 24.153 1.48391 23.8478 1.78898L21.4764 4.16039C21.2905 4.34641 21.2185 4.60273 21.2592 4.84367H3.12758C1.40305 4.84375 0 6.2468 0 7.97141V29.5287C0 31.2532 1.40305 32.6562 3.12758 32.6562H15.5412V35.3125H13.6691C12.1167 35.3125 10.8537 36.5755 10.8537 38.1278V39.2188C10.8537 39.6502 11.2036 40 11.635 40H26.01C26.4414 40 26.7913 39.6502 26.7913 39.2188V38.1278C26.7913 36.5755 25.5284 35.3125 23.976 35.3125H22.1038V32.6562H34.5103C36.2349 32.6562 37.638 31.2532 37.638 29.5287V16.7251L38.211 16.152C38.3575 16.0055 38.4398 15.8068 38.4398 15.5996C38.4398 15.3924 38.3575 15.1937 38.211 15.0472L37.3572 14.1934C37.6289 13.6899 37.848 13.162 38.0128 12.6144H39.2188C39.426 12.6144 39.6248 12.532 39.7712 12.3855C39.9177 12.2391 40.0001 12.0403 40.0001 11.8331L39.9999 8.47945ZM25.2288 38.1278V38.4375H12.4162V38.1278C12.4162 37.437 12.9782 36.875 13.6691 36.875H23.976C24.6667 36.875 25.2288 37.437 25.2288 38.1278ZM20.5413 35.3125H17.1038V32.6562H20.5413V35.3125ZM36.0755 29.5287C36.0755 30.3916 35.3734 31.0938 34.5103 31.0938H3.12758C2.26461 31.0938 1.5625 30.3916 1.5625 29.5287V27.7435H30.6071C31.0385 27.7435 31.3884 27.3937 31.3884 26.9623C31.3884 26.5309 31.0385 26.181 30.6071 26.181H1.5625V23.9844H7.52602C7.95742 23.9844 8.30727 23.6345 8.30727 23.2031C8.30727 22.7717 7.95742 22.4219 7.52602 22.4219H1.5625V7.97141C1.5625 7.10836 2.26461 6.40625 3.12758 6.40625H22.1882C21.9844 6.82242 21.8147 7.25383 21.6816 7.6982H20.4688C20.2616 7.6982 20.0629 7.78055 19.9164 7.92703C19.7699 8.07352 19.6875 8.27227 19.6875 8.47945L19.6876 11.833C19.6876 12.2645 20.0374 12.6143 20.4688 12.6143H21.6845C21.8485 13.1595 22.0666 13.6854 22.3367 14.187L21.4766 15.0473C21.1715 15.3523 21.1715 15.847 21.4766 16.1521L23.848 18.5234C24.1531 18.8285 24.6477 18.8285 24.9529 18.5234L25.813 17.6633C26.3147 17.9334 26.8406 18.1516 27.3858 18.3155L27.3857 19.5312C27.3857 19.9627 27.7355 20.3125 28.167 20.3125L31.5206 20.3124C31.952 20.3124 32.3019 19.9627 32.3019 19.5312V18.3184C32.8482 18.1548 33.3752 17.9368 33.878 17.6666L34.7348 18.5234C34.8813 18.6699 35.08 18.7523 35.2872 18.7523C35.4944 18.7523 35.693 18.6699 35.8396 18.5234L36.0755 18.2876V29.5287ZM38.4375 11.0518H37.4096C37.0433 11.0518 36.7261 11.3064 36.6468 11.6641C36.4708 12.4589 36.159 13.2102 35.7199 13.8968C35.5221 14.2053 35.5652 14.6112 35.8252 14.8712L36.5537 15.5997L35.2872 16.8662L34.5565 16.1355C34.3186 15.8977 33.9552 15.8387 33.6544 15.9891C33.6302 16.0011 33.6067 16.0145 33.584 16.0289C32.8974 16.4663 32.1467 16.7766 31.3527 16.9515C30.9945 17.0303 30.7393 17.3477 30.7393 17.7145V18.75H28.9481V17.7124C28.9481 17.346 28.6935 17.0288 28.3358 16.9496C27.543 16.7741 26.7933 16.4631 26.1077 16.0255C25.9822 15.9454 25.8363 15.9028 25.6873 15.9028C25.4802 15.9028 25.2812 15.9852 25.1347 16.1317L24.4003 16.8662L23.1338 15.5996L23.8682 14.8652C24.1282 14.6052 24.1713 14.1995 23.9736 13.8909C23.5364 13.2057 23.2259 12.4566 23.0504 11.6641C22.9712 11.3064 22.654 11.0518 22.2876 11.0518H21.25L21.2501 9.2607H22.2855C22.6522 9.2607 22.9696 9.00555 23.0485 8.64734C23.223 7.85414 23.533 7.10414 23.9699 6.41781C24.1676 6.10938 24.1245 5.70352 23.8645 5.44359L23.1338 4.71281L24.4003 3.44633L25.1287 4.17477C25.3966 4.44258 25.8107 4.47516 26.1141 4.27305C26.7977 3.83773 27.5451 3.52828 28.3358 3.35328C28.6934 3.27406 28.9481 2.95688 28.9481 2.59055L28.9482 1.5625H30.7394V2.58828C30.7394 2.955 30.9945 3.27242 31.3527 3.35125C32.1489 3.52656 32.9015 3.83805 33.5894 4.27719C33.6123 4.29187 33.6361 4.30523 33.6604 4.31742C33.9609 4.46773 34.3247 4.40883 34.5625 4.17102L35.2872 3.44625L36.5537 4.71281L35.829 5.4375C35.7926 5.47391 35.7599 5.51375 35.7314 5.55656C35.559 5.81516 35.5565 6.15109 35.7238 6.41195C36.1624 7.09953 36.4737 7.85156 36.6487 8.64719C36.7275 9.00539 37.0448 9.26055 37.4117 9.26055H38.4376V11.0518H38.4375Z" fill="#0E0E0E"/>
<path d="M29.8438 5.3125C27.1729 5.3125 25 7.48539 25 10.1562C25 12.8271 27.1729 15 29.8438 15C32.5146 15 34.6875 12.8271 34.6875 10.1562C34.6875 7.48539 32.5146 5.3125 29.8438 5.3125ZM29.8438 13.4375C28.0345 13.4375 26.5625 11.9655 26.5625 10.1562C26.5625 8.34695 28.0345 6.875 29.8438 6.875C31.653 6.875 33.125 8.34695 33.125 10.1562C33.125 11.9655 31.653 13.4375 29.8438 13.4375Z" fill="#0E0E0E"/>
<path d="M12.7871 14.6265C12.5808 14.6265 12.3801 14.7101 12.2348 14.8554C12.0887 15.0007 12.0059 15.2022 12.0059 15.4085C12.0059 15.614 12.0887 15.8155 12.2348 15.9608C12.3801 16.1062 12.5809 16.189 12.7871 16.189C12.9926 16.189 13.1941 16.1062 13.3395 15.9608C13.4847 15.8155 13.5684 15.614 13.5684 15.4085C13.5684 15.2022 13.4848 15.0007 13.3395 14.8554C13.1941 14.7101 12.9926 14.6265 12.7871 14.6265Z" fill="#0E0E0E"/>
<path d="M18.8845 14.0486C18.9382 13.8484 18.9101 13.6352 18.8065 13.4558L17.4873 11.1711C17.2716 10.7975 16.7938 10.6694 16.4201 10.8852L15.6687 11.319C15.4219 11.1445 15.1608 10.9934 14.887 10.867V10C14.887 9.56852 14.5372 9.21875 14.1058 9.21875H11.4676C11.0362 9.21875 10.6863 9.56852 10.6863 10V10.867C10.4125 10.9935 10.1514 11.1445 9.90459 11.319L9.15318 10.8852C8.97373 10.7816 8.76045 10.7536 8.56037 10.8071C8.36014 10.8608 8.18959 10.9916 8.086 11.1711L6.76693 13.4558C6.55115 13.8295 6.6792 14.3072 7.05287 14.523L7.80459 14.957C7.79115 15.1069 7.78436 15.2576 7.78436 15.4081C7.78436 15.5587 7.79115 15.7094 7.80459 15.8592L7.05287 16.2933C6.6792 16.509 6.55115 16.9868 6.76693 17.3605L8.086 19.6452C8.18959 19.8246 8.36022 19.9555 8.56037 20.0091C8.76045 20.0627 8.97373 20.0348 9.15318 19.9311L9.90459 19.4973C10.1514 19.6718 10.4125 19.8228 10.6863 19.9493V20.8162C10.6863 21.2477 11.0362 21.5975 11.4676 21.5975H14.1058C14.5372 21.5975 14.887 21.2477 14.887 20.8162V19.9493C15.1608 19.8227 15.4219 19.6718 15.6687 19.4973L16.4201 19.9311C16.7939 20.1468 17.2715 20.0188 17.4873 19.6452L18.8065 17.3605C18.9101 17.181 18.9382 16.9678 18.8845 16.7677C18.8308 16.5675 18.7 16.3969 18.5205 16.2933L17.7687 15.8594C17.7822 15.7095 17.789 15.5587 17.789 15.4083C17.789 15.2578 17.7822 15.1071 17.7687 14.9571L18.5205 14.523C18.6999 14.4194 18.8308 14.2488 18.8845 14.0486ZM16.1544 14.7041C16.2022 14.9346 16.2265 15.1715 16.2265 15.4082C16.2265 15.6449 16.2022 15.8818 16.1544 16.1123C16.0858 16.4423 16.2368 16.7791 16.5287 16.9477L17.0626 17.2559L16.5247 18.1875L15.9899 17.8788C15.6978 17.7101 15.3301 17.748 15.0785 17.973C14.7222 18.2916 14.3129 18.5284 13.8617 18.6766C13.5411 18.782 13.3244 19.0813 13.3244 19.4188V20.0352H12.2487V19.4188C12.2487 19.0813 12.0321 18.782 11.7115 18.6766C11.2603 18.5284 10.8508 18.2916 10.4947 17.973C10.2431 17.748 9.87553 17.71 9.58326 17.8788L9.04842 18.1875L8.51061 17.2559L9.04451 16.9477C9.33639 16.7791 9.48732 16.4423 9.41881 16.1123C9.37107 15.882 9.34678 15.6452 9.34678 15.4082C9.34678 15.1713 9.37107 14.9345 9.41881 14.7041C9.48732 14.3741 9.33646 14.0373 9.04451 13.8688L8.51061 13.5605L9.04842 12.629L9.58326 12.9377C9.87537 13.1065 10.243 13.0685 10.4947 12.8434C10.8509 12.5248 11.2603 12.2881 11.7115 12.1398C12.0321 12.0345 12.2487 11.7352 12.2487 11.3977V10.7812H13.3244V11.3977C13.3244 11.7352 13.5411 12.0345 13.8617 12.1398C14.3129 12.2881 14.7223 12.5249 15.0785 12.8434C15.33 13.0684 15.6976 13.1064 15.9899 12.9377L16.5247 12.6289L17.0626 13.5605L16.5287 13.8688C16.2368 14.0373 16.0858 14.3741 16.1544 14.7041Z" fill="#0E0E0E"/>
</g>
<defs>
<clipPath id="clip0_8099_775">
<rect width="40" height="40" fill="white"/>
</clipPath>
</defs>
</svg>
