<svg xmlns="http://www.w3.org/2000/svg" width="50" height="50" viewBox="0 0 50 50" fill="none"><g clip-path="url(#clip0_8099_691)"><path d="M48.795 29.5L46.5 28.5833C46.1862 27.4639 45.7385 26.3864 45.1667 25.3742L46.1358 23.1033C46.2718 22.798 46.3189 22.4605 46.2717 22.1295C46.2245 21.7986 46.085 21.4877 45.8692 21.2325C45.2291 20.4705 44.5242 19.7654 43.7625 19.125C43.5078 18.9089 43.1972 18.7691 42.8666 18.7217C42.5359 18.6742 42.1986 18.721 41.8933 18.8567L39.6217 19.8267C38.6093 19.2556 37.5322 18.808 36.4133 18.4933L35.4967 16.2C35.3857 15.9363 35.2145 15.7022 34.9967 15.5167V6.66667C34.9967 2.33333 25.9808 0 17.4967 0C9.0125 0 0 2.33333 0 6.66667V36.6667C0 41 9.01583 43.3333 17.5 43.3333C17.9583 43.3333 18.4008 43.3175 18.8475 43.3058C18.9152 43.4743 19.0091 43.631 19.1258 43.77C19.7664 44.5316 20.4712 45.2367 21.2325 45.8775C21.4874 46.0933 21.7979 46.2329 22.1285 46.2804C22.4591 46.3279 22.7964 46.2812 23.1017 46.1458L25.3733 45.1758C26.3857 45.7469 27.4628 46.1945 28.5817 46.5092L29.4983 48.8025C29.6215 49.1098 29.8263 49.3775 30.0907 49.5767C30.3551 49.7759 30.669 49.8989 30.9983 49.9325C31.5175 49.9792 32.0375 50.0017 32.5433 50.0017C33.0492 50.0017 33.5433 49.9792 34.0033 49.9325C34.3328 49.8986 34.6467 49.7752 34.9111 49.5758C35.1755 49.3763 35.3803 49.1083 35.5033 48.8008L36.42 46.5092C37.5389 46.1945 38.616 45.7469 39.6283 45.1758L41.8983 46.145C42.2039 46.2803 42.5414 46.327 42.8723 46.2795C43.2031 46.232 43.5139 46.0924 43.7692 45.8767C44.5307 45.2363 45.2355 44.5315 45.8758 43.77C46.0915 43.5152 46.231 43.2048 46.2783 42.8743C46.3257 42.5439 46.2789 42.2068 46.1433 41.9017L45.1733 39.6283C45.743 38.615 46.1885 37.5367 46.5 36.4167L48.7958 35.5C49.1012 35.377 49.3674 35.1732 49.5657 34.9104C49.7641 34.6476 49.8871 34.3358 49.9217 34.0083C50.0213 33.0064 50.0213 31.997 49.9217 30.995C49.8873 30.667 49.7643 30.3545 49.5658 30.0911C49.3673 29.8277 49.1009 29.6234 48.795 29.5ZM17.5 1.66667C26.8333 1.66667 33.3333 4.30167 33.3333 6.66667C33.3333 9.03167 26.8333 11.6667 17.5 11.6667C8.16667 11.6667 1.66667 9.03167 1.66667 6.66667C1.66667 4.30167 8.16667 1.66667 17.5 1.66667ZM1.66667 9.63417C4.65917 12.0533 11.2233 13.3333 17.5 13.3333C23.7767 13.3333 30.3408 12.0533 33.3333 9.63417V15.0392C32.5559 14.9916 31.776 15.0016 31 15.0692C30.6705 15.1031 30.3566 15.2264 30.0922 15.4259C29.8279 15.6254 29.6231 15.8933 29.5 16.2008L28.5833 18.4925C27.4645 18.8072 26.3873 19.2548 25.375 19.8258L23.105 18.8567C22.7995 18.7203 22.4616 18.6731 22.1304 18.7206C21.7992 18.7681 21.4882 18.9083 21.2333 19.125C20.4725 19.7658 19.7679 20.4706 19.1275 21.2317C19.0239 21.3535 18.9377 21.4893 18.8717 21.635C18.4167 21.6483 17.9625 21.6667 17.5 21.6667C8.16667 21.6667 1.66667 19.0317 1.66667 16.6667V9.63417ZM1.66667 19.6342C4.65917 22.0533 11.2233 23.3333 17.5 23.3333C17.9867 23.3333 18.465 23.3142 18.9433 23.2983L19.8283 25.3717C19.2581 26.3849 18.8121 27.4633 18.5 28.5833L16.2042 29.5C15.8988 29.623 15.6326 29.8268 15.4343 30.0896C15.2359 30.3524 15.1129 30.6643 15.0783 30.9917C15.0583 31.1917 15.06 31.3933 15.0483 31.5942C7.01167 31.1667 1.66667 28.7575 1.66667 26.6667V19.6342ZM18.9708 41.6342C18.485 41.6508 18 41.6667 17.5 41.6667C8.16667 41.6667 1.66667 39.0317 1.66667 36.6667V29.5783C3.84333 31.4025 8.21583 32.925 15.0375 33.2583C15.05 33.5083 15.05 33.7583 15.075 34.0083C15.1085 34.3377 15.2315 34.6516 15.4307 34.916C15.6299 35.1804 15.8977 35.3853 16.205 35.5083L18.4967 36.425C18.8105 37.5444 19.2582 38.6219 19.83 39.6342L18.9708 41.6342ZM48.2658 33.8508C48.26 33.8736 48.2489 33.8947 48.2334 33.9124C48.2179 33.93 48.1985 33.9438 48.1767 33.9525L45.495 35.0233C45.372 35.0724 45.2626 35.1501 45.1756 35.25C45.0886 35.3498 45.0267 35.469 44.995 35.5975C44.6857 36.8442 44.1907 38.0372 43.5267 39.1367C43.4585 39.2498 43.4183 39.3774 43.4091 39.5091C43.4 39.6408 43.4223 39.7728 43.4742 39.8942L44.6092 42.555C44.6209 42.5768 44.6262 42.6014 44.6244 42.626C44.6227 42.6507 44.6139 42.6743 44.5992 42.6942C44.0165 43.387 43.3753 44.0282 42.6825 44.6108C42.6625 44.6224 42.6398 44.6285 42.6167 44.6285C42.5936 44.6285 42.5709 44.6224 42.5508 44.6108L39.8942 43.4767C39.7729 43.4249 39.6411 43.4027 39.5095 43.4118C39.378 43.421 39.2505 43.4612 39.1375 43.5292C38.0388 44.1941 36.8463 44.6899 35.6 45C35.4715 45.0317 35.3523 45.0936 35.2525 45.1806C35.1526 45.2676 35.0749 45.377 35.0258 45.5L33.9558 48.1792C33.9472 48.2031 33.9325 48.2244 33.913 48.2408C33.8935 48.2572 33.8701 48.2681 33.845 48.2725C32.9472 48.3551 32.0437 48.3551 31.1458 48.2725C31.1228 48.2669 31.1016 48.2556 31.084 48.2398C31.0664 48.2239 31.053 48.204 31.045 48.1817L29.9742 45.5C29.9251 45.377 29.8474 45.2676 29.7475 45.1806C29.6477 45.0936 29.5285 45.0317 29.4 45C28.1533 44.6908 26.9602 44.1959 25.8608 43.5317C25.7479 43.4637 25.6204 43.4235 25.4888 43.4143C25.3573 43.4052 25.2255 43.4274 25.1042 43.4792L22.4458 44.6142C22.4237 44.6262 22.3986 44.6315 22.3735 44.6292C22.3485 44.627 22.3246 44.6174 22.305 44.6017C21.6136 44.0189 20.9737 43.3777 20.3925 42.685C20.381 42.6651 20.375 42.6426 20.375 42.6196C20.375 42.5966 20.381 42.5741 20.3925 42.5542L21.5267 39.8958C21.5785 39.7744 21.6008 39.6425 21.5917 39.5108C21.5826 39.3791 21.5423 39.2514 21.4742 39.1383C20.8101 38.0389 20.3151 36.8458 20.0058 35.5992C19.9741 35.4706 19.9122 35.3515 19.8252 35.2516C19.7383 35.1518 19.6288 35.0741 19.5058 35.025L16.8283 33.9558C16.8057 33.9473 16.7853 33.9335 16.7691 33.9155C16.7529 33.8975 16.7412 33.8759 16.735 33.8525V33.8433C16.6454 32.9458 16.6454 32.0417 16.735 31.1442C16.7408 31.1214 16.7519 31.1003 16.7674 31.0827C16.7829 31.065 16.8023 31.0512 16.8242 31.0425L19.5058 29.9717C19.6288 29.9226 19.7383 29.8449 19.8252 29.745C19.9122 29.6452 19.9741 29.526 20.0058 29.3975C20.3151 28.1509 20.8101 26.9578 21.4742 25.8583C21.5423 25.7453 21.5826 25.6176 21.5917 25.4859C21.6008 25.3542 21.5785 25.2222 21.5267 25.1008L20.3908 22.4417C20.3791 22.4199 20.3738 22.3953 20.3756 22.3706C20.3774 22.346 20.3861 22.3224 20.4008 22.3025C20.9839 21.6101 21.6251 20.9689 22.3175 20.3858C22.3376 20.3744 22.3603 20.3685 22.3833 20.3685C22.4064 20.3685 22.4291 20.3744 22.4492 20.3858L25.1058 21.52C25.227 21.5723 25.3589 21.5948 25.4905 21.5857C25.6222 21.5765 25.7497 21.536 25.8625 21.4675C26.9614 20.8038 28.1539 20.3091 29.4 20C29.5285 19.9683 29.6477 19.9064 29.7475 19.8194C29.8474 19.7325 29.9251 19.623 29.9742 19.5L31.0442 16.8208C31.0528 16.7969 31.0675 16.7756 31.087 16.7592C31.1065 16.7428 31.1299 16.7319 31.155 16.7275C32.0528 16.6441 32.9564 16.6441 33.8542 16.7275C33.8772 16.7331 33.8984 16.7444 33.916 16.7602C33.9336 16.7761 33.947 16.796 33.955 16.8183L35.0258 19.5C35.0749 19.623 35.1526 19.7325 35.2525 19.8194C35.3523 19.9064 35.4715 19.9683 35.6 20C36.8467 20.3092 38.0398 20.8041 39.1392 21.4683C39.2519 21.5368 39.3795 21.5774 39.5111 21.5865C39.6428 21.5956 39.7747 21.5731 39.8958 21.5208L42.5542 20.3858C42.5763 20.3739 42.6014 20.3687 42.6265 20.3709C42.6515 20.3732 42.6753 20.3827 42.695 20.3983C43.388 20.9807 44.0293 21.622 44.6117 22.315C44.6232 22.3349 44.6292 22.3575 44.6292 22.3804C44.6292 22.4034 44.6232 22.4259 44.6117 22.4458L43.4775 25.1042C43.4256 25.2256 43.4033 25.3575 43.4125 25.4892C43.4216 25.6209 43.4619 25.7486 43.53 25.8617C44.1941 26.9611 44.6891 28.1542 44.9983 29.4008C45.0301 29.5294 45.092 29.6485 45.1789 29.7484C45.2659 29.8482 45.3754 29.9259 45.4983 29.975L48.1758 31.0442C48.1998 31.0534 48.221 31.0685 48.2375 31.0882C48.254 31.1079 48.2652 31.1315 48.27 31.1567C48.3581 32.0537 48.3567 32.9574 48.2658 33.8542V33.8508Z" fill="#0E0E0E"></path><path d="M32.4994 21.6666C30.3567 21.6666 28.2622 22.302 26.4807 23.4924C24.6991 24.6828 23.3106 26.3747 22.4907 28.3542C21.6707 30.3338 21.4562 32.512 21.8742 34.6134C22.2922 36.7149 23.324 38.6452 24.839 40.1603C26.3541 41.6754 28.2844 42.7071 30.3859 43.1251C32.4873 43.5431 34.6656 43.3286 36.6451 42.5087C38.6246 41.6887 40.3166 40.3002 41.5069 38.5186C42.6973 36.7371 43.3327 34.6426 43.3327 32.5C43.3294 29.6278 42.187 26.8742 40.156 24.8433C38.1251 22.8124 35.3715 21.6699 32.4994 21.6666ZM32.4994 41.6666C30.6864 41.6666 28.9141 41.129 27.4066 40.1218C25.8992 39.1145 24.7243 37.6829 24.0305 36.0079C23.3367 34.3329 23.1551 32.4898 23.5088 30.7116C23.8625 28.9335 24.7356 27.3001 26.0175 26.0181C27.2995 24.7362 28.9329 23.8631 30.711 23.5094C32.4892 23.1557 34.3323 23.3373 36.0073 24.0311C37.6823 24.7249 39.1139 25.8998 40.1212 27.4072C41.1284 28.9147 41.666 30.687 41.666 32.5C41.6632 34.9302 40.6965 37.2601 38.978 38.9786C37.2595 40.6971 34.9296 41.6638 32.4994 41.6666Z" fill="#0E0E0E"></path><path d="M32.5007 25.8334C31.1821 25.8334 29.8932 26.2244 28.7969 26.9569C27.7005 27.6895 26.846 28.7306 26.3415 29.9488C25.8369 31.167 25.7049 32.5074 25.9621 33.8006C26.2193 35.0939 26.8543 36.2817 27.7866 37.2141C28.719 38.1464 29.9068 38.7814 31.2001 39.0386C32.4933 39.2958 33.8337 39.1638 35.0519 38.6592C36.2701 38.1547 37.3112 37.3002 38.0438 36.2038C38.7763 35.1075 39.1673 33.8186 39.1673 32.5C39.1653 30.7325 38.4623 29.038 37.2125 27.7882C35.9627 26.5384 34.2682 25.8354 32.5007 25.8334ZM32.5007 37.5C31.5117 37.5 30.5451 37.2068 29.7228 36.6574C28.9006 36.108 28.2597 35.3271 27.8813 34.4135C27.5028 33.4998 27.4038 32.4945 27.5967 31.5246C27.7897 30.5547 28.2659 29.6638 28.9651 28.9645C29.6644 28.2652 30.5553 27.789 31.5252 27.5961C32.4951 27.4032 33.5004 27.5022 34.4141 27.8806C35.3277 28.2591 36.1086 28.8999 36.658 29.7222C37.2074 30.5444 37.5007 31.5111 37.5007 32.5C37.4993 33.8257 36.9721 35.0967 36.0347 36.0341C35.0973 36.9715 33.8263 37.4987 32.5007 37.5Z" fill="#0E0E0E"></path><path d="M3.81424 15.9217C4.09341 16.0526 4.38841 16.1784 4.69507 16.3001C4.89952 16.376 5.12558 16.3687 5.32474 16.2799C5.52391 16.191 5.6803 16.0276 5.76035 15.8247C5.84041 15.6219 5.83774 15.3957 5.75294 15.1948C5.66813 14.9939 5.50794 14.8342 5.30674 14.7501C5.0323 14.6417 4.77035 14.5289 4.52091 14.4117C4.32067 14.318 4.0914 14.3077 3.88355 14.383C3.6757 14.4583 3.50628 14.6131 3.41257 14.8134C3.31886 15.0136 3.30854 15.2429 3.38386 15.4507C3.45919 15.6586 3.614 15.828 3.81424 15.9217Z" fill="#0E0E0E"></path><path d="M8.14409 17.35C8.42465 17.4161 8.71076 17.4784 9.00242 17.5367C9.05727 17.5478 9.11313 17.5531 9.16909 17.5525C9.37575 17.5527 9.57511 17.4761 9.72848 17.3376C9.88185 17.1991 9.97827 17.0086 9.99904 16.8029C10.0198 16.5973 9.96344 16.3913 9.84087 16.2249C9.7183 16.0586 9.53828 15.9437 9.33576 15.9025C9.06076 15.8475 8.79159 15.7884 8.52742 15.7275C8.4197 15.6992 8.30739 15.6928 8.19715 15.7087C8.0869 15.7245 7.98095 15.7623 7.88556 15.8198C7.79017 15.8773 7.70727 15.9534 7.64177 16.0434C7.57627 16.1335 7.52949 16.2358 7.50419 16.3443C7.4789 16.4528 7.47561 16.5652 7.49451 16.675C7.51341 16.7847 7.55413 16.8896 7.61425 16.9833C7.67437 17.0771 7.75268 17.1579 7.84454 17.2208C7.9364 17.2838 8.03996 17.3278 8.14909 17.35H8.14409Z" fill="#0E0E0E"></path></g><defs><clipPath id="clip0_8099_691"><rect width="50" height="50" fill="white"></rect></clipPath></defs></svg>