<svg xmlns="http://www.w3.org/2000/svg" width="35" height="35" viewBox="0 0 35 35" fill="none"><path d="M25.6511 23.4051L18.1316 8.06575C18.0167 7.83138 17.7789 7.68304 17.5176 7.68304C17.2564 7.68304 17.0186 7.83138 16.9037 8.06575L9.38421 23.4051C9.26884 23.6401 9.29816 23.9203 9.46041 24.1269L13.704 29.5368H12.4591C11.4788 29.5368 10.6817 30.3332 10.6817 31.312V34.0439C10.6817 34.5715 11.1111 35 11.6387 35H23.3966C23.9242 35 24.3536 34.5715 24.3536 34.0439V31.312C24.3536 30.3332 23.5565 29.5368 22.5762 29.5368H21.317L25.5745 24.1273C25.7372 23.9209 25.7665 23.6408 25.6511 23.4051ZM22.5762 30.9024C22.8025 30.9024 22.9863 31.0864 22.9863 31.312V33.6342H12.0488V31.312C12.0488 31.0864 12.2329 30.9024 12.4591 30.9024H22.5762ZM19.5781 29.5368H15.4401L10.8007 23.6209L17.5176 9.91829L24.2346 23.6202L19.5781 29.5368Z" fill="#0E0E0E"></path><path d="M20.2443 23.9169C20.1985 23.1868 19.8716 22.5205 19.3256 22.0391C19.0016 21.7549 18.6171 21.5515 18.2017 21.4458V16.5778C18.2017 16.2011 17.8954 15.895 17.518 15.895C17.1409 15.895 16.8346 16.2011 16.8346 16.5778V21.4451C16.3121 21.5783 15.835 21.8662 15.466 22.2838C15.0095 22.8022 14.7852 23.446 14.7852 24.0871C14.7852 24.8452 15.0983 25.6001 15.7107 26.1391C16.2124 26.5809 16.8468 26.8187 17.5127 26.8187C17.572 26.8187 17.6317 26.8167 17.6912 26.8135C18.4213 26.7669 19.0891 26.4407 19.5703 25.8947C20.0514 25.3491 20.2907 24.6461 20.2443 23.9169ZM18.5444 24.9923C18.1726 25.4137 17.5587 25.5629 17.033 25.3655C16.5039 25.1669 16.1525 24.6472 16.1535 24.0841C16.1544 23.5081 16.5283 22.9837 17.0743 22.7981C17.6227 22.6119 18.2481 22.7968 18.6017 23.2566C18.9932 23.7658 18.9692 24.5102 18.5444 24.9923Z" fill="#0E0E0E"></path><path d="M34.027 14.6489H32.9639C32.8671 13.5174 32.5204 11.1349 31.2907 8.72951C30.3337 6.85792 28.7169 4.7648 26.0127 3.43238H29.6261C29.804 4.10512 30.2222 4.67576 30.8127 5.04498C31.2517 5.32045 31.7492 5.46279 32.2571 5.46279C32.463 5.46279 32.6702 5.43946 32.8752 5.39216C33.5889 5.2297 34.1952 4.80012 34.5822 4.18453C34.9696 3.5683 35.0927 2.83628 34.93 2.1233C34.7667 1.41097 34.3374 0.805442 33.7207 0.418453C33.1041 0.0316783 32.3714 -0.0922523 31.6576 0.0710621C30.9442 0.233734 30.3378 0.663104 29.9508 1.27912C29.7963 1.52591 29.6835 1.79047 29.6143 2.0653H20.2519V0.973465C20.2519 0.44585 19.8226 0.0171234 19.295 0.0171234H15.7404C15.2126 0.0171234 14.7832 0.44585 14.7832 0.973465V2.09997H5.41139C5.12565 0.89748 4.04196 0 2.7515 0C1.24401 0 0.0171233 1.22582 0.0171233 2.73182C0.0171233 4.23847 1.24401 5.46322 2.7515 5.46322C4.00514 5.46322 5.064 4.61711 5.38549 3.46578H9.00985C6.29645 4.79798 4.67509 6.89131 3.71597 8.7629C2.48288 11.1687 2.13549 13.5508 2.03767 14.6831H0.956979C0.429367 14.6831 0 15.1116 0 15.6392V19.1904C0 19.7176 0.429367 20.1461 0.956979 20.1461H4.51178C5.03939 20.1461 5.46876 19.7176 5.46876 19.1904V15.6392C5.46876 15.1116 5.03939 14.6831 4.51178 14.6831H3.41246C3.51499 13.6253 3.84932 11.5001 4.9328 9.38576C5.81465 7.66529 7.0152 6.29713 8.50108 5.31896C10.2128 4.19245 12.3236 3.57451 14.7832 3.47947V4.52464C14.7832 5.05183 15.2126 5.48034 15.7404 5.48034H19.295C19.8226 5.48034 20.2519 5.05183 20.2519 4.52464V3.44608C22.6924 3.54112 24.7883 4.15349 26.4904 5.26994C27.9711 6.24148 29.1687 7.60022 30.0508 9.30978C31.1437 11.429 31.4827 13.581 31.5874 14.6489H30.4724C29.9446 14.6489 29.5152 15.0774 29.5152 15.605V19.1564C29.5152 19.6833 29.9446 20.1121 30.4724 20.1121H34.027C34.5546 20.1121 34.984 19.6833 34.984 19.1564V15.605C34.984 15.0774 34.5546 14.6489 34.027 14.6489ZM31.109 2.00579C31.4095 1.52569 32.0005 1.27869 32.5548 1.39684C33.0998 1.51307 33.5214 1.96191 33.613 2.50965C33.7066 3.06915 33.4345 3.64364 32.938 3.92019C32.4208 4.2085 31.7582 4.13166 31.3269 3.72391C30.8615 3.28405 30.7672 2.54775 31.109 2.00579C31.3014 1.69821 30.9153 2.31251 31.109 2.00579ZM2.7515 4.09741C1.99808 4.09741 1.38421 3.48504 1.38421 2.73182C1.38421 1.97861 1.99808 1.36602 2.7515 1.36602C3.50557 1.36602 4.11858 1.97861 4.11858 2.73182C4.11858 3.48504 3.50557 4.09741 2.7515 4.09741ZM4.10167 16.0489V18.7803H1.3673V16.0489H4.10167ZM18.8849 4.11454H16.1505V1.38293H18.8849V4.11454ZM33.6169 18.7463H30.8825V16.0147H33.6169V18.7463Z" fill="#0E0E0E"></path><path d="M17.5198 14.5291C17.1422 14.5291 16.8359 14.2235 16.8359 13.8463C16.8359 13.4692 17.1416 13.1633 17.5192 13.1633H17.5198C17.8974 13.1633 18.2032 13.4692 18.2032 13.8463C18.2032 14.2235 17.8974 14.5291 17.5198 14.5291Z" fill="#0E0E0E"></path></svg>