<svg xmlns="http://www.w3.org/2000/svg" width="12" height="11" viewBox="0 0 12 11" fill="none"><path d="M11.3438 5.78125L6.78125 10.4062C6.625 10.5625 6.375 10.5625 6.25 10.4062L5.625 9.78125C5.46875 9.625 5.46875 9.40625 5.625 9.25L9.3125 5.5L5.625 1.78125C5.46875 1.625 5.46875 1.375 5.625 1.25L6.25 0.625C6.375 0.46875 6.625 0.46875 6.78125 0.625L11.3438 5.25C11.5 5.40625 11.5 5.625 11.3438 5.78125ZM6.34375 5.25C6.5 5.40625 6.5 5.625 6.34375 5.78125L1.78125 10.4062C1.625 10.5625 1.375 10.5625 1.25 10.4062L0.625 9.78125C0.46875 9.625 0.46875 9.40625 0.625 9.25L4.3125 5.5L0.625 1.78125C0.46875 1.625 0.46875 1.375 0.625 1.25L1.25 0.625C1.375 0.46875 1.625 0.46875 1.78125 0.625L6.34375 5.25Z" fill="#696969"></path></svg>