<svg xmlns="http://www.w3.org/2000/svg" width="50" height="50" viewBox="0 0 50 50" fill="none"><path d="M39.6141 5.90684C39.9248 5.46582 39.819 4.85664 39.378 4.54609C35.1546 1.57197 30.1827 0 24.9997 0C21.7551 0 18.598 0.612695 15.6159 1.821C15.1161 2.02354 14.8751 2.59297 15.0776 3.09277C15.28 3.59258 15.8492 3.83369 16.3494 3.63115C19.0974 2.51768 22.0077 1.95312 24.9997 1.95312C29.778 1.95312 34.361 3.40195 38.2535 6.14297C38.4245 6.26328 38.6207 6.32119 38.8149 6.32119C39.1218 6.32119 39.424 6.17686 39.6141 5.90684Z" fill="#0E0E0E"></path><path d="M50.0001 25C50.0001 20.0034 48.5307 15.1804 45.7506 11.0523C45.4492 10.6048 44.8423 10.4866 44.395 10.7877C43.9477 11.089 43.8292 11.6958 44.1305 12.1432C46.6927 15.9479 48.047 20.3937 48.047 25C48.047 29.8984 46.5439 34.5421 43.6943 38.4806C43.2273 38.2683 42.7096 38.1491 42.1641 38.1491C40.1179 38.1491 38.4531 39.8138 38.4531 41.86C38.4531 43.9062 40.1179 45.5709 42.1641 45.5709C44.2103 45.5709 45.875 43.9062 45.875 41.86C45.875 41.068 45.6248 40.3337 45.2004 39.7305C48.3423 35.4347 50.0001 30.3575 50.0001 25ZM42.1641 43.6178C41.1948 43.6178 40.4062 42.8292 40.4062 41.86C40.4062 40.8908 41.1948 40.1022 42.1641 40.1022C43.1333 40.1022 43.9219 40.8908 43.9219 41.86C43.9219 42.8292 43.1333 43.6178 42.1641 43.6178Z" fill="#0E0E0E"></path><path d="M33.6502 46.3687C30.9023 47.4823 27.992 48.0469 25 48.0469C12.2919 48.0469 1.95312 37.7081 1.95312 25C1.95312 20.1016 3.45615 15.4579 6.30576 11.5194C6.77275 11.7317 7.29053 11.851 7.83603 11.851C9.88223 11.851 11.547 10.1862 11.547 8.14001C11.547 6.09382 9.88223 4.42908 7.83603 4.42908C5.78984 4.42908 4.1251 6.09382 4.1251 8.14001C4.1251 8.93201 4.37529 9.66629 4.79971 10.2695C1.65781 14.5653 0 19.6425 0 25C0 31.6777 2.60049 37.9557 7.32227 42.6776C12.0442 47.3996 18.3223 50 25 50C28.2445 50 31.4017 49.3873 34.3838 48.179C34.8836 47.9764 35.1246 47.407 34.9221 46.9072C34.7194 46.4072 34.1499 46.1663 33.6502 46.3687ZM7.83603 6.3822C8.80527 6.3822 9.59385 7.17078 9.59385 8.14001C9.59385 9.10925 8.80527 9.89783 7.83603 9.89783C6.8668 9.89783 6.07822 9.10925 6.07822 8.14001C6.07822 7.17078 6.8668 6.3822 7.83603 6.3822Z" fill="#0E0E0E"></path><path d="M24.9993 22.8291C22.9373 22.8291 21.2598 24.5066 21.2598 26.5686C21.2598 27.4234 21.5447 28.2345 22.0696 28.8933V31.8095C22.0696 33.4249 23.3839 34.7392 24.9993 34.7392C26.6147 34.7392 27.929 33.4249 27.929 31.8095V28.8933C28.4539 28.2344 28.7389 27.4234 28.7389 26.5686C28.7389 24.5066 27.0613 22.8291 24.9993 22.8291ZM26.2621 27.832C26.0789 28.0152 25.9759 28.2637 25.9759 28.5228V31.8095C25.9759 32.3479 25.5378 32.786 24.9993 32.786C24.4608 32.786 24.0228 32.3479 24.0228 31.8095V28.5228C24.0228 28.2637 23.9197 28.0151 23.7365 27.832C23.3988 27.4945 23.2129 27.0459 23.2129 26.5686C23.2129 25.5836 24.0143 24.7822 24.9993 24.7822C25.9844 24.7822 26.7857 25.5836 26.7857 26.5686C26.7857 27.0459 26.5998 27.4946 26.2621 27.832Z" fill="#0E0E0E"></path><path d="M33.9796 19.1036V17.1014C33.9796 12.15 29.9514 8.12183 25 8.12183C20.0486 8.12183 16.0204 12.15 16.0204 17.1014V19.1036C14.7561 19.6417 13.8672 20.8965 13.8672 22.3551V35.213C13.8672 37.1606 15.4517 38.7451 17.3991 38.7451H32.6009C34.5483 38.7451 36.1328 37.1606 36.1328 35.213V22.3551C36.1328 20.8965 35.2439 19.6417 33.9796 19.1036ZM17.9735 17.1014C17.9735 13.227 21.1256 10.075 25 10.075C28.8744 10.075 32.0265 13.227 32.0265 17.1014V18.8232H29.978V17.1014C29.978 14.3565 27.7449 12.1234 24.9999 12.1234C22.2549 12.1234 20.0218 14.3566 20.0218 17.1014V18.8232H17.9733V17.1014H17.9735ZM21.975 18.8232V17.1014C21.975 15.4334 23.332 14.0765 25 14.0765C26.668 14.0765 28.025 15.4334 28.025 17.1014V18.8232H21.975ZM34.1797 35.213C34.1797 36.0836 33.4714 36.7919 32.6009 36.7919H17.3991C16.5286 36.7919 15.8203 36.0836 15.8203 35.213V22.3551C15.8203 21.4845 16.5286 20.7763 17.3991 20.7763H32.6009C33.4714 20.7763 34.1797 21.4846 34.1797 22.3551V35.213Z" fill="#0E0E0E"></path><path d="M42.1641 9.16797C42.4209 9.16797 42.6728 9.06445 42.8545 8.88281C43.036 8.70117 43.1406 8.44922 43.1406 8.19238C43.1406 7.93457 43.0361 7.68262 42.8545 7.50098C42.6728 7.31934 42.4208 7.21582 42.1641 7.21582C41.9072 7.21582 41.6553 7.31934 41.4736 7.50098C41.2921 7.68262 41.1875 7.93457 41.1875 8.19238C41.1875 8.44922 41.292 8.7002 41.4736 8.88281C41.6553 9.06445 41.9072 9.16797 42.1641 9.16797Z" fill="#0E0E0E"></path></svg>