<svg xmlns="http://www.w3.org/2000/svg" width="35" height="35" viewBox="0 0 35 35" fill="none"><path d="M17.4782 5.59713C17.3331 5.59713 17.1941 5.65476 17.0915 5.7573C16.9889 5.8599 16.9313 5.99895 16.9313 6.144L16.9314 9.85407C16.9314 10.079 17.0691 10.281 17.2785 10.3631C17.4879 10.4452 17.7262 10.391 17.8792 10.2259C18.2178 9.86084 18.6783 9.6598 19.1758 9.6598C20.1508 9.6598 20.9441 10.453 20.9441 11.428C20.9441 12.4031 20.1508 13.1963 19.1758 13.1963C18.6784 13.1963 18.2179 12.9953 17.8792 12.6301C17.7262 12.4651 17.4879 12.4108 17.2785 12.4929C17.0691 12.575 16.9314 12.7771 16.9314 13.002V16.1653H14.8136C14.9716 15.8056 15.0561 15.4137 15.0561 15.0146C15.0561 13.4364 13.7722 12.1526 12.1941 12.1526C10.616 12.1526 9.33212 13.4364 9.33212 15.0146C9.33212 15.4137 9.41661 15.8056 9.57466 16.1653H6.90987C6.60786 16.1653 6.363 16.4101 6.363 16.7122C6.363 18.6383 6.86517 20.539 7.81516 22.2091C8.76453 23.8779 10.1411 25.2812 11.7961 26.2674C12.2986 26.5668 12.5754 27.0538 12.5754 27.6386V30.2155C12.5754 31.1285 13.1907 31.8999 14.0282 32.1385V32.2414C14.0282 33.7247 15.235 34.9316 16.7183 34.9316H18.2383C19.7216 34.9316 20.9283 33.7248 20.9283 32.2414V32.1385C21.7659 31.9 22.3811 31.1285 22.3811 30.2155V27.6386C22.3811 27.0538 22.6579 26.5668 23.1604 26.2673C24.7856 25.2991 26.1467 23.9226 27.0966 22.2869C28.0759 20.6006 28.5935 18.6729 28.5935 16.7121C28.5934 10.5833 23.6071 5.59713 17.4782 5.59713ZM19.1758 14.2901C20.7539 14.2901 22.0378 13.0063 22.0378 11.4281C22.0378 9.84997 20.754 8.56611 19.1758 8.56611C18.7767 8.56611 18.3848 8.65054 18.0251 8.80865V6.70564C23.1166 6.98079 27.2093 11.0741 27.4845 16.1654H24.3365C24.1115 16.1654 23.9096 16.3032 23.8274 16.5125C23.7452 16.7219 23.7996 16.9603 23.9646 17.1132C24.3297 17.4519 24.5308 17.9123 24.5308 18.4099C24.5308 19.3849 23.7376 20.1781 22.7626 20.1781C21.7875 20.1781 20.9943 19.3849 20.9943 18.4099C20.9943 17.9124 21.1953 17.4519 21.5605 17.1132C21.7254 16.9603 21.7798 16.7219 21.6977 16.5125C21.6155 16.3032 21.4135 16.1654 21.1886 16.1654H18.0252V14.0476C18.3847 14.2057 18.7766 14.2901 19.1758 14.2901ZM12.3558 25.3279C9.49119 23.621 7.6552 20.5656 7.47179 17.2592H10.62C10.845 17.2592 11.0469 17.1214 11.1291 16.912C11.2113 16.7027 11.1568 16.4643 10.9919 16.3114C10.6268 15.9727 10.4257 15.5122 10.4257 15.0147C10.4257 14.0396 11.219 13.2465 12.194 13.2465C13.169 13.2465 13.9622 14.0397 13.9622 15.0147C13.9622 15.5122 13.7612 15.9727 13.3961 16.3114C13.2311 16.4643 13.1767 16.7027 13.2589 16.912C13.3411 17.1214 13.5431 17.2592 13.768 17.2592H16.9313V19.3769C16.5716 19.2189 16.1797 19.1344 15.7806 19.1344C14.2025 19.1344 12.9186 20.4183 12.9186 21.9964C12.9186 23.5746 14.2025 24.8584 15.7806 24.8584C16.1797 24.8584 16.5717 24.7739 16.9313 24.6159V28.6072H13.669V27.6387C13.669 26.6673 13.1904 25.8251 12.3558 25.3279ZM18.2381 33.8379H16.7181C15.838 33.8379 15.1218 33.1217 15.1218 32.2414V32.2152H19.8344V32.2414C19.8344 33.1217 19.1184 33.8379 18.2381 33.8379ZM20.3813 31.1215H14.5749C14.0754 31.1215 13.669 30.7152 13.669 30.2156V29.7011H21.2872V30.2156C21.2872 30.7151 20.8808 31.1215 20.3813 31.1215ZM22.6005 25.3279C21.7659 25.8251 21.2873 26.6674 21.2873 27.6387V28.6073H18.0251V23.5704C18.0251 23.3455 17.8874 23.1435 17.678 23.0614C17.4686 22.9793 17.2302 23.0336 17.0773 23.1986C16.7387 23.5637 16.2782 23.7647 15.7807 23.7647C14.8057 23.7647 14.0124 22.9715 14.0124 21.9965C14.0124 21.0215 14.8057 20.2282 15.7807 20.2282C16.2781 20.2282 16.7386 20.4293 17.0773 20.7944C17.2303 20.9594 17.4687 21.0138 17.678 20.9316C17.8874 20.8495 18.0251 20.6475 18.0251 20.4226V17.2592H20.143C19.9849 17.6189 19.9004 18.0108 19.9004 18.4099C19.9004 19.9881 21.1843 21.2719 22.7624 21.2719C24.3406 21.2719 25.6244 19.9881 25.6244 18.4099C25.6244 18.0108 25.5399 17.6189 25.3819 17.2592H27.4833C27.2998 20.5656 25.465 23.621 22.6005 25.3279ZM28.4989 10.2657C28.3479 10.0042 28.4375 9.66971 28.699 9.5187L31.0726 8.1483C31.3341 7.99716 31.6686 8.08691 31.8196 8.34846C31.9706 8.61 31.881 8.94448 31.6195 9.09549L29.2459 10.4659C29.1598 10.5157 29.0658 10.5392 28.973 10.5392C28.784 10.5392 28.6002 10.4411 28.4989 10.2657ZM34.0802 16.6398C34.0802 16.9418 33.8353 17.1866 33.5333 17.1866L30.7926 17.1867C30.4906 17.1867 30.2457 16.9418 30.2457 16.6398C30.2457 16.3378 30.4906 16.093 30.7926 16.093L33.5333 16.0929C33.8353 16.0929 34.0801 16.3378 34.0802 16.6398ZM31.8197 24.9087C31.7184 25.0841 31.5346 25.1822 31.3456 25.1822C31.2528 25.1822 31.1588 25.1585 31.0727 25.1088L28.6991 23.7384C28.4375 23.5874 28.3479 23.2529 28.4989 22.9914C28.6499 22.7298 28.9844 22.6402 29.246 22.7912L31.6195 24.1616C31.8811 24.3126 31.9706 24.6471 31.8197 24.9087ZM16.9313 3.35604V0.615303C16.9313 0.313291 17.1762 0.0684277 17.4782 0.0684277C17.7802 0.0684277 18.025 0.313291 18.025 0.615303V3.35604C18.025 3.65805 17.7802 3.90291 17.4782 3.90291C17.1762 3.90291 16.9313 3.65805 16.9313 3.35604ZM4.20565 17.1754H1.46484C1.16283 17.1754 0.917969 16.9306 0.917969 16.6286C0.917969 16.3265 1.16283 16.0817 1.46484 16.0817H4.20565C4.50766 16.0817 4.75252 16.3265 4.75252 16.6286C4.75252 16.9306 4.50766 17.1754 4.20565 17.1754ZM6.45747 22.9914C6.60848 23.2529 6.51886 23.5874 6.25732 23.7384L3.88374 25.1088C3.79761 25.1586 3.70361 25.1822 3.61085 25.1822C3.42184 25.1822 3.23802 25.0841 3.13671 24.9087C2.9857 24.6471 3.07532 24.3126 3.33687 24.1616L5.71044 22.7912C5.97198 22.6401 6.3064 22.7298 6.45747 22.9914ZM23.6408 4.86076L25.0112 2.48719C25.1622 2.22564 25.4967 2.13603 25.7582 2.28703C26.0197 2.43804 26.1094 2.77252 25.9584 3.03406L24.588 5.40764C24.4866 5.58305 24.3028 5.68114 24.1138 5.68114C24.0211 5.68114 23.9271 5.65749 23.8409 5.60779C23.5794 5.45679 23.4898 5.12237 23.6408 4.86076ZM1.46484 11.7305H5.17512C5.40009 11.7305 5.60202 11.5927 5.68419 11.3833C5.76636 11.174 5.71194 10.9356 5.54699 10.7827C5.18189 10.444 4.98084 9.98354 4.98084 9.48602C4.98084 8.51095 5.77408 7.71777 6.74909 7.71777C7.7241 7.71777 8.51735 8.51102 8.51735 9.48602C8.51735 9.98348 8.3163 10.444 7.95119 10.7827C7.78624 10.9356 7.73183 11.174 7.814 11.3833C7.89616 11.5927 8.09817 11.7305 8.32307 11.7305H12.0333C12.3353 11.7305 12.5801 11.4856 12.5801 11.1836V8.51895C12.9399 8.67699 13.3317 8.76148 13.7308 8.76148C15.3089 8.76148 16.5928 7.47763 16.5928 5.89948C16.5928 4.32134 15.309 3.03748 13.7308 3.03748C13.3316 3.03748 12.9398 3.1219 12.5801 3.28002V0.615234C12.5801 0.313223 12.3353 0.0683594 12.0333 0.0683594C5.90431 0.0683594 0.918037 5.05456 0.918037 11.1836C0.917969 11.4856 1.16283 11.7305 1.46484 11.7305ZM11.4864 1.17687L11.4865 4.32544C11.4865 4.55041 11.6242 4.75234 11.8336 4.83451C12.043 4.91668 12.2814 4.86227 12.4343 4.69731C12.7729 4.33221 13.2334 4.13116 13.7309 4.13116C14.7059 4.13116 15.4992 4.9244 15.4992 5.89941C15.4992 6.87442 14.7059 7.66767 13.7309 7.66767C13.2335 7.66767 12.773 7.46662 12.4343 7.10145C12.2813 6.93649 12.043 6.88222 11.8336 6.96425C11.6242 7.04642 11.4865 7.24842 11.4865 7.47332V10.6367H9.36862C9.52667 10.2771 9.61116 9.88518 9.61116 9.48602C9.61116 7.90788 8.32731 6.62402 6.74916 6.62402C5.17108 6.62402 3.88716 7.90788 3.88716 9.48602C3.88716 9.88518 3.97165 10.2771 4.1297 10.6367H2.02648C2.30163 5.54524 6.39492 1.45195 11.4864 1.17687Z" fill="#0E0E0E"></path></svg>