<svg xmlns="http://www.w3.org/2000/svg" width="33" height="35" viewBox="0 0 33 35" fill="none"><path d="M28.0451 35H3.29925C1.47714 35 0 33.5419 0 31.7437V7.32243C0 5.52422 1.47714 4.06616 3.29925 4.06616H18.0954V5.69445H3.29925C2.38819 5.69445 1.64962 6.42333 1.64962 7.32243V31.7437C1.64962 32.6428 2.38819 33.3717 3.29925 33.3717H28.0451C28.9565 33.3717 29.695 32.6428 29.695 31.7437V12.8476H31.3447V31.7437C31.3447 33.5419 29.8675 35 28.0451 35Z" fill="#0E0E0E"></path><path d="M13.4355 21.7419L14.6022 20.5906L27.8 33.6154L26.6334 34.7664L13.4355 21.7419Z" fill="#0E0E0E"></path><path d="M0.964844 32.8879L19.717 14.3821L20.8833 15.5331L2.13145 34.0392L0.964844 32.8879Z" fill="#0E0E0E"></path><path d="M24.7468 11.3926C22.9244 11.3926 21.4473 9.93485 21.4473 8.13664C21.4473 6.33814 22.9244 4.88037 24.7468 4.88037C26.5689 4.88037 28.0461 6.33814 28.0461 8.13664C28.0461 9.93485 26.5689 11.3926 24.7468 11.3926ZM24.7468 6.50836C23.8358 6.50836 23.0969 7.23724 23.0969 8.13664C23.0969 9.03574 23.8358 9.76463 24.7468 9.76463C25.6579 9.76463 26.3964 9.03574 26.3964 8.13664C26.3964 7.23724 25.6579 6.50836 24.7468 6.50836Z" fill="#0E0E0E"></path><path d="M9.48608 18.7188C6.88281 18.7185 4.65623 16.8726 4.20614 14.3419C3.75635 11.8116 5.21355 9.32772 7.66125 8.45276C10.109 7.5778 12.8397 8.56426 14.1365 10.792L12.7032 11.6062C11.8308 10.115 10.0241 9.4249 8.36176 9.94749C6.69945 10.4704 5.63041 12.065 5.79293 13.7794C5.95575 15.4939 7.30602 16.8649 9.0378 17.0738C10.7696 17.2831 12.4153 16.2737 12.9919 14.6487H9.07375V13.0207H14.9098L14.8273 13.9058C14.5908 16.6392 12.2658 18.734 9.48608 18.7188Z" fill="#0E0E0E"></path><path d="M24.7459 26.5643L23.9623 24.1222C23.212 21.7659 22.1695 19.5104 20.8588 17.4063L17.7345 12.4204C15.597 9.00766 16.2978 4.56669 19.3859 1.95703C22.474 -0.652342 27.0281 -0.652342 30.1161 1.95703C33.2039 4.56669 33.9051 9.00766 31.7676 12.4204L28.6432 17.4063C27.3325 19.5104 26.2901 21.7659 25.5397 24.1222L24.7459 26.5643ZM24.7459 1.62404C22.352 1.62433 20.1459 2.90413 18.9814 4.96825C17.8166 7.03237 17.8761 9.55708 19.1367 11.5657L22.261 16.5517C23.2346 18.1072 24.0662 19.745 24.7459 21.4461C25.4249 19.7417 26.2566 18.1003 27.2307 16.5415L30.3548 11.5553C31.6099 9.54754 31.6664 7.02671 30.5025 4.96586C29.3386 2.90502 27.1365 1.62672 24.7459 1.62404Z" fill="#0E0E0E"></path></svg>