<svg width="1920" height="1793" viewBox="0 0 1920 1793" fill="none" xmlns="http://www.w3.org/2000/svg">
<g filter="url(#filter0_f_6061_317)">
<ellipse cx="952.5" cy="461.5" rx="1075.5" ry="1031.5" fill="#B9FB6A"/>
</g>
<g filter="url(#filter1_f_6061_317)">
<circle cx="953" cy="124" r="1075" fill="#090D16"/>
</g>
<g filter="url(#filter2_f_6061_317)">
<circle cx="953" cy="-270" r="350" fill="#B9FB6A"/>
</g>
<path d="M645 69H715V0H716V69H786V0H787V69H857V0H858V69H928V0H929V69H999V0H1000V69H1070V0H1071V69H1141V0H1142V69H1212V0H1213V69H1275V0H1276V636H644V0H645V69ZM1213 566V635H1275V566H1213ZM645 635H715V566H645V635ZM716 635H786V566H716V635ZM787 635H857V566H787V635ZM858 635H928V566H858V635ZM929 635H999V566H929V635ZM1000 635H1070V566H1000V635ZM1071 635H1141V566H1071V635ZM1142 635H1212V566H1142V635ZM1213 496V565H1275V496H1213ZM645 565H715V496H645V565ZM716 565H786V496H716V565ZM787 565H857V496H787V565ZM858 565H928V496H858V565ZM929 565H999V496H929V565ZM1000 565H1070V496H1000V565ZM1071 565H1141V496H1071V565ZM1142 565H1212V496H1142V565ZM1213 425V495H1275V425H1213ZM645 495H715V425H645V495ZM716 495H786V425H716V495ZM787 495H857V425H787V495ZM858 495H928V425H858V495ZM929 495H999V425H929V495ZM1000 495H1070V425H1000V495ZM1071 495H1141V425H1071V495ZM1142 495H1212V425H1142V495ZM1213 354V424H1275V354H1213ZM645 424H715V354H645V424ZM716 424H786V354H716V424ZM787 424H857V354H787V424ZM858 424H928V354H858V424ZM929 424H999V354H929V424ZM1000 424H1070V354H1000V424ZM1071 424H1141V354H1071V424ZM1142 424H1212V354H1142V424ZM1213 283V353H1275V283H1213ZM645 353H715V283H645V353ZM716 353H786V283H716V353ZM787 353H857V283H787V353ZM858 353H928V283H858V353ZM929 353H999V283H929V353ZM1000 353H1070V283H1000V353ZM1071 353H1141V283H1071V353ZM1142 353H1212V283H1142V353ZM1213 212V282H1275V212H1213ZM645 282H715V212H645V282ZM716 282H786V212H716V282ZM787 282H857V212H787V282ZM858 282H928V212H858V282ZM929 282H999V212H929V282ZM1000 282H1070V212H1000V282ZM1071 282H1141V212H1071V282ZM1142 282H1212V212H1142V282ZM1213 141V211H1275V141H1213ZM645 211H715V141H645V211ZM716 211H786V141H716V211ZM787 211H857V141H787V211ZM858 211H928V141H858V211ZM929 211H999V141H929V211ZM1000 211H1070V141H1000V211ZM1071 211H1141V141H1071V211ZM1142 211H1212V141H1142V211ZM1213 70V140H1275V70H1213ZM645 140H715V70H645V140ZM716 140H786V70H716V140ZM787 140H857V70H787V140ZM858 140H928V70H858V140ZM929 140H999V70H929V140ZM1000 140H1070V70H1000V140ZM1071 140H1141V70H1071V140ZM1142 140H1212V70H1142V140Z" fill="url(#paint0_linear_6061_317)"/>
<defs>
<filter id="filter0_f_6061_317" x="-423" y="-870" width="2751" height="2663" filterUnits="userSpaceOnUse" color-interpolation-filters="sRGB">
<feFlood flood-opacity="0" result="BackgroundImageFix"/>
<feBlend mode="normal" in="SourceGraphic" in2="BackgroundImageFix" result="shape"/>
<feGaussianBlur stdDeviation="150" result="effect1_foregroundBlur_6061_317"/>
</filter>
<filter id="filter1_f_6061_317" x="-422" y="-1251" width="2750" height="2750" filterUnits="userSpaceOnUse" color-interpolation-filters="sRGB">
<feFlood flood-opacity="0" result="BackgroundImageFix"/>
<feBlend mode="normal" in="SourceGraphic" in2="BackgroundImageFix" result="shape"/>
<feGaussianBlur stdDeviation="150" result="effect1_foregroundBlur_6061_317"/>
</filter>
<filter id="filter2_f_6061_317" x="403" y="-820" width="1100" height="1100" filterUnits="userSpaceOnUse" color-interpolation-filters="sRGB">
<feFlood flood-opacity="0" result="BackgroundImageFix"/>
<feBlend mode="normal" in="SourceGraphic" in2="BackgroundImageFix" result="shape"/>
<feGaussianBlur stdDeviation="100" result="effect1_foregroundBlur_6061_317"/>
</filter>
<linearGradient id="paint0_linear_6061_317" x1="960" y1="0" x2="960" y2="636" gradientUnits="userSpaceOnUse">
<stop stop-color="white" stop-opacity="0.1"/>
<stop offset="1" stop-color="white" stop-opacity="0.01"/>
</linearGradient>
</defs>
</svg>
