<svg width="1920" height="1127" viewBox="0 0 1920 1127" fill="none" xmlns="http://www.w3.org/2000/svg">
<g filter="url(#filter0_f_2091_309)">
<ellipse cx="952.5" cy="-204.5" rx="1075.5" ry="1031.5" fill="#B9FB6A"/>
</g>
<g filter="url(#filter1_f_2091_309)">
<circle cx="953" cy="-452" r="1075" fill="white"/>
</g>
<g filter="url(#filter2_f_2091_309)">
<circle cx="953" cy="-350" r="350" fill="#B9FB6A"/>
</g>
<path d="M645 -294H715V-363H716V-294H786V-363H787V-294H857V-363H858V-294H928V-363H929V-294H999V-363H1000V-294H1070V-363H1071V-294H1141V-363H1142V-294H1212V-363H1213V-294H1275V-363H1276V273H644V-363H645V-294ZM1213 203V272H1275V203H1213ZM645 272H715V203H645V272ZM716 272H786V203H716V272ZM787 272H857V203H787V272ZM858 272H928V203H858V272ZM929 272H999V203H929V272ZM1000 272H1070V203H1000V272ZM1071 272H1141V203H1071V272ZM1142 272H1212V203H1142V272ZM1213 133V202H1275V133H1213ZM645 202H715V133H645V202ZM716 202H786V133H716V202ZM787 202H857V133H787V202ZM858 202H928V133H858V202ZM929 202H999V133H929V202ZM1000 202H1070V133H1000V202ZM1071 202H1141V133H1071V202ZM1142 202H1212V133H1142V202ZM1213 62V132H1275V62H1213ZM645 132H715V62H645V132ZM716 132H786V62H716V132ZM787 132H857V62H787V132ZM858 132H928V62H858V132ZM929 132H999V62H929V132ZM1000 132H1070V62H1000V132ZM1071 132H1141V62H1071V132ZM1142 132H1212V62H1142V132ZM1213 -9V61H1275V-9H1213ZM645 61H715V-9H645V61ZM716 61H786V-9H716V61ZM787 61H857V-9H787V61ZM858 61H928V-9H858V61ZM929 61H999V-9H929V61ZM1000 61H1070V-9H1000V61ZM1071 61H1141V-9H1071V61ZM1142 61H1212V-9H1142V61ZM1213 -80V-10H1275V-80H1213ZM645 -10H715V-80H645V-10ZM716 -10H786V-80H716V-10ZM787 -10H857V-80H787V-10ZM858 -10H928V-80H858V-10ZM929 -10H999V-80H929V-10ZM1000 -10H1070V-80H1000V-10ZM1071 -10H1141V-80H1071V-10ZM1142 -10H1212V-80H1142V-10ZM1213 -151V-81H1275V-151H1213ZM645 -81H715V-151H645V-81ZM716 -81H786V-151H716V-81ZM787 -81H857V-151H787V-81ZM858 -81H928V-151H858V-81ZM929 -81H999V-151H929V-81ZM1000 -81H1070V-151H1000V-81ZM1071 -81H1141V-151H1071V-81ZM1142 -81H1212V-151H1142V-81ZM1213 -222V-152H1275V-222H1213ZM645 -152H715V-222H645V-152ZM716 -152H786V-222H716V-152ZM787 -152H857V-222H787V-152ZM858 -152H928V-222H858V-152ZM929 -152H999V-222H929V-152ZM1000 -152H1070V-222H1000V-152ZM1071 -152H1141V-222H1071V-152ZM1142 -152H1212V-222H1142V-152ZM1213 -293V-223H1275V-293H1213ZM645 -223H715V-293H645V-223ZM716 -223H786V-293H716V-223ZM787 -223H857V-293H787V-223ZM858 -223H928V-293H858V-223ZM929 -223H999V-293H929V-223ZM1000 -223H1070V-293H1000V-223ZM1071 -223H1141V-293H1071V-223ZM1142 -223H1212V-293H1142V-223Z" fill="#0E0E0E" fill-opacity="0.07"/>
<circle cx="-6.5" cy="142.5" r="457.25" stroke="#0E0E0E" stroke-opacity="0.1" stroke-width="0.5"/>
<circle cx="-7" cy="142" r="324.75" stroke="#0E0E0E" stroke-opacity="0.1" stroke-width="0.5"/>
<circle cx="316.5" cy="170.5" r="3.5" fill="#0E0E0E"/>
<circle cx="152.5" cy="424.5" r="3.5" fill="#0E0E0E"/>
<circle cx="78.5" cy="591.5" r="3.5" fill="#0E0E0E"/>
<circle cx="358.5" cy="418.5" r="3.5" fill="#0E0E0E"/>
<circle cx="448.5" cy="105.5" r="3.5" fill="#0E0E0E"/>
<circle cx="1912.5" cy="142.5" r="457.25" stroke="#0E0E0E" stroke-opacity="0.1" stroke-width="0.5"/>
<circle cx="1912" cy="142" r="324.75" stroke="#0E0E0E" stroke-opacity="0.1" stroke-width="0.5"/>
<circle cx="1588.5" cy="169.5" r="2.5" fill="#0E0E0E"/>
<circle cx="1516.5" cy="371.5" r="2.5" fill="#0E0E0E"/>
<circle cx="1778.5" cy="579.5" r="2.5" fill="#0E0E0E"/>
<circle cx="1745.5" cy="420.5" r="2.5" fill="#0E0E0E"/>
<circle cx="1457.5" cy="92.5" r="2.5" fill="#0E0E0E"/>
<defs>
<filter id="filter0_f_2091_309" x="-423" y="-1536" width="2751" height="2663" filterUnits="userSpaceOnUse" color-interpolation-filters="sRGB">
<feFlood flood-opacity="0" result="BackgroundImageFix"/>
<feBlend mode="normal" in="SourceGraphic" in2="BackgroundImageFix" result="shape"/>
<feGaussianBlur stdDeviation="150" result="effect1_foregroundBlur_2091_309"/>
</filter>
<filter id="filter1_f_2091_309" x="-422" y="-1827" width="2750" height="2750" filterUnits="userSpaceOnUse" color-interpolation-filters="sRGB">
<feFlood flood-opacity="0" result="BackgroundImageFix"/>
<feBlend mode="normal" in="SourceGraphic" in2="BackgroundImageFix" result="shape"/>
<feGaussianBlur stdDeviation="150" result="effect1_foregroundBlur_2091_309"/>
</filter>
<filter id="filter2_f_2091_309" x="303" y="-1000" width="1300" height="1300" filterUnits="userSpaceOnUse" color-interpolation-filters="sRGB">
<feFlood flood-opacity="0" result="BackgroundImageFix"/>
<feBlend mode="normal" in="SourceGraphic" in2="BackgroundImageFix" result="shape"/>
<feGaussianBlur stdDeviation="150" result="effect1_foregroundBlur_2091_309"/>
</filter>
</defs>
</svg>
