<svg xmlns="http://www.w3.org/2000/svg" width="28" height="25" viewBox="0 0 28 25"><path d="M22.75 0C22.9375 0 23.0781 0.09375 23.2188 0.28125L27.9062 7.17188C28 7.35938 28 7.64062 27.8594 7.82812L14.9219 23.8125C14.6875 24.0938 14.2656 24.0938 14.0312 23.8125L1.09375 7.82812C0.953125 7.64062 0.953125 7.35938 1.09375 7.17188L5.78125 0.28125C5.875 0.09375 6.0625 0 6.25 0H22.75ZM21.8125 2.25H19.1406L21.5781 6.75H24.8125L21.8125 2.25ZM12.3438 2.25L9.95312 6.75H19.0469L16.6094 2.25H12.3438ZM7.14062 2.25L4.1875 6.75H7.375L9.8125 2.25H7.14062ZM5.125 9L10.75 16.5L7.51562 9H5.125ZM9.95312 9L14.5 20.4375L19 9H9.95312ZM18.25 16.5L23.8281 9H21.4375L18.25 16.5Z"></path></svg>