<svg xmlns="http://www.w3.org/2000/svg" width="46" height="45" viewBox="0 0 46 45" fill="none"><path fill-rule="evenodd" clip-rule="evenodd" d="M13.6721 35.3216H3.29325C1.47316 35.3216 0 33.8479 0 32.0304V10.8425C0 9.02258 1.47335 7.54924 3.29325 7.54924H15.9302V3.18309C15.9302 2.33887 16.2656 1.52925 16.8625 0.932351C17.4594 0.335356 18.269 0 19.1132 0H38.1094C38.9535 0 39.7631 0.335356 40.3601 0.932351C40.957 1.52925 41.2924 2.33887 41.2924 3.18309V10.9932H42.7911C44.199 10.9932 45.3507 12.1449 45.3507 13.5528V36.1314C45.3507 37.5392 44.199 38.6909 42.7911 38.6909H31.3818C29.9759 38.6909 28.8239 37.5394 28.8239 36.1314V35.3216H24.4443C24.4965 37.2117 24.9697 39.2038 25.559 40.4886H27.727C28.9676 40.4886 29.9827 41.5037 29.9827 42.7443C29.9827 43.9849 28.9676 45 27.727 45H10.4714C9.23079 45 8.21573 43.9849 8.21573 42.7443C8.21573 41.5037 9.23079 40.4886 10.4714 40.4886H12.6331C13.2068 39.2028 13.6386 37.2109 13.6721 35.3216ZM15.9302 8.83448H3.29325C2.18353 8.83448 1.28524 9.73277 1.28524 10.8425V28.7655H28.8239V27.6977H19.1132C18.269 27.6977 17.4594 27.3623 16.8625 26.7654C16.2656 26.1684 15.9302 25.3588 15.9302 24.5146V19.5968L13.3102 18.3771C12.8796 18.8899 12.2339 19.216 11.5127 19.216C10.218 19.216 9.16681 18.1649 9.16681 16.8701C9.16681 15.5753 10.218 14.5242 11.5127 14.5242C12.1292 14.5242 12.6904 14.7624 13.1093 15.1517L15.9302 13.4994V8.83448ZM1.28524 30.0507V32.0304C1.28524 33.1383 2.18372 34.0363 3.29325 34.0363H28.8239V30.0507H1.28524ZM23.1591 35.3216H14.9572C14.9252 37.1573 14.5425 39.0818 14.0181 40.4886H24.1673C23.6241 39.0812 23.2073 37.1566 23.1591 35.3216ZM40.0071 10.9932V3.18309C40.0071 2.67973 39.8072 2.19703 39.4512 1.84111C39.0953 1.48519 38.6126 1.28524 38.1094 1.28524H19.1132C18.6098 1.28524 18.1271 1.48519 17.7712 1.84111C17.4154 2.19703 17.2155 2.67973 17.2155 3.18309V12.7466L22.8663 9.43652C22.7982 9.21693 22.7615 8.98357 22.7615 8.74167C22.7615 7.44688 23.8127 6.39564 25.1074 6.39564C26.4022 6.39564 27.4534 7.44688 27.4534 8.74167C27.4534 10.0365 26.4022 11.0876 25.1074 11.0876C24.5198 11.0876 23.9823 10.871 23.5705 10.5135L17.2155 14.2361V18.7775L23.2878 21.6041C23.718 21.1073 24.3534 20.7927 25.0616 20.7927C26.3564 20.7927 27.4076 21.844 27.4076 23.1388C27.4076 24.4335 26.3564 25.4847 25.0616 25.4847C23.7669 25.4847 22.7156 24.4335 22.7156 23.1388C22.7156 23.0129 22.7256 22.8894 22.7447 22.769L17.2155 20.1951V24.5146C17.2155 25.018 17.4154 25.5007 17.7712 25.8566C18.1271 26.2125 18.6098 26.4125 19.1132 26.4125H28.8239V13.5528C28.8239 12.1448 29.9759 10.9932 31.3818 10.9932H40.0071ZM30.1091 13.5528V36.1314C30.1091 36.8321 30.682 37.4057 31.3818 37.4057H42.7911C43.492 37.4057 44.0654 36.8323 44.0654 36.1314V13.5528C44.0654 12.8519 43.492 12.2785 42.7911 12.2785H31.3818C30.682 12.2785 30.1091 12.8521 30.1091 13.5528ZM13.8352 17.2039L15.9302 18.1792V14.9889L13.776 16.2507C13.8299 16.4481 13.8588 16.6557 13.8588 16.8701C13.8588 16.9834 13.8507 17.0948 13.8352 17.2039ZM11.5127 15.8094C10.9273 15.8094 10.452 16.2847 10.452 16.8701C10.452 17.4555 10.9273 17.9308 11.5127 17.9308C12.0982 17.9308 12.5735 17.4555 12.5735 16.8701C12.5735 16.2847 12.0982 15.8094 11.5127 15.8094ZM25.1074 7.68088C24.522 7.68088 24.0467 8.15624 24.0467 8.74167C24.0467 9.32709 24.522 9.80236 25.1074 9.80236C25.6928 9.80236 26.1682 9.32709 26.1682 8.74167C26.1682 8.15624 25.6928 7.68088 25.1074 7.68088ZM25.0616 22.078C24.4762 22.078 24.0009 22.5533 24.0009 23.1388C24.0009 23.7242 24.4762 24.1995 25.0616 24.1995C25.647 24.1995 26.1224 23.7242 26.1224 23.1388C26.1224 22.5533 25.647 22.078 25.0616 22.078ZM10.4714 41.7739C9.93768 41.7739 9.50097 42.2106 9.50097 42.7443C9.50097 43.2781 9.93768 43.7148 10.4714 43.7148H27.727C28.2607 43.7148 28.6974 43.2781 28.6974 42.7443C28.6974 42.2106 28.2607 41.7739 27.727 41.7739H10.4714ZM17.6409 32.6861C17.2862 32.6861 16.9982 32.3982 16.9982 32.0435C16.9982 31.6888 17.2862 31.4009 17.6409 31.4009H20.5553C20.91 31.4009 21.198 31.6888 21.198 32.0435C21.198 32.3982 20.91 32.6861 20.5553 32.6861H17.6409ZM36.0454 36.0316C35.6907 36.0316 35.4027 35.7436 35.4027 35.389C35.4027 35.0342 35.6907 34.7463 36.0454 34.7463H38.1292C38.4838 34.7463 38.7718 35.0342 38.7718 35.389C38.7718 35.7436 38.4838 36.0316 38.1292 36.0316H36.0454Z" fill="#0E0E0E"></path></svg>