<svg xmlns="http://www.w3.org/2000/svg" width="55" height="55" viewBox="0 0 55 55" fill="none"><g clip-path="url(#clip0_6109_1254)"><path d="M54.6853 8.2792C54.9924 7.97198 55.0844 7.50996 54.9181 7.10852C54.7519 6.70709 54.3602 6.4453 53.9257 6.4453H48.5546V1.07422C48.5546 0.639696 48.2928 0.248037 47.8915 0.0817479C47.4899 -0.084326 47.0279 0.00751951 46.7208 0.314638L42.5558 4.47948C38.08 1.54644 32.8949 0 27.4999 0C12.2911 0 0 12.2871 0 27.4999C0 42.7088 12.2871 54.9999 27.4999 54.9999C33.674 54.9999 39.5054 53.0052 44.3636 49.2313C44.8321 48.8674 44.9169 48.1925 44.553 47.724C44.189 47.2556 43.5144 47.1708 43.0457 47.5346C38.5678 51.0129 33.1922 52.8515 27.4999 52.8515C13.5211 52.8515 2.14843 41.4788 2.14843 27.4999C2.14843 13.5211 13.5211 2.14843 27.4999 2.14843C32.3227 2.14843 36.9631 3.48863 41.0012 6.0342L40.2755 6.75994C40.0741 6.96146 39.9609 7.23463 39.9609 7.51952V13.5198L39.3208 14.1597C36.0533 11.2561 31.8963 9.66795 27.4999 9.66795C17.6674 9.66795 9.66795 17.6674 9.66795 27.4999C9.66795 37.3325 17.6674 45.3319 27.4999 45.3319C37.3325 45.3319 45.3319 37.3325 45.3319 27.4999C45.3319 23.1037 43.7439 18.9468 40.8401 15.6791L41.4801 15.039H47.4804C47.7653 15.039 48.0384 14.9258 48.24 14.7244L48.9658 13.9985C51.5113 18.0358 52.8515 22.6763 52.8515 27.4999C52.8515 32.1518 51.5838 36.6986 49.1855 40.6486C48.8776 41.1557 49.0391 41.8164 49.5462 42.1242C50.0513 42.4309 50.7127 42.2727 51.0219 41.7635C53.6242 37.4774 54.9999 32.5451 54.9999 27.4999C54.9999 22.1042 53.4533 16.9188 50.5205 12.4439L54.6853 8.2792ZM43.1835 27.4999C43.1835 36.1479 36.1479 43.1835 27.4999 43.1835C18.852 43.1835 11.8164 36.1479 11.8164 27.4999C11.8164 18.852 18.852 11.8164 27.4999 11.8164C31.3224 11.8164 34.9398 13.1819 37.799 15.6817L32.4606 21.0202C31.042 19.9289 29.3162 19.3359 27.4999 19.3359C22.9983 19.3359 19.3359 22.9983 19.3359 27.4999C19.3359 32.0016 22.9983 35.664 27.4999 35.664C32.0016 35.664 35.664 32.0016 35.664 27.4999C35.664 25.6837 35.071 23.958 33.9797 22.5394L39.3182 17.201C41.818 20.0602 43.1835 23.6776 43.1835 27.4999ZM33.5156 27.4999C33.5156 30.817 30.817 33.5156 27.4999 33.5156C24.1829 33.5156 21.4843 30.817 21.4843 27.4999C21.4843 24.1829 24.1829 21.4843 27.4999 21.4843C28.7409 21.4843 29.9244 21.8606 30.9238 22.5568L26.7404 26.7403C26.3209 27.1597 26.3209 27.8399 26.7404 28.2595C27.1601 28.679 27.8399 28.6789 28.2596 28.2595L32.4431 24.0761C33.1393 25.0755 33.5156 26.2591 33.5156 27.4999ZM47.0353 12.8906H42.1093V7.96456C43.5461 6.5278 45.0344 5.03947 46.4062 3.6677V7.51952C46.4062 8.1127 46.8872 8.59373 47.4804 8.59373H51.3322L47.0353 12.8906Z" fill="#0E0E0E"></path><path d="M47.2656 46.1913C47.8589 46.1913 48.3398 45.7103 48.3398 45.1171C48.3398 44.5238 47.8589 44.0428 47.2656 44.0428C46.6724 44.0428 46.1914 44.5238 46.1914 45.1171C46.1914 45.7103 46.6724 46.1913 47.2656 46.1913Z" fill="#0E0E0E"></path></g><defs><clipPath id="clip0_6109_1254"><rect width="55" height="55" fill="white"></rect></clipPath></defs></svg>