<svg xmlns="http://www.w3.org/2000/svg" width="55" height="55" viewBox="0 0 55 55" fill="none"><g clip-path="url(#clip0_6109_1238)"><path d="M27.5 35.6641C28.0929 35.6641 28.5742 35.1828 28.5742 34.5898C28.5742 33.9969 28.0929 33.5156 27.5 33.5156C26.9071 33.5156 26.4258 33.9969 26.4258 34.5898C26.4258 35.1828 26.9071 35.6641 27.5 35.6641Z" fill="#0E0E0E"></path><path d="M41.3201 30.0085C41.1309 29.6812 40.783 29.4777 40.4049 29.4722C40.3999 29.4722 40.3953 29.4722 40.3903 29.4722C40.0176 29.4722 39.6715 29.6656 39.4755 29.9833L35.3452 36.6951L28.5743 25.6923V12.8906H44.6876C45.1005 12.8906 45.4769 12.654 45.6556 12.2818C45.8348 11.9096 45.7844 11.4677 45.5264 11.1454L41.7662 6.44531L45.5264 1.74519C45.7844 1.42292 45.8348 0.981064 45.6556 0.608864C45.4769 0.236664 45.1005 0 44.6876 0H27.5001C26.9067 0 26.4258 0.480881 26.4258 1.07422V25.6923L19.6549 36.6955L15.5242 29.9833C15.3261 29.6614 14.9745 29.4672 14.5952 29.4722C14.2167 29.4772 13.8692 29.6812 13.6796 30.0085L0.144401 53.3874C-0.0477834 53.7202 -0.0482031 54.1297 0.143562 54.4625C0.335327 54.7952 0.690322 55 1.07427 55H53.9258C54.3098 55 54.6648 54.7952 54.8565 54.4625C55.0483 54.1297 55.0479 53.7197 54.8553 53.3874L41.3201 30.0085ZM20.5831 39.2858C20.5844 39.2837 20.5856 39.282 20.5869 39.2799L27.5001 28.0459L42.7649 52.8516H12.2348L20.5831 39.2858ZM39.5519 5.77435C39.238 6.16669 39.238 6.72394 39.5519 7.11628L42.4523 10.7422H28.5743V2.14844H42.4523L39.5519 5.77435ZM14.6375 32.6416L18.3935 38.7449L9.71208 52.8516H2.93737L14.6375 32.6416ZM45.2876 52.8516L36.6066 38.7445L40.3626 32.6416L52.0627 52.8516H45.2876Z" fill="#0E0E0E"></path><path d="M36.0838 50.192C36.3947 50.6977 37.0564 50.8546 37.5616 50.5437C38.0669 50.2327 38.2246 49.5714 37.9133 49.0662L30.8406 37.5729C30.5301 37.0677 29.8684 36.9099 29.3628 37.2208C28.8575 37.5322 28.7002 38.1935 29.0111 38.6987L36.0838 50.192Z" fill="#0E0E0E"></path></g><defs><clipPath id="clip0_6109_1238"><rect width="55" height="55" fill="white"></rect></clipPath></defs></svg>