<svg xmlns="http://www.w3.org/2000/svg" width="50" height="45" viewBox="0 0 50 45" fill="none"><path d="M45.7759 45H3.87931C2.85083 44.9988 1.86483 44.5897 1.13758 43.8624C0.410339 43.1352 0.00123196 42.1492 0 41.1207L0 3.87931C0.00123196 2.85083 0.410339 1.86483 1.13758 1.13758C1.86483 0.410339 2.85083 0.00123196 3.87931 0H45.7759C46.8043 0.00123196 47.7903 0.410339 48.5176 1.13758C49.2448 1.86483 49.6539 2.85083 49.6552 3.87931V41.1207C49.6539 42.1492 49.2448 43.1352 48.5176 43.8624C47.7903 44.5897 46.8043 44.9988 45.7759 45ZM3.87931 1.55172C3.262 1.55172 2.66997 1.79695 2.23346 2.23346C1.79695 2.66997 1.55172 3.262 1.55172 3.87931V41.1207C1.55172 41.738 1.79695 42.33 2.23346 42.7665C2.66997 43.203 3.262 43.4483 3.87931 43.4483H45.7759C46.3932 43.4483 46.9852 43.203 47.4217 42.7665C47.8582 42.33 48.1034 41.738 48.1034 41.1207V3.87931C48.1034 3.262 47.8582 2.66997 47.4217 2.23346C46.9852 1.79695 46.3932 1.55172 45.7759 1.55172H3.87931Z" fill="#0E0E0E"></path><path d="M38.017 7.75869C37.5567 7.75869 37.1067 7.62218 36.7239 7.36642C36.3411 7.11066 36.0428 6.74714 35.8666 6.32183C35.6905 5.89652 35.6444 5.42852 35.7342 4.97701C35.824 4.52551 36.0457 4.11077 36.3712 3.78525C36.6967 3.45973 37.1114 3.23805 37.563 3.14824C38.0145 3.05843 38.4825 3.10452 38.9078 3.28069C39.3331 3.45686 39.6966 3.7552 39.9524 4.13797C40.2081 4.52073 40.3446 4.97075 40.3446 5.4311C40.3446 6.04842 40.0994 6.64045 39.6629 7.07696C39.2264 7.51346 38.6344 7.75869 38.017 7.75869ZM38.017 4.65524C37.8636 4.65524 37.7136 4.70074 37.586 4.786C37.4584 4.87125 37.359 4.99242 37.3002 5.13419C37.2415 5.27596 37.2261 5.43196 37.2561 5.58247C37.286 5.73297 37.3599 5.87121 37.4684 5.97972C37.5769 6.08823 37.7152 6.16212 37.8657 6.19206C38.0162 6.22199 38.1722 6.20663 38.3139 6.14791C38.4557 6.08918 38.5769 5.98974 38.6621 5.86215C38.7474 5.73456 38.7929 5.58455 38.7929 5.4311C38.7929 5.22533 38.7112 5.02799 38.5657 4.88249C38.4202 4.73698 38.2228 4.65524 38.017 4.65524Z" fill="#0E0E0E"></path><path d="M44.2241 7.75869C43.7637 7.75869 43.3137 7.62218 42.9309 7.36642C42.5482 7.11066 42.2498 6.74714 42.0737 6.32183C41.8975 5.89652 41.8514 5.42852 41.9412 4.97701C42.031 4.52551 42.2527 4.11077 42.5782 3.78525C42.9037 3.45973 43.3185 3.23805 43.77 3.14824C44.2215 3.05843 44.6895 3.10452 45.1148 3.28069C45.5401 3.45686 45.9036 3.7552 46.1594 4.13797C46.4151 4.52073 46.5517 4.97075 46.5517 5.4311C46.5517 6.04842 46.3064 6.64045 45.8699 7.07696C45.4334 7.51346 44.8414 7.75869 44.2241 7.75869ZM44.2241 4.65524C44.0706 4.65524 43.9206 4.70074 43.793 4.786C43.6654 4.87125 43.566 4.99242 43.5073 5.13419C43.4485 5.27596 43.4332 5.43196 43.4631 5.58247C43.4931 5.73297 43.5669 5.87121 43.6755 5.97972C43.784 6.08823 43.9222 6.16212 44.0727 6.19206C44.2232 6.22199 44.3792 6.20663 44.521 6.14791C44.6628 6.08918 44.7839 5.98974 44.8692 5.86215C44.9544 5.73456 44.9999 5.58455 44.9999 5.4311C44.9999 5.22533 44.9182 5.02799 44.7727 4.88249C44.6272 4.73698 44.4298 4.65524 44.2241 4.65524Z" fill="#0E0E0E"></path><path d="M30.2587 6.207H3.87938C3.67361 6.207 3.47626 6.12525 3.33076 5.97975C3.18526 5.83425 3.10352 5.63691 3.10352 5.43114C3.10352 5.22536 3.18526 5.02802 3.33076 4.88252C3.47626 4.73702 3.67361 4.65527 3.87938 4.65527H30.2587C30.4645 4.65527 30.6618 4.73702 30.8073 4.88252C30.9528 5.02802 31.0345 5.22536 31.0345 5.43114C31.0345 5.63691 30.9528 5.83425 30.8073 5.97975C30.6618 6.12525 30.4645 6.207 30.2587 6.207Z" fill="#0E0E0E"></path><path d="M48.8793 10.862H0.775862C0.570091 10.862 0.372747 10.7803 0.227245 10.6348C0.0817424 10.4893 0 10.2919 0 10.0862C0 9.88039 0.0817424 9.68305 0.227245 9.53755C0.372747 9.39205 0.570091 9.3103 0.775862 9.3103H48.8793C49.0851 9.3103 49.2824 9.39205 49.4279 9.53755C49.5734 9.68305 49.6552 9.88039 49.6552 10.0862C49.6552 10.2919 49.5734 10.4893 49.4279 10.6348C49.2824 10.7803 49.0851 10.862 48.8793 10.862Z" fill="#0E0E0E"></path><path d="M36.4647 27.9309H34.1371C33.9754 27.931 33.8177 27.8803 33.6863 27.7858L29.4819 24.7832V27.1551C29.4819 27.3608 29.4002 27.5582 29.2547 27.7037C29.1092 27.8492 28.9119 27.9309 28.7061 27.9309H13.1888C11.749 27.9293 10.3685 27.3566 9.35034 26.3384C8.33218 25.3202 7.75946 23.9398 7.75781 22.4999C7.75966 21.06 8.33245 19.6797 9.35057 18.6616C10.3687 17.6435 11.749 17.0707 13.1888 17.0688H36.4647C37.9046 17.0705 39.2851 17.6432 40.3032 18.6614C41.3214 19.6795 41.8941 21.06 41.8957 22.4999C41.8939 23.9397 41.3211 25.32 40.303 26.3382C39.2849 27.3563 37.9045 27.9291 36.4647 27.9309ZM34.3854 26.3792H36.4647C37.493 26.3773 38.4786 25.968 39.2058 25.2409C39.9329 24.5138 40.3422 23.5282 40.344 22.4999C40.3428 21.4714 39.9337 20.4854 39.2064 19.7582C38.4792 19.0309 37.4932 18.6218 36.4647 18.6206H13.1888C12.1606 18.6224 11.1749 19.0317 10.4478 19.7588C9.72069 20.4859 9.31138 21.4716 9.30954 22.4999C9.31077 23.5284 9.71988 24.5144 10.4471 25.2416C11.1744 25.9689 12.1604 26.378 13.1888 26.3792H27.9302V23.2757C27.9304 23.1333 27.9697 22.9936 28.044 22.872C28.1183 22.7504 28.2246 22.6516 28.3513 22.5865C28.478 22.5213 28.6202 22.4923 28.7623 22.5026C28.9044 22.5129 29.0409 22.5622 29.1569 22.645L34.3854 26.3792Z" fill="#0E0E0E"></path><path d="M28.7075 38.0173C28.5017 38.0173 28.3044 37.9355 28.1589 37.79C28.0134 37.6445 27.9316 37.4472 27.9316 37.2414V23.2759C27.9318 23.1334 27.9711 22.9937 28.0454 22.8721C28.1197 22.7506 28.226 22.6518 28.3527 22.5866C28.4794 22.5215 28.6216 22.4925 28.7637 22.5028C28.9058 22.5131 29.0423 22.5623 29.1583 22.6451L40.0203 30.4037C40.1261 30.4794 40.2111 30.5804 40.2676 30.6975C40.3241 30.8146 40.3503 30.944 40.3437 31.0739C40.3371 31.2037 40.298 31.3298 40.23 31.4406C40.162 31.5514 40.0672 31.6434 39.9544 31.708L36.3699 33.7562C36.2814 33.8068 36.1838 33.8394 36.0828 33.8522C35.9817 33.865 35.879 33.8578 35.7807 33.831C35.6824 33.8042 35.5904 33.7582 35.5098 33.6958C35.4293 33.6334 35.3618 33.5557 35.3113 33.4672C35.2607 33.3787 35.2281 33.2812 35.2153 33.1801C35.2025 33.079 35.2097 32.9763 35.2365 32.878C35.2633 32.7797 35.3093 32.6877 35.3717 32.6071C35.4341 32.5266 35.5118 32.4591 35.6003 32.4086L38.1327 30.9616L29.4834 24.7834V35.9038L31.6744 34.6516C31.8526 34.5553 32.0615 34.5325 32.2563 34.5881C32.4511 34.6437 32.6164 34.7733 32.7169 34.9492C32.8174 35.1251 32.8452 35.3333 32.7942 35.5294C32.7432 35.7255 32.6175 35.8938 32.4441 35.9985L29.0923 37.9149C28.9751 37.9819 28.8425 38.0172 28.7075 38.0173Z" fill="#0E0E0E"></path><path d="M34.1388 39.569C34.0049 39.5689 33.8733 39.5343 33.7568 39.4683C33.6403 39.4024 33.5428 39.3074 33.4739 39.1927L31.3938 35.7246C31.2879 35.5481 31.2565 35.3368 31.3064 35.1372C31.3563 34.9376 31.4834 34.766 31.6599 34.6601C31.8363 34.5542 32.0476 34.5228 32.2472 34.5727C32.4469 34.6226 32.6185 34.7498 32.7244 34.9262L34.4049 37.7286L36.9528 36.1994L35.3235 33.4839C35.2675 33.3965 35.2297 33.2988 35.2121 33.1965C35.1946 33.0942 35.1978 32.9894 35.2215 32.8884C35.2451 32.7873 35.2889 32.6921 35.35 32.6082C35.4112 32.5244 35.4885 32.4536 35.5775 32.4002C35.6665 32.3468 35.7653 32.3118 35.868 32.2972C35.9708 32.2827 36.0754 32.2889 36.1757 32.3155C36.276 32.3421 36.37 32.3885 36.452 32.4521C36.5341 32.5157 36.6025 32.595 36.6533 32.6855L38.6861 36.0683C38.792 36.2446 38.8236 36.4558 38.7738 36.6555C38.7241 36.8551 38.5971 37.0268 38.4208 37.1328L34.5414 39.4603C34.4197 39.5326 34.2804 39.5702 34.1388 39.569Z" fill="#0E0E0E"></path></svg>