<svg xmlns="http://www.w3.org/2000/svg" width="47" height="50" viewBox="0 0 47 50" fill="none"><path d="M38.0426 37.234C41.117 37.234 43.617 34.734 43.617 31.6596V10.6383C45.3723 10.6383 46.8085 9.20213 46.8085 7.44681C46.8085 5.69149 45.3723 4.25532 43.617 4.25532H26.5957V3.19149C26.5957 1.43617 25.1596 0 23.4043 0C21.6489 0 20.2128 1.43617 20.2128 3.19149V4.25532H3.19149C1.43617 4.25532 0 5.69149 0 7.44681C0 9.20213 1.43617 10.6383 3.19149 10.6383V31.6596C3.19149 34.734 5.69149 37.234 8.76596 37.234H22.3404V43.7979C21.1064 44.234 20.2128 45.4149 20.2128 46.8085C20.2128 48.5638 21.6489 50 23.4043 50C25.1596 50 26.5957 48.5638 26.5957 46.8085C26.5957 45.4255 25.7021 44.234 24.4681 43.7979V37.234H38.0426ZM23.4043 47.8723C22.8191 47.8723 22.3404 47.3936 22.3404 46.8085C22.3404 46.2234 22.8191 45.7447 23.4043 45.7447C23.9894 45.7447 24.4681 46.2234 24.4681 46.8085C24.4681 47.3936 23.9894 47.8723 23.4043 47.8723ZM2.12766 7.44681C2.12766 6.8617 2.60638 6.38298 3.19149 6.38298H21.2766C21.8617 6.38298 22.3404 5.90426 22.3404 5.31915V3.19149C22.3404 2.60638 22.8191 2.12766 23.4043 2.12766C23.9894 2.12766 24.4681 2.60638 24.4681 3.19149V5.31915C24.4681 5.90426 24.9468 6.38298 25.5319 6.38298H43.617C44.2021 6.38298 44.6808 6.8617 44.6808 7.44681C44.6808 8.03191 44.2021 8.51064 43.617 8.51064C39.0213 8.51064 7.98936 8.51064 3.19149 8.51064C2.60638 8.51064 2.12766 8.03191 2.12766 7.44681ZM5.31915 31.6596V10.6383H41.4894V12.766H24.4681C23.883 12.766 23.4043 13.2447 23.4043 13.8298C23.4043 14.4149 23.883 14.8936 24.4681 14.8936H41.4894V31.6596C41.4894 33.5638 39.9468 35.1064 38.0426 35.1064H8.76596C6.8617 35.1064 5.31915 33.5638 5.31915 31.6596Z" fill="#0E0E0E"></path><path d="M38.297 31.9149C38.297 31.3298 37.8183 30.851 37.2332 30.851H12.0417L16.7864 25.3085L18.2013 28.1276C18.563 28.8617 19.5842 28.9255 20.0417 28.2446L23.3396 23.2978L26.7438 29.2553C27.1055 29.8829 27.9778 29.9787 28.4566 29.4361L36.18 20.8617V22.3404C36.18 22.9255 36.6587 23.4042 37.2438 23.4042C37.8289 23.4042 38.3076 22.9255 38.3076 22.3404C38.3076 21.4042 38.3076 18.1595 38.3076 18.0638C38.297 17.4893 37.8289 17.0212 37.2438 17.0212H32.9885C32.4034 17.0212 31.9247 17.5 31.9247 18.0851C31.9247 18.6702 32.4034 19.1489 32.9885 19.1489H34.8502L27.8608 26.9149L24.3396 20.7446C23.9459 20.0532 22.9672 20.0319 22.531 20.6808L19.297 25.5425L17.9885 22.9255C17.6481 22.2446 16.7225 22.1276 16.2332 22.7127L10.6374 29.2127V22.3404C10.6374 21.7553 10.1587 21.2766 9.5736 21.2766C8.98849 21.2766 8.50977 21.7553 8.50977 22.3404V31.9149C8.50977 32.5 8.98849 32.9787 9.5736 32.9787H37.2332C37.8183 32.9787 38.297 32.5 38.297 31.9149Z" fill="#0E0E0E"></path><path d="M5.31844 41.4893C3.56312 41.4893 2.12695 42.9254 2.12695 44.6807C2.12695 46.4361 3.56312 47.8722 5.31844 47.8722C7.07376 47.8722 8.50993 46.4361 8.50993 44.6807C8.50993 42.9254 7.07376 41.4893 5.31844 41.4893ZM5.31844 45.7446C4.73334 45.7446 4.25461 45.2659 4.25461 44.6807C4.25461 44.0956 4.73334 43.6169 5.31844 43.6169C5.90355 43.6169 6.38227 44.0956 6.38227 44.6807C6.38227 45.2659 5.90355 45.7446 5.31844 45.7446Z" fill="#0E0E0E"></path><path d="M42.5541 38.2979C40.2031 38.2979 38.2988 40.2021 38.2988 42.5532C38.2988 44.9042 40.2031 46.8085 42.5541 46.8085C44.9052 46.8085 46.8095 44.9042 46.8095 42.5532C46.8095 40.2021 44.9052 38.2979 42.5541 38.2979ZM42.5541 44.6808C41.3839 44.6808 40.4265 43.7234 40.4265 42.5532C40.4265 41.383 41.3839 40.4255 42.5541 40.4255C43.7244 40.4255 44.6818 41.383 44.6818 42.5532C44.6818 43.7234 43.7244 44.6808 42.5541 44.6808Z" fill="#0E0E0E"></path><path d="M9.57422 17.0212H11.7019V19.1489H9.57422V17.0212Z" fill="#0E0E0E"></path><path d="M7.44727 14.8936H9.57493V17.0212H7.44727V14.8936Z" fill="#0E0E0E"></path><path d="M9.57422 12.7659H11.7019V14.8935H9.57422V12.7659Z" fill="#0E0E0E"></path></svg>