<svg xmlns="http://www.w3.org/2000/svg" width="50" height="50" viewBox="0 0 50 50" fill="none"><path d="M4.6875 24.4637C4.6875 25.0033 5.12451 25.4403 5.66407 25.4403C6.20331 25.4403 6.64063 25.0033 6.64063 24.4637V22.9988C6.64063 22.4595 6.20331 22.0222 5.66407 22.0222C5.12451 22.0222 4.6875 22.4595 4.6875 22.9988V24.4637Z" fill="#0E0E0E"></path><path d="M5.66407 14.6976C6.20331 14.6976 6.64063 14.2606 6.64063 13.721V12.2561C6.64063 11.7169 6.20331 11.2795 5.66407 11.2795C5.12451 11.2795 4.6875 11.7169 4.6875 12.2561V13.721C4.6875 14.2606 5.12451 14.6976 5.66407 14.6976Z" fill="#0E0E0E"></path><path d="M4.6875 19.0924C4.6875 19.6319 5.12451 20.069 5.66407 20.069C6.20331 20.069 6.64063 19.6319 6.64063 19.0924V17.6275C6.64063 17.0882 6.20331 16.6509 5.66407 16.6509C5.12451 16.6509 4.6875 17.0882 4.6875 17.6275V19.0924Z" fill="#0E0E0E"></path><path d="M5.66407 29.3465H7.12891C7.66816 29.3465 8.10548 28.9095 8.10548 28.3699C8.10548 27.8306 7.66816 27.3933 7.12891 27.3933H5.66407C5.12451 27.3933 4.6875 27.8306 4.6875 28.3699C4.6875 28.9095 5.12451 29.3465 5.66407 29.3465Z" fill="#0E0E0E"></path><path d="M30.6641 14.5023C31.2033 14.5023 31.6406 14.0653 31.6406 13.5257V12.0608C31.6406 11.5216 31.2033 11.0842 30.6641 11.0842C30.1245 11.0842 29.6875 11.5216 29.6875 12.0608V13.5257C29.6875 14.0653 30.1245 14.5023 30.6641 14.5023Z" fill="#0E0E0E"></path><path d="M26.8555 12.9398C27.3947 12.9398 27.832 12.5027 27.832 11.9632C27.832 11.4239 27.3947 10.9866 26.8555 10.9866H25.3906C24.8511 10.9866 24.4141 11.4239 24.4141 11.9632C24.4141 12.5027 24.8511 12.9398 25.3906 12.9398H26.8555Z" fill="#0E0E0E"></path><path d="M10.7422 10.9866H9.27735C8.73779 10.9866 8.30078 11.4239 8.30078 11.9632C8.30078 12.5027 8.73779 12.9398 9.27735 12.9398H10.7422C11.2814 12.9398 11.7188 12.5027 11.7188 11.9632C11.7188 11.4239 11.2814 10.9866 10.7422 10.9866Z" fill="#0E0E0E"></path><path d="M21.4844 12.9398C22.0236 12.9398 22.4609 12.5027 22.4609 11.9632C22.4609 11.4239 22.0236 10.9866 21.4844 10.9866H20.0195C19.48 10.9866 19.043 11.4239 19.043 11.9632C19.043 12.5027 19.48 12.9398 20.0195 12.9398H21.4844Z" fill="#0E0E0E"></path><path d="M29.6875 18.897C29.6875 19.4366 30.1245 19.8736 30.6641 19.8736C31.2033 19.8736 31.6406 19.4366 31.6406 18.897V17.4322C31.6406 16.8929 31.2033 16.4556 30.6641 16.4556C30.1245 16.4556 29.6875 16.8929 29.6875 17.4322V18.897Z" fill="#0E0E0E"></path><path d="M16.1133 12.9398C16.6525 12.9398 17.0899 12.5027 17.0899 11.9632C17.0899 11.4239 16.6525 10.9866 16.1133 10.9866H14.6484C14.1089 10.9866 13.6719 11.4239 13.6719 11.9632C13.6719 12.5027 14.1089 12.9398 14.6484 12.9398H16.1133Z" fill="#0E0E0E"></path><path d="M10.0586 28.3699C10.0586 28.9095 10.4956 29.3465 11.0352 29.3465H12.5C13.0393 29.3465 13.4766 28.9095 13.4766 28.3699C13.4766 27.8306 13.0393 27.3933 12.5 27.3933H11.0352C10.4956 27.3933 10.0586 27.8306 10.0586 28.3699Z" fill="#0E0E0E"></path><path d="M31.673 3.14941H18.1641C17.6245 3.14941 17.1875 3.58674 17.1875 4.12601C17.1875 4.66557 17.6245 5.1026 18.1641 5.1026H31.673C32.2126 5.1026 32.6496 4.66557 32.6496 4.12601C32.6496 3.58674 32.2126 3.14941 31.673 3.14941Z" fill="#0E0E0E"></path><path d="M8.47852 3.15015C8.22186 3.15015 7.97009 3.2533 7.78851 3.4361C7.60632 3.61769 7.50195 3.86886 7.50195 4.12674C7.50195 4.3834 7.60632 4.63548 7.78851 4.81707C7.97009 4.99865 8.22186 5.10333 8.47852 5.10333C8.73548 5.10333 8.98725 4.99865 9.16883 4.81707C9.35041 4.63548 9.45508 4.3834 9.45508 4.12674C9.45508 3.86886 9.35102 3.61769 9.16883 3.4361C8.98725 3.2533 8.73639 3.15015 8.47852 3.15015Z" fill="#0E0E0E"></path><path d="M4.46094 3.15015C4.20368 3.15015 3.95191 3.2533 3.77033 3.4361C3.58783 3.61769 3.48438 3.86977 3.48438 4.12674C3.48438 4.3834 3.58783 4.63548 3.77033 4.81707C3.95191 4.99865 4.20307 5.10333 4.46094 5.10333C4.71759 5.10333 4.96875 4.99865 5.15095 4.81707C5.33253 4.63548 5.43751 4.3834 5.43751 4.12674C5.43751 3.86977 5.33283 3.61769 5.15095 3.4361C4.96875 3.2533 4.71759 3.15015 4.46094 3.15015Z" fill="#0E0E0E"></path><path d="M12.5 3.15015C12.2433 3.15015 11.991 3.25452 11.8094 3.4361C11.6278 3.61769 11.5234 3.86886 11.5234 4.12674C11.5234 4.3834 11.6278 4.63548 11.8094 4.81707C11.991 4.99865 12.2433 5.10333 12.5 5.10333C12.7567 5.10333 13.0087 4.99865 13.1903 4.81707C13.3719 4.63548 13.4766 4.3834 13.4766 4.12674C13.4766 3.86886 13.3719 3.61769 13.1903 3.4361C13.0087 3.25452 12.7567 3.15015 12.5 3.15015Z" fill="#0E0E0E"></path><path d="M0.976565 29.3472C1.23322 29.3472 1.4853 29.2425 1.66688 29.061C1.84846 28.8794 1.95313 28.6273 1.95313 28.3706C1.95313 28.1137 1.84846 27.8616 1.66688 27.68C1.4853 27.4984 1.23322 27.394 0.976565 27.394C0.719912 27.394 0.467531 27.4984 0.285951 27.68C0.10437 27.8616 0 28.1137 0 28.3706C0 28.6273 0.10437 28.8794 0.285951 29.061C0.467531 29.2425 0.719912 29.3472 0.976565 29.3472Z" fill="#0E0E0E"></path><path d="M49.7139 44.5387L44.68 39.5047L48.1483 38.0053C48.5298 37.8405 48.7654 37.452 48.7349 37.0379C48.7044 36.6231 48.4151 36.2734 48.0135 36.1657L44.7267 35.2849V23.451C44.7267 22.9115 44.2894 22.4744 43.7501 22.4744H36.3282V2.92978C36.3282 1.31443 35.0141 0 33.3985 0H2.9297C1.31409 0 0 1.31443 0 2.92978V24.4148C0 24.9544 0.437013 25.3914 0.976565 25.3914C1.51581 25.3914 1.95313 24.9544 1.95313 24.4148V8.2522H34.3751V22.4744H18.7501C18.2105 22.4744 17.7735 22.9115 17.7735 23.451V27.3934H16.4063C15.8667 27.3934 15.4297 27.8307 15.4297 28.37C15.4297 28.9096 15.8667 29.3466 16.4063 29.3466H17.7735V34.3272H2.9297C2.39106 34.3272 1.95313 33.8893 1.95313 33.3506V32.2275C1.95313 31.6883 1.51581 31.251 0.976565 31.251C0.437013 31.251 0 31.6883 0 32.2275V33.3506C0 34.9663 1.31409 36.2804 2.9297 36.2804H17.7735V39.8575C17.7735 40.3967 18.2105 40.8341 18.7501 40.8341H34.242L36.1656 48.0135C36.2733 48.4149 36.623 48.7045 37.0378 48.7347C37.4519 48.7655 37.8404 48.5299 38.0055 48.1484L39.5051 44.68L44.539 49.714C44.7221 49.8972 44.9705 50 45.2293 50C45.4884 50 45.7368 49.8972 45.9199 49.714L49.7139 45.92C50.0954 45.5385 50.0954 44.9202 49.7139 44.5387ZM1.95313 6.29902V2.92978C1.95313 2.39113 2.39106 1.95318 2.9297 1.95318H33.3985C33.9372 1.95318 34.3751 2.39113 34.3751 2.92978V6.29902H1.95313ZM19.7266 38.8809V24.4276H42.7736V34.7615L33.4629 32.2666C33.1257 32.1763 32.7665 32.2727 32.5196 32.5196C32.273 32.7659 32.1766 33.1257 32.2669 33.4629L33.7187 38.8809H19.7266ZM45.2293 47.6424L39.8695 42.2822C39.6843 42.0975 39.4355 41.9962 39.1789 41.9962C39.1182 41.9962 39.0568 42.002 38.9958 42.0136C38.6781 42.0743 38.4111 42.2883 38.2826 42.5852L37.3262 44.7978L34.5915 34.5912L44.7975 37.3263L42.5856 38.2824C42.2886 38.4106 42.0747 38.6776 42.014 38.9953C41.9533 39.3133 42.0537 39.6405 42.2825 39.8694L47.6427 45.2297L45.2293 47.6424Z" fill="#0E0E0E"></path></svg>