<svg xmlns="http://www.w3.org/2000/svg" width="46" height="50" viewBox="0 0 46 50" fill="none"><path fill-rule="evenodd" clip-rule="evenodd" d="M13.0348 48.4847C12.2418 48.4847 11.5957 47.838 11.5957 47.0431C11.5957 46.2493 12.2418 45.6028 13.0348 45.6028C13.8279 45.6028 14.4803 46.2494 14.4803 47.0431C14.4803 47.8381 13.8279 48.4847 13.0348 48.4847ZM13.0348 1.51522C13.8279 1.51522 14.4803 2.16058 14.4803 2.95553C14.4803 3.7493 13.8279 4.39595 13.0348 4.39595C12.2418 4.39595 11.5957 3.7493 11.5957 2.95553C11.5957 2.16058 12.2418 1.51522 13.0348 1.51522ZM13.0348 44.0875C12.2097 44.0875 11.4679 44.4278 10.9306 44.9746L1.51581 39.6219V10.3767L10.9306 5.02529C11.4678 5.57147 12.2097 5.91117 13.0348 5.91117C14.6658 5.91117 15.9898 4.58465 15.9898 2.95564C15.9898 1.32535 14.6658 0.000117723 13.0348 0.000117723C11.0753 0.000117723 9.68614 1.87035 10.1759 3.70783L0.383752 9.27671C0.147117 9.41229 0 9.66365 0 9.9355V40.0633C0 40.3358 0.147117 40.5878 0.383752 40.7221L10.1759 46.291C9.68614 48.1285 11.0757 50 13.0348 50C14.6658 50 15.9898 48.6735 15.9898 47.0432C15.9898 45.4141 14.6657 44.0875 13.0348 44.0875ZM32.8493 48.4847C32.0562 48.4847 31.4102 47.838 31.4102 47.0431C31.4102 46.2493 32.0561 45.6028 32.8493 45.6028C33.6425 45.6028 34.2884 46.2494 34.2884 47.0431C34.2884 47.8381 33.6424 48.4847 32.8493 48.4847ZM32.8493 4.39595C32.0562 4.39595 31.4102 3.7493 31.4102 2.95553C31.4102 2.16058 32.0561 1.51522 32.8493 1.51522C33.6425 1.51522 34.2884 2.16058 34.2884 2.95553C34.2884 3.7493 33.6424 4.39595 32.8493 4.39595ZM45.5004 9.2766L35.7082 3.70772C36.1981 1.87094 34.8092 0 32.8493 0C31.2184 0 29.8944 1.32523 29.8944 2.95553C29.8944 4.58453 31.2183 5.91105 32.8493 5.91105C33.6744 5.91105 34.4227 5.57147 34.9599 5.02517L44.3747 10.3766V39.6219L34.9599 44.9746C34.4227 44.4277 33.6744 44.0875 32.8493 44.0875C31.2184 44.0875 29.8944 45.4141 29.8944 47.0431C29.8944 48.6734 31.2183 49.9999 32.8493 49.9999C34.8088 49.9999 36.1981 48.1278 35.7082 46.2909L45.5004 40.722C45.7435 40.5877 45.8905 40.3356 45.8905 40.0632V9.93538C45.8905 9.66353 45.7434 9.41217 45.5004 9.2766ZM22.9421 40.0171L7.85419 32.5634L13.8023 29.6264L22.6094 33.9763C22.8175 34.0816 23.0699 34.0799 23.2811 33.9763L32.0818 29.6264L38.03 32.5634L22.9421 40.0171ZM7.85419 24.9996L13.8023 22.0626L22.6094 26.4117C22.8198 26.5176 23.0681 26.5157 23.2811 26.4117L32.0818 22.0626L38.03 24.9996L22.9421 32.4521L7.85419 24.9996ZM7.85419 17.4352L22.9421 9.98261L38.03 17.4352L22.9421 24.8877L7.85419 17.4352ZM40.4988 32.5634C40.4988 32.8525 40.3325 33.1148 40.0766 33.2433L23.2811 41.5413C23.0687 41.6437 22.8193 41.6457 22.6094 41.54L5.8074 33.2433C5.24744 32.9644 5.24602 32.1632 5.8074 31.8847L12.0882 28.7815L5.8074 25.6789C5.24708 25.4004 5.2459 24.5995 5.8074 24.3197L12.0882 21.2171L5.8074 18.1138C5.24673 17.8359 5.24673 17.0346 5.8074 16.7567L22.6094 8.45868C22.8205 8.35385 23.07 8.35385 23.2811 8.45868L40.0766 16.7567C40.6373 17.0347 40.6373 17.8359 40.0766 18.1138L33.7958 21.2171L40.0766 24.3197C40.6381 24.5995 40.6369 25.4004 40.0766 25.6789L33.7958 28.7815L40.0766 31.8847C40.3325 32.0121 40.4988 32.2756 40.4988 32.5634Z" fill="#0E0E0E"></path></svg>