<svg xmlns="http://www.w3.org/2000/svg" width="1070" height="230" viewBox="0 0 1070 230" fill="none"><rect x="0.5" y="39.5" width="1069" height="152" rx="13.5" stroke="#EEEEEE"></rect><rect x="111.25" y="39.25" width="0.5" height="151.5" stroke="#EEEEEE" stroke-width="0.5"></rect><rect x="323.25" y="39.25" width="0.5" height="151.5" stroke="#EEEEEE" stroke-width="0.5"></rect><rect x="534.25" y="39.25" width="0.5" height="151.5" stroke="#EEEEEE" stroke-width="0.5"></rect><rect x="745.25" y="39.25" width="0.5" height="151.5" stroke="#EEEEEE" stroke-width="0.5"></rect><rect x="959.25" y="39.25" width="0.5" height="151.5" stroke="#EEEEEE" stroke-width="0.5"></rect><circle cx="959" cy="190" r="40" fill="#0061FE"></circle><path d="M949.3 186.125L959.603 179.562L949.3 173L939 179.562L949.3 186.125Z" fill="white"></path><path d="M969.904 186.125L980.204 179.562L969.904 173L959.604 179.562L969.904 186.125Z" fill="white"></path><path d="M959.603 192.687L949.3 186.125L939 192.687L949.3 199.25L959.603 192.687Z" fill="white"></path><path d="M969.904 199.25L980.204 192.687L969.904 186.125L959.604 192.687L969.904 199.25Z" fill="white"></path><path d="M969.903 201.437L959.603 194.875L949.301 201.437L959.603 208L969.903 201.437Z" fill="white"></path><circle cx="745" cy="190" r="40" fill="#00A5DE"></circle><g clip-path="url(#clip0_2032_2371)"><path fill-rule="evenodd" clip-rule="evenodd" d="M747.342 180.634C746.159 180.634 744.987 180.866 743.894 181.318C742.8 181.769 741.807 182.431 740.97 183.266C740.134 184.1 739.47 185.091 739.017 186.181C738.7 186.945 738.49 187.748 738.393 188.566C738.317 189.208 737.965 189.802 737.386 190.091L735.672 190.945C735.093 191.234 734.713 191.828 734.789 192.471C734.886 193.289 735.095 194.091 735.413 194.856C735.866 195.946 736.529 196.936 737.366 197.771C738.203 198.605 739.196 199.267 740.289 199.719C741.383 200.17 742.554 200.403 743.738 200.403C744.921 200.403 746.093 200.17 747.186 199.719C748.279 199.267 749.273 198.605 750.109 197.771C750.946 196.936 751.61 195.946 752.063 194.856C752.38 194.091 752.589 193.289 752.686 192.471C752.762 191.828 753.115 191.234 753.694 190.945L755.407 190.091C755.987 189.802 756.367 189.208 756.291 188.566C756.194 187.748 755.984 186.945 755.667 186.181C755.214 185.091 754.55 184.1 753.714 183.266C752.877 182.431 751.884 181.769 750.79 181.318C749.697 180.866 748.525 180.634 747.342 180.634ZM751.504 187.9C751.595 188.119 751.668 188.344 751.723 188.573C751.875 189.202 751.481 189.802 750.902 190.091L749.189 190.945C748.609 191.234 748.27 191.834 748.119 192.464C748.064 192.693 747.991 192.918 747.9 193.136C747.674 193.681 747.342 194.177 746.923 194.594C746.505 195.011 746.008 195.342 745.462 195.568C744.915 195.794 744.329 195.91 743.738 195.91C743.146 195.91 742.56 195.794 742.013 195.568C741.467 195.342 740.97 195.011 740.552 194.594C740.133 194.177 739.802 193.681 739.575 193.136C739.484 192.918 739.411 192.693 739.356 192.464C739.205 191.834 739.598 191.234 740.178 190.945L741.891 190.091C742.47 189.802 742.809 189.202 742.96 188.573C743.016 188.344 743.089 188.119 743.179 187.9C743.406 187.355 743.738 186.86 744.156 186.443C744.575 186.025 745.071 185.695 745.618 185.469C746.164 185.243 746.75 185.127 747.342 185.127C747.934 185.127 748.52 185.243 749.066 185.469C749.613 185.695 750.109 186.025 750.528 186.443C750.946 186.86 751.278 187.355 751.504 187.9Z" fill="white"></path><path fill-rule="evenodd" clip-rule="evenodd" d="M747.341 173.445C745.211 173.445 743.102 173.864 741.134 174.677C739.167 175.489 737.379 176.681 735.872 178.183C734.366 179.685 733.172 181.468 732.356 183.43C731.677 185.067 731.272 186.801 731.156 188.564C731.114 189.21 730.756 189.802 730.176 190.091L728.463 190.946C727.884 191.235 727.51 191.827 727.552 192.473C727.668 194.236 728.072 195.97 728.752 197.607C729.567 199.569 730.762 201.352 732.268 202.854C733.774 204.356 735.562 205.548 737.53 206.36C739.498 207.173 741.607 207.592 743.737 207.592C745.867 207.592 747.976 207.173 749.944 206.36C751.912 205.548 753.7 204.356 755.206 202.854C756.712 201.352 757.907 199.569 758.722 197.607C759.402 195.97 759.806 194.236 759.922 192.473C759.964 191.827 760.323 191.235 760.902 190.946L762.615 190.091C763.195 189.802 763.569 189.21 763.526 188.564C763.411 186.801 763.006 185.067 762.326 183.43C761.511 181.468 760.316 179.685 758.81 178.183C757.304 176.681 755.516 175.489 753.548 174.677C751.58 173.864 749.471 173.445 747.341 173.445ZM755.403 192.472C755.462 191.827 755.817 191.235 756.397 190.946L758.11 190.091C758.689 189.802 759.066 189.21 759.008 188.565C758.901 187.392 758.617 186.241 758.164 185.15C757.575 183.732 756.712 182.444 755.624 181.36C754.537 180.275 753.245 179.415 751.824 178.827C750.403 178.24 748.88 177.938 747.341 177.938C745.803 177.938 744.28 178.24 742.859 178.827C741.437 179.415 740.146 180.275 739.058 181.36C737.971 182.444 737.108 183.732 736.519 185.15C736.066 186.241 735.782 187.392 735.675 188.565C735.616 189.21 735.261 189.802 734.682 190.091L732.968 190.946C732.389 191.235 732.012 191.827 732.071 192.472C732.177 193.644 732.461 194.796 732.915 195.887C733.503 197.305 734.366 198.592 735.454 199.677C736.542 200.762 737.833 201.622 739.254 202.209C740.675 202.797 742.199 203.099 743.737 203.099C745.275 203.099 746.799 202.797 748.22 202.209C749.641 201.622 750.932 200.762 752.02 199.677C753.108 198.592 753.971 197.305 754.559 195.887C755.013 194.796 755.297 193.644 755.403 192.472Z" fill="white"></path><path d="M763.556 189.254H759.049C759.047 189.484 758.912 189.691 758.705 189.795L755.801 191.243C755.594 191.346 755.462 191.554 755.445 191.783H759.952C759.967 191.553 760.099 191.346 760.306 191.243L763.21 189.795C763.417 189.691 763.552 189.484 763.556 189.254Z" fill="white"></path><path d="M727.523 191.783H732.03C732.032 191.554 732.167 191.346 732.374 191.243L735.278 189.795C735.485 189.691 735.618 189.484 735.634 189.254H731.127C731.112 189.484 730.98 189.691 730.773 189.795L727.869 191.243C727.662 191.346 727.527 191.553 727.523 191.783Z" fill="white"></path><path d="M738.338 189.254C738.319 189.484 738.188 189.691 737.981 189.795L735.077 191.243C734.87 191.346 734.734 191.554 734.734 191.783H739.247C739.238 191.554 739.375 191.346 739.582 191.243L742.486 189.795C742.693 189.691 742.823 189.483 742.851 189.254H738.338Z" fill="white"></path><path d="M751.832 189.254C751.841 189.483 751.704 189.691 751.497 189.795L748.593 191.243C748.386 191.346 748.256 191.554 748.229 191.783H752.741C752.76 191.554 752.892 191.346 753.099 191.243L756.003 189.795C756.21 189.691 756.345 189.484 756.345 189.254H751.832Z" fill="white"></path></g><circle cx="535" cy="190" r="40" fill="#4353FF"></circle><g clip-path="url(#clip1_2032_2371)"><path d="M539 173H532V183.555C531.971 185.463 530.415 187 528.5 187H518V194H525.601C527.457 194 529.238 193.262 530.55 191.95L536.95 185.55C538.262 184.238 539 182.457 539 180.601V173Z" fill="white"></path><path d="M532 208H539V197.445C539.029 195.537 540.585 194 542.5 194H553V187H545.399C543.543 187 541.762 187.738 540.45 189.05L534.05 195.45C532.738 196.762 532 198.543 532 200.399V208Z" fill="white"></path></g><circle cx="324" cy="190" r="40" fill="#B9FB6A"></circle><g clip-path="url(#clip2_2032_2371)"><path fill-rule="evenodd" clip-rule="evenodd" d="M329.361 183.225C327.922 182.263 326.231 181.75 324.5 181.75V173C327.961 173 331.345 174.026 334.222 175.949C337.1 177.872 339.343 180.605 340.668 183.803C341.992 187.001 342.339 190.519 341.664 193.914C340.989 197.309 339.322 200.427 336.874 202.874C334.427 205.322 331.309 206.989 327.914 207.664C324.519 208.339 321.001 207.992 317.803 206.668C314.605 205.343 311.872 203.1 309.949 200.222C308.026 197.345 307 193.961 307 190.5H315.75C315.75 192.231 316.263 193.922 317.225 195.361C318.186 196.8 319.553 197.922 321.152 198.584C322.75 199.246 324.51 199.419 326.207 199.082C327.904 198.744 329.463 197.911 330.687 196.687C331.911 195.463 332.744 193.904 333.082 192.207C333.419 190.51 333.246 188.75 332.584 187.152C331.922 185.553 330.8 184.186 329.361 183.225Z" fill="#0E0E0E"></path><path fill-rule="evenodd" clip-rule="evenodd" d="M315.75 173C315.75 174.149 315.524 175.287 315.084 176.348C314.644 177.41 314 178.375 313.187 179.187C312.375 180 311.41 180.644 310.348 181.084C309.287 181.524 308.149 181.75 307 181.75L307 190.5C309.298 190.5 311.574 190.047 313.697 189.168C315.82 188.288 317.749 186.999 319.374 185.374C320.999 183.749 322.288 181.82 323.168 179.697C324.047 177.574 324.5 175.298 324.5 173L315.75 173Z" fill="#0E0E0E"></path></g><circle cx="111" cy="190" r="40" fill="#D500FF"></circle><path d="M113.272 201.098C113.304 197.885 112.489 195.273 111.453 195.263C110.417 195.253 109.552 197.849 109.52 201.061C109.489 204.274 110.303 206.886 111.339 206.896C112.376 206.906 113.241 204.31 113.272 201.098Z" fill="white"></path><path d="M107.263 200.368C109.026 197.683 109.754 195.045 108.887 194.476C108.021 193.907 105.89 195.623 104.127 198.309C102.363 200.994 101.636 203.632 102.502 204.201C103.368 204.77 105.499 203.054 107.263 200.368Z" fill="white"></path><path d="M102.595 196.515C105.531 195.21 107.569 193.384 107.148 192.437C106.727 191.49 104.006 191.781 101.07 193.087C98.1351 194.393 96.0969 196.219 96.518 197.165C96.9391 198.112 99.66 197.821 102.595 196.515Z" fill="white"></path><path d="M106.795 189.782C106.952 188.758 104.506 187.532 101.331 187.043C98.1557 186.554 95.4539 186.988 95.2963 188.012C95.1387 189.036 97.5849 190.263 100.76 190.751C103.935 191.24 106.637 190.806 106.795 189.782Z" fill="white"></path><path d="M107.935 187.343C108.621 186.566 107.226 184.212 104.819 182.085C102.412 179.957 99.9039 178.862 99.2177 179.638C98.5316 180.415 99.9268 182.769 102.334 184.896C104.741 187.024 107.249 188.119 107.935 187.343Z" fill="white"></path><path d="M110.206 185.917C111.203 185.635 111.302 182.9 110.427 179.809C109.553 176.718 108.035 174.44 107.038 174.722C106.041 175.004 105.942 177.739 106.817 180.83C107.692 183.922 109.209 186.199 110.206 185.917Z" fill="white"></path><path d="M116.37 180.927C117.306 177.854 117.26 175.117 116.269 174.816C115.278 174.514 113.716 176.761 112.781 179.834C111.845 182.908 111.89 185.644 112.881 185.946C113.873 186.247 115.434 184 116.37 180.927Z" fill="white"></path><path d="M120.775 185.079C123.224 182.999 124.665 180.673 123.994 179.883C123.323 179.094 120.794 180.14 118.346 182.22C115.898 184.3 114.457 186.626 115.127 187.416C115.798 188.206 118.327 187.159 120.775 185.079Z" fill="white"></path><path d="M122.233 190.957C125.417 190.531 127.887 189.353 127.75 188.326C127.612 187.299 124.919 186.812 121.735 187.238C118.551 187.664 116.081 188.841 116.218 189.868C116.356 190.895 119.048 191.383 122.233 190.957Z" fill="white"></path><path d="M126.341 197.459C126.781 196.521 124.779 194.655 121.87 193.292C118.961 191.928 116.246 191.584 115.807 192.522C115.367 193.46 117.369 195.326 120.278 196.689C123.187 198.052 125.901 198.397 126.341 197.459Z" fill="white"></path><path d="M120.221 204.381C121.099 203.829 120.423 201.177 118.713 198.458C117.003 195.738 114.906 193.98 114.029 194.532C113.152 195.083 113.827 197.735 115.537 200.455C117.247 203.175 119.344 204.932 120.221 204.381Z" fill="white"></path><circle cx="959" cy="40" r="40" fill="#21C6E3"></circle><g clip-path="url(#clip3_2032_2371)"><path d="M946.84 48.1905C948.137 49.0951 950.24 49.0951 951.537 48.1905C952.834 47.2858 952.834 45.819 951.537 44.9143C950.24 44.0097 948.137 44.0097 946.84 44.9143C945.543 45.819 945.543 47.2858 946.84 48.1905Z" fill="white"></path><path d="M960.301 35.905C962.246 37.262 965.401 37.262 967.346 35.905C969.292 34.548 969.292 32.3479 967.346 30.9909C965.401 29.6339 962.246 29.6339 960.301 30.9909C958.355 32.3479 958.355 34.548 960.301 35.905Z" fill="white"></path><path d="M953.155 42.0477C954.777 43.1785 957.405 43.1785 959.026 42.0477C960.648 40.9169 960.648 39.0834 959.026 37.9526C957.405 36.8218 954.777 36.8218 953.155 37.9526C951.534 39.0834 951.534 40.9169 953.155 42.0477Z" fill="white"></path><path d="M942.73 41.2287C943.702 41.9071 945.279 41.9071 946.252 41.2287C947.225 40.5502 947.225 39.4501 946.252 38.7716C945.279 38.0931 943.702 38.0931 942.73 38.7716C941.757 39.4501 941.757 40.5502 942.73 41.2287Z" fill="white"></path><path d="M953.155 28.9432C954.777 30.0741 957.405 30.0741 959.026 28.9432C960.648 27.8124 960.648 25.979 959.026 24.8481C957.405 23.7173 954.777 23.7173 953.155 24.8481C951.534 25.979 951.534 27.8124 953.155 28.9432Z" fill="white"></path><path d="M946.84 35.0859C948.137 35.9906 950.24 35.9906 951.537 35.0859C952.834 34.1813 952.834 32.7145 951.537 31.8098C950.24 30.9052 948.137 30.9052 946.84 31.8098C945.543 32.7145 945.543 34.1813 946.84 35.0859Z" fill="white"></path><path d="M953.155 55.1517C954.777 56.2825 957.405 56.2825 959.026 55.1517C960.648 54.0209 960.648 52.1874 959.026 51.0566C957.405 49.9258 954.777 49.9258 953.155 51.0566C951.534 52.1874 951.534 54.0209 953.155 55.1517Z" fill="white"></path><path d="M968.863 42.4573C970.809 43.8143 973.963 43.8143 975.909 42.4573C977.854 41.1003 977.854 38.9001 975.909 37.5432C973.963 36.1861 970.809 36.1861 968.863 37.5432C966.918 38.9001 966.918 41.1003 968.863 42.4573Z" fill="white"></path><path d="M960.301 49.009C962.246 50.366 965.401 50.366 967.346 49.009C969.292 47.652 969.292 45.4519 967.346 44.0949C965.401 42.7379 962.246 42.7379 960.301 44.0949C958.355 45.4519 958.355 47.652 960.301 49.009Z" fill="white"></path></g><circle cx="747" cy="40" r="40" fill="#9028FF"></circle><path d="M740.115 26.5898H756.872L744.552 44.8504H727.795L740.115 26.5898Z" fill="white"></path><path d="M740.848 46.5427L736.076 53.6155H753.628L765.948 35.355H752.994L745.445 46.5427H740.848Z" fill="white"></path><circle cx="535" cy="40" r="40" fill="#EB5424"></circle><g clip-path="url(#clip4_2032_2371)"><path d="M551.953 41.2749H545.88C540.576 41.2749 536.275 45.5752 536.275 50.8799V56.9528C544.648 56.332 551.332 49.6473 551.953 41.2749Z" fill="white"></path><path d="M533.725 56.9528V50.8799C533.725 45.5752 529.424 41.2749 524.12 41.2749H518.047C518.668 49.6473 525.352 56.332 533.725 56.9528Z" fill="white"></path><path d="M551.953 38.7248C551.332 30.3524 544.648 23.6677 536.275 23.0469V29.1198C536.275 34.4245 540.576 38.7248 545.88 38.7248H551.953Z" fill="white"></path><path d="M533.725 23.0469C525.352 23.6677 518.668 30.3524 518.047 38.7248H524.12C529.424 38.7248 533.725 34.4245 533.725 29.1198V23.0469Z" fill="white"></path><path d="M529.545 39.9996C531.902 38.8221 533.822 36.9015 535 34.5449C536.177 36.9015 538.098 38.8221 540.454 39.9996C538.098 41.177 536.177 43.0976 535 45.4542C533.822 43.0976 531.902 41.177 529.545 39.9996Z" fill="white"></path></g><circle cx="323" cy="40" r="40" fill="#0052CC"></circle><path d="M321.586 25.2832L340.816 44.4354V54.7172H331.842V48.1315L317.875 34.2209H314.974V54.7172H306V25.2832H321.586ZM331.842 35.4977V25.2832H340.816V35.4977H331.842Z" fill="white"></path><circle cx="111" cy="40" r="40" fill="#00A82D"></circle><path d="M110.865 32.2969C110.865 36.8273 107.193 40.5 102.662 40.5H94.459V32.2969C94.459 27.7664 98.1316 24.0938 102.662 24.0938C107.193 24.0938 110.865 27.7664 110.865 32.2969Z" fill="white"></path><path d="M110.865 48.7031C110.865 44.1727 114.538 40.5 119.068 40.5H127.271V48.7031C127.271 53.2336 123.599 56.9062 119.068 56.9062C114.538 56.9062 110.865 53.2336 110.865 48.7031Z" fill="white"></path><path d="M94.459 48.7031C94.459 53.2336 98.1316 56.9062 102.662 56.9062H110.865V48.7031C110.865 44.1727 107.193 40.5 102.662 40.5C98.1316 40.5 94.459 44.1727 94.459 48.7031Z" fill="white"></path><path d="M127.271 32.2969C127.271 27.7664 123.599 24.0938 119.068 24.0938H110.865V32.2969C110.865 36.8273 114.538 40.5 119.068 40.5C123.599 40.5 127.271 36.8273 127.271 32.2969Z" fill="white"></path><defs><clipPath id="clip0_2032_2371"><rect width="36.7073" height="35" fill="white" transform="translate(727 173)"></rect></clipPath><clipPath id="clip1_2032_2371"><rect width="35" height="35" fill="white" transform="translate(518 173)"></rect></clipPath><clipPath id="clip2_2032_2371"><rect width="35" height="35" fill="white" transform="translate(307 173)"></rect></clipPath><clipPath id="clip3_2032_2371"><rect width="35.3684" height="32" fill="white" transform="translate(942 24)"></rect></clipPath><clipPath id="clip4_2032_2371"><rect width="34" height="34" fill="white" transform="translate(518 23)"></rect></clipPath></defs></svg>