<svg xmlns="http://www.w3.org/2000/svg" width="11" height="15" viewBox="0 0 11 15" fill="none"><path d="M5.25 0.25C8.12109 0.25 10.5 2.60156 10.5 5.5C10.5 7.46875 9.84375 8.07031 6.34375 13.6484C5.82422 14.4688 4.64844 14.4688 4.12891 13.6484C0.628906 8.07031 0 7.46875 0 5.5C0 2.62891 2.32422 0.25 5.25 0.25ZM5.25 12.9375C8.75 7.30469 9.1875 7.00391 9.1875 5.5C9.1875 3.33984 7.41016 1.5625 5.25 1.5625C3.0625 1.5625 1.3125 3.33984 1.3125 5.5C1.3125 7.00391 1.75 7.35938 5.25 12.9375ZM3.0625 5.5C3.0625 4.29688 4.01953 3.3125 5.25 3.3125C6.45312 3.3125 7.4375 4.29688 7.4375 5.5C7.4375 6.73047 6.45312 7.6875 5.25 7.6875C4.01953 7.6875 3.0625 6.73047 3.0625 5.5Z" fill="#696969"></path></svg>