<svg xmlns="http://www.w3.org/2000/svg" width="32" height="35" viewBox="0 0 32 35" fill="none"><path d="M31.4363 18.4117H0.563719C0.252428 18.4117 4.19412e-05 18.6645 4.19412e-05 18.9762V21.0684C4.19412e-05 21.3019 0.143639 21.5113 0.361218 21.5952L2.64517 22.4757C2.96379 23.6979 3.44756 24.8667 4.08656 25.9578L3.09259 28.1991C2.99789 28.4125 3.04425 28.6622 3.20913 28.8274L6.16357 31.7863C6.32845 31.9514 6.57787 31.9977 6.79094 31.903L9.02973 30.9072C10.1196 31.5471 11.2862 32.0316 12.5056 32.3503L13.3849 34.6383C13.4686 34.8562 13.6777 35 13.911 35H18.089C18.3222 35 18.5313 34.8562 18.6151 34.6383L19.4942 32.351C20.7144 32.0321 21.8814 31.5475 22.9711 30.9074L25.2091 31.903C25.4222 31.9979 25.6716 31.9514 25.8365 31.7862L28.7908 28.8273C28.9557 28.6622 29.0021 28.4124 28.9074 28.1991L27.9131 25.9569C28.5521 24.8655 29.0358 23.6973 29.3541 22.4759L31.6388 21.5953C31.8563 21.5115 31.9999 21.302 31.9999 21.0684V18.9762C32 18.6645 31.7477 18.4117 31.4363 18.4117ZM23.0456 19.5407C22.7575 23.1809 19.7076 26.0548 16 26.0548C12.2924 26.0548 9.24252 23.1809 8.95434 19.5407H23.0456ZM30.8726 20.6808L28.6758 21.5277C28.5024 21.5945 28.3729 21.7428 28.3299 21.9238C28.0194 23.2305 27.5043 24.4746 26.799 25.6218C26.7016 25.7803 26.6884 25.9767 26.7639 26.1468L27.7201 28.3031L25.313 30.7138L23.1608 29.7564C22.9908 29.6807 22.7947 29.694 22.6364 29.7916C21.4912 30.4981 20.2486 31.014 18.943 31.3251C18.7622 31.3682 18.6141 31.4977 18.5474 31.6715L17.702 33.871H14.298L13.4524 31.6708C13.3857 31.4971 13.2376 31.3675 13.0569 31.3245C11.7522 31.0136 10.5099 30.4978 9.36434 29.7914C9.20602 29.6937 9.00979 29.6806 8.84005 29.7561L6.68709 30.7138L4.27997 28.3031L5.23583 26.1478C5.31129 25.9776 5.29811 25.7812 5.2006 25.6226C4.49544 24.476 3.98031 23.2314 3.66951 21.9235C3.62646 21.7425 3.4971 21.5943 3.32362 21.5275L1.1274 20.6808V19.5407H7.82423C8.11488 23.8041 11.6705 27.1839 16 27.1839C20.3295 27.1839 23.8851 23.8042 24.1757 19.5408H30.8726V20.6808ZM17.8594 6.99887C17.5481 6.99887 17.2957 7.25163 17.2957 7.56339V16.8842C17.2957 17.1959 17.5481 17.4487 17.8594 17.4487H20.4406C20.7519 17.4487 21.0043 17.1959 21.0043 16.8842V7.56339C21.0043 7.25163 20.7519 6.99887 20.4406 6.99887H17.8594ZM19.8769 16.3197H18.4231V8.1279H19.8769V16.3197ZM23.3572 8.76186C23.0459 8.76186 22.7935 9.01462 22.7935 9.32637V16.8841C22.7935 17.1959 23.0459 17.4486 23.3572 17.4486H25.9385C26.2498 17.4486 26.5022 17.1959 26.5022 16.8841V9.32637C26.5022 9.01462 26.2498 8.76186 25.9385 8.76186H23.3572ZM25.3748 16.3197H23.9209V9.89096H25.3748V16.3197ZM31.4363 3.60782H28.855C28.5437 3.60782 28.2914 3.86058 28.2914 4.17234V16.8841C28.2914 17.1959 28.5437 17.4486 28.855 17.4486H31.4363C31.7476 17.4486 32 17.1959 32 16.8841V4.17234C32 3.86058 31.7477 3.60782 31.4363 3.60782ZM30.8726 16.3196H29.4187V4.73685H30.8726V16.3196ZM12.3616 17.4486H14.9428C15.2541 17.4486 15.5065 17.1959 15.5065 16.8841V11.9248C15.5065 11.613 15.2541 11.3603 14.9428 11.3603H12.3616C12.0503 11.3603 11.7979 11.613 11.7979 11.9248V16.8841C11.7979 17.1959 12.0502 17.4486 12.3616 17.4486ZM12.9252 12.4893H14.3791V16.3196H12.9252V12.4893ZM13.2032 7.26243C13.0149 7.01411 13.0633 6.66002 13.3113 6.47147L18.8091 2.29074C18.9708 2.16767 19.1861 2.14135 19.3726 2.22165L24.5371 4.44571L28.1716 1.13432L27.5826 1.13644C27.5819 1.13644 27.5812 1.13644 27.5806 1.13644C27.2702 1.13644 27.0181 0.885091 27.0169 0.573972C27.0158 0.262147 27.2672 0.00846771 27.5785 0.00740924L29.6326 0H29.6347C29.8029 0 29.9624 0.0752923 30.0695 0.205343C30.1771 0.335958 30.2205 0.507923 30.1876 0.674032L29.7893 2.69211C29.7363 2.96103 29.5007 3.14718 29.237 3.14725C29.2007 3.14725 29.164 3.14365 29.1271 3.13638C28.8217 3.07598 28.623 2.77904 28.6834 2.47315L28.7505 2.13345L25.0273 5.52562C24.8638 5.67452 24.6284 5.71403 24.4254 5.62667L19.2292 3.38893L13.993 7.37068C13.8912 7.44823 13.7714 7.48562 13.6526 7.48562C13.4824 7.48562 13.3141 7.40871 13.2032 7.26243ZM0.563719 17.4487H10.738C10.898 17.4487 11.0504 17.3807 11.1573 17.2616C11.2641 17.1425 11.3155 16.9834 11.2985 16.8241C11.0654 14.643 9.62906 12.8665 7.69001 12.1231C8.36938 11.5439 8.80158 10.682 8.80158 9.72047C8.80158 7.98064 7.38816 6.56511 5.65091 6.56511C3.91358 6.56511 2.50016 7.98064 2.50016 9.72047C2.50016 10.682 2.93229 11.5438 3.61173 12.1231C1.67268 12.8665 0.236293 14.643 0.00321263 16.8241C-0.0138386 16.9835 0.0375265 17.1425 0.144414 17.2616C0.251301 17.3807 0.403776 17.4487 0.563719 17.4487ZM3.62759 9.7204C3.62759 8.60308 4.53525 7.69407 5.65098 7.69407C6.76664 7.69407 7.6743 8.60308 7.6743 9.7204C7.6743 10.8373 6.76741 11.746 5.65239 11.7467C5.65189 11.7467 5.6514 11.7467 5.65091 11.7467C5.65041 11.7467 5.64999 11.7467 5.6495 11.7467C4.53447 11.746 3.62759 10.8374 3.62759 9.7204ZM5.64943 12.8758H5.65091H5.65239C7.76991 12.8765 9.56853 14.3185 10.067 16.3197H1.23464C1.73321 14.3184 3.53183 12.8765 5.64943 12.8758Z" fill="#0E0E0E"></path></svg>