<svg xmlns="http://www.w3.org/2000/svg" id="Layer_1" data-name="Layer 1" viewBox="0 0 24 24"><path d="M24,10.323h0c-.087,3.27-1.156,5.868-3.179,7.72-2.607,2.389-6.083,2.863-7.81,2.943v2.014c0,.553-.447,1-1,1s-1-.447-1-1v-2.014c-1.726-.08-5.201-.554-7.809-2.943C1.181,16.19,.111,13.593,.024,10.323c-.017-.649,.252-1.277,.737-1.722,.49-.449,1.147-.664,1.803-.586,5.656,.654,8.255,4.435,9.447,7.569,1.192-3.134,3.792-6.916,9.448-7.569,.654-.075,1.311,.137,1.801,.585,.486,.445,.756,1.073,.739,1.723ZM9.196,4.718l1.804-1.735v6.017c0,.552,.447,1,1,1s1-.448,1-1V2.97l1.804,1.748c.194,.188,.445,.282,.696,.282,.261,0,.521-.102,.718-.304,.385-.396,.375-1.029-.021-1.414L13.414,.586c-.78-.779-2.049-.78-2.817-.011l-2.793,2.707c-.396,.385-.406,1.018-.021,1.414,.386,.397,1.018,.405,1.414,.022Z"></path></svg>