<svg xmlns="http://www.w3.org/2000/svg" width="40" height="40" viewBox="0 0 40 40" fill="none"><path d="M34.1918 32.1924C35.2268 31.4222 35.8986 30.1899 35.8986 28.8035C35.8986 26.4752 34.0044 24.5811 31.6761 24.5811C29.3479 24.5811 27.4537 26.4752 27.4537 28.8035C27.4537 30.1919 28.1275 31.4256 29.1649 32.1956C27.8904 32.6335 26.7414 33.4009 25.8424 34.4309C24.9575 33.4145 23.8133 32.6359 22.5157 32.1925C23.5507 31.4223 24.2224 30.19 24.2224 28.8036C24.2224 26.4753 22.3283 24.5812 20 24.5812C17.6718 24.5812 15.7776 26.4753 15.7776 28.8036C15.7776 30.19 16.4494 31.4223 17.4843 32.1925C16.1867 32.636 15.0425 33.4146 14.1576 34.431C13.2586 33.401 12.1096 32.6336 10.8352 32.1957C11.8726 31.4256 12.5464 30.192 12.5464 28.8036C12.5464 26.4753 10.6522 24.5812 8.32403 24.5812C5.99575 24.5812 4.10161 26.4753 4.10161 28.8036C4.10161 30.19 4.77341 31.4223 5.80833 32.1925C3.0338 33.1407 0.956612 35.6186 0.628565 38.6838C0.609659 38.8602 0.666534 39.0363 0.785128 39.1681C0.903722 39.3 1.07271 39.3752 1.25005 39.3752L38.75 39.3752C38.9274 39.3752 39.0964 39.2999 39.2149 39.168C39.3334 39.0361 39.3904 38.86 39.3715 38.6837C39.0434 35.6185 36.9663 33.1406 34.1918 32.1924ZM28.7037 28.8035C28.7037 27.1645 30.0371 25.8311 31.6761 25.8311C33.3152 25.8311 34.6486 27.1645 34.6486 28.8035C34.6486 30.442 33.316 31.775 31.6777 31.7759C31.6772 31.7759 31.6767 31.7759 31.6761 31.7759C31.6755 31.7759 31.6749 31.7759 31.6743 31.7759C30.0361 31.7749 28.7037 30.4419 28.7037 28.8035ZM17.0277 28.8035C17.0277 27.1645 18.3611 25.8311 20.0001 25.8311C21.6391 25.8311 22.9725 27.1645 22.9725 28.8035C22.9725 30.442 21.6399 31.7751 20.0017 31.7759C20.0011 31.7759 20.0006 31.7759 20 31.7759C19.9996 31.7759 19.999 31.7759 19.9985 31.7759C18.3602 31.775 17.0277 30.442 17.0277 28.8035ZM5.35169 28.8035C5.35169 27.1645 6.68505 25.8311 8.32411 25.8311C9.9631 25.8311 11.2965 27.1645 11.2965 28.8035C11.2965 30.442 9.96403 31.7749 8.32599 31.7759C8.32536 31.7759 8.32474 31.7759 8.32411 31.7759C8.32364 31.7759 8.3231 31.7759 8.32255 31.7759C6.68419 31.775 5.35169 30.442 5.35169 28.8035ZM8.32247 33.0259H8.32411C8.32474 33.0259 8.32536 33.0258 8.32591 33.0258C10.304 33.0263 12.1694 33.9324 13.3969 35.4688C12.9088 36.2664 12.5607 37.1621 12.3869 38.1251L1.98294 38.1252C2.622 35.1742 5.23442 33.0266 8.32247 33.0259ZM13.659 38.1252C14.298 35.1742 16.9104 33.0266 19.9985 33.0259H20.0001C20.0001 33.0259 20.0012 33.0259 20.0018 33.0259C23.0897 33.0266 25.7021 35.1743 26.3412 38.1252L13.659 38.1252ZM27.6132 38.1252C27.4393 37.1622 27.0913 36.2664 26.6031 35.4688C27.8306 33.9324 29.6961 33.0265 31.6743 33.0259C31.6749 33.0259 31.6755 33.0259 31.6761 33.0259H31.6778C34.7658 33.0267 37.3781 35.1743 38.0172 38.1252H27.6132V38.1252ZM1.25005 24.4763H5.12989C5.47505 24.4763 5.75489 24.1964 5.75489 23.8513V19.7277C5.75489 19.3825 5.47505 19.1027 5.12989 19.1027H1.25005C0.904894 19.1027 0.62505 19.3825 0.62505 19.7277V23.8513C0.62505 24.1964 0.904894 24.4763 1.25005 24.4763ZM1.87505 20.3527H4.50489V23.2263H1.87505V20.3527ZM9.63583 15.2597C9.29067 15.2597 9.01083 15.5395 9.01083 15.8847V23.8513C9.01083 24.1964 9.29067 24.4763 9.63583 24.4763H13.5156C13.8608 24.4763 14.1406 24.1964 14.1406 23.8513V15.8847C14.1406 15.5395 13.8608 15.2597 13.5156 15.2597H9.63583ZM12.8906 23.2263H10.2608V16.5097H12.8906V23.2263ZM21.9013 11.4166H18.0215C17.6764 11.4166 17.3965 11.6964 17.3965 12.0416V23.8513C17.3965 24.1964 17.6764 24.4763 18.0215 24.4763H21.9013C22.2465 24.4763 22.5263 24.1964 22.5263 23.8513V12.0416C22.5263 11.6964 22.2465 11.4166 21.9013 11.4166ZM21.2763 23.2263H18.6465V12.6666H21.2763V23.2263ZM26.4072 24.4763H30.287C30.6322 24.4763 30.912 24.1964 30.912 23.8513V14C31.4469 14.1359 32.0069 14.2084 32.5836 14.2084C36.3285 14.2084 39.3751 11.1616 39.3751 7.41681C39.375 3.67196 36.3284 0.625243 32.5835 0.625243C28.8386 0.625243 25.7919 3.67196 25.7919 7.41681C25.7919 7.68126 25.8076 7.94196 25.8372 8.1986H25.7822V23.8513C25.7822 24.1964 26.0621 24.4763 26.4072 24.4763ZM32.5835 1.87524C35.6392 1.87524 38.125 4.36118 38.125 7.41681C38.125 10.4724 35.6392 12.9584 32.5835 12.9584C29.5278 12.9584 27.0419 10.4724 27.0419 7.41681C27.042 4.36118 29.5279 1.87524 32.5835 1.87524ZM29.662 13.5471V23.2263H27.0322V11.3249C27.7014 12.2727 28.6068 13.0421 29.662 13.5471ZM1.82146 14.418C1.6488 14.1191 1.7513 13.7368 2.05021 13.5642L21.8165 2.15212L20.1625 1.86602C19.8223 1.8072 19.5943 1.48376 19.6531 1.14368C19.7119 0.803524 20.0358 0.575243 20.3754 0.634305L23.7301 1.21454C23.9129 1.2461 24.0722 1.35727 24.1648 1.5179C24.2576 1.67852 24.2742 1.87204 24.2102 2.0461L23.0353 5.24141C22.9423 5.49423 22.7031 5.65087 22.4486 5.65087C22.3769 5.65087 22.3041 5.63845 22.2329 5.61227C21.909 5.49321 21.7429 5.13391 21.862 4.81001L22.4413 3.23454L2.67521 14.6467C2.57677 14.7035 2.46927 14.7306 2.36333 14.7306C2.14724 14.7306 1.93724 14.6184 1.82146 14.418ZM29.9988 9.2268C29.9154 8.89188 30.1191 8.55266 30.454 8.46915C30.7888 8.38563 31.1282 8.58946 31.2117 8.92438C31.3822 9.60829 32.0935 9.83446 32.649 9.82196C33.1307 9.81048 33.5946 9.64063 33.8033 9.39923C33.9129 9.27235 33.9534 9.12501 33.9304 8.93563C33.8908 8.60907 33.691 8.20884 32.4878 8.01126C30.6519 7.70985 30.2231 6.7493 30.1866 5.99649C30.1363 4.96157 30.8475 4.09524 31.9584 3.83516V3.51454C31.9584 3.16938 32.2383 2.88954 32.5834 2.88954C32.9286 2.88954 33.2084 3.16938 33.2084 3.51454V3.82962C33.9297 3.98977 34.6164 4.44704 34.9751 5.30141C35.1088 5.6197 34.9591 5.98602 34.6408 6.11962C34.3231 6.25313 33.9564 6.1036 33.8226 5.78532C33.5336 5.09696 32.8266 4.9197 32.2542 5.0497C32.1118 5.08196 31.403 5.27649 31.4351 5.93579C31.4436 6.1111 31.4661 6.57665 32.6903 6.77766C34.2051 7.02641 35.0397 7.70165 35.1713 8.78477C35.237 9.32602 35.0909 9.82118 34.7487 10.2167C34.398 10.6222 33.8436 10.9065 33.2084 11.0189V11.3188C33.2084 11.6639 32.9286 11.9438 32.5834 11.9438C32.2383 11.9438 31.9584 11.6639 31.9584 11.3188V11.0086C30.9792 10.8081 30.2283 10.1467 29.9988 9.2268Z" fill="#0E0E0E"></path></svg>