<svg xmlns="http://www.w3.org/2000/svg" width="1345" height="272" viewBox="0 0 1345 272" fill="none"><mask id="path-1-outside-1_2032_4711" maskUnits="userSpaceOnUse" x="0" y="0" width="1345" height="272" fill="black"><rect fill="white" width="1345" height="272"></rect><path d="M106.643 270.2C90.0761 270.2 74.6761 267.167 60.4428 261.1C46.4428 255.033 34.3094 246.633 24.0428 235.9C14.0094 224.933 6.65944 212.217 1.99277 197.75L41.5428 180.6C47.8428 195.533 56.9428 207.317 68.8428 215.95C80.7428 224.35 94.1594 228.55 109.093 228.55C117.493 228.55 124.726 227.267 130.793 224.7C137.093 221.9 141.876 218.167 145.143 213.5C148.643 208.833 150.393 203.233 150.393 196.7C150.393 189 148.059 182.7 143.393 177.8C138.959 172.667 132.193 168.7 123.093 165.9L73.0428 149.8C52.7428 143.5 37.4594 134.05 27.1928 121.45C16.9261 108.85 11.7928 94.0333 11.7928 77C11.7928 62.0667 15.4094 48.8833 22.6428 37.45C30.1094 26.0167 40.3761 17.15 53.4428 10.85C66.7428 4.31666 81.9094 1.04999 98.9428 1.04999C114.576 1.04999 128.926 3.84999 141.993 9.44999C155.059 14.8167 166.259 22.4 175.593 32.2C185.159 41.7667 192.276 53.0833 196.943 66.15L157.743 83.65C152.609 70.5833 144.909 60.55 134.643 53.55C124.376 46.3167 112.476 42.7 98.9428 42.7C91.0094 42.7 84.0094 44.1 77.9428 46.9C71.8761 49.4667 67.0928 53.2 63.5928 58.1C60.3261 62.7667 58.6928 68.3667 58.6928 74.9C58.6928 82.1333 61.0261 88.55 65.6928 94.15C70.3594 99.5167 77.4761 103.717 87.0428 106.75L134.993 121.8C155.759 128.567 171.276 137.9 181.543 149.8C192.043 161.7 197.293 176.4 197.293 193.9C197.293 208.833 193.443 222.017 185.743 233.45C178.043 244.883 167.426 253.867 153.893 260.4C140.359 266.933 124.609 270.2 106.643 270.2ZM216.07 266L306.02 5.24998H367.62L457.57 266H405.77L387.22 210H286.42L267.52 266H216.07ZM300.07 168H373.57L330.17 38.15H343.47L300.07 168ZM576.272 270.2C559.705 270.2 544.305 267.167 530.072 261.1C516.072 255.033 503.938 246.633 493.672 235.9C483.638 224.933 476.288 212.217 471.622 197.75L511.172 180.6C517.472 195.533 526.572 207.317 538.472 215.95C550.372 224.35 563.788 228.55 578.722 228.55C587.122 228.55 594.355 227.267 600.422 224.7C606.722 221.9 611.505 218.167 614.772 213.5C618.272 208.833 620.022 203.233 620.022 196.7C620.022 189 617.688 182.7 613.022 177.8C608.588 172.667 601.822 168.7 592.722 165.9L542.672 149.8C522.372 143.5 507.088 134.05 496.822 121.45C486.555 108.85 481.422 94.0333 481.422 77C481.422 62.0667 485.038 48.8833 492.272 37.45C499.738 26.0167 510.005 17.15 523.072 10.85C536.372 4.31666 551.538 1.04999 568.572 1.04999C584.205 1.04999 598.555 3.84999 611.622 9.44999C624.688 14.8167 635.888 22.4 645.222 32.2C654.788 41.7667 661.905 53.0833 666.572 66.15L627.372 83.65C622.238 70.5833 614.538 60.55 604.272 53.55C594.005 46.3167 582.105 42.7 568.572 42.7C560.638 42.7 553.638 44.1 547.572 46.9C541.505 49.4667 536.722 53.2 533.222 58.1C529.955 62.7667 528.322 68.3667 528.322 74.9C528.322 82.1333 530.655 88.55 535.322 94.15C539.988 99.5167 547.105 103.717 556.672 106.75L604.622 121.8C625.388 128.567 640.905 137.9 651.172 149.8C661.672 161.7 666.922 176.4 666.922 193.9C666.922 208.833 663.072 222.017 655.372 233.45C647.672 244.883 637.055 253.867 623.522 260.4C609.988 266.933 594.238 270.2 576.272 270.2ZM709.783 266V5.24998H757.383V266H709.783ZM930.037 270.2C911.37 270.2 894.104 266.817 878.237 260.05C862.604 253.283 848.837 243.833 836.937 231.7C825.27 219.567 816.17 205.333 809.637 189C803.104 172.667 799.837 154.817 799.837 135.45C799.837 116.083 802.987 98.2333 809.287 81.9C815.82 65.3333 824.92 51.1 836.587 39.2C848.487 27.0667 862.37 17.7333 878.237 11.2C894.104 4.43332 911.37 1.04999 930.037 1.04999C948.704 1.04999 965.387 4.19999 980.087 10.5C995.02 16.8 1007.62 25.2 1017.89 35.7C1028.15 45.9667 1035.5 57.2833 1039.94 69.65L997.237 89.6C992.337 76.5333 984.054 65.8 972.387 57.4C960.72 48.7667 946.604 44.45 930.037 44.45C913.704 44.45 899.237 48.3 886.637 56C874.27 63.7 864.587 74.3167 857.587 87.85C850.82 101.383 847.437 117.25 847.437 135.45C847.437 153.65 850.82 169.633 857.587 183.4C864.587 196.933 874.27 207.55 886.637 215.25C899.237 222.95 913.704 226.8 930.037 226.8C946.604 226.8 960.72 222.6 972.387 214.2C984.054 205.567 992.337 194.717 997.237 181.65L1039.94 201.6C1035.5 213.967 1028.15 225.4 1017.89 235.9C1007.62 246.167 995.02 254.45 980.087 260.75C965.387 267.05 948.704 270.2 930.037 270.2ZM1207.03 270.2C1187.9 270.2 1170.05 266.817 1153.48 260.05C1136.92 253.283 1122.45 243.833 1110.08 231.7C1097.72 219.567 1088.03 205.333 1081.03 189C1074.27 172.433 1070.88 154.583 1070.88 135.45C1070.88 116.083 1074.27 98.2333 1081.03 81.9C1087.8 65.5667 1097.37 51.3333 1109.73 39.2C1122.1 27.0667 1136.57 17.7333 1153.13 11.2C1169.7 4.43332 1187.67 1.04999 1207.03 1.04999C1226.4 1.04999 1244.37 4.43332 1260.93 11.2C1277.5 17.9666 1291.97 27.4167 1304.33 39.55C1316.7 51.45 1326.27 65.5667 1333.03 81.9C1340.03 98.2333 1343.53 116.083 1343.53 135.45C1343.53 154.583 1340.03 172.433 1333.03 189C1326.03 205.333 1316.35 219.567 1303.98 231.7C1291.62 243.833 1277.15 253.283 1260.58 260.05C1244.25 266.817 1226.4 270.2 1207.03 270.2ZM1207.03 226.8C1219.87 226.8 1231.65 224.583 1242.38 220.15C1253.12 215.483 1262.45 209.067 1270.38 200.9C1278.55 192.733 1284.73 183.05 1288.93 171.85C1293.37 160.65 1295.58 148.517 1295.58 135.45C1295.58 122.383 1293.37 110.367 1288.93 99.4C1284.73 88.2 1278.55 78.5167 1270.38 70.35C1262.45 61.95 1253.12 55.5333 1242.38 51.1C1231.65 46.6667 1219.87 44.45 1207.03 44.45C1194.43 44.45 1182.77 46.6667 1172.03 51.1C1161.3 55.5333 1151.85 61.95 1143.68 70.35C1135.75 78.5167 1129.57 88.2 1125.13 99.4C1120.7 110.367 1118.48 122.383 1118.48 135.45C1118.48 148.517 1120.7 160.65 1125.13 171.85C1129.57 183.05 1135.75 192.733 1143.68 200.9C1151.85 209.067 1161.3 215.483 1172.03 220.15C1182.77 224.583 1194.43 226.8 1207.03 226.8Z"></path></mask><path d="M60.4428 261.1L60.0452 262.018L60.0507 262.02L60.4428 261.1ZM24.0428 235.9L23.305 236.575L23.3125 236.583L23.3201 236.591L24.0428 235.9ZM1.99277 197.75L1.59494 196.833L0.762517 197.194L1.04107 198.057L1.99277 197.75ZM41.5428 180.6L42.4641 180.211L42.0716 179.281L41.1449 179.683L41.5428 180.6ZM68.8428 215.95L68.2555 216.759L68.2661 216.767L68.8428 215.95ZM130.793 224.7L131.182 225.621L131.191 225.617L131.199 225.614L130.793 224.7ZM145.143 213.5L144.343 212.9L144.333 212.913L144.324 212.927L145.143 213.5ZM143.393 177.8L142.636 178.454L142.652 178.472L142.669 178.49L143.393 177.8ZM123.093 165.9L122.787 166.852L122.799 166.856L123.093 165.9ZM73.0428 149.8L73.349 148.848L73.3392 148.845L73.0428 149.8ZM27.1928 121.45L27.968 120.818L27.968 120.818L27.1928 121.45ZM22.6428 37.45L21.8055 36.9032L21.8016 36.9092L21.7977 36.9153L22.6428 37.45ZM53.4428 10.85L53.8771 11.7508L53.8837 11.7475L53.4428 10.85ZM141.993 9.44999L141.599 10.3691L141.606 10.3721L141.613 10.375L141.993 9.44999ZM175.593 32.2L174.869 32.8896L174.877 32.8985L174.886 32.9071L175.593 32.2ZM196.943 66.15L197.35 67.0631L198.196 66.6857L197.885 65.8137L196.943 66.15ZM157.743 83.65L156.812 84.0156L157.195 84.9898L158.15 84.5631L157.743 83.65ZM134.643 53.55L134.067 54.3675L134.073 54.3719L134.079 54.3762L134.643 53.55ZM77.9428 46.9L78.3324 47.821L78.3472 47.8147L78.3618 47.8079L77.9428 46.9ZM63.5928 58.1L62.779 57.5187L62.7735 57.5265L63.5928 58.1ZM65.6928 94.15L64.9246 94.7902L64.9313 94.7982L64.9382 94.8062L65.6928 94.15ZM87.0428 106.75L86.7405 107.703L86.7433 107.704L87.0428 106.75ZM134.993 121.8L135.303 120.849L135.292 120.846L134.993 121.8ZM181.543 149.8L180.786 150.453L180.793 150.462L181.543 149.8ZM185.743 233.45L186.572 234.009L186.572 234.009L185.743 233.45ZM153.893 260.4L154.328 261.301L154.328 261.301L153.893 260.4ZM106.643 270.2V269.2C90.2012 269.2 74.9357 266.19 60.8349 260.18L60.4428 261.1L60.0507 262.02C74.4166 268.143 89.951 271.2 106.643 271.2V270.2ZM60.4428 261.1L60.8404 260.182C46.9593 254.167 34.9374 245.843 24.7654 235.209L24.0428 235.9L23.3201 236.591C33.6815 247.424 45.9262 255.899 60.0452 262.018L60.4428 261.1ZM24.0428 235.9L24.7806 235.225C14.8464 224.367 7.56811 211.776 2.94448 197.443L1.99277 197.75L1.04107 198.057C5.75077 212.657 13.1725 225.5 23.305 236.575L24.0428 235.9ZM1.99277 197.75L2.39061 198.667L41.9406 181.517L41.5428 180.6L41.1449 179.683L1.59494 196.833L1.99277 197.75ZM41.5428 180.6L40.6214 180.989C46.9848 196.072 56.193 208.008 68.2555 216.759L68.8428 215.95L69.43 215.141C57.6925 206.625 48.7007 194.994 42.4641 180.211L41.5428 180.6ZM68.8428 215.95L68.2661 216.767C80.3393 225.289 93.9585 229.55 109.093 229.55V228.55V227.55C94.3604 227.55 81.1463 223.411 69.4195 215.133L68.8428 215.95ZM109.093 228.55V229.55C117.591 229.55 124.964 228.252 131.182 225.621L130.793 224.7L130.403 223.779C124.489 226.281 117.394 227.55 109.093 227.55V228.55ZM130.793 224.7L131.199 225.614C137.63 222.756 142.571 218.918 145.962 214.073L145.143 213.5L144.324 212.927C141.181 217.416 136.556 221.044 130.387 223.786L130.793 224.7ZM145.143 213.5L145.943 214.1C149.588 209.24 151.393 203.422 151.393 196.7H150.393H149.393C149.393 203.044 147.698 208.427 144.343 212.9L145.143 213.5ZM150.393 196.7H151.393C151.393 188.781 148.985 182.222 144.117 177.11L143.393 177.8L142.669 178.49C147.133 183.178 149.393 189.219 149.393 196.7H150.393ZM143.393 177.8L144.15 177.146C139.553 171.824 132.597 167.778 123.387 164.944L123.093 165.9L122.799 166.856C131.788 169.622 138.365 173.509 142.636 178.454L143.393 177.8ZM123.093 165.9L123.399 164.948L73.349 148.848L73.0428 149.8L72.7366 150.752L122.787 166.852L123.093 165.9ZM73.0428 149.8L73.3392 148.845C53.1701 142.586 38.0773 133.225 27.968 120.818L27.1928 121.45L26.4175 122.082C36.8415 134.875 52.3155 144.414 72.7464 150.755L73.0428 149.8ZM27.1928 121.45L27.968 120.818C17.8541 108.406 12.7928 93.8151 12.7928 77H11.7928H10.7928C10.7928 94.2515 15.9981 109.294 26.4175 122.082L27.1928 121.45ZM11.7928 77H12.7928C12.7928 62.2356 16.3661 49.2416 23.4879 37.9846L22.6428 37.45L21.7977 36.9153C14.4528 48.525 10.7928 61.8977 10.7928 77H11.7928ZM22.6428 37.45L23.48 37.9968C30.8409 26.7255 40.9638 17.9768 53.8771 11.7508L53.4428 10.85L53.0085 9.94922C39.7884 16.3232 29.378 25.3078 21.8055 36.9032L22.6428 37.45ZM53.4428 10.85L53.8837 11.7475C67.0273 5.29102 82.0394 2.04999 98.9428 2.04999V1.04999V0.0499898C81.7795 0.0499898 66.4582 3.34229 53.0019 9.95243L53.4428 10.85ZM98.9428 1.04999V2.04999C114.454 2.04999 128.669 4.82758 141.599 10.3691L141.993 9.44999L142.387 8.53084C129.184 2.8724 114.698 0.0499898 98.9428 0.0499898V1.04999ZM141.993 9.44999L141.613 10.375C154.555 15.6907 165.636 23.1959 174.869 32.8896L175.593 32.2L176.317 31.5103C166.882 21.6041 155.564 13.9426 142.373 8.52497L141.993 9.44999ZM175.593 32.2L174.886 32.9071C184.345 42.3663 191.383 53.5554 196.001 66.4863L196.943 66.15L197.885 65.8137C193.169 52.6112 185.974 41.167 176.3 31.4929L175.593 32.2ZM196.943 66.15L196.535 65.2368L157.335 82.7369L157.743 83.65L158.15 84.5631L197.35 67.0631L196.943 66.15ZM157.743 83.65L158.674 83.2843C153.477 70.0559 145.66 59.8512 135.206 52.7238L134.643 53.55L134.079 54.3762C144.159 61.2488 151.742 71.1108 156.812 84.0156L157.743 83.65ZM134.643 53.55L135.219 52.7325C124.77 45.3711 112.665 41.7 98.9428 41.7V42.7V43.7C112.287 43.7 123.982 47.2623 134.067 54.3675L134.643 53.55ZM98.9428 42.7V41.7C90.8915 41.7 83.7441 43.1211 77.5237 45.992L77.9428 46.9L78.3618 47.8079C84.2748 45.0789 91.1274 43.7 98.9428 43.7V42.7ZM77.9428 46.9L77.5531 45.979C71.333 48.6106 66.3963 52.4546 62.779 57.5187L63.5928 58.1L64.4065 58.6812C67.7892 53.9454 72.4192 50.3227 78.3324 47.821L77.9428 46.9ZM63.5928 58.1L62.7735 57.5265C59.3725 62.3851 57.6928 68.1927 57.6928 74.9H58.6928H59.6928C59.6928 68.5407 61.2797 63.1482 64.412 58.6734L63.5928 58.1ZM58.6928 74.9H57.6928C57.6928 82.3692 60.1094 89.012 64.9246 94.7902L65.6928 94.15L66.461 93.5098C61.9428 88.088 59.6928 81.8974 59.6928 74.9H58.6928ZM65.6928 94.15L64.9382 94.8062C69.7653 100.357 77.0672 104.636 86.7405 107.703L87.0428 106.75L87.345 105.797C77.885 102.797 70.9536 98.676 66.4474 93.4938L65.6928 94.15ZM87.0428 106.75L86.7433 107.704L134.693 122.754L134.993 121.8L135.292 120.846L87.3422 105.796L87.0428 106.75ZM134.993 121.8L134.683 122.751C155.341 129.482 170.676 138.735 180.786 150.453L181.543 149.8L182.3 149.147C171.876 137.065 156.178 127.651 135.303 120.849L134.993 121.8ZM181.543 149.8L180.793 150.462C191.115 162.16 196.293 176.617 196.293 193.9H197.293H198.293C198.293 176.183 192.971 161.24 182.293 149.138L181.543 149.8ZM197.293 193.9H196.293C196.293 208.652 192.493 221.637 184.913 232.891L185.743 233.45L186.572 234.009C194.393 222.396 198.293 209.015 198.293 193.9H197.293ZM185.743 233.45L184.913 232.891C177.321 244.165 166.847 253.036 153.458 259.499L153.893 260.4L154.328 261.301C168.006 254.697 178.764 245.602 186.572 234.009L185.743 233.45ZM153.893 260.4L153.458 259.499C140.084 265.956 124.488 269.2 106.643 269.2V270.2V271.2C124.731 271.2 140.635 267.911 154.328 261.301L153.893 260.4ZM216.07 266L215.124 265.674L214.667 267H216.07V266ZM306.02 5.24998V4.24998H305.307L305.074 4.92387L306.02 5.24998ZM367.62 5.24998L368.565 4.92387L368.333 4.24998H367.62V5.24998ZM457.57 266V267H458.973L458.515 265.674L457.57 266ZM405.77 266L404.82 266.314L405.048 267H405.77V266ZM387.22 210L388.169 209.686L387.942 209H387.22V210ZM286.42 210V209H285.702L285.472 209.68L286.42 210ZM267.52 266V267H268.238L268.467 266.32L267.52 266ZM300.07 168L299.121 167.683L298.681 169H300.07V168ZM373.57 168V169H374.958L374.518 167.683L373.57 168ZM330.17 38.15V37.15H328.781L329.221 38.467L330.17 38.15ZM343.47 38.15L344.418 38.467L344.858 37.15H343.47V38.15ZM216.07 266L217.015 266.326L306.965 5.57609L306.02 5.24998L305.074 4.92387L215.124 265.674L216.07 266ZM306.02 5.24998V6.24998H367.62V5.24998V4.24998H306.02V5.24998ZM367.62 5.24998L366.674 5.57609L456.624 266.326L457.57 266L458.515 265.674L368.565 4.92387L367.62 5.24998ZM457.57 266V265H405.77V266V267H457.57V266ZM405.77 266L406.719 265.686L388.169 209.686L387.22 210L386.27 210.314L404.82 266.314L405.77 266ZM387.22 210V209H286.42V210V211H387.22V210ZM286.42 210L285.472 209.68L266.572 265.68L267.52 266L268.467 266.32L287.367 210.32L286.42 210ZM267.52 266V265H216.07V266V267H267.52V266ZM300.07 168V169H373.57V168V167H300.07V168ZM373.57 168L374.518 167.683L331.118 37.833L330.17 38.15L329.221 38.467L372.621 168.317L373.57 168ZM330.17 38.15V39.15H343.47V38.15V37.15H330.17V38.15ZM343.47 38.15L342.521 37.833L299.121 167.683L300.07 168L301.018 168.317L344.418 38.467L343.47 38.15ZM530.072 261.1L529.674 262.018L529.68 262.02L530.072 261.1ZM493.672 235.9L492.934 236.575L492.941 236.583L492.949 236.591L493.672 235.9ZM471.622 197.75L471.224 196.833L470.391 197.194L470.67 198.057L471.622 197.75ZM511.172 180.6L512.093 180.211L511.7 179.281L510.774 179.683L511.172 180.6ZM538.472 215.95L537.884 216.759L537.895 216.767L538.472 215.95ZM600.422 224.7L600.811 225.621L600.82 225.617L600.828 225.614L600.422 224.7ZM614.772 213.5L613.972 212.9L613.962 212.913L613.952 212.927L614.772 213.5ZM613.022 177.8L612.265 178.454L612.281 178.472L612.298 178.49L613.022 177.8ZM592.722 165.9L592.415 166.852L592.428 166.856L592.722 165.9ZM542.672 149.8L542.978 148.848L542.968 148.845L542.672 149.8ZM496.822 121.45L497.597 120.818L497.597 120.818L496.822 121.45ZM492.272 37.45L491.434 36.9032L491.43 36.9092L491.427 36.9153L492.272 37.45ZM523.072 10.85L523.506 11.7508L523.513 11.7475L523.072 10.85ZM611.622 9.44999L611.228 10.3691L611.235 10.3721L611.242 10.375L611.622 9.44999ZM645.222 32.2L644.498 32.8896L644.506 32.8985L644.515 32.9071L645.222 32.2ZM666.572 66.15L666.979 67.0631L667.825 66.6857L667.513 65.8137L666.572 66.15ZM627.372 83.65L626.441 84.0156L626.824 84.9898L627.779 84.5631L627.372 83.65ZM604.272 53.55L603.696 54.3675L603.702 54.3719L603.708 54.3762L604.272 53.55ZM547.572 46.9L547.961 47.821L547.976 47.8147L547.991 47.8079L547.572 46.9ZM533.222 58.1L532.408 57.5187L532.402 57.5265L533.222 58.1ZM535.322 94.15L534.553 94.7902L534.56 94.7982L534.567 94.8062L535.322 94.15ZM556.672 106.75L556.369 107.703L556.372 107.704L556.672 106.75ZM604.622 121.8L604.932 120.849L604.921 120.846L604.622 121.8ZM651.172 149.8L650.414 150.453L650.422 150.462L651.172 149.8ZM655.372 233.45L656.201 234.009L656.201 234.009L655.372 233.45ZM623.522 260.4L623.956 261.301L623.956 261.301L623.522 260.4ZM576.272 270.2V269.2C559.83 269.2 544.565 266.19 530.464 260.18L530.072 261.1L529.68 262.02C544.045 268.143 559.58 271.2 576.272 271.2V270.2ZM530.072 261.1L530.469 260.182C516.588 254.167 504.566 245.843 494.394 235.209L493.672 235.9L492.949 236.591C503.31 247.424 515.555 255.899 529.674 262.018L530.072 261.1ZM493.672 235.9L494.409 235.225C484.475 224.367 477.197 211.776 472.573 197.443L471.622 197.75L470.67 198.057C475.38 212.657 482.801 225.5 492.934 236.575L493.672 235.9ZM471.622 197.75L472.02 198.667L511.57 181.517L511.172 180.6L510.774 179.683L471.224 196.833L471.622 197.75ZM511.172 180.6L510.25 180.989C516.614 196.072 525.822 208.008 537.884 216.759L538.472 215.95L539.059 215.141C527.321 206.625 518.33 194.994 512.093 180.211L511.172 180.6ZM538.472 215.95L537.895 216.767C549.968 225.289 563.587 229.55 578.722 229.55V228.55V227.55C563.989 227.55 550.775 223.411 539.048 215.133L538.472 215.95ZM578.722 228.55V229.55C587.22 229.55 594.593 228.252 600.811 225.621L600.422 224.7L600.032 223.779C594.118 226.281 587.023 227.55 578.722 227.55V228.55ZM600.422 224.7L600.828 225.614C607.259 222.756 612.2 218.918 615.591 214.073L614.772 213.5L613.952 212.927C610.81 217.416 606.184 221.044 600.016 223.786L600.422 224.7ZM614.772 213.5L615.572 214.1C619.217 209.24 621.022 203.422 621.022 196.7H620.022H619.022C619.022 203.044 617.326 208.427 613.972 212.9L614.772 213.5ZM620.022 196.7H621.022C621.022 188.781 618.614 182.222 613.746 177.11L613.022 177.8L612.298 178.49C616.762 183.178 619.022 189.219 619.022 196.7H620.022ZM613.022 177.8L613.779 177.146C609.182 171.824 602.226 167.778 593.016 164.944L592.722 165.9L592.428 166.856C601.417 169.622 607.994 173.509 612.265 178.454L613.022 177.8ZM592.722 165.9L593.028 164.948L542.978 148.848L542.672 149.8L542.365 150.752L592.415 166.852L592.722 165.9ZM542.672 149.8L542.968 148.845C522.799 142.586 507.706 133.225 497.597 120.818L496.822 121.45L496.046 122.082C506.47 134.875 521.944 144.414 542.375 150.755L542.672 149.8ZM496.822 121.45L497.597 120.818C487.483 108.406 482.422 93.8151 482.422 77H481.422H480.422C480.422 94.2515 485.627 109.294 496.046 122.082L496.822 121.45ZM481.422 77H482.422C482.422 62.2356 485.995 49.2416 493.117 37.9846L492.272 37.45L491.427 36.9153C484.082 48.525 480.422 61.8977 480.422 77H481.422ZM492.272 37.45L493.109 37.9968C500.47 26.7255 510.593 17.9768 523.506 11.7508L523.072 10.85L522.637 9.94922C509.417 16.3232 499.007 25.3078 491.434 36.9032L492.272 37.45ZM523.072 10.85L523.513 11.7475C536.656 5.29102 551.668 2.04999 568.572 2.04999V1.04999V0.0499898C551.408 0.0499898 536.087 3.34229 522.631 9.95243L523.072 10.85ZM568.572 1.04999V2.04999C584.083 2.04999 598.297 4.82758 611.228 10.3691L611.622 9.44999L612.016 8.53084C598.813 2.8724 584.327 0.0499898 568.572 0.0499898V1.04999ZM611.622 9.44999L611.242 10.375C624.184 15.6907 635.265 23.1959 644.498 32.8896L645.222 32.2L645.946 31.5103C636.511 21.6041 625.192 13.9426 612.002 8.52497L611.622 9.44999ZM645.222 32.2L644.515 32.9071C653.974 42.3663 661.012 53.5554 665.63 66.4863L666.572 66.15L667.513 65.8137C662.798 52.6112 655.603 41.167 645.929 31.4929L645.222 32.2ZM666.572 66.15L666.164 65.2368L626.964 82.7369L627.372 83.65L627.779 84.5631L666.979 67.0631L666.572 66.15ZM627.372 83.65L628.302 83.2843C623.106 70.0559 615.289 59.8512 604.835 52.7238L604.272 53.55L603.708 54.3762C613.788 61.2488 621.371 71.1108 626.441 84.0156L627.372 83.65ZM604.272 53.55L604.848 52.7325C594.399 45.3711 582.294 41.7 568.572 41.7V42.7V43.7C581.916 43.7 593.611 47.2623 603.696 54.3675L604.272 53.55ZM568.572 42.7V41.7C560.52 41.7 553.373 43.1211 547.153 45.992L547.572 46.9L547.991 47.8079C553.904 45.0789 560.756 43.7 568.572 43.7V42.7ZM547.572 46.9L547.182 45.979C540.962 48.6106 536.025 52.4546 532.408 57.5187L533.222 58.1L534.035 58.6812C537.418 53.9454 542.048 50.3227 547.961 47.821L547.572 46.9ZM533.222 58.1L532.402 57.5265C529.001 62.3851 527.322 68.1927 527.322 74.9H528.322H529.322C529.322 68.5407 530.909 63.1482 534.041 58.6734L533.222 58.1ZM528.322 74.9H527.322C527.322 82.3692 529.738 89.012 534.553 94.7902L535.322 94.15L536.09 93.5098C531.572 88.088 529.322 81.8974 529.322 74.9H528.322ZM535.322 94.15L534.567 94.8062C539.394 100.357 546.696 104.636 556.369 107.703L556.672 106.75L556.974 105.797C547.514 102.797 540.583 98.676 536.076 93.4938L535.322 94.15ZM556.672 106.75L556.372 107.704L604.322 122.754L604.622 121.8L604.921 120.846L556.971 105.796L556.672 106.75ZM604.622 121.8L604.312 122.751C624.97 129.482 640.305 138.735 650.415 150.453L651.172 149.8L651.929 149.147C641.505 137.065 625.807 127.651 604.932 120.849L604.622 121.8ZM651.172 149.8L650.422 150.462C660.744 162.16 665.922 176.617 665.922 193.9H666.922H667.922C667.922 176.183 662.6 161.24 651.922 149.138L651.172 149.8ZM666.922 193.9H665.922C665.922 208.652 662.122 221.637 654.542 232.891L655.372 233.45L656.201 234.009C664.022 222.396 667.922 209.015 667.922 193.9H666.922ZM655.372 233.45L654.542 232.891C646.95 244.165 636.476 253.036 623.087 259.499L623.522 260.4L623.956 261.301C637.634 254.697 648.393 245.602 656.201 234.009L655.372 233.45ZM623.522 260.4L623.087 259.499C609.713 265.956 594.117 269.2 576.272 269.2V270.2V271.2C594.36 271.2 610.264 267.911 623.956 261.301L623.522 260.4ZM709.783 266H708.783V267H709.783V266ZM709.783 5.24998V4.24998H708.783V5.24998H709.783ZM757.383 5.24998H758.383V4.24998H757.383V5.24998ZM757.383 266V267H758.383V266H757.383ZM709.783 266H710.783V5.24998H709.783H708.783V266H709.783ZM709.783 5.24998V6.24998H757.383V5.24998V4.24998H709.783V5.24998ZM757.383 5.24998H756.383V266H757.383H758.383V5.24998H757.383ZM757.383 266V265H709.783V266V267H757.383V266ZM878.237 260.05L877.84 260.968L877.845 260.97L878.237 260.05ZM836.937 231.7L836.216 232.393L836.223 232.4L836.937 231.7ZM809.637 189L808.708 189.371L808.708 189.371L809.637 189ZM809.287 81.9L808.357 81.5331L808.354 81.5401L809.287 81.9ZM836.587 39.2L835.873 38.4998L835.873 38.4999L836.587 39.2ZM878.237 11.2L878.618 12.1247L878.629 12.1198L878.237 11.2ZM980.087 10.5L979.693 11.4192L979.698 11.4214L980.087 10.5ZM1017.89 35.7L1017.17 36.3991L1017.18 36.4071L1017.89 35.7ZM1039.94 69.65L1040.36 70.556L1041.19 70.1703L1040.88 69.3125L1039.94 69.65ZM997.237 89.6L996.301 89.9511L996.68 90.9638L997.66 90.506L997.237 89.6ZM972.387 57.4L971.792 58.2039L971.803 58.2115L972.387 57.4ZM886.637 56L886.115 55.1467L886.108 55.1511L886.637 56ZM857.587 87.85L856.699 87.3905L856.692 87.4028L857.587 87.85ZM857.587 183.4L856.689 183.841L856.694 183.85L856.699 183.859L857.587 183.4ZM886.637 215.25L886.108 216.099L886.115 216.103L886.637 215.25ZM972.387 214.2L972.971 215.012L972.982 215.004L972.387 214.2ZM997.237 181.65L997.66 180.744L996.68 180.286L996.301 181.299L997.237 181.65ZM1039.94 201.6L1040.88 201.937L1041.19 201.08L1040.36 200.694L1039.94 201.6ZM1017.89 235.9L1018.59 236.607L1018.6 236.599L1017.89 235.9ZM980.087 260.75L979.698 259.829L979.693 259.831L980.087 260.75ZM930.037 270.2V269.2C911.494 269.2 894.362 265.84 878.629 259.13L878.237 260.05L877.845 260.97C893.845 267.794 911.247 271.2 930.037 271.2V270.2ZM878.237 260.05L878.634 259.132C863.119 252.417 849.46 243.041 837.651 231L836.937 231.7L836.223 232.4C848.214 244.626 862.088 254.15 877.84 260.968L878.237 260.05ZM836.937 231.7L837.658 231.007C826.084 218.971 817.053 204.848 810.565 188.629L809.637 189L808.708 189.371C815.287 205.819 824.456 220.163 836.216 232.393L836.937 231.7ZM809.637 189L810.565 188.629C804.084 172.425 800.837 154.702 800.837 135.45H799.837H798.837C798.837 154.931 802.123 172.909 808.708 189.371L809.637 189ZM799.837 135.45H800.837C800.837 116.193 803.969 98.4668 810.22 82.2599L809.287 81.9L808.354 81.5401C802.005 97.9999 798.837 115.973 798.837 135.45H799.837ZM809.287 81.9L810.217 82.2669C816.705 65.816 825.734 51.6982 837.301 39.9001L836.587 39.2L835.873 38.4999C824.106 50.5018 814.936 64.8507 808.357 81.5331L809.287 81.9ZM836.587 39.2L837.301 39.9002C849.105 27.8644 862.875 18.607 878.618 12.1247L878.237 11.2L877.856 10.2753C861.866 16.8596 847.869 26.2689 835.873 38.4998L836.587 39.2ZM878.237 11.2L878.629 12.1198C894.362 5.41028 911.494 2.04999 930.037 2.04999V1.04999V0.0499898C911.247 0.0499898 893.845 3.45637 877.845 10.2801L878.237 11.2ZM930.037 1.04999V2.04999C948.591 2.04999 965.137 5.18064 979.693 11.4191L980.087 10.5L980.481 9.58085C965.637 3.21934 948.817 0.0499898 930.037 0.0499898V1.04999ZM980.087 10.5L979.698 11.4214C994.522 17.6751 1007.01 26.0036 1017.17 36.3991L1017.89 35.7L1018.6 35.0009C1008.23 24.3964 995.519 15.9249 980.476 9.57863L980.087 10.5ZM1017.89 35.7L1017.18 36.4071C1027.35 46.5804 1034.62 57.7738 1039 69.9874L1039.94 69.65L1040.88 69.3125C1036.39 56.7928 1028.95 45.3529 1018.59 34.9929L1017.89 35.7ZM1039.94 69.65L1039.51 68.744L996.814 88.694L997.237 89.6L997.66 90.506L1040.36 70.556L1039.94 69.65ZM997.237 89.6L998.173 89.2489C993.202 75.9915 984.793 65.1001 972.971 56.5885L972.387 57.4L971.803 58.2115C983.314 66.4999 991.472 77.0751 996.301 89.9511L997.237 89.6ZM972.387 57.4L972.982 56.5962C961.119 47.8178 946.786 43.45 930.037 43.45V44.45V45.45C946.421 45.45 960.321 49.7155 971.792 58.2038L972.387 57.4ZM930.037 44.45V43.45C913.54 43.45 898.889 47.3408 886.115 55.1467L886.637 56L887.158 56.8533C899.585 49.2592 913.867 45.45 930.037 45.45V44.45ZM886.637 56L886.108 55.1511C873.582 62.9507 863.777 73.7051 856.699 87.3906L857.587 87.85L858.475 88.3094C865.396 74.9282 874.959 64.4493 887.165 56.8489L886.637 56ZM857.587 87.85L856.692 87.4028C849.844 101.1 846.437 117.126 846.437 135.45H847.437H848.437C848.437 117.374 851.797 101.666 858.481 88.2972L857.587 87.85ZM847.437 135.45H846.437C846.437 153.775 849.844 169.914 856.689 183.841L857.587 183.4L858.484 182.959C851.797 169.353 848.437 153.525 848.437 135.45H847.437ZM857.587 183.4L856.699 183.859C863.777 197.545 873.582 208.299 886.108 216.099L886.637 215.25L887.165 214.401C874.959 206.801 865.396 196.322 858.475 182.941L857.587 183.4ZM886.637 215.25L886.115 216.103C898.889 223.909 913.54 227.8 930.037 227.8V226.8V225.8C913.867 225.8 899.585 221.991 887.158 214.397L886.637 215.25ZM930.037 226.8V227.8C946.78 227.8 961.109 223.552 972.971 215.012L972.387 214.2L971.803 213.388C960.331 221.648 946.427 225.8 930.037 225.8V226.8ZM972.387 214.2L972.982 215.004C984.797 206.261 993.203 195.256 998.173 182.001L997.237 181.65L996.301 181.299C991.471 194.177 983.31 204.873 971.792 213.396L972.387 214.2ZM997.237 181.65L996.814 182.556L1039.51 202.506L1039.94 201.6L1040.36 200.694L997.66 180.744L997.237 181.65ZM1039.94 201.6L1039 201.263C1034.62 213.479 1027.35 224.792 1017.17 235.201L1017.89 235.9L1018.6 236.599C1028.96 226.008 1036.39 214.455 1040.88 201.937L1039.94 201.6ZM1017.89 235.9L1017.18 235.193C1007.01 245.358 994.526 253.573 979.698 259.829L980.087 260.75L980.476 261.671C995.514 255.327 1008.23 246.975 1018.59 236.607L1017.89 235.9ZM980.087 260.75L979.693 259.831C965.137 266.069 948.591 269.2 930.037 269.2V270.2V271.2C948.817 271.2 965.637 268.031 980.481 261.669L980.087 260.75ZM1153.48 260.05L1153.1 260.976L1153.1 260.976L1153.48 260.05ZM1110.08 231.7L1109.38 232.414L1109.38 232.414L1110.08 231.7ZM1081.03 189L1080.11 189.378L1080.11 189.386L1080.11 189.394L1081.03 189ZM1081.03 81.9L1081.96 82.2827L1081.96 82.2827L1081.03 81.9ZM1109.73 39.2L1110.43 39.9138L1110.43 39.9138L1109.73 39.2ZM1153.13 11.2L1153.5 12.1303L1153.51 12.1257L1153.13 11.2ZM1260.93 11.2L1261.31 10.2742L1261.31 10.2742L1260.93 11.2ZM1304.33 39.55L1303.63 40.2638L1303.64 40.2706L1304.33 39.55ZM1333.03 81.9L1332.11 82.2828L1332.11 82.2939L1333.03 81.9ZM1333.03 189L1333.95 189.394L1333.95 189.389L1333.03 189ZM1303.98 231.7L1303.28 230.986L1303.28 230.986L1303.98 231.7ZM1260.58 260.05L1260.2 259.124L1260.2 259.126L1260.58 260.05ZM1242.38 220.15L1242.76 221.074L1242.77 221.071L1242.78 221.067L1242.38 220.15ZM1270.38 200.9L1269.67 200.193L1269.67 200.198L1269.66 200.203L1270.38 200.9ZM1288.93 171.85L1288 171.482L1288 171.49L1288 171.499L1288.93 171.85ZM1288.93 99.4L1288 99.7511L1288 99.763L1288 99.7748L1288.93 99.4ZM1270.38 70.35L1269.65 71.0366L1269.66 71.047L1269.67 71.0571L1270.38 70.35ZM1143.68 70.35L1142.96 69.6529L1142.96 69.6532L1143.68 70.35ZM1125.13 99.4L1126.06 99.7748L1126.06 99.768L1125.13 99.4ZM1125.13 171.85L1126.06 171.482L1126.06 171.482L1125.13 171.85ZM1143.68 200.9L1142.96 201.597L1142.97 201.602L1142.97 201.607L1143.68 200.9ZM1172.03 220.15L1171.63 221.067L1171.64 221.071L1171.65 221.074L1172.03 220.15ZM1207.03 270.2V269.2C1188.02 269.2 1170.3 265.839 1153.86 259.124L1153.48 260.05L1153.1 260.976C1169.8 267.795 1187.78 271.2 1207.03 271.2V270.2ZM1153.48 260.05L1153.86 259.124C1137.41 252.405 1123.05 243.026 1110.78 230.986L1110.08 231.7L1109.38 232.414C1121.84 244.641 1136.42 254.162 1153.1 260.976L1153.48 260.05ZM1110.08 231.7L1110.78 230.986C1098.51 218.947 1088.9 204.823 1081.95 188.606L1081.03 189L1080.11 189.394C1087.16 205.844 1096.92 220.187 1109.38 232.414L1110.08 231.7ZM1081.03 189L1081.96 188.622C1075.24 172.183 1071.88 154.463 1071.88 135.45H1070.88H1069.88C1069.88 154.704 1073.29 172.683 1080.11 189.378L1081.03 189ZM1070.88 135.45H1071.88C1071.88 116.202 1075.24 98.4836 1081.96 82.2827L1081.03 81.9L1080.11 81.5173C1073.29 97.983 1069.88 115.965 1069.88 135.45H1070.88ZM1081.03 81.9L1081.96 82.2827C1088.67 66.0711 1098.16 51.951 1110.43 39.9138L1109.73 39.2L1109.03 38.4862C1096.57 50.7157 1086.93 65.0623 1080.11 81.5173L1081.03 81.9ZM1109.73 39.2L1110.43 39.9138C1122.7 27.8769 1137.05 18.6159 1153.5 12.1303L1153.13 11.2L1152.76 10.2697C1136.08 16.8507 1121.5 26.2565 1109.03 38.4862L1109.73 39.2ZM1153.13 11.2L1153.51 12.1257C1169.95 5.41201 1187.78 2.04999 1207.03 2.04999V1.04999V0.0499898C1187.55 0.0499898 1169.45 3.45463 1152.75 10.2742L1153.13 11.2ZM1207.03 1.04999V2.04999C1226.28 2.04999 1244.12 5.41201 1260.55 12.1257L1260.93 11.2L1261.31 10.2742C1244.61 3.45463 1226.52 0.0499898 1207.03 0.0499898V1.04999ZM1260.93 11.2L1260.55 12.1257C1277 18.845 1291.36 28.2244 1303.63 40.2638L1304.33 39.55L1305.03 38.8362C1292.57 26.609 1277.99 17.0883 1261.31 10.2742L1260.93 11.2ZM1304.33 39.55L1303.64 40.2706C1315.9 52.0721 1325.39 66.0728 1332.11 82.2827L1333.03 81.9L1333.96 81.5173C1327.14 65.0606 1317.49 50.8279 1305.03 38.8294L1304.33 39.55ZM1333.03 81.9L1332.11 82.2939C1339.05 98.492 1342.53 116.206 1342.53 135.45H1343.53H1344.53C1344.53 115.96 1341.01 97.9747 1333.95 81.5061L1333.03 81.9ZM1343.53 135.45H1342.53C1342.53 154.458 1339.06 172.175 1332.11 188.611L1333.03 189L1333.95 189.389C1341.01 172.692 1344.53 154.708 1344.53 135.45H1343.53ZM1333.03 189L1332.11 188.606C1325.16 204.823 1315.55 218.947 1303.28 230.986L1303.98 231.7L1304.68 232.414C1317.14 220.187 1326.9 205.844 1333.95 189.394L1333.03 189ZM1303.98 231.7L1303.28 230.986C1291.01 243.026 1276.65 252.405 1260.2 259.124L1260.58 260.05L1260.96 260.976C1277.64 254.162 1292.22 244.641 1304.68 232.414L1303.98 231.7ZM1260.58 260.05L1260.2 259.126C1244 265.838 1226.28 269.2 1207.03 269.2V270.2V271.2C1226.52 271.2 1244.5 267.795 1260.96 260.974L1260.58 260.05ZM1207.03 226.8V227.8C1219.98 227.8 1231.9 225.563 1242.76 221.074L1242.38 220.15L1242 219.226C1231.4 223.604 1219.75 225.8 1207.03 225.8V226.8ZM1242.38 220.15L1242.78 221.067C1253.63 216.35 1263.07 209.86 1271.1 201.597L1270.38 200.9L1269.66 200.203C1261.82 208.274 1252.6 214.617 1241.98 219.233L1242.38 220.15ZM1270.38 200.9L1271.09 201.607C1279.36 193.336 1285.62 183.53 1289.87 172.201L1288.93 171.85L1288 171.499C1283.84 182.57 1277.74 192.131 1269.67 200.193L1270.38 200.9ZM1288.93 171.85L1289.86 172.218C1294.35 160.891 1296.58 148.632 1296.58 135.45H1295.58H1294.58C1294.58 148.401 1292.39 160.409 1288 171.482L1288.93 171.85ZM1295.58 135.45H1296.58C1296.58 122.268 1294.35 110.123 1289.86 99.0252L1288.93 99.4L1288 99.7748C1292.39 110.61 1294.58 122.498 1294.58 135.45H1295.58ZM1288.93 99.4L1289.87 99.0489C1285.62 87.7201 1279.36 77.9141 1271.09 69.6429L1270.38 70.35L1269.67 71.0571C1277.74 79.1192 1283.84 88.6799 1288 99.7511L1288.93 99.4ZM1270.38 70.35L1271.11 69.6634C1263.08 61.1601 1253.63 54.6627 1242.76 50.1757L1242.38 51.1L1242 52.0243C1252.6 56.4039 1261.82 62.7399 1269.65 71.0366L1270.38 70.35ZM1242.38 51.1L1242.76 50.1757C1231.9 45.6874 1219.98 43.45 1207.03 43.45V44.45V45.45C1219.75 45.45 1231.4 47.6459 1242 52.0243L1242.38 51.1ZM1207.03 44.45V43.45C1194.31 43.45 1182.51 45.6883 1171.65 50.1757L1172.03 51.1L1172.41 52.0243C1183.02 47.645 1194.55 45.45 1207.03 45.45V44.45ZM1172.03 51.1L1171.65 50.1757C1160.79 54.6616 1151.23 61.156 1142.96 69.6529L1143.68 70.35L1144.4 71.0471C1152.47 62.744 1161.81 56.405 1172.41 52.0243L1172.03 51.1ZM1143.68 70.35L1142.96 69.6532C1134.93 77.9198 1128.68 87.7166 1124.2 99.0319L1125.13 99.4L1126.06 99.768C1130.45 88.6833 1136.56 79.1135 1144.4 71.0468L1143.68 70.35ZM1125.13 99.4L1124.2 99.0252C1119.72 110.123 1117.48 122.268 1117.48 135.45H1118.48H1119.48C1119.48 122.498 1121.68 110.61 1126.06 99.7748L1125.13 99.4ZM1118.48 135.45H1117.48C1117.48 148.632 1119.72 160.891 1124.2 172.218L1125.13 171.85L1126.06 171.482C1121.68 160.409 1119.48 148.401 1119.48 135.45H1118.48ZM1125.13 171.85L1124.2 172.218C1128.68 183.533 1134.93 193.33 1142.96 201.597L1143.68 200.9L1144.4 200.203C1136.56 192.136 1130.45 182.567 1126.06 171.482L1125.13 171.85ZM1143.68 200.9L1142.97 201.607C1151.23 209.864 1160.79 216.351 1171.63 221.067L1172.03 220.15L1172.43 219.233C1161.81 214.616 1152.47 208.27 1144.39 200.193L1143.68 200.9ZM1172.03 220.15L1171.65 221.074C1182.51 225.562 1194.31 227.8 1207.03 227.8V226.8V225.8C1194.55 225.8 1183.02 223.605 1172.41 219.226L1172.03 220.15Z" fill="#0E0E0E" fill-opacity="0.1" mask="url(#path-1-outside-1_2032_4711)"></path></svg>