<svg xmlns="http://www.w3.org/2000/svg" width="54" height="50" viewBox="0 0 54 50" fill="none"><path d="M14.7396 46.4643C14.7396 46.9484 14.3496 47.3408 13.8686 47.3408H0.870968C0.389976 47.3408 0 46.9484 0 46.4643C0 45.9802 0.389976 45.5878 0.870968 45.5878H13.8686C14.3496 45.5878 14.7396 45.9801 14.7396 46.4643ZM53.6651 45.7735L50.2817 43.1145C49.9026 42.8165 49.3553 42.8843 49.0592 43.2658C48.7632 43.6473 48.8305 44.1982 49.2097 44.4962L50.5987 45.5878H26.4677C14.459 45.5878 4.6894 35.7556 4.6894 23.6703C4.6894 21.4559 5.01862 19.3176 5.6283 17.3011L9.00624 15.498C9.43106 15.2712 9.59295 14.7405 9.36748 14.3129C9.14211 13.8852 8.61496 13.7225 8.18993 13.9492L6.54217 14.8288C9.92609 7.13486 17.5835 1.75273 26.4677 1.75273C38.4764 1.75273 48.2462 11.5849 48.2462 23.6703C48.2462 25.8659 47.9286 28.003 47.3245 30.0303L43.9292 31.8426C43.5044 32.0695 43.3425 32.6001 43.568 33.0277C43.7932 33.4555 44.3203 33.6181 44.7455 33.3914L46.4245 32.4951C44.6595 36.5537 41.6738 40.0275 37.7384 42.4279C37.3271 42.6788 37.1957 43.2177 37.445 43.6318C37.6943 44.0457 38.2297 44.1781 38.6412 43.9271C42.0391 41.8546 44.8826 38.9284 46.8644 35.4648C47.2233 34.8374 47.5519 34.194 47.8509 33.5377L48.1998 34.9384C48.299 35.3365 48.6539 35.6021 49.044 35.6021C49.1141 35.6021 49.1854 35.5934 49.2564 35.5756C49.723 35.4578 50.0064 34.9817 49.8894 34.5122L48.9348 30.6807C49.6289 28.4219 49.9879 26.0573 49.9879 23.6705C49.9879 17.3479 47.5413 11.4037 43.099 6.93293C38.6566 2.46218 32.75 0 26.4675 0C20.185 0 14.2789 2.46185 9.83649 6.93271C7.83011 8.9518 6.23254 11.2722 5.08188 13.7916L4.73567 12.4022C4.61863 11.9326 4.14526 11.6472 3.67908 11.7651C3.21246 11.8829 2.92906 12.359 3.0461 12.8286L3.99687 16.6446C3.30652 18.8905 2.94757 21.2526 2.94757 23.6704C2.94757 29.9931 5.39412 35.9373 9.83649 40.408C14.2789 44.8788 20.1854 47.3409 26.4678 47.3409H50.5987L49.2096 48.4325C48.8305 48.7305 48.7631 49.2814 49.0591 49.6629C49.2309 49.8842 49.4873 50 49.7463 50C49.9338 50 50.1226 49.9393 50.2817 49.8143L53.6651 47.1552C53.8764 46.9891 54 46.7343 54 46.4644C54 46.1945 53.8764 45.9396 53.6651 45.7735ZM31.1604 33.4865C31.1604 33.5974 31.1391 33.703 31.1017 33.8006C31.1258 34.0403 31.1393 34.2821 31.1393 34.5241C31.1393 36.8231 29.6277 38.8299 28.2941 40.6004C27.8905 41.1363 27.5092 41.6425 27.1953 42.1227C27.0343 42.3691 26.7608 42.5176 26.4676 42.5176C26.1744 42.5176 25.9011 42.3692 25.7399 42.1227C25.4261 41.6425 25.0447 41.1363 24.641 40.6002C23.3075 38.8297 21.7961 36.823 21.7961 34.524C21.7961 34.282 21.8097 34.0402 21.8336 33.8005C21.7963 33.7029 21.775 33.5972 21.775 33.4864V31.3729H20.7088L17.527 34.6988C17.3603 34.8731 17.1327 34.9675 16.8995 34.9675C16.8131 34.9675 16.7258 34.9546 16.6407 34.9279C16.3261 34.8293 16.0936 34.5604 16.0402 34.2332L14.423 24.3328C14.3656 23.9815 14.5251 23.6301 14.8265 23.4437L18.1203 21.4076C18.1138 20.0692 18.2053 18.7858 18.3966 17.5512C19.1916 12.4216 21.7303 8.19853 25.9426 4.99952C26.2531 4.76373 26.6813 4.76373 26.9918 4.99952C31.2041 8.19842 33.743 12.4214 34.5379 17.5512C34.7292 18.7858 34.8206 20.0691 34.8142 21.4074L38.1082 23.4437C38.4097 23.6301 38.5691 23.9815 38.5117 24.3328L36.8945 34.2332C36.8412 34.5604 36.6086 34.8293 36.294 34.9279C36.2089 34.9546 36.1216 34.9675 36.0352 34.9675C35.802 34.9675 35.5745 34.8733 35.4077 34.6988L32.2259 31.3729H31.1597V33.4865H31.1604ZM34.7326 23.4142C34.5745 25.5408 34.1847 27.8072 33.5617 30.2412L35.458 32.2235L36.6984 24.6294L34.7326 23.4142ZM20.4189 26.9016H32.5165C34.1453 18.0181 32.153 11.4175 26.4677 6.81054C20.7824 11.4175 18.79 18.0181 20.4189 26.9016ZM19.3738 30.2414C18.7506 27.8074 18.3609 25.541 18.2028 23.4145L16.2371 24.6294L17.4776 32.2235L19.3738 30.2414ZM21.0118 29.62H31.9237C32.0053 29.2954 32.0824 28.9736 32.1554 28.6546H20.7801C20.853 28.9736 20.9302 29.2954 21.0118 29.62ZM23.5172 31.373V32.6099H29.4185V31.373H23.5172ZM29.3974 34.5242C29.3974 34.4704 29.3957 34.4167 29.3942 34.363H23.5416C23.54 34.4167 23.5383 34.4704 23.5383 34.5242C23.5383 36.2339 24.8048 37.9153 26.0295 39.5414C26.179 39.74 26.3257 39.9345 26.4678 40.1265C26.6101 39.9346 26.7567 39.74 26.906 39.5416C28.131 37.9154 29.3974 36.2339 29.3974 34.5242ZM22.3306 16.8822C22.3306 14.5865 24.1866 12.7187 26.4677 12.7187C28.7489 12.7187 30.6048 14.5865 30.6048 16.8822C30.6048 19.178 28.7489 21.0457 26.4677 21.0457C24.1866 21.0457 22.3306 19.178 22.3306 16.8822ZM24.0726 16.8822C24.0726 18.2114 25.147 19.2927 26.4677 19.2927C27.7884 19.2927 28.8629 18.2114 28.8629 16.8822C28.8629 15.5531 27.7884 14.4718 26.4677 14.4718C25.147 14.4718 24.0726 15.5531 24.0726 16.8822Z" fill="#0E0E0E"></path></svg>