<svg xmlns="http://www.w3.org/2000/svg" width="13" height="13" viewBox="0 0 13 13" fill="none"><path d="M12.4609 6.08594C12.5977 6.19531 12.5977 6.41406 12.4609 6.55078L6.74609 12.2656C6.60938 12.4023 6.41797 12.4023 6.28125 12.2656L0.566406 6.55078C0.429688 6.41406 0.429688 6.19531 0.566406 6.08594L1.08594 5.53906C1.22266 5.40234 1.44141 5.40234 1.55078 5.53906L5.78906 9.77734V0.453125C5.78906 0.261719 5.95312 0.125 6.11719 0.125H6.88281C7.07422 0.125 7.21094 0.261719 7.21094 0.453125V9.77734L11.4766 5.53906C11.5859 5.40234 11.8047 5.40234 11.9414 5.53906L12.4609 6.08594Z" fill="#0E0E0E"></path></svg>