<svg xmlns="http://www.w3.org/2000/svg" width="13" height="13" viewBox="0 0 13 13" fill="none"><path d="M0.539062 6.91406C0.402344 6.80469 0.402344 6.58594 0.539062 6.44922L6.25391 0.734375C6.39062 0.597656 6.58203 0.597656 6.71875 0.734375L12.4336 6.44922C12.5703 6.58594 12.5703 6.80469 12.4336 6.91406L11.9141 7.46094C11.7773 7.59766 11.5586 7.59766 11.4492 7.46094L7.21094 3.22266V12.5469C7.21094 12.7383 7.04688 12.875 6.88281 12.875H6.11719C5.92578 12.875 5.78906 12.7383 5.78906 12.5469V3.22266L1.52344 7.46094C1.41406 7.59766 1.19531 7.59766 1.05859 7.46094L0.539062 6.91406Z" fill="#0e0e0e"></path></svg>