<svg xmlns="http://www.w3.org/2000/svg" width="32" height="32" viewBox="0 0 32 32"><g transform="scale(0.03125 0.03125)"><path d="M823.608 426.667h51.2c9.425 0 17.067-7.642 17.067-17.067v-51.2c0-9.425-7.642-17.067-17.067-17.067s-17.067 7.642-17.067 17.067v34.133h-34.133c-9.425 0-17.067 7.642-17.067 17.067s7.642 17.067 17.067 17.067zM422.1 358.4c37.7 0 68.267-30.567 68.267-68.267s-30.567-68.267-68.267-68.267c-37.708 0-68.267 30.567-68.267 68.267s30.558 68.267 68.267 68.267zM422.1 256c18.85 0 34.133 15.283 34.133 34.133s-15.283 34.133-34.133 34.133c-18.858 0-34.133-15.283-34.133-34.133s15.275-34.133 34.133-34.133zM49.292 352.733c7.225 3.733 15.25 5.675 23.383 5.667 21.725 0 41.050-13.792 48.125-34.342l134.217-2.075-23.417 19.35c-6.45 5.3-8.117 14.483-3.942 21.708l31.892 55.092 0.7 76.8h-85.175c-1 0.1-1.992 0.3-2.958 0.6-8.058-23.725-32.1-38.133-56.825-34.050-24.717 4.083-42.85 25.458-42.85 50.517s18.133 46.433 42.85 50.517c24.725 4.083 48.767-10.325 56.825-34.050 0.967 0.3 1.958 0.5 2.958 0.6h102.4c4.55 0 8.917-1.817 12.117-5.050 3.208-3.233 4.992-7.617 4.95-12.167l-0.783-86.5 54.608-20.475c3.708 2.4 7.475 4.592 11.283 6.583l11.517 69.192c1.375 8.225 8.5 14.258 16.85 14.25h8.925v85.333h-51.2c-9.425 0-17.067 7.642-17.067 17.067v248.967l-148.6 148.6c-4.883 4.883-6.342 12.225-3.7 18.6s8.867 10.533 15.767 10.533h546.133c6.9 0 13.125-4.158 15.758-10.533 2.642-6.375 1.183-13.717-3.692-18.6l-114.467-114.467v-90.608l38.208-63.642c64.467 38.9 103.442 58.917 115.392 58.917h102.4c9.425 0 17.067-7.642 17.067-17.067v-95.333l29.117-29.117c3.192-3.208 5-7.55 5.017-12.083v-51.2h24.933c11.55 0 22.325-5.842 28.625-15.533 6.292-9.683 7.267-21.9 2.575-32.458l-53.067-119.467c20.142-23.983 31.142-54.308 31.067-85.625 0.383-112.958-63.492-216.3-164.692-266.475l-49.5-24.783c-7.508-3.742-16.625-1.475-21.5 5.358l-7.15 9.917h-115.558v-34.133c0-9.425-7.642-17.067-17.067-17.067h-170.667c-9.425 0-17.067 7.642-17.067 17.067v68.267h-26.042c-8.35-0.008-15.483 6.033-16.85 14.267l-11.517 69.175c-3.808 1.992-7.583 4.175-11.283 6.583l-65.725-24.625c-7.808-2.933-16.592 0.217-20.767 7.442l-17.208 29.817c-0.442 0-0.8-0.258-1.242-0.258h-102.433v-54.342c23.508-8.308 37.608-32.35 33.392-56.925-4.217-24.583-25.525-42.542-50.458-42.542-24.942 0-46.25 17.958-50.467 42.542-4.217 24.575 9.892 48.617 33.4 56.925v71.408c0 9.425 7.642 17.067 17.067 17.067h102.142c-1.567 6.292 0.6 12.917 5.583 17.067l54.133 44.575c0 1.25 0 2.525-0.1 3.792l-164.9 2.542c-7.75-21.633-28.975-35.458-51.9-33.792-22.925 1.658-41.933 18.392-46.483 40.917-4.558 22.533 6.458 45.333 26.942 55.767zM123.875 529.067c-9.425 0-17.067-7.642-17.067-17.067s7.642-17.067 17.067-17.067c9.425 0 17.067 7.642 17.067 17.067s-7.642 17.067-17.067 17.067zM123.875 68.267c9.425 0 17.067 7.642 17.067 17.067s-7.642 17.067-17.067 17.067c-9.425 0-17.067-7.642-17.067-17.067s7.642-17.067 17.067-17.067zM431.075 494.933h25.158c8.333 0 15.45-6.025 16.825-14.25l11.533-69.192c3.792-1.975 7.567-4.175 11.267-6.583l65.758 24.625c7.808 2.933 16.592-0.217 20.767-7.442l7.225-12.492h80.4c1.258-0.1 2.5-0.35 3.7-0.75l30.433 40.567v28.45h-68.267v34.133h39.375l-45.708 18.275c-6.483 2.592-10.742 8.875-10.733 15.858v34.133h-187.733zM616.517 217.292l-7.2-12.492h43.625v68.267h-81.733l41.383-34.133c6.408-5.3 8.058-14.433 3.925-21.642zM652.942 307.2v68.267h-43.625l7.2-12.492c4.133-7.208 2.483-16.342-3.925-21.642l-41.383-34.133zM538.475 728.867l63.267 63.267v10h-102.4v-187.733h34.133v102.4c0 4.525 1.8 8.867 5 12.067zM430.292 955.733h0.783v-0.883l64.050-73.2c2.725-3.117 4.217-7.117 4.217-11.25v-34.133h34.133v153.6h-133.125zM233.342 989.867l124.467-124.467c3.2-3.2 5-7.542 5-12.067v-238.933h102.4v249.583l-34.133 39.017v-83.8h-34.133v122.883l-41.883 47.783zM697.075 989.867h-129.467v-153.6h34.133v51.2c0 4.525 1.8 8.867 5 12.067zM615.392 757.558l-47.783-47.792v-95.367h51.2v68.267c0 5.883 3.033 11.35 8.017 14.475 6.367 3.992 12.117 7.508 18.125 11.208zM760.75 72.975l36.492 18.267c89.608 44.417 146.167 135.925 145.833 235.942 0.075 26.4-10.417 51.733-29.133 70.35-4.992 4.992-6.4 12.542-3.533 18.992l57.6 129.608h-42c-9.425 0-17.067 7.642-17.067 17.067v51.2h-2.933c-26.4 0.075-51.725-10.417-70.333-29.133-6.7-6.467-17.342-6.375-23.925 0.208s-6.675 17.225-0.208 23.925c20.225 20.292 46.492 33.467 74.85 37.55l-6.583 6.583c-3.2 3.2-5 7.542-5 12.067v85.333l-83.717 0.1c-39.425-18.233-77.5-39.283-113.917-62.975l-0.083-0.083h-0.108c-8.033-4.883-16.092-9.833-24.042-14.767v-115.525l74.6-29.825c6.483-2.592 10.733-8.875 10.733-15.858v-68.267c0-3.692-1.2-7.283-3.417-10.242l-47.783-63.708v-193.658zM448.142 34.133h136.533v34.133c0 9.425 7.642 17.067 17.067 17.067h108.25l-53.858 75.417c-2.083 2.892-3.2 6.358-3.192 9.917h-63.333l-7.225-12.492c-4.175-7.225-12.958-10.375-20.767-7.442l-65.692 24.625c-3.7-2.408-7.475-4.608-11.267-6.583l-11.6-69.192c-1.375-8.225-8.492-14.25-16.825-14.25h-8.092zM264.45 221.867l19.675-34.133 60.608 22.717c5.442 2.033 11.542 1.167 16.192-2.308 6.425-4.842 13.4-8.908 20.775-12.117 5.342-2.292 9.15-7.15 10.1-12.883l10.617-63.675h39.358l10.617 63.692c0.95 5.733 4.758 10.592 10.1 12.883 7.375 3.217 14.342 7.283 20.775 12.117 4.65 3.475 10.742 4.342 16.175 2.308l60.625-22.733 19.658 34.133-49.925 41.083c-4.483 3.692-6.783 9.425-6.092 15.2 1.050 7.967 1.050 16.033 0 24-0.692 5.775 1.608 11.508 6.092 15.208l49.925 41.042-19.658 34.133-60.625-22.717c-5.433-2.033-11.525-1.167-16.175 2.308-6.433 4.833-13.4 8.9-20.775 12.117-5.342 2.292-9.15 7.15-10.1 12.883l-10.617 63.675h-39.375l-10.583-63.692c-0.95-5.733-4.758-10.592-10.1-12.883-7.375-3.208-14.35-7.275-20.767-12.117-4.658-3.475-10.758-4.35-16.2-2.308l-60.625 22.733-19.675-34.133 49.925-41.083c0.3-0.292 0.592-0.608 0.867-0.933 0.333-0.317 0.642-0.642 0.942-0.992 1.283-1.383 2.317-2.975 3.067-4.708l0.108-0.192c0.708-1.875 1.083-3.875 1.092-5.883 0.058-0.242 0.108-0.492 0.133-0.733 0-0.208-0.1-0.375-0.117-0.583s0-0.783 0-1.175c-1.050-7.967-1.050-16.033 0-24 0.683-5.775-1.617-11.508-6.108-15.208zM57.5 299.4c2.033-4.075 5.633-7.15 9.967-8.533 8.733-2.225 17.692 2.725 20.458 11.308 2.767 8.575-1.625 17.825-10.008 21.117-8.975 2.883-18.592-2.050-21.475-11.025-1.358-4.258-0.983-8.883 1.058-12.867zM396.942 682.667h34.133v34.133h-34.133zM396.942 750.933h34.133v34.133h-34.133zM499.342 477.867h34.133v34.133h-34.133zM567.608 477.867h34.133v34.133h-34.133zM721.208 170.667h34.133v68.267h-34.133zM721.208 273.067h34.133v34.133h-34.133zM721.208 341.333h34.133v34.133h-34.133zM721.208 341.333"></path></g></svg>