<svg xmlns="http://www.w3.org/2000/svg" width="32" height="32" viewBox="0 0 32 32"><g transform="scale(0.03125 0.03125)"><path d="M537.323 486.701c-7.82-7.82-20.48-7.82-28.3 0-7.8 7.8-7.8 20.46 0 28.28 7.82 7.8 20.48 7.8 28.3 0 7.8-7.82 7.8-20.48 0-28.28zM791.864 232.14c-39.080-39.078-102.344-39.080-141.426 0-38.978 38.978-38.98 102.418 0.006 141.428 38.992 38.968 102.432 38.984 141.42-0.004 39.076-39.076 39.084-102.342 0-141.424zM763.581 345.277c-23.386 23.388-61.454 23.388-84.852 0.004-23.39-23.404-23.392-61.472-0.004-84.858 23.446-23.446 61.406-23.45 84.856 0 23.446 23.444 23.45 61.406 0 84.854zM1018.138 5.858c-3.928-3.926-9.288-6.054-14.86-5.844-4.522 0.162-112.192 4.49-240.182 49.728-102.56 36.212-188.046 88.058-254.084 154.098-14.798 14.798-29.198 30.49-42.976 46.792-65.296-38.436-117.62-26.384-150.698-8.682-76.162 40.76-123.304 151.432-123.304 230.592 0.006 8.088 4.88 15.382 12.352 18.476 2.474 1.026 5.074 1.524 7.65 1.524 5.206 0 10.32-2.034 14.146-5.858 40.166-40.166 89.708-37.654 105.892-35.526l7.004 7.004c-13.784 32.8-24.888 65.416-33.032 97.138-2.94 11.48-1.948 23.628 2.422 34.74-19.256 8.874-37.834 21.904-54.010 38.080-51.482 51.484-61.936 176.952-62.356 182.268-0.46 5.834 1.656 11.578 5.794 15.716 3.766 3.764 8.86 5.858 14.14 5.858 0.524 0 1.050-0.020 1.576-0.062 5.316-0.418 130.788-10.872 182.27-62.354 16.17-16.17 29.198-34.746 38.072-53.998 11.764 4.626 23.872 5.196 34.76 2.406 31.708-8.142 64.32-19.242 97.124-33.028l7.004 7.004c2.126 16.186 4.638 65.728-35.526 105.89-5.718 5.72-7.43 14.322-4.334 21.794 3.094 7.474 10.386 12.346 18.476 12.346 79.16 0 189.83-47.142 230.59-123.304 17.702-33.074 29.754-85.398-8.682-150.696 16.294-13.772 31.988-28.172 46.792-42.976 66.040-66.040 117.884-151.526 154.096-254.078 45.24-127.996 49.566-235.668 49.728-240.188 0.2-5.55-1.918-10.932-5.844-14.86zM236.752 429.523c12.424-60.126 48.51-126.104 97.47-152.308 32.718-17.508 68.48-15.792 106.504 5.022-32.394 42.604-60.556 88.504-84.030 136.974-0.298-0.184-3.898-4.71-10.586-6.218-2.75-0.622-55.668-12.004-109.358 16.53zM367.599 741.259c-27.5 27.5-92.010 42.004-132.784 47.926 5.924-40.776 20.43-105.284 47.928-132.782 15.4-15.4 33.256-27.076 51.204-33.652l67.304 67.304c-6.576 17.948-18.25 35.804-33.652 51.204zM458.779 679.205c-5.788 1.482-12.492-0.694-17.476-5.67-25.874-25.874-35.996-35.996-39.172-39.17-5.824-5.824-20.106-20.106-51.652-51.654-4.988-4.998-7.164-11.7-5.686-17.478 6.406-24.948 14.784-50.544 24.972-76.386l165.39 165.39c-25.846 10.19-51.438 18.566-76.376 24.968zM746.787 689.781c-26.204 48.958-92.18 85.046-152.304 97.468 19.17-36.074 23.396-81.996 16.392-109.842-1.626-6.468-5.846-9.72-6.082-10.102 48.466-23.474 94.364-51.636 136.972-84.030 20.814 38.028 22.528 73.794 5.022 106.506zM791.878 486.699c-18.022 18.020-37.428 35.43-57.68 51.744-48.684 39.2-102.268 72.404-159.436 98.836l-188.040-188.036c26.432-57.172 59.636-110.756 98.832-159.434 16.328-20.266 33.736-39.674 51.75-57.686 59.25-59.252 135.718-106.408 227.342-140.352l167.584 167.584c-33.94 91.622-81.096 168.090-140.352 227.344zM946.62 217.174l-139.792-139.792c76.162-23.656 142.42-32.514 175.492-35.698-3.186 33.078-12.046 99.336-35.7 175.49zM480.741 826.096c-7.814-7.81-20.478-7.806-28.286 0.004l-56.56 56.58c-7.808 7.812-7.806 20.476 0.004 28.284 7.814 7.808 20.478 7.808 28.286-0.004l56.56-56.58c7.808-7.812 7.806-20.476-0.004-28.284zM197.908 543.261c-7.808-7.812-20.47-7.812-28.284-0.004l-56.58 56.56c-7.812 7.808-7.814 20.472-0.006 28.284 7.806 7.808 20.468 7.816 28.284 0.004l56.58-56.56c7.812-7.808 7.814-20.472 0.006-28.284zM339.325 854.398c-7.806-7.81-20.472-7.81-28.284-0.002l-135.48 135.46c-7.812 7.81-7.812 20.474-0.002 28.284 7.806 7.81 20.472 7.814 28.284 0.002l135.48-135.46c7.812-7.81 7.812-20.474 0.002-28.284zM179.326 854.398c-7.808-7.81-20.474-7.81-28.284-0.002l-135.48 135.46c-7.812 7.81-7.812 20.474-0.002 28.284 7.806 7.81 20.472 7.814 28.284 0.002l135.48-135.46c7.812-7.81 7.812-20.474 0.002-28.284zM169.604 684.675c-7.808-7.808-20.474-7.808-28.284 0.002l-135.46 135.48c-7.81 7.812-7.81 20.474 0.002 28.286 7.81 7.81 20.474 7.81 28.284-0.002l135.46-135.48c7.81-7.812 7.81-20.474-0.002-28.286zM622.165 401.837c-7.812-7.81-20.472-7.81-28.286 0l-28.28 28.28c-7.81 7.81-7.81 20.474 0 28.286 7.812 7.81 20.474 7.81 28.286 0l28.28-28.28c7.81-7.81 7.81-20.474 0-28.286z"></path></g></svg>