<svg xmlns="http://www.w3.org/2000/svg" width="35" height="35" viewBox="0 0 35 35" fill="none"><g clip-path="url(#clip0_6109_7216)"><path d="M32.5423 15.2595C32.4083 11.4418 30.8623 7.87181 28.1476 5.15712C25.3022 2.31118 21.5205 0.744385 17.4999 0.744385C9.37938 0.744385 2.74414 7.2079 2.45812 15.2595C1.21891 15.8102 0.351562 17.0506 0.351562 18.4921V22.4635C0.351562 24.4137 1.93805 26.0007 3.88875 26.0007C5.15094 26.0007 6.17742 24.9742 6.17742 23.712V17.2431C6.17742 16.058 5.26852 15.0917 4.11297 14.9768C4.53953 7.96204 10.3791 2.38501 17.4999 2.38501C21.083 2.38501 24.4523 3.78173 26.9882 6.31759C29.3168 8.64618 30.6796 11.6813 30.8847 14.9774C29.7302 15.0933 28.823 16.0591 28.823 17.2431V23.7115C28.823 24.9064 29.7461 25.8788 30.9153 25.9799V27.6145C30.9153 29.4553 29.4174 30.9527 27.5766 30.9527H25.1042C24.9828 30.6059 24.7925 30.2855 24.5256 30.0197C24.058 29.5499 23.4346 29.2913 22.7707 29.2913H20.2223C19.8564 29.2913 19.5053 29.3689 19.1837 29.5188C18.3066 29.9218 17.74 30.8067 17.74 31.773C17.74 32.4369 17.9987 33.0603 18.4673 33.5268C18.936 33.9966 19.5595 34.2552 20.2223 34.2552H22.7707C23.8273 34.2552 24.7586 33.5722 25.1059 32.5933H27.5766C30.3225 32.5933 32.5559 30.3599 32.5559 27.6145V25.6879C33.7875 25.1339 34.6483 23.898 34.6483 22.4624V18.491C34.6483 17.0506 33.7809 15.8102 32.5423 15.2595ZM4.53625 17.2431V23.7115C4.53625 24.0686 4.24586 24.3595 3.8882 24.3595C2.84258 24.3595 1.99164 23.5086 1.99164 22.463V18.4916C1.99164 17.4454 2.84258 16.595 3.8882 16.595C4.24586 16.595 4.53625 16.8859 4.53625 17.2431ZM23.5938 31.9491C23.5123 32.3352 23.1655 32.6157 22.7702 32.6157H20.2217C19.9975 32.6157 19.787 32.5282 19.6262 32.3674C19.4676 32.2094 19.3801 31.9983 19.3801 31.7741C19.3801 31.4465 19.572 31.1474 19.8728 31.009C19.98 30.9587 20.0976 30.933 20.2217 30.933H22.7702C22.9944 30.933 23.2049 31.0199 23.3652 31.1807C23.5237 31.3388 23.6112 31.5499 23.6112 31.7741C23.6118 31.8342 23.6052 31.8944 23.5938 31.9491ZM33.0077 22.463C33.0077 23.5086 32.1567 24.3595 31.1111 24.3595C30.754 24.3595 30.463 24.0692 30.463 23.7115V17.2431C30.463 16.8859 30.7534 16.595 31.1111 16.595C32.1567 16.595 33.0077 17.4459 33.0077 18.4916V22.463Z" fill="#0E0E0E"></path><path d="M22.8124 22.7456C24.7292 22.7456 26.2884 21.1859 26.2884 19.2697V12.1871C26.2884 11.2607 25.9263 10.3879 25.269 9.73056C24.6116 9.07321 23.7394 8.71118 22.8124 8.71118H12.1888C10.272 8.71118 8.71289 10.2703 8.71289 12.1871V19.2697C8.71289 21.1865 10.272 22.7456 12.1888 22.7456H12.2539V24.5809C12.2539 25.281 12.6712 25.9022 13.3165 26.1642C13.5248 26.2478 13.7414 26.2894 13.9558 26.2894C14.4026 26.2894 14.8379 26.1122 15.1567 25.7824L18.2099 22.7456H22.8124ZM17.2939 21.3434L13.9897 24.6296C13.9749 24.6449 13.964 24.6564 13.9328 24.6427C13.8951 24.6274 13.8951 24.6028 13.8951 24.5809V21.9253C13.8951 21.4725 13.5281 21.105 13.0748 21.105H12.1894C11.1771 21.105 10.3541 20.2814 10.3541 19.2697V12.1871C10.3541 11.1749 11.1771 10.3518 12.1894 10.3518H22.813C23.3019 10.3518 23.7618 10.5432 24.1096 10.8905C24.4574 11.2383 24.6483 11.6988 24.6483 12.1871V19.2697C24.6483 20.282 23.8247 21.105 22.813 21.105H17.8725C17.6554 21.105 17.4476 21.1909 17.2939 21.3434Z" fill="#0E0E0E"></path><path d="M13.5149 14.6492C12.8477 14.6492 12.3047 15.1928 12.3047 15.8594C12.3047 16.526 12.8483 17.0696 13.5149 17.0696C14.1827 17.0696 14.7262 16.526 14.7262 15.8594C14.7262 15.1928 14.1832 14.6492 13.5149 14.6492Z" fill="#0E0E0E"></path><path d="M17.4993 14.6492C16.8321 14.6492 16.2891 15.1928 16.2891 15.8594C16.2891 16.526 16.8327 17.0696 17.4993 17.0696C18.1676 17.0696 18.7106 16.526 18.7106 15.8594C18.7106 15.1928 18.1676 14.6492 17.4993 14.6492Z" fill="#0E0E0E"></path><path d="M21.4837 14.6492C20.8165 14.6492 20.2734 15.1928 20.2734 15.8594C20.2734 16.526 20.817 17.0696 21.4837 17.0696C22.1514 17.0696 22.695 16.526 22.695 15.8594C22.695 15.1928 22.1514 14.6492 21.4837 14.6492Z" fill="#0E0E0E"></path></g><defs><clipPath id="clip0_6109_7216"><rect width="35" height="35" fill="white"></rect></clipPath></defs></svg>