<svg xmlns="http://www.w3.org/2000/svg" width="32" height="32" viewBox="0 0 32 32"><g transform="scale(0.03125 0.03125)"><path d="M35.203 809.602l42.453 56.602-44.359 103.492c-2.688 6.281-1.109 13.57 3.953 18.156 3.016 2.734 6.875 4.148 10.75 4.148 2.641 0 5.297-0.648 7.703-1.984l320-176c5.125-2.805 8.297-8.18 8.297-14.016s-3.172-11.211-8.297-14.016l-320-176c-5.937-3.289-13.391-2.437-18.453 2.164-5.063 4.586-6.641 11.875-3.953 18.156l44.359 103.492-42.453 56.602c-4.266 5.688-4.266 13.516 0 19.203zM107.52 877.732l150.204-35.342-176.709 97.188zM257.725 757.61l-150.204-35.342-26.505-61.847zM102.517 753.976l195.604 46.024-195.604 46.024-34.517-46.024zM736 32c-135.756 0-246.862 106.306-255.189 240h-42.186l-43.312-43.312-22.625 22.625 20.688 20.688h-65.375c-92.641 0-168 75.367-168 168s75.359 168 168 168h177.375l43.312 43.312 22.625-22.625-20.688-20.688h305.375c48.516 0 88 39.477 88 88s-39.484 88-88 88h-145.375l-43.312-43.312-22.625 22.625 20.688 20.688h-249.375v32h249.375l-20.688 20.688 22.625 22.625 43.312-43.312h145.375c66.172 0 120-53.828 120-120s-53.828-120-120-120h-305.375l20.688-20.688-22.625-22.625-43.312 43.312h-177.375c-74.984 0-136-61.008-136-136s61.016-136 136-136h65.375l-20.688 20.688 22.625 22.625 43.312-43.312h42.186c8.327 133.694 119.434 240 255.189 240 141.156 0 256-114.844 256-256s-114.844-256-256-256zM736 512c-118.115 0-214.929-91.953-223.189-208h48c8.12 89.566 83.543 160 175.189 160 97.047 0 176-78.953 176-176s-78.953-176-176-176c-91.647 0-167.069 70.434-175.189 160h-48c8.261-116.047 105.074-208 223.189-208 123.516 0 224 100.484 224 224s-100.484 224-224 224zM699.312 347.312l48-48c6.25-6.25 6.25-16.375 0-22.625l-48-48-22.625 22.625 20.688 20.688h-104.431c7.991-71.888 69.064-128 143.056-128 79.406 0 144 64.602 144 144s-64.594 144-144 144c-73.992 0-135.064-56.112-143.056-128h104.431l-20.688 20.688zM832 288c0-52.937-43.063-96-96-96v32c35.297 0 64 28.711 64 64s-28.703 64-64 64v32c52.937 0 96-43.063 96-96z"></path></g></svg>