<svg xmlns="http://www.w3.org/2000/svg" width="148" height="30" viewBox="0 0 148 30" fill="none"><path d="M0 3.21H4.25339V25.56H16.0251V29.49H0V3.21ZM20.2186 3.21C21.6563 3.21 22.8844 4.32 22.8844 5.79C22.8844 7.26 21.6863 8.43 20.2186 8.43C18.7509 8.43 17.5527 7.26 17.5527 5.79C17.5527 4.35 18.7209 3.21 20.2186 3.21ZM18.1218 10.56H22.1955V29.52H18.1218V10.56ZM24.6217 10.56H28.6954V13.17C29.8935 11.16 31.9603 10.05 34.716 10.05C39.1492 10.05 41.9049 13.5 41.9049 18.96V29.49H37.8312V19.35C37.8312 15.81 36.2736 13.8 33.488 13.8C30.4028 13.8 28.7254 15.9 28.7254 19.68V29.49H24.6217V10.56ZM44.0615 3.21H48.1352V19.83L55.7434 10.56H60.8654L52.748 20.04L60.8654 29.49H55.7434L48.1352 20.25V29.49H44.0615V3.21ZM62.4829 5.73H66.6464V10.56H71.4989V13.95H66.6464V23.7C66.6464 24.93 67.3953 25.71 68.5934 25.71H71.3192V29.52H68.0542C64.5197 29.52 62.5128 27.42 62.5128 23.7L62.4829 5.73ZM73.5657 10.56H77.3398V12.9C78.3582 11.1 80.0356 10.05 82.1024 10.05C82.7314 10.05 83.0609 10.08 83.5402 10.23V14.01C83.2706 13.95 82.8512 13.86 82.0125 13.86C79.0172 13.86 77.3698 16.38 77.3698 20.7V29.46H73.2961V10.56H73.5657ZM93.0953 10.05C97.5883 10.05 102.471 12.75 102.471 20.46V21H87.8535C88.183 24.39 90.1299 26.25 93.4248 26.25C95.7911 26.25 97.7681 24.99 98.2174 23.22H102.381C101.932 27 97.9777 30 93.3949 30C87.524 30 83.8097 26.19 83.8097 20.01C83.8097 14.52 87.3742 10.05 93.0953 10.05ZM98.0975 17.64C97.5284 15.3 95.6713 13.83 93.0953 13.83C90.6092 13.83 88.8419 15.33 88.153 17.64H98.0975ZM113.554 10.05C118.047 10.05 122.929 12.75 122.929 20.46V21H108.312C108.641 24.39 110.588 26.25 113.883 26.25C116.249 26.25 118.226 24.99 118.676 23.22H122.809C122.39 27 118.436 30 113.853 30C107.982 30 104.268 26.19 104.268 20.01C104.268 14.52 107.832 10.05 113.554 10.05ZM118.556 17.64C117.987 15.3 116.13 13.83 113.524 13.83C111.037 13.83 109.27 15.33 108.581 17.64H118.556ZM123.917 9.99H131.196L126.014 5.07L128.86 2.16L133.802 7.2V0H138.085V7.2L143.028 2.16L145.873 5.07L140.691 9.99H147.97V14.07H140.631L145.873 19.11L143.028 21.96L135.929 14.85L128.83 21.96L125.984 19.11L131.196 14.04H123.858V9.99H123.917ZM133.832 19.86H138.115V29.52H133.832V19.86Z" fill="#696969"></path></svg>