<svg width="127" height="30" viewBox="0 0 127 30" fill="none" xmlns="http://www.w3.org/2000/svg">
<path d="M30 15C30 23.2842 23.2842 30 15 30C6.71576 30 0 23.2842 0 15C0 6.71576 6.71576 0 15 0C23.2842 0 30 6.71576 30 15ZM30 30C38.2842 30 45 23.2842 45 15C45 6.71576 38.2842 0 30 0V30Z" fill="url(#paint0_linear_8446_243)"/>
<path d="M63.112 24.288C61.976 24.288 60.92 24.08 59.944 23.664C58.984 23.248 58.152 22.672 57.448 21.936C56.76 21.184 56.256 20.312 55.936 19.32L58.648 18.144C59.08 19.168 59.704 19.976 60.52 20.568C61.336 21.144 62.256 21.432 63.28 21.432C63.856 21.432 64.352 21.344 64.768 21.168C65.2 20.976 65.528 20.72 65.752 20.4C65.992 20.08 66.112 19.696 66.112 19.248C66.112 18.72 65.952 18.288 65.632 17.952C65.328 17.6 64.864 17.328 64.24 17.136L60.808 16.032C59.416 15.6 58.368 14.952 57.664 14.088C56.96 13.224 56.608 12.208 56.608 11.04C56.608 10.016 56.856 9.112 57.352 8.328C57.864 7.544 58.568 6.936 59.464 6.504C60.376 6.056 61.416 5.832 62.584 5.832C63.656 5.832 64.64 6.024 65.536 6.408C66.432 6.776 67.2 7.296 67.84 7.968C68.496 8.624 68.984 9.4 69.304 10.296L66.616 11.496C66.264 10.6 65.736 9.912 65.032 9.432C64.328 8.936 63.512 8.688 62.584 8.688C62.04 8.688 61.56 8.784 61.144 8.976C60.728 9.152 60.4 9.408 60.16 9.744C59.936 10.064 59.824 10.448 59.824 10.896C59.824 11.392 59.984 11.832 60.304 12.216C60.624 12.584 61.112 12.872 61.768 13.08L65.056 14.112C66.48 14.576 67.544 15.216 68.248 16.032C68.968 16.848 69.328 17.856 69.328 19.056C69.328 20.08 69.064 20.984 68.536 21.768C68.008 22.552 67.28 23.168 66.352 23.616C65.424 24.064 64.344 24.288 63.112 24.288ZM74.6459 24.288C73.7339 24.288 72.9419 24.136 72.2699 23.832C71.5979 23.528 71.0779 23.096 70.7099 22.536C70.3419 21.96 70.1579 21.296 70.1579 20.544C70.1579 19.824 70.3179 19.184 70.6379 18.624C70.9579 18.048 71.4539 17.568 72.1259 17.184C72.7979 16.8 73.6459 16.528 74.6699 16.368L78.9419 15.672V18.072L75.2699 18.696C74.6459 18.808 74.1819 19.008 73.8779 19.296C73.5739 19.584 73.4219 19.96 73.4219 20.424C73.4219 20.872 73.5899 21.232 73.9259 21.504C74.2779 21.76 74.7099 21.888 75.2219 21.888C75.8779 21.888 76.4539 21.752 76.9499 21.48C77.4619 21.192 77.8539 20.8 78.1259 20.304C78.4139 19.808 78.5579 19.264 78.5579 18.672V15.312C78.5579 14.752 78.3339 14.288 77.8859 13.92C77.4539 13.536 76.8779 13.344 76.1579 13.344C75.4859 13.344 74.8859 13.528 74.3579 13.896C73.8459 14.248 73.4699 14.72 73.2299 15.312L70.6619 14.064C70.9179 13.376 71.3179 12.784 71.8619 12.288C72.4219 11.776 73.0779 11.376 73.8299 11.088C74.5819 10.8 75.3979 10.656 76.2779 10.656C77.3499 10.656 78.2939 10.856 79.1099 11.256C79.9259 11.64 80.5579 12.184 81.0059 12.888C81.4699 13.576 81.7019 14.384 81.7019 15.312V24H78.7259V21.768L79.3979 21.72C79.0619 22.28 78.6619 22.752 78.1979 23.136C77.7339 23.504 77.2059 23.792 76.6139 24C76.0219 24.192 75.3659 24.288 74.6459 24.288ZM88.3758 24.288C86.9838 24.288 85.7678 23.96 84.7278 23.304C83.7038 22.632 82.9998 21.728 82.6158 20.592L84.9678 19.464C85.3038 20.2 85.7678 20.776 86.3598 21.192C86.9678 21.608 87.6398 21.816 88.3758 21.816C88.9518 21.816 89.4078 21.688 89.7438 21.432C90.0798 21.176 90.2478 20.84 90.2478 20.424C90.2478 20.168 90.1758 19.96 90.0318 19.8C89.9038 19.624 89.7198 19.48 89.4798 19.368C89.2558 19.24 89.0078 19.136 88.7358 19.056L86.5998 18.456C85.4958 18.136 84.6558 17.648 84.0798 16.992C83.5198 16.336 83.2398 15.56 83.2398 14.664C83.2398 13.864 83.4398 13.168 83.8398 12.576C84.2558 11.968 84.8238 11.496 85.5438 11.16C86.2798 10.824 87.1198 10.656 88.0638 10.656C89.2958 10.656 90.3838 10.952 91.3278 11.544C92.2718 12.136 92.9438 12.968 93.3438 14.04L90.9438 15.168C90.7198 14.576 90.3438 14.104 89.8158 13.752C89.2878 13.4 88.6958 13.224 88.0398 13.224C87.5118 13.224 87.0958 13.344 86.7918 13.584C86.4878 13.824 86.3358 14.136 86.3358 14.52C86.3358 14.76 86.3998 14.968 86.5278 15.144C86.6558 15.32 86.8318 15.464 87.0558 15.576C87.2958 15.688 87.5678 15.792 87.8718 15.888L89.9598 16.512C91.0318 16.832 91.8558 17.312 92.4318 17.952C93.0238 18.592 93.3198 19.376 93.3198 20.304C93.3198 21.088 93.1118 21.784 92.6958 22.392C92.2798 22.984 91.7038 23.448 90.9678 23.784C90.2318 24.12 89.3678 24.288 88.3758 24.288ZM94.5359 24V10.944H97.6799V24H94.5359ZM94.5359 9.48V6.12H97.6799V9.48H94.5359ZM105.671 24.288C104.375 24.288 103.207 23.992 102.167 23.4C101.143 22.792 100.335 21.976 99.7428 20.952C99.1508 19.912 98.8548 18.744 98.8548 17.448C98.8548 16.152 99.1508 14.992 99.7428 13.968C100.335 12.944 101.143 12.136 102.167 11.544C103.207 10.952 104.375 10.656 105.671 10.656C106.599 10.656 107.463 10.824 108.263 11.16C109.063 11.48 109.751 11.928 110.327 12.504C110.919 13.064 111.343 13.736 111.599 14.52L108.839 15.72C108.599 15.064 108.191 14.536 107.615 14.136C107.055 13.736 106.407 13.536 105.671 13.536C104.983 13.536 104.367 13.704 103.823 14.04C103.295 14.376 102.879 14.84 102.575 15.432C102.271 16.024 102.119 16.704 102.119 17.472C102.119 18.24 102.271 18.92 102.575 19.512C102.879 20.104 103.295 20.568 103.823 20.904C104.367 21.24 104.983 21.408 105.671 21.408C106.423 21.408 107.079 21.208 107.639 20.808C108.199 20.408 108.599 19.872 108.839 19.2L111.599 20.448C111.343 21.184 110.927 21.848 110.351 22.44C109.775 23.016 109.087 23.472 108.287 23.808C107.487 24.128 106.615 24.288 105.671 24.288ZM119.168 24.288C117.888 24.288 116.72 23.992 115.664 23.4C114.624 22.808 113.792 22 113.168 20.976C112.56 19.952 112.256 18.784 112.256 17.472C112.256 16.16 112.56 14.992 113.168 13.968C113.792 12.944 114.624 12.136 115.664 11.544C116.704 10.952 117.872 10.656 119.168 10.656C120.448 10.656 121.608 10.952 122.648 11.544C123.688 12.136 124.512 12.944 125.12 13.968C125.744 14.976 126.056 16.144 126.056 17.472C126.056 18.784 125.744 19.952 125.12 20.976C124.496 22 123.664 22.808 122.624 23.4C121.584 23.992 120.432 24.288 119.168 24.288ZM119.168 21.408C119.872 21.408 120.488 21.24 121.016 20.904C121.56 20.568 121.984 20.104 122.288 19.512C122.608 18.904 122.768 18.224 122.768 17.472C122.768 16.704 122.608 16.032 122.288 15.456C121.984 14.864 121.56 14.4 121.016 14.064C120.488 13.712 119.872 13.536 119.168 13.536C118.448 13.536 117.816 13.712 117.272 14.064C116.728 14.4 116.296 14.864 115.976 15.456C115.672 16.032 115.52 16.704 115.52 17.472C115.52 18.224 115.672 18.904 115.976 19.512C116.296 20.104 116.728 20.568 117.272 20.904C117.816 21.24 118.448 21.408 119.168 21.408Z" fill="white"/>
<defs>
<linearGradient id="paint0_linear_8446_243" x1="13.9793" y1="3.60001" x2="37.3554" y2="6.41582" gradientUnits="userSpaceOnUse">
<stop stop-color="#E91CFF"/>
<stop offset="1" stop-color="#43BAFF"/>
</linearGradient>
</defs>
</svg>
