<svg xmlns="http://www.w3.org/2000/svg" width="30" height="30" viewBox="0 0 30 30" fill="none"><path d="M14.9955 27.857C13.923 27.857 12.9063 27.6745 12.1329 27.343C12.0045 27.288 11.888 27.2308 11.7812 27.1724V28.9285C11.7812 29.3062 13.0016 29.9999 14.9955 29.9999C16.9895 29.9999 18.2098 29.3062 18.2098 28.9285V27.1724C18.1031 27.2308 17.9866 27.288 17.8582 27.343C17.0848 27.6745 16.0681 27.857 14.9955 27.857Z" fill="white"></path><path d="M14.9955 24.6429C13.923 24.6429 12.9063 24.4604 12.1329 24.1289C12.0045 24.0739 11.888 24.0167 11.7812 23.9583V25.7144C11.7812 26.0921 13.0016 26.7858 14.9955 26.7858C16.9895 26.7858 18.2098 26.0921 18.2098 25.7144V23.9583C18.1031 24.0167 17.9866 24.0739 17.8582 24.1289C17.0848 24.4604 16.0681 24.6429 14.9955 24.6429Z" fill="white"></path><path d="M3.21429 27.8572C2.14175 27.8572 1.12505 27.6746 0.35163 27.3431C0.22321 27.2881 0.106726 27.231 0 27.1725V28.9286C0 29.3063 1.22033 30 3.21429 30C5.20825 30 6.42858 29.3063 6.42858 28.9286V27.1725C6.32186 27.231 6.20538 27.2881 6.07695 27.3431C5.30353 27.6746 4.28683 27.8572 3.21429 27.8572Z" fill="white"></path><path d="M3.21429 24.6428C2.14175 24.6428 1.12505 24.4603 0.35163 24.1288C0.22321 24.0737 0.106726 24.0166 0 23.9581V25.7142C0 26.092 1.22033 26.7857 3.21429 26.7857C5.20825 26.7857 6.42858 26.092 6.42858 25.7142V23.9581C6.32186 24.0166 6.20538 24.0737 6.07695 24.1288C5.30353 24.4603 4.28683 24.6428 3.21429 24.6428Z" fill="white"></path><path d="M15.5357 21.4458V16.0714H17.1429V17.4066L23.6074 22.3793C23.5855 22.4159 23.5731 22.4574 23.5715 22.5C23.5715 22.8777 24.7918 23.5714 26.7858 23.5714C28.7797 23.5714 30.0001 22.8777 30.0001 22.5C30.0001 22.1223 28.7797 21.4286 26.7858 21.4286C25.8702 21.4286 25.1183 21.575 24.5722 21.7697L18.2143 16.879V16.0714H23.0358C23.9893 16.0714 24.9215 15.7886 25.7144 15.2588C26.5073 14.7291 27.1253 13.9761 27.4902 13.095C27.8551 12.214 27.9506 11.2446 27.7646 10.3093C27.5785 9.37408 27.1193 8.51498 26.445 7.84069C25.7707 7.1664 24.9116 6.7072 23.9764 6.52117C23.0411 6.33513 22.0717 6.43061 21.1907 6.79554C20.3097 7.16046 19.5567 7.77843 19.0269 8.57132C18.4971 9.3642 18.2143 10.2964 18.2143 11.25H17.1429C17.1447 9.90088 17.6085 8.5931 18.4572 7.5444C19.3059 6.49569 20.4882 5.76934 21.8072 5.48629C21.5885 4.4795 21.1491 3.53379 20.5208 2.71729C19.8924 1.9008 19.0908 1.23387 18.1736 0.764569C17.2564 0.295266 16.2465 0.0352794 15.2168 0.00334667C14.187 -0.0285861 13.1629 0.16833 12.2184 0.579904C11.2739 0.991477 10.4325 1.60746 9.7548 2.38345C9.07708 3.15944 8.57996 4.07612 8.29924 5.06741C8.01853 6.05871 7.96124 7.09993 8.13147 8.11605C8.30171 9.13216 8.69525 10.0979 9.28373 10.9435L8.40495 11.5565C7.46402 10.2102 6.96097 8.60669 6.9643 6.96424C6.9643 6.78434 6.97085 6.60597 6.98256 6.42898C6.97646 6.42896 6.97038 6.42853 6.9643 6.42853C5.68557 6.42853 4.45922 6.9365 3.55503 7.84069C2.65083 8.74489 2.14286 9.97124 2.14286 11.25C2.14286 12.5287 2.65083 13.755 3.55503 14.6592C4.45922 15.5634 5.68557 16.0714 6.9643 16.0714H11.7857V16.879L5.42783 21.7697C4.88173 21.575 4.12987 21.4286 3.21429 21.4286C1.22033 21.4286 0 22.1223 0 22.5C0 22.8777 1.22033 23.5714 3.21429 23.5714C5.20825 23.5714 6.42858 22.8777 6.42858 22.5C6.42691 22.4574 6.41455 22.4159 6.39262 22.3793L12.8572 17.4066V16.0714H14.4643V21.4458C12.7897 21.5549 11.7857 22.1574 11.7857 22.5C11.7857 22.8777 13.0061 23.5714 15 23.5714C16.994 23.5714 18.2143 22.8777 18.2143 22.5C18.2143 22.1574 17.2103 21.5549 15.5357 21.4458Z" fill="white"></path><path d="M26.7846 24.6428C25.7121 24.6428 24.6954 24.4603 23.9219 24.1288C23.7935 24.0737 23.677 24.0166 23.5703 23.9581V25.7142C23.5703 26.092 24.7906 26.7857 26.7846 26.7857C28.7786 26.7857 29.9989 26.092 29.9989 25.7142V23.9581C29.8922 24.0166 29.7757 24.0737 29.6473 24.1288C28.8738 24.4603 27.8571 24.6428 26.7846 24.6428Z" fill="white"></path><path d="M26.7846 27.8572C25.7121 27.8572 24.6954 27.6746 23.9219 27.3431C23.7935 27.2881 23.677 27.231 23.5703 27.1725V28.9286C23.5703 29.3063 24.7906 30 26.7846 30C28.7786 30 29.9989 29.3063 29.9989 28.9286V27.1725C29.8922 27.231 29.7757 27.2881 29.6473 27.3431C28.8738 27.6746 27.8571 27.8572 26.7846 27.8572Z" fill="white"></path></svg>