<svg xmlns="http://www.w3.org/2000/svg" width="50" height="50" viewBox="0 0 50 50" fill="none!important"><path d="M25.2766 31.8884L27.3923 30.7802C27.4342 30.7582 31.6305 28.5557 36.1078 25.8113C42.3552 21.9819 46.016 19.0688 47.2996 16.9054L47.2997 16.9052C50.4627 11.5726 48.6567 4.6847 43.2736 1.55087C40.6657 0.032797 37.617 -0.388364 34.6894 0.365061C31.7619 1.11839 29.3057 2.95594 27.7735 5.53902C26.4901 7.7025 25.7024 12.288 25.3653 19.5578C25.1237 24.768 25.2233 29.4712 25.2244 29.5182L25.2766 31.8884Z" fill="url(#paint0_linear_8447_1933)" style="fill: url(#paint0_linear_8447_1933) !important;"></path><path d="M47.8274 28.7826C46.4166 27.3735 44.5362 26.593 42.5333 26.585C41.9254 26.5837 40.0885 26.5749 34.0433 29.702C31.1715 31.1876 28.7525 32.6504 28.6511 32.7119L26.6094 33.949L28.6406 35.2027C28.7416 35.2652 31.1482 36.7477 34.0076 38.2567C40.0264 41.4332 41.8664 41.4408 42.471 41.4434H42.4711H42.5024C46.6229 41.4434 49.9845 38.1309 50.0024 34.0449C50.0107 32.0605 49.2383 30.1916 47.8274 28.7826Z" fill="url(#paint1_linear_8447_1933)" style="fill: url(#paint1_linear_8447_1933) !important;"></path><path d="M20.5231 33.3349L22.8209 32.6722L21.1934 30.9341C21.1125 30.8476 19.1834 28.7911 16.8244 26.5913C11.8592 21.961 10.0857 21.475 9.50284 21.3153C5.51788 20.2234 1.37785 22.5467 0.274728 26.4949C-0.259353 28.4077 -0.00945133 30.4119 0.97834 32.1385C1.96613 33.8651 3.57365 35.1074 5.50441 35.6361C5.76505 35.7075 6.26378 35.8442 7.33165 35.8442C8.65128 35.8442 10.84 35.6354 14.5224 34.8368C17.687 34.1503 20.4087 33.3679 20.5231 33.3349Z" fill="url(#paint2_linear_8447_1933)" style="fill: url(#paint2_linear_8447_1933) !important;"></path><path d="M16.9795 36.3224C12.4494 38.037 11.176 39.0811 10.6123 39.7172C8.36248 42.2558 8.61688 46.1344 11.1798 48.3634C12.318 49.3531 13.7504 49.886 15.2511 49.8859C15.3874 49.8859 15.5244 49.8815 15.6616 49.8726C17.3102 49.7664 18.8183 49.0304 19.9079 47.8007C20.4718 47.1645 21.3521 45.7785 22.4814 41.1066C23.0736 38.6567 23.4462 36.4831 23.4618 36.3918L23.8601 34.0542L21.5719 34.7485C21.4826 34.7756 19.355 35.4232 16.9795 36.3224Z" fill="url(#paint3_linear_8447_1933)" style="fill: url(#paint3_linear_8447_1933) !important;"></path><path d="M16.0581 22.456C18.0614 24.1228 19.9088 25.4621 19.9866 25.5183L21.9192 26.9167L22.3154 24.5787C22.3314 24.4847 22.7082 22.2478 22.9658 19.669C23.456 14.7581 23.0741 13.123 22.7441 12.3203L22.744 12.3201C21.4287 9.12237 17.7324 7.58 14.5034 8.88213C12.9393 9.51328 11.7171 10.7099 11.0616 12.2517C10.4061 13.7936 10.396 15.496 11.0331 17.0451C11.3633 17.8478 12.2433 19.2821 16.0581 22.456Z" fill="url(#paint4_linear_8447_1933)" style="fill: url(#paint4_linear_8447_1933) !important;"></path><path d="M27.4508 37.13L25.5143 35.7368L25.1246 38.076C24.8593 39.6688 24.0567 45.0184 24.8717 46.9851C25.6497 48.8624 27.4852 49.9999 29.4176 49.9999C30.0371 49.9999 30.6668 49.8829 31.2745 49.6359C32.4869 49.1427 33.4329 48.2114 33.9382 47.0134C34.4436 45.8153 34.4477 44.4941 33.9498 43.2933C33.1349 41.3267 28.7695 38.0787 27.4508 37.13Z" fill="url(#paint5_linear_8447_1933)" style="fill: url(#paint5_linear_8447_1933) !important;"></path><defs><linearGradient id="paint0_linear_8447_1933" x1="32.5515" y1="3.82662" x2="44.9737" y2="4.5666" gradientUnits="userSpaceOnUse"><stop stop-color="#E91CFF"></stop><stop offset="1" stop-color="#43BAFF"></stop></linearGradient><linearGradient id="paint1_linear_8447_1933" x1="33.8765" y1="28.368" x2="46.0108" y2="29.9021" gradientUnits="userSpaceOnUse"><stop stop-color="#E91CFF"></stop><stop offset="1" stop-color="#43BAFF"></stop></linearGradient><linearGradient id="paint2_linear_8447_1933" x1="7.08933" y1="22.8215" x2="18.9345" y2="24.2884" gradientUnits="userSpaceOnUse"><stop stop-color="#E91CFF"></stop><stop offset="1" stop-color="#43BAFF"></stop></linearGradient><linearGradient id="paint3_linear_8447_1933" x1="13.6702" y1="35.954" x2="21.4168" y2="36.5349" gradientUnits="userSpaceOnUse"><stop stop-color="#E91CFF"></stop><stop offset="1" stop-color="#43BAFF"></stop></linearGradient><linearGradient id="paint4_linear_8447_1933" x1="14.4883" y1="10.6393" x2="21.1282" y2="11.0036" gradientUnits="userSpaceOnUse"><stop stop-color="#E91CFF"></stop><stop offset="1" stop-color="#43BAFF"></stop></linearGradient><linearGradient id="paint5_linear_8447_1933" x1="27.5614" y1="37.4484" x2="32.7129" y2="37.7328" gradientUnits="userSpaceOnUse"><stop stop-color="#E91CFF"></stop><stop offset="1" stop-color="#43BAFF"></stop></linearGradient></defs></svg>