<svg xmlns="http://www.w3.org/2000/svg" width="32" height="30" viewBox="0 0 32 30" fill="none"><path d="M26.9508 14.8037H30.8708C31.3852 14.8037 31.8026 14.3869 31.8026 13.872C31.8026 13.3577 31.3852 12.9403 30.8708 12.9403H27.321C27.7676 10.1253 27.5601 8.22146 27.5483 8.11897C27.5061 7.75063 27.2496 7.44254 26.8955 7.33446C25.4799 6.90091 24.2463 6.46114 23.173 6.03006V3.72686H26.3725C26.757 4.81138 27.7931 5.59029 29.0074 5.59029C30.5485 5.59029 31.8026 4.3362 31.8026 2.79515C31.8026 1.25347 30.5485 0 29.0074 0C27.7931 0 26.757 0.778914 26.3725 1.86343H22.2413C21.7264 1.86343 21.3096 2.28022 21.3096 2.79515V5.21947C17.856 3.58897 16.7113 2.25165 16.6423 2.16841C16.2701 1.65628 15.5328 1.65584 15.1603 2.16841C15.0913 2.25165 13.9465 3.58897 10.493 5.21947V2.79515C10.493 2.28022 10.0762 1.86343 9.56126 1.86343H5.43004C5.04555 0.778914 4.00948 0 2.79515 0C1.25409 0 0 1.25347 0 2.79515C0 4.3362 1.25409 5.59029 2.79515 5.59029C4.00948 5.59029 5.04555 4.81138 5.43004 3.72686H8.62955V6.03006C7.55621 6.46114 6.32262 6.90091 4.90704 7.33446C4.55298 7.44254 4.29645 7.75063 4.25421 8.11897C4.24241 8.22146 4.03495 10.1253 4.48155 12.9403H0.931716C0.417409 12.9403 0 13.3577 0 13.872C0 14.3869 0.417409 14.8037 0.931716 14.8037H4.85175C5.0553 15.6514 5.2932 16.4661 5.61017 17.3535H3.05044C2.53613 17.3535 2.11872 17.7703 2.11872 18.2852C2.11872 18.7995 2.53613 19.2169 3.05044 19.2169H6.36175C7.1703 21.0047 8.15425 22.6206 9.31902 24.1283H5.43004C5.04555 23.0438 4.00948 22.2649 2.79515 22.2649C1.25409 22.2649 0 23.519 0 25.06C0 26.6011 1.25409 27.8552 2.79515 27.8552C4.00948 27.8552 5.04555 27.0763 5.43004 25.9918H10.9079C12.2204 27.3912 13.7105 28.6763 15.3683 29.8323C15.6889 30.0559 16.1137 30.0559 16.4342 29.8323C18.0921 28.6763 19.5822 27.3912 20.8947 25.9918H26.3725C26.757 27.0763 27.7931 27.8552 29.0074 27.8552C30.5485 27.8552 31.8026 26.6011 31.8026 25.06C31.8026 23.519 30.5485 22.2649 29.0074 22.2649C27.7931 22.2649 26.757 23.0438 26.3725 24.1283H22.4835C23.6455 22.6242 24.6304 21.0088 25.4408 19.2169H28.7521C29.2664 19.2169 29.6838 18.7995 29.6838 18.2852C29.6838 17.7703 29.2664 17.3535 28.7521 17.3535H26.1924C26.509 16.4672 26.7469 15.6524 26.9508 14.8037ZM21.0282 19.5766C21.0282 20.5133 20.2667 21.2748 19.33 21.2748H12.4726C11.5359 21.2748 10.7744 20.5133 10.7744 19.5766V14.241C10.7744 13.5006 11.2502 12.8701 11.9123 12.6378V12.0316C11.9123 9.83208 13.7018 8.04257 15.9013 8.04257C18.1007 8.04257 19.8903 9.83208 19.8903 12.0316V12.6378C20.5524 12.8701 21.0282 13.5006 21.0282 14.241V19.5766Z" fill="white"></path><path d="M12.6406 14.4062V19.4114H19.1676V14.4062H12.6406ZM16.8358 17.2374C16.8358 17.7524 16.4184 18.1691 15.9041 18.1691C15.3898 18.1691 14.9724 17.7524 14.9724 17.2374V16.5803C14.9724 16.0653 15.3898 15.6485 15.9041 15.6485C16.4184 15.6485 16.8358 16.0653 16.8358 16.5803V17.2374Z" fill="white"></path><path d="M18.0324 12.0316V12.5428H13.7812V12.0316C13.7812 10.8595 14.7347 9.90601 15.9068 9.90601C17.0789 9.90601 18.0324 10.8595 18.0324 12.0316Z" fill="white"></path></svg>