<svg xmlns="http://www.w3.org/2000/svg" width="30" height="30" viewBox="0 0 30 30" fill="none"><path d="M29.54 14.1575L28.81 13.6875L16.62 21.5175C16.13 21.8275 15.57 21.9975 15 21.9975C14.43 21.9975 13.87 21.8375 13.38 21.5275L1.19 13.6875L0.46 14.1575C0.17 14.3375 0 14.6575 0 14.9975C0 15.3375 0.17 15.6575 0.46 15.8375L14.46 24.8375C14.63 24.9475 14.81 24.9975 15 24.9975C15.19 24.9975 15.38 24.9475 15.54 24.8375L29.54 15.8375C29.83 15.6575 30 15.3375 30 14.9975C30 14.6575 29.83 14.3375 29.54 14.1575Z" fill="#E91CFF"></path><path d="M29.54 19.1575L28.81 18.6875L16.62 26.5175C16.13 26.8275 15.57 26.9975 15 26.9975C14.43 26.9975 13.87 26.8375 13.38 26.5275L1.19 18.6875L0.46 19.1575C0.17 19.3375 0 19.6575 0 19.9975C0 20.3375 0.17 20.6575 0.46 20.8375L14.46 29.8375C14.63 29.9475 14.81 29.9975 15 29.9975C15.19 29.9975 15.38 29.9475 15.54 29.8375L29.54 20.8375C29.83 20.6575 30 20.3375 30 19.9975C30 19.6575 29.83 19.3375 29.54 19.1575Z" fill="#E91CFF"></path><path d="M0.46 10.8375L14.46 19.8375C14.63 19.9475 14.81 19.9975 15 19.9975C15.19 19.9975 15.38 19.9475 15.54 19.8375L29.54 10.8375C29.83 10.6575 30 10.3375 30 9.9975C30 9.6575 29.83 9.3375 29.54 9.1575L15.54 0.1575C15.21 -0.0525 14.79 -0.0525 14.46 0.1575L0.46 9.1575C0.17 9.3375 0 9.6575 0 9.9975C0 10.3375 0.17 10.6575 0.46 10.8375ZM18.32 8.6575C17.94 8.2575 17.95 7.6275 18.34 7.2475C18.74 6.8675 19.37 6.8775 19.75 7.2675L21.71 9.2975C22.09 9.6875 22.09 10.2975 21.71 10.6875L19.75 12.7175C19.55 12.9175 19.29 13.0175 19.03 13.0175C18.77 13.0175 18.53 12.9275 18.33 12.7375C17.93 12.3575 17.92 11.7175 18.31 11.3275L19.6 9.9875L18.31 8.6475L18.32 8.6575ZM13.24 13.0075L14.81 6.5075C14.94 5.9675 15.48 5.6375 16.02 5.7675C16.56 5.8975 16.89 6.4375 16.76 6.9775L15.19 13.4775C15.08 13.9375 14.67 14.2375 14.22 14.2375C14.14 14.2375 14.06 14.2375 13.98 14.2075C13.44 14.0775 13.11 13.5375 13.24 12.9975V13.0075ZM8.28 9.2975L10.24 7.2675C10.62 6.8675 11.26 6.8575 11.65 7.2475C12.05 7.6275 12.06 8.2675 11.67 8.6575L10.38 9.9975L11.67 11.3375C12.05 11.7375 12.04 12.3675 11.65 12.7475C11.46 12.9375 11.2 13.0275 10.95 13.0275C10.7 13.0275 10.43 12.9275 10.23 12.7275L8.27 10.6975C7.89 10.3075 7.89 9.6975 8.27 9.3075L8.28 9.2975Z" fill="#E91CFF"></path></svg>