<svg xmlns="http://www.w3.org/2000/svg" width="50" height="50" viewBox="0 0 50 50" fill="none"><g clip-path="url(#clip0_8447_1920)"><path d="M8.33321 16.6669C3.73268 16.6669 0 12.9356 0 8.33321C0 3.73077 3.73268 0 8.33321 0C12.9352 0 16.6664 3.73125 16.6664 8.33321C16.6664 12.9352 20.3981 16.6669 25.0001 16.6669C29.6021 16.6669 33.3333 12.9356 33.3333 8.33368C33.3333 3.73173 37.065 0 41.667 0C46.2689 0 50.0002 3.73125 50.0002 8.33321C50.0002 12.9352 46.2689 16.6664 41.667 16.6664C27.8583 16.6664 16.6669 27.8625 16.6669 41.666C16.6669 46.2656 12.9356 49.9992 8.33368 49.9992C3.73173 49.9992 0 46.2689 0 41.667C0 37.065 3.73125 33.3333 8.33321 33.3333C12.9352 33.3333 16.6655 29.602 16.6655 25.0001C16.6655 20.3981 12.9356 16.6669 8.33321 16.6669Z" fill="url(#paint0_linear_8447_1920)" style="fill: url(#paint1_linear_8447_1920) !important;"></path><path d="M22.9219 36.458C22.9219 28.975 28.9834 22.9163 36.4641 22.9163C43.9447 22.9167 50.0053 28.975 50.0053 36.458C50.0053 43.9376 43.9447 50.0001 36.4631 50.0001C28.9825 50.0001 22.9219 43.9376 22.9219 36.458Z" fill="url(#paint1_linear_8447_1920)" style="fill: url(#paint1_linear_8447_1920) !important;"></path></g><defs><linearGradient id="paint0_linear_8447_1920" x1="15.5326" y1="5.99992" x2="41.7142" y2="8.10246" gradientUnits="userSpaceOnUse"><stop stop-color="#E91CFF"></stop><stop offset="1" stop-color="#43BAFF"></stop></linearGradient><linearGradient id="paint1_linear_8447_1920" x1="31.3354" y1="26.1663" x2="45.5171" y2="27.3052" gradientUnits="userSpaceOnUse"><stop stop-color="#E91CFF"></stop><stop offset="1" stop-color="#43BAFF"></stop></linearGradient><clipPath id="clip0_8447_1920"><rect width="50" height="50" fill="white"></rect></clipPath></defs></svg>