<svg xmlns="http://www.w3.org/2000/svg" width="30" height="30" viewBox="0 0 30 30" fill="none"><path d="M11.7 1.01721C10.5 1.01721 9.39844 1.72502 8.88281 2.7844C10.2141 3.30471 10.9172 4.67346 10.6078 6.3094C10.5656 6.5344 10.3687 6.68909 10.1484 6.68909C10.1203 6.68909 10.0922 6.68909 10.0641 6.67971C9.80625 6.63284 9.6375 6.38909 9.68906 6.13596C9.89531 5.0344 9.50156 3.81565 8.16562 3.54846H8.16094C8.13281 3.54377 8.10469 3.5344 8.08125 3.52502C8.07656 3.52502 8.06719 3.52502 8.0625 3.52034C7.65 3.33284 7.21875 3.23909 6.77344 3.23909C5.04375 3.23909 3.63281 4.65002 3.63281 6.37971C3.63281 6.80627 3.72188 7.22346 3.89062 7.6219C3.89531 7.63596 3.9 7.65002 3.90469 7.66409C4.14844 8.28284 4.77656 8.58284 5.37656 8.36252C5.61562 8.27346 5.8875 8.40002 5.97656 8.63909C6.06563 8.88284 5.93906 9.15471 5.69531 9.24377C5.46094 9.32815 5.22188 9.37034 4.98281 9.37034C4.27031 9.37034 3.6 8.99534 3.21094 8.36252C1.86563 8.73752 0.928125 9.96096 0.928125 11.386C0.928125 11.9063 1.05469 12.4125 1.29844 12.8625C2.44688 12.3563 3.80625 12.7406 4.56562 13.8422C4.71094 14.0578 4.65469 14.3485 4.44375 14.4938C4.35938 14.55 4.27031 14.5781 4.17656 14.5781C4.02656 14.5781 3.88125 14.5078 3.79219 14.3766C3.23438 13.561 2.18906 13.3406 1.40156 13.8703H1.39688C1.3875 13.8797 1.38281 13.8844 1.37344 13.8891C0.525 14.3906 0 15.3047 0 16.2797C0 17.6156 0.951562 18.7688 2.26406 19.0172C2.42812 19.0453 2.56406 19.1672 2.62031 19.3266C2.67188 19.4906 2.63437 19.6688 2.51719 19.7953C1.98281 20.3719 1.69219 21.1313 1.69219 21.9235C1.69219 23.6485 3.08906 25.0547 4.80938 25.0641C5.38594 24.9328 6.85313 24.4172 6.98906 23.7188C7.03594 23.4656 7.27969 23.3016 7.5375 23.3485C7.79063 23.4 7.95938 23.6485 7.90781 23.9016C7.68281 25.0688 6.13125 25.6594 5.31094 25.8985C5.34844 27.4031 6.57656 28.6078 8.09062 28.6078C8.55 28.6078 9 28.4906 9.40781 28.275H9.4125C9.44531 28.2281 9.49219 28.1953 9.54844 28.1672C10.425 27.7219 10.7812 26.7094 10.3641 25.861C10.2469 25.6266 10.3406 25.3453 10.575 25.2328C10.8047 25.1157 11.0859 25.2094 11.2031 25.4438C11.7422 26.5313 11.4656 27.7828 10.5984 28.5703C11.0344 28.8375 11.5359 28.9828 12.0609 28.9828C13.1812 28.9828 14.2078 28.2938 14.6344 27.2578V15.9328C14.0391 15.3891 13.2 15.3141 12.5344 15.7641C12.3187 15.9094 12.0281 15.8578 11.8828 15.6422C11.7375 15.4266 11.7938 15.136 12.0094 14.9906C12.8109 14.4469 13.8047 14.4 14.6344 14.8125V10.3313C14.0391 9.78752 13.2 9.71252 12.5297 10.1578C12.3141 10.3031 12.0234 10.2422 11.8828 10.0313C11.7375 9.81565 11.7938 9.52502 12.0094 9.37971C12.8109 8.84065 13.8047 8.79846 14.6344 9.20627V3.0469C14.1797 1.82815 13.0125 1.01721 11.7 1.01721ZM7.02656 20.5453C6.99844 20.5453 6.96563 20.5406 6.9375 20.536C5.49375 20.2547 4.57969 18.8766 4.85625 17.3953C4.90312 17.1422 5.14687 16.9735 5.40469 17.0203C5.65781 17.0672 5.82656 17.311 5.775 17.5688C5.59687 18.5344 6.18281 19.4344 7.11563 19.6172C7.36875 19.6641 7.5375 19.9125 7.48594 20.1656C7.44375 20.3906 7.24687 20.5453 7.02656 20.5453ZM6.74531 12.2625C6.52969 12.4078 6.23906 12.3516 6.09375 12.136C5.94844 11.9203 6.00469 11.6297 6.22031 11.4844C7.43906 10.6641 9.06094 10.9922 9.91406 12.2344C10.0594 12.45 10.0031 12.7406 9.79219 12.886C9.70781 12.9422 9.61875 12.9703 9.525 12.9703C9.375 12.9703 9.22969 12.8953 9.14062 12.7641C8.58281 11.9531 7.53281 11.7328 6.74531 12.2625ZM12.15 19.5C12.1875 19.7531 12.0094 19.9922 11.7516 20.0297C11.6203 20.0485 11.4937 20.0578 11.3672 20.0578C10.0688 20.0578 8.95781 19.1063 8.75156 17.7516C8.71406 17.4938 8.8875 17.2547 9.14531 17.2172C9.39844 17.175 9.64219 17.3531 9.67969 17.611C9.825 18.5813 10.6828 19.2328 11.6203 19.1016C11.8734 19.0594 12.1125 19.2422 12.15 19.5Z" fill="white"></path><path d="M18.2203 7.32185L18.8391 6.31404C18.9516 6.33748 19.0688 6.35623 19.1906 6.35623C20.1656 6.35623 20.9578 5.56404 20.9578 4.58904C20.9578 3.61873 20.1656 2.82654 19.1906 2.82654C18.2156 2.82654 17.4234 3.61873 17.4234 4.58904C17.4234 5.00154 17.5688 5.36716 17.8031 5.67185L17.3578 6.38904H15.4219V7.60779H17.7C17.9156 7.60779 18.1125 7.49998 18.2203 7.32185Z" fill="white"></path><path d="M22.1609 10.5657L23.8719 8.56416C23.9656 8.45166 24.0172 8.31104 24.0172 8.17041V6.23916C24.6875 5.99072 25.175 5.34854 25.175 4.58916C25.175 3.61885 24.3781 2.82666 23.4078 2.82666C22.4328 2.82666 21.6406 3.61885 21.6406 4.58916C21.6406 5.34854 22.1234 5.99541 22.7984 6.23916V7.94541L21.4156 9.5626H15.4297V10.7813H21.6969C21.875 10.7813 22.0438 10.7017 22.1609 10.5657Z" fill="white"></path><path d="M22.5688 13.2656L24.9828 10.4953H26.5813C26.8297 11.1656 27.4719 11.6485 28.2312 11.6485C29.2063 11.6485 29.9984 10.8563 29.9984 9.88127C29.9984 8.91096 29.2063 8.11877 28.2312 8.11877C27.4672 8.11877 26.825 8.60628 26.5813 9.27659H24.7063C24.5281 9.27659 24.3594 9.35159 24.2422 9.48284L21.8281 12.2531H15.4297V13.4719H22.1094C22.2875 13.4719 22.4563 13.3969 22.5688 13.2656Z" fill="white"></path><path d="M19.2016 23.6438C19.0797 23.6438 18.9625 23.6625 18.85 23.686L18.2312 22.6781C18.1187 22.5 17.9266 22.3922 17.7156 22.3922H15.4375V23.611H17.3734L17.8141 24.3281C17.5797 24.6281 17.4344 24.9985 17.4344 25.411C17.4344 26.3813 18.2266 27.1735 19.2016 27.1735C20.1766 27.1735 20.9687 26.3813 20.9687 25.411C20.9687 24.436 20.1766 23.6438 19.2016 23.6438Z" fill="white"></path><path d="M24.0172 23.7609V21.8297C24.0172 21.6891 23.9656 21.5484 23.8719 21.4313L22.1609 19.4297C22.0438 19.2984 21.875 19.2188 21.6969 19.2188H15.4297V20.4375H21.4156L22.7984 22.0547V23.7609C22.1234 24.0094 21.6406 24.6516 21.6406 25.4109C21.6406 26.3812 22.4328 27.1734 23.4078 27.1734C24.3781 27.1734 25.175 26.3812 25.175 25.4109C25.175 24.6516 24.6875 24.0047 24.0172 23.7609Z" fill="white"></path><path d="M28.2312 18.3515C27.4719 18.3515 26.8297 18.8343 26.5813 19.5046H24.9828L22.5688 16.7343C22.4563 16.6031 22.2875 16.5281 22.1094 16.5281H15.4297V17.7468H21.8281L24.2422 20.5171C24.3547 20.6484 24.5234 20.7234 24.7063 20.7234H26.5813C26.825 21.3937 27.4672 21.8812 28.2312 21.8812C29.2063 21.8812 29.9984 21.089 29.9984 20.1187C29.9984 19.1437 29.2063 18.3515 28.2312 18.3515Z" fill="white"></path></svg>