<svg xmlns="http://www.w3.org/2000/svg" width="46" height="50" viewBox="0 0 46 50" fill="none"><path d="M29.6762 47.7142C3.34657 42.6551 6.47704 4.60724 33.2328 3.86609C33.9526 3.81982 35.0415 4.18325 35.2761 3.2143C35.3274 3.01289 35.3057 2.79961 35.2148 2.61295C35.124 2.4263 34.97 2.27857 34.7807 2.19645C31.5948 0.744056 28.1383 -0.00479162 24.6425 2.30703e-05C-8.21846 1.37192 -8.20992 48.6326 24.6427 50C26.3457 49.9989 28.0441 49.8224 29.7116 49.4732C29.9145 49.4311 30.0965 49.3186 30.2258 49.1552C30.3551 48.9918 30.4236 48.7879 30.4194 48.5788C30.4152 48.3698 30.3385 48.1688 30.2027 48.0109C30.067 47.8529 29.8807 47.748 29.6762 47.7142Z" fill="url(#paint0_linear_8447_1926)" style="fill: url(#paint0_linear_8447_1926) !important;"></path><path d="M45.9457 17.6608C42.0191 6.90899 27.8562 3.82945 19.9191 12.0359C16.9493 15.0377 15.2812 19.1063 15.2812 23.3483C15.2812 27.5904 16.9493 31.659 19.9191 34.6608C20.6909 35.4384 21.5386 36.1354 22.4492 36.7411C22.6221 36.8543 22.8286 36.9031 23.0333 36.8791C23.238 36.8551 23.428 36.7598 23.5705 36.6096C23.713 36.4594 23.7992 36.2637 23.8141 36.0563C23.8291 35.8488 23.7719 35.6427 23.6523 35.4732C21.6962 32.7183 20.8383 29.3215 21.2492 25.9577C21.6601 22.5938 23.3097 19.509 25.8703 17.3161C28.4308 15.1232 31.715 13.9826 35.0704 14.1209C38.4258 14.2592 41.6069 15.6663 43.9818 18.0627C44.3843 18.5258 44.9187 19.1599 45.5742 18.7411C45.7503 18.632 45.8835 18.4648 45.9512 18.2679C46.0189 18.071 46.017 17.8564 45.9457 17.6608Z" fill="url(#paint1_linear_8447_1926)" style="fill: url(#paint1_linear_8447_1926) !important;"></path><path d="M34.4152 17.2231C31.8623 17.2255 29.4146 18.2494 27.6086 20.0704C25.8027 21.8914 24.7859 24.3609 24.7812 26.9374C24.8725 27.8373 24.6316 29.5714 25.8693 29.6429C26.0765 29.6382 26.2755 29.5607 26.4322 29.4238C26.5889 29.2869 26.6933 29.0991 26.7275 28.8928C28.4815 19.6198 41.7363 21.0817 41.5101 30.5089C41.5054 30.6296 41.5247 30.7499 41.5669 30.8629C41.6092 30.9759 41.6734 31.0791 41.7559 31.1665C41.8384 31.254 41.9375 31.3238 42.0472 31.3718C42.157 31.4199 42.2752 31.4452 42.3948 31.4463C42.5654 31.4481 42.7327 31.399 42.8759 31.3053C43.0191 31.2117 43.1318 31.0775 43.1998 30.9196C43.7629 29.6691 44.0526 28.3109 44.0491 26.9374C44.0444 24.3609 43.0276 21.8915 41.2217 20.0704C39.4157 18.2494 36.968 17.2255 34.4152 17.2231Z" fill="url(#paint2_linear_8447_1926)" style="fill: url(#paint1_linear_8447_1926) !important;"></path><defs><linearGradient id="paint0_linear_8447_1926" x1="10.967" y1="6.00001" x2="29.5125" y2="7.05154" gradientUnits="userSpaceOnUse"><stop stop-color="#E91CFF"></stop><stop offset="1" stop-color="#43BAFF"></stop></linearGradient><linearGradient id="paint1_linear_8447_1926" x1="24.8242" y1="10.9115" x2="40.9013" y2="12.2552" gradientUnits="userSpaceOnUse"><stop stop-color="#E91CFF"></stop><stop offset="1" stop-color="#43BAFF"></stop></linearGradient><linearGradient id="paint2_linear_8447_1926" x1="30.7668" y1="18.9299" x2="40.8024" y2="20.0217" gradientUnits="userSpaceOnUse"><stop stop-color="#E91CFF"></stop><stop offset="1" stop-color="#43BAFF"></stop></linearGradient></defs></svg>