<svg xmlns="http://www.w3.org/2000/svg" width="33" height="30" viewBox="0 0 33 30" fill="none"><path fill-rule="evenodd" clip-rule="evenodd" d="M21.9567 16.3336C23.3928 19.1565 24.426 22.0249 25.1256 24.9311C25.3578 25.8956 24.2329 26.6139 23.4369 26.0095C22.2968 25.1439 21.2279 24.2289 20.2568 23.2462C20.2399 23.2292 20.2336 23.2068 20.239 23.1837L21.8282 16.3488C21.8427 16.287 21.9278 16.2769 21.9567 16.3336ZM26.5713 1.79951C25.6478 1.79951 24.8946 2.543 24.8946 3.45454V9.56619C24.8946 9.59224 24.8807 9.6146 24.8572 9.62651L22.0834 11.0339C22.0336 11.0592 22.0336 11.1293 22.0834 11.1546L24.8572 12.562C24.8807 12.5739 24.8946 12.5963 24.8946 12.6223V15.9411C24.8946 16.8526 25.6478 17.5961 26.5713 17.5961H30.6716C31.4745 17.5961 32.1496 17.0541 32.3132 16.2782C33.1975 12.0836 33.2615 7.71237 32.3086 3.12226C32.147 2.34421 31.4706 1.79951 30.666 1.79951H26.5713ZM27.4823 6.25757C27.1976 6.25757 26.9667 6.0297 26.9667 5.74858C26.9667 5.46754 27.1975 5.2396 27.4823 5.2396H30.3338C30.6185 5.2396 30.8494 5.46746 30.8494 5.74858C30.8494 6.02963 30.6186 6.25757 30.3338 6.25757H27.4823ZM27.4823 10.2067C27.1976 10.2067 26.9667 9.97885 26.9667 9.69773C26.9667 9.41668 27.1975 9.18874 27.4823 9.18874H30.3338C30.6185 9.18874 30.8494 9.41661 30.8494 9.69773C30.8494 9.97877 30.6186 10.2067 30.3338 10.2067H27.4823ZM27.4823 14.1559C27.1976 14.1559 26.9667 13.928 26.9667 13.6469C26.9667 13.3658 27.1975 13.1379 27.4823 13.1379H30.3338C30.6185 13.1379 30.8494 13.3658 30.8494 13.6469C30.8494 13.9279 30.6186 14.1559 30.3338 14.1559H27.4823ZM21.2711 8.32251C21.2251 8.34921 21.1675 8.31667 21.1675 8.26407V3.28995C21.1675 3.23735 21.2252 3.20481 21.2711 3.23151L23.3739 4.45447C23.3954 4.46703 23.4077 4.48824 23.4077 4.51292V7.0411C23.4077 7.06578 23.3954 7.08699 23.3739 7.09955L21.2711 8.32251ZM3.88547 8.32251L1.78276 7.09955C1.76119 7.08699 1.74891 7.06578 1.74891 7.0411V4.51292C1.74891 4.48824 1.76119 4.46703 1.78276 4.45447L3.88547 3.23151C3.93145 3.20481 3.98906 3.23735 3.98906 3.28995V8.26407C3.98906 8.31674 3.93138 8.34928 3.88547 8.32251ZM9.53002 3.89649C10.5822 3.89649 11.4351 4.73847 11.4351 5.77701C11.4351 6.81562 10.5821 7.65753 9.53002 7.65753C8.47782 7.65753 7.62489 6.81555 7.62489 5.77701C7.62489 4.73847 8.47789 3.89649 9.53002 3.89649ZM15.6265 3.89649C16.6787 3.89649 17.5317 4.73847 17.5317 5.77701C17.5317 6.81562 16.6787 7.65753 15.6265 7.65753C14.5743 7.65753 13.7214 6.81555 13.7214 5.77701C13.7213 4.73847 14.5743 3.89649 15.6265 3.89649ZM7.08125 0.508787C5.8338 0.755198 4.95763 1.81019 4.95763 3.06598V8.49381C4.95763 9.75264 5.83848 10.8098 7.0898 11.0527C10.6192 11.7377 14.2724 11.7159 18.044 11.0175C19.3054 10.784 20.1989 9.72118 20.1989 8.45434V3.10877C20.1989 1.84424 19.3089 0.78305 18.0505 0.546813C14.2523 -0.166156 10.5946 -0.185133 7.08125 0.508787ZM7.41181 22.6433L6.47489 17.6887C6.21465 16.3125 7.17891 15.0188 8.58549 14.85C11.2408 14.5314 13.9333 14.5398 16.5698 14.8543C17.9689 15.0212 18.944 16.3062 18.6817 17.6932L17.7509 22.6159C17.5591 23.63 16.7776 24.3868 15.749 24.5561C13.6213 24.9063 11.4744 24.9405 9.3942 24.581C8.37117 24.4041 7.60267 23.6532 7.41181 22.6433ZM12.5783 12.3305C9.3798 12.3305 6.43066 13.2393 4.06515 14.7696C4.04066 14.7855 4.02933 14.8133 4.03584 14.8416L6.43812 25.1726C7.10281 28.0314 9.60685 30 12.5783 30C15.5497 30 18.0537 28.0314 18.7184 25.1726L21.1207 14.8416C21.1273 14.8133 21.116 14.7855 21.0914 14.7696C18.7259 13.2393 15.7768 12.3305 12.5783 12.3305ZM17.6649 16.9381C17.5321 16.3634 17.0424 15.9351 16.4489 15.8643C13.8565 15.555 11.3155 15.5469 8.70633 15.86C7.88586 15.9584 7.33461 16.7053 7.48593 17.5058L8.42285 22.4605C8.5325 23.0402 8.94734 23.442 9.52439 23.569C9.56752 23.5785 9.60809 23.5464 9.60809 23.5027V21.501C9.60809 21.2342 9.81613 21.0153 10.0808 20.9938V20.992H10.1237C10.4084 20.992 10.6393 21.2199 10.6393 21.501V23.6665C10.6393 23.7014 10.6658 23.7303 10.701 23.7339C11.1343 23.7782 11.5719 23.8057 12.0138 23.8162C12.0526 23.8171 12.0842 23.7867 12.0842 23.7484V19.7249C12.0842 19.4581 12.2921 19.2394 12.5567 19.2177V19.2159H12.5998C12.8846 19.2159 13.1155 19.4438 13.1155 19.7249V23.7371C13.1155 23.7759 13.1479 23.8065 13.1871 23.8049C13.6186 23.7866 14.056 23.7528 14.4993 23.7034C14.5342 23.6995 14.5603 23.6707 14.5603 23.636V17.9552C14.5603 17.6885 14.7683 17.4697 15.0328 17.448V17.4462H15.076C15.3607 17.4462 15.5916 17.6741 15.5916 17.9552V23.4691C15.5916 23.5129 15.6326 23.5451 15.6759 23.5351C16.2297 23.4078 16.6341 22.9915 16.7397 22.433L17.6706 17.5103C17.7085 17.3096 17.7064 17.1182 17.6649 16.9381ZM3.19987 16.3336C3.22874 16.2769 3.31391 16.287 3.32831 16.3489L4.91757 23.1838C4.92298 23.2069 4.91662 23.2293 4.89981 23.2463C3.92868 24.2289 2.85974 25.1439 1.71967 26.0096C0.923617 26.614 -0.201169 25.8957 0.0309229 24.9312C0.730561 22.0249 1.76375 19.1565 3.19987 16.3336Z" fill="white"></path></svg>