<svg xmlns="http://www.w3.org/2000/svg" width="50" height="50" viewBox="0 0 50 50" fill="none"><path d="M48.6128 21.6884C47.7242 20.7998 46.5566 20.3141 45.3064 20.3141C40.574 20.3141 35.9036 21.0787 31.4192 22.5976L29.332 23.3003C29.208 23.3416 29.1357 23.1659 29.2493 23.1143L31.2332 22.1327C35.48 20.0351 39.3237 17.2763 42.6715 13.9285C43.5498 13.0502 44.0354 11.9033 44.0458 10.684C44.0768 8.12151 41.9896 5.98264 39.427 5.94131C38.1561 5.92064 36.9575 6.41662 36.0586 7.31556C32.7108 10.6634 29.952 14.5071 27.8544 18.7539L26.8728 20.7378C26.8108 20.8514 26.6455 20.7791 26.6868 20.6551L27.3894 18.5679C28.9083 14.0835 29.673 9.4131 29.673 4.68072C29.673 3.43046 29.1873 2.25253 28.2987 1.37425C27.4101 0.485637 26.2425 0 24.9923 0C23.742 0 22.5641 0.485637 21.6858 1.37425C20.7972 2.26286 20.3115 3.43046 20.3115 4.68072C20.3115 9.4131 21.0762 14.0835 22.5951 18.5679L23.2977 20.6551C23.339 20.7791 23.1634 20.8514 23.1117 20.7378L22.1301 18.7539C20.0325 14.5071 17.2737 10.6634 13.9259 7.31556C13.0476 6.43728 11.9007 5.95164 10.6814 5.94131C8.1086 5.91031 5.96973 7.99752 5.93873 10.56C5.91806 11.831 6.41403 13.0296 7.31298 13.9285C10.6608 17.2763 14.5045 20.0351 18.7513 22.1327L20.7352 23.1143C20.8488 23.1763 20.7765 23.3416 20.6525 23.3003L18.5653 22.5976C14.0809 21.0787 9.41052 20.3141 4.67814 20.3141C3.42788 20.3141 2.24995 20.7998 1.37167 21.6884C-0.457223 23.5173 -0.457223 26.4827 1.37167 28.3116C2.26028 29.2002 3.42788 29.6859 4.67814 29.6859C9.41052 29.6859 14.0809 28.9213 18.5653 27.4024L20.6525 26.6997C20.7765 26.6584 20.8488 26.8341 20.7352 26.8857L18.7513 27.8673C14.5045 29.9649 10.6608 32.7237 7.31298 36.0715C6.4347 36.9498 5.94906 38.0967 5.93873 39.316C5.90773 41.8785 7.99494 44.0174 10.5575 44.0587C11.8284 44.0794 13.027 43.5834 13.9259 42.6844C17.2737 39.3366 20.0325 35.4929 22.1301 31.2461L23.1117 29.2622C23.1737 29.1486 23.339 29.2209 23.2977 29.3449L22.5951 31.4321C21.0762 35.9165 20.3115 40.5869 20.3115 45.3193C20.3115 46.5695 20.7972 47.7475 21.6858 48.6257C22.5744 49.5144 23.742 50 24.9923 50C26.2425 50 27.4204 49.5144 28.2987 48.6257C29.1873 47.7371 29.673 46.5695 29.673 45.3193C29.673 40.5869 28.9083 35.9165 27.3894 31.4321L26.6868 29.3449C26.6455 29.2209 26.8211 29.1486 26.8728 29.2622L27.8544 31.2461C29.952 35.4929 32.7108 39.3366 36.0586 42.6844C36.9369 43.5627 38.0838 44.0484 39.3031 44.0587C41.8656 44.0897 44.0044 42.0025 44.0458 39.44C44.0664 38.169 43.5705 36.9704 42.6715 36.0715C39.3237 32.7237 35.48 29.9649 31.2332 27.8673L29.2493 26.8857C29.1357 26.8237 29.208 26.6584 29.332 26.6997L31.4192 27.4024C35.9036 28.9213 40.574 29.6859 45.3064 29.6859C46.5566 29.6859 47.7346 29.2002 48.6128 28.3116C50.4417 26.4827 50.4417 23.5069 48.6128 21.6884Z" fill="url(#paint0_linear_8447_1915)" style="fill: url(#paint0_linear_8447_1915) !important;"></path><defs><linearGradient id="paint0_linear_8447_1915" x1="15.5277" y1="6.00001" x2="41.7013" y2="8.10121" gradientUnits="userSpaceOnUse"><stop stop-color="#E91CFF"></stop><stop offset="1" stop-color="#43BAFF"></stop></linearGradient></defs></svg>